<svg width="20" height="20" viewBox="0 0 20 20" fill="none" xmlns="http://www.w3.org/2000/svg">
<path d="M3.4922 3.33314C3.40716 3.33314 3.3335 3.40122 3.3335 3.49185V16.293C3.3335 16.378 3.40716 16.4517 3.4922 16.4517H16.9339C17.019 16.4517 17.0926 16.378 17.0926 16.293C17.0926 16.2023 17.019 16.1343 16.9339 16.1343H3.65077V3.49171C3.65077 3.40098 3.58283 3.33314 3.4922 3.33314ZM13.0959 6.372C12.9882 6.372 12.9372 6.41731 12.9315 6.53071C12.9315 6.61575 12.9939 6.67245 13.0959 6.68941H15.256L10.2045 11.4346C9.58089 10.9073 8.94026 10.3914 8.40734 9.9379C8.379 9.90386 8.32799 9.88689 8.28257 9.88689C8.24853 9.89258 8.21449 9.90955 8.18614 9.9322L4.98871 12.8122C4.90936 12.8632 4.89228 12.988 4.95467 13.056C5.01706 13.124 5.14172 13.1183 5.19842 13.0446L8.29956 10.2553C8.92879 10.7882 9.56942 11.3154 10.1137 11.769C10.1704 11.82 10.2669 11.82 10.3234 11.769L15.4937 6.91042V9.09314C15.4937 9.17819 15.5674 9.25185 15.6524 9.25185C15.7375 9.25185 15.8168 9.17819 15.8111 9.09314V6.53062C15.8111 6.44558 15.7375 6.37192 15.6524 6.37192L13.0959 6.372Z" fill="#485255" stroke="#485255" stroke-width="1.2" stroke-linejoin="round"/>
</svg>
