<svg width="195" height="195" viewBox="0 0 195 195" fill="none" xmlns="http://www.w3.org/2000/svg">
<g opacity="0.2">
<path d="M127.969 95.0625H69.4688C68.7375 95.0625 68.25 94.575 68.25 93.8438C68.25 93.1125 68.7375 92.625 69.4688 92.625H127.969C128.7 92.625 129.188 93.1125 129.188 93.8438C129.188 94.575 128.7 95.0625 127.969 95.0625Z" fill="#919EAB"/>
<path d="M120.656 107.25H69.4688C68.7375 107.25 68.25 106.762 68.25 106.031C68.25 105.3 68.7375 104.812 69.4688 104.812H120.656C121.388 104.812 121.875 105.3 121.875 106.031C121.875 106.762 121.388 107.25 120.656 107.25Z" fill="#919EAB"/>
<path d="M91.4062 119.437H69.4688C68.7375 119.437 68.25 118.95 68.25 118.219C68.25 117.487 68.7375 117 69.4688 117H91.4062C92.1375 117 92.625 117.487 92.625 118.219C92.625 118.95 92.1375 119.437 91.4062 119.437Z" fill="#919EAB"/>
<path d="M67.0312 45.0938H54.8438V57.2812H67.0312V45.0938Z" fill="#0076FF" fill-opacity="0.3"/>
<path d="M67.0312 58.5H54.8438C54.1125 58.5 53.625 58.0125 53.625 57.2813V45.0938C53.625 44.3625 54.1125 43.875 54.8438 43.875H67.0312C67.7625 43.875 68.25 44.3625 68.25 45.0938V57.2813C68.25 58.0125 67.7625 58.5 67.0312 58.5ZM56.0625 56.0625H65.8125V46.3125H56.0625V56.0625Z" fill="#919EAB"/>
<path d="M85.3125 58.5H73.125V70.6875H85.3125V58.5Z" fill="#0076FF" fill-opacity="0.3"/>
<path d="M85.3125 71.9063H73.125C72.3937 71.9063 71.9062 71.4188 71.9062 70.6875V58.5C71.9062 57.7688 72.3937 57.2812 73.125 57.2812H85.3125C86.0438 57.2812 86.5312 57.7688 86.5312 58.5V70.6875C86.5312 71.4188 86.0438 71.9063 85.3125 71.9063ZM74.3438 69.4688H84.0938V59.7188H74.3438V69.4688Z" fill="#919EAB"/>
<path d="M91.4062 39H79.2188V51.1875H91.4062V39Z" fill="#0076FF" fill-opacity="0.1"/>
<path d="M91.4062 52.4063H79.2188C78.4875 52.4063 78 51.9188 78 51.1875V39C78 38.2688 78.4875 37.7812 79.2188 37.7812H91.4062C92.1375 37.7812 92.625 38.2688 92.625 39V51.1875C92.625 51.9188 92.1375 52.4063 91.4062 52.4063ZM80.4375 49.9688H90.1875V40.2188H80.4375V49.9688Z" fill="#919EAB"/>
<path d="M109.688 32.9062H97.5V45.0938H109.688V32.9062Z" fill="#0076FF" fill-opacity="0.1"/>
<path d="M109.688 46.3125H97.5C96.7688 46.3125 96.2812 45.825 96.2812 45.0938V32.9063C96.2812 32.175 96.7688 31.6875 97.5 31.6875H109.688C110.419 31.6875 110.906 32.175 110.906 32.9063V45.0938C110.906 45.825 110.419 46.3125 109.688 46.3125ZM98.7188 43.875H108.469V34.125H98.7188V43.875Z" fill="#919EAB"/>
<path d="M124.312 49.9688H107.25V67.0312H124.312V49.9688Z" fill="#0076FF" fill-opacity="0.6"/>
<path d="M124.312 68.25H107.25C106.519 68.25 106.031 67.7625 106.031 67.0312V49.9688C106.031 49.2375 106.519 48.75 107.25 48.75H124.312C125.044 48.75 125.531 49.2375 125.531 49.9688V67.0312C125.531 67.7625 125.044 68.25 124.312 68.25ZM108.469 65.8125H123.094V51.1875H108.469V65.8125Z" fill="#919EAB"/>
<path d="M147.469 42.6562H130.406V59.7188H147.469V42.6562Z" fill="#0076FF" fill-opacity="0.6"/>
<path d="M147.469 60.9375H130.406C129.675 60.9375 129.188 60.45 129.188 59.7188V42.6562C129.188 41.925 129.675 41.4375 130.406 41.4375H147.469C148.2 41.4375 148.688 41.925 148.688 42.6562V59.7188C148.688 60.45 148.2 60.9375 147.469 60.9375ZM131.625 58.5H146.25V43.875H131.625V58.5Z" fill="#919EAB"/>
<path d="M141.375 164.531H56.0625C51.9187 164.531 48.75 161.363 48.75 157.219V63.375C48.75 62.6437 49.2375 62.1562 49.9688 62.1562H67.0312C67.7625 62.1562 68.25 62.6437 68.25 63.375V75.5625H90.1875V63.375C90.1875 62.6437 90.675 62.1562 91.4062 62.1562H101.156C101.888 62.1562 102.375 62.6437 102.375 63.375V71.9062H129.188V65.8125C129.188 65.0812 129.675 64.5938 130.406 64.5938H147.469C148.2 64.5938 148.688 65.0812 148.688 65.8125V157.219C148.688 161.363 145.519 164.531 141.375 164.531ZM51.1875 64.5938V157.219C51.1875 159.9 53.3812 162.094 56.0625 162.094H141.375C144.056 162.094 146.25 159.9 146.25 157.219V67.0312H131.625V73.125C131.625 73.8563 131.138 74.3438 130.406 74.3438H101.156C100.425 74.3438 99.9375 73.8563 99.9375 73.125V64.5938H92.625V76.7812C92.625 77.5125 92.1375 78 91.4062 78H67.0312C66.3 78 65.8125 77.5125 65.8125 76.7812V64.5938H51.1875Z" fill="#919EAB"/>
<path d="M86.5312 139.965H67.0312C65.5687 139.965 64.5938 139.452 64.5938 138.682V133.55C64.5938 132.781 65.5687 132.268 67.0312 132.268H86.5312C87.9937 132.268 88.9688 132.781 88.9688 133.55V138.682C88.9688 139.452 87.9937 139.965 86.5312 139.965Z" fill="white"/>
<path d="M86.5313 140.605H67.0313C65.0813 140.605 63.375 139.707 63.375 138.681V133.549C63.375 132.523 65.0813 131.625 67.0313 131.625H86.5313C88.4813 131.625 90.1875 132.523 90.1875 133.549V138.681C90.1875 139.836 88.725 140.605 86.5313 140.605ZM67.0313 132.908C66.3 132.908 65.8125 133.164 65.8125 133.549V138.681C65.8125 139.066 66.3 139.322 67.0313 139.322H86.5313C87.2625 139.322 87.75 139.066 87.75 138.681V133.549C87.75 133.164 87.2625 132.908 86.5313 132.908H67.0313Z" fill="#919EAB"/>
<path d="M110.907 139.965H91.4067C89.9442 139.965 88.9692 139.452 88.9692 138.682V133.55C88.9692 132.781 89.9442 132.268 91.4067 132.268H110.907C112.369 132.268 113.344 132.781 113.344 133.55V138.682C113.344 139.452 112.369 139.965 110.907 139.965Z" fill="white"/>
<path d="M110.906 140.605H91.4065C89.4565 140.605 87.7502 139.707 87.7502 138.681V133.549C87.7502 132.523 89.4565 131.625 91.4065 131.625H110.906C112.856 131.625 114.563 132.523 114.563 133.549V138.681C114.563 139.836 113.1 140.605 110.906 140.605ZM91.4065 132.908C90.6752 132.908 90.1877 133.164 90.1877 133.549V138.681C90.1877 139.066 90.6752 139.322 91.4065 139.322H110.906C111.638 139.322 112.125 139.066 112.125 138.681V133.549C112.125 133.164 111.638 132.908 110.906 132.908H91.4065Z" fill="#919EAB"/>
<path d="M135.281 139.965H115.781C114.318 139.965 113.343 139.452 113.343 138.682V133.55C113.343 132.781 114.318 132.268 115.781 132.268H135.281C136.743 132.268 137.718 132.781 137.718 133.55V138.682C137.718 139.452 136.743 139.965 135.281 139.965Z" fill="white"/>
<path d="M135.282 140.605H115.782C113.832 140.605 112.126 139.707 112.126 138.681V133.549C112.126 132.523 113.832 131.625 115.782 131.625H135.282C137.232 131.625 138.938 132.523 138.938 133.549V138.681C138.938 139.836 137.476 140.605 135.282 140.605ZM115.782 132.908C115.051 132.908 114.563 133.164 114.563 133.549V138.681C114.563 139.066 115.051 139.322 115.782 139.322H135.282C136.013 139.322 136.501 139.066 136.501 138.681V133.549C136.501 133.164 136.013 132.908 135.282 132.908H115.782Z" fill="#919EAB"/>
<path d="M86.5313 148.303H67.0313C65.0813 148.303 63.375 147.405 63.375 146.379V141.247C63.375 140.221 65.0813 139.323 67.0313 139.323H86.5313C88.4813 139.323 90.1875 140.221 90.1875 141.247V146.379C90.1875 147.533 88.725 148.303 86.5313 148.303ZM67.0313 140.606C66.3 140.606 65.8125 140.862 65.8125 141.247V146.379C65.8125 146.764 66.3 147.02 67.0313 147.02H86.5313C87.2625 147.02 87.75 146.764 87.75 146.379V141.247C87.75 140.862 87.2625 140.606 86.5313 140.606H67.0313Z" fill="#919EAB"/>
<path d="M110.907 147.663H91.4067C89.9442 147.663 88.9692 147.15 88.9692 146.38V141.249C88.9692 140.479 89.9442 139.966 91.4067 139.966H110.907C112.369 139.966 113.344 140.479 113.344 141.249V146.38C113.344 147.15 112.369 147.663 110.907 147.663Z" fill="white"/>
<path d="M110.906 148.304H91.4065C89.4565 148.304 87.7502 147.405 87.7502 146.379V141.248C87.7502 140.221 89.4565 139.323 91.4065 139.323H110.906C112.856 139.323 114.563 140.221 114.563 141.248V146.379C114.563 147.534 113.1 148.304 110.906 148.304ZM91.4065 140.606C90.6752 140.606 90.1877 140.863 90.1877 141.248V146.379C90.1877 146.764 90.6752 147.021 91.4065 147.021H110.906C111.638 147.021 112.125 146.764 112.125 146.379V141.248C112.125 140.863 111.638 140.606 110.906 140.606H91.4065Z" fill="#919EAB"/>
<path d="M135.282 148.304H115.782C113.832 148.304 112.126 147.405 112.126 146.379V141.248C112.126 140.221 113.832 139.323 115.782 139.323H135.282C137.232 139.323 138.938 140.221 138.938 141.248V146.379C138.938 147.534 137.476 148.304 135.282 148.304ZM115.782 140.606C115.051 140.606 114.563 140.863 114.563 141.248V146.379C114.563 146.764 115.051 147.021 115.782 147.021H135.282C136.013 147.021 136.501 146.764 136.501 146.379V141.248C136.501 140.863 136.013 140.606 135.282 140.606H115.782Z" fill="#919EAB"/>
<path d="M86.5312 155.356H67.0312C65.5687 155.356 64.5938 154.843 64.5938 154.073V148.941C64.5938 148.172 65.5687 147.658 67.0312 147.658H86.5312C87.9937 147.658 88.9688 148.172 88.9688 148.941V154.073C88.9688 154.843 87.9937 155.356 86.5312 155.356Z" fill="white"/>
<path d="M86.5313 156.001H67.0313C65.0813 156.001 63.375 155.103 63.375 154.076V148.945C63.375 147.919 65.0813 147.021 67.0313 147.021H86.5313C88.4813 147.021 90.1875 147.919 90.1875 148.945V154.076C90.1875 155.231 88.725 156.001 86.5313 156.001ZM67.0313 148.303C66.3 148.303 65.8125 148.56 65.8125 148.945V154.076C65.8125 154.461 66.3 154.718 67.0313 154.718H86.5313C87.2625 154.718 87.75 154.461 87.75 154.076V148.945C87.75 148.56 87.2625 148.303 86.5313 148.303H67.0313Z" fill="#919EAB"/>
<path d="M110.907 155.357H91.4067C89.9442 155.357 88.9692 154.843 88.9692 154.074V148.942C88.9692 148.172 89.9442 147.659 91.4067 147.659H110.907C112.369 147.659 113.344 148.172 113.344 148.942V154.074C113.344 154.843 112.369 155.357 110.907 155.357Z" fill="white"/>
<path d="M110.906 156.001H91.4065C89.4565 156.001 87.7502 155.103 87.7502 154.077V148.946C87.7502 147.919 89.4565 147.021 91.4065 147.021H110.906C112.856 147.021 114.563 147.919 114.563 148.946V154.077C114.563 155.232 113.1 156.001 110.906 156.001ZM91.4065 148.304C90.6752 148.304 90.1877 148.561 90.1877 148.946V154.077C90.1877 154.462 90.6752 154.719 91.4065 154.719H110.906C111.638 154.719 112.125 154.462 112.125 154.077V148.946C112.125 148.561 111.638 148.304 110.906 148.304H91.4065Z" fill="#919EAB"/>
<path d="M135.281 155.357H115.781C114.318 155.357 113.343 154.843 113.343 154.074V148.942C113.343 148.172 114.318 147.659 115.781 147.659H135.281C136.743 147.659 137.718 148.172 137.718 148.942V154.074C137.718 154.843 136.743 155.357 135.281 155.357Z" fill="white"/>
<path d="M135.282 156.001H115.782C113.832 156.001 112.126 155.103 112.126 154.077V148.946C112.126 147.919 113.832 147.021 115.782 147.021H135.282C137.232 147.021 138.938 147.919 138.938 148.946V154.077C138.938 155.232 137.476 156.001 135.282 156.001ZM115.782 148.304C115.051 148.304 114.563 148.561 114.563 148.946V154.077C114.563 154.462 115.051 154.719 115.782 154.719H135.282C136.013 154.719 136.501 154.462 136.501 154.077V148.946C136.501 148.561 136.013 148.304 135.282 148.304H115.782Z" fill="#919EAB"/>
</g>
</svg>
