<svg width="17" height="18" viewBox="0 0 17 18" fill="none" xmlns="http://www.w3.org/2000/svg">
<path fill-rule="evenodd" clip-rule="evenodd" d="M9.64592 6.64592C9.69236 6.59935 9.74754 6.56241 9.80828 6.5372C9.86903 6.512 9.93415 6.49902 9.99992 6.49902C10.0657 6.49902 10.1308 6.512 10.1916 6.5372C10.2523 6.56241 10.3075 6.59935 10.3539 6.64592L12.3539 8.64592C12.4005 8.69236 12.4374 8.74754 12.4626 8.80828C12.4878 8.86903 12.5008 8.93415 12.5008 8.99992C12.5008 9.06568 12.4878 9.13081 12.4626 9.19155C12.4374 9.2523 12.4005 9.30747 12.3539 9.35392L10.3539 11.3539C10.26 11.4478 10.1327 11.5005 9.99992 11.5005C9.86714 11.5005 9.7398 11.4478 9.64592 11.3539C9.55203 11.26 9.49929 11.1327 9.49929 10.9999C9.49929 10.8671 9.55203 10.7398 9.64592 10.6459L11.2929 8.99992L9.64592 7.35392C9.59935 7.30747 9.56241 7.2523 9.5372 7.19155C9.512 7.13081 9.49902 7.06568 9.49902 6.99992C9.49902 6.93415 9.512 6.86903 9.5372 6.80828C9.56241 6.74754 9.59935 6.69236 9.64592 6.64592ZM8.35392 6.64592C8.30747 6.59935 8.2523 6.56241 8.19155 6.5372C8.13081 6.512 8.06568 6.49902 7.99992 6.49902C7.93415 6.49902 7.86903 6.512 7.80828 6.5372C7.74754 6.56241 7.69236 6.59935 7.64592 6.64592L5.64592 8.64592C5.59935 8.69236 5.56241 8.74754 5.5372 8.80828C5.512 8.86903 5.49902 8.93415 5.49902 8.99992C5.49902 9.06568 5.512 9.13081 5.5372 9.19155C5.56241 9.2523 5.59935 9.30747 5.64592 9.35392L7.64592 11.3539C7.7398 11.4478 7.86714 11.5005 7.99992 11.5005C8.13269 11.5005 8.26003 11.4478 8.35392 11.3539C8.4478 11.26 8.50055 11.1327 8.50055 10.9999C8.50055 10.8671 8.4478 10.7398 8.35392 10.6459L6.70692 8.99992L8.35392 7.35392C8.40048 7.30747 8.43742 7.2523 8.46263 7.19155C8.48784 7.13081 8.50081 7.06568 8.50081 6.99992C8.50081 6.93415 8.48784 6.86903 8.46263 6.80828C8.43742 6.74754 8.40048 6.69236 8.35392 6.64592Z" fill="#485255" stroke="#485255" stroke-width="0.3"/>
<path d="M4 1H14C14.5304 1 15.0391 1.21071 15.4142 1.58579C15.7893 1.96086 16 2.46957 16 3V15C16 15.5304 15.7893 16.0391 15.4142 16.4142C15.0391 16.7893 14.5304 17 14 17H4C3.46957 17 2.96086 16.7893 2.58579 16.4142C2.21071 16.0391 2 15.5304 2 15V14H3V15C3 15.2652 3.10536 15.5196 3.29289 15.7071C3.48043 15.8946 3.73478 16 4 16H14C14.2652 16 14.5196 15.8946 14.7071 15.7071C14.8946 15.5196 15 15.2652 15 15V3C15 2.73478 14.8946 2.48043 14.7071 2.29289C14.5196 2.10536 14.2652 2 14 2H4C3.73478 2 3.48043 2.10536 3.29289 2.29289C3.10536 2.48043 3 2.73478 3 3V4H2V3C2 2.46957 2.21071 1.96086 2.58579 1.58579C2.96086 1.21071 3.46957 1 4 1Z" fill="#485255" stroke="#485255" stroke-width="0.6"/>
<path d="M2 6V5.5C2 5.36739 2.05268 5.24021 2.14645 5.14645C2.24021 5.05268 2.36739 5 2.5 5C2.63261 5 2.75979 5.05268 2.85355 5.14645C2.94732 5.24021 3 5.36739 3 5.5V6H3.5C3.63261 6 3.75979 6.05268 3.85355 6.14645C3.94732 6.24021 4 6.36739 4 6.5C4 6.63261 3.94732 6.75979 3.85355 6.85355C3.75979 6.94732 3.63261 7 3.5 7H1.5C1.36739 7 1.24021 6.94732 1.14645 6.85355C1.05268 6.75979 1 6.63261 1 6.5C1 6.36739 1.05268 6.24021 1.14645 6.14645C1.24021 6.05268 1.36739 6 1.5 6H2ZM2 9V8.5C2 8.36739 2.05268 8.24021 2.14645 8.14645C2.24021 8.05268 2.36739 8 2.5 8C2.63261 8 2.75979 8.05268 2.85355 8.14645C2.94732 8.24021 3 8.36739 3 8.5V9H3.5C3.63261 9 3.75979 9.05268 3.85355 9.14645C3.94732 9.24021 4 9.36739 4 9.5C4 9.63261 3.94732 9.75979 3.85355 9.85355C3.75979 9.94732 3.63261 10 3.5 10H1.5C1.36739 10 1.24021 9.94732 1.14645 9.85355C1.05268 9.75979 1 9.63261 1 9.5C1 9.36739 1.05268 9.24021 1.14645 9.14645C1.24021 9.05268 1.36739 9 1.5 9H2ZM2 12V11.5C2 11.3674 2.05268 11.2402 2.14645 11.1464C2.24021 11.0527 2.36739 11 2.5 11C2.63261 11 2.75979 11.0527 2.85355 11.1464C2.94732 11.2402 3 11.3674 3 11.5V12H3.5C3.63261 12 3.75979 12.0527 3.85355 12.1464C3.94732 12.2402 4 12.3674 4 12.5C4 12.6326 3.94732 12.7598 3.85355 12.8536C3.75979 12.9473 3.63261 13 3.5 13H1.5C1.36739 13 1.24021 12.9473 1.14645 12.8536C1.05268 12.7598 1 12.6326 1 12.5C1 12.3674 1.05268 12.2402 1.14645 12.1464C1.24021 12.0527 1.36739 12 1.5 12H2Z" fill="#485255" stroke="#485255" stroke-width="0.3"/>
</svg>
