<svg width="28" height="28" viewBox="0 0 28 28" fill="none" xmlns="http://www.w3.org/2000/svg">
<path d="M24.2812 21.9478H5.46875V4.88525C5.46875 4.76494 5.37031 4.6665 5.25 4.6665H3.71875C3.59844 4.6665 3.5 4.76494 3.5 4.88525V23.6978C3.5 23.8181 3.59844 23.9165 3.71875 23.9165H24.2812C24.4016 23.9165 24.5 23.8181 24.5 23.6978V22.1665C24.5 22.0462 24.4016 21.9478 24.2812 21.9478ZM7.875 19.7603H9.40625C9.52656 19.7603 9.625 19.6618 9.625 19.5415V15.604C9.625 15.4837 9.52656 15.3853 9.40625 15.3853H7.875C7.75469 15.3853 7.65625 15.4837 7.65625 15.604V19.5415C7.65625 19.6618 7.75469 19.7603 7.875 19.7603ZM12.0312 19.7603H13.5625C13.6828 19.7603 13.7812 19.6618 13.7812 19.5415V10.7915C13.7812 10.6712 13.6828 10.5728 13.5625 10.5728H12.0312C11.9109 10.5728 11.8125 10.6712 11.8125 10.7915V19.5415C11.8125 19.6618 11.9109 19.7603 12.0312 19.7603ZM16.1875 19.7603H17.7188C17.8391 19.7603 17.9375 19.6618 17.9375 19.5415V12.9243C17.9375 12.804 17.8391 12.7056 17.7188 12.7056H16.1875C16.0672 12.7056 15.9688 12.804 15.9688 12.9243V19.5415C15.9688 19.6618 16.0672 19.7603 16.1875 19.7603ZM20.3438 19.7603H21.875C21.9953 19.7603 22.0938 19.6618 22.0938 19.5415V8.604C22.0938 8.48369 21.9953 8.38525 21.875 8.38525H20.3438C20.2234 8.38525 20.125 8.48369 20.125 8.604V19.5415C20.125 19.6618 20.2234 19.7603 20.3438 19.7603Z" fill="#919EAB"/>
</svg>
