<svg width="24" height="24" viewBox="0 0 24 24" fill="none" xmlns="http://www.w3.org/2000/svg">
<path d="M12.0002 6C11.024 6 2.46143 5.916 2.46143 3C2.46143 0.0840001 11.024 0 12.0002 0C12.9763 0 21.5389 0.0840001 21.5389 3C21.5389 5.916 12.9763 6 12.0002 6ZM3.72372 3C4.30558 3.568 7.09805 4.5 12.0002 4.5C16.9023 4.5 19.6948 3.568 20.2766 3C19.6948 2.432 16.9023 1.5 12.0002 1.5C7.09805 1.5 4.30558 2.432 3.72372 3ZM20.368 3.116H20.376H20.368Z" fill="#919EAB"/>
<path d="M12.0002 12C11.024 12 2.46143 11.916 2.46143 9C2.46143 8.586 2.72851 8.25 3.0576 8.25C3.36363 8.25 3.61561 8.54 3.64979 8.914C4.01704 9.467 6.83891 10.5 12.0002 10.5C17.1614 10.5 19.9833 9.467 20.3505 8.914C20.3847 8.54 20.6367 8.25 20.9427 8.25C21.2718 8.25 21.5389 8.586 21.5389 9C21.5389 11.916 12.9763 12 12.0002 12ZM20.3466 8.999C20.3466 9 20.3466 9 20.3466 8.999V8.999ZM3.65377 8.999C3.65377 9 3.65377 9 3.65377 8.999V8.999Z" fill="#919EAB"/>
<path d="M12.0002 18C11.024 18 2.46143 17.916 2.46143 15C2.46143 14.586 2.72851 14.25 3.0576 14.25C3.36363 14.25 3.61561 14.54 3.64979 14.914C4.01704 15.467 6.83891 16.5 12.0002 16.5C17.1614 16.5 19.9833 15.467 20.3505 14.914C20.3847 14.54 20.6367 14.25 20.9427 14.25C21.2718 14.25 21.5389 14.586 21.5389 15C21.5389 17.916 12.9763 18 12.0002 18ZM20.3466 14.999C20.3466 15 20.3466 15 20.3466 14.999V14.999ZM3.65377 14.999C3.65377 15 3.65377 15 3.65377 14.999V14.999Z" fill="#919EAB"/>
<path d="M12.0002 24C11.024 24 2.46143 23.916 2.46143 21V3C2.46143 2.586 2.72851 2.25 3.0576 2.25C3.38668 2.25 3.65377 2.586 3.65377 3V20.919C4.03611 21.475 6.8572 22.5 12.0002 22.5C17.1431 22.5 19.9642 21.475 20.3466 20.919V3C20.3466 2.586 20.6137 2.25 20.9427 2.25C21.2718 2.25 21.5389 2.586 21.5389 3V21C21.5389 23.916 12.9763 24 12.0002 24Z" fill="#919EAB"/>
<path d="M6.43601 15C6.87502 15 7.2309 14.5523 7.2309 14C7.2309 13.4477 6.87502 13 6.43601 13C5.997 13 5.64111 13.4477 5.64111 14C5.64111 14.5523 5.997 15 6.43601 15Z" fill="#919EAB"/>
<path d="M6.43601 9C6.87502 9 7.2309 8.55228 7.2309 8C7.2309 7.44771 6.87502 7 6.43601 7C5.997 7 5.64111 7.44771 5.64111 8C5.64111 8.55228 5.997 9 6.43601 9Z" fill="#919EAB"/>
<path d="M6.43601 21C6.87502 21 7.2309 20.5523 7.2309 20C7.2309 19.4477 6.87502 19 6.43601 19C5.997 19 5.64111 19.4477 5.64111 20C5.64111 20.5523 5.997 21 6.43601 21Z" fill="#919EAB"/>
</svg>
