<svg width="105" height="94" viewBox="0 0 105 94" fill="none" xmlns="http://www.w3.org/2000/svg">
<path d="M52.5179 20.9999C52.4179 20.9999 52.3179 20.9999 52.2179 20.8999L35.2179 5.89988C35.0179 5.69988 35.0179 5.3998 35.2179 5.1998C35.4179 4.9998 35.7179 4.9998 35.9179 5.1998L52.6179 19.8999L69.3178 5.1998C69.5178 4.9998 69.8179 4.9998 70.0179 5.1998C70.2179 5.3998 70.2179 5.69988 70.0179 5.89988L53.0179 20.8999C52.8179 20.8999 52.7179 20.9999 52.5179 20.9999Z" fill="#919EAB"/>
<path d="M69.5183 20.9999C69.4183 20.9999 69.3183 20.9999 69.2183 20.8999L52.5183 6.1998L35.8182 20.8999C35.6182 21.0999 35.3183 21.0999 35.1183 20.8999C34.9183 20.6999 34.9183 20.3998 35.1183 20.1998L52.1183 5.1998C52.3183 4.9998 52.6182 4.9998 52.8182 5.1998L69.8182 20.1998C70.0182 20.3998 70.0182 20.6999 69.8182 20.8999C69.8182 20.8999 69.7183 20.9999 69.5183 20.9999Z" fill="#919EAB"/>
<path d="M35.5181 10.5C38.2795 10.5 40.5181 8.26142 40.5181 5.5C40.5181 2.73858 38.2795 0.5 35.5181 0.5C32.7566 0.5 30.5181 2.73858 30.5181 5.5C30.5181 8.26142 32.7566 10.5 35.5181 10.5Z" fill="white"/>
<path d="M35.5181 11C32.5181 11 30.0181 8.5 30.0181 5.5C30.0181 2.5 32.5181 0 35.5181 0C38.5181 0 41.0181 2.5 41.0181 5.5C41.0181 8.5 38.6181 11 35.5181 11ZM35.5181 1C33.0181 1 31.0181 3 31.0181 5.5C31.0181 8 33.0181 10 35.5181 10C38.0181 10 40.0181 8 40.0181 5.5C40.0181 3 38.0181 1 35.5181 1Z" fill="#919EAB"/>
<path d="M52.5181 10.5C55.2795 10.5 57.5181 8.26142 57.5181 5.5C57.5181 2.73858 55.2795 0.5 52.5181 0.5C49.7566 0.5 47.5181 2.73858 47.5181 5.5C47.5181 8.26142 49.7566 10.5 52.5181 10.5Z" fill="#919EAB"/>
<path d="M52.5181 11C49.5181 11 47.0181 8.5 47.0181 5.5C47.0181 2.5 49.5181 0 52.5181 0C55.5181 0 58.0181 2.5 58.0181 5.5C58.0181 8.5 55.6181 11 52.5181 11ZM52.5181 1C50.0181 1 48.0181 3 48.0181 5.5C48.0181 8 50.0181 10 52.5181 10C55.0181 10 57.0181 8 57.0181 5.5C57.0181 3 55.0181 1 52.5181 1Z" fill="#919EAB"/>
<path d="M69.5181 10.5C72.2795 10.5 74.5181 8.26142 74.5181 5.5C74.5181 2.73858 72.2795 0.5 69.5181 0.5C66.7566 0.5 64.5181 2.73858 64.5181 5.5C64.5181 8.26142 66.7566 10.5 69.5181 10.5Z" fill="white"/>
<path d="M69.5181 11C66.5181 11 64.0181 8.5 64.0181 5.5C64.0181 2.5 66.5181 0 69.5181 0C72.5181 0 75.0181 2.5 75.0181 5.5C75.0181 8.5 72.6181 11 69.5181 11ZM69.5181 1C67.0181 1 65.0181 3 65.0181 5.5C65.0181 8 67.0181 10 69.5181 10C72.0181 10 74.0181 8 74.0181 5.5C74.0181 3 72.0181 1 69.5181 1Z" fill="#919EAB"/>
<path d="M35.5181 25.5C38.2795 25.5 40.5181 23.2614 40.5181 20.5C40.5181 17.7386 38.2795 15.5 35.5181 15.5C32.7566 15.5 30.5181 17.7386 30.5181 20.5C30.5181 23.2614 32.7566 25.5 35.5181 25.5Z" fill="#919EAB"/>
<path d="M35.5181 26C32.5181 26 30.0181 23.5 30.0181 20.5C30.0181 17.5 32.5181 15 35.5181 15C38.5181 15 41.0181 17.5 41.0181 20.5C41.0181 23.5 38.6181 26 35.5181 26ZM35.5181 16C33.0181 16 31.0181 18 31.0181 20.5C31.0181 23 33.0181 25 35.5181 25C38.0181 25 40.0181 23 40.0181 20.5C40.0181 18 38.0181 16 35.5181 16Z" fill="#919EAB"/>
<path d="M52.5181 25.5C55.2795 25.5 57.5181 23.2614 57.5181 20.5C57.5181 17.7386 55.2795 15.5 52.5181 15.5C49.7566 15.5 47.5181 17.7386 47.5181 20.5C47.5181 23.2614 49.7566 25.5 52.5181 25.5Z" fill="white"/>
<path d="M52.5181 26C49.5181 26 47.0181 23.5 47.0181 20.5C47.0181 17.5 49.5181 15 52.5181 15C55.5181 15 58.0181 17.5 58.0181 20.5C58.0181 23.5 55.6181 26 52.5181 26ZM52.5181 16C50.0181 16 48.0181 18 48.0181 20.5C48.0181 23 50.0181 25 52.5181 25C55.0181 25 57.0181 23 57.0181 20.5C57.0181 18 55.0181 16 52.5181 16Z" fill="#919EAB"/>
<path d="M69.5181 25.5C72.2795 25.5 74.5181 23.2614 74.5181 20.5C74.5181 17.7386 72.2795 15.5 69.5181 15.5C66.7566 15.5 64.5181 17.7386 64.5181 20.5C64.5181 23.2614 66.7566 25.5 69.5181 25.5Z" fill="#919EAB"/>
<path d="M69.5181 26C66.5181 26 64.0181 23.5 64.0181 20.5C64.0181 17.5 66.5181 15 69.5181 15C72.5181 15 75.0181 17.5 75.0181 20.5C75.0181 23.5 72.6181 26 69.5181 26ZM69.5181 16C67.0181 16 65.0181 18 65.0181 20.5C65.0181 23 67.0181 25 69.5181 25C72.0181 25 74.0181 23 74.0181 20.5C74.0181 18 72.0181 16 69.5181 16Z" fill="#919EAB"/>
<path d="M57.5182 43C57.5182 39.9 54.7182 37.3999 51.4182 38.0999C49.5182 38.4999 48.0182 40.1 47.6182 42C47.3182 43.7 47.8182 45.3 48.8182 46.4C49.5182 47.2 50.0182 48.1999 50.0182 49.1999V49.5H55.0182V49.1999C55.0182 48.0999 55.5182 47.0999 56.2182 46.2999C57.0182 45.3999 57.5182 44.3 57.5182 43Z" fill="#0076FF" fill-opacity="0.2"/>
<path d="M55.018 50H50.018C49.718 50 49.518 49.8 49.518 49.5V49.2C49.518 48.3 49.118 47.4 48.418 46.7C47.218 45.4 46.718 43.6001 47.118 41.9001C47.518 39.8001 49.218 38.1 51.318 37.6C53.018 37.2 54.718 37.7 55.918 38.7C57.218 39.8 57.918 41.3 57.918 43C57.918 44.4 57.418 45.7 56.518 46.7C56.018 47.2 55.418 48.1 55.418 49.2V49.5C55.518 49.8 55.318 50 55.018 50ZM50.518 49H54.518C54.618 47.9 55.018 46.9 55.818 46C56.618 45.2 57.018 44.1 57.018 43C57.018 41.6 56.418 40.4 55.318 39.5C54.218 38.6 52.918 38.3 51.518 38.6C49.818 39 48.418 40.4 48.118 42.1C47.818 43.5 48.218 45 49.218 46C50.018 46.9 50.518 47.9 50.518 49Z" fill="#919EAB"/>
<path d="M52.5181 55C50.8181 55 49.5181 53.7 49.5181 52V49.5C49.5181 49.2 49.7181 49 50.0181 49H55.0181C55.3181 49 55.5181 49.2 55.5181 49.5V52C55.5181 53.6 54.2181 55 52.5181 55ZM50.5181 50V52C50.5181 53.1 51.4181 54 52.5181 54C53.6181 54 54.5181 53.1 54.5181 52V50H50.5181Z" fill="#919EAB"/>
<path d="M55.0181 52.5H50.0181C49.7181 52.5 49.5181 52.3 49.5181 52C49.5181 51.7 49.7181 51.5 50.0181 51.5H55.0181C55.3181 51.5 55.5181 51.7 55.5181 52C55.5181 52.3 55.3181 52.5 55.0181 52.5Z" fill="#919EAB"/>
<path d="M52.5181 50C52.2181 50 52.0181 49.8 52.0181 49.5V44.5C52.0181 44.2 52.2181 44 52.5181 44C52.8181 44 53.0181 44.2 53.0181 44.5V49.5C53.0181 49.8 52.8181 50 52.5181 50Z" fill="#919EAB"/>
<path d="M40.5182 43C40.5182 39.9 37.7182 37.3999 34.4182 38.0999C32.5182 38.4999 31.0182 40.1 30.6182 42C30.3182 43.7 30.8182 45.3 31.8182 46.4C32.5182 47.2 33.0182 48.1999 33.0182 49.1999V49.5H38.0182V49.1999C38.0182 48.0999 38.5182 47.0999 39.2182 46.2999C40.0182 45.3999 40.5182 44.3 40.5182 43Z" fill="#0076FF" fill-opacity="0.2"/>
<path d="M38.018 50H33.018C32.718 50 32.518 49.8 32.518 49.5V49.2C32.518 48.3 32.118 47.4 31.418 46.7C30.218 45.4 29.718 43.6001 30.118 41.9001C30.518 39.8001 32.218 38.1 34.318 37.6C36.018 37.2 37.718 37.7 38.918 38.7C40.218 39.8 40.918 41.3 40.918 43C40.918 44.4 40.418 45.7 39.518 46.7C39.018 47.2 38.418 48.1 38.418 49.2V49.5C38.518 49.8 38.318 50 38.018 50ZM33.518 49H37.518C37.618 47.9 38.018 46.9 38.818 46C39.618 45.2 40.018 44.1 40.018 43C40.018 41.6 39.418 40.4 38.318 39.5C37.218 38.6 35.918 38.3 34.518 38.6C32.818 39 31.418 40.4 31.118 42.1C30.818 43.5 31.218 45 32.218 46C33.018 46.9 33.518 47.9 33.518 49Z" fill="#919EAB"/>
<path d="M35.5181 55C33.8181 55 32.5181 53.7 32.5181 52V49.5C32.5181 49.2 32.7181 49 33.0181 49H38.0181C38.3181 49 38.5181 49.2 38.5181 49.5V52C38.5181 53.6 37.2181 55 35.5181 55ZM33.5181 50V52C33.5181 53.1 34.4181 54 35.5181 54C36.6181 54 37.5181 53.1 37.5181 52V50H33.5181Z" fill="#919EAB"/>
<path d="M38.0181 52.5H33.0181C32.7181 52.5 32.5181 52.3 32.5181 52C32.5181 51.7 32.7181 51.5 33.0181 51.5H38.0181C38.3181 51.5 38.5181 51.7 38.5181 52C38.5181 52.3 38.3181 52.5 38.0181 52.5Z" fill="#919EAB"/>
<path d="M35.5181 50C35.2181 50 35.0181 49.8 35.0181 49.5V44.5C35.0181 44.2 35.2181 44 35.5181 44C35.8181 44 36.0181 44.2 36.0181 44.5V49.5C36.0181 49.8 35.8181 50 35.5181 50Z" fill="#919EAB"/>
<path d="M74.5182 43C74.5182 39.9 71.7182 37.3999 68.4182 38.0999C66.5182 38.4999 65.0182 40.1 64.6182 42C64.3182 43.7 64.8182 45.3 65.8182 46.4C66.5182 47.2 67.0182 48.1999 67.0182 49.1999V49.5H72.0182V49.1999C72.0182 48.0999 72.5182 47.0999 73.2182 46.2999C74.0182 45.3999 74.5182 44.3 74.5182 43Z" fill="#0076FF" fill-opacity="0.2"/>
<path d="M72.018 50H67.018C66.718 50 66.518 49.8 66.518 49.5V49.2C66.518 48.3 66.118 47.4 65.418 46.7C64.218 45.4 63.718 43.6001 64.118 41.9001C64.518 39.8001 66.218 38.1 68.318 37.6C70.018 37.2 71.718 37.7 72.918 38.7C74.218 39.8 74.918 41.3 74.918 43C74.918 44.4 74.418 45.7 73.518 46.7C73.018 47.2 72.418 48.1 72.418 49.2V49.5C72.518 49.8 72.318 50 72.018 50ZM67.518 49H71.518C71.618 47.9 72.018 46.9 72.818 46C73.618 45.2 74.018 44.1 74.018 43C74.018 41.6 73.418 40.4 72.318 39.5C71.218 38.6 69.918 38.3 68.518 38.6C66.818 39 65.418 40.4 65.118 42.1C64.818 43.5 65.218 45 66.218 46C67.018 46.9 67.518 47.9 67.518 49Z" fill="#919EAB"/>
<path d="M69.5181 55C67.8181 55 66.5181 53.7 66.5181 52V49.5C66.5181 49.2 66.7181 49 67.0181 49H72.0181C72.3181 49 72.5181 49.2 72.5181 49.5V52C72.5181 53.6 71.2181 55 69.5181 55ZM67.5181 50V52C67.5181 53.1 68.4181 54 69.5181 54C70.6181 54 71.5181 53.1 71.5181 52V50H67.5181Z" fill="#919EAB"/>
<path d="M72.0181 52.5H67.0181C66.7181 52.5 66.5181 52.3 66.5181 52C66.5181 51.7 66.7181 51.5 67.0181 51.5H72.0181C72.3181 51.5 72.5181 51.7 72.5181 52C72.5181 52.3 72.3181 52.5 72.0181 52.5Z" fill="#919EAB"/>
<path d="M69.5181 50C69.2181 50 69.0181 49.8 69.0181 49.5V44.5C69.0181 44.2 69.2181 44 69.5181 44C69.8181 44 70.0181 44.2 70.0181 44.5V49.5C70.0181 49.8 69.8181 50 69.5181 50Z" fill="#919EAB"/>
<path d="M69.5181 31H35.5181C35.2181 31 35.0181 30.8 35.0181 30.5V25.5C35.0181 25.2 35.2181 25 35.5181 25C35.8181 25 36.0181 25.2 36.0181 25.5V30H69.0181V25.5C69.0181 25.2 69.2181 25 69.5181 25C69.8181 25 70.0181 25.2 70.0181 25.5V30.5C70.0181 30.8 69.8181 31 69.5181 31Z" fill="#919EAB"/>
<path d="M52.5181 36C52.2181 36 52.0181 35.8 52.0181 35.5V30.5C52.0181 30.2 52.2181 30 52.5181 30C52.8181 30 53.0181 30.2 53.0181 30.5V35.5C53.0181 35.8 52.8181 36 52.5181 36Z" fill="#919EAB"/>
<path d="M47.5181 50H40.5181C40.2181 50 40.0181 49.8 40.0181 49.5C40.0181 49.2 40.2181 49 40.5181 49H47.5181C47.8181 49 48.0181 49.2 48.0181 49.5C48.0181 49.8 47.8181 50 47.5181 50Z" fill="#919EAB"/>
<path d="M64.5181 50H57.5181C57.2181 50 57.0181 49.8 57.0181 49.5C57.0181 49.2 57.2181 49 57.5181 49H64.5181C64.8181 49 65.0181 49.2 65.0181 49.5C65.0181 49.8 64.8181 50 64.5181 50Z" fill="#919EAB"/>
<path d="M32.8402 72.0182H31.5822V76.7773H31.5209L28.2345 72.0182H27.1027V79H28.3675V74.2443H28.4254L31.7152 79H32.8402V72.0182ZM36.4479 79.1023C37.982 79.1023 38.957 78.0216 38.957 76.4023C38.957 74.7795 37.982 73.6955 36.4479 73.6955C34.9138 73.6955 33.9388 74.7795 33.9388 76.4023C33.9388 78.0216 34.9138 79.1023 36.4479 79.1023ZM36.4547 78.1136C35.6058 78.1136 35.1899 77.3568 35.1899 76.3989C35.1899 75.4409 35.6058 74.6739 36.4547 74.6739C37.2899 74.6739 37.7058 75.4409 37.7058 76.3989C37.7058 77.3568 37.2899 78.1136 36.4547 78.1136ZM42.4402 72.0182V79H43.6538V74.1932H43.7186L45.6482 78.9795H46.555L48.4845 74.2034H48.5493V79H49.7629V72.0182H48.2152L46.1425 77.0773H46.0607L43.9879 72.0182H42.4402ZM53.3697 79.1023C54.9038 79.1023 55.8788 78.0216 55.8788 76.4023C55.8788 74.7795 54.9038 73.6955 53.3697 73.6955C51.8357 73.6955 50.8607 74.7795 50.8607 76.4023C50.8607 78.0216 51.8357 79.1023 53.3697 79.1023ZM53.3766 78.1136C52.5277 78.1136 52.1118 77.3568 52.1118 76.3989C52.1118 75.4409 52.5277 74.6739 53.3766 74.6739C54.2118 74.6739 54.6277 75.4409 54.6277 76.3989C54.6277 77.3568 54.2118 78.1136 53.3766 78.1136ZM58.8695 79.092C59.7695 79.092 60.1751 78.5568 60.3695 78.175H60.4445V79H61.6581V72.0182H60.4206V74.6295H60.3695C60.182 74.2511 59.7967 73.6955 58.8729 73.6955C57.6626 73.6955 56.7115 74.6432 56.7115 76.3886C56.7115 78.1136 57.6354 79.092 58.8695 79.092ZM59.2138 78.0795C58.399 78.0795 57.9695 77.3636 57.9695 76.3818C57.9695 75.4068 58.3922 74.708 59.2138 74.708C60.0081 74.708 60.4445 75.3659 60.4445 76.3818C60.4445 77.3977 60.0013 78.0795 59.2138 78.0795ZM65.2913 79.1023C66.5118 79.1023 67.3504 78.5057 67.5686 77.5955L66.4163 77.4659C66.2493 77.9091 65.8402 78.1409 65.3084 78.1409C64.5107 78.1409 63.9822 77.6159 63.972 76.7193H67.6197V76.3409C67.6197 74.5034 66.5152 73.6955 65.2266 73.6955C63.7266 73.6955 62.7482 74.7966 62.7482 76.4125C62.7482 78.0557 63.7129 79.1023 65.2913 79.1023ZM63.9754 75.8875C64.0129 75.2193 64.5072 74.6568 65.2436 74.6568C65.9527 74.6568 66.43 75.175 66.4368 75.8875H63.9754ZM69.8979 72.0182H68.6638V79H69.8979V72.0182ZM75.3055 75.1477C75.1351 74.2614 74.426 73.6955 73.1987 73.6955C71.9374 73.6955 71.0783 74.3159 71.0817 75.2841C71.0783 76.0477 71.5487 76.5523 72.5544 76.7602L73.4476 76.9477C73.9283 77.0534 74.1533 77.2477 74.1533 77.5443C74.1533 77.9023 73.7646 78.1716 73.1783 78.1716C72.6124 78.1716 72.2442 77.9261 72.1385 77.4557L70.9351 77.5716C71.0885 78.533 71.8965 79.1023 73.1817 79.1023C74.4908 79.1023 75.4146 78.4239 75.418 77.4318C75.4146 76.6852 74.934 76.2284 73.9453 76.0136L73.0521 75.8227C72.5203 75.7034 72.309 75.5193 72.3124 75.2159C72.309 74.8614 72.701 74.6159 73.2158 74.6159C73.7851 74.6159 74.0851 74.9261 74.1805 75.2705L75.3055 75.1477ZM77.1959 79.075C77.5982 79.075 77.9425 78.7409 77.9459 78.325C77.9425 77.9159 77.5982 77.5818 77.1959 77.5818C76.78 77.5818 76.4425 77.9159 76.4459 78.325C76.4425 78.7409 76.78 79.075 77.1959 79.075ZM6.73082 86.2C6.47173 84.7682 5.32628 83.9227 3.92173 83.9227C2.13537 83.9227 0.839913 85.3 0.839913 87.5091C0.839913 89.7182 2.13537 91.0955 3.92173 91.0955C5.32628 91.0955 6.47173 90.25 6.73082 88.8182H5.88537C5.68082 89.7864 4.849 90.3045 3.92173 90.3045C2.65355 90.3045 1.65809 89.3227 1.65809 87.5091C1.65809 85.6955 2.65355 84.7136 3.92173 84.7136C4.849 84.7136 5.68082 85.2318 5.88537 86.2H6.73082ZM7.98792 91H8.79247V87.6864C8.79247 86.9773 9.35156 86.4591 10.1152 86.4591C10.33 86.4591 10.5516 86.5 10.6061 86.5136V85.6955C10.5141 85.6886 10.3027 85.6818 10.1834 85.6818C9.55611 85.6818 9.01065 86.0364 8.81974 86.5545H8.7652V85.7636H7.98792V91ZM13.5959 91.1091C14.6595 91.1091 15.4368 90.5773 15.6822 89.7864L14.905 89.5682C14.7004 90.1136 14.2266 90.3864 13.5959 90.3864C12.6516 90.3864 12.0004 89.7761 11.9629 88.6545H15.7641V88.3136C15.7641 86.3636 14.605 85.6955 13.5141 85.6955C12.0959 85.6955 11.155 86.8136 11.155 88.4227C11.155 90.0318 12.0822 91.1091 13.5959 91.1091ZM11.9629 87.9591C12.0175 87.1443 12.5936 86.4182 13.5141 86.4182C14.3868 86.4182 14.9459 87.0727 14.9459 87.9591H11.9629ZM18.5288 91.1227C19.4425 91.1227 19.9197 90.6318 20.0834 90.2909H20.1243V91H20.9288V87.55C20.9288 85.8864 19.6607 85.6955 18.9925 85.6955C18.2016 85.6955 17.3016 85.9682 16.8925 86.9227L17.6561 87.1955C17.8334 86.8136 18.2527 86.4045 19.0197 86.4045C19.7595 86.4045 20.1243 86.7966 20.1243 87.4682V87.4955C20.1243 87.8841 19.7288 87.85 18.7743 87.9727C17.8027 88.0989 16.7425 88.3136 16.7425 89.5136C16.7425 90.5364 17.5334 91.1227 18.5288 91.1227ZM18.6516 90.4C18.0107 90.4 17.547 90.1136 17.547 89.5545C17.547 88.9409 18.1061 88.75 18.7334 88.6682C19.0743 88.6273 19.9879 88.5318 20.1243 88.3682V89.1045C20.1243 89.7591 19.6061 90.4 18.6516 90.4ZM24.6746 85.7636H23.5564V84.5091H22.7518V85.7636H21.9609V86.4455H22.7518V89.7182C22.7518 90.6318 23.4882 91.0682 24.17 91.0682C24.47 91.0682 24.6609 91.0136 24.77 90.9727L24.6064 90.25C24.5382 90.2636 24.4291 90.2909 24.2518 90.2909C23.8973 90.2909 23.5564 90.1818 23.5564 89.5V86.4455H24.6746V85.7636ZM28.024 91.1091C29.0876 91.1091 29.8649 90.5773 30.1104 89.7864L29.3331 89.5682C29.1285 90.1136 28.6547 90.3864 28.024 90.3864C27.0797 90.3864 26.4285 89.7761 26.391 88.6545H30.1922V88.3136C30.1922 86.3636 29.0331 85.6955 27.9422 85.6955C26.524 85.6955 25.5831 86.8136 25.5831 88.4227C25.5831 90.0318 26.5104 91.1091 28.024 91.1091ZM26.391 87.9591C26.4456 87.1443 27.0217 86.4182 27.9422 86.4182C28.8149 86.4182 29.374 87.0727 29.374 87.9591H26.391ZM34.6342 92.9636C35.3604 92.9636 35.8717 92.5784 36.1751 91.7636L38.4047 85.7773L37.5251 85.7636L36.0797 89.9364H36.0251L34.5797 85.7636H33.707L35.6433 91.0273L35.4933 91.4364C35.2001 92.2341 34.8388 92.3091 34.2524 92.1591L34.0479 92.8682C34.1297 92.9091 34.3615 92.9636 34.6342 92.9636ZM41.4089 91.1091C42.8271 91.1091 43.7817 90.0318 43.7817 88.4091C43.7817 86.7727 42.8271 85.6955 41.4089 85.6955C39.9908 85.6955 39.0362 86.7727 39.0362 88.4091C39.0362 90.0318 39.9908 91.1091 41.4089 91.1091ZM41.4089 90.3864C40.3317 90.3864 39.8408 89.4591 39.8408 88.4091C39.8408 87.3591 40.3317 86.4182 41.4089 86.4182C42.4862 86.4182 42.9771 87.3591 42.9771 88.4091C42.9771 89.4591 42.4862 90.3864 41.4089 90.3864ZM48.3098 88.8591C48.3098 89.8409 47.5598 90.2909 46.9598 90.2909C46.2916 90.2909 45.8143 89.8 45.8143 89.0364V85.7636H45.0098V89.0909C45.0098 90.4273 45.7189 91.0682 46.7007 91.0682C47.4916 91.0682 48.0098 90.6455 48.2553 90.1136H48.3098V91H49.1143V85.7636H48.3098V88.8591ZM50.5879 91H51.3925V87.6864C51.3925 86.9773 51.9516 86.4591 52.7152 86.4591C52.93 86.4591 53.1516 86.5 53.2061 86.5136V85.6955C53.1141 85.6886 52.9027 85.6818 52.7834 85.6818C52.1561 85.6818 51.6107 86.0364 51.4197 86.5545H51.3652V85.7636H50.5879V91ZM59.1916 85.7636H58.0189V85.2318C58.0189 84.7136 58.2371 84.4409 58.7689 84.4409C59.0007 84.4409 59.1371 84.4955 59.2189 84.5227L59.4507 83.8273C59.328 83.7727 59.0825 83.6909 58.6871 83.6909C57.9371 83.6909 57.2143 84.1409 57.2143 85.0409V85.7636H56.3689V86.4455H57.2143V91H58.0189V86.4455H59.1916V85.7636ZM60.3192 91H61.1237V85.7636H60.3192V91ZM60.7283 84.8909C61.0419 84.8909 61.301 84.6455 61.301 84.3455C61.301 84.0455 61.0419 83.8 60.7283 83.8C60.4146 83.8 60.1555 84.0455 60.1555 84.3455C60.1555 84.6455 60.4146 84.8909 60.7283 84.8909ZM62.5973 91H63.4018V87.6864C63.4018 86.9773 63.9609 86.4591 64.7246 86.4591C64.9393 86.4591 65.1609 86.5 65.2155 86.5136V85.6955C65.1234 85.6886 64.9121 85.6818 64.7928 85.6818C64.1655 85.6818 63.62 86.0364 63.4291 86.5545H63.3746V85.7636H62.5973V91ZM69.8783 86.9364C69.626 86.1932 69.0601 85.6955 68.0237 85.6955C66.9192 85.6955 66.101 86.3227 66.101 87.2091C66.101 87.9318 66.5305 88.4159 67.4919 88.6409L68.3646 88.8455C68.893 88.9682 69.1419 89.2205 69.1419 89.5818C69.1419 90.0318 68.6646 90.4 67.9146 90.4C67.2567 90.4 66.8442 90.117 66.701 89.5545L65.9374 89.7455C66.1249 90.6352 66.8578 91.1091 67.9283 91.1091C69.1453 91.1091 69.9737 90.4443 69.9737 89.5409C69.9737 88.8114 69.5169 88.3511 68.5828 88.1227L67.8055 87.9318C67.1851 87.7784 66.9055 87.5705 66.9055 87.1682C66.9055 86.7182 67.3828 86.3909 68.0237 86.3909C68.726 86.3909 69.0158 86.7795 69.1555 87.1409L69.8783 86.9364ZM73.4621 85.7636H72.3439V84.5091H71.5393V85.7636H70.7484V86.4455H71.5393V89.7182C71.5393 90.6318 72.2757 91.0682 72.9575 91.0682C73.2575 91.0682 73.4484 91.0136 73.5575 90.9727L73.3939 90.25C73.3257 90.2636 73.2166 90.2909 73.0393 90.2909C72.6848 90.2909 72.3439 90.1818 72.3439 89.5V86.4455H73.4621V85.7636ZM77.4814 84.0182V91H78.2723V85.6955H78.3405L80.5223 91H81.2859L83.4678 85.6955H83.5359V91H84.3269V84.0182H83.3178L80.945 89.8136H80.8632L78.4905 84.0182H77.4814ZM88.0402 91.1091C89.4584 91.1091 90.4129 90.0318 90.4129 88.4091C90.4129 86.7727 89.4584 85.6955 88.0402 85.6955C86.622 85.6955 85.6675 86.7727 85.6675 88.4091C85.6675 90.0318 86.622 91.1091 88.0402 91.1091ZM88.0402 90.3864C86.9629 90.3864 86.472 89.4591 86.472 88.4091C86.472 87.3591 86.9629 86.4182 88.0402 86.4182C89.1175 86.4182 89.6084 87.3591 89.6084 88.4091C89.6084 89.4591 89.1175 90.3864 88.0402 90.3864ZM93.6183 91.1091C94.6274 91.1091 94.9683 90.4818 95.1456 90.1955H95.2411V91H96.0183V84.0182H95.2138V86.5955H95.1456C94.9683 86.3227 94.6547 85.6955 93.632 85.6955C92.3092 85.6955 91.3956 86.7455 91.3956 88.3955C91.3956 90.0591 92.3092 91.1091 93.6183 91.1091ZM93.7274 90.3864C92.7183 90.3864 92.2001 89.5 92.2001 88.3818C92.2001 87.2773 92.7047 86.4182 93.7274 86.4182C94.7092 86.4182 95.2274 87.2091 95.2274 88.3818C95.2274 89.5682 94.6956 90.3864 93.7274 90.3864ZM99.799 91.1091C100.863 91.1091 101.64 90.5773 101.885 89.7864L101.108 89.5682C100.904 90.1136 100.43 90.3864 99.799 90.3864C98.8547 90.3864 98.2036 89.7761 98.1661 88.6545H101.967V88.3136C101.967 86.3636 100.808 85.6955 99.7172 85.6955C98.299 85.6955 97.3581 86.8136 97.3581 88.4227C97.3581 90.0318 98.2854 91.1091 99.799 91.1091ZM98.1661 87.9591C98.2206 87.1443 98.7967 86.4182 99.7172 86.4182C100.59 86.4182 101.149 87.0727 101.149 87.9591H98.1661ZM103.996 84.0182H103.191V91H103.996V84.0182Z" fill="#AEB8C2"/>
</svg>
