<svg width="107" height="96" viewBox="0 0 107 96" fill="none" xmlns="http://www.w3.org/2000/svg">
<path d="M71.7437 41.8C71.4437 41.8 71.2437 41.6 71.2437 41.3V17.3C71.2437 17 71.4437 16.8 71.7437 16.8C72.0437 16.8 72.2437 17 72.2437 17.3V41.3C72.2437 41.6 72.0437 41.8 71.7437 41.8Z" fill="#919EAB"/>
<path d="M33.2437 14.8C36.5574 14.8 39.2437 12.1138 39.2437 8.80005C39.2437 5.48634 36.5574 2.80005 33.2437 2.80005C29.9299 2.80005 27.2437 5.48634 27.2437 8.80005C27.2437 12.1138 29.9299 14.8 33.2437 14.8Z" fill="#BADAFF"/>
<path d="M33.2437 15.3C29.6437 15.3 26.7437 12.4 26.7437 8.80005C26.7437 5.20005 29.6437 2.30005 33.2437 2.30005C36.8437 2.30005 39.7437 5.20005 39.7437 8.80005C39.7437 12.4 36.8437 15.3 33.2437 15.3ZM33.2437 3.30005C30.2437 3.30005 27.7437 5.80005 27.7437 8.80005C27.7437 11.8 30.2437 14.3 33.2437 14.3C36.2437 14.3 38.7437 11.8 38.7437 8.80005C38.7437 5.80005 36.2437 3.30005 33.2437 3.30005Z" fill="#919EAB" fill-opacity="0.89"/>
<path d="M33.2437 34.8C36.5574 34.8 39.2437 32.1138 39.2437 28.8C39.2437 25.4863 36.5574 22.8 33.2437 22.8C29.9299 22.8 27.2437 25.4863 27.2437 28.8C27.2437 32.1138 29.9299 34.8 33.2437 34.8Z" fill="#B9DAFF"/>
<path d="M33.2437 35.3C29.6437 35.3 26.7437 32.4 26.7437 28.8C26.7437 25.2 29.6437 22.3 33.2437 22.3C36.8437 22.3 39.7437 25.2 39.7437 28.8C39.7437 32.4 36.8437 35.3 33.2437 35.3ZM33.2437 23.3C30.2437 23.3 27.7437 25.8 27.7437 28.8C27.7437 31.8 30.2437 34.3 33.2437 34.3C36.2437 34.3 38.7437 31.8 38.7437 28.8C38.7437 25.8 36.2437 23.3 33.2437 23.3Z" fill="#0076FF" fill-opacity="0.59"/>
<path d="M33.2437 55.3C29.6437 55.3 26.7437 52.4 26.7437 48.8C26.7437 45.2 29.6437 42.3 33.2437 42.3C36.8437 42.3 39.7437 45.2 39.7437 48.8C39.7437 52.4 36.8437 55.3 33.2437 55.3ZM33.2437 43.3C30.2437 43.3 27.7437 45.8 27.7437 48.8C27.7437 51.8 30.2437 54.3 33.2437 54.3C36.2437 54.3 38.7437 51.8 38.7437 48.8C38.7437 45.8 36.2437 43.3 33.2437 43.3Z" fill="#96C5FC"/>
<path d="M62.2437 9.30005H42.2437C41.9437 9.30005 41.7437 9.10005 41.7437 8.80005C41.7437 8.50005 41.9437 8.30005 42.2437 8.30005H62.2437C62.5437 8.30005 62.7437 8.50005 62.7437 8.80005C62.7437 9.10005 62.5437 9.30005 62.2437 9.30005Z" fill="#919EAB"/>
<path d="M52.2437 49.3H42.2437C41.9437 49.3 41.7437 49.1 41.7437 48.8C41.7437 48.5 41.9437 48.3 42.2437 48.3H51.7437V8.80005C51.7437 8.50005 51.9437 8.30005 52.2437 8.30005C52.5437 8.30005 52.7437 8.50005 52.7437 8.80005V48.8C52.7437 49.1 52.5437 49.3 52.2437 49.3Z" fill="#919EAB"/>
<path d="M52.2437 29.3H42.2437C41.9437 29.3 41.7437 29.1 41.7437 28.8C41.7437 28.5 41.9437 28.3 42.2437 28.3H52.2437C52.5437 28.3 52.7437 28.5 52.7437 28.8C52.7437 29.1 52.5437 29.3 52.2437 29.3Z" fill="#919EAB"/>
<path d="M71.7437 56.3C75.8858 56.3 79.2437 52.9422 79.2437 48.8C79.2437 44.6579 75.8858 41.3 71.7437 41.3C67.6015 41.3 64.2437 44.6579 64.2437 48.8C64.2437 52.9422 67.6015 56.3 71.7437 56.3Z" fill="#919EAB"/>
<path d="M71.7437 36.3C75.8858 36.3 79.2437 32.9422 79.2437 28.8C79.2437 24.6579 75.8858 21.3 71.7437 21.3C67.6015 21.3 64.2437 24.6579 64.2437 28.8C64.2437 32.9422 67.6015 36.3 71.7437 36.3Z" fill="white"/>
<path d="M71.7437 36.8C67.3437 36.8 63.7437 33.2 63.7437 28.8C63.7437 24.4 67.3437 20.8 71.7437 20.8C76.1437 20.8 79.7437 24.4 79.7437 28.8C79.7437 33.2 76.1437 36.8 71.7437 36.8ZM71.7437 21.8C67.8437 21.8 64.7437 24.9 64.7437 28.8C64.7437 32.7 67.8437 35.8 71.7437 35.8C75.6437 35.8 78.7437 32.7 78.7437 28.8C78.7437 24.9 75.5437 21.8 71.7437 21.8Z" fill="#919EAB"/>
<path d="M70.3437 51.6C70.2437 51.6 70.0436 51.6 69.9436 51.5L67.1437 48.7C66.9437 48.5 66.9437 48.2 67.1437 48C67.3437 47.8 67.6437 47.8 67.8437 48L70.3437 50.5L75.2436 45.6C75.4436 45.4 75.7436 45.4 75.9436 45.6C76.1436 45.8 76.1436 46.1 75.9436 46.3L70.6437 51.6C70.5437 51.6 70.4437 51.6 70.3437 51.6Z" fill="white"/>
<path d="M71.7437 29.3H66.7437C66.4437 29.3 66.2437 29.1 66.2437 28.8C66.2437 28.5 66.4437 28.3 66.7437 28.3H71.2437V23.8C71.2437 23.5 71.4437 23.3 71.7437 23.3C72.0437 23.3 72.2437 23.5 72.2437 23.8V28.8C72.2437 29.1 72.0437 29.3 71.7437 29.3Z" fill="#919EAB"/>
<path d="M72.6438 17.8H70.8438C70.1438 17.8 69.5438 17.3 69.3438 16.6L69.1438 15.7001C68.3438 15.4001 67.6437 15 67.0437 14.5L66.1438 14.8C65.4438 15 64.7438 14.7 64.3438 14.1L63.4437 12.6C63.0437 12 63.2437 11.2001 63.7437 10.7001L64.4437 10.1C64.3437 9.69998 64.3438 9.30002 64.3438 8.90002C64.3438 8.50002 64.3437 8.10007 64.4437 7.70007L63.7437 7.09998C63.2437 6.59998 63.0437 5.80007 63.4437 5.20007L64.3438 3.70007C64.7438 3.10007 65.4438 2.8 66.1438 3L67.0437 3.30005C67.6437 2.80005 68.4438 2.29998 69.1438 2.09998L69.3438 1.20007C69.4438 0.500073 70.1438 0 70.8438 0H72.6438C73.3438 0 73.9438 0.500073 74.1438 1.20007L74.3438 2.09998C75.1438 2.39998 75.8437 2.80005 76.4437 3.30005L77.3438 3C78.0438 2.8 78.7438 3.10007 79.1438 3.70007L80.0437 5.20007C80.4437 5.80007 80.2437 6.59998 79.7437 7.09998L79.0437 7.70007C79.1437 8.10007 79.1438 8.50002 79.1438 8.90002C79.1438 9.30002 79.1437 9.69998 79.0437 10.1L79.7437 10.7001C80.2437 11.2001 80.4437 12 80.0437 12.6L79.1438 14.1C78.7438 14.7 78.0438 15 77.3438 14.8L76.4437 14.5C75.8437 15 75.0438 15.5001 74.3438 15.7001L74.1438 16.6C73.9438 17.3 73.3438 17.8 72.6438 17.8ZM67.1438 13.3C67.2438 13.3 67.3438 13.3 67.4437 13.4C68.1437 14 68.9438 14.5 69.8438 14.8C70.0438 14.9 70.2437 15.1 70.2437 15.3V15.6L70.4437 16.4C70.4437 16.6 70.7438 16.8 70.9437 16.8H72.7437C72.9437 16.8 73.1437 16.6 73.2437 16.4L73.4437 15.5V15.3C73.4437 15.1 73.5438 14.9 73.8438 14.8C74.7438 14.5 75.5437 14.1 76.2437 13.4C76.4437 13.3 76.6438 13.2 76.8438 13.3L77.1438 13.5L77.9437 13.8C78.1437 13.9 78.4437 13.8 78.5437 13.6L79.4438 12.1C79.5438 11.9 79.5438 11.6 79.3438 11.5L78.6438 10.9L78.4437 10.8C78.2437 10.7 78.1437 10.5 78.2437 10.3C78.3437 9.80005 78.4437 9.40002 78.4437 8.90002C78.4437 8.40002 78.3437 8 78.2437 7.5C78.2437 7.3 78.2437 7.1 78.4437 7L78.7437 6.80005L79.3438 6.30005C79.5438 6.10005 79.5438 5.90007 79.4438 5.70007L78.5437 4.20007C78.4437 4.00007 78.1437 3.9 77.9437 4L77.0437 4.30005L76.8438 4.40002C76.6438 4.50002 76.4437 4.50005 76.2437 4.30005C75.5437 3.70005 74.7438 3.20002 73.8438 2.90002C73.6438 2.80002 73.4437 2.60002 73.4437 2.40002V2.09998L73.2437 1.30005C73.2437 1.10005 72.9437 0.900024 72.7437 0.900024H70.9437C70.7438 0.900024 70.5437 1.10005 70.4437 1.30005L70.2437 2.20007V2.40002C70.2437 2.60002 70.1438 2.80002 69.8438 2.90002C68.9438 3.20002 68.1437 3.60005 67.4437 4.30005C67.2438 4.40005 67.0438 4.50002 66.8438 4.40002L66.5437 4.20007L65.7437 3.90002C65.5437 3.80002 65.2438 3.89998 65.1438 4.09998L64.2437 5.59998C64.1437 5.79998 64.1438 6.10007 64.3438 6.20007L65.0437 6.80005L65.2437 6.90002C65.4437 7.00002 65.5437 7.20002 65.4437 7.40002C65.3438 7.90002 65.2437 8.30005 65.2437 8.80005C65.2437 9.30005 65.3438 9.70007 65.4437 10.2001C65.4437 10.4001 65.4437 10.6001 65.2437 10.7001L64.9437 10.9L64.3438 11.4C64.1438 11.6 64.1437 11.8 64.2437 12L65.1438 13.5C65.2438 13.7 65.5437 13.8001 65.7437 13.7001L66.6438 13.4L66.8438 13.3C66.9438 13.3 67.0438 13.3 67.1438 13.3ZM71.7437 12.8C69.5437 12.8 67.7437 11 67.7437 8.80005C67.7437 6.60005 69.5437 4.80005 71.7437 4.80005C73.9437 4.80005 75.7437 6.60005 75.7437 8.80005C75.7437 11 73.9437 12.8 71.7437 12.8ZM71.7437 5.80005C70.0437 5.80005 68.7437 7.10005 68.7437 8.80005C68.7437 10.5 70.0437 11.8 71.7437 11.8C73.4437 11.8 74.7437 10.5 74.7437 8.80005C74.7437 7.10005 73.4437 5.80005 71.7437 5.80005Z" fill="#919EAB"/>
<path d="M33.8964 73.3182H32.6385V78.0773H32.5771L29.2908 73.3182H28.1589V80.3H29.4237V75.5444H29.4817L32.7714 80.3H33.8964V73.3182ZM37.5041 80.4023C39.0382 80.4023 40.0132 79.3216 40.0132 77.7023C40.0132 76.0796 39.0382 74.9955 37.5041 74.9955C35.97 74.9955 34.995 76.0796 34.995 77.7023C34.995 79.3216 35.97 80.4023 37.5041 80.4023ZM37.5109 79.4137C36.6621 79.4137 36.2462 78.6569 36.2462 77.6989C36.2462 76.741 36.6621 75.9739 37.5109 75.9739C38.3462 75.9739 38.7621 76.741 38.7621 77.6989C38.7621 78.6569 38.3462 79.4137 37.5109 79.4137ZM46.0567 75.0637H45.0237V73.8091H43.7896V75.0637H43.0464V76.0182H43.7896V78.9296C43.7828 79.9148 44.4987 80.3989 45.426 80.3716C45.7771 80.3614 46.0192 80.2932 46.1521 80.2489L45.9442 79.2841C45.876 79.3012 45.7362 79.3319 45.5828 79.3319C45.2726 79.3319 45.0237 79.2228 45.0237 78.725V76.0182H46.0567V75.0637ZM47.0888 80.3H48.3229V77.2216C48.3229 76.5569 48.824 76.0864 49.5024 76.0864C49.7104 76.0864 49.9695 76.1239 50.0751 76.158V75.0228C49.9626 75.0023 49.7683 74.9887 49.632 74.9887C49.032 74.9887 48.5308 75.3296 48.3399 75.9364H48.2854V75.0637H47.0888V80.3ZM50.895 80.3H52.1291V75.0637H50.895V80.3ZM51.5155 74.3205C51.9075 74.3205 52.228 74.0205 52.228 73.6523C52.228 73.2807 51.9075 72.9807 51.5155 72.9807C51.12 72.9807 50.7996 73.2807 50.7996 73.6523C50.7996 74.0205 51.12 74.3205 51.5155 74.3205ZM55.6754 82.3728C57.0902 82.3728 58.1334 81.725 58.1334 80.3853V75.0637H56.9163V75.9296H56.8482C56.6607 75.5512 56.2686 74.9955 55.3447 74.9955C54.1345 74.9955 53.1834 75.9432 53.1834 77.6648C53.1834 79.3728 54.1345 80.225 55.3413 80.225C56.2379 80.225 56.6572 79.7444 56.8482 79.3591H56.9095V80.3512C56.9095 81.1216 56.3982 81.4387 55.6959 81.4387C54.9527 81.4387 54.6254 81.0875 54.4754 80.7807L53.3641 81.05C53.5891 81.783 54.3425 82.3728 55.6754 82.3728ZM55.6857 79.2569C54.8709 79.2569 54.4413 78.6228 54.4413 77.658C54.4413 76.7069 54.8641 76.008 55.6857 76.008C56.48 76.008 56.9163 76.666 56.9163 77.658C56.9163 78.6569 56.4732 79.2569 55.6857 79.2569ZM61.6754 82.3728C63.0902 82.3728 64.1334 81.725 64.1334 80.3853V75.0637H62.9163V75.9296H62.8482C62.6607 75.5512 62.2686 74.9955 61.3447 74.9955C60.1345 74.9955 59.1834 75.9432 59.1834 77.6648C59.1834 79.3728 60.1345 80.225 61.3413 80.225C62.2379 80.225 62.6572 79.7444 62.8482 79.3591H62.9095V80.3512C62.9095 81.1216 62.3982 81.4387 61.6959 81.4387C60.9527 81.4387 60.6254 81.0875 60.4754 80.7807L59.3641 81.05C59.5891 81.783 60.3425 82.3728 61.6754 82.3728ZM61.6857 79.2569C60.8709 79.2569 60.4413 78.6228 60.4413 77.658C60.4413 76.7069 60.8641 76.008 61.6857 76.008C62.48 76.008 62.9163 76.666 62.9163 77.658C62.9163 78.6569 62.4732 79.2569 61.6857 79.2569ZM67.7163 80.4023C68.9368 80.4023 69.7754 79.8057 69.9936 78.8955L68.8413 78.766C68.6743 79.2091 68.2652 79.441 67.7334 79.441C66.9357 79.441 66.4072 78.916 66.397 78.0194H70.0447V77.641C70.0447 75.8035 68.9402 74.9955 67.6516 74.9955C66.1516 74.9955 65.1732 76.0966 65.1732 77.7125C65.1732 79.3557 66.1379 80.4023 67.7163 80.4023ZM66.4004 77.1875C66.4379 76.5194 66.9322 75.9569 67.6686 75.9569C68.3777 75.9569 68.855 76.475 68.8618 77.1875H66.4004ZM71.0888 80.3H72.3229V77.2216C72.3229 76.5569 72.824 76.0864 73.5024 76.0864C73.7104 76.0864 73.9695 76.1239 74.0751 76.158V75.0228C73.9626 75.0023 73.7683 74.9887 73.632 74.9887C73.032 74.9887 72.5308 75.3296 72.3399 75.9364H72.2854V75.0637H71.0888V80.3ZM79.0337 76.4478C78.8632 75.5614 78.1541 74.9955 76.9268 74.9955C75.6655 74.9955 74.8064 75.616 74.8098 76.5841C74.8064 77.3478 75.2768 77.8523 76.2825 78.0603L77.1757 78.2478C77.6564 78.3535 77.8814 78.5478 77.8814 78.8444C77.8814 79.2023 77.4928 79.4716 76.9064 79.4716C76.3405 79.4716 75.9723 79.2262 75.8666 78.7557L74.6632 78.8716C74.8166 79.833 75.6246 80.4023 76.9098 80.4023C78.2189 80.4023 79.1428 79.7239 79.1462 78.7319C79.1428 77.9853 78.6621 77.5285 77.6734 77.3137L76.7803 77.1228C76.2484 77.0035 76.0371 76.8194 76.0405 76.516C76.0371 76.1614 76.4291 75.916 76.9439 75.916C77.5132 75.916 77.8132 76.2262 77.9087 76.5705L79.0337 76.4478ZM6.68082 87.5C6.42173 86.0682 5.27628 85.2228 3.87173 85.2228C2.08537 85.2228 0.789913 86.6 0.789913 88.8091C0.789913 91.0182 2.08537 92.3955 3.87173 92.3955C5.27628 92.3955 6.42173 91.55 6.68082 90.1182H5.83537C5.63082 91.0864 4.799 91.6046 3.87173 91.6046C2.60355 91.6046 1.6081 90.6228 1.6081 88.8091C1.6081 86.9955 2.60355 86.0137 3.87173 86.0137C4.799 86.0137 5.63082 86.5319 5.83537 87.5H6.68082ZM7.93793 92.3H8.74247V88.9864C8.74247 88.2773 9.30156 87.7591 10.0652 87.7591C10.28 87.7591 10.5016 87.8 10.5561 87.8137V86.9955C10.4641 86.9887 10.2527 86.9819 10.1334 86.9819C9.50611 86.9819 8.96065 87.3364 8.76974 87.8546H8.7152V87.0637H7.93793V92.3ZM13.5459 92.4091C14.6095 92.4091 15.3868 91.8773 15.6322 91.0864L14.855 90.8682C14.6504 91.4137 14.1766 91.6864 13.5459 91.6864C12.6016 91.6864 11.9504 91.0762 11.9129 89.9546H15.7141V89.6137C15.7141 87.6637 14.555 86.9955 13.4641 86.9955C12.0459 86.9955 11.105 88.1137 11.105 89.7228C11.105 91.3319 12.0322 92.4091 13.5459 92.4091ZM11.9129 89.2591C11.9675 88.4444 12.5436 87.7182 13.4641 87.7182C14.3368 87.7182 14.8959 88.3728 14.8959 89.2591H11.9129ZM18.4788 92.4228C19.3925 92.4228 19.8697 91.9319 20.0334 91.591H20.0743V92.3H20.8788V88.85C20.8788 87.1864 19.6107 86.9955 18.9425 86.9955C18.1516 86.9955 17.2516 87.2682 16.8425 88.2228L17.6061 88.4955C17.7834 88.1137 18.2027 87.7046 18.9697 87.7046C19.7095 87.7046 20.0743 88.0966 20.0743 88.7682V88.7955C20.0743 89.1841 19.6788 89.15 18.7243 89.2728C17.7527 89.3989 16.6925 89.6137 16.6925 90.8137C16.6925 91.8364 17.4834 92.4228 18.4788 92.4228ZM18.6016 91.7C17.9607 91.7 17.497 91.4137 17.497 90.8546C17.497 90.241 18.0561 90.05 18.6834 89.9682C19.0243 89.9273 19.9379 89.8319 20.0743 89.6682V90.4046C20.0743 91.0591 19.5561 91.7 18.6016 91.7ZM24.6246 87.0637H23.5064V85.8091H22.7018V87.0637H21.9109V87.7455H22.7018V91.0182C22.7018 91.9319 23.4382 92.3682 24.12 92.3682C24.42 92.3682 24.6109 92.3137 24.72 92.2728L24.5564 91.55C24.4882 91.5637 24.3791 91.591 24.2018 91.591C23.8473 91.591 23.5064 91.4819 23.5064 90.8V87.7455H24.6246V87.0637ZM27.974 92.4091C29.0376 92.4091 29.8149 91.8773 30.0604 91.0864L29.2831 90.8682C29.0786 91.4137 28.6047 91.6864 27.974 91.6864C27.0297 91.6864 26.3786 91.0762 26.3411 89.9546H30.1422V89.6137C30.1422 87.6637 28.9831 86.9955 27.8922 86.9955C26.474 86.9955 25.5331 88.1137 25.5331 89.7228C25.5331 91.3319 26.4604 92.4091 27.974 92.4091ZM26.3411 89.2591C26.3956 88.4444 26.9717 87.7182 27.8922 87.7182C28.7649 87.7182 29.324 88.3728 29.324 89.2591H26.3411ZM34.5842 94.2637C35.3104 94.2637 35.8217 93.8785 36.1251 93.0637L38.3547 87.0773L37.4751 87.0637L36.0297 91.2364H35.9751L34.5297 87.0637H33.657L35.5933 92.3273L35.4433 92.7364C35.1501 93.5341 34.7888 93.6091 34.2024 93.4591L33.9979 94.1682C34.0797 94.2091 34.3115 94.2637 34.5842 94.2637ZM41.3589 92.4091C42.7771 92.4091 43.7317 91.3319 43.7317 89.7091C43.7317 88.0728 42.7771 86.9955 41.3589 86.9955C39.9408 86.9955 38.9862 88.0728 38.9862 89.7091C38.9862 91.3319 39.9408 92.4091 41.3589 92.4091ZM41.3589 91.6864C40.2817 91.6864 39.7908 90.7591 39.7908 89.7091C39.7908 88.6591 40.2817 87.7182 41.3589 87.7182C42.4362 87.7182 42.9271 88.6591 42.9271 89.7091C42.9271 90.7591 42.4362 91.6864 41.3589 91.6864ZM48.2598 90.1591C48.2598 91.141 47.5098 91.591 46.9098 91.591C46.2416 91.591 45.7643 91.1 45.7643 90.3364V87.0637H44.9598V90.391C44.9598 91.7273 45.6689 92.3682 46.6507 92.3682C47.4416 92.3682 47.9598 91.9455 48.2053 91.4137H48.2598V92.3H49.0643V87.0637H48.2598V90.1591ZM50.5379 92.3H51.3425V88.9864C51.3425 88.2773 51.9016 87.7591 52.6652 87.7591C52.88 87.7591 53.1016 87.8 53.1561 87.8137V86.9955C53.0641 86.9887 52.8527 86.9819 52.7334 86.9819C52.1061 86.9819 51.5607 87.3364 51.3697 87.8546H51.3152V87.0637H50.5379V92.3ZM59.1416 87.0637H57.9689V86.5319C57.9689 86.0137 58.1871 85.741 58.7189 85.741C58.9507 85.741 59.0871 85.7955 59.1689 85.8228L59.4007 85.1273C59.278 85.0728 59.0325 84.991 58.6371 84.991C57.8871 84.991 57.1643 85.441 57.1643 86.341V87.0637H56.3189V87.7455H57.1643V92.3H57.9689V87.7455H59.1416V87.0637ZM60.2692 92.3H61.0737V87.0637H60.2692V92.3ZM60.6783 86.191C60.9919 86.191 61.251 85.9455 61.251 85.6455C61.251 85.3455 60.9919 85.1 60.6783 85.1C60.3646 85.1 60.1055 85.3455 60.1055 85.6455C60.1055 85.9455 60.3646 86.191 60.6783 86.191ZM62.5473 92.3H63.3518V88.9864C63.3518 88.2773 63.9109 87.7591 64.6746 87.7591C64.8893 87.7591 65.1109 87.8 65.1655 87.8137V86.9955C65.0734 86.9887 64.8621 86.9819 64.7428 86.9819C64.1155 86.9819 63.57 87.3364 63.3791 87.8546H63.3246V87.0637H62.5473V92.3ZM69.8283 88.2364C69.576 87.4932 69.0101 86.9955 67.9737 86.9955C66.8692 86.9955 66.051 87.6228 66.051 88.5091C66.051 89.2319 66.4805 89.716 67.4419 89.941L68.3146 90.1455C68.843 90.2682 69.0919 90.5205 69.0919 90.8819C69.0919 91.3319 68.6146 91.7 67.8646 91.7C67.2067 91.7 66.7942 91.4171 66.651 90.8546L65.8874 91.0455C66.0749 91.9353 66.8078 92.4091 67.8783 92.4091C69.0953 92.4091 69.9237 91.7444 69.9237 90.841C69.9237 90.1114 69.4669 89.6512 68.5328 89.4228L67.7555 89.2319C67.1351 89.0785 66.8555 88.8705 66.8555 88.4682C66.8555 88.0182 67.3328 87.691 67.9737 87.691C68.676 87.691 68.9658 88.0796 69.1055 88.441L69.8283 88.2364ZM73.4121 87.0637H72.2939V85.8091H71.4893V87.0637H70.6984V87.7455H71.4893V91.0182C71.4893 91.9319 72.2257 92.3682 72.9075 92.3682C73.2075 92.3682 73.3984 92.3137 73.5075 92.2728L73.3439 91.55C73.2757 91.5637 73.1666 91.591 72.9893 91.591C72.6348 91.591 72.2939 91.4819 72.2939 90.8V87.7455H73.4121V87.0637ZM79.5996 87.0637H78.4814V85.8091H77.6768V87.0637H76.8859V87.7455H77.6768V91.0182C77.6768 91.9319 78.4132 92.3682 79.095 92.3682C79.395 92.3682 79.5859 92.3137 79.695 92.2728L79.5314 91.55C79.4632 91.5637 79.3541 91.591 79.1768 91.591C78.8223 91.591 78.4814 91.4819 78.4814 90.8V87.7455H79.5996V87.0637ZM80.8098 92.3H81.6143V88.9864C81.6143 88.2773 82.1734 87.7591 82.9371 87.7591C83.1518 87.7591 83.3734 87.8 83.428 87.8137V86.9955C83.3359 86.9887 83.1246 86.9819 83.0053 86.9819C82.378 86.9819 81.8325 87.3364 81.6416 87.8546H81.5871V87.0637H80.8098V92.3ZM84.3817 92.3H85.1862V87.0637H84.3817V92.3ZM84.7908 86.191C85.1044 86.191 85.3635 85.9455 85.3635 85.6455C85.3635 85.3455 85.1044 85.1 84.7908 85.1C84.4771 85.1 84.218 85.3455 84.218 85.6455C84.218 85.9455 84.4771 86.191 84.7908 86.191ZM88.7734 94.3728C90.028 94.3728 91.0371 93.8 91.0371 92.45V87.0637H90.2598V87.8955H90.178C90.0007 87.6228 89.6734 86.9955 88.6507 86.9955C87.328 86.9955 86.4143 88.0455 86.4143 89.6546C86.4143 91.291 87.3689 92.2182 88.6371 92.2182C89.6598 92.2182 89.9871 91.6182 90.1643 91.3319H90.2325V92.3955C90.2325 93.2682 89.6189 93.6637 88.7734 93.6637C87.8223 93.6637 87.4882 93.1625 87.2734 92.8728L86.6325 93.3228C86.9598 93.8716 87.6041 94.3728 88.7734 94.3728ZM88.7462 91.4955C87.7371 91.4955 87.2189 90.7319 87.2189 89.641C87.2189 88.5773 87.7234 87.7182 88.7462 87.7182C89.728 87.7182 90.2462 88.5091 90.2462 89.641C90.2462 90.8 89.7143 91.4955 88.7462 91.4955ZM94.6234 94.3728C95.878 94.3728 96.8871 93.8 96.8871 92.45V87.0637H96.1098V87.8955H96.028C95.8507 87.6228 95.5234 86.9955 94.5007 86.9955C93.178 86.9955 92.2643 88.0455 92.2643 89.6546C92.2643 91.291 93.2189 92.2182 94.4871 92.2182C95.5098 92.2182 95.8371 91.6182 96.0143 91.3319H96.0825V92.3955C96.0825 93.2682 95.4689 93.6637 94.6234 93.6637C93.6723 93.6637 93.3382 93.1625 93.1234 92.8728L92.4825 93.3228C92.8098 93.8716 93.4541 94.3728 94.6234 94.3728ZM94.5962 91.4955C93.5871 91.4955 93.0689 90.7319 93.0689 89.641C93.0689 88.5773 93.5734 87.7182 94.5962 87.7182C95.578 87.7182 96.0962 88.5091 96.0962 89.641C96.0962 90.8 95.5643 91.4955 94.5962 91.4955ZM100.555 92.4091C101.619 92.4091 102.396 91.8773 102.642 91.0864L101.864 90.8682C101.66 91.4137 101.186 91.6864 100.555 91.6864C99.6109 91.6864 98.9598 91.0762 98.9223 89.9546H102.723V89.6137C102.723 87.6637 101.564 86.9955 100.473 86.9955C99.0553 86.9955 98.1143 88.1137 98.1143 89.7228C98.1143 91.3319 99.0416 92.4091 100.555 92.4091ZM98.9223 89.2591C98.9768 88.4444 99.553 87.7182 100.473 87.7182C101.346 87.7182 101.905 88.3728 101.905 89.2591H98.9223ZM103.947 92.3H104.752V88.9864C104.752 88.2773 105.311 87.7591 106.075 87.7591C106.289 87.7591 106.511 87.8 106.565 87.8137V86.9955C106.473 86.9887 106.262 86.9819 106.143 86.9819C105.515 86.9819 104.97 87.3364 104.779 87.8546H104.725V87.0637H103.947V92.3Z" fill="#AEB8C2"/>
</svg>
