<svg width="74" height="98" viewBox="0 0 74 98" fill="none" xmlns="http://www.w3.org/2000/svg">
<path d="M58.578 46.7523H15.422C14.8826 46.7523 14.5229 46.3926 14.5229 45.8532C14.5229 45.3137 14.8826 44.9541 15.422 44.9541H58.578C59.1174 44.9541 59.4771 45.3137 59.4771 45.8532C59.4771 46.3926 59.1174 46.7523 58.578 46.7523Z" fill="#919EAB"/>
<path d="M53.1835 55.7435H15.422C14.8826 55.7435 14.5229 55.3838 14.5229 54.8444C14.5229 54.3049 14.8826 53.9453 15.422 53.9453H53.1835C53.7229 53.9453 54.0826 54.3049 54.0826 54.8444C54.0826 55.3838 53.7229 55.7435 53.1835 55.7435Z" fill="#919EAB"/>
<path d="M31.6055 64.7337H15.422C14.8826 64.7337 14.5229 64.3741 14.5229 63.8346C14.5229 63.2952 14.8826 62.9355 15.422 62.9355H31.6055C32.145 62.9355 32.5046 63.2952 32.5046 63.8346C32.5046 64.3741 32.145 64.7337 31.6055 64.7337Z" fill="#919EAB"/>
<path d="M13.6238 9.89062H4.63293V18.8814H13.6238V9.89062Z" fill="#0076FF" fill-opacity="0.3"/>
<path d="M13.6238 19.7802H4.63297C4.09352 19.7802 3.73389 19.4206 3.73389 18.8811V9.89029C3.73389 9.35084 4.09352 8.99121 4.63297 8.99121H13.6238C14.1632 8.99121 14.5229 9.35084 14.5229 9.89029V18.8811C14.5229 19.4206 14.1632 19.7802 13.6238 19.7802ZM5.53205 17.982H12.7247V10.7894H5.53205V17.982Z" fill="#919EAB"/>
<path d="M27.1101 19.7803H18.1193V28.7711H27.1101V19.7803Z" fill="#0076FF" fill-opacity="0.3"/>
<path d="M27.11 29.6699H18.1192C17.5797 29.6699 17.2201 29.3102 17.2201 28.7708V19.7799C17.2201 19.2405 17.5797 18.8809 18.1192 18.8809H27.11C27.6495 18.8809 28.0091 19.2405 28.0091 19.7799V28.7708C28.0091 29.3102 27.6495 29.6699 27.11 29.6699ZM19.0183 27.8717H26.2109V20.679H19.0183V27.8717Z" fill="#919EAB"/>
<path d="M31.6054 5.39453H22.6146V14.3854H31.6054V5.39453Z" fill="#0076FF" fill-opacity="0.1"/>
<path d="M31.6055 15.2841H22.6147C22.0752 15.2841 21.7156 14.9245 21.7156 14.385V5.3942C21.7156 4.85475 22.0752 4.49512 22.6147 4.49512H31.6055C32.1449 4.49512 32.5046 4.85475 32.5046 5.3942V14.385C32.5046 14.9245 32.1449 15.2841 31.6055 15.2841ZM23.5137 13.4859H30.7064V6.29328H23.5137V13.4859Z" fill="#919EAB"/>
<path d="M45.0917 0.899414H36.1008V9.89024H45.0917V0.899414Z" fill="#0076FF" fill-opacity="0.1"/>
<path d="M45.0917 10.789H36.1009C35.5614 10.789 35.2018 10.4294 35.2018 9.88991V0.899083C35.2018 0.359633 35.5614 0 36.1009 0H45.0917C45.6311 0 45.9908 0.359633 45.9908 0.899083V9.88991C45.9908 10.4294 45.6311 10.789 45.0917 10.789ZM36.9999 8.99083H44.1926V1.79817H36.9999V8.99083Z" fill="#919EAB"/>
<path d="M55.8807 13.4863H43.2936V26.0735H55.8807V13.4863Z" fill="#0076FF" fill-opacity="0.6"/>
<path d="M55.8806 26.9722H43.2935C42.754 26.9722 42.3944 26.6126 42.3944 26.0732V13.486C42.3944 12.9465 42.754 12.5869 43.2935 12.5869H55.8806C56.4201 12.5869 56.7797 12.9465 56.7797 13.486V26.0732C56.7797 26.6126 56.4201 26.9722 55.8806 26.9722ZM44.1926 25.1741H54.9816V14.3851H44.1926V25.1741Z" fill="#919EAB"/>
<path d="M72.9633 8.0918H60.3761V20.679H72.9633V8.0918Z" fill="#0076FF" fill-opacity="0.6"/>
<path d="M72.9633 21.5777H60.3761C59.8367 21.5777 59.4771 21.2181 59.4771 20.6786V8.09147C59.4771 7.55202 59.8367 7.19238 60.3761 7.19238H72.9633C73.5027 7.19238 73.8624 7.55202 73.8624 8.09147V20.6786C73.8624 21.2181 73.5027 21.5777 72.9633 21.5777ZM61.2752 19.7795H72.0642V8.99055H61.2752V19.7795Z" fill="#919EAB"/>
<path d="M68.4678 98.0005H5.53207C2.47519 98.0005 0.137573 95.6629 0.137573 92.606V23.3766C0.137573 22.8372 0.497206 22.4775 1.03666 22.4775H13.6238C14.1633 22.4775 14.5229 22.8372 14.5229 23.3766V32.3674H30.7064V23.3766C30.7064 22.8372 31.066 22.4775 31.6055 22.4775H38.7981C39.3376 22.4775 39.6972 22.8372 39.6972 23.3766V29.6702H59.477V25.1748C59.477 24.6353 59.8367 24.2757 60.3761 24.2757H72.9633C73.5027 24.2757 73.8623 24.6353 73.8623 25.1748V92.606C73.8623 95.6629 71.5247 98.0005 68.4678 98.0005ZM1.93574 24.2757V92.606C1.93574 94.584 3.55409 96.2023 5.53207 96.2023H68.4678C70.4458 96.2023 72.0642 94.584 72.0642 92.606V26.0739H61.2752V30.5693C61.2752 31.1087 60.9156 31.4684 60.3761 31.4684H38.7981C38.2587 31.4684 37.899 31.1087 37.899 30.5693V24.2757H32.5045V33.2665C32.5045 33.806 32.1449 34.1656 31.6055 34.1656H13.6238C13.0844 34.1656 12.7247 33.806 12.7247 33.2665V24.2757H1.93574Z" fill="#919EAB"/>
</svg>
