<svg width="105" height="94" viewBox="0 0 105 94" fill="none" xmlns="http://www.w3.org/2000/svg">
<path d="M52.5179 20.9999C52.4179 20.9999 52.3179 20.9999 52.2179 20.8999L35.2179 5.89988C35.0179 5.69988 35.0179 5.3998 35.2179 5.1998C35.4179 4.9998 35.7179 4.9998 35.9179 5.1998L52.6179 19.8999L69.3178 5.1998C69.5178 4.9998 69.8179 4.9998 70.0179 5.1998C70.2179 5.3998 70.2179 5.69988 70.0179 5.89988L53.0179 20.8999C52.8179 20.8999 52.7179 20.9999 52.5179 20.9999Z" fill="#919EAB"/>
<path d="M69.5178 20.9999C69.4178 20.9999 69.3178 20.9999 69.2178 20.8999L52.5178 6.1998L35.8178 20.8999C35.6178 21.0999 35.3178 21.0999 35.1178 20.8999C34.9178 20.6999 34.9178 20.3998 35.1178 20.1998L52.1178 5.1998C52.3178 4.9998 52.6178 4.9998 52.8178 5.1998L69.8178 20.1998C70.0178 20.3998 70.0178 20.6999 69.8178 20.8999C69.8178 20.8999 69.7178 20.9999 69.5178 20.9999Z" fill="#919EAB"/>
<path d="M35.5178 10.5C38.2792 10.5 40.5178 8.26142 40.5178 5.5C40.5178 2.73858 38.2792 0.5 35.5178 0.5C32.7564 0.5 30.5178 2.73858 30.5178 5.5C30.5178 8.26142 32.7564 10.5 35.5178 10.5Z" fill="white"/>
<path d="M35.5178 11C32.5178 11 30.0178 8.5 30.0178 5.5C30.0178 2.5 32.5178 0 35.5178 0C38.5178 0 41.0178 2.5 41.0178 5.5C41.0178 8.5 38.6178 11 35.5178 11ZM35.5178 1C33.0178 1 31.0178 3 31.0178 5.5C31.0178 8 33.0178 10 35.5178 10C38.0178 10 40.0178 8 40.0178 5.5C40.0178 3 38.0178 1 35.5178 1Z" fill="#919EAB"/>
<path d="M52.5178 10.5C55.2792 10.5 57.5178 8.26142 57.5178 5.5C57.5178 2.73858 55.2792 0.5 52.5178 0.5C49.7564 0.5 47.5178 2.73858 47.5178 5.5C47.5178 8.26142 49.7564 10.5 52.5178 10.5Z" fill="#919EAB"/>
<path d="M52.5178 11C49.5178 11 47.0178 8.5 47.0178 5.5C47.0178 2.5 49.5178 0 52.5178 0C55.5178 0 58.0178 2.5 58.0178 5.5C58.0178 8.5 55.6178 11 52.5178 11ZM52.5178 1C50.0178 1 48.0178 3 48.0178 5.5C48.0178 8 50.0178 10 52.5178 10C55.0178 10 57.0178 8 57.0178 5.5C57.0178 3 55.0178 1 52.5178 1Z" fill="#919EAB"/>
<path d="M69.5178 10.5C72.2792 10.5 74.5178 8.26142 74.5178 5.5C74.5178 2.73858 72.2792 0.5 69.5178 0.5C66.7564 0.5 64.5178 2.73858 64.5178 5.5C64.5178 8.26142 66.7564 10.5 69.5178 10.5Z" fill="white"/>
<path d="M69.5178 11C66.5178 11 64.0178 8.5 64.0178 5.5C64.0178 2.5 66.5178 0 69.5178 0C72.5178 0 75.0178 2.5 75.0178 5.5C75.0178 8.5 72.6178 11 69.5178 11ZM69.5178 1C67.0178 1 65.0178 3 65.0178 5.5C65.0178 8 67.0178 10 69.5178 10C72.0178 10 74.0178 8 74.0178 5.5C74.0178 3 72.0178 1 69.5178 1Z" fill="#919EAB"/>
<path d="M35.5178 25.5C38.2792 25.5 40.5178 23.2614 40.5178 20.5C40.5178 17.7386 38.2792 15.5 35.5178 15.5C32.7564 15.5 30.5178 17.7386 30.5178 20.5C30.5178 23.2614 32.7564 25.5 35.5178 25.5Z" fill="#919EAB"/>
<path d="M35.5178 26C32.5178 26 30.0178 23.5 30.0178 20.5C30.0178 17.5 32.5178 15 35.5178 15C38.5178 15 41.0178 17.5 41.0178 20.5C41.0178 23.5 38.6178 26 35.5178 26ZM35.5178 16C33.0178 16 31.0178 18 31.0178 20.5C31.0178 23 33.0178 25 35.5178 25C38.0178 25 40.0178 23 40.0178 20.5C40.0178 18 38.0178 16 35.5178 16Z" fill="#919EAB"/>
<path d="M52.5178 25.5C55.2792 25.5 57.5178 23.2614 57.5178 20.5C57.5178 17.7386 55.2792 15.5 52.5178 15.5C49.7564 15.5 47.5178 17.7386 47.5178 20.5C47.5178 23.2614 49.7564 25.5 52.5178 25.5Z" fill="white"/>
<path d="M52.5178 26C49.5178 26 47.0178 23.5 47.0178 20.5C47.0178 17.5 49.5178 15 52.5178 15C55.5178 15 58.0178 17.5 58.0178 20.5C58.0178 23.5 55.6178 26 52.5178 26ZM52.5178 16C50.0178 16 48.0178 18 48.0178 20.5C48.0178 23 50.0178 25 52.5178 25C55.0178 25 57.0178 23 57.0178 20.5C57.0178 18 55.0178 16 52.5178 16Z" fill="#919EAB"/>
<path d="M69.5178 25.5C72.2792 25.5 74.5178 23.2614 74.5178 20.5C74.5178 17.7386 72.2792 15.5 69.5178 15.5C66.7564 15.5 64.5178 17.7386 64.5178 20.5C64.5178 23.2614 66.7564 25.5 69.5178 25.5Z" fill="#919EAB"/>
<path d="M69.5178 26C66.5178 26 64.0178 23.5 64.0178 20.5C64.0178 17.5 66.5178 15 69.5178 15C72.5178 15 75.0178 17.5 75.0178 20.5C75.0178 23.5 72.6178 26 69.5178 26ZM69.5178 16C67.0178 16 65.0178 18 65.0178 20.5C65.0178 23 67.0178 25 69.5178 25C72.0178 25 74.0178 23 74.0178 20.5C74.0178 18 72.0178 16 69.5178 16Z" fill="#919EAB"/>
<path d="M57.5177 43C57.5177 39.9 54.7177 37.3999 51.4177 38.0999C49.5177 38.4999 48.0177 40.1 47.6177 42C47.3177 43.7 47.8177 45.3 48.8177 46.4C49.5177 47.2 50.0177 48.1999 50.0177 49.1999V49.5H55.0177V49.1999C55.0177 48.0999 55.5177 47.0999 56.2177 46.2999C57.0177 45.3999 57.5177 44.3 57.5177 43Z" fill="#0076FF" fill-opacity="0.2"/>
<path d="M55.0178 50H50.0178C49.7178 50 49.5178 49.8 49.5178 49.5V49.2C49.5178 48.3 49.1178 47.4 48.4178 46.7C47.2178 45.4 46.7178 43.6001 47.1178 41.9001C47.5178 39.8001 49.2178 38.1 51.3178 37.6C53.0178 37.2 54.7178 37.7 55.9178 38.7C57.2178 39.8 57.9178 41.3 57.9178 43C57.9178 44.4 57.4178 45.7 56.5178 46.7C56.0178 47.2 55.4178 48.1 55.4178 49.2V49.5C55.5178 49.8 55.3178 50 55.0178 50ZM50.5178 49H54.5178C54.6178 47.9 55.0178 46.9 55.8178 46C56.6178 45.2 57.0178 44.1 57.0178 43C57.0178 41.6 56.4178 40.4 55.3178 39.5C54.2178 38.6 52.9178 38.3 51.5178 38.6C49.8178 39 48.4178 40.4 48.1178 42.1C47.8178 43.5 48.2178 45 49.2178 46C50.0178 46.9 50.5178 47.9 50.5178 49Z" fill="#919EAB"/>
<path d="M52.5178 55C50.8178 55 49.5178 53.7 49.5178 52V49.5C49.5178 49.2 49.7178 49 50.0178 49H55.0178C55.3178 49 55.5178 49.2 55.5178 49.5V52C55.5178 53.6 54.2178 55 52.5178 55ZM50.5178 50V52C50.5178 53.1 51.4178 54 52.5178 54C53.6178 54 54.5178 53.1 54.5178 52V50H50.5178Z" fill="#919EAB"/>
<path d="M55.0178 52.5H50.0178C49.7178 52.5 49.5178 52.3 49.5178 52C49.5178 51.7 49.7178 51.5 50.0178 51.5H55.0178C55.3178 51.5 55.5178 51.7 55.5178 52C55.5178 52.3 55.3178 52.5 55.0178 52.5Z" fill="#919EAB"/>
<path d="M52.5178 50C52.2178 50 52.0178 49.8 52.0178 49.5V44.5C52.0178 44.2 52.2178 44 52.5178 44C52.8178 44 53.0178 44.2 53.0178 44.5V49.5C53.0178 49.8 52.8178 50 52.5178 50Z" fill="#919EAB"/>
<path d="M40.5177 43C40.5177 39.9 37.7177 37.3999 34.4177 38.0999C32.5177 38.4999 31.0177 40.1 30.6177 42C30.3177 43.7 30.8177 45.3 31.8177 46.4C32.5177 47.2 33.0177 48.1999 33.0177 49.1999V49.5H38.0177V49.1999C38.0177 48.0999 38.5177 47.0999 39.2177 46.2999C40.0177 45.3999 40.5177 44.3 40.5177 43Z" fill="#0076FF" fill-opacity="0.2"/>
<path d="M38.0178 50H33.0178C32.7178 50 32.5178 49.8 32.5178 49.5V49.2C32.5178 48.3 32.1178 47.4 31.4178 46.7C30.2178 45.4 29.7178 43.6001 30.1178 41.9001C30.5178 39.8001 32.2178 38.1 34.3178 37.6C36.0178 37.2 37.7178 37.7 38.9178 38.7C40.2178 39.8 40.9178 41.3 40.9178 43C40.9178 44.4 40.4178 45.7 39.5178 46.7C39.0178 47.2 38.4178 48.1 38.4178 49.2V49.5C38.5178 49.8 38.3178 50 38.0178 50ZM33.5178 49H37.5178C37.6178 47.9 38.0178 46.9 38.8178 46C39.6178 45.2 40.0178 44.1 40.0178 43C40.0178 41.6 39.4178 40.4 38.3178 39.5C37.2178 38.6 35.9178 38.3 34.5178 38.6C32.8178 39 31.4178 40.4 31.1178 42.1C30.8178 43.5 31.2178 45 32.2178 46C33.0178 46.9 33.5178 47.9 33.5178 49Z" fill="#919EAB"/>
<path d="M35.5178 55C33.8178 55 32.5178 53.7 32.5178 52V49.5C32.5178 49.2 32.7178 49 33.0178 49H38.0178C38.3178 49 38.5178 49.2 38.5178 49.5V52C38.5178 53.6 37.2178 55 35.5178 55ZM33.5178 50V52C33.5178 53.1 34.4178 54 35.5178 54C36.6178 54 37.5178 53.1 37.5178 52V50H33.5178Z" fill="#919EAB"/>
<path d="M38.0178 52.5H33.0178C32.7178 52.5 32.5178 52.3 32.5178 52C32.5178 51.7 32.7178 51.5 33.0178 51.5H38.0178C38.3178 51.5 38.5178 51.7 38.5178 52C38.5178 52.3 38.3178 52.5 38.0178 52.5Z" fill="#919EAB"/>
<path d="M35.5178 50C35.2178 50 35.0178 49.8 35.0178 49.5V44.5C35.0178 44.2 35.2178 44 35.5178 44C35.8178 44 36.0178 44.2 36.0178 44.5V49.5C36.0178 49.8 35.8178 50 35.5178 50Z" fill="#919EAB"/>
<path d="M74.5177 43C74.5177 39.9 71.7177 37.3999 68.4177 38.0999C66.5177 38.4999 65.0177 40.1 64.6177 42C64.3177 43.7 64.8177 45.3 65.8177 46.4C66.5177 47.2 67.0177 48.1999 67.0177 49.1999V49.5H72.0177V49.1999C72.0177 48.0999 72.5177 47.0999 73.2177 46.2999C74.0177 45.3999 74.5177 44.3 74.5177 43Z" fill="#0076FF" fill-opacity="0.2"/>
<path d="M72.0178 50H67.0178C66.7178 50 66.5178 49.8 66.5178 49.5V49.2C66.5178 48.3 66.1178 47.4 65.4178 46.7C64.2178 45.4 63.7178 43.6001 64.1178 41.9001C64.5178 39.8001 66.2178 38.1 68.3178 37.6C70.0178 37.2 71.7178 37.7 72.9178 38.7C74.2178 39.8 74.9178 41.3 74.9178 43C74.9178 44.4 74.4178 45.7 73.5178 46.7C73.0178 47.2 72.4178 48.1 72.4178 49.2V49.5C72.5178 49.8 72.3178 50 72.0178 50ZM67.5178 49H71.5178C71.6178 47.9 72.0178 46.9 72.8178 46C73.6178 45.2 74.0178 44.1 74.0178 43C74.0178 41.6 73.4178 40.4 72.3178 39.5C71.2178 38.6 69.9178 38.3 68.5178 38.6C66.8178 39 65.4178 40.4 65.1178 42.1C64.8178 43.5 65.2178 45 66.2178 46C67.0178 46.9 67.5178 47.9 67.5178 49Z" fill="#919EAB"/>
<path d="M69.5178 55C67.8178 55 66.5178 53.7 66.5178 52V49.5C66.5178 49.2 66.7178 49 67.0178 49H72.0178C72.3178 49 72.5178 49.2 72.5178 49.5V52C72.5178 53.6 71.2178 55 69.5178 55ZM67.5178 50V52C67.5178 53.1 68.4178 54 69.5178 54C70.6178 54 71.5178 53.1 71.5178 52V50H67.5178Z" fill="#919EAB"/>
<path d="M72.0178 52.5H67.0178C66.7178 52.5 66.5178 52.3 66.5178 52C66.5178 51.7 66.7178 51.5 67.0178 51.5H72.0178C72.3178 51.5 72.5178 51.7 72.5178 52C72.5178 52.3 72.3178 52.5 72.0178 52.5Z" fill="#919EAB"/>
<path d="M69.5178 50C69.2178 50 69.0178 49.8 69.0178 49.5V44.5C69.0178 44.2 69.2178 44 69.5178 44C69.8178 44 70.0178 44.2 70.0178 44.5V49.5C70.0178 49.8 69.8178 50 69.5178 50Z" fill="#919EAB"/>
<path d="M69.5178 31H35.5178C35.2178 31 35.0178 30.8 35.0178 30.5V25.5C35.0178 25.2 35.2178 25 35.5178 25C35.8178 25 36.0178 25.2 36.0178 25.5V30H69.0178V25.5C69.0178 25.2 69.2178 25 69.5178 25C69.8178 25 70.0178 25.2 70.0178 25.5V30.5C70.0178 30.8 69.8178 31 69.5178 31Z" fill="#919EAB"/>
<path d="M52.5178 36C52.2178 36 52.0178 35.8 52.0178 35.5V30.5C52.0178 30.2 52.2178 30 52.5178 30C52.8178 30 53.0178 30.2 53.0178 30.5V35.5C53.0178 35.8 52.8178 36 52.5178 36Z" fill="#919EAB"/>
<path d="M47.5178 50H40.5178C40.2178 50 40.0178 49.8 40.0178 49.5C40.0178 49.2 40.2178 49 40.5178 49H47.5178C47.8178 49 48.0178 49.2 48.0178 49.5C48.0178 49.8 47.8178 50 47.5178 50Z" fill="#919EAB"/>
<path d="M64.5178 50H57.5178C57.2178 50 57.0178 49.8 57.0178 49.5C57.0178 49.2 57.2178 49 57.5178 49H64.5178C64.8178 49 65.0178 49.2 65.0178 49.5C65.0178 49.8 64.8178 50 64.5178 50Z" fill="#919EAB"/>
<path d="M34.2746 72.0182H33.0166V76.7773H32.9553L29.6689 72.0182H28.5371V79H29.8018V74.2443H29.8598L33.1496 79H34.2746V72.0182ZM37.8822 79.1023C39.4163 79.1023 40.3913 78.0216 40.3913 76.4023C40.3913 74.7795 39.4163 73.6955 37.8822 73.6955C36.3482 73.6955 35.3732 74.7795 35.3732 76.4023C35.3732 78.0216 36.3482 79.1023 37.8822 79.1023ZM37.8891 78.1136C37.0402 78.1136 36.6243 77.3568 36.6243 76.3989C36.6243 75.4409 37.0402 74.6739 37.8891 74.6739C38.7243 74.6739 39.1402 75.4409 39.1402 76.3989C39.1402 77.3568 38.7243 78.1136 37.8891 78.1136ZM43.82 79H45.0541V75.8159C45.0541 75.1716 45.4837 74.7352 46.0155 74.7352C46.5371 74.7352 46.895 75.0864 46.895 75.625V79H48.1053V75.7341C48.1053 75.1443 48.4564 74.7352 49.053 74.7352C49.5507 74.7352 49.9462 75.0284 49.9462 75.6761V79H51.1837V75.4852C51.1837 74.3159 50.5087 73.6955 49.5473 73.6955C48.7871 73.6955 48.2075 74.0705 47.9757 74.6534H47.9212C47.72 74.0602 47.2121 73.6955 46.5064 73.6955C45.8041 73.6955 45.2791 74.0568 45.0609 74.6534H44.9996V73.7636H43.82V79ZM54.7197 79.1023C56.2538 79.1023 57.2288 78.0216 57.2288 76.4023C57.2288 74.7795 56.2538 73.6955 54.7197 73.6955C53.1857 73.6955 52.2107 74.7795 52.2107 76.4023C52.2107 78.0216 53.1857 79.1023 54.7197 79.1023ZM54.7266 78.1136C53.8777 78.1136 53.4618 77.3568 53.4618 76.3989C53.4618 75.4409 53.8777 74.6739 54.7266 74.6739C55.5618 74.6739 55.9777 75.4409 55.9777 76.3989C55.9777 77.3568 55.5618 78.1136 54.7266 78.1136ZM60.2195 79.092C61.1195 79.092 61.5251 78.5568 61.7195 78.175H61.7945V79H63.0081V72.0182H61.7706V74.6295H61.7195C61.532 74.2511 61.1467 73.6955 60.2229 73.6955C59.0126 73.6955 58.0615 74.6432 58.0615 76.3886C58.0615 78.1136 58.9854 79.092 60.2195 79.092ZM60.5638 78.0795C59.749 78.0795 59.3195 77.3636 59.3195 76.3818C59.3195 75.4068 59.7422 74.708 60.5638 74.708C61.3581 74.708 61.7945 75.3659 61.7945 76.3818C61.7945 77.3977 61.3513 78.0795 60.5638 78.0795ZM66.6413 79.1023C67.8618 79.1023 68.7004 78.5057 68.9186 77.5955L67.7663 77.4659C67.5993 77.9091 67.1902 78.1409 66.6584 78.1409C65.8607 78.1409 65.3322 77.6159 65.322 76.7193H68.9697V76.3409C68.9697 74.5034 67.8652 73.6955 66.5766 73.6955C65.0766 73.6955 64.0982 74.7966 64.0982 76.4125C64.0982 78.0557 65.0629 79.1023 66.6413 79.1023ZM65.3254 75.8875C65.3629 75.2193 65.8572 74.6568 66.5936 74.6568C67.3027 74.6568 67.78 75.175 67.7868 75.8875H65.3254ZM71.2479 72.0182H70.0138V79H71.2479V72.0182ZM76.6555 75.1477C76.4851 74.2614 75.776 73.6955 74.5487 73.6955C73.2874 73.6955 72.4283 74.3159 72.4317 75.2841C72.4283 76.0477 72.8987 76.5523 73.9044 76.7602L74.7976 76.9477C75.2783 77.0534 75.5033 77.2477 75.5033 77.5443C75.5033 77.9023 75.1146 78.1716 74.5283 78.1716C73.9624 78.1716 73.5942 77.9261 73.4885 77.4557L72.2851 77.5716C72.4385 78.533 73.2464 79.1023 74.5317 79.1023C75.8408 79.1023 76.7646 78.4239 76.768 77.4318C76.7646 76.6852 76.2839 76.2284 75.2953 76.0136L74.4021 75.8227C73.8703 75.7034 73.6589 75.5193 73.6624 75.2159C73.6589 74.8614 74.051 74.6159 74.5658 74.6159C75.1351 74.6159 75.4351 74.9261 75.5305 75.2705L76.6555 75.1477ZM6.82926 86.2C6.57017 84.7682 5.42471 83.9227 4.02017 83.9227C2.23381 83.9227 0.938351 85.3 0.938351 87.5091C0.938351 89.7182 2.23381 91.0955 4.02017 91.0955C5.42471 91.0955 6.57017 90.25 6.82926 88.8182H5.98381C5.77926 89.7864 4.94744 90.3045 4.02017 90.3045C2.75199 90.3045 1.75653 89.3227 1.75653 87.5091C1.75653 85.6955 2.75199 84.7136 4.02017 84.7136C4.94744 84.7136 5.77926 85.2318 5.98381 86.2H6.82926ZM8.08636 91H8.89091V87.6864C8.89091 86.9773 9.45 86.4591 10.2136 86.4591C10.4284 86.4591 10.65 86.5 10.7045 86.5136V85.6955C10.6125 85.6886 10.4011 85.6818 10.2818 85.6818C9.65454 85.6818 9.10909 86.0364 8.91818 86.5545H8.86364V85.7636H8.08636V91ZM13.6943 91.1091C14.758 91.1091 15.5352 90.5773 15.7807 89.7864L15.0034 89.5682C14.7989 90.1136 14.325 90.3864 13.6943 90.3864C12.75 90.3864 12.0989 89.7761 12.0614 88.6545H15.8625V88.3136C15.8625 86.3636 14.7034 85.6955 13.6125 85.6955C12.1943 85.6955 11.2534 86.8136 11.2534 88.4227C11.2534 90.0318 12.1807 91.1091 13.6943 91.1091ZM12.0614 87.9591C12.1159 87.1443 12.692 86.4182 13.6125 86.4182C14.4852 86.4182 15.0443 87.0727 15.0443 87.9591H12.0614ZM18.6273 91.1227C19.5409 91.1227 20.0182 90.6318 20.1818 90.2909H20.2227V91H21.0273V87.55C21.0273 85.8864 19.7591 85.6955 19.0909 85.6955C18.3 85.6955 17.4 85.9682 16.9909 86.9227L17.7545 87.1955C17.9318 86.8136 18.3511 86.4045 19.1182 86.4045C19.858 86.4045 20.2227 86.7966 20.2227 87.4682V87.4955C20.2227 87.8841 19.8273 87.85 18.8727 87.9727C17.9011 88.0989 16.8409 88.3136 16.8409 89.5136C16.8409 90.5364 17.6318 91.1227 18.6273 91.1227ZM18.75 90.4C18.1091 90.4 17.6455 90.1136 17.6455 89.5545C17.6455 88.9409 18.2045 88.75 18.8318 88.6682C19.1727 88.6273 20.0864 88.5318 20.2227 88.3682V89.1045C20.2227 89.7591 19.7045 90.4 18.75 90.4ZM24.773 85.7636H23.6548V84.5091H22.8503V85.7636H22.0594V86.4455H22.8503V89.7182C22.8503 90.6318 23.5866 91.0682 24.2685 91.0682C24.5685 91.0682 24.7594 91.0136 24.8685 90.9727L24.7048 90.25C24.6366 90.2636 24.5276 90.2909 24.3503 90.2909C23.9957 90.2909 23.6548 90.1818 23.6548 89.5V86.4455H24.773V85.7636ZM28.1224 91.1091C29.1861 91.1091 29.9634 90.5773 30.2088 89.7864L29.4315 89.5682C29.227 90.1136 28.7531 90.3864 28.1224 90.3864C27.1781 90.3864 26.527 89.7761 26.4895 88.6545H30.2906V88.3136C30.2906 86.3636 29.1315 85.6955 28.0406 85.6955C26.6224 85.6955 25.6815 86.8136 25.6815 88.4227C25.6815 90.0318 26.6088 91.1091 28.1224 91.1091ZM26.4895 87.9591C26.544 87.1443 27.1202 86.4182 28.0406 86.4182C28.9134 86.4182 29.4724 87.0727 29.4724 87.9591H26.4895ZM34.7327 92.9636C35.4588 92.9636 35.9702 92.5784 36.2736 91.7636L38.5031 85.7773L37.6236 85.7636L36.1781 89.9364H36.1236L34.6781 85.7636H33.8054L35.7418 91.0273L35.5918 91.4364C35.2986 92.2341 34.9372 92.3091 34.3509 92.1591L34.1463 92.8682C34.2281 92.9091 34.4599 92.9636 34.7327 92.9636ZM41.5074 91.1091C42.9256 91.1091 43.8801 90.0318 43.8801 88.4091C43.8801 86.7727 42.9256 85.6955 41.5074 85.6955C40.0892 85.6955 39.1347 86.7727 39.1347 88.4091C39.1347 90.0318 40.0892 91.1091 41.5074 91.1091ZM41.5074 90.3864C40.4301 90.3864 39.9392 89.4591 39.9392 88.4091C39.9392 87.3591 40.4301 86.4182 41.5074 86.4182C42.5847 86.4182 43.0756 87.3591 43.0756 88.4091C43.0756 89.4591 42.5847 90.3864 41.5074 90.3864ZM48.4082 88.8591C48.4082 89.8409 47.6582 90.2909 47.0582 90.2909C46.3901 90.2909 45.9128 89.8 45.9128 89.0364V85.7636H45.1082V89.0909C45.1082 90.4273 45.8173 91.0682 46.7991 91.0682C47.5901 91.0682 48.1082 90.6455 48.3537 90.1136H48.4082V91H49.2128V85.7636H48.4082V88.8591ZM50.6864 91H51.4909V87.6864C51.4909 86.9773 52.05 86.4591 52.8136 86.4591C53.0284 86.4591 53.25 86.5 53.3045 86.5136V85.6955C53.2125 85.6886 53.0011 85.6818 52.8818 85.6818C52.2545 85.6818 51.7091 86.0364 51.5182 86.5545H51.4636V85.7636H50.6864V91ZM59.2901 85.7636H58.1173V85.2318C58.1173 84.7136 58.3355 84.4409 58.8673 84.4409C59.0991 84.4409 59.2355 84.4955 59.3173 84.5227L59.5491 83.8273C59.4264 83.7727 59.181 83.6909 58.7855 83.6909C58.0355 83.6909 57.3128 84.1409 57.3128 85.0409V85.7636H56.4673V86.4455H57.3128V91H58.1173V86.4455H59.2901V85.7636ZM60.4176 91H61.2222V85.7636H60.4176V91ZM60.8267 84.8909C61.1403 84.8909 61.3994 84.6455 61.3994 84.3455C61.3994 84.0455 61.1403 83.8 60.8267 83.8C60.5131 83.8 60.254 84.0455 60.254 84.3455C60.254 84.6455 60.5131 84.8909 60.8267 84.8909ZM62.6957 91H63.5003V87.6864C63.5003 86.9773 64.0594 86.4591 64.823 86.4591C65.0378 86.4591 65.2594 86.5 65.3139 86.5136V85.6955C65.2219 85.6886 65.0105 85.6818 64.8912 85.6818C64.2639 85.6818 63.7185 86.0364 63.5276 86.5545H63.473V85.7636H62.6957V91ZM69.9767 86.9364C69.7244 86.1932 69.1585 85.6955 68.1222 85.6955C67.0176 85.6955 66.1994 86.3227 66.1994 87.2091C66.1994 87.9318 66.629 88.4159 67.5903 88.6409L68.4631 88.8455C68.9915 88.9682 69.2403 89.2205 69.2403 89.5818C69.2403 90.0318 68.7631 90.4 68.0131 90.4C67.3551 90.4 66.9426 90.117 66.7994 89.5545L66.0358 89.7455C66.2233 90.6352 66.9563 91.1091 68.0267 91.1091C69.2438 91.1091 70.0722 90.4443 70.0722 89.5409C70.0722 88.8114 69.6153 88.3511 68.6813 88.1227L67.904 87.9318C67.2835 87.7784 67.004 87.5705 67.004 87.1682C67.004 86.7182 67.4813 86.3909 68.1222 86.3909C68.8244 86.3909 69.1142 86.7795 69.254 87.1409L69.9767 86.9364ZM73.5605 85.7636H72.4423V84.5091H71.6378V85.7636H70.8469V86.4455H71.6378V89.7182C71.6378 90.6318 72.3741 91.0682 73.056 91.0682C73.356 91.0682 73.5469 91.0136 73.656 90.9727L73.4923 90.25C73.4241 90.2636 73.3151 90.2909 73.1378 90.2909C72.7832 90.2909 72.4423 90.1818 72.4423 89.5V86.4455H73.5605V85.7636ZM77.4707 91H78.2753V87.7273C78.2753 86.9602 78.8344 86.4182 79.4616 86.4182C80.0719 86.4182 80.498 86.817 80.498 87.4136V91H81.3162V87.5909C81.3162 86.9159 81.7389 86.4182 82.4753 86.4182C83.048 86.4182 83.5389 86.7216 83.5389 87.4955V91H84.3435V87.4955C84.3435 86.2648 83.6821 85.6955 82.748 85.6955C81.998 85.6955 81.4491 86.0398 81.1798 86.5818H81.1253C80.8662 86.0227 80.4094 85.6955 79.7207 85.6955C79.0389 85.6955 78.5344 86.0227 78.3162 86.5818H78.248V85.7636H77.4707V91ZM87.9418 91.1091C89.3599 91.1091 90.3145 90.0318 90.3145 88.4091C90.3145 86.7727 89.3599 85.6955 87.9418 85.6955C86.5236 85.6955 85.569 86.7727 85.569 88.4091C85.569 90.0318 86.5236 91.1091 87.9418 91.1091ZM87.9418 90.3864C86.8645 90.3864 86.3736 89.4591 86.3736 88.4091C86.3736 87.3591 86.8645 86.4182 87.9418 86.4182C89.019 86.4182 89.5099 87.3591 89.5099 88.4091C89.5099 89.4591 89.019 90.3864 87.9418 90.3864ZM93.5199 91.1091C94.529 91.1091 94.8699 90.4818 95.0472 90.1955H95.1426V91H95.9199V84.0182H95.1153V86.5955H95.0472C94.8699 86.3227 94.5563 85.6955 93.5335 85.6955C92.2108 85.6955 91.2972 86.7455 91.2972 88.3955C91.2972 90.0591 92.2108 91.1091 93.5199 91.1091ZM93.629 90.3864C92.6199 90.3864 92.1017 89.5 92.1017 88.3818C92.1017 87.2773 92.6063 86.4182 93.629 86.4182C94.6108 86.4182 95.129 87.2091 95.129 88.3818C95.129 89.5682 94.5972 90.3864 93.629 90.3864ZM99.7006 91.1091C100.764 91.1091 101.541 90.5773 101.787 89.7864L101.01 89.5682C100.805 90.1136 100.331 90.3864 99.7006 90.3864C98.7563 90.3864 98.1051 89.7761 98.0676 88.6545H101.869V88.3136C101.869 86.3636 100.71 85.6955 99.6188 85.6955C98.2006 85.6955 97.2597 86.8136 97.2597 88.4227C97.2597 90.0318 98.1869 91.1091 99.7006 91.1091ZM98.0676 87.9591C98.1222 87.1443 98.6983 86.4182 99.6188 86.4182C100.491 86.4182 101.051 87.0727 101.051 87.9591H98.0676ZM103.897 84.0182H103.093V91H103.897V84.0182Z" fill="#AEB8C2"/>
</svg>
