<svg width="241" height="202" viewBox="0 0 241 202" fill="none" xmlns="http://www.w3.org/2000/svg">
<path d="M226.245 201.654H14.7551C6.39388 201.654 0 195.26 0 186.899V41.8068C0 40.3313 0.983673 39.3477 2.45918 39.3477H238.541C240.016 39.3477 241 40.3313 241 41.8068V186.899C241 194.768 234.606 201.654 226.245 201.654ZM4.91837 44.266V186.899C4.91837 192.309 9.3449 196.735 14.7551 196.735H226.245C231.655 196.735 236.082 192.309 236.082 186.899V44.266H4.91837Z" fill="#E7E7E7"/>
<path d="M238.541 44.2653H2.45918C0.983673 44.2653 0 43.2816 0 41.8061V14.7551C0 6.39388 6.39388 0 14.7551 0H226.245C234.606 0 241 6.39388 241 14.7551V41.8061C241 43.2816 240.016 44.2653 238.541 44.2653ZM4.91837 39.3469H236.082V14.7551C236.082 9.3449 231.655 4.91837 226.245 4.91837H14.7551C9.3449 4.91837 4.91837 9.3449 4.91837 14.7551V39.3469Z" fill="#E7E7E7"/>
<path d="M24.5916 31.9703C19.1814 31.9703 14.7549 27.5438 14.7549 22.1336C14.7549 16.7234 19.1814 12.2969 24.5916 12.2969C30.0018 12.2969 34.4284 16.7234 34.4284 22.1336C34.4284 27.5438 30.0018 31.9703 24.5916 31.9703ZM24.5916 17.2152C21.6406 17.2152 19.6733 19.1826 19.6733 22.1336C19.6733 25.0846 21.6406 27.052 24.5916 27.052C27.5426 27.052 29.51 25.0846 29.51 22.1336C29.51 19.1826 27.5426 17.2152 24.5916 17.2152Z" fill="#E7E7E7"/>
<path d="M49.1839 31.9703C43.7737 31.9703 39.3472 27.5438 39.3472 22.1336C39.3472 16.7234 43.7737 12.2969 49.1839 12.2969C54.5941 12.2969 59.0206 16.7234 59.0206 22.1336C59.0206 27.5438 54.5941 31.9703 49.1839 31.9703ZM49.1839 17.2152C46.2329 17.2152 44.2655 19.1826 44.2655 22.1336C44.2655 25.0846 46.2329 27.052 49.1839 27.052C52.1349 27.052 54.1023 25.0846 54.1023 22.1336C54.1023 19.1826 52.1349 17.2152 49.1839 17.2152Z" fill="#E7E7E7"/>
<path d="M98.3671 127.877H83.612C82.1365 127.877 81.1528 126.894 81.1528 125.418V100.826C81.1528 99.3509 82.1365 98.3672 83.612 98.3672H98.3671C99.8426 98.3672 100.826 99.3509 100.826 100.826V125.418C100.826 126.894 99.8426 127.877 98.3671 127.877ZM86.0712 122.959H95.9079V103.286H86.0712V122.959Z" fill="#E7E7E7"/>
<path d="M157.388 127.877H142.633C141.157 127.877 140.173 126.893 140.173 125.417V86.0705C140.173 84.595 141.157 83.6113 142.633 83.6113H157.388C158.863 83.6113 159.847 84.595 159.847 86.0705V125.417C159.847 126.893 158.863 127.877 157.388 127.877ZM145.092 122.958H154.928V88.5297H145.092V122.958Z" fill="#E7E7E7"/>
<path d="M127.877 127.878H113.122C111.647 127.878 110.663 126.894 110.663 125.419V68.8576C110.663 67.3821 111.647 66.3984 113.122 66.3984H127.877C129.353 66.3984 130.337 67.3821 130.337 68.8576V125.419C130.337 126.894 129.353 127.878 127.877 127.878ZM115.581 122.96H125.418V71.3168H115.581V122.96Z" fill="#E7E7E7"/>
<path d="M157.388 167.225H83.612C82.1365 167.225 81.1528 166.241 81.1528 164.766C81.1528 163.29 82.1365 162.307 83.612 162.307H157.388C158.863 162.307 159.847 163.29 159.847 164.766C159.847 166.241 158.863 167.225 157.388 167.225Z" fill="#E7E7E7"/>
<path d="M157.388 152.469H83.612C82.1365 152.469 81.1528 151.485 81.1528 150.01C81.1528 148.534 82.1365 147.551 83.612 147.551H157.388C158.863 147.551 159.847 148.534 159.847 150.01C159.847 151.485 158.863 152.469 157.388 152.469Z" fill="#E7E7E7"/>
<path d="M59.0204 95.9078H29.5102C26.5591 95.9078 24.5918 93.9405 24.5918 90.9895V81.1527C24.5918 78.2017 26.5591 76.2344 29.5102 76.2344H59.0204C61.9714 76.2344 63.9387 78.2017 63.9387 81.1527V90.9895C63.9387 93.4487 61.9714 95.9078 59.0204 95.9078Z" fill="#E7E7E7" fill-opacity="0.2"/>
<path d="M59.0206 98.3672H29.5104C25.5757 98.3672 22.1328 94.9244 22.1328 90.9897V81.1529C22.1328 77.2182 25.5757 73.7754 29.5104 73.7754H59.0206C62.9553 73.7754 66.3981 77.2182 66.3981 81.1529V90.9897C66.3981 94.9244 63.4471 98.3672 59.0206 98.3672ZM29.5104 78.6938C28.0349 78.6938 27.0512 79.6774 27.0512 81.1529V90.9897C27.0512 92.4652 28.0349 93.4489 29.5104 93.4489H59.0206C60.4961 93.4489 61.4798 92.4652 61.4798 90.9897V81.1529C61.4798 79.6774 60.4961 78.6938 59.0206 78.6938H29.5104Z" fill="#E7E7E7"/>
<path d="M59.0204 130.336H29.5102C26.5591 130.336 24.5918 128.368 24.5918 125.417V115.58C24.5918 112.629 26.5591 110.662 29.5102 110.662H59.0204C61.9714 110.662 63.9387 112.629 63.9387 115.58V125.417C63.9387 127.876 61.9714 130.336 59.0204 130.336Z" fill="#E7E7E7" fill-opacity="0.1"/>
<path d="M59.0206 132.795H29.5104C25.5757 132.795 22.1328 129.352 22.1328 125.417V115.581C22.1328 111.646 25.5757 108.203 29.5104 108.203H59.0206C62.9553 108.203 66.3981 111.646 66.3981 115.581V125.417C66.3981 129.352 63.4471 132.795 59.0206 132.795ZM29.5104 113.121C28.0349 113.121 27.0512 114.105 27.0512 115.581V125.417C27.0512 126.893 28.0349 127.877 29.5104 127.877H59.0206C60.4961 127.877 61.4798 126.893 61.4798 125.417V115.581C61.4798 114.105 60.4961 113.121 59.0206 113.121H29.5104Z" fill="#E7E7E7"/>
<path d="M59.0204 164.765H29.5102C26.5591 164.765 24.5918 162.798 24.5918 159.847V150.01C24.5918 147.059 26.5591 145.092 29.5102 145.092H59.0204C61.9714 145.092 63.9387 147.059 63.9387 150.01V159.847C63.9387 162.306 61.9714 164.765 59.0204 164.765Z" fill="#E7E7E7" fill-opacity="0.5"/>
<path d="M59.0206 167.225H29.5104C25.5757 167.225 22.1328 163.782 22.1328 159.847V150.01C22.1328 146.076 25.5757 142.633 29.5104 142.633H59.0206C62.9553 142.633 66.3981 146.076 66.3981 150.01V159.847C66.3981 163.782 63.4471 167.225 59.0206 167.225ZM29.5104 147.551C28.0349 147.551 27.0512 148.535 27.0512 150.01V159.847C27.0512 161.323 28.0349 162.306 29.5104 162.306H59.0206C60.4961 162.306 61.4798 161.323 61.4798 159.847V150.01C61.4798 148.535 60.4961 147.551 59.0206 147.551H29.5104Z" fill="#E7E7E7"/>
<path d="M196.735 105.745C207.6 105.745 216.408 96.9373 216.408 86.0719C216.408 75.2065 207.6 66.3984 196.735 66.3984C185.87 66.3984 177.062 75.2065 177.062 86.0719C177.062 96.9373 185.87 105.745 196.735 105.745Z" fill="#E7E7E7" fill-opacity="0.1"/>
<path d="M196.735 108.205C184.439 108.205 174.602 98.368 174.602 86.0721C174.602 73.7762 184.439 63.9395 196.735 63.9395C209.031 63.9395 218.867 73.7762 218.867 86.0721C218.867 98.368 209.031 108.205 196.735 108.205ZM196.735 68.8578C187.39 68.8578 179.52 76.7272 179.52 86.0721C179.52 95.417 187.39 103.286 196.735 103.286C206.08 103.286 213.949 95.417 213.949 86.0721C213.949 76.7272 206.571 68.8578 196.735 68.8578Z" fill="#E7E7E7"/>
<path d="M216.408 88.5313H196.735C195.259 88.5313 194.275 87.5476 194.275 86.0721V66.3986C194.275 64.9231 195.259 63.9395 196.735 63.9395C198.21 63.9395 199.194 64.9231 199.194 66.3986V83.6129H216.408C217.884 83.6129 218.867 84.5966 218.867 86.0721C218.867 87.5476 217.884 88.5313 216.408 88.5313Z" fill="#E7E7E7"/>
<path d="M216.408 167.224H177.061C175.586 167.224 174.602 166.241 174.602 164.765V125.418C174.602 123.943 175.586 122.959 177.061 122.959C178.537 122.959 179.52 123.943 179.52 125.418V162.306H216.408C217.884 162.306 218.867 163.29 218.867 164.765C218.867 166.241 217.884 167.224 216.408 167.224Z" fill="#E7E7E7"/>
<path d="M177.062 167.225C176.57 167.225 175.587 167.225 175.095 166.733C174.111 165.749 174.111 164.273 175.095 163.29L214.442 123.943C215.425 122.959 216.901 122.959 217.884 123.943C218.868 124.927 218.868 126.402 217.884 127.386L178.538 166.733C178.538 166.733 178.046 167.225 177.062 167.225Z" fill="#E7E7E7"/>
</svg>
