<svg width="94" height="98" viewBox="0 0 94 98" fill="none" xmlns="http://www.w3.org/2000/svg">
<g opacity="0.3">
<path d="M78.7561 72.76C78.2339 72.76 77.8857 72.4119 77.8857 71.8897V30.1135C77.8857 29.5913 78.2339 29.2432 78.7561 29.2432C79.2783 29.2432 79.6264 29.5913 79.6264 30.1135V71.8897C79.6264 72.4119 79.2783 72.76 78.7561 72.76Z" fill="#919EAB"/>
<path d="M11.7402 25.7621C17.5083 25.7621 22.1842 21.0861 22.1842 15.3181C22.1842 9.54998 17.5083 4.87402 11.7402 4.87402C5.9721 4.87402 1.29614 9.54998 1.29614 15.3181C1.29614 21.0861 5.9721 25.7621 11.7402 25.7621Z" fill="#BADAFF"/>
<path d="M11.7402 26.6327C5.47373 26.6327 0.425781 21.5847 0.425781 15.3183C0.425781 9.05186 5.47373 4.00391 11.7402 4.00391C18.0066 4.00391 23.0545 9.05186 23.0545 15.3183C23.0545 21.5847 18.0066 26.6327 11.7402 26.6327ZM11.7402 5.74458C6.51814 5.74458 2.16645 10.0963 2.16645 15.3183C2.16645 20.5403 6.51814 24.892 11.7402 24.892C16.9622 24.892 21.3139 20.5403 21.3139 15.3183C21.3139 10.0963 16.9622 5.74458 11.7402 5.74458Z" fill="#919EAB" fill-opacity="0.89"/>
<path d="M11.7402 60.5756C17.5083 60.5756 22.1842 55.8996 22.1842 50.1315C22.1842 44.3635 17.5083 39.6875 11.7402 39.6875C5.9721 39.6875 1.29614 44.3635 1.29614 50.1315C1.29614 55.8996 5.9721 60.5756 11.7402 60.5756Z" fill="#B9DAFF"/>
<path d="M11.7402 61.4461C5.47373 61.4461 0.425781 56.3982 0.425781 50.1318C0.425781 43.8653 5.47373 38.8174 11.7402 38.8174C18.0066 38.8174 23.0545 43.8653 23.0545 50.1318C23.0545 56.3982 18.0066 61.4461 11.7402 61.4461ZM11.7402 40.5581C6.51814 40.5581 2.16645 44.9097 2.16645 50.1318C2.16645 55.3538 6.51814 59.7055 11.7402 59.7055C16.9622 59.7055 21.3139 55.3538 21.3139 50.1318C21.3139 44.9097 16.9622 40.5581 11.7402 40.5581Z" fill="#0076FF" fill-opacity="0.59"/>
<path d="M11.7402 96.2596C5.47373 96.2596 0.425781 91.2117 0.425781 84.9452C0.425781 78.6788 5.47373 73.6309 11.7402 73.6309C18.0066 73.6309 23.0545 78.6788 23.0545 84.9452C23.0545 91.2117 18.0066 96.2596 11.7402 96.2596ZM11.7402 75.3715C6.51814 75.3715 2.16645 79.7232 2.16645 84.9452C2.16645 90.1673 6.51814 94.5189 11.7402 94.5189C16.9622 94.5189 21.3139 90.1673 21.3139 84.9452C21.3139 79.7232 16.9622 75.3715 11.7402 75.3715Z" fill="#96C5FC"/>
<path d="M62.2197 16.1889H27.4062C26.884 16.1889 26.5359 15.8408 26.5359 15.3186C26.5359 14.7964 26.884 14.4482 27.4062 14.4482H62.2197C62.7419 14.4482 63.09 14.7964 63.09 15.3186C63.09 15.8408 62.7419 16.1889 62.2197 16.1889Z" fill="#919EAB"/>
<path d="M44.813 85.8159H27.4062C26.884 85.8159 26.5359 85.4677 26.5359 84.9455C26.5359 84.4233 26.884 84.0752 27.4062 84.0752H43.9426V15.3186C43.9426 14.7964 44.2908 14.4482 44.813 14.4482C45.3352 14.4482 45.6833 14.7964 45.6833 15.3186V84.9455C45.6833 85.4677 45.3352 85.8159 44.813 85.8159Z" fill="#919EAB"/>
<path d="M44.813 51.0024H27.4062C26.884 51.0024 26.5359 50.6543 26.5359 50.1321C26.5359 49.6099 26.884 49.2617 27.4062 49.2617H44.813C45.3352 49.2617 45.6833 49.6099 45.6833 50.1321C45.6833 50.6543 45.3352 51.0024 44.813 51.0024Z" fill="#919EAB"/>
<path d="M78.7562 97.9998C85.9663 97.9998 91.8113 92.1548 91.8113 84.9447C91.8113 77.7346 85.9663 71.8896 78.7562 71.8896C71.5461 71.8896 65.7012 77.7346 65.7012 84.9447C65.7012 92.1548 71.5461 97.9998 78.7562 97.9998Z" fill="#919EAB"/>
<path d="M78.7562 63.1863C85.9663 63.1863 91.8113 57.3413 91.8113 50.1312C91.8113 42.9211 85.9663 37.0762 78.7562 37.0762C71.5461 37.0762 65.7012 42.9211 65.7012 50.1312C65.7012 57.3413 71.5461 63.1863 78.7562 63.1863Z" fill="white"/>
<path d="M78.756 64.0568C71.097 64.0568 64.8306 57.7904 64.8306 50.1314C64.8306 42.4725 71.097 36.2061 78.756 36.2061C86.4149 36.2061 92.6813 42.4725 92.6813 50.1314C92.6813 57.7904 86.4149 64.0568 78.756 64.0568ZM78.756 37.9467C71.9673 37.9467 66.5712 43.3428 66.5712 50.1314C66.5712 56.9201 71.9673 62.3162 78.756 62.3162C85.5446 62.3162 90.9407 56.9201 90.9407 50.1314C90.9407 43.3428 85.3705 37.9467 78.756 37.9467Z" fill="#919EAB"/>
<path d="M76.3193 89.8184C76.1452 89.8184 75.7971 89.8185 75.623 89.6444L70.7491 84.7706C70.401 84.4225 70.401 83.9002 70.7491 83.552C71.0973 83.2039 71.6195 83.2039 71.9676 83.552L76.3193 87.9037L84.8486 79.3744C85.1967 79.0262 85.7189 79.0262 86.067 79.3744C86.4152 79.7225 86.4152 80.2448 86.067 80.593L76.8415 89.8184C76.6674 89.8184 76.4934 89.8184 76.3193 89.8184Z" fill="white"/>
<path d="M78.7561 51.0017H70.0527C69.5305 51.0017 69.1824 50.6535 69.1824 50.1313C69.1824 49.6091 69.5305 49.261 70.0527 49.261H77.8857V41.428C77.8857 40.9058 78.2339 40.5576 78.7561 40.5576C79.2783 40.5576 79.6264 40.9058 79.6264 41.428V50.1313C79.6264 50.6535 79.2783 51.0017 78.7561 51.0017Z" fill="#919EAB"/>
<path d="M80.3229 30.9841H77.1897C75.9712 30.9841 74.9268 30.1136 74.5787 28.8951L74.2305 27.3287C72.838 26.8065 71.6194 26.1101 70.575 25.2398L69.0085 25.7621C67.79 26.1102 66.5716 25.5879 65.8753 24.5435L64.3086 21.9324C63.6124 20.888 63.9605 19.4957 64.8308 18.6253L66.0493 17.5808C65.8752 16.8845 65.8753 16.1883 65.8753 15.492C65.8753 14.7958 65.8752 14.0996 66.0493 13.4033L64.8308 12.3587C63.9605 11.4884 63.6124 10.096 64.3086 9.05163L65.8753 6.44062C66.5716 5.39621 67.79 4.87389 69.0085 5.22202L70.575 5.74431C71.6194 4.87397 73.012 4.00351 74.2305 3.65537L74.5787 2.08894C74.7527 0.870464 75.9712 0 77.1897 0H80.3229C81.5413 0 82.5857 0.870464 82.9339 2.08894L83.282 3.65537C84.6746 4.17757 85.893 4.87397 86.9374 5.74431L88.504 5.22202C89.7225 4.87389 90.941 5.39621 91.6372 6.44062L93.2038 9.05163C93.9 10.096 93.5519 11.4884 92.6816 12.3587L91.4631 13.4033C91.6372 14.0996 91.6372 14.7958 91.6372 15.492C91.6372 16.1883 91.6372 16.8845 91.4631 17.5808L92.6816 18.6253C93.5519 19.4957 93.9 20.888 93.2038 21.9324L91.6372 24.5435C90.941 25.5879 89.7225 26.1102 88.504 25.7621L86.9374 25.2398C85.893 26.1101 84.5005 26.9806 83.282 27.3287L82.9339 28.8951C82.5857 30.1136 81.5413 30.9841 80.3229 30.9841ZM70.7491 23.151C70.9232 23.151 71.0973 23.151 71.2713 23.3251C72.4898 24.3695 73.8824 25.2398 75.449 25.7621C75.7971 25.9361 76.1452 26.2843 76.1452 26.6324V27.1545L76.4933 28.5471C76.4933 28.8952 77.0156 29.2434 77.3637 29.2434H80.4969C80.845 29.2434 81.1931 28.8952 81.3672 28.5471L81.7154 26.9804V26.6324C81.7154 26.2843 81.8895 25.9361 82.4117 25.7621C83.9783 25.2398 85.3708 24.5435 86.5892 23.3251C86.9374 23.151 87.2856 22.977 87.6337 23.151L88.1559 23.4991L89.5484 24.0214C89.8965 24.1954 90.4187 24.0213 90.5928 23.6731L92.1594 21.0621C92.3335 20.714 92.3335 20.1918 91.9854 20.0177L90.7669 18.9734L90.4187 18.7994C90.0706 18.6253 89.8965 18.2772 90.0706 17.929C90.2446 17.0587 90.4187 16.3624 90.4187 15.492C90.4187 14.6217 90.2446 13.9254 90.0706 13.0551C90.0706 12.7069 90.0706 12.3588 90.4187 12.1847L90.9409 11.8367L91.9854 10.9663C92.3335 10.6182 92.3335 10.2701 92.1594 9.92197L90.5928 7.31096C90.4187 6.96282 89.8965 6.78863 89.5484 6.96269L87.9818 7.48498L87.6337 7.65901C87.2856 7.83307 86.9374 7.83312 86.5892 7.48498C85.3708 6.44058 83.9783 5.5702 82.4117 5.048C82.0635 4.87393 81.7154 4.52579 81.7154 4.17766V3.65537L81.3672 2.26296C81.3672 1.91483 80.845 1.56665 80.4969 1.56665H77.3637C77.0156 1.56665 76.6674 1.91483 76.4933 2.26296L76.1452 3.82961V4.17766C76.1452 4.52579 75.9712 4.87393 75.449 5.048C73.8824 5.5702 72.4898 6.26651 71.2713 7.48498C70.9232 7.65905 70.5751 7.83307 70.227 7.65901L69.7047 7.31096L68.3122 6.78867C67.964 6.6146 67.4419 6.78858 67.2678 7.13672L65.7012 9.74773C65.5271 10.0959 65.5271 10.6182 65.8753 10.7923L67.0937 11.8367L67.4418 12.0107C67.79 12.1848 67.964 12.5329 67.79 12.881C67.6159 13.7514 67.4418 14.4477 67.4418 15.318C67.4418 16.1883 67.6159 16.8847 67.79 17.755C67.79 18.1031 67.79 18.4513 67.4418 18.6253L66.9196 18.9734L65.8753 19.8437C65.5271 20.1919 65.5271 20.5399 65.7012 20.8881L67.2678 23.4991C67.4419 23.8472 67.964 24.0214 68.3122 23.8474L69.8788 23.3251L70.227 23.151C70.401 23.151 70.5751 23.151 70.7491 23.151ZM78.7562 22.2807C74.9267 22.2807 71.7935 19.1475 71.7935 15.318C71.7935 11.4885 74.9267 8.35532 78.7562 8.35532C82.5857 8.35532 85.7189 11.4885 85.7189 15.318C85.7189 19.1475 82.5857 22.2807 78.7562 22.2807ZM78.7562 10.096C75.7971 10.096 73.5342 12.3589 73.5342 15.318C73.5342 18.2772 75.7971 20.54 78.7562 20.54C81.7153 20.54 83.9782 18.2772 83.9782 15.318C83.9782 12.3589 81.7153 10.096 78.7562 10.096Z" fill="#919EAB"/>
</g>
</svg>
