<svg width="121" height="86" viewBox="0 0 121 86" fill="none" xmlns="http://www.w3.org/2000/svg">
<path d="M82 25.5H66C65.4 25.5 65 25.1 65 24.5V14.5C65 13.9 65.4 13.5 66 13.5H82C82.6 13.5 83 13.9 83 14.5V24.5C83 25 82.6 25.5 82 25.5Z" fill="#C7E1FF"/>
<path d="M82 26H66C65.2 26 64.5 25.3 64.5 24.5V14.5C64.5 13.7 65.2 13 66 13H82C82.8 13 83.5 13.7 83.5 14.5V24.5C83.5 25.3 82.9 26 82 26ZM66 14C65.7 14 65.5 14.2 65.5 14.5V24.5C65.5 24.8 65.7 25 66 25H82C82.3 25 82.5 24.8 82.5 24.5V14.5C82.5 14.2 82.3 14 82 14H66Z" fill="#919EAB"/>
<path d="M71.3 22.4999C71.2 22.4999 71 22.4998 70.9 22.3998L68.4 19.8998C68.2 19.6998 68.2 19.3998 68.4 19.1998L70.9 16.6998C71.1 16.4998 71.4 16.4998 71.6 16.6998C71.8 16.8998 71.8 17.1998 71.6 17.3998L69.5 19.4999L71.6 21.5998C71.8 21.7998 71.8 22.0998 71.6 22.2998C71.5 22.3998 71.4 22.4999 71.3 22.4999Z" fill="white"/>
<path d="M76.8 22.4999C76.7 22.4999 76.5 22.4999 76.4 22.3999C76.2 22.1999 76.2 21.8999 76.4 21.6999L78.5 19.5999L76.4 17.4999C76.2 17.2999 76.2 16.9999 76.4 16.7999C76.6 16.5999 76.9 16.5999 77.1 16.7999L79.6 19.2999C79.8 19.4999 79.8 19.7999 79.6 19.9999L77.1 22.4999C77 22.3999 76.9 22.4999 76.8 22.4999Z" fill="white"/>
<path d="M72.7999 22.9999C72.6999 22.9999 72.7 22.9999 72.6 22.9999C72.3 22.8999 72.1999 22.5999 72.2999 22.2999L74.7999 16.2999C74.8999 15.9999 75.2 15.8999 75.5 15.9999C75.8 16.0999 75.8999 16.3999 75.7999 16.6999L73.2999 22.6999C73.1999 22.8999 72.9999 22.9999 72.7999 22.9999Z" fill="white"/>
<path d="M58 15H43C42.7 15 42.5 14.8 42.5 14.5C42.5 14.2 42.7 14 43 14H58C58.3 14 58.5 14.2 58.5 14.5C58.5 14.8 58.3 15 58 15Z" fill="#919EAB"/>
<path d="M58 18H43C42.7 18 42.5 17.8 42.5 17.5C42.5 17.2 42.7 17 43 17H58C58.3 17 58.5 17.2 58.5 17.5C58.5 17.8 58.3 18 58 18Z" fill="#919EAB"/>
<path d="M50.5 23H43C42.7 23 42.5 22.8 42.5 22.5C42.5 22.2 42.7 22 43 22H50.5C50.8 22 51 22.2 51 22.5C51 22.8 50.8 23 50.5 23Z" fill="#919EAB"/>
<path d="M58 26H43C42.7 26 42.5 25.8 42.5 25.5C42.5 25.2 42.7 25 43 25H58C58.3 25 58.5 25.2 58.5 25.5C58.5 25.8 58.3 26 58 26Z" fill="#919EAB"/>
<path d="M58 29H43C42.7 29 42.5 28.8 42.5 28.5C42.5 28.2 42.7 28 43 28H58C58.3 28 58.5 28.2 58.5 28.5C58.5 28.8 58.3 29 58 29Z" fill="#919EAB"/>
<path d="M50.5 34H43C42.7 34 42.5 33.8 42.5 33.5C42.5 33.2 42.7 33 43 33H50.5C50.8 33 51 33.2 51 33.5C51 33.8 50.8 34 50.5 34Z" fill="#919EAB"/>
<path d="M66 46H40.5C38.8 46 37.5 44.7 37.5 43V5.5C37.5 5.2 37.7 5 38 5H74C74.3 5 74.5 5.2 74.5 5.5V11.5C74.5 11.8 74.3 12 74 12C73.7 12 73.5 11.8 73.5 11.5V6H38.5V43C38.5 44.1 39.4 45 40.5 45H66C66.3 45 66.5 45.2 66.5 45.5C66.5 45.8 66.3 46 66 46Z" fill="#919EAB"/>
<path d="M74 5.5H38V3C38 1.6 39.1 0.5 40.5 0.5H71.5C72.9 0.5 74 1.6 74 3V5.5Z" fill="#0076FF" fill-opacity="0.29"/>
<path d="M74 6H38C37.7 6 37.5 5.8 37.5 5.5V3C37.5 1.3 38.8 0 40.5 0H71.5C73.2 0 74.5 1.3 74.5 3V5.5C74.5 5.8 74.3 6 74 6ZM38.5 5H73.5V3C73.5 1.9 72.6 1 71.5 1H40.5C39.4 1 38.5 1.9 38.5 3V5Z" fill="#919EAB"/>
<path d="M80.7002 39.5C80.8002 39 80.9002 38.5 80.9002 38C80.9002 37.5 80.8002 37 80.7002 36.5L81.0002 36.3L81.7002 35.7C82.1002 35.4 82.1002 34.9 81.9002 34.4L81.0002 32.9C80.8002 32.5 80.3002 32.3 79.8002 32.5L78.9002 32.8L78.6002 33C77.9002 32.3 77.0002 31.8 76.0002 31.5V31.2L75.8002 30.3C75.7002 29.8 75.3002 29.5 74.8002 29.5H73.0002C72.5002 29.5 72.1002 29.8 72.0002 30.3L71.8002 31.2V31.5C70.8002 31.8 70.0002 32.3 69.2002 33L68.9002 32.8L68.0002 32.5C67.5002 32.3 67.1002 32.5 66.8002 32.9L65.9002 34.4C65.7002 34.8 65.7002 35.3 66.1002 35.7L66.8002 36.3L67.1002 36.5C67.0002 37 66.9002 37.5 66.9002 38C66.9002 38.5 67.0002 39 67.1002 39.5L66.8002 39.7L66.1002 40.3C65.7002 40.6 65.7002 41.1 65.9002 41.6L66.8002 43.1C67.0002 43.5 67.5002 43.7 68.0002 43.5L68.9002 43.2L69.2002 43C69.9002 43.7 70.8002 44.2 71.8002 44.5V44.8L72.0002 45.7C72.1002 46.2 72.5002 46.5 73.0002 46.5H74.8002C75.3002 46.5 75.7002 46.2 75.8002 45.7L76.0002 44.8V44.5C77.0002 44.2 77.8002 43.7 78.6002 43L78.9002 43.2L79.8002 43.5C80.3002 43.7 80.7002 43.5 81.0002 43.1L81.9002 41.6C82.1002 41.2 82.1002 40.7 81.7002 40.3L81.0002 39.7L80.7002 39.5ZM74.1002 41.5C72.2002 41.5 70.6002 39.9 70.6002 38C70.6002 36.1 72.2002 34.5 74.1002 34.5C76.0002 34.5 77.6002 36.1 77.6002 38C77.6002 39.9 76.0002 41.5 74.1002 41.5Z" fill="#BBDBFF"/>
<path d="M74.9001 47H73.1001C72.4001 47 71.8001 46.5 71.6001 45.8L71.4001 44.9C70.6001 44.6 69.9001 44.2 69.3001 43.7L68.4001 44C67.7001 44.2 67.0001 43.9 66.6001 43.3L65.7001 41.8C65.3001 41.2 65.5001 40.4 66.0001 39.9L66.7001 39.3C66.6001 38.9 66.6001 38.5 66.6001 38.1C66.6001 37.7 66.6001 37.3 66.7001 36.9L66.0001 36.3C65.5001 35.8 65.3001 35 65.7001 34.4L66.6001 32.9C67.0001 32.3 67.7001 32 68.4001 32.2L69.3001 32.5C70.0001 32 70.7001 31.5 71.4001 31.3L71.6001 30.4C71.7001 29.7 72.4001 29.2 73.1001 29.2H74.9001C75.6001 29.2 76.2001 29.7 76.4001 30.4L76.6001 31.3C77.4001 31.6 78.1001 32 78.7001 32.5L79.6001 32.2C80.3001 32 81.0001 32.3 81.4001 32.9L82.3001 34.4C82.7001 35 82.5001 35.8 82.0001 36.3L81.3001 36.9C81.4001 37.3 81.4001 37.7 81.4001 38.1C81.4001 38.5 81.4001 38.9 81.3001 39.3L82.0001 39.9C82.5001 40.4 82.7001 41.2 82.3001 41.8L81.4001 43.3C81.0001 43.9 80.3001 44.2 79.6001 44L78.7001 43.7C78.1001 44.2 77.3001 44.7 76.6001 44.9L76.4001 45.8C76.3001 46.5 75.6001 47 74.9001 47ZM69.4001 42.5C69.5001 42.5 69.6001 42.5 69.7001 42.6C70.4001 43.2 71.2001 43.7 72.1001 44C72.3001 44.1 72.5001 44.3 72.5001 44.5V44.8L72.7001 45.6C72.7001 45.8 73.0001 46 73.2001 46H75.0001C75.2001 46 75.4001 45.8 75.5001 45.6L75.7001 44.7V44.5C75.7001 44.3 75.8001 44.1 76.1001 44C77.0001 43.7 77.8001 43.3 78.5001 42.6C78.7001 42.5 78.9001 42.4 79.1001 42.5L79.4001 42.7L80.2001 43C80.4001 43.1 80.7001 43 80.8001 42.8L81.7001 41.3C81.8001 41.1 81.8001 40.8 81.6001 40.7L80.9001 40.1L80.7001 40C80.5001 39.9 80.4001 39.7 80.5001 39.5C80.6001 39 80.7001 38.6 80.7001 38.1C80.7001 37.6 80.6001 37.2 80.5001 36.7C80.5001 36.5 80.5001 36.3 80.7001 36.2L81.0001 36L81.6001 35.5C81.8001 35.3 81.8001 35.1 81.7001 34.9L80.8001 33.4C80.7001 33.2 80.4001 33.1 80.2001 33.2L79.3001 33.5L79.1001 33.6C78.9001 33.7 78.7001 33.7 78.5001 33.5C77.8001 32.9 77.0001 32.4 76.1001 32.1C75.9001 32 75.7001 31.8 75.7001 31.6V31.3L75.5001 30.5C75.5001 30.3 75.2001 30.1 75.0001 30.1H73.2001C73.0001 30.1 72.8001 30.3 72.7001 30.5L72.5001 31.4V31.6C72.5001 31.8 72.4001 32 72.1001 32.1C71.2001 32.4 70.4001 32.8 69.7001 33.5C69.5001 33.6 69.3001 33.7 69.1001 33.6L68.8001 33.4L68.0001 33.1C67.8001 33 67.5001 33.1 67.4001 33.3L66.5001 34.8C66.4001 35 66.4001 35.3 66.6001 35.4L67.3001 36L67.5001 36.1C67.7001 36.2 67.8001 36.4 67.7001 36.6C67.6001 37.1 67.5001 37.5 67.5001 38C67.5001 38.5 67.6001 38.9 67.7001 39.4C67.7001 39.6 67.7001 39.8 67.5001 39.9L67.2001 40.1L66.6001 40.6C66.4001 40.8 66.4001 41 66.5001 41.2L67.4001 42.7C67.5001 42.9 67.8001 43 68.0001 42.9L68.9001 42.6L69.1001 42.5C69.2001 42.5 69.3001 42.5 69.4001 42.5ZM74.1001 42C71.9001 42 70.1001 40.2 70.1001 38C70.1001 35.8 71.9001 34 74.1001 34C76.3001 34 78.1001 35.8 78.1001 38C78.1001 40.2 76.3001 42 74.1001 42ZM74.1001 35C72.4001 35 71.1001 36.3 71.1001 38C71.1001 39.7 72.4001 41 74.1001 41C75.8001 41 77.1001 39.7 77.1001 38C77.1001 36.3 75.7001 35 74.1001 35Z" fill="#919EAB"/>
<path d="M32.5152 64.0182H31.2572V68.7773H31.1959L27.9095 64.0182H26.7777V71H28.0425V66.2443H28.1004L31.3902 71H32.5152V64.0182ZM36.1229 71.1023C37.657 71.1023 38.632 70.0216 38.632 68.4023C38.632 66.7795 37.657 65.6955 36.1229 65.6955C34.5888 65.6955 33.6138 66.7795 33.6138 68.4023C33.6138 70.0216 34.5888 71.1023 36.1229 71.1023ZM36.1297 70.1136C35.2808 70.1136 34.8649 69.3568 34.8649 68.3989C34.8649 67.4409 35.2808 66.6739 36.1297 66.6739C36.9649 66.6739 37.3808 67.4409 37.3808 68.3989C37.3808 69.3568 36.9649 70.1136 36.1297 70.1136ZM47.8527 64.0182H46.5947V68.7773H46.5334L43.247 64.0182H42.1152V71H43.38V66.2443H43.4379L46.7277 71H47.8527V64.0182ZM51.4604 71.1023C52.9945 71.1023 53.9695 70.0216 53.9695 68.4023C53.9695 66.7795 52.9945 65.6955 51.4604 65.6955C49.9263 65.6955 48.9513 66.7795 48.9513 68.4023C48.9513 70.0216 49.9263 71.1023 51.4604 71.1023ZM51.4672 70.1136C50.6183 70.1136 50.2024 69.3568 50.2024 68.3989C50.2024 67.4409 50.6183 66.6739 51.4672 66.6739C52.3024 66.6739 52.7183 67.4409 52.7183 68.3989C52.7183 69.3568 52.3024 70.1136 51.4672 70.1136ZM57.6317 65.7636H56.5987V64.5091H55.3646V65.7636H54.6214V66.7182H55.3646V69.6295C55.3578 70.6148 56.0737 71.0989 57.001 71.0716C57.3521 71.0614 57.5942 70.9932 57.7271 70.9489L57.5192 69.9841C57.451 70.0011 57.3112 70.0318 57.1578 70.0318C56.8476 70.0318 56.5987 69.9227 56.5987 69.425V66.7182H57.6317V65.7636ZM60.9257 71.1023C62.1462 71.1023 62.9848 70.5057 63.203 69.5955L62.0507 69.4659C61.8837 69.9091 61.4746 70.1409 60.9428 70.1409C60.145 70.1409 59.6166 69.6159 59.6064 68.7193H63.2541V68.3409C63.2541 66.5034 62.1496 65.6955 60.8609 65.6955C59.3609 65.6955 58.3825 66.7966 58.3825 68.4125C58.3825 70.0557 59.3473 71.1023 60.9257 71.1023ZM59.6098 67.8875C59.6473 67.2193 60.1416 66.6568 60.878 66.6568C61.5871 66.6568 62.0643 67.175 62.0712 67.8875H59.6098ZM64.3527 71H65.5663V70.175H65.6379C65.8322 70.5568 66.2379 71.092 67.1379 71.092C68.372 71.092 69.2959 70.1136 69.2959 68.3886C69.2959 66.6432 68.3447 65.6955 67.1345 65.6955C66.2107 65.6955 65.8254 66.2511 65.6379 66.6295H65.5868V64.0182H64.3527V71ZM65.5629 68.3818C65.5629 67.3659 65.9993 66.708 66.7936 66.708C67.6152 66.708 68.0379 67.4068 68.0379 68.3818C68.0379 69.3636 67.6084 70.0795 66.7936 70.0795C66.0061 70.0795 65.5629 69.3977 65.5629 68.3818ZM72.6291 71.1023C74.1632 71.1023 75.1382 70.0216 75.1382 68.4023C75.1382 66.7795 74.1632 65.6955 72.6291 65.6955C71.095 65.6955 70.12 66.7795 70.12 68.4023C70.12 70.0216 71.095 71.1023 72.6291 71.1023ZM72.6359 70.1136C71.7871 70.1136 71.3712 69.3568 71.3712 68.3989C71.3712 67.4409 71.7871 66.6739 72.6359 66.6739C73.4712 66.6739 73.8871 67.4409 73.8871 68.3989C73.8871 69.3568 73.4712 70.1136 72.6359 70.1136ZM78.4697 71.1023C80.0038 71.1023 80.9788 70.0216 80.9788 68.4023C80.9788 66.7795 80.0038 65.6955 78.4697 65.6955C76.9357 65.6955 75.9607 66.7795 75.9607 68.4023C75.9607 70.0216 76.9357 71.1023 78.4697 71.1023ZM78.4766 70.1136C77.6277 70.1136 77.2118 69.3568 77.2118 68.3989C77.2118 67.4409 77.6277 66.6739 78.4766 66.6739C79.3118 66.6739 79.7277 67.4409 79.7277 68.3989C79.7277 69.3568 79.3118 70.1136 78.4766 70.1136ZM82.0263 71H83.2604V69.2409L83.7104 68.7602L85.3126 71H86.7888L84.6411 68.0239L86.6695 65.7636H85.2274L83.3456 67.867H83.2604V64.0182H82.0263V71ZM91.6305 67.1477C91.4601 66.2614 90.751 65.6955 89.5237 65.6955C88.2624 65.6955 87.4033 66.3159 87.4067 67.2841C87.4033 68.0477 87.8737 68.5523 88.8794 68.7602L89.7726 68.9477C90.2533 69.0534 90.4783 69.2477 90.4783 69.5443C90.4783 69.9023 90.0896 70.1716 89.5033 70.1716C88.9374 70.1716 88.5692 69.9261 88.4635 69.4557L87.2601 69.5716C87.4135 70.533 88.2215 71.1023 89.5067 71.1023C90.8158 71.1023 91.7396 70.4239 91.743 69.4318C91.7396 68.6852 91.259 68.2284 90.2703 68.0136L89.3771 67.8227C88.8453 67.7034 88.634 67.5193 88.6374 67.2159C88.634 66.8614 89.026 66.6159 89.5408 66.6159C90.1101 66.6159 90.4101 66.9261 90.5055 67.2705L91.6305 67.1477ZM93.5209 71.075C93.9232 71.075 94.2675 70.7409 94.2709 70.325C94.2675 69.9159 93.9232 69.5818 93.5209 69.5818C93.105 69.5818 92.7675 69.9159 92.7709 70.325C92.7675 70.7409 93.105 71.075 93.5209 71.075ZM6.47145 78.2C6.21236 76.7682 5.0669 75.9227 3.66236 75.9227C1.87599 75.9227 0.58054 77.3 0.58054 79.5091C0.58054 81.7182 1.87599 83.0955 3.66236 83.0955C5.0669 83.0955 6.21236 82.25 6.47145 80.8182H5.62599C5.42145 81.7864 4.58963 82.3045 3.66236 82.3045C2.39418 82.3045 1.39872 81.3227 1.39872 79.5091C1.39872 77.6955 2.39418 76.7136 3.66236 76.7136C4.58963 76.7136 5.42145 77.2318 5.62599 78.2H6.47145ZM7.72855 83H8.5331V79.6864C8.5331 78.9773 9.09219 78.4591 9.85582 78.4591C10.0706 78.4591 10.2922 78.5 10.3467 78.5136V77.6955C10.2547 77.6886 10.0433 77.6818 9.92401 77.6818C9.29673 77.6818 8.75128 78.0364 8.56037 78.5545H8.50582V77.7636H7.72855V83ZM13.3365 83.1091C14.4001 83.1091 15.1774 82.5773 15.4229 81.7864L14.6456 81.5682C14.4411 82.1136 13.9672 82.3864 13.3365 82.3864C12.3922 82.3864 11.7411 81.7761 11.7036 80.6545H15.5047V80.3136C15.5047 78.3636 14.3456 77.6955 13.2547 77.6955C11.8365 77.6955 10.8956 78.8136 10.8956 80.4227C10.8956 82.0318 11.8229 83.1091 13.3365 83.1091ZM11.7036 79.9591C11.7581 79.1443 12.3342 78.4182 13.2547 78.4182C14.1274 78.4182 14.6865 79.0727 14.6865 79.9591H11.7036ZM18.2695 83.1227C19.1831 83.1227 19.6604 82.6318 19.824 82.2909H19.8649V83H20.6695V79.55C20.6695 77.8864 19.4013 77.6955 18.7331 77.6955C17.9422 77.6955 17.0422 77.9682 16.6331 78.9227L17.3967 79.1955C17.574 78.8136 17.9933 78.4045 18.7604 78.4045C19.5001 78.4045 19.8649 78.7966 19.8649 79.4682V79.4955C19.8649 79.8841 19.4695 79.85 18.5149 79.9727C17.5433 80.0989 16.4831 80.3136 16.4831 81.5136C16.4831 82.5364 17.274 83.1227 18.2695 83.1227ZM18.3922 82.4C17.7513 82.4 17.2876 82.1136 17.2876 81.5545C17.2876 80.9409 17.8467 80.75 18.474 80.6682C18.8149 80.6273 19.7286 80.5318 19.8649 80.3682V81.1045C19.8649 81.7591 19.3467 82.4 18.3922 82.4ZM24.4152 77.7636H23.297V76.5091H22.4925V77.7636H21.7016V78.4455H22.4925V81.7182C22.4925 82.6318 23.2288 83.0682 23.9107 83.0682C24.2107 83.0682 24.4016 83.0136 24.5107 82.9727L24.347 82.25C24.2788 82.2636 24.1697 82.2909 23.9925 82.2909C23.6379 82.2909 23.297 82.1818 23.297 81.5V78.4455H24.4152V77.7636ZM27.7646 83.1091C28.8283 83.1091 29.6055 82.5773 29.851 81.7864L29.0737 81.5682C28.8692 82.1136 28.3953 82.3864 27.7646 82.3864C26.8203 82.3864 26.1692 81.7761 26.1317 80.6545H29.9328V80.3136C29.9328 78.3636 28.7737 77.6955 27.6828 77.6955C26.2646 77.6955 25.3237 78.8136 25.3237 80.4227C25.3237 82.0318 26.251 83.1091 27.7646 83.1091ZM26.1317 79.9591C26.1862 79.1443 26.7624 78.4182 27.6828 78.4182C28.5555 78.4182 29.1146 79.0727 29.1146 79.9591H26.1317ZM34.3749 84.9636C35.101 84.9636 35.6124 84.5784 35.9158 83.7636L38.1453 77.7773L37.2658 77.7636L35.8203 81.9364H35.7658L34.3203 77.7636H33.4476L35.384 83.0273L35.234 83.4364C34.9408 84.2341 34.5794 84.3091 33.993 84.1591L33.7885 84.8682C33.8703 84.9091 34.1021 84.9636 34.3749 84.9636ZM41.1496 83.1091C42.5678 83.1091 43.5223 82.0318 43.5223 80.4091C43.5223 78.7727 42.5678 77.6955 41.1496 77.6955C39.7314 77.6955 38.7768 78.7727 38.7768 80.4091C38.7768 82.0318 39.7314 83.1091 41.1496 83.1091ZM41.1496 82.3864C40.0723 82.3864 39.5814 81.4591 39.5814 80.4091C39.5814 79.3591 40.0723 78.4182 41.1496 78.4182C42.2268 78.4182 42.7178 79.3591 42.7178 80.4091C42.7178 81.4591 42.2268 82.3864 41.1496 82.3864ZM48.0504 80.8591C48.0504 81.8409 47.3004 82.2909 46.7004 82.2909C46.0322 82.2909 45.555 81.8 45.555 81.0364V77.7636H44.7504V81.0909C44.7504 82.4273 45.4595 83.0682 46.4413 83.0682C47.2322 83.0682 47.7504 82.6455 47.9959 82.1136H48.0504V83H48.855V77.7636H48.0504V80.8591ZM50.3286 83H51.1331V79.6864C51.1331 78.9773 51.6922 78.4591 52.4558 78.4591C52.6706 78.4591 52.8922 78.5 52.9467 78.5136V77.6955C52.8547 77.6886 52.6433 77.6818 52.524 77.6818C51.8967 77.6818 51.3513 78.0364 51.1604 78.5545H51.1058V77.7636H50.3286V83ZM58.9322 77.7636H57.7595V77.2318C57.7595 76.7136 57.9777 76.4409 58.5095 76.4409C58.7413 76.4409 58.8777 76.4955 58.9595 76.5227L59.1913 75.8273C59.0686 75.7727 58.8232 75.6909 58.4277 75.6909C57.6777 75.6909 56.955 76.1409 56.955 77.0409V77.7636H56.1095V78.4455H56.955V83H57.7595V78.4455H58.9322V77.7636ZM60.0598 83H60.8643V77.7636H60.0598V83ZM60.4689 76.8909C60.7825 76.8909 61.0416 76.6455 61.0416 76.3455C61.0416 76.0455 60.7825 75.8 60.4689 75.8C60.1553 75.8 59.8962 76.0455 59.8962 76.3455C59.8962 76.6455 60.1553 76.8909 60.4689 76.8909ZM62.3379 83H63.1425V79.6864C63.1425 78.9773 63.7016 78.4591 64.4652 78.4591C64.68 78.4591 64.9016 78.5 64.9561 78.5136V77.6955C64.8641 77.6886 64.6527 77.6818 64.5334 77.6818C63.9061 77.6818 63.3607 78.0364 63.1697 78.5545H63.1152V77.7636H62.3379V83ZM69.6189 78.9364C69.3666 78.1932 68.8007 77.6955 67.7643 77.6955C66.6598 77.6955 65.8416 78.3227 65.8416 79.2091C65.8416 79.9318 66.2712 80.4159 67.2325 80.6409L68.1053 80.8455C68.6337 80.9682 68.8825 81.2205 68.8825 81.5818C68.8825 82.0318 68.4053 82.4 67.6553 82.4C66.9973 82.4 66.5848 82.117 66.4416 81.5545L65.678 81.7455C65.8655 82.6352 66.5984 83.1091 67.6689 83.1091C68.8859 83.1091 69.7143 82.4443 69.7143 81.5409C69.7143 80.8114 69.2575 80.3511 68.3234 80.1227L67.5462 79.9318C66.9257 79.7784 66.6462 79.5705 66.6462 79.1682C66.6462 78.7182 67.1234 78.3909 67.7643 78.3909C68.4666 78.3909 68.7564 78.7795 68.8962 79.1409L69.6189 78.9364ZM73.2027 77.7636H72.0845V76.5091H71.28V77.7636H70.4891V78.4455H71.28V81.7182C71.28 82.6318 72.0163 83.0682 72.6982 83.0682C72.9982 83.0682 73.1891 83.0136 73.2982 82.9727L73.1345 82.25C73.0663 82.2636 72.9572 82.2909 72.78 82.2909C72.4254 82.2909 72.0845 82.1818 72.0845 81.5V78.4455H73.2027V77.7636ZM82.7584 76.0182H81.9266V81.5136H81.8584L78.0402 76.0182H77.222V83H78.0675V77.5182H78.1357L81.9402 83H82.7584V76.0182ZM86.4683 83.1091C87.8865 83.1091 88.8411 82.0318 88.8411 80.4091C88.8411 78.7727 87.8865 77.6955 86.4683 77.6955C85.0501 77.6955 84.0956 78.7727 84.0956 80.4091C84.0956 82.0318 85.0501 83.1091 86.4683 83.1091ZM86.4683 82.3864C85.3911 82.3864 84.9001 81.4591 84.9001 80.4091C84.9001 79.3591 85.3911 78.4182 86.4683 78.4182C87.5456 78.4182 88.0365 79.3591 88.0365 80.4091C88.0365 81.4591 87.5456 82.3864 86.4683 82.3864ZM92.3465 77.7636H91.2283V76.5091H90.4237V77.7636H89.6328V78.4455H90.4237V81.7182C90.4237 82.6318 91.1601 83.0682 91.8419 83.0682C92.1419 83.0682 92.3328 83.0136 92.4419 82.9727L92.2783 82.25C92.2101 82.2636 92.101 82.2909 91.9237 82.2909C91.5692 82.2909 91.2283 82.1818 91.2283 81.5V78.4455H92.3465V77.7636ZM95.6959 83.1091C96.7595 83.1091 97.5368 82.5773 97.7823 81.7864L97.005 81.5682C96.8004 82.1136 96.3266 82.3864 95.6959 82.3864C94.7516 82.3864 94.1004 81.7761 94.0629 80.6545H97.8641V80.3136C97.8641 78.3636 96.705 77.6955 95.6141 77.6955C94.1959 77.6955 93.255 78.8136 93.255 80.4227C93.255 82.0318 94.1823 83.1091 95.6959 83.1091ZM94.0629 79.9591C94.1175 79.1443 94.6936 78.4182 95.6141 78.4182C96.4868 78.4182 97.0459 79.0727 97.0459 79.9591H94.0629ZM99.197 83H99.9743V82.1955H100.07C100.247 82.4818 100.588 83.1091 101.597 83.1091C102.906 83.1091 103.82 82.0591 103.82 80.3955C103.82 78.7455 102.906 77.6955 101.583 77.6955C100.561 77.6955 100.247 78.3227 100.07 78.5955H100.002V76.0182H99.197V83ZM99.9879 80.3818C99.9879 79.2091 100.506 78.4182 101.488 78.4182C102.511 78.4182 103.015 79.2773 103.015 80.3818C103.015 81.5 102.497 82.3864 101.488 82.3864C100.52 82.3864 99.9879 81.5682 99.9879 80.3818ZM107.178 83.1091C108.596 83.1091 109.55 82.0318 109.55 80.4091C109.55 78.7727 108.596 77.6955 107.178 77.6955C105.76 77.6955 104.805 78.7727 104.805 80.4091C104.805 82.0318 105.76 83.1091 107.178 83.1091ZM107.178 82.3864C106.1 82.3864 105.61 81.4591 105.61 80.4091C105.61 79.3591 106.1 78.4182 107.178 78.4182C108.255 78.4182 108.746 79.3591 108.746 80.4091C108.746 81.4591 108.255 82.3864 107.178 82.3864ZM112.906 83.1091C114.324 83.1091 115.279 82.0318 115.279 80.4091C115.279 78.7727 114.324 77.6955 112.906 77.6955C111.488 77.6955 110.533 78.7727 110.533 80.4091C110.533 82.0318 111.488 83.1091 112.906 83.1091ZM112.906 82.3864C111.829 82.3864 111.338 81.4591 111.338 80.4091C111.338 79.3591 111.829 78.4182 112.906 78.4182C113.983 78.4182 114.474 79.3591 114.474 80.4091C114.474 81.4591 113.983 82.3864 112.906 82.3864ZM116.507 83H117.311V81.0398L117.874 80.5182L119.834 83H120.857L118.481 80L120.693 77.7636H119.698L117.407 80.0955H117.311V76.0182H116.507V83Z" fill="#AEB8C2"/>
</svg>
