<svg width="91" height="94" viewBox="0 0 91 94" fill="none" xmlns="http://www.w3.org/2000/svg">
<path d="M57.5 26H33.5C33.2 26 33 25.8 33 25.5C33 25.2 33.2 25 33.5 25H57.5C57.8 25 58 25.2 58 25.5C58 25.8 57.8 26 57.5 26Z" fill="#919EAB"/>
<path d="M54.5 31H33.5C33.2 31 33 30.8 33 30.5C33 30.2 33.2 30 33.5 30H54.5C54.8 30 55 30.2 55 30.5C55 30.8 54.8 31 54.5 31Z" fill="#919EAB"/>
<path d="M42.5 36H33.5C33.2 36 33 35.8 33 35.5C33 35.2 33.2 35 33.5 35H42.5C42.8 35 43 35.2 43 35.5C43 35.8 42.8 36 42.5 36Z" fill="#919EAB"/>
<path d="M32.5 5.5H27.5V10.5H32.5V5.5Z" fill="#0076FF" fill-opacity="0.3"/>
<path d="M32.5 11H27.5C27.2 11 27 10.8 27 10.5V5.5C27 5.2 27.2 5 27.5 5H32.5C32.8 5 33 5.2 33 5.5V10.5C33 10.8 32.8 11 32.5 11ZM28 10H32V6H28V10Z" fill="#919EAB"/>
<path d="M40 11H35V16H40V11Z" fill="#0076FF" fill-opacity="0.3"/>
<path d="M40 16.5H35C34.7 16.5 34.5 16.3 34.5 16V11C34.5 10.7 34.7 10.5 35 10.5H40C40.3 10.5 40.5 10.7 40.5 11V16C40.5 16.3 40.3 16.5 40 16.5ZM35.5 15.5H39.5V11.5H35.5V15.5Z" fill="#919EAB"/>
<path d="M42.5 3H37.5V8H42.5V3Z" fill="#0076FF" fill-opacity="0.1"/>
<path d="M42.5 8.5H37.5C37.2 8.5 37 8.3 37 8V3C37 2.7 37.2 2.5 37.5 2.5H42.5C42.8 2.5 43 2.7 43 3V8C43 8.3 42.8 8.5 42.5 8.5ZM38 7.5H42V3.5H38V7.5Z" fill="#919EAB"/>
<path d="M50 0.5H45V5.5H50V0.5Z" fill="#0076FF" fill-opacity="0.1"/>
<path d="M50 6H45C44.7 6 44.5 5.8 44.5 5.5V0.5C44.5 0.2 44.7 0 45 0H50C50.3 0 50.5 0.2 50.5 0.5V5.5C50.5 5.8 50.3 6 50 6ZM45.5 5H49.5V1H45.5V5Z" fill="#919EAB"/>
<path d="M56 7.5H49V14.5H56V7.5Z" fill="#0076FF" fill-opacity="0.6"/>
<path d="M56 15H49C48.7 15 48.5 14.8 48.5 14.5V7.5C48.5 7.2 48.7 7 49 7H56C56.3 7 56.5 7.2 56.5 7.5V14.5C56.5 14.8 56.3 15 56 15ZM49.5 14H55.5V8H49.5V14Z" fill="#919EAB"/>
<path d="M65.5 4.5H58.5V11.5H65.5V4.5Z" fill="#0076FF" fill-opacity="0.6"/>
<path d="M65.5 12H58.5C58.2 12 58 11.8 58 11.5V4.5C58 4.2 58.2 4 58.5 4H65.5C65.8 4 66 4.2 66 4.5V11.5C66 11.8 65.8 12 65.5 12ZM59 11H65V5H59V11Z" fill="#919EAB"/>
<path d="M63 54.5H28C26.3 54.5 25 53.2 25 51.5V13C25 12.7 25.2 12.5 25.5 12.5H32.5C32.8 12.5 33 12.7 33 13V18H42V13C42 12.7 42.2 12.5 42.5 12.5H46.5C46.8 12.5 47 12.7 47 13V16.5H58V14C58 13.7 58.2 13.5 58.5 13.5H65.5C65.8 13.5 66 13.7 66 14V51.5C66 53.2 64.7 54.5 63 54.5ZM26 13.5V51.5C26 52.6 26.9 53.5 28 53.5H63C64.1 53.5 65 52.6 65 51.5V14.5H59V17C59 17.3 58.8 17.5 58.5 17.5H46.5C46.2 17.5 46 17.3 46 17V13.5H43V18.5C43 18.8 42.8 19 42.5 19H32.5C32.2 19 32 18.8 32 18.5V13.5H26Z" fill="#919EAB"/>
<path d="M40.5 44.4216H32.5C31.9 44.4216 31.5 44.211 31.5 43.8953V41.79C31.5 41.4742 31.9 41.2637 32.5 41.2637H40.5C41.1 41.2637 41.5 41.4742 41.5 41.79V43.8953C41.5 44.211 41.1 44.4216 40.5 44.4216Z" fill="white"/>
<path d="M40.5 44.6842H32.5C31.7 44.6842 31 44.3158 31 43.8947V41.7895C31 41.3684 31.7 41 32.5 41H40.5C41.3 41 42 41.3684 42 41.7895V43.8947C42 44.3684 41.4 44.6842 40.5 44.6842ZM32.5 41.5263C32.2 41.5263 32 41.6316 32 41.7895V43.8947C32 44.0526 32.2 44.1579 32.5 44.1579H40.5C40.8 44.1579 41 44.0526 41 43.8947V41.7895C41 41.6316 40.8 41.5263 40.5 41.5263H32.5Z" fill="#919EAB"/>
<path d="M50.5005 44.4216H42.5005C41.9005 44.4216 41.5005 44.211 41.5005 43.8953V41.79C41.5005 41.4742 41.9005 41.2637 42.5005 41.2637H50.5005C51.1005 41.2637 51.5005 41.4742 51.5005 41.79V43.8953C51.5005 44.211 51.1005 44.4216 50.5005 44.4216Z" fill="white"/>
<path d="M50.5002 44.6842H42.5002C41.7002 44.6842 41.0002 44.3158 41.0002 43.8947V41.7895C41.0002 41.3684 41.7002 41 42.5002 41H50.5002C51.3002 41 52.0002 41.3684 52.0002 41.7895V43.8947C52.0002 44.3684 51.4002 44.6842 50.5002 44.6842ZM42.5002 41.5263C42.2002 41.5263 42.0002 41.6316 42.0002 41.7895V43.8947C42.0002 44.0526 42.2002 44.1579 42.5002 44.1579H50.5002C50.8002 44.1579 51.0002 44.0526 51.0002 43.8947V41.7895C51.0002 41.6316 50.8002 41.5263 50.5002 41.5263H42.5002Z" fill="#919EAB"/>
<path d="M60.4995 44.4216H52.4995C51.8995 44.4216 51.4995 44.211 51.4995 43.8953V41.79C51.4995 41.4742 51.8995 41.2637 52.4995 41.2637H60.4995C61.0995 41.2637 61.4995 41.4742 61.4995 41.79V43.8953C61.4995 44.211 61.0995 44.4216 60.4995 44.4216Z" fill="white"/>
<path d="M60.5002 44.6842H52.5002C51.7002 44.6842 51.0002 44.3158 51.0002 43.8947V41.7895C51.0002 41.3684 51.7002 41 52.5002 41H60.5002C61.3002 41 62.0002 41.3684 62.0002 41.7895V43.8947C62.0002 44.3684 61.4002 44.6842 60.5002 44.6842ZM52.5002 41.5263C52.2002 41.5263 52.0002 41.6316 52.0002 41.7895V43.8947C52.0002 44.0526 52.2002 44.1579 52.5002 44.1579H60.5002C60.8002 44.1579 61.0002 44.0526 61.0002 43.8947V41.7895C61.0002 41.6316 60.8002 41.5263 60.5002 41.5263H52.5002Z" fill="#919EAB"/>
<path d="M40.5 47.8422H32.5C31.7 47.8422 31 47.4737 31 47.0527V44.9474C31 44.5264 31.7 44.158 32.5 44.158H40.5C41.3 44.158 42 44.5264 42 44.9474V47.0527C42 47.5264 41.4 47.8422 40.5 47.8422ZM32.5 44.6843C32.2 44.6843 32 44.7895 32 44.9474V47.0527C32 47.2106 32.2 47.3159 32.5 47.3159H40.5C40.8 47.3159 41 47.2106 41 47.0527V44.9474C41 44.7895 40.8 44.6843 40.5 44.6843H32.5Z" fill="#919EAB"/>
<path d="M50.5005 47.5798H42.5005C41.9005 47.5798 41.5005 47.3692 41.5005 47.0535V44.9482C41.5005 44.6324 41.9005 44.4219 42.5005 44.4219H50.5005C51.1005 44.4219 51.5005 44.6324 51.5005 44.9482V47.0535C51.5005 47.3692 51.1005 47.5798 50.5005 47.5798Z" fill="white"/>
<path d="M50.5002 47.8424H42.5002C41.7002 47.8424 41.0002 47.474 41.0002 47.0529V44.9477C41.0002 44.5266 41.7002 44.1582 42.5002 44.1582H50.5002C51.3002 44.1582 52.0002 44.5266 52.0002 44.9477V47.0529C52.0002 47.5266 51.4002 47.8424 50.5002 47.8424ZM42.5002 44.6845C42.2002 44.6845 42.0002 44.7898 42.0002 44.9477V47.0529C42.0002 47.2108 42.2002 47.3161 42.5002 47.3161H50.5002C50.8002 47.3161 51.0002 47.2108 51.0002 47.0529V44.9477C51.0002 44.7898 50.8002 44.6845 50.5002 44.6845H42.5002Z" fill="#919EAB"/>
<path d="M60.5002 47.8424H52.5002C51.7002 47.8424 51.0002 47.474 51.0002 47.0529V44.9477C51.0002 44.5266 51.7002 44.1582 52.5002 44.1582H60.5002C61.3002 44.1582 62.0002 44.5266 62.0002 44.9477V47.0529C62.0002 47.5266 61.4002 47.8424 60.5002 47.8424ZM52.5002 44.6845C52.2002 44.6845 52.0002 44.7898 52.0002 44.9477V47.0529C52.0002 47.2108 52.2002 47.3161 52.5002 47.3161H60.5002C60.8002 47.3161 61.0002 47.2108 61.0002 47.0529V44.9477C61.0002 44.7898 60.8002 44.6845 60.5002 44.6845H52.5002Z" fill="#919EAB"/>
<path d="M40.5 50.7353H32.5C31.9 50.7353 31.5 50.5248 31.5 50.209V48.1037C31.5 47.7879 31.9 47.5774 32.5 47.5774H40.5C41.1 47.5774 41.5 47.7879 41.5 48.1037V50.209C41.5 50.5248 41.1 50.7353 40.5 50.7353Z" fill="white"/>
<path d="M40.5 50.9999H32.5C31.7 50.9999 31 50.6315 31 50.2104V48.1051C31 47.6841 31.7 47.3157 32.5 47.3157H40.5C41.3 47.3157 42 47.6841 42 48.1051V50.2104C42 50.6841 41.4 50.9999 40.5 50.9999ZM32.5 47.842C32.2 47.842 32 47.9473 32 48.1051V50.2104C32 50.3683 32.2 50.4736 32.5 50.4736H40.5C40.8 50.4736 41 50.3683 41 50.2104V48.1051C41 47.9473 40.8 47.842 40.5 47.842H32.5Z" fill="#919EAB"/>
<path d="M50.5005 50.736H42.5005C41.9005 50.736 41.5005 50.5255 41.5005 50.2097V48.1044C41.5005 47.7887 41.9005 47.5781 42.5005 47.5781H50.5005C51.1005 47.5781 51.5005 47.7887 51.5005 48.1044V50.2097C51.5005 50.5255 51.1005 50.736 50.5005 50.736Z" fill="white"/>
<path d="M50.5002 51.0006H42.5002C41.7002 51.0006 41.0002 50.6322 41.0002 50.2111V48.1059C41.0002 47.6848 41.7002 47.3164 42.5002 47.3164H50.5002C51.3002 47.3164 52.0002 47.6848 52.0002 48.1059V50.2111C52.0002 50.6848 51.4002 51.0006 50.5002 51.0006ZM42.5002 47.8427C42.2002 47.8427 42.0002 47.948 42.0002 48.1059V50.2111C42.0002 50.369 42.2002 50.4743 42.5002 50.4743H50.5002C50.8002 50.4743 51.0002 50.369 51.0002 50.2111V48.1059C51.0002 47.948 50.8002 47.8427 50.5002 47.8427H42.5002Z" fill="#919EAB"/>
<path d="M60.4995 50.736H52.4995C51.8995 50.736 51.4995 50.5255 51.4995 50.2097V48.1044C51.4995 47.7887 51.8995 47.5781 52.4995 47.5781H60.4995C61.0995 47.5781 61.4995 47.7887 61.4995 48.1044V50.2097C61.4995 50.5255 61.0995 50.736 60.4995 50.736Z" fill="white"/>
<path d="M60.5002 51.0006H52.5002C51.7002 51.0006 51.0002 50.6322 51.0002 50.2111V48.1059C51.0002 47.6848 51.7002 47.3164 52.5002 47.3164H60.5002C61.3002 47.3164 62.0002 47.6848 62.0002 48.1059V50.2111C62.0002 50.6848 61.4002 51.0006 60.5002 51.0006ZM52.5002 47.8427C52.2002 47.8427 52.0002 47.948 52.0002 48.1059V50.2111C52.0002 50.369 52.2002 50.4743 52.5002 50.4743H60.5002C60.8002 50.4743 61.0002 50.369 61.0002 50.2111V48.1059C61.0002 47.948 60.8002 47.8427 60.5002 47.8427H52.5002Z" fill="#919EAB"/>
<path d="M25.4652 71.5182H24.2072V76.2773H24.1459L20.8595 71.5182H19.7277V78.5H20.9925V73.7443H21.0504L24.3402 78.5H25.4652V71.5182ZM29.0729 78.6023C30.607 78.6023 31.582 77.5216 31.582 75.9023C31.582 74.2795 30.607 73.1955 29.0729 73.1955C27.5388 73.1955 26.5638 74.2795 26.5638 75.9023C26.5638 77.5216 27.5388 78.6023 29.0729 78.6023ZM29.0797 77.6136C28.2308 77.6136 27.8149 76.8568 27.8149 75.8989C27.8149 74.9409 28.2308 74.1739 29.0797 74.1739C29.9149 74.1739 30.3308 74.9409 30.3308 75.8989C30.3308 76.8568 29.9149 77.6136 29.0797 77.6136ZM39.7391 80.4636V73.2636H38.5254V74.1295H38.4538C38.2663 73.7511 37.8811 73.1955 36.9572 73.1955C35.747 73.1955 34.7959 74.1432 34.7959 75.8886C34.7959 77.6136 35.7197 78.592 36.9538 78.592C37.8538 78.592 38.2595 78.0568 38.4538 77.675H38.505V80.4636H39.7391ZM38.5288 75.8818C38.5288 76.8977 38.0857 77.5795 37.2982 77.5795C36.4834 77.5795 36.0538 76.8636 36.0538 75.8818C36.0538 74.9068 36.4766 74.208 37.2982 74.208C38.0925 74.208 38.5288 74.8659 38.5288 75.8818ZM44.3482 76.2977C44.3482 77.0955 43.7788 77.4909 43.2334 77.4909C42.6402 77.4909 42.2447 77.0716 42.2447 76.4068V73.2636H41.0107V76.5977C41.0107 77.8557 41.7266 78.5682 42.7561 78.5682C43.5402 78.5682 44.0925 78.1557 44.3311 77.5693H44.3857V78.5H45.5822V73.2636H44.3482V76.2977ZM49.1695 78.6023C50.3899 78.6023 51.2285 78.0057 51.4467 77.0955L50.2945 76.9659C50.1274 77.4091 49.7183 77.6409 49.1865 77.6409C48.3888 77.6409 47.8604 77.1159 47.8501 76.2193H51.4979V75.8409C51.4979 74.0034 50.3933 73.1955 49.1047 73.1955C47.6047 73.1955 46.6263 74.2966 46.6263 75.9125C46.6263 77.5557 47.591 78.6023 49.1695 78.6023ZM47.8535 75.3875C47.891 74.7193 48.3854 74.1568 49.1217 74.1568C49.8308 74.1568 50.3081 74.675 50.3149 75.3875H47.8535ZM52.5419 78.5H53.776V75.4216C53.776 74.7568 54.2771 74.2864 54.9555 74.2864C55.1635 74.2864 55.4226 74.3239 55.5283 74.358V73.2227C55.4158 73.2023 55.2215 73.1886 55.0851 73.1886C54.4851 73.1886 53.984 73.5295 53.793 74.1364H53.7385V73.2636H52.5419V78.5ZM56.3482 78.5H57.5822V73.2636H56.3482V78.5ZM56.9686 72.5205C57.3607 72.5205 57.6811 72.2205 57.6811 71.8523C57.6811 71.4807 57.3607 71.1807 56.9686 71.1807C56.5732 71.1807 56.2527 71.4807 56.2527 71.8523C56.2527 72.2205 56.5732 72.5205 56.9686 72.5205ZM61.1695 78.6023C62.3899 78.6023 63.2285 78.0057 63.4467 77.0955L62.2945 76.9659C62.1274 77.4091 61.7183 77.6409 61.1865 77.6409C60.3888 77.6409 59.8604 77.1159 59.8501 76.2193H63.4979V75.8409C63.4979 74.0034 62.3933 73.1955 61.1047 73.1955C59.6047 73.1955 58.6263 74.2966 58.6263 75.9125C58.6263 77.5557 59.591 78.6023 61.1695 78.6023ZM59.8535 75.3875C59.891 74.7193 60.3854 74.1568 61.1217 74.1568C61.8308 74.1568 62.3081 74.675 62.3149 75.3875H59.8535ZM68.6805 74.6477C68.5101 73.7614 67.801 73.1955 66.5737 73.1955C65.3124 73.1955 64.4533 73.8159 64.4567 74.7841C64.4533 75.5477 64.9237 76.0523 65.9294 76.2602L66.8226 76.4477C67.3033 76.5534 67.5283 76.7477 67.5283 77.0443C67.5283 77.4023 67.1396 77.6716 66.5533 77.6716C65.9874 77.6716 65.6192 77.4261 65.5135 76.9557L64.3101 77.0716C64.4635 78.033 65.2715 78.6023 66.5567 78.6023C67.8658 78.6023 68.7896 77.9239 68.793 76.9318C68.7896 76.1852 68.309 75.7284 67.3203 75.5136L66.4271 75.3227C65.8953 75.2034 65.684 75.0193 65.6874 74.7159C65.684 74.3614 66.076 74.1159 66.5908 74.1159C67.1601 74.1159 67.4601 74.4261 67.5555 74.7705L68.6805 74.6477ZM70.5709 78.575C70.9732 78.575 71.3175 78.2409 71.3209 77.825C71.3175 77.4159 70.9732 77.0818 70.5709 77.0818C70.155 77.0818 69.8175 77.4159 69.8209 77.825C69.8175 78.2409 70.155 78.575 70.5709 78.575ZM1.39744 90.5L2.09972 88.5227H4.92244L5.62472 90.5H6.51108L3.94744 83.5182H3.07472L0.51108 90.5H1.39744ZM2.36563 87.7727L3.48381 84.6227H3.53835L4.65653 87.7727H2.36563ZM9.46676 90.6091C10.4759 90.6091 10.8168 89.9818 10.994 89.6955H11.0895V90.5H11.8668V83.5182H11.0622V86.0955H10.994C10.8168 85.8227 10.5031 85.1955 9.4804 85.1955C8.15767 85.1955 7.24403 86.2455 7.24403 87.8955C7.24403 89.5591 8.15767 90.6091 9.46676 90.6091ZM9.57585 89.8864C8.56676 89.8864 8.04858 89 8.04858 87.8818C8.04858 86.7773 8.55313 85.9182 9.57585 85.9182C10.5577 85.9182 11.0759 86.7091 11.0759 87.8818C11.0759 89.0682 10.544 89.8864 9.57585 89.8864ZM15.4293 90.6091C16.4384 90.6091 16.7793 89.9818 16.9565 89.6955H17.052V90.5H17.8293V83.5182H17.0247V86.0955H16.9565C16.7793 85.8227 16.4656 85.1955 15.4429 85.1955C14.1202 85.1955 13.2065 86.2455 13.2065 87.8955C13.2065 89.5591 14.1202 90.6091 15.4293 90.6091ZM15.5384 89.8864C14.5293 89.8864 14.0111 89 14.0111 87.8818C14.0111 86.7773 14.5156 85.9182 15.5384 85.9182C16.5202 85.9182 17.0384 86.7091 17.0384 87.8818C17.0384 89.0682 16.5065 89.8864 15.5384 89.8864ZM22.6327 92.4636C23.3588 92.4636 23.8702 92.0784 24.1736 91.2636L26.4031 85.2773L25.5236 85.2636L24.0781 89.4364H24.0236L22.5781 85.2636H21.7054L23.6418 90.5273L23.4918 90.9364C23.1986 91.7341 22.8372 91.8091 22.2509 91.6591L22.0463 92.3682C22.1281 92.4091 22.3599 92.4636 22.6327 92.4636ZM29.4074 90.6091C30.8256 90.6091 31.7801 89.5318 31.7801 87.9091C31.7801 86.2727 30.8256 85.1955 29.4074 85.1955C27.9892 85.1955 27.0347 86.2727 27.0347 87.9091C27.0347 89.5318 27.9892 90.6091 29.4074 90.6091ZM29.4074 89.8864C28.3301 89.8864 27.8392 88.9591 27.8392 87.9091C27.8392 86.8591 28.3301 85.9182 29.4074 85.9182C30.4847 85.9182 30.9756 86.8591 30.9756 87.9091C30.9756 88.9591 30.4847 89.8864 29.4074 89.8864ZM36.3082 88.3591C36.3082 89.3409 35.5582 89.7909 34.9582 89.7909C34.2901 89.7909 33.8128 89.3 33.8128 88.5364V85.2636H33.0082V88.5909C33.0082 89.9273 33.7173 90.5682 34.6992 90.5682C35.4901 90.5682 36.0082 90.1455 36.2537 89.6136H36.3082V90.5H37.1128V85.2636H36.3082V88.3591ZM38.5864 90.5H39.3909V87.1864C39.3909 86.4773 39.95 85.9591 40.7136 85.9591C40.9284 85.9591 41.15 86 41.2045 86.0136V85.1955C41.1125 85.1886 40.9011 85.1818 40.7818 85.1818C40.1545 85.1818 39.6091 85.5364 39.4182 86.0545H39.3636V85.2636H38.5864V90.5ZM47.1901 85.2636H46.0173V84.7318C46.0173 84.2136 46.2355 83.9409 46.7673 83.9409C46.9991 83.9409 47.1355 83.9955 47.2173 84.0227L47.4491 83.3273C47.3264 83.2727 47.081 83.1909 46.6855 83.1909C45.9355 83.1909 45.2128 83.6409 45.2128 84.5409V85.2636H44.3673V85.9455H45.2128V90.5H46.0173V85.9455H47.1901V85.2636ZM48.3176 90.5H49.1222V85.2636H48.3176V90.5ZM48.7267 84.3909C49.0403 84.3909 49.2994 84.1455 49.2994 83.8455C49.2994 83.5455 49.0403 83.3 48.7267 83.3C48.4131 83.3 48.154 83.5455 48.154 83.8455C48.154 84.1455 48.4131 84.3909 48.7267 84.3909ZM50.5957 90.5H51.4003V87.1864C51.4003 86.4773 51.9594 85.9591 52.723 85.9591C52.9378 85.9591 53.1594 86 53.2139 86.0136V85.1955C53.1219 85.1886 52.9105 85.1818 52.7912 85.1818C52.1639 85.1818 51.6185 85.5364 51.4276 86.0545H51.373V85.2636H50.5957V90.5ZM57.8767 86.4364C57.6244 85.6932 57.0585 85.1955 56.0222 85.1955C54.9176 85.1955 54.0994 85.8227 54.0994 86.7091C54.0994 87.4318 54.529 87.9159 55.4903 88.1409L56.3631 88.3455C56.8915 88.4682 57.1403 88.7205 57.1403 89.0818C57.1403 89.5318 56.6631 89.9 55.9131 89.9C55.2551 89.9 54.8426 89.617 54.6994 89.0545L53.9358 89.2455C54.1233 90.1352 54.8563 90.6091 55.9267 90.6091C57.1438 90.6091 57.9722 89.9443 57.9722 89.0409C57.9722 88.3114 57.5153 87.8511 56.5813 87.6227L55.804 87.4318C55.1835 87.2784 54.904 87.0705 54.904 86.6682C54.904 86.2182 55.3813 85.8909 56.0222 85.8909C56.7244 85.8909 57.0142 86.2795 57.154 86.6409L57.8767 86.4364ZM61.4605 85.2636H60.3423V84.0091H59.5378V85.2636H58.7469V85.9455H59.5378V89.2182C59.5378 90.1318 60.2741 90.5682 60.956 90.5682C61.256 90.5682 61.4469 90.5136 61.556 90.4727L61.3923 89.75C61.3241 89.7636 61.2151 89.7909 61.0378 89.7909C60.6832 89.7909 60.3423 89.6818 60.3423 89V85.9455H61.4605V85.2636ZM69.748 92.4636V85.2636H68.9707V86.0955H68.8753C68.698 85.8227 68.3844 85.1955 67.3616 85.1955C66.0389 85.1955 65.1253 86.2455 65.1253 87.8955C65.1253 89.5591 66.0389 90.6091 67.348 90.6091C68.3571 90.6091 68.698 89.9818 68.8753 89.6955H68.9435V92.4636H69.748ZM68.9571 87.8818C68.9571 89.0682 68.4253 89.8864 67.4571 89.8864C66.448 89.8864 65.9298 89 65.9298 87.8818C65.9298 86.7773 66.4344 85.9182 67.4571 85.9182C68.4389 85.9182 68.9571 86.7091 68.9571 87.8818ZM74.5207 88.3591C74.5207 89.3409 73.7707 89.7909 73.1707 89.7909C72.5026 89.7909 72.0253 89.3 72.0253 88.5364V85.2636H71.2207V88.5909C71.2207 89.9273 71.9298 90.5682 72.9116 90.5682C73.7026 90.5682 74.2207 90.1455 74.4662 89.6136H74.5207V90.5H75.3253V85.2636H74.5207V88.3591ZM78.9943 90.6091C80.058 90.6091 80.8352 90.0773 81.0807 89.2864L80.3034 89.0682C80.0989 89.6136 79.625 89.8864 78.9943 89.8864C78.05 89.8864 77.3989 89.2761 77.3614 88.1545H81.1625V87.8136C81.1625 85.8636 80.0034 85.1955 78.9125 85.1955C77.4943 85.1955 76.5534 86.3136 76.5534 87.9227C76.5534 89.5318 77.4807 90.6091 78.9943 90.6091ZM77.3614 87.4591C77.4159 86.6443 77.992 85.9182 78.9125 85.9182C79.7852 85.9182 80.3443 86.5727 80.3443 87.4591H77.3614ZM82.3864 90.5H83.1909V87.1864C83.1909 86.4773 83.75 85.9591 84.5136 85.9591C84.7284 85.9591 84.95 86 85.0045 86.0136V85.1955C84.9125 85.1886 84.7011 85.1818 84.5818 85.1818C83.9545 85.1818 83.4091 85.5364 83.2182 86.0545H83.1636V85.2636H82.3864V90.5ZM86.6358 92.4636C87.3619 92.4636 87.8733 92.0784 88.1767 91.2636L90.4062 85.2773L89.5267 85.2636L88.0812 89.4364H88.0267L86.5812 85.2636H85.7085L87.6449 90.5273L87.4949 90.9364C87.2017 91.7341 86.8403 91.8091 86.254 91.6591L86.0494 92.3682C86.1312 92.4091 86.3631 92.4636 86.6358 92.4636Z" fill="#AEB8C2"/>
</svg>
