<svg width="100" height="98" viewBox="0 0 100 98" fill="none" xmlns="http://www.w3.org/2000/svg">
<g opacity="0.3">
<path opacity="0.4" d="M12.0072 67.8923C12.0072 65.1088 13.8873 62.7445 16.4797 61.928C15.8352 61.725 15.1635 61.6218 14.4878 61.6221C10.9234 61.6221 8.02344 64.4348 8.02344 67.8923C8.02344 71.3497 10.9234 74.1626 14.4878 74.1626C15.1635 74.1629 15.8352 74.0597 16.4797 73.8567C13.8873 73.04 12.0072 70.6757 12.0072 67.8923Z" fill="#0076FF"/>
<path opacity="0.4" d="M15.6372 81.2676H11.6535C9.35694 81.2702 7.15519 82.1837 5.53133 83.8076C3.90746 85.4316 2.99412 87.6334 2.9917 89.93V95.609H6.97542V89.93C6.97785 87.6334 7.89119 85.4316 9.51505 83.8076C11.1389 82.1837 13.3407 81.2702 15.6372 81.2676Z" fill="#0076FF"/>
<path opacity="0.4" d="M47.5179 67.8923C47.5179 65.1088 49.3978 62.7445 51.9904 61.928C51.346 61.725 50.6742 61.6218 49.9986 61.6221C46.4331 61.6221 43.5342 64.4348 43.5342 67.8923C43.5342 71.3497 46.4341 74.1626 49.9986 74.1626C50.6742 74.1629 51.346 74.0597 51.9904 73.8567C49.3978 73.04 47.5179 70.6757 47.5179 67.8923Z" fill="#0076FF"/>
<path opacity="0.4" d="M83.0321 67.8923C83.0321 65.1088 84.912 62.7445 87.5046 61.928C86.8601 61.725 86.1884 61.6218 85.5127 61.6221C81.9483 61.6221 79.0483 64.4348 79.0483 67.8923C79.0483 71.3497 81.9483 74.1626 85.5127 74.1626C86.1884 74.1629 86.8601 74.0597 87.5046 73.8567C84.912 73.04 83.0321 70.6757 83.0321 67.8923Z" fill="#0076FF"/>
<path opacity="0.4" d="M51.1492 81.2676H47.1655C44.8691 81.2702 42.6675 82.1836 41.0437 83.8074C39.4199 85.4312 38.5065 87.6328 38.5039 89.9292V95.609H42.4876V89.93C42.49 87.6334 43.4033 85.4316 45.0271 83.8076C46.651 82.1837 48.8527 81.2702 51.1492 81.2676Z" fill="#0076FF"/>
<path opacity="0.4" d="M86.6631 81.2676H82.6794C80.383 81.2702 78.1813 82.1835 76.5575 83.8073C74.9336 85.4311 74.0202 87.6328 74.0176 89.9292V95.609H78.0013V89.93C78.0037 87.6334 78.9171 85.4316 80.5409 83.8076C82.1648 82.1837 84.3665 81.2702 86.6631 81.2676Z" fill="#0076FF"/>
<path d="M28.3708 96.8047V89.9306C28.3677 87.0003 27.2023 84.191 25.1304 82.1189C23.0585 80.0468 20.2492 78.8813 17.319 78.8779H11.6531C8.72285 78.8813 5.91356 80.0468 3.8416 82.1189C1.76964 84.1909 0.604237 87.0003 0.601074 89.9306V96.8047C0.601074 97.1216 0.726988 97.4256 0.951116 97.6498C1.17524 97.8739 1.47923 97.9998 1.79619 97.9998H27.1757C27.4927 97.9998 27.7966 97.8739 28.0208 97.6498C28.2449 97.4256 28.3708 97.1216 28.3708 96.8047ZM25.9806 95.6096H2.99131V89.9306C2.99373 87.634 3.90707 85.4322 5.53093 83.8082C7.1548 82.1842 9.35655 81.2707 11.6531 81.2682H17.319C19.6154 81.2707 21.817 82.1841 23.4408 83.8079C25.0646 85.4318 25.978 87.6334 25.9806 89.9298V95.6096Z" fill="#919EAB"/>
<path d="M88.3468 78.8779H82.6809C79.7508 78.8813 76.9416 80.0467 74.8697 82.1186C72.7978 84.1905 71.6323 86.9996 71.6289 89.9298V96.8047C71.6289 97.1216 71.7548 97.4256 71.9789 97.6498C72.2031 97.8739 72.5071 97.9998 72.824 97.9998H98.2037C98.5207 97.9998 98.8247 97.8739 99.0488 97.6498C99.2729 97.4256 99.3988 97.1216 99.3988 96.8047V89.9306C99.3957 87.0003 98.2303 84.1909 96.1583 82.1189C94.0864 80.0468 91.2771 78.8813 88.3468 78.8779ZM97.0086 95.6096H74.0191V89.9306C74.0216 87.634 74.9349 85.4322 76.5588 83.8082C78.1826 82.1842 80.3844 81.2707 82.6809 81.2682H88.3468C90.6434 81.2707 92.8451 82.1842 94.469 83.8082C96.0928 85.4322 97.0062 87.634 97.0086 89.9306V95.6096Z" fill="#919EAB"/>
<path d="M47.1656 78.8779C44.2355 78.8813 41.4264 80.0467 39.3544 82.1186C37.2825 84.1905 36.1171 86.9997 36.1138 89.9298V96.8047C36.1138 97.1216 36.2397 97.4256 36.4638 97.6498C36.6879 97.8739 36.9919 97.9998 37.3089 97.9998H62.6884C63.0054 97.9998 63.3093 97.8739 63.5335 97.6498C63.7576 97.4256 63.8835 97.1216 63.8835 96.8047V89.9306C63.8804 87.0003 62.715 84.191 60.6431 82.1189C58.5712 80.0468 55.7619 78.8813 52.8317 78.8779H47.1656ZM61.4933 89.9298V95.6096H38.504V89.9306C38.5064 87.634 39.4197 85.4322 41.0435 83.8082C42.6673 82.1842 44.8691 81.2707 47.1656 81.2682H52.8317C55.1282 81.2707 57.3299 82.1842 58.9538 83.8082C60.5776 85.4322 61.4909 87.634 61.4933 89.9306V89.9298Z" fill="#919EAB"/>
<path d="M51.1944 39.5068H48.8041V50.9063H18.6776C17.2532 50.9039 15.8861 51.4668 14.8762 52.4713C13.8663 53.4758 13.2961 54.84 13.2909 56.2644V59.3135C8.9719 59.8862 5.63135 63.5141 5.63135 67.8929C5.63135 72.6683 9.60352 76.5535 14.486 76.5535C19.3684 76.5535 23.3406 72.6693 23.3406 67.8929C23.3406 63.5141 20 59.8856 15.6811 59.3135V56.264C15.6858 55.4733 16.0039 54.7168 16.5657 54.1604C17.1274 53.604 17.887 53.2932 18.6776 53.2961H48.8041V59.3127C44.4852 59.8854 41.1446 63.5133 41.1446 67.8921C41.1446 72.6675 45.1168 76.5527 49.9993 76.5527C54.8817 76.5527 58.8539 72.6685 58.8539 67.8921C58.8539 63.5133 55.5133 59.8848 51.1944 59.3127V53.2965H81.3209C82.1115 53.2936 82.8711 53.6044 83.4328 54.1608C83.9946 54.7172 84.3127 55.4737 84.3174 56.2644V59.3135C79.9985 59.8862 76.6579 63.5141 76.6579 67.8929C76.6579 72.6683 80.6301 76.5535 85.5126 76.5535C90.395 76.5535 94.3672 72.6693 94.3672 67.8929C94.3672 63.5141 91.0266 59.8856 86.7077 59.3135V56.264C86.7024 54.8396 86.1323 53.4754 85.1224 52.4709C84.1125 51.4664 82.7453 50.9035 81.3209 50.9059H51.1944V39.5068ZM20.9504 67.8925C20.9504 71.3499 18.0504 74.1628 14.486 74.1628C10.9215 74.1628 8.02158 71.3499 8.02158 67.8925C8.02158 64.435 10.9215 61.6223 14.486 61.6223C18.0504 61.6223 20.9504 64.435 20.9504 67.8925ZM56.4636 67.8925C56.4636 71.3499 53.5637 74.1628 49.9993 74.1628C46.4348 74.1628 43.5349 71.3499 43.5349 67.8925C43.5349 64.435 46.4348 61.6223 49.9993 61.6223C53.5637 61.6223 56.4636 64.435 56.4636 67.8925ZM91.9769 67.8925C91.9769 71.3499 89.077 74.1628 85.5126 74.1628C81.9481 74.1628 79.0482 71.3499 79.0482 67.8925C79.0482 64.435 81.9487 61.6223 85.5126 61.6223C89.0764 61.6223 91.9769 64.435 91.9769 67.8925Z" fill="#919EAB"/>
<path d="M50.0004 10.0449C47.9701 10.0575 45.9889 10.671 44.3068 11.8081C42.6246 12.9452 41.3169 14.555 40.5486 16.4344C39.7803 18.3138 39.5857 20.3787 39.9895 22.3685C40.3933 24.3584 41.3773 26.1841 42.8174 27.6154C44.2575 29.0467 46.0892 30.0195 48.0815 30.411C50.0738 30.8025 52.1374 30.5953 54.0121 29.8154C55.8868 29.0356 57.4885 27.718 58.6153 26.0289C59.742 24.3399 60.3433 22.3549 60.3434 20.3245C60.3319 17.5908 59.2365 14.9732 57.2975 13.0461C55.3585 11.1189 52.7342 10.0396 50.0004 10.0449ZM50.0004 28.2137C48.4428 28.2012 46.9236 27.7279 45.6345 26.8535C44.3454 25.979 43.344 24.7425 42.7566 23.2998C42.1691 21.8571 42.0219 20.2727 42.3334 18.7465C42.645 17.2202 43.4014 15.8204 44.5072 14.7233C45.6131 13.6262 47.019 12.8811 48.5477 12.5818C50.0764 12.2825 51.6595 12.4425 53.0975 13.0415C54.5354 13.6405 55.7639 14.6518 56.628 15.9479C57.4921 17.2439 57.9532 18.7668 57.9531 20.3245C57.9423 22.4246 57.099 24.4345 55.6081 25.9135C54.1172 27.3925 52.1005 28.2197 50.0004 28.2137Z" fill="#0076FF"/>
<path d="M60.5383 36.5142C60.826 36.7983 61.2141 36.9576 61.6184 36.9576C62.0227 36.9576 62.4108 36.7983 62.6985 36.5142L66.2625 32.9747C66.4056 32.8326 66.5192 32.6637 66.5967 32.4776C66.6742 32.2915 66.7141 32.0919 66.7141 31.8903C66.7141 31.6887 66.6742 31.4891 66.5967 31.303C66.5192 31.1169 66.4056 30.9479 66.2625 30.8059L64.832 29.3853C65.793 27.8406 66.5004 26.1519 66.9274 24.3834H68.9513C69.3572 24.3832 69.7464 24.2221 70.0336 23.9353C70.3208 23.6486 70.4825 23.2596 70.4833 22.8538V17.8485C70.4825 17.4426 70.3208 17.0537 70.0336 16.7669C69.7464 16.4802 69.3572 16.3191 68.9513 16.3189H66.9395C66.5171 14.5439 65.8123 12.8483 64.8521 11.2968L66.2623 9.89616C66.4054 9.75415 66.519 9.58522 66.5965 9.39911C66.674 9.213 66.7139 9.0134 66.7139 8.81179C66.7139 8.61019 66.674 8.41059 66.5965 8.22448C66.519 8.03837 66.4054 7.86944 66.2623 7.72742L62.6987 4.18829C62.411 3.90395 62.0229 3.74449 61.6184 3.74449C61.2139 3.74449 60.8258 3.90395 60.5381 4.18829L59.1251 5.59135C57.5561 4.62724 55.8429 3.9203 54.0506 3.49731V1.52955C54.0498 1.12372 53.8881 0.734768 53.6009 0.448024C53.3137 0.161281 52.9245 0.000157469 52.5187 0H47.4793C47.0734 0.000157469 46.6842 0.161281 46.397 0.448024C46.1098 0.734768 45.9481 1.12372 45.9473 1.52955V3.49711C44.1547 3.92006 42.4413 4.627 40.8721 5.59115L39.4592 4.18829C39.1716 3.90395 38.7834 3.74449 38.379 3.74449C37.9745 3.74449 37.5863 3.90395 37.2987 4.18829L33.7346 7.72842C33.5915 7.87045 33.478 8.0394 33.4004 8.22552C33.3229 8.41165 33.283 8.61127 33.283 8.81289C33.283 9.01451 33.3229 9.21413 33.4004 9.40026C33.478 9.58638 33.5915 9.75533 33.7346 9.89736L35.1449 11.2978C34.1845 12.8492 33.4797 14.5449 33.0574 16.3199H31.0456C30.6398 16.3201 30.2506 16.4812 29.9634 16.7679C29.6762 17.0547 29.5145 17.4436 29.5137 17.8495V22.8546C29.5145 23.2604 29.6762 23.6494 29.9634 23.9361C30.2506 24.2229 30.6398 24.384 31.0456 24.3842H33.0697C33.4967 26.1527 34.2041 27.8414 35.1652 29.3861L33.7348 30.8065C33.5917 30.9486 33.4781 31.1175 33.4006 31.3037C33.3231 31.4898 33.2831 31.6894 33.2831 31.8911C33.2831 32.0927 33.3231 32.2924 33.4006 32.4785C33.4781 32.6647 33.5917 32.8336 33.7348 32.9757L37.2991 36.5152C37.5868 36.7993 37.9748 36.9585 38.3791 36.9585C38.7835 36.9585 39.1715 36.7993 39.4592 36.5152L40.9053 35.0791C42.4654 36.0329 44.1671 36.7329 45.9467 37.153V39.1737C45.9475 39.5795 46.1093 39.9685 46.3965 40.2552C46.6837 40.5419 47.0729 40.703 47.4787 40.7031H52.5181C52.9239 40.703 53.3131 40.5419 53.6003 40.2552C53.8875 39.9685 54.0492 39.5795 54.05 39.1737V37.1518C55.8297 36.7318 57.5314 36.0318 59.0914 35.0779L60.5383 36.5142ZM52.9009 34.9548C52.5525 35.0226 52.2383 35.2093 52.0121 35.4829C51.7859 35.7564 51.6616 36.1 51.6604 36.455V38.3117H48.3368V36.455C48.3356 36.0999 48.2112 35.7563 47.9849 35.4826C47.7586 35.209 47.4444 35.0224 47.0958 34.9546C45.1459 34.5775 43.2908 33.815 41.6393 32.7117C41.3451 32.5163 40.9926 32.4281 40.641 32.462C40.2894 32.4958 39.9602 32.6496 39.7086 32.8976L38.3788 34.2182L36.0356 31.8897L37.3483 30.586C37.6007 30.3345 37.7574 30.0027 37.7914 29.648C37.8253 29.2932 37.7343 28.9378 37.5341 28.643C36.4202 27.0083 35.6479 25.1655 35.2634 23.2251C35.1938 22.8778 35.0064 22.5653 34.7327 22.3405C34.4591 22.1156 34.1161 21.9924 33.7619 21.9915H31.9053V18.7092H33.7518C34.1068 18.7086 34.4507 18.5848 34.7247 18.359C34.9987 18.1331 35.1858 17.8192 35.2542 17.4708C35.6332 15.5246 36.4022 13.6753 37.515 12.0342C37.7142 11.7394 37.8044 11.3844 37.7701 11.0303C37.7358 10.6762 37.5792 10.3451 37.3271 10.094L36.0356 8.81179L38.3796 6.48391L39.6773 7.77284C39.9293 8.02129 40.2592 8.17524 40.6115 8.20874C40.9638 8.24223 41.3168 8.15321 41.611 7.95669C43.2697 6.84303 45.135 6.07371 47.0964 5.69433C47.4451 5.6268 47.7595 5.44027 47.9859 5.16663C48.2122 4.89298 48.3366 4.54921 48.3376 4.19406V2.39023H51.6612V4.19406C51.6622 4.54915 51.7864 4.89288 52.0127 5.16652C52.239 5.44016 52.5533 5.62672 52.9019 5.69433C54.8635 6.07364 56.729 6.84296 58.3877 7.95669C58.682 8.15314 59.035 8.24211 59.3873 8.20858C59.7395 8.17506 60.0694 8.02109 60.3214 7.77264L61.6191 6.48391L63.9615 8.81179L62.67 10.0944C62.4182 10.3455 62.2617 10.6766 62.2275 11.0306C62.1933 11.3846 62.2835 11.7395 62.4826 12.0342C63.5953 13.6753 64.3644 15.5246 64.7433 17.4708C64.8117 17.8192 64.9989 18.1331 65.2729 18.359C65.5469 18.5848 65.8907 18.7086 66.2458 18.7092H68.0922V21.9929H66.2356C65.8815 21.9938 65.5385 22.117 65.2648 22.3419C64.9912 22.5667 64.8037 22.8792 64.7342 23.2265C64.3496 25.1669 63.5773 27.0096 62.4634 28.6444C62.2633 28.9392 62.1724 29.2946 62.2064 29.6494C62.2404 30.0041 62.3972 30.3358 62.6497 30.5872L63.9615 31.8897L61.6183 34.2182L60.2887 32.8976C60.0371 32.6496 59.7079 32.4958 59.3563 32.4619C59.0047 32.428 58.6521 32.5162 58.3578 32.7115C56.7062 33.8149 54.851 34.5776 52.9009 34.9548Z" fill="#0076FF"/>
</g>
</svg>
