<svg width="101" height="94" viewBox="0 0 101 94" fill="none" xmlns="http://www.w3.org/2000/svg">
<path d="M78.5 52H22.5C22.2 52 22 51.8 22 51.5V0.5C22 0.2 22.2 0 22.5 0C22.8 0 23 0.2 23 0.5V51H78.5C78.8 51 79 51.2 79 51.5C79 51.8 78.8 52 78.5 52Z" fill="#919EAB"/>
<path d="M22.5 22.5V14.5H61.5C62.1 14.5 62.5 14.9 62.5 15.5V21.5C62.5 22.1 62.1 22.5 61.5 22.5H22.5Z" fill="#E1EDFF"/>
<path d="M61.5 23H22.5C22.2 23 22 22.8 22 22.5V14.5C22 14.2 22.2 14 22.5 14H61.5C62.3 14 63 14.7 63 15.5V21.5C63 22.4 62.4 23 61.5 23ZM23 22H61.5C61.8 22 62 21.8 62 21.5V15.5C62 15.2 61.8 15 61.5 15H23V22Z" fill="#919EAB"/>
<path d="M22.5 46.5V38.5H55C55.6 38.5 56 38.9 56 39.5V45.5C56 46.1 55.6 46.5 55 46.5H22.5Z" fill="#0076FF" fill-opacity="0.2"/>
<path d="M55 47H22.5C22.2 47 22 46.8 22 46.5V38.5C22 38.2 22.2 38 22.5 38H55C55.8 38 56.5 38.7 56.5 39.5V45.5C56.5 46.4 55.9 47 55 47ZM23 46H55C55.3 46 55.5 45.8 55.5 45.5V39.5C55.5 39.2 55.3 39 55 39H23V46Z" fill="#919EAB"/>
<path d="M22.5 34.5V26.5H69C69.6 26.5 70 26.9 70 27.5V33.5C70 34.1 69.6 34.5 69 34.5H22.5Z" fill="#B2D2FF"/>
<path d="M69 35H22.5C22.2 35 22 34.8 22 34.5V26.5C22 26.2 22.2 26 22.5 26H69C69.8 26 70.5 26.7 70.5 27.5V33.5C70.5 34.4 69.9 35 69 35ZM23 34H69C69.3 34 69.5 33.8 69.5 33.5V27.5C69.5 27.2 69.3 27 69 27H23V34Z" fill="#919EAB"/>
<path d="M30.5 54.5C30.2 54.5 30 54.3 30 54V51.5C30 51.2 30.2 51 30.5 51C30.8 51 31 51.2 31 51.5V54C31 54.3 30.8 54.5 30.5 54.5Z" fill="#919EAB"/>
<path d="M40.5 54.5C40.2 54.5 40 54.3 40 54V51.5C40 51.2 40.2 51 40.5 51C40.8 51 41 51.2 41 51.5V54C41 54.3 40.8 54.5 40.5 54.5Z" fill="#919EAB"/>
<path d="M50.5 54.5C50.2 54.5 50 54.3 50 54V51.5C50 51.2 50.2 51 50.5 51C50.8 51 51 51.2 51 51.5V54C51 54.3 50.8 54.5 50.5 54.5Z" fill="#919EAB"/>
<path d="M60.5 54.5C60.2 54.5 60 54.3 60 54V51.5C60 51.2 60.2 51 60.5 51C60.8 51 61 51.2 61 51.5V54C61 54.3 60.8 54.5 60.5 54.5Z" fill="#919EAB"/>
<path d="M70.5 54.5C70.2 54.5 70 54.3 70 54V51.5C70 51.2 70.2 51 70.5 51C70.8 51 71 51.2 71 51.5V54C71 54.3 70.8 54.5 70.5 54.5Z" fill="#919EAB"/>
<path d="M32.9308 71.5182H31.6729V76.2773H31.6115L28.3251 71.5182H27.1933V78.5H28.4581V73.7443H28.5161L31.8058 78.5H32.9308V71.5182ZM36.5385 78.6023C38.0726 78.6023 39.0476 77.5216 39.0476 75.9023C39.0476 74.2795 38.0726 73.1955 36.5385 73.1955C35.0044 73.1955 34.0294 74.2795 34.0294 75.9023C34.0294 77.5216 35.0044 78.6023 36.5385 78.6023ZM36.5453 77.6136C35.6964 77.6136 35.2805 76.8568 35.2805 75.8989C35.2805 74.9409 35.6964 74.1739 36.5453 74.1739C37.3805 74.1739 37.7964 74.9409 37.7964 75.8989C37.7964 76.8568 37.3805 77.6136 36.5453 77.6136ZM44.7604 78.6023C46.0763 78.6023 46.9149 77.8216 47.0035 76.7102H45.824C45.7183 77.2727 45.3126 77.5966 44.7706 77.5966C44.0001 77.5966 43.5024 76.9523 43.5024 75.8818C43.5024 74.825 44.0104 74.1909 44.7706 74.1909C45.3638 74.1909 45.7285 74.5727 45.824 75.0773H47.0035C46.9183 73.942 46.032 73.1955 44.7535 73.1955C43.2195 73.1955 42.2513 74.3034 42.2513 75.9023C42.2513 77.4875 43.1956 78.6023 44.7604 78.6023ZM49.251 75.4318C49.251 74.675 49.7214 74.2386 50.3828 74.2386C51.0305 74.2386 51.4124 74.6511 51.4124 75.3568V78.5H52.6464V75.1659C52.6464 73.9011 51.9305 73.1955 50.843 73.1955C50.0385 73.1955 49.5271 73.5602 49.2851 74.1534H49.2237V71.5182H48.0169V78.5H49.251V75.4318ZM55.4112 78.6057C56.2328 78.6057 56.7237 78.2205 56.9487 77.7807H56.9896V78.5H58.176V74.9955C58.176 73.6114 57.0476 73.1955 56.0487 73.1955C54.9476 73.1955 54.1021 73.6864 53.8294 74.6409L54.9817 74.8045C55.1044 74.4466 55.4521 74.1398 56.0555 74.1398C56.6283 74.1398 56.9419 74.433 56.9419 74.9477V74.9682C56.9419 75.3227 56.5703 75.3398 55.6464 75.4386C54.6305 75.5477 53.6589 75.8511 53.6589 77.0307C53.6589 78.0602 54.4124 78.6057 55.4112 78.6057ZM55.7317 77.6989C55.2169 77.6989 54.8487 77.4636 54.8487 77.0102C54.8487 76.5364 55.2612 76.3386 55.8135 76.2602C56.1374 76.2159 56.7851 76.1341 56.9453 76.0045V76.6216C56.9453 77.2045 56.4749 77.6989 55.7317 77.6989ZM59.4169 78.5H60.651V75.4216C60.651 74.7568 61.1521 74.2864 61.8305 74.2864C62.0385 74.2864 62.2976 74.3239 62.4033 74.358V73.2227C62.2908 73.2023 62.0965 73.1886 61.9601 73.1886C61.3601 73.1886 60.859 73.5295 60.668 74.1364H60.6135V73.2636H59.4169V78.5ZM66.1192 73.2636H65.0862V72.0091H63.8521V73.2636H63.109V74.2182H63.8521V77.1295C63.8453 78.1148 64.5612 78.5989 65.4885 78.5716C65.8396 78.5614 66.0817 78.4932 66.2146 78.4489L66.0067 77.4841C65.9385 77.5011 65.7987 77.5318 65.6453 77.5318C65.3351 77.5318 65.0862 77.4227 65.0862 76.925V74.2182H66.1192V73.2636ZM71.2149 74.6477C71.0445 73.7614 70.3354 73.1955 69.1081 73.1955C67.8467 73.1955 66.9876 73.8159 66.991 74.7841C66.9876 75.5477 67.4581 76.0523 68.4638 76.2602L69.357 76.4477C69.8376 76.5534 70.0626 76.7477 70.0626 77.0443C70.0626 77.4023 69.674 77.6716 69.0876 77.6716C68.5217 77.6716 68.1535 77.4261 68.0479 76.9557L66.8445 77.0716C66.9979 78.033 67.8058 78.6023 69.091 78.6023C70.4001 78.6023 71.324 77.9239 71.3274 76.9318C71.324 76.1852 70.8433 75.7284 69.8547 75.5136L68.9615 75.3227C68.4297 75.2034 68.2183 75.0193 68.2217 74.7159C68.2183 74.3614 68.6104 74.1159 69.1251 74.1159C69.6945 74.1159 69.9945 74.4261 70.0899 74.7705L71.2149 74.6477ZM73.1053 78.575C73.5075 78.575 73.8518 78.2409 73.8553 77.825C73.8518 77.4159 73.5075 77.0818 73.1053 77.0818C72.6893 77.0818 72.3518 77.4159 72.3553 77.825C72.3518 78.2409 72.6893 78.575 73.1053 78.575ZM6.86363 85.7C6.60454 84.2682 5.45909 83.4227 4.05454 83.4227C2.26818 83.4227 0.972725 84.8 0.972725 87.0091C0.972725 89.2182 2.26818 90.5955 4.05454 90.5955C5.45909 90.5955 6.60454 89.75 6.86363 88.3182H6.01818C5.81363 89.2864 4.98182 89.8045 4.05454 89.8045C2.78636 89.8045 1.79091 88.8227 1.79091 87.0091C1.79091 85.1955 2.78636 84.2136 4.05454 84.2136C4.98182 84.2136 5.81363 84.7318 6.01818 85.7H6.86363ZM8.12074 90.5H8.92528V87.1864C8.92528 86.4773 9.48437 85.9591 10.248 85.9591C10.4628 85.9591 10.6844 86 10.7389 86.0136V85.1955C10.6469 85.1886 10.4355 85.1818 10.3162 85.1818C9.68892 85.1818 9.14346 85.5364 8.95256 86.0545H8.89801V85.2636H8.12074V90.5ZM13.7287 90.6091C14.7923 90.6091 15.5696 90.0773 15.8151 89.2864L15.0378 89.0682C14.8332 89.6136 14.3594 89.8864 13.7287 89.8864C12.7844 89.8864 12.1332 89.2761 12.0957 88.1545H15.8969V87.8136C15.8969 85.8636 14.7378 85.1955 13.6469 85.1955C12.2287 85.1955 11.2878 86.3136 11.2878 87.9227C11.2878 89.5318 12.2151 90.6091 13.7287 90.6091ZM12.0957 87.4591C12.1503 86.6443 12.7264 85.9182 13.6469 85.9182C14.5196 85.9182 15.0787 86.5727 15.0787 87.4591H12.0957ZM18.6616 90.6227C19.5753 90.6227 20.0526 90.1318 20.2162 89.7909H20.2571V90.5H21.0616V87.05C21.0616 85.3864 19.7935 85.1955 19.1253 85.1955C18.3344 85.1955 17.4344 85.4682 17.0253 86.4227L17.7889 86.6955C17.9662 86.3136 18.3855 85.9045 19.1526 85.9045C19.8923 85.9045 20.2571 86.2966 20.2571 86.9682V86.9955C20.2571 87.3841 19.8616 87.35 18.9071 87.4727C17.9355 87.5989 16.8753 87.8136 16.8753 89.0136C16.8753 90.0364 17.6662 90.6227 18.6616 90.6227ZM18.7844 89.9C18.1435 89.9 17.6798 89.6136 17.6798 89.0545C17.6798 88.4409 18.2389 88.25 18.8662 88.1682C19.2071 88.1273 20.1207 88.0318 20.2571 87.8682V88.6045C20.2571 89.2591 19.7389 89.9 18.7844 89.9ZM24.8074 85.2636H23.6892V84.0091H22.8847V85.2636H22.0937V85.9455H22.8847V89.2182C22.8847 90.1318 23.621 90.5682 24.3028 90.5682C24.6028 90.5682 24.7937 90.5136 24.9028 90.4727L24.7392 89.75C24.671 89.7636 24.5619 89.7909 24.3847 89.7909C24.0301 89.7909 23.6892 89.6818 23.6892 89V85.9455H24.8074V85.2636ZM28.1568 90.6091C29.2205 90.6091 29.9977 90.0773 30.2432 89.2864L29.4659 89.0682C29.2614 89.6136 28.7875 89.8864 28.1568 89.8864C27.2125 89.8864 26.5614 89.2761 26.5239 88.1545H30.325V87.8136C30.325 85.8636 29.1659 85.1955 28.075 85.1955C26.6568 85.1955 25.7159 86.3136 25.7159 87.9227C25.7159 89.5318 26.6432 90.6091 28.1568 90.6091ZM26.5239 87.4591C26.5784 86.6443 27.1545 85.9182 28.075 85.9182C28.9477 85.9182 29.5068 86.5727 29.5068 87.4591H26.5239ZM34.767 92.4636C35.4932 92.4636 36.0045 92.0784 36.308 91.2636L38.5375 85.2773L37.658 85.2636L36.2125 89.4364H36.158L34.7125 85.2636H33.8398L35.7761 90.5273L35.6261 90.9364C35.333 91.7341 34.9716 91.8091 34.3852 91.6591L34.1807 92.3682C34.2625 92.4091 34.4943 92.4636 34.767 92.4636ZM41.5418 90.6091C42.9599 90.6091 43.9145 89.5318 43.9145 87.9091C43.9145 86.2727 42.9599 85.1955 41.5418 85.1955C40.1236 85.1955 39.169 86.2727 39.169 87.9091C39.169 89.5318 40.1236 90.6091 41.5418 90.6091ZM41.5418 89.8864C40.4645 89.8864 39.9736 88.9591 39.9736 87.9091C39.9736 86.8591 40.4645 85.9182 41.5418 85.9182C42.619 85.9182 43.1099 86.8591 43.1099 87.9091C43.1099 88.9591 42.619 89.8864 41.5418 89.8864ZM48.4426 88.3591C48.4426 89.3409 47.6926 89.7909 47.0926 89.7909C46.4244 89.7909 45.9472 89.3 45.9472 88.5364V85.2636H45.1426V88.5909C45.1426 89.9273 45.8517 90.5682 46.8335 90.5682C47.6244 90.5682 48.1426 90.1455 48.3881 89.6136H48.4426V90.5H49.2472V85.2636H48.4426V88.3591ZM50.7207 90.5H51.5253V87.1864C51.5253 86.4773 52.0844 85.9591 52.848 85.9591C53.0628 85.9591 53.2844 86 53.3389 86.0136V85.1955C53.2469 85.1886 53.0355 85.1818 52.9162 85.1818C52.2889 85.1818 51.7435 85.5364 51.5526 86.0545H51.498V85.2636H50.7207V90.5ZM59.3244 85.2636H58.1517V84.7318C58.1517 84.2136 58.3699 83.9409 58.9017 83.9409C59.1335 83.9409 59.2699 83.9955 59.3517 84.0227L59.5835 83.3273C59.4608 83.2727 59.2153 83.1909 58.8199 83.1909C58.0699 83.1909 57.3472 83.6409 57.3472 84.5409V85.2636H56.5017V85.9455H57.3472V90.5H58.1517V85.9455H59.3244V85.2636ZM60.452 90.5H61.2565V85.2636H60.452V90.5ZM60.8611 84.3909C61.1747 84.3909 61.4338 84.1455 61.4338 83.8455C61.4338 83.5455 61.1747 83.3 60.8611 83.3C60.5474 83.3 60.2884 83.5455 60.2884 83.8455C60.2884 84.1455 60.5474 84.3909 60.8611 84.3909ZM62.7301 90.5H63.5347V87.1864C63.5347 86.4773 64.0937 85.9591 64.8574 85.9591C65.0722 85.9591 65.2937 86 65.3483 86.0136V85.1955C65.2562 85.1886 65.0449 85.1818 64.9256 85.1818C64.2983 85.1818 63.7528 85.5364 63.5619 86.0545H63.5074V85.2636H62.7301V90.5ZM70.0111 86.4364C69.7588 85.6932 69.1929 85.1955 68.1565 85.1955C67.052 85.1955 66.2338 85.8227 66.2338 86.7091C66.2338 87.4318 66.6634 87.9159 67.6247 88.1409L68.4974 88.3455C69.0259 88.4682 69.2747 88.7205 69.2747 89.0818C69.2747 89.5318 68.7974 89.9 68.0474 89.9C67.3895 89.9 66.977 89.617 66.8338 89.0545L66.0702 89.2455C66.2577 90.1352 66.9906 90.6091 68.0611 90.6091C69.2781 90.6091 70.1065 89.9443 70.1065 89.0409C70.1065 88.3114 69.6497 87.8511 68.7156 87.6227L67.9384 87.4318C67.3179 87.2784 67.0384 87.0705 67.0384 86.6682C67.0384 86.2182 67.5156 85.8909 68.1565 85.8909C68.8588 85.8909 69.1486 86.2795 69.2884 86.6409L70.0111 86.4364ZM73.5949 85.2636H72.4767V84.0091H71.6722V85.2636H70.8813V85.9455H71.6722V89.2182C71.6722 90.1318 72.4085 90.5682 73.0903 90.5682C73.3903 90.5682 73.5813 90.5136 73.6903 90.4727L73.5267 89.75C73.4585 89.7636 73.3494 89.7909 73.1722 89.7909C72.8176 89.7909 72.4767 89.6818 72.4767 89V85.9455H73.5949V85.2636ZM79.6324 90.6091C80.7915 90.6091 81.5551 89.9 81.6915 88.9727H80.8869C80.7369 89.5455 80.2597 89.8864 79.6324 89.8864C78.6778 89.8864 78.0642 89.0955 78.0642 87.8818C78.0642 86.6955 78.6915 85.9182 79.6324 85.9182C80.3415 85.9182 80.7642 86.3545 80.8869 86.8318H81.6915C81.5551 85.85 80.7233 85.1955 79.6188 85.1955C78.2006 85.1955 77.2597 86.3136 77.2597 87.9091C77.2597 89.4773 78.1597 90.6091 79.6324 90.6091ZM83.6722 87.35C83.6722 86.4364 84.2551 85.9182 85.0494 85.9182C85.8063 85.9182 86.2631 86.3955 86.2631 87.2273V90.5H87.0676V87.1727C87.0676 85.8261 86.3517 85.1955 85.2813 85.1955C84.4563 85.1955 83.9858 85.5398 83.7403 86.0818H83.6722V83.5182H82.8676V90.5H83.6722V87.35ZM90.0804 90.6227C90.994 90.6227 91.4713 90.1318 91.6349 89.7909H91.6759V90.5H92.4804V87.05C92.4804 85.3864 91.2122 85.1955 90.544 85.1955C89.7531 85.1955 88.8531 85.4682 88.444 86.4227L89.2077 86.6955C89.3849 86.3136 89.8043 85.9045 90.5713 85.9045C91.3111 85.9045 91.6759 86.2966 91.6759 86.9682V86.9955C91.6759 87.3841 91.2804 87.35 90.3259 87.4727C89.3543 87.5989 88.294 87.8136 88.294 89.0136C88.294 90.0364 89.0849 90.6227 90.0804 90.6227ZM90.2031 89.9C89.5622 89.9 89.0986 89.6136 89.0986 89.0545C89.0986 88.4409 89.6577 88.25 90.2849 88.1682C90.6259 88.1273 91.5395 88.0318 91.6759 87.8682V88.6045C91.6759 89.2591 91.1577 89.9 90.2031 89.9ZM93.9489 90.5H94.7534V87.1864C94.7534 86.4773 95.3125 85.9591 96.0761 85.9591C96.2909 85.9591 96.5125 86 96.567 86.0136V85.1955C96.475 85.1886 96.2636 85.1818 96.1443 85.1818C95.517 85.1818 94.9716 85.5364 94.7807 86.0545H94.7261V85.2636H93.9489V90.5ZM100.126 85.2636H99.008V84.0091H98.2034V85.2636H97.4125V85.9455H98.2034V89.2182C98.2034 90.1318 98.9398 90.5682 99.6216 90.5682C99.9216 90.5682 100.113 90.5136 100.222 90.4727L100.058 89.75C99.9898 89.7636 99.8807 89.7909 99.7034 89.7909C99.3489 89.7909 99.008 89.6818 99.008 89V85.9455H100.126V85.2636Z" fill="#AEB8C2"/>
</svg>
