<svg width="82" height="98" viewBox="0 0 82 98" fill="none" xmlns="http://www.w3.org/2000/svg">
<g opacity="0.3">
<path d="M41.0317 37.4181C40.8535 37.4181 40.6753 37.4182 40.4972 37.24L10.2062 10.5127C9.84987 10.1564 9.84987 9.62168 10.2062 9.26532C10.5626 8.90896 11.0971 8.90896 11.4535 9.26532L41.2099 35.4582L70.9662 9.26532C71.3226 8.90896 71.8571 8.90896 72.2135 9.26532C72.5699 9.62168 72.5699 10.1564 72.2135 10.5127L41.9226 37.24C41.5662 37.24 41.388 37.4181 41.0317 37.4181Z" fill="#919EAB"/>
<path d="M71.3227 37.4181C71.1445 37.4181 70.9663 37.4182 70.7881 37.24L41.0318 11.0471L11.2754 37.24C10.919 37.5964 10.3845 37.5964 10.0281 37.24C9.67177 36.8836 9.67177 36.349 10.0281 35.9926L40.319 9.26532C40.6754 8.90896 41.2099 8.90896 41.5663 9.26532L71.8572 35.9926C72.2135 36.349 72.2135 36.8836 71.8572 37.24C71.8572 37.24 71.679 37.4181 71.3227 37.4181Z" fill="#919EAB"/>
<path d="M10.7408 18.7088C15.6611 18.7088 19.6498 14.7201 19.6498 9.79972C19.6498 4.87936 15.6611 0.890625 10.7408 0.890625C5.8204 0.890625 1.83167 4.87936 1.83167 9.79972C1.83167 14.7201 5.8204 18.7088 10.7408 18.7088Z" fill="white"/>
<path d="M10.7415 19.6C5.39608 19.6 0.941528 15.1455 0.941528 9.8C0.941528 4.45455 5.39608 0 10.7415 0C16.087 0 20.5415 4.45455 20.5415 9.8C20.5415 15.1455 16.2652 19.6 10.7415 19.6ZM10.7415 1.78182C6.28698 1.78182 2.72335 5.34545 2.72335 9.8C2.72335 14.2545 6.28698 17.8182 10.7415 17.8182C15.1961 17.8182 18.7597 14.2545 18.7597 9.8C18.7597 5.34545 15.1961 1.78182 10.7415 1.78182Z" fill="#919EAB"/>
<path d="M41.0318 18.7088C45.9521 18.7088 49.9409 14.7201 49.9409 9.79972C49.9409 4.87936 45.9521 0.890625 41.0318 0.890625C36.1114 0.890625 32.1227 4.87936 32.1227 9.79972C32.1227 14.7201 36.1114 18.7088 41.0318 18.7088Z" fill="#919EAB"/>
<path d="M41.0318 19.6C35.6864 19.6 31.2318 15.1455 31.2318 9.8C31.2318 4.45455 35.6864 0 41.0318 0C46.3773 0 50.8318 4.45455 50.8318 9.8C50.8318 15.1455 46.5555 19.6 41.0318 19.6ZM41.0318 1.78182C36.5773 1.78182 33.0136 5.34545 33.0136 9.8C33.0136 14.2545 36.5773 17.8182 41.0318 17.8182C45.4864 17.8182 49.05 14.2545 49.05 9.8C49.05 5.34545 45.4864 1.78182 41.0318 1.78182Z" fill="#919EAB"/>
<path d="M71.3227 18.7088C76.243 18.7088 80.2318 14.7201 80.2318 9.79972C80.2318 4.87936 76.243 0.890625 71.3227 0.890625C66.4023 0.890625 62.4136 4.87936 62.4136 9.79972C62.4136 14.7201 66.4023 18.7088 71.3227 18.7088Z" fill="white"/>
<path d="M71.3227 19.6C65.9773 19.6 61.5227 15.1455 61.5227 9.8C61.5227 4.45455 65.9773 0 71.3227 0C76.6682 0 81.1227 4.45455 81.1227 9.8C81.1227 15.1455 76.8463 19.6 71.3227 19.6ZM71.3227 1.78182C66.8682 1.78182 63.3045 5.34545 63.3045 9.8C63.3045 14.2545 66.8682 17.8182 71.3227 17.8182C75.7773 17.8182 79.3409 14.2545 79.3409 9.8C79.3409 5.34545 75.7773 1.78182 71.3227 1.78182Z" fill="#919EAB"/>
<path d="M10.7408 45.4363C15.6611 45.4363 19.6498 41.4476 19.6498 36.5273C19.6498 31.6069 15.6611 27.6182 10.7408 27.6182C5.8204 27.6182 1.83167 31.6069 1.83167 36.5273C1.83167 41.4476 5.8204 45.4363 10.7408 45.4363Z" fill="#919EAB"/>
<path d="M10.7409 46.3275C5.39546 46.3275 0.940918 41.873 0.940918 36.5275C0.940918 31.1821 5.39546 26.7275 10.7409 26.7275C16.0864 26.7275 20.5409 31.1821 20.5409 36.5275C20.5409 41.873 16.2646 46.3275 10.7409 46.3275ZM10.7409 28.5094C6.28637 28.5094 2.72274 32.073 2.72274 36.5275C2.72274 40.9821 6.28637 44.5457 10.7409 44.5457C15.1955 44.5457 18.7591 40.9821 18.7591 36.5275C18.7591 32.073 15.1955 28.5094 10.7409 28.5094Z" fill="#919EAB"/>
<path d="M41.0318 45.4363C45.9521 45.4363 49.9409 41.4476 49.9409 36.5273C49.9409 31.6069 45.9521 27.6182 41.0318 27.6182C36.1114 27.6182 32.1227 31.6069 32.1227 36.5273C32.1227 41.4476 36.1114 45.4363 41.0318 45.4363Z" fill="white"/>
<path d="M41.0318 46.3275C35.6864 46.3275 31.2318 41.873 31.2318 36.5275C31.2318 31.1821 35.6864 26.7275 41.0318 26.7275C46.3773 26.7275 50.8318 31.1821 50.8318 36.5275C50.8318 41.873 46.5555 46.3275 41.0318 46.3275ZM41.0318 28.5094C36.5773 28.5094 33.0136 32.073 33.0136 36.5275C33.0136 40.9821 36.5773 44.5457 41.0318 44.5457C45.4864 44.5457 49.05 40.9821 49.05 36.5275C49.05 32.073 45.4864 28.5094 41.0318 28.5094Z" fill="#919EAB"/>
<path d="M71.3227 45.4363C76.243 45.4363 80.2318 41.4476 80.2318 36.5273C80.2318 31.6069 76.243 27.6182 71.3227 27.6182C66.4023 27.6182 62.4136 31.6069 62.4136 36.5273C62.4136 41.4476 66.4023 45.4363 71.3227 45.4363Z" fill="#919EAB"/>
<path d="M71.3227 46.3275C65.9773 46.3275 61.5227 41.873 61.5227 36.5275C61.5227 31.1821 65.9773 26.7275 71.3227 26.7275C76.6682 26.7275 81.1227 31.1821 81.1227 36.5275C81.1227 41.873 76.8463 46.3275 71.3227 46.3275ZM71.3227 28.5094C66.8682 28.5094 63.3045 32.073 63.3045 36.5275C63.3045 40.9821 66.8682 44.5457 71.3227 44.5457C75.7773 44.5457 79.3409 40.9821 79.3409 36.5275C79.3409 32.073 75.7773 28.5094 71.3227 28.5094Z" fill="#919EAB"/>
<path d="M49.9408 76.6179C49.9408 71.0942 44.9517 66.6396 39.0717 67.8869C35.6862 68.5996 33.0135 71.4506 32.3008 74.8361C31.7663 77.8651 32.6571 80.7161 34.4389 82.6761C35.6862 84.1015 36.5771 85.8832 36.5771 87.6651V88.1997H45.4862V87.6651C45.4862 85.7051 46.3772 83.9232 47.6244 82.4977C49.0499 80.8941 49.9408 78.9342 49.9408 76.6179Z" fill="#0076FF" fill-opacity="0.2"/>
<path d="M45.4862 89.0906H36.5771C36.0426 89.0906 35.6862 88.7343 35.6862 88.1997V87.6651C35.6862 86.0615 34.9735 84.4578 33.7262 83.2106C31.588 80.8942 30.6971 77.687 31.4099 74.658C32.1226 70.9161 35.1516 67.887 38.8935 66.996C41.9225 66.2833 44.9517 67.1742 47.0898 68.956C49.4062 70.916 50.6535 73.5888 50.6535 76.6179C50.6535 79.1125 49.7626 81.4287 48.1589 83.2106C47.268 84.1015 46.1989 85.7051 46.1989 87.6651V88.1997C46.3771 88.7343 46.0208 89.0906 45.4862 89.0906ZM37.468 87.3088H44.5953C44.7735 85.3488 45.4862 83.567 46.9116 81.9634C48.3371 80.5379 49.0498 78.5779 49.0498 76.6179C49.0498 74.1234 47.9807 71.9852 46.0207 70.3815C44.0607 68.7779 41.7444 68.2433 39.2498 68.7779C36.2208 69.4906 33.7262 71.9851 33.1917 75.0142C32.6571 77.5088 33.3699 80.1815 35.1517 81.9634C36.5771 83.567 37.468 85.3488 37.468 87.3088Z" fill="#919EAB"/>
<path d="M41.0317 97.9995C38.0026 97.9995 35.6863 95.6831 35.6863 92.654V88.1995C35.6863 87.665 36.0426 87.3086 36.5772 87.3086H45.4863C46.0208 87.3086 46.3772 87.665 46.3772 88.1995V92.654C46.3772 95.505 44.0608 97.9995 41.0317 97.9995ZM37.4681 89.0904V92.654C37.4681 94.614 39.0717 96.2177 41.0317 96.2177C42.9917 96.2177 44.5954 94.614 44.5954 92.654V89.0904H37.4681Z" fill="#919EAB"/>
<path d="M45.4863 93.5455H36.5772C36.0426 93.5455 35.6863 93.1891 35.6863 92.6546C35.6863 92.12 36.0426 91.7637 36.5772 91.7637H45.4863C46.0208 91.7637 46.3772 92.12 46.3772 92.6546C46.3772 93.1891 46.0208 93.5455 45.4863 93.5455Z" fill="#919EAB"/>
<path d="M41.0318 89.0913C40.4972 89.0913 40.1409 88.7349 40.1409 88.2004V79.2913C40.1409 78.7568 40.4972 78.4004 41.0318 78.4004C41.5663 78.4004 41.9227 78.7568 41.9227 79.2913V88.2004C41.9227 88.7349 41.5663 89.0913 41.0318 89.0913Z" fill="#919EAB"/>
<path d="M19.6499 76.6179C19.6499 71.0942 14.6608 66.6396 8.78079 67.8869C5.39534 68.5996 2.72263 71.4506 2.0099 74.8361C1.47536 77.8651 2.36623 80.7161 4.14805 82.6761C5.39532 84.1015 6.28625 85.8832 6.28625 87.6651V88.1997H15.1953V87.6651C15.1953 85.7051 16.0863 83.9232 17.3335 82.4977C18.759 80.8941 19.6499 78.9342 19.6499 76.6179Z" fill="#0076FF" fill-opacity="0.2"/>
<path d="M15.1953 89.0906H6.28622C5.75168 89.0906 5.39531 88.7343 5.39531 88.1997V87.6651C5.39531 86.0615 4.68258 84.4578 3.4353 83.2106C1.29712 80.8942 0.406234 77.687 1.11896 74.658C1.83169 70.9161 4.86075 67.887 8.60257 66.996C11.6317 66.2833 14.6608 67.1742 16.7989 68.956C19.1153 70.916 20.3626 73.5888 20.3626 76.6179C20.3626 79.1125 19.4717 81.4287 17.868 83.2106C16.9771 84.1015 15.908 85.7051 15.908 87.6651V88.1997C16.0862 88.7343 15.7299 89.0906 15.1953 89.0906ZM7.17713 87.3088H14.3044C14.4826 85.3488 15.1953 83.567 16.6207 81.9634C18.0462 80.5379 18.759 78.5779 18.759 76.6179C18.759 74.1234 17.6898 71.9852 15.7298 70.3815C13.7698 68.7779 11.4535 68.2433 8.95895 68.7779C5.92986 69.4906 3.43533 71.9851 2.90078 75.0142C2.36623 77.5088 3.07897 80.1815 4.86079 81.9634C6.28625 83.567 7.17713 85.3488 7.17713 87.3088Z" fill="#919EAB"/>
<path d="M10.7408 97.9995C7.71175 97.9995 5.39539 95.6831 5.39539 92.654V88.1995C5.39539 87.665 5.75175 87.3086 6.2863 87.3086H15.1954C15.7299 87.3086 16.0863 87.665 16.0863 88.1995V92.654C16.0863 95.505 13.7699 97.9995 10.7408 97.9995ZM7.17721 89.0904V92.654C7.17721 94.614 8.78084 96.2177 10.7408 96.2177C12.7008 96.2177 14.3045 94.614 14.3045 92.654V89.0904H7.17721Z" fill="#919EAB"/>
<path d="M15.1954 93.5455H6.2863C5.75175 93.5455 5.39539 93.1891 5.39539 92.6546C5.39539 92.12 5.75175 91.7637 6.2863 91.7637H15.1954C15.7299 91.7637 16.0863 92.12 16.0863 92.6546C16.0863 93.1891 15.7299 93.5455 15.1954 93.5455Z" fill="#919EAB"/>
<path d="M10.7409 89.0913C10.2063 89.0913 9.84998 88.7349 9.84998 88.2004V79.2913C9.84998 78.7568 10.2063 78.4004 10.7409 78.4004C11.2754 78.4004 11.6318 78.7568 11.6318 79.2913V88.2004C11.6318 88.7349 11.2754 89.0913 10.7409 89.0913Z" fill="#919EAB"/>
<path d="M80.2317 76.6179C80.2317 71.0942 75.2426 66.6396 69.3626 67.8869C65.9771 68.5996 63.3044 71.4506 62.5917 74.8361C62.0571 77.8651 62.948 80.7161 64.7298 82.6761C65.9771 84.1015 66.868 85.8832 66.868 87.6651V88.1997H75.7771V87.6651C75.7771 85.7051 76.6681 83.9232 77.9153 82.4977C79.3408 80.8941 80.2317 78.9342 80.2317 76.6179Z" fill="#0076FF" fill-opacity="0.2"/>
<path d="M75.7771 89.0906H66.868C66.3335 89.0906 65.9771 88.7343 65.9771 88.1997V87.6651C65.9771 86.0615 65.2644 84.4578 64.0171 83.2106C61.8789 80.8942 60.988 77.687 61.7007 74.658C62.4135 70.9161 65.4425 67.887 69.1844 66.996C72.2134 66.2833 75.2425 67.1742 77.3807 68.956C79.6971 70.916 80.9444 73.5888 80.9444 76.6179C80.9444 79.1125 80.0535 81.4287 78.4498 83.2106C77.5589 84.1015 76.4898 85.7051 76.4898 87.6651V88.1997C76.668 88.7343 76.3116 89.0906 75.7771 89.0906ZM67.7589 87.3088H74.8862C75.0644 85.3488 75.7771 83.567 77.2025 81.9634C78.628 80.5379 79.3407 78.5779 79.3407 76.6179C79.3407 74.1234 78.2716 71.9852 76.3116 70.3815C74.3516 68.7779 72.0353 68.2433 69.5407 68.7779C66.5116 69.4906 64.0171 71.9851 63.4826 75.0142C62.948 77.5088 63.6608 80.1815 65.4426 81.9634C66.868 83.567 67.7589 85.3488 67.7589 87.3088Z" fill="#919EAB"/>
<path d="M71.3226 97.9995C68.2935 97.9995 65.9772 95.6831 65.9772 92.654V88.1995C65.9772 87.665 66.3335 87.3086 66.8681 87.3086H75.7772C76.3117 87.3086 76.6681 87.665 76.6681 88.1995V92.654C76.6681 95.505 74.3517 97.9995 71.3226 97.9995ZM67.759 89.0904V92.654C67.759 94.614 69.3626 96.2177 71.3226 96.2177C73.2826 96.2177 74.8863 94.614 74.8863 92.654V89.0904H67.759Z" fill="#919EAB"/>
<path d="M75.7772 93.5455H66.8681C66.3335 93.5455 65.9772 93.1891 65.9772 92.6546C65.9772 92.12 66.3335 91.7637 66.8681 91.7637H75.7772C76.3117 91.7637 76.6681 92.12 76.6681 92.6546C76.6681 93.1891 76.3117 93.5455 75.7772 93.5455Z" fill="#919EAB"/>
<path d="M71.3227 89.0913C70.7881 89.0913 70.4318 88.7349 70.4318 88.2004V79.2913C70.4318 78.7568 70.7881 78.4004 71.3227 78.4004C71.8572 78.4004 72.2136 78.7568 72.2136 79.2913V88.2004C72.2136 88.7349 71.8572 89.0913 71.3227 89.0913Z" fill="#919EAB"/>
<path d="M71.3227 55.2368H10.7409C10.2063 55.2368 9.84998 54.8804 9.84998 54.3459V45.4368C9.84998 44.9023 10.2063 44.5459 10.7409 44.5459C11.2754 44.5459 11.6318 44.9023 11.6318 45.4368V53.455H70.4318V45.4368C70.4318 44.9023 70.7882 44.5459 71.3227 44.5459C71.8572 44.5459 72.2136 44.9023 72.2136 45.4368V54.3459C72.2136 54.8804 71.8572 55.2368 71.3227 55.2368Z" fill="#919EAB"/>
<path d="M41.0318 64.145C40.4972 64.145 40.1409 63.7886 40.1409 63.2541V54.345C40.1409 53.8105 40.4972 53.4541 41.0318 53.4541C41.5663 53.4541 41.9227 53.8105 41.9227 54.345V63.2541C41.9227 63.7886 41.5663 64.145 41.0318 64.145Z" fill="#919EAB"/>
<path d="M32.1227 89.0904H19.6499C19.1154 89.0904 18.759 88.734 18.759 88.1995C18.759 87.665 19.1154 87.3086 19.6499 87.3086H32.1227C32.6572 87.3086 33.0136 87.665 33.0136 88.1995C33.0136 88.734 32.6572 89.0904 32.1227 89.0904Z" fill="#919EAB"/>
<path d="M62.4136 89.0904H49.9408C49.4063 89.0904 49.0499 88.734 49.0499 88.1995C49.0499 87.665 49.4063 87.3086 49.9408 87.3086H62.4136C62.9481 87.3086 63.3045 87.665 63.3045 88.1995C63.3045 88.734 62.9481 89.0904 62.4136 89.0904Z" fill="#919EAB"/>
</g>
</svg>
