<svg width="120" height="86" viewBox="0 0 120 86" fill="none" xmlns="http://www.w3.org/2000/svg">
<path d="M81.5 25.5H65.5C64.9 25.5 64.5 25.1 64.5 24.5V14.5C64.5 13.9 64.9 13.5 65.5 13.5H81.5C82.1 13.5 82.5 13.9 82.5 14.5V24.5C82.5 25 82.1 25.5 81.5 25.5Z" fill="#C7E1FF"/>
<path d="M81.5 26H65.5C64.7 26 64 25.3 64 24.5V14.5C64 13.7 64.7 13 65.5 13H81.5C82.3 13 83 13.7 83 14.5V24.5C83 25.3 82.4 26 81.5 26ZM65.5 14C65.2 14 65 14.2 65 14.5V24.5C65 24.8 65.2 25 65.5 25H81.5C81.8 25 82 24.8 82 24.5V14.5C82 14.2 81.8 14 81.5 14H65.5Z" fill="#919EAB"/>
<path d="M70.8 22.4999C70.7 22.4999 70.5 22.4998 70.4 22.3998L67.9 19.8998C67.7 19.6998 67.7 19.3998 67.9 19.1998L70.4 16.6998C70.6 16.4998 70.9 16.4998 71.1 16.6998C71.3 16.8998 71.3 17.1998 71.1 17.3998L69 19.4999L71.1 21.5998C71.3 21.7998 71.3 22.0998 71.1 22.2998C71 22.3998 70.9 22.4999 70.8 22.4999Z" fill="white"/>
<path d="M76.3 22.4999C76.2 22.4999 76 22.4999 75.9 22.3999C75.7 22.1999 75.7 21.8999 75.9 21.6999L78 19.5999L75.9 17.4999C75.7 17.2999 75.7 16.9999 75.9 16.7999C76.1 16.5999 76.4 16.5999 76.6 16.7999L79.1 19.2999C79.3 19.4999 79.3 19.7999 79.1 19.9999L76.6 22.4999C76.5 22.3999 76.4 22.4999 76.3 22.4999Z" fill="white"/>
<path d="M72.2999 22.9999C72.1999 22.9999 72.2 22.9999 72.1 22.9999C71.8 22.8999 71.6999 22.5999 71.7999 22.2999L74.2999 16.2999C74.3999 15.9999 74.7 15.8999 75 15.9999C75.3 16.0999 75.3999 16.3999 75.2999 16.6999L72.7999 22.6999C72.6999 22.8999 72.4999 22.9999 72.2999 22.9999Z" fill="white"/>
<path d="M57.5 15H42.5C42.2 15 42 14.8 42 14.5C42 14.2 42.2 14 42.5 14H57.5C57.8 14 58 14.2 58 14.5C58 14.8 57.8 15 57.5 15Z" fill="#919EAB"/>
<path d="M57.5 18H42.5C42.2 18 42 17.8 42 17.5C42 17.2 42.2 17 42.5 17H57.5C57.8 17 58 17.2 58 17.5C58 17.8 57.8 18 57.5 18Z" fill="#919EAB"/>
<path d="M50 23H42.5C42.2 23 42 22.8 42 22.5C42 22.2 42.2 22 42.5 22H50C50.3 22 50.5 22.2 50.5 22.5C50.5 22.8 50.3 23 50 23Z" fill="#919EAB"/>
<path d="M57.5 26H42.5C42.2 26 42 25.8 42 25.5C42 25.2 42.2 25 42.5 25H57.5C57.8 25 58 25.2 58 25.5C58 25.8 57.8 26 57.5 26Z" fill="#919EAB"/>
<path d="M57.5 29H42.5C42.2 29 42 28.8 42 28.5C42 28.2 42.2 28 42.5 28H57.5C57.8 28 58 28.2 58 28.5C58 28.8 57.8 29 57.5 29Z" fill="#919EAB"/>
<path d="M50 34H42.5C42.2 34 42 33.8 42 33.5C42 33.2 42.2 33 42.5 33H50C50.3 33 50.5 33.2 50.5 33.5C50.5 33.8 50.3 34 50 34Z" fill="#919EAB"/>
<path d="M65.5 46H40C38.3 46 37 44.7 37 43V5.5C37 5.2 37.2 5 37.5 5H73.5C73.8 5 74 5.2 74 5.5V11.5C74 11.8 73.8 12 73.5 12C73.2 12 73 11.8 73 11.5V6H38V43C38 44.1 38.9 45 40 45H65.5C65.8 45 66 45.2 66 45.5C66 45.8 65.8 46 65.5 46Z" fill="#919EAB"/>
<path d="M73.5 5.5H37.5V3C37.5 1.6 38.6 0.5 40 0.5H71C72.4 0.5 73.5 1.6 73.5 3V5.5Z" fill="#0076FF" fill-opacity="0.29"/>
<path d="M73.5 6H37.5C37.2 6 37 5.8 37 5.5V3C37 1.3 38.3 0 40 0H71C72.7 0 74 1.3 74 3V5.5C74 5.8 73.8 6 73.5 6ZM38 5H73V3C73 1.9 72.1 1 71 1H40C38.9 1 38 1.9 38 3V5Z" fill="#919EAB"/>
<path d="M80.2002 39.5C80.3002 39 80.4002 38.5 80.4002 38C80.4002 37.5 80.3002 37 80.2002 36.5L80.5002 36.3L81.2002 35.7C81.6002 35.4 81.6002 34.9 81.4002 34.4L80.5002 32.9C80.3002 32.5 79.8002 32.3 79.3002 32.5L78.4002 32.8L78.1002 33C77.4002 32.3 76.5002 31.8 75.5002 31.5V31.2L75.3002 30.3C75.2002 29.8 74.8002 29.5 74.3002 29.5H72.5002C72.0002 29.5 71.6002 29.8 71.5002 30.3L71.3002 31.2V31.5C70.3002 31.8 69.5002 32.3 68.7002 33L68.4002 32.8L67.5002 32.5C67.0002 32.3 66.6002 32.5 66.3002 32.9L65.4002 34.4C65.2002 34.8 65.2002 35.3 65.6002 35.7L66.3002 36.3L66.6002 36.5C66.5002 37 66.4002 37.5 66.4002 38C66.4002 38.5 66.5002 39 66.6002 39.5L66.3002 39.7L65.6002 40.3C65.2002 40.6 65.2002 41.1 65.4002 41.6L66.3002 43.1C66.5002 43.5 67.0002 43.7 67.5002 43.5L68.4002 43.2L68.7002 43C69.4002 43.7 70.3002 44.2 71.3002 44.5V44.8L71.5002 45.7C71.6002 46.2 72.0002 46.5 72.5002 46.5H74.3002C74.8002 46.5 75.2002 46.2 75.3002 45.7L75.5002 44.8V44.5C76.5002 44.2 77.3002 43.7 78.1002 43L78.4002 43.2L79.3002 43.5C79.8002 43.7 80.2002 43.5 80.5002 43.1L81.4002 41.6C81.6002 41.2 81.6002 40.7 81.2002 40.3L80.5002 39.7L80.2002 39.5ZM73.6002 41.5C71.7002 41.5 70.1002 39.9 70.1002 38C70.1002 36.1 71.7002 34.5 73.6002 34.5C75.5002 34.5 77.1002 36.1 77.1002 38C77.1002 39.9 75.5002 41.5 73.6002 41.5Z" fill="#BBDBFF"/>
<path d="M74.4001 47H72.6001C71.9001 47 71.3001 46.5 71.1001 45.8L70.9001 44.9C70.1001 44.6 69.4001 44.2 68.8001 43.7L67.9001 44C67.2001 44.2 66.5001 43.9 66.1001 43.3L65.2001 41.8C64.8001 41.2 65.0001 40.4 65.5001 39.9L66.2001 39.3C66.1001 38.9 66.1001 38.5 66.1001 38.1C66.1001 37.7 66.1001 37.3 66.2001 36.9L65.5001 36.3C65.0001 35.8 64.8001 35 65.2001 34.4L66.1001 32.9C66.5001 32.3 67.2001 32 67.9001 32.2L68.8001 32.5C69.5001 32 70.2001 31.5 70.9001 31.3L71.1001 30.4C71.2001 29.7 71.9001 29.2 72.6001 29.2H74.4001C75.1001 29.2 75.7001 29.7 75.9001 30.4L76.1001 31.3C76.9001 31.6 77.6001 32 78.2001 32.5L79.1001 32.2C79.8001 32 80.5001 32.3 80.9001 32.9L81.8001 34.4C82.2001 35 82.0001 35.8 81.5001 36.3L80.8001 36.9C80.9001 37.3 80.9001 37.7 80.9001 38.1C80.9001 38.5 80.9001 38.9 80.8001 39.3L81.5001 39.9C82.0001 40.4 82.2001 41.2 81.8001 41.8L80.9001 43.3C80.5001 43.9 79.8001 44.2 79.1001 44L78.2001 43.7C77.6001 44.2 76.8001 44.7 76.1001 44.9L75.9001 45.8C75.8001 46.5 75.1001 47 74.4001 47ZM68.9001 42.5C69.0001 42.5 69.1001 42.5 69.2001 42.6C69.9001 43.2 70.7001 43.7 71.6001 44C71.8001 44.1 72.0001 44.3 72.0001 44.5V44.8L72.2001 45.6C72.2001 45.8 72.5001 46 72.7001 46H74.5001C74.7001 46 74.9001 45.8 75.0001 45.6L75.2001 44.7V44.5C75.2001 44.3 75.3001 44.1 75.6001 44C76.5001 43.7 77.3001 43.3 78.0001 42.6C78.2001 42.5 78.4001 42.4 78.6001 42.5L78.9001 42.7L79.7001 43C79.9001 43.1 80.2001 43 80.3001 42.8L81.2001 41.3C81.3001 41.1 81.3001 40.8 81.1001 40.7L80.4001 40.1L80.2001 40C80.0001 39.9 79.9001 39.7 80.0001 39.5C80.1001 39 80.2001 38.6 80.2001 38.1C80.2001 37.6 80.1001 37.2 80.0001 36.7C80.0001 36.5 80.0001 36.3 80.2001 36.2L80.5001 36L81.1001 35.5C81.3001 35.3 81.3001 35.1 81.2001 34.9L80.3001 33.4C80.2001 33.2 79.9001 33.1 79.7001 33.2L78.8001 33.5L78.6001 33.6C78.4001 33.7 78.2001 33.7 78.0001 33.5C77.3001 32.9 76.5001 32.4 75.6001 32.1C75.4001 32 75.2001 31.8 75.2001 31.6V31.3L75.0001 30.5C75.0001 30.3 74.7001 30.1 74.5001 30.1H72.7001C72.5001 30.1 72.3001 30.3 72.2001 30.5L72.0001 31.4V31.6C72.0001 31.8 71.9001 32 71.6001 32.1C70.7001 32.4 69.9001 32.8 69.2001 33.5C69.0001 33.6 68.8001 33.7 68.6001 33.6L68.3001 33.4L67.5001 33.1C67.3001 33 67.0001 33.1 66.9001 33.3L66.0001 34.8C65.9001 35 65.9001 35.3 66.1001 35.4L66.8001 36L67.0001 36.1C67.2001 36.2 67.3001 36.4 67.2001 36.6C67.1001 37.1 67.0001 37.5 67.0001 38C67.0001 38.5 67.1001 38.9 67.2001 39.4C67.2001 39.6 67.2001 39.8 67.0001 39.9L66.7001 40.1L66.1001 40.6C65.9001 40.8 65.9001 41 66.0001 41.2L66.9001 42.7C67.0001 42.9 67.3001 43 67.5001 42.9L68.4001 42.6L68.6001 42.5C68.7001 42.5 68.8001 42.5 68.9001 42.5ZM73.6001 42C71.4001 42 69.6001 40.2 69.6001 38C69.6001 35.8 71.4001 34 73.6001 34C75.8001 34 77.6001 35.8 77.6001 38C77.6001 40.2 75.8001 42 73.6001 42ZM73.6001 35C71.9001 35 70.6001 36.3 70.6001 38C70.6001 39.7 71.9001 41 73.6001 41C75.3001 41 76.6001 39.7 76.6001 38C76.6001 36.3 75.2001 35 73.6001 35Z" fill="#919EAB"/>
<path d="M34.0402 64.0182H32.7822V68.7773H32.7209L29.4345 64.0182H28.3027V71H29.5675V66.2443H29.6254L32.9152 71H34.0402V64.0182ZM37.6479 71.1023C39.182 71.1023 40.157 70.0216 40.157 68.4023C40.157 66.7795 39.182 65.6955 37.6479 65.6955C36.1138 65.6955 35.1388 66.7795 35.1388 68.4023C35.1388 70.0216 36.1138 71.1023 37.6479 71.1023ZM37.6547 70.1136C36.8058 70.1136 36.3899 69.3568 36.3899 68.3989C36.3899 67.4409 36.8058 66.6739 37.6547 66.6739C38.4899 66.6739 38.9058 67.4409 38.9058 68.3989C38.9058 69.3568 38.4899 70.1136 37.6547 70.1136ZM44.8197 67.9318C44.8197 67.175 45.2766 66.7386 45.9277 66.7386C46.5652 66.7386 46.947 67.158 46.947 67.8568V71H48.1811V67.6659C48.1845 66.4114 47.4686 65.6955 46.3879 65.6955C45.6038 65.6955 45.0652 66.0705 44.8266 66.6534H44.7652V65.7636H43.5857V71H44.8197V67.9318ZM51.7197 71.1023C53.2538 71.1023 54.2288 70.0216 54.2288 68.4023C54.2288 66.7795 53.2538 65.6955 51.7197 65.6955C50.1857 65.6955 49.2107 66.7795 49.2107 68.4023C49.2107 70.0216 50.1857 71.1023 51.7197 71.1023ZM51.7266 70.1136C50.8777 70.1136 50.4618 69.3568 50.4618 68.3989C50.4618 67.4409 50.8777 66.6739 51.7266 66.6739C52.5618 66.6739 52.9777 67.4409 52.9777 68.3989C52.9777 69.3568 52.5618 70.1136 51.7266 70.1136ZM57.891 65.7636H56.8581V64.5091H55.624V65.7636H54.8808V66.7182H55.624V69.6295C55.6172 70.6148 56.3331 71.0989 57.2604 71.0716C57.6115 71.0614 57.8535 70.9932 57.9865 70.9489L57.7785 69.9841C57.7104 70.0011 57.5706 70.0318 57.4172 70.0318C57.107 70.0318 56.8581 69.9227 56.8581 69.425V66.7182H57.891V65.7636ZM61.1851 71.1023C62.4055 71.1023 63.2442 70.5057 63.4624 69.5955L62.3101 69.4659C62.143 69.9091 61.7339 70.1409 61.2021 70.1409C60.4044 70.1409 59.876 69.6159 59.8658 68.7193H63.5135V68.3409C63.5135 66.5034 62.4089 65.6955 61.1203 65.6955C59.6203 65.6955 58.6419 66.7966 58.6419 68.4125C58.6419 70.0557 59.6067 71.1023 61.1851 71.1023ZM59.8692 67.8875C59.9067 67.2193 60.401 66.6568 61.1374 66.6568C61.8464 66.6568 62.3237 67.175 62.3305 67.8875H59.8692ZM64.6121 71H65.8257V70.175H65.8973C66.0916 70.5568 66.4973 71.092 67.3973 71.092C68.6314 71.092 69.5553 70.1136 69.5553 68.3886C69.5553 66.6432 68.6041 65.6955 67.3939 65.6955C66.47 65.6955 66.0848 66.2511 65.8973 66.6295H65.8462V64.0182H64.6121V71ZM65.8223 68.3818C65.8223 67.3659 66.2587 66.708 67.053 66.708C67.8746 66.708 68.2973 67.4068 68.2973 68.3818C68.2973 69.3636 67.8678 70.0795 67.053 70.0795C66.2655 70.0795 65.8223 69.3977 65.8223 68.3818ZM72.8885 71.1023C74.4226 71.1023 75.3976 70.0216 75.3976 68.4023C75.3976 66.7795 74.4226 65.6955 72.8885 65.6955C71.3544 65.6955 70.3794 66.7795 70.3794 68.4023C70.3794 70.0216 71.3544 71.1023 72.8885 71.1023ZM72.8953 70.1136C72.0464 70.1136 71.6305 69.3568 71.6305 68.3989C71.6305 67.4409 72.0464 66.6739 72.8953 66.6739C73.7305 66.6739 74.1464 67.4409 74.1464 68.3989C74.1464 69.3568 73.7305 70.1136 72.8953 70.1136ZM78.7291 71.1023C80.2632 71.1023 81.2382 70.0216 81.2382 68.4023C81.2382 66.7795 80.2632 65.6955 78.7291 65.6955C77.195 65.6955 76.22 66.7795 76.22 68.4023C76.22 70.0216 77.195 71.1023 78.7291 71.1023ZM78.7359 70.1136C77.8871 70.1136 77.4712 69.3568 77.4712 68.3989C77.4712 67.4409 77.8871 66.6739 78.7359 66.6739C79.5712 66.6739 79.9871 67.4409 79.9871 68.3989C79.9871 69.3568 79.5712 70.1136 78.7359 70.1136ZM82.2857 71H83.5197V69.2409L83.9697 68.7602L85.572 71H87.0482L84.9004 68.0239L86.9288 65.7636H85.4868L83.605 67.867H83.5197V64.0182H82.2857V71ZM91.8899 67.1477C91.7195 66.2614 91.0104 65.6955 89.7831 65.6955C88.5217 65.6955 87.6626 66.3159 87.6661 67.2841C87.6626 68.0477 88.1331 68.5523 89.1388 68.7602L90.032 68.9477C90.5126 69.0534 90.7376 69.2477 90.7376 69.5443C90.7376 69.9023 90.349 70.1716 89.7626 70.1716C89.1967 70.1716 88.8286 69.9261 88.7229 69.4557L87.5195 69.5716C87.6729 70.533 88.4808 71.1023 89.7661 71.1023C91.0751 71.1023 91.999 70.4239 92.0024 69.4318C91.999 68.6852 91.5183 68.2284 90.5297 68.0136L89.6365 67.8227C89.1047 67.7034 88.8933 67.5193 88.8967 67.2159C88.8933 66.8614 89.2854 66.6159 89.8001 66.6159C90.3695 66.6159 90.6695 66.9261 90.7649 67.2705L91.8899 67.1477ZM6.7777 78.2C6.51861 76.7682 5.37315 75.9227 3.96861 75.9227C2.18224 75.9227 0.886788 77.3 0.886788 79.5091C0.886788 81.7182 2.18224 83.0955 3.96861 83.0955C5.37315 83.0955 6.51861 82.25 6.7777 80.8182H5.93224C5.7277 81.7864 4.89588 82.3045 3.96861 82.3045C2.70042 82.3045 1.70497 81.3227 1.70497 79.5091C1.70497 77.6955 2.70042 76.7136 3.96861 76.7136C4.89588 76.7136 5.7277 77.2318 5.93224 78.2H6.7777ZM8.0348 83H8.83934V79.6864C8.83934 78.9773 9.39844 78.4591 10.1621 78.4591C10.3768 78.4591 10.5984 78.5 10.653 78.5136V77.6955C10.5609 77.6886 10.3496 77.6818 10.2303 77.6818C9.60298 77.6818 9.05753 78.0364 8.86662 78.5545H8.81207V77.7636H8.0348V83ZM13.6428 83.1091C14.7064 83.1091 15.4837 82.5773 15.7291 81.7864L14.9518 81.5682C14.7473 82.1136 14.2734 82.3864 13.6428 82.3864C12.6984 82.3864 12.0473 81.7761 12.0098 80.6545H15.8109V80.3136C15.8109 78.3636 14.6518 77.6955 13.5609 77.6955C12.1428 77.6955 11.2018 78.8136 11.2018 80.4227C11.2018 82.0318 12.1291 83.1091 13.6428 83.1091ZM12.0098 79.9591C12.0643 79.1443 12.6405 78.4182 13.5609 78.4182C14.4337 78.4182 14.9928 79.0727 14.9928 79.9591H12.0098ZM18.5757 83.1227C19.4893 83.1227 19.9666 82.6318 20.1303 82.2909H20.1712V83H20.9757V79.55C20.9757 77.8864 19.7075 77.6955 19.0393 77.6955C18.2484 77.6955 17.3484 77.9682 16.9393 78.9227L17.703 79.1955C17.8803 78.8136 18.2996 78.4045 19.0666 78.4045C19.8064 78.4045 20.1712 78.7966 20.1712 79.4682V79.4955C20.1712 79.8841 19.7757 79.85 18.8212 79.9727C17.8496 80.0989 16.7893 80.3136 16.7893 81.5136C16.7893 82.5364 17.5803 83.1227 18.5757 83.1227ZM18.6984 82.4C18.0575 82.4 17.5939 82.1136 17.5939 81.5545C17.5939 80.9409 18.153 80.75 18.7803 80.6682C19.1212 80.6273 20.0348 80.5318 20.1712 80.3682V81.1045C20.1712 81.7591 19.653 82.4 18.6984 82.4ZM24.7214 77.7636H23.6033V76.5091H22.7987V77.7636H22.0078V78.4455H22.7987V81.7182C22.7987 82.6318 23.5351 83.0682 24.2169 83.0682C24.5169 83.0682 24.7078 83.0136 24.8169 82.9727L24.6533 82.25C24.5851 82.2636 24.476 82.2909 24.2987 82.2909C23.9442 82.2909 23.6033 82.1818 23.6033 81.5V78.4455H24.7214V77.7636ZM28.0709 83.1091C29.1345 83.1091 29.9118 82.5773 30.1572 81.7864L29.38 81.5682C29.1754 82.1136 28.7016 82.3864 28.0709 82.3864C27.1266 82.3864 26.4754 81.7761 26.4379 80.6545H30.2391V80.3136C30.2391 78.3636 29.08 77.6955 27.9891 77.6955C26.5709 77.6955 25.63 78.8136 25.63 80.4227C25.63 82.0318 26.5572 83.1091 28.0709 83.1091ZM26.4379 79.9591C26.4925 79.1443 27.0686 78.4182 27.9891 78.4182C28.8618 78.4182 29.4209 79.0727 29.4209 79.9591H26.4379ZM34.6811 84.9636C35.4072 84.9636 35.9186 84.5784 36.222 83.7636L38.4516 77.7773L37.572 77.7636L36.1266 81.9364H36.072L34.6266 77.7636H33.7538L35.6902 83.0273L35.5402 83.4364C35.247 84.2341 34.8857 84.3091 34.2993 84.1591L34.0947 84.8682C34.1766 84.9091 34.4084 84.9636 34.6811 84.9636ZM41.4558 83.1091C42.874 83.1091 43.8285 82.0318 43.8285 80.4091C43.8285 78.7727 42.874 77.6955 41.4558 77.6955C40.0376 77.6955 39.0831 78.7727 39.0831 80.4091C39.0831 82.0318 40.0376 83.1091 41.4558 83.1091ZM41.4558 82.3864C40.3785 82.3864 39.8876 81.4591 39.8876 80.4091C39.8876 79.3591 40.3785 78.4182 41.4558 78.4182C42.5331 78.4182 43.024 79.3591 43.024 80.4091C43.024 81.4591 42.5331 82.3864 41.4558 82.3864ZM48.3567 80.8591C48.3567 81.8409 47.6067 82.2909 47.0067 82.2909C46.3385 82.2909 45.8612 81.8 45.8612 81.0364V77.7636H45.0567V81.0909C45.0567 82.4273 45.7658 83.0682 46.7476 83.0682C47.5385 83.0682 48.0567 82.6455 48.3021 82.1136H48.3567V83H49.1612V77.7636H48.3567V80.8591ZM50.6348 83H51.4393V79.6864C51.4393 78.9773 51.9984 78.4591 52.7621 78.4591C52.9768 78.4591 53.1984 78.5 53.253 78.5136V77.6955C53.1609 77.6886 52.9496 77.6818 52.8303 77.6818C52.203 77.6818 51.6575 78.0364 51.4666 78.5545H51.4121V77.7636H50.6348V83ZM59.2385 77.7636H58.0658V77.2318C58.0658 76.7136 58.2839 76.4409 58.8158 76.4409C59.0476 76.4409 59.1839 76.4955 59.2658 76.5227L59.4976 75.8273C59.3749 75.7727 59.1294 75.6909 58.7339 75.6909C57.9839 75.6909 57.2612 76.1409 57.2612 77.0409V77.7636H56.4158V78.4455H57.2612V83H58.0658V78.4455H59.2385V77.7636ZM60.3661 83H61.1706V77.7636H60.3661V83ZM60.7751 76.8909C61.0888 76.8909 61.3479 76.6455 61.3479 76.3455C61.3479 76.0455 61.0888 75.8 60.7751 75.8C60.4615 75.8 60.2024 76.0455 60.2024 76.3455C60.2024 76.6455 60.4615 76.8909 60.7751 76.8909ZM62.6442 83H63.4487V79.6864C63.4487 78.9773 64.0078 78.4591 64.7714 78.4591C64.9862 78.4591 65.2078 78.5 65.2624 78.5136V77.6955C65.1703 77.6886 64.9589 77.6818 64.8396 77.6818C64.2124 77.6818 63.6669 78.0364 63.476 78.5545H63.4214V77.7636H62.6442V83ZM69.9251 78.9364C69.6729 78.1932 69.107 77.6955 68.0706 77.6955C66.9661 77.6955 66.1479 78.3227 66.1479 79.2091C66.1479 79.9318 66.5774 80.4159 67.5388 80.6409L68.4115 80.8455C68.9399 80.9682 69.1888 81.2205 69.1888 81.5818C69.1888 82.0318 68.7115 82.4 67.9615 82.4C67.3036 82.4 66.8911 82.117 66.7479 81.5545L65.9842 81.7455C66.1717 82.6352 66.9047 83.1091 67.9751 83.1091C69.1922 83.1091 70.0206 82.4443 70.0206 81.5409C70.0206 80.8114 69.5638 80.3511 68.6297 80.1227L67.8524 79.9318C67.232 79.7784 66.9524 79.5705 66.9524 79.1682C66.9524 78.7182 67.4297 78.3909 68.0706 78.3909C68.7729 78.3909 69.0626 78.7795 69.2024 79.1409L69.9251 78.9364ZM73.509 77.7636H72.3908V76.5091H71.5862V77.7636H70.7953V78.4455H71.5862V81.7182C71.5862 82.6318 72.3226 83.0682 73.0044 83.0682C73.3044 83.0682 73.4953 83.0136 73.6044 82.9727L73.4408 82.25C73.3726 82.2636 73.2635 82.2909 73.0862 82.2909C72.7317 82.2909 72.3908 82.1818 72.3908 81.5V78.4455H73.509V77.7636ZM78.2237 79.85C78.2237 78.9364 78.7896 78.4182 79.5601 78.4182C80.3067 78.4182 80.7601 78.9057 80.7601 79.7273V83H81.5646V79.6727C81.5646 78.3364 80.8521 77.6955 79.7919 77.6955C79.001 77.6955 78.5101 78.05 78.2646 78.5818H78.1965V77.7636H77.4192V83H78.2237V79.85ZM85.1621 83.1091C86.5802 83.1091 87.5348 82.0318 87.5348 80.4091C87.5348 78.7727 86.5802 77.6955 85.1621 77.6955C83.7439 77.6955 82.7893 78.7727 82.7893 80.4091C82.7893 82.0318 83.7439 83.1091 85.1621 83.1091ZM85.1621 82.3864C84.0848 82.3864 83.5939 81.4591 83.5939 80.4091C83.5939 79.3591 84.0848 78.4182 85.1621 78.4182C86.2393 78.4182 86.7302 79.3591 86.7302 80.4091C86.7302 81.4591 86.2393 82.3864 85.1621 82.3864ZM91.0402 77.7636H89.922V76.5091H89.1175V77.7636H88.3266V78.4455H89.1175V81.7182C89.1175 82.6318 89.8538 83.0682 90.5357 83.0682C90.8357 83.0682 91.0266 83.0136 91.1357 82.9727L90.972 82.25C90.9038 82.2636 90.7947 82.2909 90.6175 82.2909C90.2629 82.2909 89.922 82.1818 89.922 81.5V78.4455H91.0402V77.7636ZM94.3896 83.1091C95.4533 83.1091 96.2305 82.5773 96.476 81.7864L95.6987 81.5682C95.4942 82.1136 95.0203 82.3864 94.3896 82.3864C93.4453 82.3864 92.7942 81.7761 92.7567 80.6545H96.5578V80.3136C96.5578 78.3636 95.3987 77.6955 94.3078 77.6955C92.8896 77.6955 91.9487 78.8136 91.9487 80.4227C91.9487 82.0318 92.876 83.1091 94.3896 83.1091ZM92.7567 79.9591C92.8112 79.1443 93.3874 78.4182 94.3078 78.4182C95.1805 78.4182 95.7396 79.0727 95.7396 79.9591H92.7567ZM97.8908 83H98.668V82.1955H98.7635C98.9408 82.4818 99.2817 83.1091 100.291 83.1091C101.6 83.1091 102.514 82.0591 102.514 80.3955C102.514 78.7455 101.6 77.6955 100.277 77.6955C99.2544 77.6955 98.9408 78.3227 98.7635 78.5955H98.6953V76.0182H97.8908V83ZM98.6817 80.3818C98.6817 79.2091 99.1999 78.4182 100.182 78.4182C101.204 78.4182 101.709 79.2773 101.709 80.3818C101.709 81.5 101.191 82.3864 100.182 82.3864C99.2135 82.3864 98.6817 81.5682 98.6817 80.3818ZM105.871 83.1091C107.29 83.1091 108.244 82.0318 108.244 80.4091C108.244 78.7727 107.29 77.6955 105.871 77.6955C104.453 77.6955 103.499 78.7727 103.499 80.4091C103.499 82.0318 104.453 83.1091 105.871 83.1091ZM105.871 82.3864C104.794 82.3864 104.303 81.4591 104.303 80.4091C104.303 79.3591 104.794 78.4182 105.871 78.4182C106.949 78.4182 107.44 79.3591 107.44 80.4091C107.44 81.4591 106.949 82.3864 105.871 82.3864ZM111.6 83.1091C113.018 83.1091 113.972 82.0318 113.972 80.4091C113.972 78.7727 113.018 77.6955 111.6 77.6955C110.181 77.6955 109.227 78.7727 109.227 80.4091C109.227 82.0318 110.181 83.1091 111.6 83.1091ZM111.6 82.3864C110.522 82.3864 110.031 81.4591 110.031 80.4091C110.031 79.3591 110.522 78.4182 111.6 78.4182C112.677 78.4182 113.168 79.3591 113.168 80.4091C113.168 81.4591 112.677 82.3864 111.6 82.3864ZM115.2 83H116.005V81.0398L116.567 80.5182L118.528 83H119.55L117.174 80L119.387 77.7636H118.391L116.1 80.0955H116.005V76.0182H115.2V83Z" fill="#AEB8C2"/>
</svg>
