<svg width="103" height="98" viewBox="0 0 103 98" fill="none" xmlns="http://www.w3.org/2000/svg">
<g opacity="0.3">
<path d="M101.596 93.5046H0.899083C0.359633 93.5046 0 93.145 0 92.6055V0.899083C0 0.359633 0.359633 0 0.899083 0C1.43853 0 1.79817 0.359633 1.79817 0.899083V91.7064H101.596C102.136 91.7064 102.495 92.0661 102.495 92.6055C102.495 93.145 102.136 93.5046 101.596 93.5046Z" fill="#919EAB"/>
<path d="M0.898926 40.4586V26.0732H71.0274C72.1063 26.0732 72.8255 26.7925 72.8255 27.8714V38.6604C72.8255 39.7393 72.1063 40.4586 71.0274 40.4586H0.898926Z" fill="#E1EDFF"/>
<path d="M71.0275 41.3573H0.899083C0.359633 41.3573 0 40.9977 0 40.4582V26.0729C0 25.5335 0.359633 25.1738 0.899083 25.1738H71.0275C72.466 25.1738 73.7248 26.4325 73.7248 27.8711V38.6601C73.7248 40.2784 72.6459 41.3573 71.0275 41.3573ZM1.79817 39.5591H71.0275C71.567 39.5591 71.9266 39.1995 71.9266 38.6601V27.8711C71.9266 27.3316 71.567 26.972 71.0275 26.972H1.79817V39.5591Z" fill="#919EAB"/>
<path d="M0.898926 83.6148V69.2295H59.3393C60.4182 69.2295 61.1375 69.9488 61.1375 71.0277V81.8166C61.1375 82.8955 60.4182 83.6148 59.3393 83.6148H0.898926Z" fill="#0076FF" fill-opacity="0.2"/>
<path d="M59.3394 84.5136H0.899083C0.359633 84.5136 0 84.1539 0 83.6145V69.2292C0 68.6897 0.359633 68.3301 0.899083 68.3301H59.3394C60.778 68.3301 62.0367 69.5888 62.0367 71.0273V81.8163C62.0367 83.4347 60.9578 84.5136 59.3394 84.5136ZM1.79817 82.7154H59.3394C59.8789 82.7154 60.2385 82.3558 60.2385 81.8163V71.0273C60.2385 70.4879 59.8789 70.1282 59.3394 70.1282H1.79817V82.7154Z" fill="#919EAB"/>
<path d="M0.898926 62.0367V47.6514H84.5136C85.5925 47.6514 86.3118 48.3706 86.3118 49.4495V60.2385C86.3118 61.3174 85.5925 62.0367 84.5136 62.0367H0.898926Z" fill="#B2D2FF"/>
<path d="M84.5138 62.9354H0.899083C0.359633 62.9354 0 62.5758 0 62.0364V47.651C0 47.1116 0.359633 46.752 0.899083 46.752H84.5138C85.9523 46.752 87.211 48.0107 87.211 49.4492V60.2382C87.211 61.8565 86.1321 62.9354 84.5138 62.9354ZM1.79817 61.1373H84.5138C85.0532 61.1373 85.4128 60.7776 85.4128 60.2382V49.4492C85.4128 48.9098 85.0532 48.5501 84.5138 48.5501H1.79817V61.1373Z" fill="#919EAB"/>
<path d="M15.2843 97.9996C14.7449 97.9996 14.3853 97.64 14.3853 97.1006V92.6051C14.3853 92.0657 14.7449 91.7061 15.2843 91.7061C15.8238 91.7061 16.1834 92.0657 16.1834 92.6051V97.1006C16.1834 97.64 15.8238 97.9996 15.2843 97.9996Z" fill="#919EAB"/>
<path d="M33.2663 97.9996C32.7268 97.9996 32.3672 97.64 32.3672 97.1006V92.6051C32.3672 92.0657 32.7268 91.7061 33.2663 91.7061C33.8057 91.7061 34.1654 92.0657 34.1654 92.6051V97.1006C34.1654 97.64 33.8057 97.9996 33.2663 97.9996Z" fill="#919EAB"/>
<path d="M51.2477 97.9996C50.7083 97.9996 50.3486 97.64 50.3486 97.1006V92.6051C50.3486 92.0657 50.7083 91.7061 51.2477 91.7061C51.7872 91.7061 52.1468 92.0657 52.1468 92.6051V97.1006C52.1468 97.64 51.7872 97.9996 51.2477 97.9996Z" fill="#919EAB"/>
<path d="M69.2292 97.9996C68.6897 97.9996 68.3301 97.64 68.3301 97.1006V92.6051C68.3301 92.0657 68.6897 91.7061 69.2292 91.7061C69.7686 91.7061 70.1282 92.0657 70.1282 92.6051V97.1006C70.1282 97.64 69.7686 97.9996 69.2292 97.9996Z" fill="#919EAB"/>
<path d="M87.2111 97.9996C86.6716 97.9996 86.312 97.64 86.312 97.1006V92.6051C86.312 92.0657 86.6716 91.7061 87.2111 91.7061C87.7505 91.7061 88.1102 92.0657 88.1102 92.6051V97.1006C88.1102 97.64 87.7505 97.9996 87.2111 97.9996Z" fill="#919EAB"/>
</g>
</svg>
