<svg width="121" height="104" viewBox="0 0 121 104" fill="none" xmlns="http://www.w3.org/2000/svg">
<path d="M32.5152 82.0182H31.2572V86.7773H31.1959L27.9095 82.0182H26.7777V89H28.0425V84.2443H28.1004L31.3902 89H32.5152V82.0182ZM36.1229 89.1023C37.657 89.1023 38.632 88.0216 38.632 86.4023C38.632 84.7795 37.657 83.6955 36.1229 83.6955C34.5888 83.6955 33.6138 84.7795 33.6138 86.4023C33.6138 88.0216 34.5888 89.1023 36.1229 89.1023ZM36.1297 88.1136C35.2808 88.1136 34.8649 87.3568 34.8649 86.3989C34.8649 85.4409 35.2808 84.6739 36.1297 84.6739C36.9649 84.6739 37.3808 85.4409 37.3808 86.3989C37.3808 87.3568 36.9649 88.1136 36.1297 88.1136ZM47.8527 82.0182H46.5947V86.7773H46.5334L43.247 82.0182H42.1152V89H43.38V84.2443H43.4379L46.7277 89H47.8527V82.0182ZM51.4604 89.1023C52.9945 89.1023 53.9695 88.0216 53.9695 86.4023C53.9695 84.7795 52.9945 83.6955 51.4604 83.6955C49.9263 83.6955 48.9513 84.7795 48.9513 86.4023C48.9513 88.0216 49.9263 89.1023 51.4604 89.1023ZM51.4672 88.1136C50.6183 88.1136 50.2024 87.3568 50.2024 86.3989C50.2024 85.4409 50.6183 84.6739 51.4672 84.6739C52.3024 84.6739 52.7183 85.4409 52.7183 86.3989C52.7183 87.3568 52.3024 88.1136 51.4672 88.1136ZM57.6317 83.7636H56.5987V82.5091H55.3646V83.7636H54.6214V84.7182H55.3646V87.6295C55.3578 88.6148 56.0737 89.0989 57.001 89.0716C57.3521 89.0614 57.5942 88.9932 57.7271 88.9489L57.5192 87.9841C57.451 88.0011 57.3112 88.0318 57.1578 88.0318C56.8476 88.0318 56.5987 87.9227 56.5987 87.425V84.7182H57.6317V83.7636ZM60.9257 89.1023C62.1462 89.1023 62.9848 88.5057 63.203 87.5955L62.0507 87.4659C61.8837 87.9091 61.4746 88.1409 60.9428 88.1409C60.145 88.1409 59.6166 87.6159 59.6064 86.7193H63.2541V86.3409C63.2541 84.5034 62.1496 83.6955 60.8609 83.6955C59.3609 83.6955 58.3825 84.7966 58.3825 86.4125C58.3825 88.0557 59.3473 89.1023 60.9257 89.1023ZM59.6098 85.8875C59.6473 85.2193 60.1416 84.6568 60.878 84.6568C61.5871 84.6568 62.0643 85.175 62.0712 85.8875H59.6098ZM64.3527 89H65.5663V88.175H65.6379C65.8322 88.5568 66.2379 89.092 67.1379 89.092C68.372 89.092 69.2959 88.1136 69.2959 86.3886C69.2959 84.6432 68.3447 83.6955 67.1345 83.6955C66.2107 83.6955 65.8254 84.2511 65.6379 84.6295H65.5868V82.0182H64.3527V89ZM65.5629 86.3818C65.5629 85.3659 65.9993 84.708 66.7936 84.708C67.6152 84.708 68.0379 85.4068 68.0379 86.3818C68.0379 87.3636 67.6084 88.0795 66.7936 88.0795C66.0061 88.0795 65.5629 87.3977 65.5629 86.3818ZM72.6291 89.1023C74.1632 89.1023 75.1382 88.0216 75.1382 86.4023C75.1382 84.7795 74.1632 83.6955 72.6291 83.6955C71.095 83.6955 70.12 84.7795 70.12 86.4023C70.12 88.0216 71.095 89.1023 72.6291 89.1023ZM72.6359 88.1136C71.7871 88.1136 71.3712 87.3568 71.3712 86.3989C71.3712 85.4409 71.7871 84.6739 72.6359 84.6739C73.4712 84.6739 73.8871 85.4409 73.8871 86.3989C73.8871 87.3568 73.4712 88.1136 72.6359 88.1136ZM78.4697 89.1023C80.0038 89.1023 80.9788 88.0216 80.9788 86.4023C80.9788 84.7795 80.0038 83.6955 78.4697 83.6955C76.9357 83.6955 75.9607 84.7795 75.9607 86.4023C75.9607 88.0216 76.9357 89.1023 78.4697 89.1023ZM78.4766 88.1136C77.6277 88.1136 77.2118 87.3568 77.2118 86.3989C77.2118 85.4409 77.6277 84.6739 78.4766 84.6739C79.3118 84.6739 79.7277 85.4409 79.7277 86.3989C79.7277 87.3568 79.3118 88.1136 78.4766 88.1136ZM82.0263 89H83.2604V87.2409L83.7104 86.7602L85.3126 89H86.7888L84.6411 86.0239L86.6695 83.7636H85.2274L83.3456 85.867H83.2604V82.0182H82.0263V89ZM91.6305 85.1477C91.4601 84.2614 90.751 83.6955 89.5237 83.6955C88.2624 83.6955 87.4033 84.3159 87.4067 85.2841C87.4033 86.0477 87.8737 86.5523 88.8794 86.7602L89.7726 86.9477C90.2533 87.0534 90.4783 87.2477 90.4783 87.5443C90.4783 87.9023 90.0896 88.1716 89.5033 88.1716C88.9374 88.1716 88.5692 87.9261 88.4635 87.4557L87.2601 87.5716C87.4135 88.533 88.2215 89.1023 89.5067 89.1023C90.8158 89.1023 91.7396 88.4239 91.743 87.4318C91.7396 86.6852 91.259 86.2284 90.2703 86.0136L89.3771 85.8227C88.8453 85.7034 88.634 85.5193 88.6374 85.2159C88.634 84.8614 89.026 84.6159 89.5408 84.6159C90.1101 84.6159 90.4101 84.9261 90.5055 85.2705L91.6305 85.1477ZM93.5209 89.075C93.9232 89.075 94.2675 88.7409 94.2709 88.325C94.2675 87.9159 93.9232 87.5818 93.5209 87.5818C93.105 87.5818 92.7675 87.9159 92.7709 88.325C92.7675 88.7409 93.105 89.075 93.5209 89.075ZM6.47145 96.2C6.21236 94.7682 5.0669 93.9227 3.66236 93.9227C1.87599 93.9227 0.58054 95.3 0.58054 97.5091C0.58054 99.7182 1.87599 101.095 3.66236 101.095C5.0669 101.095 6.21236 100.25 6.47145 98.8182H5.62599C5.42145 99.7864 4.58963 100.305 3.66236 100.305C2.39418 100.305 1.39872 99.3227 1.39872 97.5091C1.39872 95.6955 2.39418 94.7136 3.66236 94.7136C4.58963 94.7136 5.42145 95.2318 5.62599 96.2H6.47145ZM7.72855 101H8.5331V97.6864C8.5331 96.9773 9.09219 96.4591 9.85582 96.4591C10.0706 96.4591 10.2922 96.5 10.3467 96.5136V95.6955C10.2547 95.6886 10.0433 95.6818 9.92401 95.6818C9.29673 95.6818 8.75128 96.0364 8.56037 96.5545H8.50582V95.7636H7.72855V101ZM13.3365 101.109C14.4001 101.109 15.1774 100.577 15.4229 99.7864L14.6456 99.5682C14.4411 100.114 13.9672 100.386 13.3365 100.386C12.3922 100.386 11.7411 99.7761 11.7036 98.6545H15.5047V98.3136C15.5047 96.3636 14.3456 95.6955 13.2547 95.6955C11.8365 95.6955 10.8956 96.8136 10.8956 98.4227C10.8956 100.032 11.8229 101.109 13.3365 101.109ZM11.7036 97.9591C11.7581 97.1443 12.3342 96.4182 13.2547 96.4182C14.1274 96.4182 14.6865 97.0727 14.6865 97.9591H11.7036ZM18.2695 101.123C19.1831 101.123 19.6604 100.632 19.824 100.291H19.8649V101H20.6695V97.55C20.6695 95.8864 19.4013 95.6955 18.7331 95.6955C17.9422 95.6955 17.0422 95.9682 16.6331 96.9227L17.3967 97.1955C17.574 96.8136 17.9933 96.4045 18.7604 96.4045C19.5001 96.4045 19.8649 96.7966 19.8649 97.4682V97.4955C19.8649 97.8841 19.4695 97.85 18.5149 97.9727C17.5433 98.0989 16.4831 98.3136 16.4831 99.5136C16.4831 100.536 17.274 101.123 18.2695 101.123ZM18.3922 100.4C17.7513 100.4 17.2876 100.114 17.2876 99.5545C17.2876 98.9409 17.8467 98.75 18.474 98.6682C18.8149 98.6273 19.7286 98.5318 19.8649 98.3682V99.1045C19.8649 99.7591 19.3467 100.4 18.3922 100.4ZM24.4152 95.7636H23.297V94.5091H22.4925V95.7636H21.7016V96.4455H22.4925V99.7182C22.4925 100.632 23.2288 101.068 23.9107 101.068C24.2107 101.068 24.4016 101.014 24.5107 100.973L24.347 100.25C24.2788 100.264 24.1697 100.291 23.9925 100.291C23.6379 100.291 23.297 100.182 23.297 99.5V96.4455H24.4152V95.7636ZM27.7646 101.109C28.8283 101.109 29.6055 100.577 29.851 99.7864L29.0737 99.5682C28.8692 100.114 28.3953 100.386 27.7646 100.386C26.8203 100.386 26.1692 99.7761 26.1317 98.6545H29.9328V98.3136C29.9328 96.3636 28.7737 95.6955 27.6828 95.6955C26.2646 95.6955 25.3237 96.8136 25.3237 98.4227C25.3237 100.032 26.251 101.109 27.7646 101.109ZM26.1317 97.9591C26.1862 97.1443 26.7624 96.4182 27.6828 96.4182C28.5555 96.4182 29.1146 97.0727 29.1146 97.9591H26.1317ZM34.3749 102.964C35.101 102.964 35.6124 102.578 35.9158 101.764L38.1453 95.7773L37.2658 95.7636L35.8203 99.9364H35.7658L34.3203 95.7636H33.4476L35.384 101.027L35.234 101.436C34.9408 102.234 34.5794 102.309 33.993 102.159L33.7885 102.868C33.8703 102.909 34.1021 102.964 34.3749 102.964ZM41.1496 101.109C42.5678 101.109 43.5223 100.032 43.5223 98.4091C43.5223 96.7727 42.5678 95.6955 41.1496 95.6955C39.7314 95.6955 38.7768 96.7727 38.7768 98.4091C38.7768 100.032 39.7314 101.109 41.1496 101.109ZM41.1496 100.386C40.0723 100.386 39.5814 99.4591 39.5814 98.4091C39.5814 97.3591 40.0723 96.4182 41.1496 96.4182C42.2268 96.4182 42.7178 97.3591 42.7178 98.4091C42.7178 99.4591 42.2268 100.386 41.1496 100.386ZM48.0504 98.8591C48.0504 99.8409 47.3004 100.291 46.7004 100.291C46.0322 100.291 45.555 99.8 45.555 99.0364V95.7636H44.7504V99.0909C44.7504 100.427 45.4595 101.068 46.4413 101.068C47.2322 101.068 47.7504 100.645 47.9959 100.114H48.0504V101H48.855V95.7636H48.0504V98.8591ZM50.3286 101H51.1331V97.6864C51.1331 96.9773 51.6922 96.4591 52.4558 96.4591C52.6706 96.4591 52.8922 96.5 52.9467 96.5136V95.6955C52.8547 95.6886 52.6433 95.6818 52.524 95.6818C51.8967 95.6818 51.3513 96.0364 51.1604 96.5545H51.1058V95.7636H50.3286V101ZM58.9322 95.7636H57.7595V95.2318C57.7595 94.7136 57.9777 94.4409 58.5095 94.4409C58.7413 94.4409 58.8777 94.4955 58.9595 94.5227L59.1913 93.8273C59.0686 93.7727 58.8232 93.6909 58.4277 93.6909C57.6777 93.6909 56.955 94.1409 56.955 95.0409V95.7636H56.1095V96.4455H56.955V101H57.7595V96.4455H58.9322V95.7636ZM60.0598 101H60.8643V95.7636H60.0598V101ZM60.4689 94.8909C60.7825 94.8909 61.0416 94.6455 61.0416 94.3455C61.0416 94.0455 60.7825 93.8 60.4689 93.8C60.1553 93.8 59.8962 94.0455 59.8962 94.3455C59.8962 94.6455 60.1553 94.8909 60.4689 94.8909ZM62.3379 101H63.1425V97.6864C63.1425 96.9773 63.7016 96.4591 64.4652 96.4591C64.68 96.4591 64.9016 96.5 64.9561 96.5136V95.6955C64.8641 95.6886 64.6527 95.6818 64.5334 95.6818C63.9061 95.6818 63.3607 96.0364 63.1697 96.5545H63.1152V95.7636H62.3379V101ZM69.6189 96.9364C69.3666 96.1932 68.8007 95.6955 67.7643 95.6955C66.6598 95.6955 65.8416 96.3227 65.8416 97.2091C65.8416 97.9318 66.2712 98.4159 67.2325 98.6409L68.1053 98.8455C68.6337 98.9682 68.8825 99.2205 68.8825 99.5818C68.8825 100.032 68.4053 100.4 67.6553 100.4C66.9973 100.4 66.5848 100.117 66.4416 99.5545L65.678 99.7455C65.8655 100.635 66.5984 101.109 67.6689 101.109C68.8859 101.109 69.7143 100.444 69.7143 99.5409C69.7143 98.8114 69.2575 98.3511 68.3234 98.1227L67.5462 97.9318C66.9257 97.7784 66.6462 97.5705 66.6462 97.1682C66.6462 96.7182 67.1234 96.3909 67.7643 96.3909C68.4666 96.3909 68.7564 96.7795 68.8962 97.1409L69.6189 96.9364ZM73.2027 95.7636H72.0845V94.5091H71.28V95.7636H70.4891V96.4455H71.28V99.7182C71.28 100.632 72.0163 101.068 72.6982 101.068C72.9982 101.068 73.1891 101.014 73.2982 100.973L73.1345 100.25C73.0663 100.264 72.9572 100.291 72.78 100.291C72.4254 100.291 72.0845 100.182 72.0845 99.5V96.4455H73.2027V95.7636ZM82.7584 94.0182H81.9266V99.5136H81.8584L78.0402 94.0182H77.222V101H78.0675V95.5182H78.1357L81.9402 101H82.7584V94.0182ZM86.4683 101.109C87.8865 101.109 88.8411 100.032 88.8411 98.4091C88.8411 96.7727 87.8865 95.6955 86.4683 95.6955C85.0501 95.6955 84.0956 96.7727 84.0956 98.4091C84.0956 100.032 85.0501 101.109 86.4683 101.109ZM86.4683 100.386C85.3911 100.386 84.9001 99.4591 84.9001 98.4091C84.9001 97.3591 85.3911 96.4182 86.4683 96.4182C87.5456 96.4182 88.0365 97.3591 88.0365 98.4091C88.0365 99.4591 87.5456 100.386 86.4683 100.386ZM92.3465 95.7636H91.2283V94.5091H90.4237V95.7636H89.6328V96.4455H90.4237V99.7182C90.4237 100.632 91.1601 101.068 91.8419 101.068C92.1419 101.068 92.3328 101.014 92.4419 100.973L92.2783 100.25C92.2101 100.264 92.101 100.291 91.9237 100.291C91.5692 100.291 91.2283 100.182 91.2283 99.5V96.4455H92.3465V95.7636ZM95.6959 101.109C96.7595 101.109 97.5368 100.577 97.7823 99.7864L97.005 99.5682C96.8004 100.114 96.3266 100.386 95.6959 100.386C94.7516 100.386 94.1004 99.7761 94.0629 98.6545H97.8641V98.3136C97.8641 96.3636 96.705 95.6955 95.6141 95.6955C94.1959 95.6955 93.255 96.8136 93.255 98.4227C93.255 100.032 94.1823 101.109 95.6959 101.109ZM94.0629 97.9591C94.1175 97.1443 94.6936 96.4182 95.6141 96.4182C96.4868 96.4182 97.0459 97.0727 97.0459 97.9591H94.0629ZM99.197 101H99.9743V100.195H100.07C100.247 100.482 100.588 101.109 101.597 101.109C102.906 101.109 103.82 100.059 103.82 98.3955C103.82 96.7455 102.906 95.6955 101.583 95.6955C100.561 95.6955 100.247 96.3227 100.07 96.5955H100.002V94.0182H99.197V101ZM99.9879 98.3818C99.9879 97.2091 100.506 96.4182 101.488 96.4182C102.511 96.4182 103.015 97.2773 103.015 98.3818C103.015 99.5 102.497 100.386 101.488 100.386C100.52 100.386 99.9879 99.5682 99.9879 98.3818ZM107.178 101.109C108.596 101.109 109.55 100.032 109.55 98.4091C109.55 96.7727 108.596 95.6955 107.178 95.6955C105.76 95.6955 104.805 96.7727 104.805 98.4091C104.805 100.032 105.76 101.109 107.178 101.109ZM107.178 100.386C106.1 100.386 105.61 99.4591 105.61 98.4091C105.61 97.3591 106.1 96.4182 107.178 96.4182C108.255 96.4182 108.746 97.3591 108.746 98.4091C108.746 99.4591 108.255 100.386 107.178 100.386ZM112.906 101.109C114.324 101.109 115.279 100.032 115.279 98.4091C115.279 96.7727 114.324 95.6955 112.906 95.6955C111.488 95.6955 110.533 96.7727 110.533 98.4091C110.533 100.032 111.488 101.109 112.906 101.109ZM112.906 100.386C111.829 100.386 111.338 99.4591 111.338 98.4091C111.338 97.3591 111.829 96.4182 112.906 96.4182C113.983 96.4182 114.474 97.3591 114.474 98.4091C114.474 99.4591 113.983 100.386 112.906 100.386ZM116.507 101H117.311V99.0398L117.874 98.5182L119.834 101H120.857L118.481 98L120.693 95.7636H119.698L117.407 98.0955H117.311V94.0182H116.507V101Z" fill="#AEB8C2"/>
<g opacity="0.38">
<path d="M81.5 44.5H65.5C64.9 44.5 64.5 44.1 64.5 43.5V33.5C64.5 32.9 64.9 32.5 65.5 32.5H81.5C82.1 32.5 82.5 32.9 82.5 33.5V43.5C82.5 44 82.1 44.5 81.5 44.5Z" fill="#C7E1FF"/>
<path d="M81.5 45H65.5C64.7 45 64 44.3 64 43.5V33.5C64 32.7 64.7 32 65.5 32H81.5C82.3 32 83 32.7 83 33.5V43.5C83 44.3 82.4 45 81.5 45ZM65.5 33C65.2 33 65 33.2 65 33.5V43.5C65 43.8 65.2 44 65.5 44H81.5C81.8 44 82 43.8 82 43.5V33.5C82 33.2 81.8 33 81.5 33H65.5Z" fill="#919EAB"/>
<path d="M70.8 41.4999C70.7 41.4999 70.5 41.4998 70.4 41.3998L67.9 38.8998C67.7 38.6998 67.7 38.3998 67.9 38.1998L70.4 35.6998C70.6 35.4998 70.9 35.4998 71.1 35.6998C71.3 35.8998 71.3 36.1998 71.1 36.3998L69 38.4999L71.1 40.5998C71.3 40.7998 71.3 41.0998 71.1 41.2998C71 41.3998 70.9 41.4999 70.8 41.4999Z" fill="white"/>
<path d="M76.3 41.4999C76.2 41.4999 76 41.4999 75.9 41.3999C75.7 41.1999 75.7 40.8999 75.9 40.6999L78 38.5999L75.9 36.4999C75.7 36.2999 75.7 35.9999 75.9 35.7999C76.1 35.5999 76.4 35.5999 76.6 35.7999L79.1 38.2999C79.3 38.4999 79.3 38.7999 79.1 38.9999L76.6 41.4999C76.5 41.3999 76.4 41.4999 76.3 41.4999Z" fill="white"/>
<path d="M72.2999 41.9999C72.1999 41.9999 72.2 41.9999 72.1 41.9999C71.8 41.8999 71.6999 41.5999 71.7999 41.2999L74.2999 35.2999C74.3999 34.9999 74.7 34.8999 75 34.9999C75.3 35.0999 75.3999 35.3999 75.2999 35.6999L72.7999 41.6999C72.6999 41.8999 72.4999 41.9999 72.2999 41.9999Z" fill="white"/>
<path d="M57.5 34H42.5C42.2 34 42 33.8 42 33.5C42 33.2 42.2 33 42.5 33H57.5C57.8 33 58 33.2 58 33.5C58 33.8 57.8 34 57.5 34Z" fill="#919EAB"/>
<path d="M57.5 37H42.5C42.2 37 42 36.8 42 36.5C42 36.2 42.2 36 42.5 36H57.5C57.8 36 58 36.2 58 36.5C58 36.8 57.8 37 57.5 37Z" fill="#919EAB"/>
<path d="M50 42H42.5C42.2 42 42 41.8 42 41.5C42 41.2 42.2 41 42.5 41H50C50.3 41 50.5 41.2 50.5 41.5C50.5 41.8 50.3 42 50 42Z" fill="#919EAB"/>
<path d="M57.5 45H42.5C42.2 45 42 44.8 42 44.5C42 44.2 42.2 44 42.5 44H57.5C57.8 44 58 44.2 58 44.5C58 44.8 57.8 45 57.5 45Z" fill="#919EAB"/>
<path d="M57.5 48H42.5C42.2 48 42 47.8 42 47.5C42 47.2 42.2 47 42.5 47H57.5C57.8 47 58 47.2 58 47.5C58 47.8 57.8 48 57.5 48Z" fill="#919EAB"/>
<path d="M50 53H42.5C42.2 53 42 52.8 42 52.5C42 52.2 42.2 52 42.5 52H50C50.3 52 50.5 52.2 50.5 52.5C50.5 52.8 50.3 53 50 53Z" fill="#919EAB"/>
<path d="M65.5 65H40C38.3 65 37 63.7 37 62V24.5C37 24.2 37.2 24 37.5 24H73.5C73.8 24 74 24.2 74 24.5V30.5C74 30.8 73.8 31 73.5 31C73.2 31 73 30.8 73 30.5V25H38V62C38 63.1 38.9 64 40 64H65.5C65.8 64 66 64.2 66 64.5C66 64.8 65.8 65 65.5 65Z" fill="#919EAB"/>
<path d="M73.5 24.5H37.5V22C37.5 20.6 38.6 19.5 40 19.5H71C72.4 19.5 73.5 20.6 73.5 22V24.5Z" fill="#0076FF" fill-opacity="0.29"/>
<path d="M73.5 25H37.5C37.2 25 37 24.8 37 24.5V22C37 20.3 38.3 19 40 19H71C72.7 19 74 20.3 74 22V24.5C74 24.8 73.8 25 73.5 25ZM38 24H73V22C73 20.9 72.1 20 71 20H40C38.9 20 38 20.9 38 22V24Z" fill="#919EAB"/>
<path d="M80.2002 58.5C80.3002 58 80.4002 57.5 80.4002 57C80.4002 56.5 80.3002 56 80.2002 55.5L80.5002 55.3L81.2002 54.7C81.6002 54.4 81.6002 53.9 81.4002 53.4L80.5002 51.9C80.3002 51.5 79.8002 51.3 79.3002 51.5L78.4002 51.8L78.1002 52C77.4002 51.3 76.5002 50.8 75.5002 50.5V50.2L75.3002 49.3C75.2002 48.8 74.8002 48.5 74.3002 48.5H72.5002C72.0002 48.5 71.6002 48.8 71.5002 49.3L71.3002 50.2V50.5C70.3002 50.8 69.5002 51.3 68.7002 52L68.4002 51.8L67.5002 51.5C67.0002 51.3 66.6002 51.5 66.3002 51.9L65.4002 53.4C65.2002 53.8 65.2002 54.3 65.6002 54.7L66.3002 55.3L66.6002 55.5C66.5002 56 66.4002 56.5 66.4002 57C66.4002 57.5 66.5002 58 66.6002 58.5L66.3002 58.7L65.6002 59.3C65.2002 59.6 65.2002 60.1 65.4002 60.6L66.3002 62.1C66.5002 62.5 67.0002 62.7 67.5002 62.5L68.4002 62.2L68.7002 62C69.4002 62.7 70.3002 63.2 71.3002 63.5V63.8L71.5002 64.7C71.6002 65.2 72.0002 65.5 72.5002 65.5H74.3002C74.8002 65.5 75.2002 65.2 75.3002 64.7L75.5002 63.8V63.5C76.5002 63.2 77.3002 62.7 78.1002 62L78.4002 62.2L79.3002 62.5C79.8002 62.7 80.2002 62.5 80.5002 62.1L81.4002 60.6C81.6002 60.2 81.6002 59.7 81.2002 59.3L80.5002 58.7L80.2002 58.5ZM73.6002 60.5C71.7002 60.5 70.1002 58.9 70.1002 57C70.1002 55.1 71.7002 53.5 73.6002 53.5C75.5002 53.5 77.1002 55.1 77.1002 57C77.1002 58.9 75.5002 60.5 73.6002 60.5Z" fill="#BBDBFF"/>
<path d="M74.4001 66.0002H72.6001C71.9001 66.0002 71.3001 65.5002 71.1001 64.8002L70.9001 63.9002C70.1001 63.6002 69.4001 63.2002 68.8001 62.7002L67.9001 63.0002C67.2001 63.2002 66.5001 62.9002 66.1001 62.3002L65.2001 60.8002C64.8001 60.2002 65.0001 59.4002 65.5001 58.9002L66.2001 58.3002C66.1001 57.9002 66.1001 57.5002 66.1001 57.1002C66.1001 56.7002 66.1001 56.3002 66.2001 55.9002L65.5001 55.3002C65.0001 54.8002 64.8001 54.0002 65.2001 53.4002L66.1001 51.9002C66.5001 51.3002 67.2001 51.0002 67.9001 51.2002L68.8001 51.5002C69.5001 51.0002 70.2001 50.5002 70.9001 50.3002L71.1001 49.4002C71.2001 48.7002 71.9001 48.2002 72.6001 48.2002H74.4001C75.1001 48.2002 75.7001 48.7002 75.9001 49.4002L76.1001 50.3002C76.9001 50.6002 77.6001 51.0002 78.2001 51.5002L79.1001 51.2002C79.8001 51.0002 80.5001 51.3002 80.9001 51.9002L81.8001 53.4002C82.2001 54.0002 82.0001 54.8002 81.5001 55.3002L80.8001 55.9002C80.9001 56.3002 80.9001 56.7002 80.9001 57.1002C80.9001 57.5002 80.9001 57.9002 80.8001 58.3002L81.5001 58.9002C82.0001 59.4002 82.2001 60.2002 81.8001 60.8002L80.9001 62.3002C80.5001 62.9002 79.8001 63.2002 79.1001 63.0002L78.2001 62.7002C77.6001 63.2002 76.8001 63.7002 76.1001 63.9002L75.9001 64.8002C75.8001 65.5002 75.1001 66.0002 74.4001 66.0002ZM68.9001 61.5002C69.0001 61.5002 69.1001 61.5002 69.2001 61.6002C69.9001 62.2002 70.7001 62.7002 71.6001 63.0002C71.8001 63.1002 72.0001 63.3002 72.0001 63.5002V63.8002L72.2001 64.6002C72.2001 64.8002 72.5001 65.0002 72.7001 65.0002H74.5001C74.7001 65.0002 74.9001 64.8002 75.0001 64.6002L75.2001 63.7002V63.5002C75.2001 63.3002 75.3001 63.1002 75.6001 63.0002C76.5001 62.7002 77.3001 62.3002 78.0001 61.6002C78.2001 61.5002 78.4001 61.4002 78.6001 61.5002L78.9001 61.7002L79.7001 62.0002C79.9001 62.1002 80.2001 62.0002 80.3001 61.8002L81.2001 60.3002C81.3001 60.1002 81.3001 59.8002 81.1001 59.7002L80.4001 59.1002L80.2001 59.0002C80.0001 58.9002 79.9001 58.7002 80.0001 58.5002C80.1001 58.0002 80.2001 57.6002 80.2001 57.1002C80.2001 56.6002 80.1001 56.2002 80.0001 55.7002C80.0001 55.5002 80.0001 55.3002 80.2001 55.2002L80.5001 55.0002L81.1001 54.5002C81.3001 54.3002 81.3001 54.1002 81.2001 53.9002L80.3001 52.4002C80.2001 52.2002 79.9001 52.1002 79.7001 52.2002L78.8001 52.5002L78.6001 52.6002C78.4001 52.7002 78.2001 52.7002 78.0001 52.5002C77.3001 51.9002 76.5001 51.4002 75.6001 51.1002C75.4001 51.0002 75.2001 50.8002 75.2001 50.6002V50.3002L75.0001 49.5002C75.0001 49.3002 74.7001 49.1002 74.5001 49.1002H72.7001C72.5001 49.1002 72.3001 49.3002 72.2001 49.5002L72.0001 50.4002V50.6002C72.0001 50.8002 71.9001 51.0002 71.6001 51.1002C70.7001 51.4002 69.9001 51.8002 69.2001 52.5002C69.0001 52.6002 68.8001 52.7002 68.6001 52.6002L68.3001 52.4002L67.5001 52.1002C67.3001 52.0002 67.0001 52.1002 66.9001 52.3002L66.0001 53.8002C65.9001 54.0002 65.9001 54.3002 66.1001 54.4002L66.8001 55.0002L67.0001 55.1002C67.2001 55.2002 67.3001 55.4002 67.2001 55.6002C67.1001 56.1002 67.0001 56.5002 67.0001 57.0002C67.0001 57.5002 67.1001 57.9002 67.2001 58.4002C67.2001 58.6002 67.2001 58.8002 67.0001 58.9002L66.7001 59.1002L66.1001 59.6002C65.9001 59.8002 65.9001 60.0002 66.0001 60.2002L66.9001 61.7002C67.0001 61.9002 67.3001 62.0002 67.5001 61.9002L68.4001 61.6002L68.6001 61.5002C68.7001 61.5002 68.8001 61.5002 68.9001 61.5002ZM73.6001 61.0002C71.4001 61.0002 69.6001 59.2002 69.6001 57.0002C69.6001 54.8002 71.4001 53.0002 73.6001 53.0002C75.8001 53.0002 77.6001 54.8002 77.6001 57.0002C77.6001 59.2002 75.8001 61.0002 73.6001 61.0002ZM73.6001 54.0002C71.9001 54.0002 70.6001 55.3002 70.6001 57.0002C70.6001 58.7002 71.9001 60.0002 73.6001 60.0002C75.3001 60.0002 76.6001 58.7002 76.6001 57.0002C76.6001 55.3002 75.2001 54.0002 73.6001 54.0002Z" fill="#919EAB"/>
</g>
</svg>
