<svg width="102" height="94" viewBox="0 0 102 94" fill="none" xmlns="http://www.w3.org/2000/svg">
<path d="M79 52H23C22.7 52 22.5 51.8 22.5 51.5V0.5C22.5 0.2 22.7 0 23 0C23.3 0 23.5 0.2 23.5 0.5V51H79C79.3 51 79.5 51.2 79.5 51.5C79.5 51.8 79.3 52 79 52Z" fill="#919EAB"/>
<path d="M23 22.5V14.5H62C62.6 14.5 63 14.9 63 15.5V21.5C63 22.1 62.6 22.5 62 22.5H23Z" fill="#E1EDFF"/>
<path d="M62 23H23C22.7 23 22.5 22.8 22.5 22.5V14.5C22.5 14.2 22.7 14 23 14H62C62.8 14 63.5 14.7 63.5 15.5V21.5C63.5 22.4 62.9 23 62 23ZM23.5 22H62C62.3 22 62.5 21.8 62.5 21.5V15.5C62.5 15.2 62.3 15 62 15H23.5V22Z" fill="#919EAB"/>
<path d="M23 46.5V38.5H55.5C56.1 38.5 56.5 38.9 56.5 39.5V45.5C56.5 46.1 56.1 46.5 55.5 46.5H23Z" fill="#0076FF" fill-opacity="0.2"/>
<path d="M55.5 47H23C22.7 47 22.5 46.8 22.5 46.5V38.5C22.5 38.2 22.7 38 23 38H55.5C56.3 38 57 38.7 57 39.5V45.5C57 46.4 56.4 47 55.5 47ZM23.5 46H55.5C55.8 46 56 45.8 56 45.5V39.5C56 39.2 55.8 39 55.5 39H23.5V46Z" fill="#919EAB"/>
<path d="M23 34.5V26.5H69.5C70.1 26.5 70.5 26.9 70.5 27.5V33.5C70.5 34.1 70.1 34.5 69.5 34.5H23Z" fill="#B2D2FF"/>
<path d="M69.5 35H23C22.7 35 22.5 34.8 22.5 34.5V26.5C22.5 26.2 22.7 26 23 26H69.5C70.3 26 71 26.7 71 27.5V33.5C71 34.4 70.4 35 69.5 35ZM23.5 34H69.5C69.8 34 70 33.8 70 33.5V27.5C70 27.2 69.8 27 69.5 27H23.5V34Z" fill="#919EAB"/>
<path d="M31 54.5C30.7 54.5 30.5 54.3 30.5 54V51.5C30.5 51.2 30.7 51 31 51C31.3 51 31.5 51.2 31.5 51.5V54C31.5 54.3 31.3 54.5 31 54.5Z" fill="#919EAB"/>
<path d="M41 54.5C40.7 54.5 40.5 54.3 40.5 54V51.5C40.5 51.2 40.7 51 41 51C41.3 51 41.5 51.2 41.5 51.5V54C41.5 54.3 41.3 54.5 41 54.5Z" fill="#919EAB"/>
<path d="M51 54.5C50.7 54.5 50.5 54.3 50.5 54V51.5C50.5 51.2 50.7 51 51 51C51.3 51 51.5 51.2 51.5 51.5V54C51.5 54.3 51.3 54.5 51 54.5Z" fill="#919EAB"/>
<path d="M61 54.5C60.7 54.5 60.5 54.3 60.5 54V51.5C60.5 51.2 60.7 51 61 51C61.3 51 61.5 51.2 61.5 51.5V54C61.5 54.3 61.3 54.5 61 54.5Z" fill="#919EAB"/>
<path d="M71 54.5C70.7 54.5 70.5 54.3 70.5 54V51.5C70.5 51.2 70.7 51 71 51C71.3 51 71.5 51.2 71.5 51.5V54C71.5 54.3 71.3 54.5 71 54.5Z" fill="#919EAB"/>
<path d="M32.6339 71.5182H31.376V76.2773H31.3146L28.0283 71.5182H26.8964V78.5H28.1612V73.7443H28.2192L31.5089 78.5H32.6339V71.5182ZM36.2416 78.6023C37.7757 78.6023 38.7507 77.5216 38.7507 75.9023C38.7507 74.2795 37.7757 73.1955 36.2416 73.1955C34.7075 73.1955 33.7325 74.2795 33.7325 75.9023C33.7325 77.5216 34.7075 78.6023 36.2416 78.6023ZM36.2484 77.6136C35.3996 77.6136 34.9837 76.8568 34.9837 75.8989C34.9837 74.9409 35.3996 74.1739 36.2484 74.1739C37.0837 74.1739 37.4996 74.9409 37.4996 75.8989C37.4996 76.8568 37.0837 77.6136 36.2484 77.6136ZM48.2101 73.8739C47.9953 72.3227 46.8021 71.4227 45.2544 71.4227C43.4305 71.4227 42.0567 72.7523 42.0567 75.0091C42.0567 77.2625 43.4135 78.5955 45.2544 78.5955C46.9146 78.5955 48.0158 77.5216 48.2101 76.1886L46.9351 76.1818C46.7749 77 46.1067 77.4602 45.2714 77.4602C44.1396 77.4602 43.3283 76.6114 43.3283 75.0091C43.3283 73.4341 44.1328 72.558 45.2749 72.558C46.1237 72.558 46.7885 73.0386 46.9351 73.8739H48.2101ZM50.5479 75.4318C50.5479 74.675 51.0183 74.2386 51.6797 74.2386C52.3274 74.2386 52.7092 74.6511 52.7092 75.3568V78.5H53.9433V75.1659C53.9433 73.9011 53.2274 73.1955 52.1399 73.1955C51.3354 73.1955 50.824 73.5602 50.582 74.1534H50.5206V71.5182H49.3138V78.5H50.5479V75.4318ZM56.7081 78.6057C57.5297 78.6057 58.0206 78.2205 58.2456 77.7807H58.2865V78.5H59.4729V74.9955C59.4729 73.6114 58.3445 73.1955 57.3456 73.1955C56.2445 73.1955 55.399 73.6864 55.1263 74.6409L56.2786 74.8045C56.4013 74.4466 56.749 74.1398 57.3524 74.1398C57.9251 74.1398 58.2388 74.433 58.2388 74.9477V74.9682C58.2388 75.3227 57.8672 75.3398 56.9433 75.4386C55.9274 75.5477 54.9558 75.8511 54.9558 77.0307C54.9558 78.0602 55.7092 78.6057 56.7081 78.6057ZM57.0286 77.6989C56.5138 77.6989 56.1456 77.4636 56.1456 77.0102C56.1456 76.5364 56.5581 76.3386 57.1104 76.2602C57.4342 76.2159 58.082 76.1341 58.2422 76.0045V76.6216C58.2422 77.2045 57.7717 77.6989 57.0286 77.6989ZM60.7138 78.5H61.9479V75.4216C61.9479 74.7568 62.449 74.2864 63.1274 74.2864C63.3354 74.2864 63.5945 74.3239 63.7001 74.358V73.2227C63.5876 73.2023 63.3933 73.1886 63.257 73.1886C62.657 73.1886 62.1558 73.5295 61.9649 74.1364H61.9104V73.2636H60.7138V78.5ZM67.4161 73.2636H66.3831V72.0091H65.149V73.2636H64.4058V74.2182H65.149V77.1295C65.1422 78.1148 65.8581 78.5989 66.7854 78.5716C67.1365 78.5614 67.3786 78.4932 67.5115 78.4489L67.3036 77.4841C67.2354 77.5011 67.0956 77.5318 66.9422 77.5318C66.632 77.5318 66.3831 77.4227 66.3831 76.925V74.2182H67.4161V73.2636ZM72.5118 74.6477C72.3413 73.7614 71.6322 73.1955 70.405 73.1955C69.1436 73.1955 68.2845 73.8159 68.2879 74.7841C68.2845 75.5477 68.755 76.0523 69.7607 76.2602L70.6538 76.4477C71.1345 76.5534 71.3595 76.7477 71.3595 77.0443C71.3595 77.4023 70.9709 77.6716 70.3845 77.6716C69.8186 77.6716 69.4504 77.4261 69.3447 76.9557L68.1413 77.0716C68.2947 78.033 69.1027 78.6023 70.3879 78.6023C71.697 78.6023 72.6209 77.9239 72.6243 76.9318C72.6209 76.1852 72.1402 75.7284 71.1516 75.5136L70.2584 75.3227C69.7266 75.2034 69.5152 75.0193 69.5186 74.7159C69.5152 74.3614 69.9072 74.1159 70.422 74.1159C70.9913 74.1159 71.2913 74.4261 71.3868 74.7705L72.5118 74.6477ZM74.4021 78.575C74.8044 78.575 75.1487 78.2409 75.1521 77.825C75.1487 77.4159 74.8044 77.0818 74.4021 77.0818C73.9862 77.0818 73.6487 77.4159 73.6521 77.825C73.6487 78.2409 73.9862 78.575 74.4021 78.575ZM6.5527 85.7C6.29361 84.2682 5.14815 83.4227 3.74361 83.4227C1.95724 83.4227 0.661789 84.8 0.661789 87.0091C0.661789 89.2182 1.95724 90.5955 3.74361 90.5955C5.14815 90.5955 6.29361 89.75 6.5527 88.3182H5.70724C5.5027 89.2864 4.67088 89.8045 3.74361 89.8045C2.47543 89.8045 1.47997 88.8227 1.47997 87.0091C1.47997 85.1955 2.47543 84.2136 3.74361 84.2136C4.67088 84.2136 5.5027 84.7318 5.70724 85.7H6.5527ZM7.8098 90.5H8.61435V87.1864C8.61435 86.4773 9.17344 85.9591 9.93707 85.9591C10.1518 85.9591 10.3734 86 10.428 86.0136V85.1955C10.3359 85.1886 10.1246 85.1818 10.0053 85.1818C9.37798 85.1818 8.83253 85.5364 8.64162 86.0545H8.58707V85.2636H7.8098V90.5ZM13.4178 90.6091C14.4814 90.6091 15.2587 90.0773 15.5041 89.2864L14.7268 89.0682C14.5223 89.6136 14.0484 89.8864 13.4178 89.8864C12.4734 89.8864 11.8223 89.2761 11.7848 88.1545H15.5859V87.8136C15.5859 85.8636 14.4268 85.1955 13.3359 85.1955C11.9178 85.1955 10.9768 86.3136 10.9768 87.9227C10.9768 89.5318 11.9041 90.6091 13.4178 90.6091ZM11.7848 87.4591C11.8393 86.6443 12.4155 85.9182 13.3359 85.9182C14.2087 85.9182 14.7678 86.5727 14.7678 87.4591H11.7848ZM18.3507 90.6227C19.2643 90.6227 19.7416 90.1318 19.9053 89.7909H19.9462V90.5H20.7507V87.05C20.7507 85.3864 19.4825 85.1955 18.8143 85.1955C18.0234 85.1955 17.1234 85.4682 16.7143 86.4227L17.478 86.6955C17.6553 86.3136 18.0746 85.9045 18.8416 85.9045C19.5814 85.9045 19.9462 86.2966 19.9462 86.9682V86.9955C19.9462 87.3841 19.5507 87.35 18.5962 87.4727C17.6246 87.5989 16.5643 87.8136 16.5643 89.0136C16.5643 90.0364 17.3553 90.6227 18.3507 90.6227ZM18.4734 89.9C17.8325 89.9 17.3689 89.6136 17.3689 89.0545C17.3689 88.4409 17.928 88.25 18.5553 88.1682C18.8962 88.1273 19.8098 88.0318 19.9462 87.8682V88.6045C19.9462 89.2591 19.428 89.9 18.4734 89.9ZM24.4964 85.2636H23.3783V84.0091H22.5737V85.2636H21.7828V85.9455H22.5737V89.2182C22.5737 90.1318 23.3101 90.5682 23.9919 90.5682C24.2919 90.5682 24.4828 90.5136 24.5919 90.4727L24.4283 89.75C24.3601 89.7636 24.251 89.7909 24.0737 89.7909C23.7192 89.7909 23.3783 89.6818 23.3783 89V85.9455H24.4964V85.2636ZM27.8459 90.6091C28.9095 90.6091 29.6868 90.0773 29.9322 89.2864L29.155 89.0682C28.9504 89.6136 28.4766 89.8864 27.8459 89.8864C26.9016 89.8864 26.2504 89.2761 26.2129 88.1545H30.0141V87.8136C30.0141 85.8636 28.855 85.1955 27.7641 85.1955C26.3459 85.1955 25.405 86.3136 25.405 87.9227C25.405 89.5318 26.3322 90.6091 27.8459 90.6091ZM26.2129 87.4591C26.2675 86.6443 26.8436 85.9182 27.7641 85.9182C28.6368 85.9182 29.1959 86.5727 29.1959 87.4591H26.2129ZM34.4561 92.4636C35.1822 92.4636 35.6936 92.0784 35.997 91.2636L38.2266 85.2773L37.347 85.2636L35.9016 89.4364H35.847L34.4016 85.2636H33.5288L35.4652 90.5273L35.3152 90.9364C35.022 91.7341 34.6607 91.8091 34.0743 91.6591L33.8697 92.3682C33.9516 92.4091 34.1834 92.4636 34.4561 92.4636ZM41.2308 90.6091C42.649 90.6091 43.6036 89.5318 43.6036 87.9091C43.6036 86.2727 42.649 85.1955 41.2308 85.1955C39.8126 85.1955 38.8581 86.2727 38.8581 87.9091C38.8581 89.5318 39.8126 90.6091 41.2308 90.6091ZM41.2308 89.8864C40.1536 89.8864 39.6626 88.9591 39.6626 87.9091C39.6626 86.8591 40.1536 85.9182 41.2308 85.9182C42.3081 85.9182 42.799 86.8591 42.799 87.9091C42.799 88.9591 42.3081 89.8864 41.2308 89.8864ZM48.1317 88.3591C48.1317 89.3409 47.3817 89.7909 46.7817 89.7909C46.1135 89.7909 45.6362 89.3 45.6362 88.5364V85.2636H44.8317V88.5909C44.8317 89.9273 45.5408 90.5682 46.5226 90.5682C47.3135 90.5682 47.8317 90.1455 48.0771 89.6136H48.1317V90.5H48.9362V85.2636H48.1317V88.3591ZM50.4098 90.5H51.2143V87.1864C51.2143 86.4773 51.7734 85.9591 52.5371 85.9591C52.7518 85.9591 52.9734 86 53.028 86.0136V85.1955C52.9359 85.1886 52.7246 85.1818 52.6053 85.1818C51.978 85.1818 51.4325 85.5364 51.2416 86.0545H51.1871V85.2636H50.4098V90.5ZM59.0135 85.2636H57.8408V84.7318C57.8408 84.2136 58.0589 83.9409 58.5908 83.9409C58.8226 83.9409 58.9589 83.9955 59.0408 84.0227L59.2726 83.3273C59.1499 83.2727 58.9044 83.1909 58.5089 83.1909C57.7589 83.1909 57.0362 83.6409 57.0362 84.5409V85.2636H56.1908V85.9455H57.0362V90.5H57.8408V85.9455H59.0135V85.2636ZM60.1411 90.5H60.9456V85.2636H60.1411V90.5ZM60.5501 84.3909C60.8638 84.3909 61.1229 84.1455 61.1229 83.8455C61.1229 83.5455 60.8638 83.3 60.5501 83.3C60.2365 83.3 59.9774 83.5455 59.9774 83.8455C59.9774 84.1455 60.2365 84.3909 60.5501 84.3909ZM62.4192 90.5H63.2237V87.1864C63.2237 86.4773 63.7828 85.9591 64.5464 85.9591C64.7612 85.9591 64.9828 86 65.0374 86.0136V85.1955C64.9453 85.1886 64.7339 85.1818 64.6146 85.1818C63.9874 85.1818 63.4419 85.5364 63.251 86.0545H63.1964V85.2636H62.4192V90.5ZM69.7001 86.4364C69.4479 85.6932 68.882 85.1955 67.8456 85.1955C66.741 85.1955 65.9229 85.8227 65.9229 86.7091C65.9229 87.4318 66.3524 87.9159 67.3138 88.1409L68.1865 88.3455C68.7149 88.4682 68.9638 88.7205 68.9638 89.0818C68.9638 89.5318 68.4865 89.9 67.7365 89.9C67.0785 89.9 66.666 89.617 66.5229 89.0545L65.7592 89.2455C65.9467 90.1352 66.6797 90.6091 67.7501 90.6091C68.9672 90.6091 69.7956 89.9443 69.7956 89.0409C69.7956 88.3114 69.3388 87.8511 68.4047 87.6227L67.6274 87.4318C67.007 87.2784 66.7274 87.0705 66.7274 86.6682C66.7274 86.2182 67.2047 85.8909 67.8456 85.8909C68.5479 85.8909 68.8376 86.2795 68.9774 86.6409L69.7001 86.4364ZM73.2839 85.2636H72.1658V84.0091H71.3612V85.2636H70.5703V85.9455H71.3612V89.2182C71.3612 90.1318 72.0976 90.5682 72.7794 90.5682C73.0794 90.5682 73.2703 90.5136 73.3794 90.4727L73.2158 89.75C73.1476 89.7636 73.0385 89.7909 72.8612 89.7909C72.5067 89.7909 72.1658 89.6818 72.1658 89V85.9455H73.2839V85.2636ZM82.9214 85.7C82.6624 84.2682 81.5169 83.4227 80.1124 83.4227C78.326 83.4227 77.0305 84.8 77.0305 87.0091C77.0305 89.2182 78.326 90.5955 80.1124 90.5955C81.5169 90.5955 82.6624 89.75 82.9214 88.3182H82.076C81.8714 89.2864 81.0396 89.8045 80.1124 89.8045C78.8442 89.8045 77.8487 88.8227 77.8487 87.0091C77.8487 85.1955 78.8442 84.2136 80.1124 84.2136C81.0396 84.2136 81.8714 84.7318 82.076 85.7H82.9214ZM84.9831 87.35C84.9831 86.4364 85.566 85.9182 86.3604 85.9182C87.1172 85.9182 87.574 86.3955 87.574 87.2273V90.5H88.3785V87.1727C88.3785 85.8261 87.6626 85.1955 86.5922 85.1955C85.7672 85.1955 85.2967 85.5398 85.0513 86.0818H84.9831V83.5182H84.1785V90.5H84.9831V87.35ZM91.3913 90.6227C92.305 90.6227 92.7822 90.1318 92.9459 89.7909H92.9868V90.5H93.7913V87.05C93.7913 85.3864 92.5232 85.1955 91.855 85.1955C91.0641 85.1955 90.1641 85.4682 89.755 86.4227L90.5186 86.6955C90.6959 86.3136 91.1152 85.9045 91.8822 85.9045C92.622 85.9045 92.9868 86.2966 92.9868 86.9682V86.9955C92.9868 87.3841 92.5913 87.35 91.6368 87.4727C90.6652 87.5989 89.605 87.8136 89.605 89.0136C89.605 90.0364 90.3959 90.6227 91.3913 90.6227ZM91.5141 89.9C90.8732 89.9 90.4095 89.6136 90.4095 89.0545C90.4095 88.4409 90.9686 88.25 91.5959 88.1682C91.9368 88.1273 92.8504 88.0318 92.9868 87.8682V88.6045C92.9868 89.2591 92.4686 89.9 91.5141 89.9ZM95.2598 90.5H96.0643V87.1864C96.0643 86.4773 96.6234 85.9591 97.3871 85.9591C97.6018 85.9591 97.8234 86 97.878 86.0136V85.1955C97.7859 85.1886 97.5746 85.1818 97.4553 85.1818C96.828 85.1818 96.2825 85.5364 96.0916 86.0545H96.0371V85.2636H95.2598V90.5ZM101.437 85.2636H100.319V84.0091H99.5144V85.2636H98.7234V85.9455H99.5144V89.2182C99.5144 90.1318 100.251 90.5682 100.933 90.5682C101.233 90.5682 101.423 90.5136 101.533 90.4727L101.369 89.75C101.301 89.7636 101.192 89.7909 101.014 89.7909C100.66 89.7909 100.319 89.6818 100.319 89V85.9455H101.437V85.2636Z" fill="#AEB8C2"/>
</svg>
