<svg width="118" height="98" viewBox="0 0 118 98" fill="none" xmlns="http://www.w3.org/2000/svg">
<g opacity="0.3">
<path d="M110.39 98.0001H7.6097C3.54628 98.0001 0.438965 94.8928 0.438965 90.8294V20.3172C0.438965 19.6001 0.917014 19.1221 1.63409 19.1221H116.366C117.083 19.1221 117.561 19.6001 117.561 20.3172V90.8294C117.561 94.6538 114.454 98.0001 110.39 98.0001ZM2.82921 21.5123V90.8294C2.82921 93.4587 4.98043 95.6099 7.6097 95.6099H110.39C113.019 95.6099 115.171 93.4587 115.171 90.8294V21.5123H2.82921Z" fill="#919EAB"/>
<path d="M116.366 21.5122H1.63409C0.917014 21.5122 0.438965 21.0341 0.438965 20.3171V7.17073C0.438965 3.10732 3.54628 0 7.6097 0H110.39C114.454 0 117.561 3.10732 117.561 7.17073V20.3171C117.561 21.0341 117.083 21.5122 116.366 21.5122ZM2.82921 19.122H115.171V7.17073C115.171 4.54146 113.019 2.39024 110.39 2.39024H7.6097C4.98043 2.39024 2.82921 4.54146 2.82921 7.17073V19.122Z" fill="#919EAB"/>
<path d="M12.3901 15.5366C9.76084 15.5366 7.60962 13.3853 7.60962 10.7561C7.60962 8.12681 9.76084 5.97559 12.3901 5.97559C15.0194 5.97559 17.1706 8.12681 17.1706 10.7561C17.1706 13.3853 15.0194 15.5366 12.3901 15.5366ZM12.3901 8.36583C10.956 8.36583 9.99986 9.32193 9.99986 10.7561C9.99986 12.1902 10.956 13.1463 12.3901 13.1463C13.8243 13.1463 14.7804 12.1902 14.7804 10.7561C14.7804 9.32193 13.8243 8.36583 12.3901 8.36583Z" fill="#919EAB"/>
<path d="M24.3415 15.5366C21.7123 15.5366 19.561 13.3853 19.561 10.7561C19.561 8.12681 21.7123 5.97559 24.3415 5.97559C26.9708 5.97559 29.122 8.12681 29.122 10.7561C29.122 13.3853 26.9708 15.5366 24.3415 15.5366ZM24.3415 8.36583C22.9074 8.36583 21.9513 9.32193 21.9513 10.7561C21.9513 12.1902 22.9074 13.1463 24.3415 13.1463C25.7757 13.1463 26.7318 12.1902 26.7318 10.7561C26.7318 9.32193 25.7757 8.36583 24.3415 8.36583Z" fill="#919EAB"/>
<path d="M48.2438 62.1462H41.0731C40.356 62.1462 39.8779 61.6681 39.8779 60.951V48.9998C39.8779 48.2827 40.356 47.8047 41.0731 47.8047H48.2438C48.9609 47.8047 49.4389 48.2827 49.4389 48.9998V60.951C49.4389 61.6681 48.9609 62.1462 48.2438 62.1462ZM42.2682 59.7559H47.0487V50.1949H42.2682V59.7559Z" fill="#919EAB"/>
<path d="M76.9269 62.146H69.7562C69.0391 62.146 68.561 61.6679 68.561 60.9509V41.8289C68.561 41.1118 69.0391 40.6338 69.7562 40.6338H76.9269C77.644 40.6338 78.122 41.1118 78.122 41.8289V60.9509C78.122 61.6679 77.644 62.146 76.9269 62.146ZM70.9513 59.7557H75.7318V43.024H70.9513V59.7557Z" fill="#919EAB"/>
<path d="M62.5853 62.1466H55.4146C54.6975 62.1466 54.2195 61.6686 54.2195 60.9515V33.4637C54.2195 32.7466 54.6975 32.2686 55.4146 32.2686H62.5853C63.3024 32.2686 63.7805 32.7466 63.7805 33.4637V60.9515C63.7805 61.6686 63.3024 62.1466 62.5853 62.1466ZM56.6097 59.7564H61.3902V34.6588H56.6097V59.7564Z" fill="#919EAB"/>
<path d="M76.9267 81.2682H41.0731C40.356 81.2682 39.8779 80.7901 39.8779 80.0731C39.8779 79.356 40.356 78.8779 41.0731 78.8779H76.9267C77.6438 78.8779 78.1218 79.356 78.1218 80.0731C78.1218 80.7901 77.6438 81.2682 76.9267 81.2682Z" fill="#919EAB"/>
<path d="M76.9267 74.0973H41.0731C40.356 74.0973 39.8779 73.6192 39.8779 72.9022C39.8779 72.1851 40.356 71.707 41.0731 71.707H76.9267C77.6438 71.707 78.1218 72.1851 78.1218 72.9022C78.1218 73.6192 77.6438 74.0973 76.9267 74.0973Z" fill="#919EAB"/>
<path d="M29.1221 46.6098H14.7806C13.3465 46.6098 12.3904 45.6537 12.3904 44.2196V39.4391C12.3904 38.0049 13.3465 37.0488 14.7806 37.0488H29.1221C30.5562 37.0488 31.5123 38.0049 31.5123 39.4391V44.2196C31.5123 45.4147 30.5562 46.6098 29.1221 46.6098Z" fill="#0076FF" fill-opacity="0.2"/>
<path d="M29.1219 47.8047H14.7804C12.8682 47.8047 11.1951 46.1316 11.1951 44.2194V39.4389C11.1951 37.5267 12.8682 35.8535 14.7804 35.8535H29.1219C31.0341 35.8535 32.7073 37.5267 32.7073 39.4389V44.2194C32.7073 46.1316 31.2731 47.8047 29.1219 47.8047ZM14.7804 38.2438C14.0634 38.2438 13.5853 38.7218 13.5853 39.4389V44.2194C13.5853 44.9364 14.0634 45.4145 14.7804 45.4145H29.1219C29.839 45.4145 30.317 44.9364 30.317 44.2194V39.4389C30.317 38.7218 29.839 38.2438 29.1219 38.2438H14.7804Z" fill="#919EAB"/>
<path d="M29.1221 63.3412H14.7806C13.3465 63.3412 12.3904 62.3852 12.3904 60.951V56.1705C12.3904 54.7364 13.3465 53.7803 14.7806 53.7803H29.1221C30.5562 53.7803 31.5123 54.7364 31.5123 56.1705V60.951C31.5123 62.1461 30.5562 63.3412 29.1221 63.3412Z" fill="#0076FF" fill-opacity="0.1"/>
<path d="M29.1219 64.5362H14.7804C12.8682 64.5362 11.1951 62.863 11.1951 60.9508V56.1703C11.1951 54.2581 12.8682 52.585 14.7804 52.585H29.1219C31.0341 52.585 32.7073 54.2581 32.7073 56.1703V60.9508C32.7073 62.863 31.2731 64.5362 29.1219 64.5362ZM14.7804 54.9752C14.0634 54.9752 13.5853 55.4533 13.5853 56.1703V60.9508C13.5853 61.6679 14.0634 62.1459 14.7804 62.1459H29.1219C29.839 62.1459 30.317 61.6679 30.317 60.9508V56.1703C30.317 55.4533 29.839 54.9752 29.1219 54.9752H14.7804Z" fill="#919EAB"/>
<path d="M29.1221 80.0737H14.7806C13.3465 80.0737 12.3904 79.1176 12.3904 77.6834V72.9029C12.3904 71.4688 13.3465 70.5127 14.7806 70.5127H29.1221C30.5562 70.5127 31.5123 71.4688 31.5123 72.9029V77.6834C31.5123 78.8785 30.5562 80.0737 29.1221 80.0737Z" fill="#0076FF" fill-opacity="0.5"/>
<path d="M29.1219 81.2686H14.7804C12.8682 81.2686 11.1951 79.5954 11.1951 77.6832V72.9027C11.1951 70.9906 12.8682 69.3174 14.7804 69.3174H29.1219C31.0341 69.3174 32.7073 70.9906 32.7073 72.9027V77.6832C32.7073 79.5954 31.2731 81.2686 29.1219 81.2686ZM14.7804 71.7076C14.0634 71.7076 13.5853 72.1857 13.5853 72.9027V77.6832C13.5853 78.4003 14.0634 78.8784 14.7804 78.8784H29.1219C29.839 78.8784 30.317 78.4003 30.317 77.6832V72.9027C30.317 72.1857 29.839 71.7076 29.1219 71.7076H14.7804Z" fill="#919EAB"/>
<path d="M96.049 51.3905C101.329 51.3905 105.61 47.1099 105.61 41.8295C105.61 36.5491 101.329 32.2686 96.049 32.2686C90.7686 32.2686 86.488 36.5491 86.488 41.8295C86.488 47.1099 90.7686 51.3905 96.049 51.3905Z" fill="#0076FF" fill-opacity="0.1"/>
<path d="M96.0488 52.5854C90.0732 52.5854 85.2927 47.805 85.2927 41.8293C85.2927 35.8537 90.0732 31.0732 96.0488 31.0732C102.024 31.0732 106.805 35.8537 106.805 41.8293C106.805 47.805 102.024 52.5854 96.0488 52.5854ZM96.0488 33.4635C91.5074 33.4635 87.683 37.2879 87.683 41.8293C87.683 46.3708 91.5074 50.1952 96.0488 50.1952C100.59 50.1952 104.415 46.3708 104.415 41.8293C104.415 37.2879 100.829 33.4635 96.0488 33.4635Z" fill="#919EAB"/>
<path d="M105.61 43.0245H96.0486C95.3316 43.0245 94.8535 42.5464 94.8535 41.8293V32.2684C94.8535 31.5513 95.3316 31.0732 96.0486 31.0732C96.7657 31.0732 97.2438 31.5513 97.2438 32.2684V40.6342H105.61C106.327 40.6342 106.805 41.1123 106.805 41.8293C106.805 42.5464 106.327 43.0245 105.61 43.0245Z" fill="#919EAB"/>
<path d="M105.61 81.2681H86.4878C85.7708 81.2681 85.2927 80.79 85.2927 80.0729V60.951C85.2927 60.2339 85.7708 59.7559 86.4878 59.7559C87.2049 59.7559 87.683 60.2339 87.683 60.951V78.8778H105.61C106.327 78.8778 106.805 79.3559 106.805 80.0729C106.805 80.79 106.327 81.2681 105.61 81.2681Z" fill="#919EAB"/>
<path d="M86.4882 81.2678C86.2492 81.2678 85.7711 81.2679 85.5321 81.0288C85.0541 80.5508 85.0541 79.8335 85.5321 79.3555L104.654 60.2335C105.132 59.7555 105.849 59.7555 106.327 60.2335C106.805 60.7116 106.805 61.4288 106.327 61.9069L87.2053 81.0288C87.2053 81.0288 86.9663 81.2678 86.4882 81.2678Z" fill="#919EAB"/>
</g>
</svg>
