<svg width="125" height="80" viewBox="0 0 125 80" fill="none" xmlns="http://www.w3.org/2000/svg">
<path d="M84 41H41C39.3 41 38 39.7 38 38V8.5C38 8.2 38.2 8 38.5 8H86.5C86.8 8 87 8.2 87 8.5V38C87 39.6 85.7 41 84 41ZM39 9V38C39 39.1 39.9 40 41 40H84C85.1 40 86 39.1 86 38V9H39Z" fill="#919EAB"/>
<path d="M86.5 9H38.5C38.2 9 38 8.8 38 8.5V3C38 1.3 39.3 0 41 0H84C85.7 0 87 1.3 87 3V8.5C87 8.8 86.8 9 86.5 9ZM39 8H86V3C86 1.9 85.1 1 84 1H41C39.9 1 39 1.9 39 3V8Z" fill="#919EAB"/>
<path d="M43 6.5C41.9 6.5 41 5.6 41 4.5C41 3.4 41.9 2.5 43 2.5C44.1 2.5 45 3.4 45 4.5C45 5.6 44.1 6.5 43 6.5ZM43 3.5C42.4 3.5 42 3.9 42 4.5C42 5.1 42.4 5.5 43 5.5C43.6 5.5 44 5.1 44 4.5C44 3.9 43.6 3.5 43 3.5Z" fill="#919EAB"/>
<path d="M48 6.5C46.9 6.5 46 5.6 46 4.5C46 3.4 46.9 2.5 48 2.5C49.1 2.5 50 3.4 50 4.5C50 5.6 49.1 6.5 48 6.5ZM48 3.5C47.4 3.5 47 3.9 47 4.5C47 5.1 47.4 5.5 48 5.5C48.6 5.5 49 5.1 49 4.5C49 3.9 48.6 3.5 48 3.5Z" fill="#919EAB"/>
<path d="M58 26H55C54.7 26 54.5 25.8 54.5 25.5V20.5C54.5 20.2 54.7 20 55 20H58C58.3 20 58.5 20.2 58.5 20.5V25.5C58.5 25.8 58.3 26 58 26ZM55.5 25H57.5V21H55.5V25Z" fill="#919EAB"/>
<path d="M70 26H67C66.7 26 66.5 25.8 66.5 25.5V17.5C66.5 17.2 66.7 17 67 17H70C70.3 17 70.5 17.2 70.5 17.5V25.5C70.5 25.8 70.3 26 70 26ZM67.5 25H69.5V18H67.5V25Z" fill="#919EAB"/>
<path d="M64 26H61C60.7 26 60.5 25.8 60.5 25.5V14C60.5 13.7 60.7 13.5 61 13.5H64C64.3 13.5 64.5 13.7 64.5 14V25.5C64.5 25.8 64.3 26 64 26ZM61.5 25H63.5V14.5H61.5V25Z" fill="#919EAB"/>
<path d="M70 34H55C54.7 34 54.5 33.8 54.5 33.5C54.5 33.2 54.7 33 55 33H70C70.3 33 70.5 33.2 70.5 33.5C70.5 33.8 70.3 34 70 34Z" fill="#919EAB"/>
<path d="M70 31H55C54.7 31 54.5 30.8 54.5 30.5C54.5 30.2 54.7 30 55 30H70C70.3 30 70.5 30.2 70.5 30.5C70.5 30.8 70.3 31 70 31Z" fill="#919EAB"/>
<path d="M50 19.5H44C43.4 19.5 43 19.1 43 18.5V16.5C43 15.9 43.4 15.5 44 15.5H50C50.6 15.5 51 15.9 51 16.5V18.5C51 19 50.6 19.5 50 19.5Z" fill="#0076FF" fill-opacity="0.2"/>
<path d="M50 20H44C43.2 20 42.5 19.3 42.5 18.5V16.5C42.5 15.7 43.2 15 44 15H50C50.8 15 51.5 15.7 51.5 16.5V18.5C51.5 19.3 50.9 20 50 20ZM44 16C43.7 16 43.5 16.2 43.5 16.5V18.5C43.5 18.8 43.7 19 44 19H50C50.3 19 50.5 18.8 50.5 18.5V16.5C50.5 16.2 50.3 16 50 16H44Z" fill="#919EAB"/>
<path d="M50 26.5H44C43.4 26.5 43 26.1 43 25.5V23.5C43 22.9 43.4 22.5 44 22.5H50C50.6 22.5 51 22.9 51 23.5V25.5C51 26 50.6 26.5 50 26.5Z" fill="#0076FF" fill-opacity="0.1"/>
<path d="M50 27H44C43.2 27 42.5 26.3 42.5 25.5V23.5C42.5 22.7 43.2 22 44 22H50C50.8 22 51.5 22.7 51.5 23.5V25.5C51.5 26.3 50.9 27 50 27ZM44 23C43.7 23 43.5 23.2 43.5 23.5V25.5C43.5 25.8 43.7 26 44 26H50C50.3 26 50.5 25.8 50.5 25.5V23.5C50.5 23.2 50.3 23 50 23H44Z" fill="#919EAB"/>
<path d="M50 33.5H44C43.4 33.5 43 33.1 43 32.5V30.5C43 29.9 43.4 29.5 44 29.5H50C50.6 29.5 51 29.9 51 30.5V32.5C51 33 50.6 33.5 50 33.5Z" fill="#0076FF" fill-opacity="0.5"/>
<path d="M50 34H44C43.2 34 42.5 33.3 42.5 32.5V30.5C42.5 29.7 43.2 29 44 29H50C50.8 29 51.5 29.7 51.5 30.5V32.5C51.5 33.3 50.9 34 50 34ZM44 30C43.7 30 43.5 30.2 43.5 30.5V32.5C43.5 32.8 43.7 33 44 33H50C50.3 33 50.5 32.8 50.5 32.5V30.5C50.5 30.2 50.3 30 50 30H44Z" fill="#919EAB"/>
<path d="M78 21.5C80.2091 21.5 82 19.7091 82 17.5C82 15.2909 80.2091 13.5 78 13.5C75.7909 13.5 74 15.2909 74 17.5C74 19.7091 75.7909 21.5 78 21.5Z" fill="#0076FF" fill-opacity="0.1"/>
<path d="M78 22C75.5 22 73.5 20 73.5 17.5C73.5 15 75.5 13 78 13C80.5 13 82.5 15 82.5 17.5C82.5 20 80.5 22 78 22ZM78 14C76.1 14 74.5 15.6 74.5 17.5C74.5 19.4 76.1 21 78 21C79.9 21 81.5 19.4 81.5 17.5C81.5 15.6 80 14 78 14Z" fill="#919EAB"/>
<path d="M82 18H78C77.7 18 77.5 17.8 77.5 17.5V13.5C77.5 13.2 77.7 13 78 13C78.3 13 78.5 13.2 78.5 13.5V17H82C82.3 17 82.5 17.2 82.5 17.5C82.5 17.8 82.3 18 82 18Z" fill="#919EAB"/>
<path d="M82 34H74C73.7 34 73.5 33.8 73.5 33.5V25.5C73.5 25.2 73.7 25 74 25C74.3 25 74.5 25.2 74.5 25.5V33H82C82.3 33 82.5 33.2 82.5 33.5C82.5 33.8 82.3 34 82 34Z" fill="#919EAB"/>
<path d="M73.9999 33.9999C73.8999 33.9999 73.7 33.9999 73.6 33.8999C73.4 33.6999 73.4 33.3998 73.6 33.1998L81.6 25.1998C81.8 24.9998 82.0999 24.9998 82.2999 25.1998C82.4999 25.3998 82.4999 25.6999 82.2999 25.8999L74.2999 33.8999C74.2999 33.8999 74.1999 33.9999 73.9999 33.9999Z" fill="#919EAB"/>
<path d="M33.7464 58.0182H32.4885V62.7773H32.4271L29.1408 58.0182H28.0089V65H29.2737V60.2443H29.3317L32.6214 65H33.7464V58.0182ZM37.3541 65.1023C38.8882 65.1023 39.8632 64.0216 39.8632 62.4023C39.8632 60.7795 38.8882 59.6955 37.3541 59.6955C35.82 59.6955 34.845 60.7795 34.845 62.4023C34.845 64.0216 35.82 65.1023 37.3541 65.1023ZM37.3609 64.1136C36.5121 64.1136 36.0962 63.3568 36.0962 62.3989C36.0962 61.4409 36.5121 60.6739 37.3609 60.6739C38.1962 60.6739 38.6121 61.4409 38.6121 62.3989C38.6121 63.3568 38.1962 64.1136 37.3609 64.1136ZM45.2351 65.092C46.1351 65.092 46.5408 64.5568 46.7351 64.175H46.8101V65H48.0237V58.0182H46.7862V60.6295H46.7351C46.5476 60.2511 46.1624 59.6955 45.2385 59.6955C44.0283 59.6955 43.0771 60.6432 43.0771 62.3886C43.0771 64.1136 44.001 65.092 45.2351 65.092ZM45.5794 64.0795C44.7646 64.0795 44.3351 63.3636 44.3351 62.3818C44.3351 61.4068 44.7578 60.708 45.5794 60.708C46.3737 60.708 46.8101 61.3659 46.8101 62.3818C46.8101 63.3977 46.3669 64.0795 45.5794 64.0795ZM50.8456 65.1057C51.6672 65.1057 52.1581 64.7205 52.3831 64.2807H52.424V65H53.6104V61.4955C53.6104 60.1114 52.482 59.6955 51.4831 59.6955C50.382 59.6955 49.5365 60.1864 49.2638 61.1409L50.4161 61.3045C50.5388 60.9466 50.8865 60.6398 51.4899 60.6398C52.0626 60.6398 52.3763 60.933 52.3763 61.4477V61.4682C52.3763 61.8227 52.0047 61.8398 51.0808 61.9386C50.0649 62.0477 49.0933 62.3511 49.0933 63.5307C49.0933 64.5602 49.8467 65.1057 50.8456 65.1057ZM51.1661 64.1989C50.6513 64.1989 50.2831 63.9636 50.2831 63.5102C50.2831 63.0364 50.6956 62.8386 51.2479 62.7602C51.5717 62.7159 52.2195 62.6341 52.3797 62.5045V63.1216C52.3797 63.7045 51.9092 64.1989 51.1661 64.1989ZM58.9899 61.1477C58.8195 60.2614 58.1104 59.6955 56.8831 59.6955C55.6217 59.6955 54.7626 60.3159 54.7661 61.2841C54.7626 62.0477 55.2331 62.5523 56.2388 62.7602L57.132 62.9477C57.6126 63.0534 57.8376 63.2477 57.8376 63.5443C57.8376 63.9023 57.449 64.1716 56.8626 64.1716C56.2967 64.1716 55.9286 63.9261 55.8229 63.4557L54.6195 63.5716C54.7729 64.533 55.5808 65.1023 56.8661 65.1023C58.1751 65.1023 59.099 64.4239 59.1024 63.4318C59.099 62.6852 58.6183 62.2284 57.6297 62.0136L56.7365 61.8227C56.2047 61.7034 55.9933 61.5193 55.9967 61.2159C55.9933 60.8614 56.3854 60.6159 56.9001 60.6159C57.4695 60.6159 57.7695 60.9261 57.8649 61.2705L58.9899 61.1477ZM61.3541 61.9318C61.3541 61.175 61.8246 60.7386 62.4859 60.7386C63.1337 60.7386 63.5155 61.1511 63.5155 61.8568V65H64.7496V61.6659C64.7496 60.4011 64.0337 59.6955 62.9462 59.6955C62.1416 59.6955 61.6303 60.0602 61.3882 60.6534H61.3268V58.0182H60.12V65H61.3541V61.9318ZM66.0621 65H67.2757V64.175H67.3473C67.5416 64.5568 67.9473 65.092 68.8473 65.092C70.0814 65.092 71.0053 64.1136 71.0053 62.3886C71.0053 60.6432 70.0541 59.6955 68.8439 59.6955C67.92 59.6955 67.5348 60.2511 67.3473 60.6295H67.2962V58.0182H66.0621V65ZM67.2723 62.3818C67.2723 61.3659 67.7087 60.708 68.503 60.708C69.3246 60.708 69.7473 61.4068 69.7473 62.3818C69.7473 63.3636 69.3178 64.0795 68.503 64.0795C67.7155 64.0795 67.2723 63.3977 67.2723 62.3818ZM74.3385 65.1023C75.8726 65.1023 76.8476 64.0216 76.8476 62.4023C76.8476 60.7795 75.8726 59.6955 74.3385 59.6955C72.8044 59.6955 71.8294 60.7795 71.8294 62.4023C71.8294 64.0216 72.8044 65.1023 74.3385 65.1023ZM74.3453 64.1136C73.4965 64.1136 73.0805 63.3568 73.0805 62.3989C73.0805 61.4409 73.4965 60.6739 74.3453 60.6739C75.1805 60.6739 75.5965 61.4409 75.5965 62.3989C75.5965 63.3568 75.1805 64.1136 74.3453 64.1136ZM79.4018 65.1057C80.2234 65.1057 80.7143 64.7205 80.9393 64.2807H80.9803V65H82.1666V61.4955C82.1666 60.1114 81.0382 59.6955 80.0393 59.6955C78.9382 59.6955 78.0928 60.1864 77.82 61.1409L78.9723 61.3045C79.095 60.9466 79.4428 60.6398 80.0462 60.6398C80.6189 60.6398 80.9325 60.933 80.9325 61.4477V61.4682C80.9325 61.8227 80.5609 61.8398 79.6371 61.9386C78.6212 62.0477 77.6496 62.3511 77.6496 63.5307C77.6496 64.5602 78.403 65.1057 79.4018 65.1057ZM79.7223 64.1989C79.2075 64.1989 78.8393 63.9636 78.8393 63.5102C78.8393 63.0364 79.2518 62.8386 79.8041 62.7602C80.128 62.7159 80.7757 62.6341 80.9359 62.5045V63.1216C80.9359 63.7045 80.4655 64.1989 79.7223 64.1989ZM83.4075 65H84.6416V61.9216C84.6416 61.2568 85.1428 60.7864 85.8212 60.7864C86.0291 60.7864 86.2882 60.8239 86.3939 60.858V59.7227C86.2814 59.7023 86.0871 59.6886 85.9507 59.6886C85.3507 59.6886 84.8496 60.0295 84.6587 60.6364H84.6041V59.7636H83.4075V65ZM88.9413 65.092C89.8413 65.092 90.247 64.5568 90.4413 64.175H90.5163V65H91.73V58.0182H90.4925V60.6295H90.4413C90.2538 60.2511 89.8686 59.6955 88.9447 59.6955C87.7345 59.6955 86.7834 60.6432 86.7834 62.3886C86.7834 64.1136 87.7072 65.092 88.9413 65.092ZM89.2857 64.0795C88.4709 64.0795 88.0413 63.3636 88.0413 62.3818C88.0413 61.4068 88.4641 60.708 89.2857 60.708C90.08 60.708 90.5163 61.3659 90.5163 62.3818C90.5163 63.3977 90.0732 64.0795 89.2857 64.0795ZM97.1837 61.1477C97.0132 60.2614 96.3041 59.6955 95.0769 59.6955C93.8155 59.6955 92.9564 60.3159 92.9598 61.2841C92.9564 62.0477 93.4269 62.5523 94.4325 62.7602L95.3257 62.9477C95.8064 63.0534 96.0314 63.2477 96.0314 63.5443C96.0314 63.9023 95.6428 64.1716 95.0564 64.1716C94.4905 64.1716 94.1223 63.9261 94.0166 63.4557L92.8132 63.5716C92.9666 64.533 93.7746 65.1023 95.0598 65.1023C96.3689 65.1023 97.2928 64.4239 97.2962 63.4318C97.2928 62.6852 96.8121 62.2284 95.8234 62.0136L94.9303 61.8227C94.3984 61.7034 94.1871 61.5193 94.1905 61.2159C94.1871 60.8614 94.5791 60.6159 95.0939 60.6159C95.6632 60.6159 95.9632 60.9261 96.0587 61.2705L97.1837 61.1477ZM6.51207 72.2C6.25298 70.7682 5.10753 69.9227 3.70298 69.9227C1.91662 69.9227 0.621163 71.3 0.621163 73.5091C0.621163 75.7182 1.91662 77.0955 3.70298 77.0955C5.10753 77.0955 6.25298 76.25 6.51207 74.8182H5.66662C5.46207 75.7864 4.63025 76.3045 3.70298 76.3045C2.4348 76.3045 1.43934 75.3227 1.43934 73.5091C1.43934 71.6955 2.4348 70.7136 3.70298 70.7136C4.63025 70.7136 5.46207 71.2318 5.66662 72.2H6.51207ZM7.76917 77H8.57372V73.6864C8.57372 72.9773 9.13281 72.4591 9.89645 72.4591C10.1112 72.4591 10.3328 72.5 10.3874 72.5136V71.6955C10.2953 71.6886 10.0839 71.6818 9.96463 71.6818C9.33736 71.6818 8.7919 72.0364 8.60099 72.5545H8.54645V71.7636H7.76917V77ZM13.3771 77.1091C14.4408 77.1091 15.218 76.5773 15.4635 75.7864L14.6862 75.5682C14.4817 76.1136 14.0078 76.3864 13.3771 76.3864C12.4328 76.3864 11.7817 75.7761 11.7442 74.6545H15.5453V74.3136C15.5453 72.3636 14.3862 71.6955 13.2953 71.6955C11.8771 71.6955 10.9362 72.8136 10.9362 74.4227C10.9362 76.0318 11.8635 77.1091 13.3771 77.1091ZM11.7442 73.9591C11.7987 73.1443 12.3749 72.4182 13.2953 72.4182C14.168 72.4182 14.7271 73.0727 14.7271 73.9591H11.7442ZM18.3101 77.1227C19.2237 77.1227 19.701 76.6318 19.8646 76.2909H19.9055V77H20.7101V73.55C20.7101 71.8864 19.4419 71.6955 18.7737 71.6955C17.9828 71.6955 17.0828 71.9682 16.6737 72.9227L17.4374 73.1955C17.6146 72.8136 18.0339 72.4045 18.801 72.4045C19.5408 72.4045 19.9055 72.7966 19.9055 73.4682V73.4955C19.9055 73.8841 19.5101 73.85 18.5555 73.9727C17.5839 74.0989 16.5237 74.3136 16.5237 75.5136C16.5237 76.5364 17.3146 77.1227 18.3101 77.1227ZM18.4328 76.4C17.7919 76.4 17.3283 76.1136 17.3283 75.5545C17.3283 74.9409 17.8874 74.75 18.5146 74.6682C18.8555 74.6273 19.7692 74.5318 19.9055 74.3682V75.1045C19.9055 75.7591 19.3874 76.4 18.4328 76.4ZM24.4558 71.7636H23.3376V70.5091H22.5331V71.7636H21.7422V72.4455H22.5331V75.7182C22.5331 76.6318 23.2695 77.0682 23.9513 77.0682C24.2513 77.0682 24.4422 77.0136 24.5513 76.9727L24.3876 76.25C24.3195 76.2636 24.2104 76.2909 24.0331 76.2909C23.6786 76.2909 23.3376 76.1818 23.3376 75.5V72.4455H24.4558V71.7636ZM27.8053 77.1091C28.8689 77.1091 29.6462 76.5773 29.8916 75.7864L29.1143 75.5682C28.9098 76.1136 28.4359 76.3864 27.8053 76.3864C26.8609 76.3864 26.2098 75.7761 26.1723 74.6545H29.9734V74.3136C29.9734 72.3636 28.8143 71.6955 27.7234 71.6955C26.3053 71.6955 25.3643 72.8136 25.3643 74.4227C25.3643 76.0318 26.2916 77.1091 27.8053 77.1091ZM26.1723 73.9591C26.2268 73.1443 26.803 72.4182 27.7234 72.4182C28.5962 72.4182 29.1553 73.0727 29.1553 73.9591H26.1723ZM34.4155 78.9636C35.1416 78.9636 35.653 78.5784 35.9564 77.7636L38.1859 71.7773L37.3064 71.7636L35.8609 75.9364H35.8064L34.3609 71.7636H33.4882L35.4246 77.0273L35.2746 77.4364C34.9814 78.2341 34.62 78.3091 34.0337 78.1591L33.8291 78.8682C33.9109 78.9091 34.1428 78.9636 34.4155 78.9636ZM41.1902 77.1091C42.6084 77.1091 43.5629 76.0318 43.5629 74.4091C43.5629 72.7727 42.6084 71.6955 41.1902 71.6955C39.772 71.6955 38.8175 72.7727 38.8175 74.4091C38.8175 76.0318 39.772 77.1091 41.1902 77.1091ZM41.1902 76.3864C40.1129 76.3864 39.622 75.4591 39.622 74.4091C39.622 73.3591 40.1129 72.4182 41.1902 72.4182C42.2675 72.4182 42.7584 73.3591 42.7584 74.4091C42.7584 75.4591 42.2675 76.3864 41.1902 76.3864ZM48.0911 74.8591C48.0911 75.8409 47.3411 76.2909 46.7411 76.2909C46.0729 76.2909 45.5956 75.8 45.5956 75.0364V71.7636H44.7911V75.0909C44.7911 76.4273 45.5001 77.0682 46.482 77.0682C47.2729 77.0682 47.7911 76.6455 48.0365 76.1136H48.0911V77H48.8956V71.7636H48.0911V74.8591ZM50.3692 77H51.1737V73.6864C51.1737 72.9773 51.7328 72.4591 52.4964 72.4591C52.7112 72.4591 52.9328 72.5 52.9874 72.5136V71.6955C52.8953 71.6886 52.6839 71.6818 52.5646 71.6818C51.9374 71.6818 51.3919 72.0364 51.201 72.5545H51.1464V71.7636H50.3692V77ZM58.9729 71.7636H57.8001V71.2318C57.8001 70.7136 58.0183 70.4409 58.5501 70.4409C58.782 70.4409 58.9183 70.4955 59.0001 70.5227L59.232 69.8273C59.1092 69.7727 58.8638 69.6909 58.4683 69.6909C57.7183 69.6909 56.9956 70.1409 56.9956 71.0409V71.7636H56.1501V72.4455H56.9956V77H57.8001V72.4455H58.9729V71.7636ZM60.1004 77H60.905V71.7636H60.1004V77ZM60.5095 70.8909C60.8232 70.8909 61.0822 70.6455 61.0822 70.3455C61.0822 70.0455 60.8232 69.8 60.5095 69.8C60.1959 69.8 59.9368 70.0455 59.9368 70.3455C59.9368 70.6455 60.1959 70.8909 60.5095 70.8909ZM62.3785 77H63.1831V73.6864C63.1831 72.9773 63.7422 72.4591 64.5058 72.4591C64.7206 72.4591 64.9422 72.5 64.9967 72.5136V71.6955C64.9047 71.6886 64.6933 71.6818 64.574 71.6818C63.9467 71.6818 63.4013 72.0364 63.2104 72.5545H63.1558V71.7636H62.3785V77ZM69.6595 72.9364C69.4072 72.1932 68.8413 71.6955 67.805 71.6955C66.7004 71.6955 65.8822 72.3227 65.8822 73.2091C65.8822 73.9318 66.3118 74.4159 67.2732 74.6409L68.1459 74.8455C68.6743 74.9682 68.9232 75.2205 68.9232 75.5818C68.9232 76.0318 68.4459 76.4 67.6959 76.4C67.0379 76.4 66.6254 76.117 66.4822 75.5545L65.7186 75.7455C65.9061 76.6352 66.6391 77.1091 67.7095 77.1091C68.9266 77.1091 69.755 76.4443 69.755 75.5409C69.755 74.8114 69.2982 74.3511 68.3641 74.1227L67.5868 73.9318C66.9663 73.7784 66.6868 73.5705 66.6868 73.1682C66.6868 72.7182 67.1641 72.3909 67.805 72.3909C68.5072 72.3909 68.797 72.7795 68.9368 73.1409L69.6595 72.9364ZM73.2433 71.7636H72.1251V70.5091H71.3206V71.7636H70.5297V72.4455H71.3206V75.7182C71.3206 76.6318 72.057 77.0682 72.7388 77.0682C73.0388 77.0682 73.2297 77.0136 73.3388 76.9727L73.1751 76.25C73.107 76.2636 72.9979 76.2909 72.8206 76.2909C72.4661 76.2909 72.1251 76.1818 72.1251 75.5V72.4455H73.2433V71.7636ZM79.1308 77.1091C80.1399 77.1091 80.4808 76.4818 80.6581 76.1955H80.7536V77H81.5308V70.0182H80.7263V72.5955H80.6581C80.4808 72.3227 80.1672 71.6955 79.1445 71.6955C77.8217 71.6955 76.9081 72.7455 76.9081 74.3955C76.9081 76.0591 77.8217 77.1091 79.1308 77.1091ZM79.2399 76.3864C78.2308 76.3864 77.7126 75.5 77.7126 74.3818C77.7126 73.2773 78.2172 72.4182 79.2399 72.4182C80.2217 72.4182 80.7399 73.2091 80.7399 74.3818C80.7399 75.5682 80.2081 76.3864 79.2399 76.3864ZM84.657 77.1227C85.5706 77.1227 86.0479 76.6318 86.2115 76.2909H86.2524V77H87.057V73.55C87.057 71.8864 85.7888 71.6955 85.1206 71.6955C84.3297 71.6955 83.4297 71.9682 83.0206 72.9227L83.7842 73.1955C83.9615 72.8136 84.3808 72.4045 85.1479 72.4045C85.8876 72.4045 86.2524 72.7966 86.2524 73.4682V73.4955C86.2524 73.8841 85.857 73.85 84.9024 73.9727C83.9308 74.0989 82.8706 74.3136 82.8706 75.5136C82.8706 76.5364 83.6615 77.1227 84.657 77.1227ZM84.7797 76.4C84.1388 76.4 83.6751 76.1136 83.6751 75.5545C83.6751 74.9409 84.2342 74.75 84.8615 74.6682C85.2024 74.6273 86.116 74.5318 86.2524 74.3682V75.1045C86.2524 75.7591 85.7342 76.4 84.7797 76.4ZM92.2345 72.9364C91.9822 72.1932 91.4163 71.6955 90.38 71.6955C89.2754 71.6955 88.4572 72.3227 88.4572 73.2091C88.4572 73.9318 88.8868 74.4159 89.8482 74.6409L90.7209 74.8455C91.2493 74.9682 91.4982 75.2205 91.4982 75.5818C91.4982 76.0318 91.0209 76.4 90.2709 76.4C89.6129 76.4 89.2004 76.117 89.0572 75.5545L88.2936 75.7455C88.4811 76.6352 89.2141 77.1091 90.2845 77.1091C91.5016 77.1091 92.33 76.4443 92.33 75.5409C92.33 74.8114 91.8732 74.3511 90.9391 74.1227L90.1618 73.9318C89.5413 73.7784 89.2618 73.5705 89.2618 73.1682C89.2618 72.7182 89.7391 72.3909 90.38 72.3909C91.0822 72.3909 91.372 72.7795 91.5118 73.1409L92.2345 72.9364ZM94.3456 73.85C94.3456 72.9364 94.9286 72.4182 95.7229 72.4182C96.4797 72.4182 96.9365 72.8955 96.9365 73.7273V77H97.7411V73.6727C97.7411 72.3261 97.0251 71.6955 95.9547 71.6955C95.1297 71.6955 94.6592 72.0398 94.4138 72.5818H94.3456V70.0182H93.5411V77H94.3456V73.85ZM99.322 77H100.099V76.1955H100.195C100.372 76.4818 100.713 77.1091 101.722 77.1091C103.031 77.1091 103.945 76.0591 103.945 74.3955C103.945 72.7455 103.031 71.6955 101.708 71.6955C100.686 71.6955 100.372 72.3227 100.195 72.5955H100.127V70.0182H99.322V77ZM100.113 74.3818C100.113 73.2091 100.631 72.4182 101.613 72.4182C102.636 72.4182 103.14 73.2773 103.14 74.3818C103.14 75.5 102.622 76.3864 101.613 76.3864C100.645 76.3864 100.113 75.5682 100.113 74.3818ZM107.303 77.1091C108.721 77.1091 109.675 76.0318 109.675 74.4091C109.675 72.7727 108.721 71.6955 107.303 71.6955C105.885 71.6955 104.93 72.7727 104.93 74.4091C104.93 76.0318 105.885 77.1091 107.303 77.1091ZM107.303 76.3864C106.225 76.3864 105.735 75.4591 105.735 74.4091C105.735 73.3591 106.225 72.4182 107.303 72.4182C108.38 72.4182 108.871 73.3591 108.871 74.4091C108.871 75.4591 108.38 76.3864 107.303 76.3864ZM112.444 77.1227C113.358 77.1227 113.835 76.6318 113.999 76.2909H114.04V77H114.844V73.55C114.844 71.8864 113.576 71.6955 112.908 71.6955C112.117 71.6955 111.217 71.9682 110.808 72.9227L111.572 73.1955C111.749 72.8136 112.168 72.4045 112.935 72.4045C113.675 72.4045 114.04 72.7966 114.04 73.4682V73.4955C114.04 73.8841 113.644 73.85 112.69 73.9727C111.718 74.0989 110.658 74.3136 110.658 75.5136C110.658 76.5364 111.449 77.1227 112.444 77.1227ZM112.567 76.4C111.926 76.4 111.463 76.1136 111.463 75.5545C111.463 74.9409 112.022 74.75 112.649 74.6682C112.99 74.6273 113.904 74.5318 114.04 74.3682V75.1045C114.04 75.7591 113.522 76.4 112.567 76.4ZM116.313 77H117.117V73.6864C117.117 72.9773 117.677 72.4591 118.44 72.4591C118.655 72.4591 118.877 72.5 118.931 72.5136V71.6955C118.839 71.6886 118.628 71.6818 118.508 71.6818C117.881 71.6818 117.336 72.0364 117.145 72.5545H117.09V71.7636H116.313V77ZM121.703 77.1091C122.712 77.1091 123.053 76.4818 123.23 76.1955H123.325V77H124.103V70.0182H123.298V72.5955H123.23C123.053 72.3227 122.739 71.6955 121.716 71.6955C120.394 71.6955 119.48 72.7455 119.48 74.3955C119.48 76.0591 120.394 77.1091 121.703 77.1091ZM121.812 76.3864C120.803 76.3864 120.285 75.5 120.285 74.3818C120.285 73.2773 120.789 72.4182 121.812 72.4182C122.794 72.4182 123.312 73.2091 123.312 74.3818C123.312 75.5682 122.78 76.3864 121.812 76.3864Z" fill="#AEB8C2"/>
</svg>
