<svg width="109" height="96" viewBox="0 0 109 96" fill="none" xmlns="http://www.w3.org/2000/svg">
<path d="M72.7437 41.7998C72.4437 41.7998 72.2437 41.5998 72.2437 41.2998V17.2998C72.2437 16.9998 72.4437 16.7998 72.7437 16.7998C73.0437 16.7998 73.2437 16.9998 73.2437 17.2998V41.2998C73.2437 41.5998 73.0437 41.7998 72.7437 41.7998Z" fill="#919EAB"/>
<path d="M34.2437 14.7998C37.5574 14.7998 40.2437 12.1135 40.2437 8.7998C40.2437 5.4861 37.5574 2.7998 34.2437 2.7998C30.9299 2.7998 28.2437 5.4861 28.2437 8.7998C28.2437 12.1135 30.9299 14.7998 34.2437 14.7998Z" fill="#BADAFF"/>
<path d="M34.2437 15.2998C30.6437 15.2998 27.7437 12.3998 27.7437 8.7998C27.7437 5.1998 30.6437 2.2998 34.2437 2.2998C37.8437 2.2998 40.7437 5.1998 40.7437 8.7998C40.7437 12.3998 37.8437 15.2998 34.2437 15.2998ZM34.2437 3.2998C31.2437 3.2998 28.7437 5.7998 28.7437 8.7998C28.7437 11.7998 31.2437 14.2998 34.2437 14.2998C37.2437 14.2998 39.7437 11.7998 39.7437 8.7998C39.7437 5.7998 37.2437 3.2998 34.2437 3.2998Z" fill="#919EAB" fill-opacity="0.89"/>
<path d="M34.2437 34.7998C37.5574 34.7998 40.2437 32.1135 40.2437 28.7998C40.2437 25.4861 37.5574 22.7998 34.2437 22.7998C30.9299 22.7998 28.2437 25.4861 28.2437 28.7998C28.2437 32.1135 30.9299 34.7998 34.2437 34.7998Z" fill="#B9DAFF"/>
<path d="M34.2437 35.2998C30.6437 35.2998 27.7437 32.3998 27.7437 28.7998C27.7437 25.1998 30.6437 22.2998 34.2437 22.2998C37.8437 22.2998 40.7437 25.1998 40.7437 28.7998C40.7437 32.3998 37.8437 35.2998 34.2437 35.2998ZM34.2437 23.2998C31.2437 23.2998 28.7437 25.7998 28.7437 28.7998C28.7437 31.7998 31.2437 34.2998 34.2437 34.2998C37.2437 34.2998 39.7437 31.7998 39.7437 28.7998C39.7437 25.7998 37.2437 23.2998 34.2437 23.2998Z" fill="#0076FF" fill-opacity="0.59"/>
<path d="M34.2437 55.2998C30.6437 55.2998 27.7437 52.3998 27.7437 48.7998C27.7437 45.1998 30.6437 42.2998 34.2437 42.2998C37.8437 42.2998 40.7437 45.1998 40.7437 48.7998C40.7437 52.3998 37.8437 55.2998 34.2437 55.2998ZM34.2437 43.2998C31.2437 43.2998 28.7437 45.7998 28.7437 48.7998C28.7437 51.7998 31.2437 54.2998 34.2437 54.2998C37.2437 54.2998 39.7437 51.7998 39.7437 48.7998C39.7437 45.7998 37.2437 43.2998 34.2437 43.2998Z" fill="#96C5FC"/>
<path d="M63.2437 9.2998H43.2437C42.9437 9.2998 42.7437 9.0998 42.7437 8.7998C42.7437 8.4998 42.9437 8.2998 43.2437 8.2998H63.2437C63.5437 8.2998 63.7437 8.4998 63.7437 8.7998C63.7437 9.0998 63.5437 9.2998 63.2437 9.2998Z" fill="#919EAB"/>
<path d="M53.2437 49.2998H43.2437C42.9437 49.2998 42.7437 49.0998 42.7437 48.7998C42.7437 48.4998 42.9437 48.2998 43.2437 48.2998H52.7437V8.7998C52.7437 8.4998 52.9437 8.2998 53.2437 8.2998C53.5437 8.2998 53.7437 8.4998 53.7437 8.7998V48.7998C53.7437 49.0998 53.5437 49.2998 53.2437 49.2998Z" fill="#919EAB"/>
<path d="M53.2437 29.2998H43.2437C42.9437 29.2998 42.7437 29.0998 42.7437 28.7998C42.7437 28.4998 42.9437 28.2998 43.2437 28.2998H53.2437C53.5437 28.2998 53.7437 28.4998 53.7437 28.7998C53.7437 29.0998 53.5437 29.2998 53.2437 29.2998Z" fill="#919EAB"/>
<path d="M72.7437 56.2998C76.8858 56.2998 80.2437 52.9419 80.2437 48.7998C80.2437 44.6577 76.8858 41.2998 72.7437 41.2998C68.6015 41.2998 65.2437 44.6577 65.2437 48.7998C65.2437 52.9419 68.6015 56.2998 72.7437 56.2998Z" fill="#919EAB"/>
<path d="M72.7437 36.2998C76.8858 36.2998 80.2437 32.9419 80.2437 28.7998C80.2437 24.6577 76.8858 21.2998 72.7437 21.2998C68.6015 21.2998 65.2437 24.6577 65.2437 28.7998C65.2437 32.9419 68.6015 36.2998 72.7437 36.2998Z" fill="white"/>
<path d="M72.7437 36.7998C68.3437 36.7998 64.7437 33.1998 64.7437 28.7998C64.7437 24.3998 68.3437 20.7998 72.7437 20.7998C77.1437 20.7998 80.7437 24.3998 80.7437 28.7998C80.7437 33.1998 77.1437 36.7998 72.7437 36.7998ZM72.7437 21.7998C68.8437 21.7998 65.7437 24.8998 65.7437 28.7998C65.7437 32.6998 68.8437 35.7998 72.7437 35.7998C76.6437 35.7998 79.7437 32.6998 79.7437 28.7998C79.7437 24.8998 76.5437 21.7998 72.7437 21.7998Z" fill="#919EAB"/>
<path d="M71.3437 51.6002C71.2437 51.6002 71.0436 51.6002 70.9436 51.5002L68.1437 48.7003C67.9437 48.5003 67.9437 48.2002 68.1437 48.0002C68.3437 47.8002 68.6437 47.8002 68.8437 48.0002L71.3437 50.5002L76.2436 45.6002C76.4436 45.4002 76.7436 45.4002 76.9436 45.6002C77.1436 45.8002 77.1436 46.1003 76.9436 46.3003L71.6437 51.6002C71.5437 51.6002 71.4437 51.6002 71.3437 51.6002Z" fill="white"/>
<path d="M72.7437 29.2998H67.7437C67.4437 29.2998 67.2437 29.0998 67.2437 28.7998C67.2437 28.4998 67.4437 28.2998 67.7437 28.2998H72.2437V23.7998C72.2437 23.4998 72.4437 23.2998 72.7437 23.2998C73.0437 23.2998 73.2437 23.4998 73.2437 23.7998V28.7998C73.2437 29.0998 73.0437 29.2998 72.7437 29.2998Z" fill="#919EAB"/>
<path d="M73.6438 17.8H71.8438C71.1438 17.8 70.5438 17.3 70.3438 16.6L70.1438 15.7001C69.3438 15.4001 68.6437 15 68.0437 14.5L67.1438 14.8C66.4438 15 65.7438 14.7 65.3438 14.1L64.4437 12.6C64.0437 12 64.2437 11.2001 64.7437 10.7001L65.4437 10.1C65.3437 9.69998 65.3438 9.30002 65.3438 8.90002C65.3438 8.50002 65.3437 8.10007 65.4437 7.70007L64.7437 7.09998C64.2437 6.59998 64.0437 5.80007 64.4437 5.20007L65.3438 3.70007C65.7438 3.10007 66.4438 2.8 67.1438 3L68.0437 3.30005C68.6437 2.80005 69.4438 2.29998 70.1438 2.09998L70.3438 1.20007C70.4438 0.500073 71.1438 0 71.8438 0H73.6438C74.3438 0 74.9438 0.500073 75.1438 1.20007L75.3438 2.09998C76.1438 2.39998 76.8437 2.80005 77.4437 3.30005L78.3438 3C79.0438 2.8 79.7438 3.10007 80.1438 3.70007L81.0437 5.20007C81.4437 5.80007 81.2437 6.59998 80.7437 7.09998L80.0437 7.70007C80.1437 8.10007 80.1438 8.50002 80.1438 8.90002C80.1438 9.30002 80.1437 9.69998 80.0437 10.1L80.7437 10.7001C81.2437 11.2001 81.4437 12 81.0437 12.6L80.1438 14.1C79.7438 14.7 79.0438 15 78.3438 14.8L77.4437 14.5C76.8437 15 76.0438 15.5001 75.3438 15.7001L75.1438 16.6C74.9438 17.3 74.3438 17.8 73.6438 17.8ZM68.1438 13.3C68.2438 13.3 68.3438 13.3 68.4437 13.4C69.1437 14 69.9438 14.5 70.8438 14.8C71.0438 14.9 71.2437 15.1 71.2437 15.3V15.6L71.4437 16.4C71.4437 16.6 71.7438 16.8 71.9437 16.8H73.7437C73.9437 16.8 74.1437 16.6 74.2437 16.4L74.4437 15.5V15.3C74.4437 15.1 74.5438 14.9 74.8438 14.8C75.7438 14.5 76.5437 14.1 77.2437 13.4C77.4437 13.3 77.6438 13.2 77.8438 13.3L78.1438 13.5L78.9437 13.8C79.1437 13.9 79.4437 13.8 79.5437 13.6L80.4438 12.1C80.5438 11.9 80.5438 11.6 80.3438 11.5L79.6438 10.9L79.4437 10.8C79.2437 10.7 79.1437 10.5 79.2437 10.3C79.3437 9.80005 79.4437 9.40002 79.4437 8.90002C79.4437 8.40002 79.3437 8 79.2437 7.5C79.2437 7.3 79.2437 7.1 79.4437 7L79.7437 6.80005L80.3438 6.30005C80.5438 6.10005 80.5438 5.90007 80.4438 5.70007L79.5437 4.20007C79.4437 4.00007 79.1437 3.9 78.9437 4L78.0437 4.30005L77.8438 4.40002C77.6438 4.50002 77.4437 4.50005 77.2437 4.30005C76.5437 3.70005 75.7438 3.20002 74.8438 2.90002C74.6438 2.80002 74.4437 2.60002 74.4437 2.40002V2.09998L74.2437 1.30005C74.2437 1.10005 73.9437 0.900024 73.7437 0.900024H71.9437C71.7438 0.900024 71.5437 1.10005 71.4437 1.30005L71.2437 2.20007V2.40002C71.2437 2.60002 71.1438 2.80002 70.8438 2.90002C69.9438 3.20002 69.1437 3.60005 68.4437 4.30005C68.2438 4.40005 68.0438 4.50002 67.8438 4.40002L67.5437 4.20007L66.7437 3.90002C66.5437 3.80002 66.2438 3.89998 66.1438 4.09998L65.2437 5.59998C65.1437 5.79998 65.1438 6.10007 65.3438 6.20007L66.0437 6.80005L66.2437 6.90002C66.4437 7.00002 66.5437 7.20002 66.4437 7.40002C66.3438 7.90002 66.2437 8.30005 66.2437 8.80005C66.2437 9.30005 66.3438 9.70007 66.4437 10.2001C66.4437 10.4001 66.4437 10.6001 66.2437 10.7001L65.9437 10.9L65.3438 11.4C65.1438 11.6 65.1437 11.8 65.2437 12L66.1438 13.5C66.2438 13.7 66.5437 13.8001 66.7437 13.7001L67.6438 13.4L67.8438 13.3C67.9438 13.3 68.0438 13.3 68.1438 13.3ZM72.7437 12.8C70.5437 12.8 68.7437 11 68.7437 8.80005C68.7437 6.60005 70.5437 4.80005 72.7437 4.80005C74.9437 4.80005 76.7437 6.60005 76.7437 8.80005C76.7437 11 74.9437 12.8 72.7437 12.8ZM72.7437 5.80005C71.0437 5.80005 69.7437 7.10005 69.7437 8.80005C69.7437 10.5 71.0437 11.8 72.7437 11.8C74.4437 11.8 75.7437 10.5 75.7437 8.80005C75.7437 7.10005 74.4437 5.80005 72.7437 5.80005Z" fill="#919EAB"/>
<path d="M32.4308 73.318H31.1729V78.0771H31.1115L27.8251 73.318H26.6933V80.2998H27.9581V75.5441H28.0161L31.3058 80.2998H32.4308V73.318ZM36.0385 80.4021C37.5726 80.4021 38.5476 79.3214 38.5476 77.7021C38.5476 76.0793 37.5726 74.9953 36.0385 74.9953C34.5044 74.9953 33.5294 76.0793 33.5294 77.7021C33.5294 79.3214 34.5044 80.4021 36.0385 80.4021ZM36.0453 79.4134C35.1964 79.4134 34.7805 78.6566 34.7805 77.6987C34.7805 76.7407 35.1964 75.9737 36.0453 75.9737C36.8805 75.9737 37.2964 76.7407 37.2964 77.6987C37.2964 78.6566 36.8805 79.4134 36.0453 79.4134ZM41.724 74.3782H43.882V80.2998H45.1365V74.3782H47.2945V73.318H41.724V74.3782ZM47.77 80.2998H49.0041V77.2214C49.0041 76.5566 49.5053 76.0862 50.1837 76.0862C50.3916 76.0862 50.6507 76.1237 50.7564 76.1578V75.0225C50.6439 75.0021 50.4496 74.9884 50.3132 74.9884C49.7132 74.9884 49.2121 75.3293 49.0212 75.9362H48.9666V75.0634H47.77V80.2998ZM51.5763 80.2998H52.8104V75.0634H51.5763V80.2998ZM52.1967 74.3203C52.5888 74.3203 52.9092 74.0203 52.9092 73.6521C52.9092 73.2805 52.5888 72.9805 52.1967 72.9805C51.8013 72.9805 51.4808 73.2805 51.4808 73.6521C51.4808 74.0203 51.8013 74.3203 52.1967 74.3203ZM56.3567 82.3725C57.7714 82.3725 58.8146 81.7248 58.8146 80.385V75.0634H57.5976V75.9293H57.5294C57.3419 75.5509 56.9499 74.9953 56.026 74.9953C54.8158 74.9953 53.8646 75.943 53.8646 77.6646C53.8646 79.3725 54.8158 80.2248 56.0226 80.2248C56.9192 80.2248 57.3385 79.7441 57.5294 79.3589H57.5908V80.3509C57.5908 81.1214 57.0794 81.4384 56.3771 81.4384C55.6339 81.4384 55.3067 81.0873 55.1567 80.7805L54.0453 81.0498C54.2703 81.7828 55.0237 82.3725 56.3567 82.3725ZM56.3669 79.2566C55.5521 79.2566 55.1226 78.6225 55.1226 77.6578C55.1226 76.7066 55.5453 76.0078 56.3669 76.0078C57.1612 76.0078 57.5976 76.6657 57.5976 77.6578C57.5976 78.6566 57.1544 79.2566 56.3669 79.2566ZM62.3567 82.3725C63.7714 82.3725 64.8146 81.7248 64.8146 80.385V75.0634H63.5976V75.9293H63.5294C63.3419 75.5509 62.9499 74.9953 62.026 74.9953C60.8158 74.9953 59.8646 75.943 59.8646 77.6646C59.8646 79.3725 60.8158 80.2248 62.0226 80.2248C62.9192 80.2248 63.3385 79.7441 63.5294 79.3589H63.5908V80.3509C63.5908 81.1214 63.0794 81.4384 62.3771 81.4384C61.6339 81.4384 61.3067 81.0873 61.1567 80.7805L60.0453 81.0498C60.2703 81.7828 61.0237 82.3725 62.3567 82.3725ZM62.3669 79.2566C61.5521 79.2566 61.1226 78.6225 61.1226 77.6578C61.1226 76.7066 61.5453 76.0078 62.3669 76.0078C63.1612 76.0078 63.5976 76.6657 63.5976 77.6578C63.5976 78.6566 63.1544 79.2566 62.3669 79.2566ZM68.3976 80.4021C69.618 80.4021 70.4567 79.8055 70.6749 78.8953L69.5226 78.7657C69.3555 79.2089 68.9464 79.4407 68.4146 79.4407C67.6169 79.4407 67.0885 78.9157 67.0783 78.0191H70.726V77.6407C70.726 75.8032 69.6214 74.9953 68.3328 74.9953C66.8328 74.9953 65.8544 76.0964 65.8544 77.7123C65.8544 79.3555 66.8192 80.4021 68.3976 80.4021ZM67.0817 77.1873C67.1192 76.5191 67.6135 75.9566 68.3499 75.9566C69.0589 75.9566 69.5362 76.4748 69.543 77.1873H67.0817ZM71.77 80.2998H73.0041V77.2214C73.0041 76.5566 73.5053 76.0862 74.1837 76.0862C74.3916 76.0862 74.6507 76.1237 74.7564 76.1578V75.0225C74.6439 75.0021 74.4496 74.9884 74.3132 74.9884C73.7132 74.9884 73.2121 75.3293 73.0212 75.9362H72.9666V75.0634H71.77V80.2998ZM79.7149 76.4475C79.5445 75.5612 78.8354 74.9953 77.6081 74.9953C76.3467 74.9953 75.4876 75.6157 75.491 76.5839C75.4876 77.3475 75.9581 77.8521 76.9638 78.06L77.857 78.2475C78.3376 78.3532 78.5626 78.5475 78.5626 78.8441C78.5626 79.2021 78.174 79.4714 77.5876 79.4714C77.0217 79.4714 76.6535 79.2259 76.5479 78.7555L75.3445 78.8714C75.4979 79.8328 76.3058 80.4021 77.591 80.4021C78.9001 80.4021 79.824 79.7237 79.8274 78.7316C79.824 77.985 79.3433 77.5282 78.3547 77.3134L77.4615 77.1225C76.9297 77.0032 76.7183 76.8191 76.7217 76.5157C76.7183 76.1612 77.1104 75.9157 77.6251 75.9157C78.1945 75.9157 78.4945 76.2259 78.5899 76.5703L79.7149 76.4475ZM81.6053 80.3748C82.0075 80.3748 82.3518 80.0407 82.3553 79.6248C82.3518 79.2157 82.0075 78.8816 81.6053 78.8816C81.1893 78.8816 80.8518 79.2157 80.8553 79.6248C80.8518 80.0407 81.1893 80.3748 81.6053 80.3748ZM6.61676 87.4998C6.35767 86.068 5.21221 85.2225 3.80767 85.2225C2.0213 85.2225 0.725849 86.5998 0.725849 88.8089C0.725849 91.018 2.0213 92.3953 3.80767 92.3953C5.21221 92.3953 6.35767 91.5498 6.61676 90.118H5.7713C5.56676 91.0862 4.73494 91.6044 3.80767 91.6044C2.53949 91.6044 1.54403 90.6225 1.54403 88.8089C1.54403 86.9953 2.53949 86.0134 3.80767 86.0134C4.73494 86.0134 5.56676 86.5316 5.7713 87.4998H6.61676ZM7.87386 92.2998H8.67841V88.9862C8.67841 88.2771 9.2375 87.7589 10.0011 87.7589C10.2159 87.7589 10.4375 87.7998 10.492 87.8134V86.9953C10.4 86.9884 10.1886 86.9816 10.0693 86.9816C9.44204 86.9816 8.89659 87.3362 8.70568 87.8543H8.65113V87.0634H7.87386V92.2998ZM13.4818 92.4089C14.5455 92.4089 15.3227 91.8771 15.5682 91.0862L14.7909 90.868C14.5864 91.4134 14.1125 91.6862 13.4818 91.6862C12.5375 91.6862 11.8864 91.0759 11.8489 89.9543H15.65V89.6134C15.65 87.6634 14.4909 86.9953 13.4 86.9953C11.9818 86.9953 11.0409 88.1134 11.0409 89.7225C11.0409 91.3316 11.9682 92.4089 13.4818 92.4089ZM11.8489 89.2589C11.9034 88.4441 12.4795 87.718 13.4 87.718C14.2727 87.718 14.8318 88.3725 14.8318 89.2589H11.8489ZM18.4148 92.4225C19.3284 92.4225 19.8057 91.9316 19.9693 91.5907H20.0102V92.2998H20.8148V88.8498C20.8148 87.1862 19.5466 86.9953 18.8784 86.9953C18.0875 86.9953 17.1875 87.268 16.7784 88.2225L17.542 88.4953C17.7193 88.1134 18.1386 87.7043 18.9057 87.7043C19.6455 87.7043 20.0102 88.0964 20.0102 88.768V88.7953C20.0102 89.1839 19.6148 89.1498 18.6602 89.2725C17.6886 89.3987 16.6284 89.6134 16.6284 90.8134C16.6284 91.8362 17.4193 92.4225 18.4148 92.4225ZM18.5375 91.6998C17.8966 91.6998 17.433 91.4134 17.433 90.8544C17.433 90.2407 17.992 90.0498 18.6193 89.968C18.9602 89.9271 19.8739 89.8316 20.0102 89.668V90.4044C20.0102 91.0589 19.492 91.6998 18.5375 91.6998ZM24.5605 87.0634H23.4423V85.8089H22.6378V87.0634H21.8469V87.7453H22.6378V91.018C22.6378 91.9316 23.3741 92.368 24.056 92.368C24.356 92.368 24.5469 92.3134 24.656 92.2725L24.4923 91.5498C24.4241 91.5634 24.3151 91.5907 24.1378 91.5907C23.7832 91.5907 23.4423 91.4816 23.4423 90.7998V87.7453H24.5605V87.0634ZM27.9099 92.4089C28.9736 92.4089 29.7509 91.8771 29.9963 91.0862L29.219 90.868C29.0145 91.4134 28.5406 91.6862 27.9099 91.6862C26.9656 91.6862 26.3145 91.0759 26.277 89.9543H30.0781V89.6134C30.0781 87.6634 28.919 86.9953 27.8281 86.9953C26.4099 86.9953 25.469 88.1134 25.469 89.7225C25.469 91.3316 26.3963 92.4089 27.9099 92.4089ZM26.277 89.2589C26.3315 88.4441 26.9077 87.718 27.8281 87.718C28.7009 87.718 29.2599 88.3725 29.2599 89.2589H26.277ZM34.5202 94.2634C35.2463 94.2634 35.7577 93.8782 36.0611 93.0634L38.2906 87.0771L37.4111 87.0634L35.9656 91.2362H35.9111L34.4656 87.0634H33.5929L35.5293 92.3271L35.3793 92.7362C35.0861 93.5339 34.7247 93.6089 34.1384 93.4589L33.9338 94.168C34.0156 94.2089 34.2474 94.2634 34.5202 94.2634ZM41.2949 92.4089C42.7131 92.4089 43.6676 91.3316 43.6676 89.7089C43.6676 88.0725 42.7131 86.9953 41.2949 86.9953C39.8767 86.9953 38.9222 88.0725 38.9222 89.7089C38.9222 91.3316 39.8767 92.4089 41.2949 92.4089ZM41.2949 91.6862C40.2176 91.6862 39.7267 90.7589 39.7267 89.7089C39.7267 88.6589 40.2176 87.718 41.2949 87.718C42.3722 87.718 42.8631 88.6589 42.8631 89.7089C42.8631 90.7589 42.3722 91.6862 41.2949 91.6862ZM48.1957 90.1589C48.1957 91.1407 47.4457 91.5907 46.8457 91.5907C46.1776 91.5907 45.7003 91.0998 45.7003 90.3362V87.0634H44.8957V90.3907C44.8957 91.7271 45.6048 92.368 46.5866 92.368C47.3776 92.368 47.8957 91.9453 48.1412 91.4134H48.1957V92.2998H49.0003V87.0634H48.1957V90.1589ZM50.4739 92.2998H51.2784V88.9862C51.2784 88.2771 51.8375 87.7589 52.6011 87.7589C52.8159 87.7589 53.0375 87.7998 53.092 87.8134V86.9953C53 86.9884 52.7886 86.9816 52.6693 86.9816C52.042 86.9816 51.4966 87.3362 51.3057 87.8543H51.2511V87.0634H50.4739V92.2998ZM59.0776 87.0634H57.9048V86.5316C57.9048 86.0134 58.123 85.7407 58.6548 85.7407C58.8866 85.7407 59.023 85.7953 59.1048 85.8225L59.3366 85.1271C59.2139 85.0725 58.9685 84.9907 58.573 84.9907C57.823 84.9907 57.1003 85.4407 57.1003 86.3407V87.0634H56.2548V87.7453H57.1003V92.2998H57.9048V87.7453H59.0776V87.0634ZM60.2051 92.2998H61.0097V87.0634H60.2051V92.2998ZM60.6142 86.1907C60.9278 86.1907 61.1869 85.9453 61.1869 85.6453C61.1869 85.3453 60.9278 85.0998 60.6142 85.0998C60.3006 85.0998 60.0415 85.3453 60.0415 85.6453C60.0415 85.9453 60.3006 86.1907 60.6142 86.1907ZM62.4832 92.2998H63.2878V88.9862C63.2878 88.2771 63.8469 87.7589 64.6105 87.7589C64.8253 87.7589 65.0469 87.7998 65.1014 87.8134V86.9953C65.0094 86.9884 64.798 86.9816 64.6787 86.9816C64.0514 86.9816 63.506 87.3362 63.3151 87.8543H63.2605V87.0634H62.4832V92.2998ZM69.7642 88.2362C69.5119 87.493 68.946 86.9953 67.9097 86.9953C66.8051 86.9953 65.9869 87.6225 65.9869 88.5089C65.9869 89.2316 66.4165 89.7157 67.3778 89.9407L68.2506 90.1453C68.779 90.268 69.0278 90.5203 69.0278 90.8816C69.0278 91.3316 68.5506 91.6998 67.8006 91.6998C67.1426 91.6998 66.7301 91.4169 66.5869 90.8544L65.8233 91.0453C66.0108 91.935 66.7437 92.4089 67.8142 92.4089C69.0312 92.4089 69.8597 91.7441 69.8597 90.8407C69.8597 90.1112 69.4028 89.6509 68.4687 89.4225L67.6915 89.2316C67.071 89.0782 66.7915 88.8703 66.7915 88.468C66.7915 88.018 67.2687 87.6907 67.9097 87.6907C68.6119 87.6907 68.9017 88.0793 69.0415 88.4407L69.7642 88.2362ZM73.348 87.0634H72.2298V85.8089H71.4253V87.0634H70.6344V87.7453H71.4253V91.018C71.4253 91.9316 72.1616 92.368 72.8435 92.368C73.1435 92.368 73.3344 92.3134 73.4435 92.2725L73.2798 91.5498C73.2116 91.5634 73.1026 91.5907 72.9253 91.5907C72.5707 91.5907 72.2298 91.4816 72.2298 90.7998V87.7453H73.348V87.0634ZM76.9855 86.068H79.181V92.2998H80.0264V86.068H82.2219V85.318H76.9855V86.068ZM82.8739 92.2998H83.6784V88.9862C83.6784 88.2771 84.2375 87.7589 85.0011 87.7589C85.2159 87.7589 85.4375 87.7998 85.492 87.8134V86.9953C85.4 86.9884 85.1886 86.9816 85.0693 86.9816C84.442 86.9816 83.8966 87.3362 83.7057 87.8543H83.6511V87.0634H82.8739V92.2998ZM86.4457 92.2998H87.2503V87.0634H86.4457V92.2998ZM86.8548 86.1907C87.1685 86.1907 87.4276 85.9453 87.4276 85.6453C87.4276 85.3453 87.1685 85.0998 86.8548 85.0998C86.5412 85.0998 86.2821 85.3453 86.2821 85.6453C86.2821 85.9453 86.5412 86.1907 86.8548 86.1907ZM90.8375 94.3725C92.092 94.3725 93.1011 93.7998 93.1011 92.4498V87.0634H92.3239V87.8953H92.242C92.0648 87.6225 91.7375 86.9953 90.7148 86.9953C89.392 86.9953 88.4784 88.0453 88.4784 89.6543C88.4784 91.2907 89.433 92.218 90.7011 92.218C91.7239 92.218 92.0511 91.618 92.2284 91.3316H92.2966V92.3953C92.2966 93.268 91.683 93.6634 90.8375 93.6634C89.8864 93.6634 89.5523 93.1623 89.3375 92.8725L88.6966 93.3225C89.0239 93.8714 89.6682 94.3725 90.8375 94.3725ZM90.8102 91.4953C89.8011 91.4953 89.283 90.7316 89.283 89.6407C89.283 88.5771 89.7875 87.718 90.8102 87.718C91.792 87.718 92.3102 88.5089 92.3102 89.6407C92.3102 90.7998 91.7784 91.4953 90.8102 91.4953ZM96.6875 94.3725C97.942 94.3725 98.9511 93.7998 98.9511 92.4498V87.0634H98.1739V87.8953H98.092C97.9148 87.6225 97.5875 86.9953 96.5648 86.9953C95.242 86.9953 94.3284 88.0453 94.3284 89.6543C94.3284 91.2907 95.283 92.218 96.5511 92.218C97.5739 92.218 97.9011 91.618 98.0784 91.3316H98.1466V92.3953C98.1466 93.268 97.533 93.6634 96.6875 93.6634C95.7364 93.6634 95.4023 93.1623 95.1875 92.8725L94.5466 93.3225C94.8739 93.8714 95.5182 94.3725 96.6875 94.3725ZM96.6602 91.4953C95.6511 91.4953 95.133 90.7316 95.133 89.6407C95.133 88.5771 95.6375 87.718 96.6602 87.718C97.642 87.718 98.1602 88.5089 98.1602 89.6407C98.1602 90.7998 97.6284 91.4953 96.6602 91.4953ZM102.619 92.4089C103.683 92.4089 104.46 91.8771 104.706 91.0862L103.928 90.868C103.724 91.4134 103.25 91.6862 102.619 91.6862C101.675 91.6862 101.024 91.0759 100.986 89.9543H104.788V89.6134C104.788 87.6634 103.628 86.9953 102.538 86.9953C101.119 86.9953 100.178 88.1134 100.178 89.7225C100.178 91.3316 101.106 92.4089 102.619 92.4089ZM100.986 89.2589C101.041 88.4441 101.617 87.718 102.538 87.718C103.41 87.718 103.969 88.3725 103.969 89.2589H100.986ZM106.011 92.2998H106.816V88.9862C106.816 88.2771 107.375 87.7589 108.139 87.7589C108.353 87.7589 108.575 87.7998 108.63 87.8134V86.9953C108.538 86.9884 108.326 86.9816 108.207 86.9816C107.58 86.9816 107.034 87.3362 106.843 87.8543H106.789V87.0634H106.011V92.2998Z" fill="#AEB8C2"/>
</svg>
