<svg width="141" height="95" viewBox="0 0 141 95" fill="none" xmlns="http://www.w3.org/2000/svg">
<path d="M71.25 51.5H44.25C42.55 51.5 41.25 50.2 41.25 48.5V43.5C41.25 41.8 42.55 40.5 44.25 40.5H71.25C72.95 40.5 74.25 41.8 74.25 43.5V48.5C74.25 50.1 72.95 51.5 71.25 51.5ZM44.25 41.5C43.15 41.5 42.25 42.4 42.25 43.5V48.5C42.25 49.6 43.15 50.5 44.25 50.5H71.25C72.35 50.5 73.25 49.6 73.25 48.5V43.5C73.25 42.4 72.35 41.5 71.25 41.5H44.25Z" fill="#919EAB"/>
<path d="M48.75 48C47.65 48 46.75 47.1 46.75 46C46.75 44.9 47.65 44 48.75 44C49.85 44 50.75 44.9 50.75 46C50.75 47.1 49.85 48 48.75 48ZM48.75 45C48.15 45 47.75 45.4 47.75 46C47.75 46.6 48.15 47 48.75 47C49.35 47 49.75 46.6 49.75 46C49.75 45.4 49.35 45 48.75 45Z" fill="#919EAB"/>
<path d="M67.75 46.5H53.75C53.45 46.5 53.25 46.3 53.25 46C53.25 45.7 53.45 45.5 53.75 45.5H67.75C68.05 45.5 68.25 45.7 68.25 46C68.25 46.3 68.05 46.5 67.75 46.5Z" fill="#919EAB"/>
<path d="M71.25 41.5H44.25C42.55 41.5 41.25 40.2 41.25 38.5V33.5C41.25 31.8 42.55 30.5 44.25 30.5H71.25C72.95 30.5 74.25 31.8 74.25 33.5V38.5C74.25 40.1 72.95 41.5 71.25 41.5ZM44.25 31.5C43.15 31.5 42.25 32.4 42.25 33.5V38.5C42.25 39.6 43.15 40.5 44.25 40.5H71.25C72.35 40.5 73.25 39.6 73.25 38.5V33.5C73.25 32.4 72.35 31.5 71.25 31.5H44.25Z" fill="#919EAB"/>
<path d="M48.75 38C47.65 38 46.75 37.1 46.75 36C46.75 34.9 47.65 34 48.75 34C49.85 34 50.75 34.9 50.75 36C50.75 37.1 49.85 38 48.75 38ZM48.75 35C48.15 35 47.75 35.4 47.75 36C47.75 36.6 48.15 37 48.75 37C49.35 37 49.75 36.6 49.75 36C49.75 35.4 49.35 35 48.75 35Z" fill="#919EAB"/>
<path d="M67.75 36.5H53.75C53.45 36.5 53.25 36.3 53.25 36C53.25 35.7 53.45 35.5 53.75 35.5H67.75C68.05 35.5 68.25 35.7 68.25 36C68.25 36.3 68.05 36.5 67.75 36.5Z" fill="#919EAB"/>
<path d="M71.25 31.5H44.25C42.55 31.5 41.25 30.2 41.25 28.5V23.5C41.25 21.8 42.55 20.5 44.25 20.5H71.25C72.95 20.5 74.25 21.8 74.25 23.5V28.5C74.25 30.1 72.95 31.5 71.25 31.5ZM44.25 21.5C43.15 21.5 42.25 22.4 42.25 23.5V28.5C42.25 29.6 43.15 30.5 44.25 30.5H71.25C72.35 30.5 73.25 29.6 73.25 28.5V23.5C73.25 22.4 72.35 21.5 71.25 21.5H44.25Z" fill="#919EAB"/>
<path d="M48.75 28C47.65 28 46.75 27.1 46.75 26C46.75 24.9 47.65 24 48.75 24C49.85 24 50.75 24.9 50.75 26C50.75 27.1 49.85 28 48.75 28ZM48.75 25C48.15 25 47.75 25.4 47.75 26C47.75 26.6 48.15 27 48.75 27C49.35 27 49.75 26.6 49.75 26C49.75 25.4 49.35 25 48.75 25Z" fill="#919EAB"/>
<path d="M67.75 26.5H53.75C53.45 26.5 53.25 26.3 53.25 26C53.25 25.7 53.45 25.5 53.75 25.5H67.75C68.05 25.5 68.25 25.7 68.25 26C68.25 26.3 68.05 26.5 67.75 26.5Z" fill="#919EAB"/>
<path d="M71.75 55.5H43.75C43.45 55.5 43.25 55.3 43.25 55V51C43.25 50.7 43.45 50.5 43.75 50.5H71.75C72.05 50.5 72.25 50.7 72.25 51V55C72.25 55.3 72.05 55.5 71.75 55.5ZM44.25 54.5H71.25V51.5H44.25V54.5Z" fill="#919EAB"/>
<path d="M60.55 8.6999C60.45 8.6999 60.25 8.6999 60.15 8.5999C56.05 4.4999 49.35 4.4999 45.35 8.5999C45.15 8.7999 44.85 8.7999 44.65 8.5999C44.45 8.3999 44.45 8.0999 44.65 7.8999C49.15 3.3999 56.45 3.3999 60.95 7.8999C61.15 8.0999 61.15 8.3999 60.95 8.5999C60.85 8.6999 60.65 8.6999 60.55 8.6999Z" fill="#919EAB"/>
<path d="M57.7498 11.4999C57.6498 11.4999 57.4498 11.4999 57.3498 11.3999C54.8498 8.89991 50.6498 8.89991 48.1498 11.3999C47.9498 11.5999 47.6498 11.5999 47.4498 11.3999C47.2498 11.1999 47.2498 10.8999 47.4498 10.6999C50.3498 7.7999 55.1498 7.7999 58.0498 10.6999C58.2498 10.8999 58.2498 11.1999 58.0498 11.3999C57.9498 11.4999 57.8498 11.4999 57.7498 11.4999Z" fill="#919EAB"/>
<path d="M54.9502 14.4C54.8502 14.4 54.6502 14.4 54.5502 14.3C53.6502 13.4 51.9502 13.4 51.0502 14.3C50.8502 14.5 50.5502 14.5 50.3502 14.3C50.1502 14.1 50.1502 13.8 50.3502 13.6C51.6502 12.3 53.9502 12.3 55.2502 13.6C55.4502 13.8 55.4502 14.1 55.2502 14.3C55.1502 14.3 55.0502 14.4 54.9502 14.4Z" fill="#919EAB"/>
<path d="M87.25 50L93.25 44H89.75V39C89.75 38.4 89.35 38 88.75 38H85.75C85.15 38 84.75 38.4 84.75 39V44H81.25L87.25 50Z" fill="#0076FF" fill-opacity="0.1"/>
<path d="M87.2499 50.5001C87.1499 50.5001 86.9499 50.5001 86.8499 50.4001L80.8499 44.4001C80.7499 44.3001 80.6499 44.0001 80.7499 43.9001C80.8499 43.8001 81.0499 43.6001 81.2499 43.6001H84.2499V39.1001C84.2499 38.3001 84.9499 37.6001 85.7499 37.6001H88.7499C89.5499 37.6001 90.2499 38.3001 90.2499 39.1001V43.6001H93.2499C93.4499 43.6001 93.6499 43.7001 93.7499 43.9001C93.8499 44.1001 93.7499 44.3001 93.6499 44.4001L87.6499 50.4001C87.5499 50.4001 87.4499 50.5001 87.2499 50.5001ZM82.4499 44.5001L87.2499 49.3001L92.0499 44.5001H89.7499C89.4499 44.5001 89.2499 44.3001 89.2499 44.0001V39.0001C89.2499 38.7001 89.0499 38.5001 88.7499 38.5001H85.7499C85.4499 38.5001 85.2499 38.7001 85.2499 39.0001V44.0001C85.2499 44.3001 85.0499 44.5001 84.7499 44.5001H82.4499Z" fill="#919EAB"/>
<path d="M92.25 55.5H82.25C81.45 55.5 80.75 54.8 80.75 54V51C80.75 50.7 80.95 50.5 81.25 50.5C81.55 50.5 81.75 50.7 81.75 51V54C81.75 54.3 81.95 54.5 82.25 54.5H92.25C92.55 54.5 92.75 54.3 92.75 54V51C92.75 50.7 92.95 50.5 93.25 50.5C93.55 50.5 93.75 50.7 93.75 51V54C93.75 54.8 93.15 55.5 92.25 55.5Z" fill="#919EAB"/>
<path d="M94.75 16C97.55 16 99.75 13.8 99.75 11C99.75 8.2 97.55 6 94.75 6H93.25C93.25 2.7 90.55 0 87.25 0C83.95 0 81.25 2.7 81.25 6H79.75C76.95 6 74.75 8.2 74.75 11C74.75 13.8 76.95 16 79.75 16H94.75Z" fill="#0076FF" fill-opacity="0.1"/>
<path d="M92.75 24H84.75C84.15 24 83.75 23.6 83.75 23V13C83.75 12.4 84.15 12 84.75 12H92.75C93.35 12 93.75 12.4 93.75 13V23C93.75 23.5 93.35 24 92.75 24Z" fill="white"/>
<path d="M92.75 24.5H84.75C83.95 24.5 83.25 23.8 83.25 23V13C83.25 12.2 83.95 11.5 84.75 11.5H92.75C93.55 11.5 94.25 12.2 94.25 13V23C94.25 23.8 93.65 24.5 92.75 24.5ZM84.75 12.5C84.45 12.5 84.25 12.7 84.25 13V23C84.25 23.3 84.45 23.5 84.75 23.5H92.75C93.05 23.5 93.25 23.3 93.25 23V13C93.25 12.7 93.05 12.5 92.75 12.5H84.75Z" fill="#919EAB"/>
<rect x="81.25" y="9" width="9" height="12" fill="#919EAB"/>
<path d="M89.75 21.5H81.75C80.95 21.5 80.25 20.8 80.25 20V10C80.25 9.2 80.95 8.5 81.75 8.5H89.75C90.55 8.5 91.25 9.2 91.25 10V20C91.25 20.8 90.65 21.5 89.75 21.5ZM81.75 9.5C81.45 9.5 81.25 9.7 81.25 10V20C81.25 20.3 81.45 20.5 81.75 20.5H89.75C90.05 20.5 90.25 20.3 90.25 20V10C90.25 9.7 90.05 9.5 89.75 9.5H81.75Z" fill="#919EAB"/>
<path d="M88.25 13H83.25C82.95 13 82.75 12.8 82.75 12.5C82.75 12.2 82.95 12 83.25 12H88.25C88.55 12 88.75 12.2 88.75 12.5C88.75 12.8 88.55 13 88.25 13Z" fill="#CDE3FD"/>
<path d="M88.25 15.5H83.25C82.95 15.5 82.75 15.3 82.75 15C82.75 14.7 82.95 14.5 83.25 14.5H88.25C88.55 14.5 88.75 14.7 88.75 15C88.75 15.3 88.55 15.5 88.25 15.5Z" fill="#CDE3FD"/>
<path d="M88.25 18H83.25C82.95 18 82.75 17.8 82.75 17.5C82.75 17.2 82.95 17 83.25 17H88.25C88.55 17 88.75 17.2 88.75 17.5C88.75 17.8 88.55 18 88.25 18Z" fill="#CDE3FD"/>
<rect x="42.25" y="21" width="31" height="10" rx="2" fill="#0076FF" fill-opacity="0.1"/>
<rect x="42.25" y="31" width="31" height="10" rx="2" fill="#0076FF" fill-opacity="0.1"/>
<rect x="42.25" y="41" width="31" height="10" rx="2" fill="#0076FF" fill-opacity="0.1"/>
<rect x="43.25" y="51" width="29" height="4" rx="1" fill="#0076FF" fill-opacity="0.1"/>
<path d="M38.5308 72.5182H37.2729V77.2773H37.2115L33.9251 72.5182H32.7933V79.5H34.0581V74.7443H34.1161L37.4058 79.5H38.5308V72.5182ZM42.1385 79.6023C43.6726 79.6023 44.6476 78.5216 44.6476 76.9023C44.6476 75.2795 43.6726 74.1955 42.1385 74.1955C40.6044 74.1955 39.6294 75.2795 39.6294 76.9023C39.6294 78.5216 40.6044 79.6023 42.1385 79.6023ZM42.1453 78.6136C41.2965 78.6136 40.8805 77.8568 40.8805 76.8989C40.8805 75.9409 41.2965 75.1739 42.1453 75.1739C42.9805 75.1739 43.3965 75.9409 43.3965 76.8989C43.3965 77.8568 42.9805 78.6136 42.1453 78.6136ZM50.4967 79.5C52.624 79.5 53.8854 78.1841 53.8854 76.0023C53.8854 73.8273 52.624 72.5182 50.5445 72.5182H48.1308V79.5H50.4967ZM49.3956 78.4057V73.6125H50.4729C51.8911 73.6125 52.6308 74.4034 52.6308 76.0023C52.6308 77.608 51.8911 78.4057 50.4354 78.4057H49.3956ZM56.5393 79.6057C57.3609 79.6057 57.8518 79.2205 58.0768 78.7807H58.1178V79.5H59.3041V75.9955C59.3041 74.6114 58.1757 74.1955 57.1768 74.1955C56.0757 74.1955 55.2303 74.6864 54.9575 75.6409L56.1098 75.8045C56.2325 75.4466 56.5803 75.1398 57.1837 75.1398C57.7564 75.1398 58.07 75.433 58.07 75.9477V75.9682C58.07 76.3227 57.6984 76.3398 56.7746 76.4386C55.7587 76.5477 54.7871 76.8511 54.7871 78.0307C54.7871 79.0602 55.5405 79.6057 56.5393 79.6057ZM56.8598 78.6989C56.345 78.6989 55.9768 78.4636 55.9768 78.0102C55.9768 77.5364 56.3893 77.3386 56.9416 77.2602C57.2655 77.2159 57.9132 77.1341 58.0734 77.0045V77.6216C58.0734 78.2045 57.603 78.6989 56.8598 78.6989ZM63.1598 74.2636H62.1268V73.0091H60.8928V74.2636H60.1496V75.2182H60.8928V78.1295C60.8859 79.1148 61.6018 79.5989 62.5291 79.5716C62.8803 79.5614 63.1223 79.4932 63.2553 79.4489L63.0473 78.4841C62.9791 78.5011 62.8393 78.5318 62.6859 78.5318C62.3757 78.5318 62.1268 78.4227 62.1268 77.925V75.2182H63.1598V74.2636ZM65.6987 79.6057C66.5203 79.6057 67.0112 79.2205 67.2362 78.7807H67.2771V79.5H68.4635V75.9955C68.4635 74.6114 67.3351 74.1955 66.3362 74.1955C65.2351 74.1955 64.3896 74.6864 64.1169 75.6409L65.2692 75.8045C65.3919 75.4466 65.7396 75.1398 66.343 75.1398C66.9158 75.1398 67.2294 75.433 67.2294 75.9477V75.9682C67.2294 76.3227 66.8578 76.3398 65.934 76.4386C64.918 76.5477 63.9465 76.8511 63.9465 78.0307C63.9465 79.0602 64.6999 79.6057 65.6987 79.6057ZM66.0192 78.6989C65.5044 78.6989 65.1362 78.4636 65.1362 78.0102C65.1362 77.5364 65.5487 77.3386 66.101 77.2602C66.4249 77.2159 67.0726 77.1341 67.2328 77.0045V77.6216C67.2328 78.2045 66.7624 78.6989 66.0192 78.6989ZM73.843 75.6477C73.6726 74.7614 72.9635 74.1955 71.7362 74.1955C70.4749 74.1955 69.6158 74.8159 69.6192 75.7841C69.6158 76.5477 70.0862 77.0523 71.0919 77.2602L71.9851 77.4477C72.4658 77.5534 72.6908 77.7477 72.6908 78.0443C72.6908 78.4023 72.3021 78.6716 71.7158 78.6716C71.1499 78.6716 70.7817 78.4261 70.676 77.9557L69.4726 78.0716C69.626 79.033 70.4339 79.6023 71.7192 79.6023C73.0283 79.6023 73.9521 78.9239 73.9555 77.9318C73.9521 77.1852 73.4714 76.7284 72.4828 76.5136L71.5896 76.3227C71.0578 76.2034 70.8464 76.0193 70.8499 75.7159C70.8464 75.3614 71.2385 75.1159 71.7533 75.1159C72.3226 75.1159 72.6226 75.4261 72.718 75.7705L73.843 75.6477ZM77.2572 79.6023C78.7913 79.6023 79.7663 78.5216 79.7663 76.9023C79.7663 75.2795 78.7913 74.1955 77.2572 74.1955C75.7232 74.1955 74.7482 75.2795 74.7482 76.9023C74.7482 78.5216 75.7232 79.6023 77.2572 79.6023ZM77.2641 78.6136C76.4152 78.6136 75.9993 77.8568 75.9993 76.8989C75.9993 75.9409 76.4152 75.1739 77.2641 75.1739C78.0993 75.1739 78.5152 75.9409 78.5152 76.8989C78.5152 77.8568 78.0993 78.6136 77.2641 78.6136ZM84.1513 77.2977C84.1513 78.0955 83.582 78.4909 83.0365 78.4909C82.4433 78.4909 82.0479 78.0716 82.0479 77.4068V74.2636H80.8138V77.5977C80.8138 78.8557 81.5297 79.5682 82.5592 79.5682C83.3433 79.5682 83.8956 79.1557 84.1342 78.5693H84.1888V79.5H85.3854V74.2636H84.1513V77.2977ZM86.6544 79.5H87.8885V76.4216C87.8885 75.7568 88.3896 75.2864 89.068 75.2864C89.276 75.2864 89.5351 75.3239 89.6408 75.358V74.2227C89.5283 74.2023 89.3339 74.1886 89.1976 74.1886C88.5976 74.1886 88.0964 74.5295 87.9055 75.1364H87.851V74.2636H86.6544V79.5ZM92.5291 79.6023C93.845 79.6023 94.6837 78.8216 94.7723 77.7102H93.5928C93.4871 78.2727 93.0814 78.5966 92.5393 78.5966C91.7689 78.5966 91.2712 77.9523 91.2712 76.8818C91.2712 75.825 91.7791 75.1909 92.5393 75.1909C93.1325 75.1909 93.4973 75.5727 93.5928 76.0773H94.7723C94.6871 74.942 93.8007 74.1955 92.5223 74.1955C90.9882 74.1955 90.02 75.3034 90.02 76.9023C90.02 78.4875 90.9643 79.6023 92.5291 79.6023ZM98.1038 79.6023C99.3243 79.6023 100.163 79.0057 100.381 78.0955L99.2288 77.9659C99.0618 78.4091 98.6527 78.6409 98.1209 78.6409C97.3232 78.6409 96.7947 78.1159 96.7845 77.2193H100.432V76.8409C100.432 75.0034 99.3277 74.1955 98.0391 74.1955C96.5391 74.1955 95.5607 75.2966 95.5607 76.9125C95.5607 78.5557 96.5254 79.6023 98.1038 79.6023ZM96.7879 76.3875C96.8254 75.7193 97.3197 75.1568 98.0561 75.1568C98.7652 75.1568 99.2425 75.675 99.2493 76.3875H96.7879ZM105.615 75.6477C105.444 74.7614 104.735 74.1955 103.508 74.1955C102.247 74.1955 101.388 74.8159 101.391 75.7841C101.388 76.5477 101.858 77.0523 102.864 77.2602L103.757 77.4477C104.238 77.5534 104.463 77.7477 104.463 78.0443C104.463 78.4023 104.074 78.6716 103.488 78.6716C102.922 78.6716 102.554 78.4261 102.448 77.9557L101.244 78.0716C101.398 79.033 102.206 79.6023 103.491 79.6023C104.8 79.6023 105.724 78.9239 105.727 77.9318C105.724 77.1852 105.243 76.7284 104.255 76.5136L103.362 76.3227C102.83 76.2034 102.618 76.0193 102.622 75.7159C102.618 75.3614 103.01 75.1159 103.525 75.1159C104.094 75.1159 104.394 75.4261 104.49 75.7705L105.615 75.6477ZM107.505 79.575C107.908 79.575 108.252 79.2409 108.255 78.825C108.252 78.4159 107.908 78.0818 107.505 78.0818C107.089 78.0818 106.752 78.4159 106.755 78.825C106.752 79.2409 107.089 79.575 107.505 79.575ZM9.31832 86.7C9.05923 85.2682 7.91378 84.4227 6.50923 84.4227C4.72287 84.4227 3.42741 85.8 3.42741 88.0091C3.42741 90.2182 4.72287 91.5955 6.50923 91.5955C7.91378 91.5955 9.05923 90.75 9.31832 89.3182H8.47287C8.26832 90.2864 7.4365 90.8045 6.50923 90.8045C5.24105 90.8045 4.2456 89.8227 4.2456 88.0091C4.2456 86.1955 5.24105 85.2136 6.50923 85.2136C7.4365 85.2136 8.26832 85.7318 8.47287 86.7H9.31832ZM12.7027 91.6091C14.1209 91.6091 15.0754 90.5318 15.0754 88.9091C15.0754 87.2727 14.1209 86.1955 12.7027 86.1955C11.2845 86.1955 10.33 87.2727 10.33 88.9091C10.33 90.5318 11.2845 91.6091 12.7027 91.6091ZM12.7027 90.8864C11.6254 90.8864 11.1345 89.9591 11.1345 88.9091C11.1345 87.8591 11.6254 86.9182 12.7027 86.9182C13.78 86.9182 14.2709 87.8591 14.2709 88.9091C14.2709 89.9591 13.78 90.8864 12.7027 90.8864ZM17.1081 88.35C17.1081 87.4364 17.674 86.9182 18.4445 86.9182C19.1911 86.9182 19.6445 87.4057 19.6445 88.2273V91.5H20.449V88.1727C20.449 86.8364 19.7365 86.1955 18.6763 86.1955C17.8854 86.1955 17.3945 86.55 17.149 87.0818H17.0808V86.2636H16.3036V91.5H17.1081V88.35ZM22.7237 88.35C22.7237 87.4364 23.2896 86.9182 24.0601 86.9182C24.8067 86.9182 25.2601 87.4057 25.2601 88.2273V91.5H26.0646V88.1727C26.0646 86.8364 25.3521 86.1955 24.2919 86.1955C23.501 86.1955 23.0101 86.55 22.7646 87.0818H22.6964V86.2636H21.9192V91.5H22.7237V88.35ZM29.7303 91.6091C30.7939 91.6091 31.5712 91.0773 31.8166 90.2864L31.0393 90.0682C30.8348 90.6136 30.3609 90.8864 29.7303 90.8864C28.7859 90.8864 28.1348 90.2761 28.0973 89.1545H31.8984V88.8136C31.8984 86.8636 30.7393 86.1955 29.6484 86.1955C28.2303 86.1955 27.2893 87.3136 27.2893 88.9227C27.2893 90.5318 28.2166 91.6091 29.7303 91.6091ZM28.0973 88.4591C28.1518 87.6443 28.728 86.9182 29.6484 86.9182C30.5212 86.9182 31.0803 87.5727 31.0803 88.4591H28.0973ZM35.2496 91.6091C36.4087 91.6091 37.1723 90.9 37.3087 89.9727H36.5041C36.3541 90.5455 35.8768 90.8864 35.2496 90.8864C34.295 90.8864 33.6814 90.0955 33.6814 88.8818C33.6814 87.6955 34.3087 86.9182 35.2496 86.9182C35.9587 86.9182 36.3814 87.3545 36.5041 87.8318H37.3087C37.1723 86.85 36.3405 86.1955 35.2359 86.1955C33.8178 86.1955 32.8768 87.3136 32.8768 88.9091C32.8768 90.4773 33.7768 91.6091 35.2496 91.6091ZM40.7621 86.2636H39.6439V85.0091H38.8393V86.2636H38.0484V86.9455H38.8393V90.2182C38.8393 91.1318 39.5757 91.5682 40.2575 91.5682C40.5575 91.5682 40.7484 91.5136 40.8575 91.4727L40.6939 90.75C40.6257 90.7636 40.5166 90.7909 40.3393 90.7909C39.9848 90.7909 39.6439 90.6818 39.6439 90V86.9455H40.7621V86.2636ZM45.1905 93.4636C45.9166 93.4636 46.428 93.0784 46.7314 92.2636L48.9609 86.2773L48.0814 86.2636L46.6359 90.4364H46.5814L45.1359 86.2636H44.2632L46.1996 91.5273L46.0496 91.9364C45.7564 92.7341 45.395 92.8091 44.8087 92.6591L44.6041 93.3682C44.6859 93.4091 44.9178 93.4636 45.1905 93.4636ZM51.9652 91.6091C53.3834 91.6091 54.3379 90.5318 54.3379 88.9091C54.3379 87.2727 53.3834 86.1955 51.9652 86.1955C50.547 86.1955 49.5925 87.2727 49.5925 88.9091C49.5925 90.5318 50.547 91.6091 51.9652 91.6091ZM51.9652 90.8864C50.8879 90.8864 50.397 89.9591 50.397 88.9091C50.397 87.8591 50.8879 86.9182 51.9652 86.9182C53.0425 86.9182 53.5334 87.8591 53.5334 88.9091C53.5334 89.9591 53.0425 90.8864 51.9652 90.8864ZM58.8661 89.3591C58.8661 90.3409 58.1161 90.7909 57.5161 90.7909C56.8479 90.7909 56.3706 90.3 56.3706 89.5364V86.2636H55.5661V89.5909C55.5661 90.9273 56.2751 91.5682 57.257 91.5682C58.0479 91.5682 58.5661 91.1455 58.8115 90.6136H58.8661V91.5H59.6706V86.2636H58.8661V89.3591ZM61.1442 91.5H61.9487V88.1864C61.9487 87.4773 62.5078 86.9591 63.2715 86.9591C63.4862 86.9591 63.7078 87 63.7624 87.0136V86.1955C63.6703 86.1886 63.459 86.1818 63.3396 86.1818C62.7124 86.1818 62.1669 86.5364 61.976 87.0545H61.9215V86.2636H61.1442V91.5ZM69.7479 86.2636H68.5751V85.7318C68.5751 85.2136 68.7933 84.9409 69.3251 84.9409C69.557 84.9409 69.6933 84.9955 69.7751 85.0227L70.007 84.3273C69.8842 84.2727 69.6388 84.1909 69.2433 84.1909C68.4933 84.1909 67.7706 84.6409 67.7706 85.5409V86.2636H66.9251V86.9455H67.7706V91.5H68.5751V86.9455H69.7479V86.2636ZM70.8754 91.5H71.68V86.2636H70.8754V91.5ZM71.2845 85.3909C71.5982 85.3909 71.8572 85.1455 71.8572 84.8455C71.8572 84.5455 71.5982 84.3 71.2845 84.3C70.9709 84.3 70.7118 84.5455 70.7118 84.8455C70.7118 85.1455 70.9709 85.3909 71.2845 85.3909ZM73.1536 91.5H73.9581V88.1864C73.9581 87.4773 74.5172 86.9591 75.2808 86.9591C75.4956 86.9591 75.7172 87 75.7717 87.0136V86.1955C75.6797 86.1886 75.4683 86.1818 75.349 86.1818C74.7217 86.1818 74.1763 86.5364 73.9854 87.0545H73.9308V86.2636H73.1536V91.5ZM80.4345 87.4364C80.1822 86.6932 79.6163 86.1955 78.58 86.1955C77.4754 86.1955 76.6572 86.8227 76.6572 87.7091C76.6572 88.4318 77.0868 88.9159 78.0482 89.1409L78.9209 89.3455C79.4493 89.4682 79.6982 89.7205 79.6982 90.0818C79.6982 90.5318 79.2209 90.9 78.4709 90.9C77.8129 90.9 77.4004 90.617 77.2572 90.0545L76.4936 90.2455C76.6811 91.1352 77.4141 91.6091 78.4845 91.6091C79.7016 91.6091 80.53 90.9443 80.53 90.0409C80.53 89.3114 80.0732 88.8511 79.1391 88.6227L78.3618 88.4318C77.7413 88.2784 77.4618 88.0705 77.4618 87.6682C77.4618 87.2182 77.9391 86.8909 78.58 86.8909C79.2822 86.8909 79.572 87.2795 79.7118 87.6409L80.4345 87.4364ZM84.0183 86.2636H82.9001V85.0091H82.0956V86.2636H81.3047V86.9455H82.0956V90.2182C82.0956 91.1318 82.832 91.5682 83.5138 91.5682C83.8138 91.5682 84.0047 91.5136 84.1138 91.4727L83.9501 90.75C83.882 90.7636 83.7729 90.7909 83.5956 90.7909C83.2411 90.7909 82.9001 90.6818 82.9001 90V86.9455H84.0183V86.2636ZM89.9058 91.6091C90.9149 91.6091 91.2558 90.9818 91.4331 90.6955H91.5286V91.5H92.3058V84.5182H91.5013V87.0955H91.4331C91.2558 86.8227 90.9422 86.1955 89.9195 86.1955C88.5967 86.1955 87.6831 87.2455 87.6831 88.8955C87.6831 90.5591 88.5967 91.6091 89.9058 91.6091ZM90.0149 90.8864C89.0058 90.8864 88.4876 90 88.4876 88.8818C88.4876 87.7773 88.9922 86.9182 90.0149 86.9182C90.9967 86.9182 91.5149 87.7091 91.5149 88.8818C91.5149 90.0682 90.9831 90.8864 90.0149 90.8864ZM95.432 91.6227C96.3456 91.6227 96.8229 91.1318 96.9865 90.7909H97.0274V91.5H97.832V88.05C97.832 86.3864 96.5638 86.1955 95.8956 86.1955C95.1047 86.1955 94.2047 86.4682 93.7956 87.4227L94.5592 87.6955C94.7365 87.3136 95.1558 86.9045 95.9229 86.9045C96.6626 86.9045 97.0274 87.2966 97.0274 87.9682V87.9955C97.0274 88.3841 96.632 88.35 95.6774 88.4727C94.7058 88.5989 93.6456 88.8136 93.6456 90.0136C93.6456 91.0364 94.4365 91.6227 95.432 91.6227ZM95.5547 90.9C94.9138 90.9 94.4501 90.6136 94.4501 90.0545C94.4501 89.4409 95.0092 89.25 95.6365 89.1682C95.9774 89.1273 96.891 89.0318 97.0274 88.8682V89.6045C97.0274 90.2591 96.5092 90.9 95.5547 90.9ZM101.578 86.2636H100.46V85.0091H99.655V86.2636H98.8641V86.9455H99.655V90.2182C99.655 91.1318 100.391 91.5682 101.073 91.5682C101.373 91.5682 101.564 91.5136 101.673 91.4727L101.51 90.75C101.441 90.7636 101.332 90.7909 101.155 90.7909C100.8 90.7909 100.46 90.6818 100.46 90V86.9455H101.578V86.2636ZM104.329 91.6227C105.242 91.6227 105.72 91.1318 105.883 90.7909H105.924V91.5H106.729V88.05C106.729 86.3864 105.461 86.1955 104.792 86.1955C104.002 86.1955 103.102 86.4682 102.692 87.4227L103.456 87.6955C103.633 87.3136 104.053 86.9045 104.82 86.9045C105.56 86.9045 105.924 87.2966 105.924 87.9682V87.9955C105.924 88.3841 105.529 88.35 104.574 88.4727C103.603 88.5989 102.542 88.8136 102.542 90.0136C102.542 91.0364 103.333 91.6227 104.329 91.6227ZM104.452 90.9C103.811 90.9 103.347 90.6136 103.347 90.0545C103.347 89.4409 103.906 89.25 104.533 89.1682C104.874 89.1273 105.788 89.0318 105.924 88.8682V89.6045C105.924 90.2591 105.406 90.9 104.452 90.9ZM114.606 87.4364C114.354 86.6932 113.788 86.1955 112.752 86.1955C111.647 86.1955 110.829 86.8227 110.829 87.7091C110.829 88.4318 111.259 88.9159 112.22 89.1409L113.093 89.3455C113.621 89.4682 113.87 89.7205 113.87 90.0818C113.87 90.5318 113.393 90.9 112.643 90.9C111.985 90.9 111.572 90.617 111.429 90.0545L110.665 90.2455C110.853 91.1352 111.586 91.6091 112.656 91.6091C113.873 91.6091 114.702 90.9443 114.702 90.0409C114.702 89.3114 114.245 88.8511 113.311 88.6227L112.534 88.4318C111.913 88.2784 111.634 88.0705 111.634 87.6682C111.634 87.2182 112.111 86.8909 112.752 86.8909C113.454 86.8909 113.744 87.2795 113.884 87.6409L114.606 87.4364ZM118.04 91.6091C119.458 91.6091 120.413 90.5318 120.413 88.9091C120.413 87.2727 119.458 86.1955 118.04 86.1955C116.622 86.1955 115.667 87.2727 115.667 88.9091C115.667 90.5318 116.622 91.6091 118.04 91.6091ZM118.04 90.8864C116.963 90.8864 116.472 89.9591 116.472 88.9091C116.472 87.8591 116.963 86.9182 118.04 86.9182C119.117 86.9182 119.608 87.8591 119.608 88.9091C119.608 89.9591 119.117 90.8864 118.04 90.8864ZM124.941 89.3591C124.941 90.3409 124.191 90.7909 123.591 90.7909C122.923 90.7909 122.446 90.3 122.446 89.5364V86.2636H121.641V89.5909C121.641 90.9273 122.35 91.5682 123.332 91.5682C124.123 91.5682 124.641 91.1455 124.887 90.6136H124.941V91.5H125.746V86.2636H124.941V89.3591ZM127.219 91.5H128.024V88.1864C128.024 87.4773 128.583 86.9591 129.346 86.9591C129.561 86.9591 129.783 87 129.837 87.0136V86.1955C129.745 86.1886 129.534 86.1818 129.415 86.1818C128.787 86.1818 128.242 86.5364 128.051 87.0545H127.996V86.2636H127.219V91.5ZM132.759 91.6091C133.918 91.6091 134.682 90.9 134.818 89.9727H134.014C133.864 90.5455 133.386 90.8864 132.759 90.8864C131.804 90.8864 131.191 90.0955 131.191 88.8818C131.191 87.6955 131.818 86.9182 132.759 86.9182C133.468 86.9182 133.891 87.3545 134.014 87.8318H134.818C134.682 86.85 133.85 86.1955 132.745 86.1955C131.327 86.1955 130.386 87.3136 130.386 88.9091C130.386 90.4773 131.286 91.6091 132.759 91.6091ZM138.19 91.6091C139.253 91.6091 140.031 91.0773 140.276 90.2864L139.499 90.0682C139.294 90.6136 138.82 90.8864 138.19 90.8864C137.245 90.8864 136.594 90.2761 136.557 89.1545H140.358V88.8136C140.358 86.8636 139.199 86.1955 138.108 86.1955C136.69 86.1955 135.749 87.3136 135.749 88.9227C135.749 90.5318 136.676 91.6091 138.19 91.6091ZM136.557 88.4591C136.611 87.6443 137.187 86.9182 138.108 86.9182C138.981 86.9182 139.54 87.5727 139.54 88.4591H136.557Z" fill="#AEB8C2"/>
</svg>
