<svg width="24" height="24" viewBox="0 0 24 24" fill="none" xmlns="http://www.w3.org/2000/svg">
<g clip-path="url(#clip0)">
<path fill-rule="evenodd" clip-rule="evenodd" d="M2.89968 7.93532C2.17479 7.54136 1.29248 8.06621 1.29248 8.89108L2.89968 7.93532ZM2.89968 7.93532L10.5648 12.1011C10.5648 12.1011 10.5648 12.1011 10.5648 12.1011C10.9151 12.2914 11.1331 12.6581 11.1332 13.0566V22.9122C11.1332 23.7463 10.233 24.2701 9.50785 23.8579C9.50784 23.8579 9.50786 23.8579 9.50785 23.8579L1.84256 19.5002C1.50257 19.3068 1.29248 18.9458 1.29248 18.5546V8.89108M9.89303 13.3372L10.0454 13.0569L9.89303 13.3372ZM9.89303 13.3372C9.89305 13.3372 9.89302 13.3372 9.89303 13.3372L10.0454 13.0569L9.89303 13.3372ZM9.72635 13.2466L2.69936 9.42768V18.3689L9.72635 22.3637V13.2466Z" fill="#919EAB"/>
<path fill-rule="evenodd" clip-rule="evenodd" d="M11.364 0.125615C11.6792 -0.0402262 12.0553 -0.0411681 12.3711 0.122511L20.7298 4.45588C21.5114 4.8611 21.5132 5.97869 20.7324 6.38602L12.3737 10.7464L12.3736 10.7464C12.0565 10.9118 11.678 10.9109 11.3615 10.7433L3.12616 6.38295C3.12616 6.38295 3.12616 6.38295 3.12616 6.38295C2.3533 5.97375 2.35476 4.86621 3.12856 4.45901L11.364 0.125654C11.364 0.125641 11.364 0.125628 11.364 0.125615ZM11.8717 1.44827L19.5376 5.42249L11.8717 9.42144L4.31878 5.42249L11.8717 1.44827ZM12.0194 9.49965C12.0196 9.49975 12.0198 9.49986 12.02 9.49996L12.0199 9.49993L12.0194 9.49965Z" fill="#919EAB"/>
<path fill-rule="evenodd" clip-rule="evenodd" d="M21.1007 7.93482C21.8255 7.54091 22.7079 8.06563 22.7079 8.89058C22.7079 8.89062 22.7079 8.89066 22.7079 8.8907V18.5541C22.7079 18.9454 22.4978 19.3063 22.1578 19.4997L14.4925 23.8573L14.4925 23.8574C13.7674 24.2695 12.8672 23.7459 12.8672 22.9117V13.0564C12.8672 12.6577 13.0852 12.291 13.4355 12.1006M13.4355 12.1006L21.1007 7.93482C21.1007 7.93482 21.1007 7.93483 21.1007 7.93482M21.7725 9.17094C21.7725 9.17094 21.7725 9.17094 21.7725 9.17094V9.17094ZM21.301 9.4272L14.2741 13.2461V22.3632L21.301 18.3684V9.4272ZM14.1073 13.3367L14.1076 13.3366C14.1075 13.3366 14.1074 13.3367 14.1073 13.3367Z" fill="#919EAB"/>
</g>
<defs>
<clipPath id="clip0">
<rect width="24" height="24" fill="white"/>
</clipPath>
</defs>
</svg>
