<svg width="20" height="24" viewBox="0 0 20 24" fill="none" xmlns="http://www.w3.org/2000/svg">
<path d="M17.7286 0H2.75939C2.06152 0 1.49377 0.56775 1.49377 1.26562V3.03848H0.740723C0.35241 3.03848 0.0375977 3.3533 0.0375977 3.74161C0.0375977 4.12992 0.35241 4.44473 0.740723 4.44473H1.49377V7.16766H0.740723C0.35241 7.16766 0.0375977 7.48247 0.0375977 7.87078C0.0375977 8.25909 0.35241 8.57391 0.740723 8.57391H1.49377V11.2969H0.740723C0.35241 11.2969 0.0375977 11.6117 0.0375977 12C0.0375977 12.3883 0.35241 12.7031 0.740723 12.7031H1.49377V15.4261H0.740723C0.35241 15.4261 0.0375977 15.7409 0.0375977 16.1292C0.0375977 16.5175 0.35241 16.8323 0.740723 16.8323H1.49377V19.5553H0.740723C0.35241 19.5553 0.0375977 19.8701 0.0375977 20.2584C0.0375977 20.6467 0.35241 20.9615 0.740723 20.9615H1.49377V22.7344C1.49377 23.4322 2.06152 24 2.75939 24H17.7286C18.9602 24 19.9622 22.998 19.9622 21.7664V2.23359C19.9622 1.00195 18.9602 0 17.7286 0V0ZM18.5559 21.7664C18.5559 22.2226 18.1848 22.5938 17.7286 22.5938H2.90002V20.9615H3.65307C4.04138 20.9615 4.35619 20.6467 4.35619 20.2584C4.35619 19.8701 4.04138 19.5553 3.65307 19.5553H2.90002V16.8323H3.65307C4.04138 16.8323 4.35619 16.5175 4.35619 16.1292C4.35619 15.7409 4.04138 15.4261 3.65307 15.4261H2.90002V12.7031H3.65307C4.04138 12.7031 4.35619 12.3883 4.35619 12C4.35619 11.6117 4.04138 11.2969 3.65307 11.2969H2.90002V8.57391H3.65307C4.04138 8.57391 4.35619 8.25909 4.35619 7.87078C4.35619 7.48247 4.04138 7.16766 3.65307 7.16766H2.90002V4.44473H3.65307C4.04138 4.44473 4.35619 4.12992 4.35619 3.74161C4.35619 3.3533 4.04138 3.03848 3.65307 3.03848H2.90002V1.40625H17.7286C18.1848 1.40625 18.5559 1.77736 18.5559 2.23359V21.7664Z" fill="#919EAB"/>
<path d="M15.745 19.5557H12.3909C12.0026 19.5557 11.6877 19.8705 11.6877 20.2588C11.6877 20.6471 12.0026 20.9619 12.3909 20.9619H15.745C16.1333 20.9619 16.4481 20.6471 16.4481 20.2588C16.4481 19.8705 16.1333 19.5557 15.745 19.5557Z" fill="#919EAB"/>
<path d="M15.7452 3.03809H7.15039C6.76208 3.03809 6.44727 3.3529 6.44727 3.74121V7.55646C6.44727 7.94477 6.76208 8.25959 7.15039 8.25959H15.7452C16.1335 8.25959 16.4483 7.94477 16.4483 7.55646V3.74121C16.4483 3.3529 16.1335 3.03809 15.7452 3.03809ZM15.0421 6.85334H7.85352V4.44434H15.0421V6.85334Z" fill="#919EAB"/>
</svg>
