<svg width="24" height="25" viewBox="0 0 24 25" fill="none" xmlns="http://www.w3.org/2000/svg">
<g clip-path="url(#clip0)">
<path d="M23.5279 12.1136L19.6737 10.1866L23.5279 8.25937C24.2173 7.91476 24.218 6.92746 23.5279 6.5823L12.4654 1.05103C12.2013 0.919189 11.8908 0.919189 11.6267 1.05103L0.564196 6.5823C-0.125199 6.92709 -0.125932 7.9144 0.564196 8.25937L4.4184 10.1866L0.564196 12.1136C-0.125199 12.4584 -0.125932 13.4455 0.564196 13.7906L4.4184 15.7178L0.564196 17.6448C-0.125199 17.9896 -0.125932 18.9768 0.564196 19.3219L11.6267 24.8532C11.8902 24.9848 12.2008 24.9854 12.4654 24.8532L23.5279 19.3219C24.2173 18.9771 24.218 17.99 23.5279 17.6448L19.6737 15.7178L23.5279 13.7906C24.2173 13.446 24.218 12.4587 23.5279 12.1136ZM12.0461 2.93775L21.0122 7.42093L12.0461 11.9039L3.07989 7.42093L12.0461 2.93775ZM21.0122 18.4835L12.0461 22.9665L3.07989 18.4835L6.51478 16.7659L11.6267 19.3219C11.8904 19.4536 12.2008 19.4541 12.4654 19.3219L17.5773 16.7659L21.0122 18.4835ZM12.0461 17.4352L3.07989 12.9522L6.51478 11.2347L11.6267 13.7906C11.8904 13.9223 12.2008 13.9228 12.4654 13.7906L17.5773 11.2347L21.0122 12.9522L12.0461 17.4352Z" fill="#919EAB"/>
</g>
<defs>
<clipPath id="clip0">
<rect width="24" height="24" fill="white" transform="translate(0 0.952148)"/>
</clipPath>
</defs>
</svg>
