<svg width="24" height="24" viewBox="0 0 24 24" fill="none" xmlns="http://www.w3.org/2000/svg">
<path d="M2.85938 0.703125V23.2969C2.85938 23.6852 3.17413 24 3.5625 24H20.4375C20.8259 24 21.1406 23.6852 21.1406 23.2969V6.42188C21.1406 6.24353 21.0714 6.06317 20.9374 5.92786C20.9365 5.92676 20.9357 5.92566 20.9346 5.92474C18.7524 3.74249 17.506 2.40234 15.3096 0.205994C15.3083 0.204712 15.3071 0.203613 15.3058 0.202332C15.1791 0.0774536 15.0026 0 14.8125 0H3.5625C3.17413 0 2.85938 0.314758 2.85938 0.703125H2.85938ZM18.7495 5.71875H15.5156V2.41022C16.673 3.58575 17.586 4.53735 18.7495 5.71875ZM4.26562 1.40625H14.1094V6.42188C14.1094 6.81024 14.4241 7.125 14.8125 7.125H19.7344V22.5938H4.26562V1.40625Z" fill="#919EAB"/>
<path d="M6.20439 12.9202C6.47905 13.1947 6.92418 13.1947 7.19884 12.9202L8.48442 11.6344L9.77 12.9202C10.0447 13.1947 10.4898 13.1947 10.7645 12.9202C11.0389 12.6456 11.0389 12.2004 10.7645 11.9258L9.47887 10.6402L10.7645 9.3546C11.0389 9.07994 11.0389 8.63481 10.7645 8.36015C10.49 8.08568 10.0447 8.08568 9.77 8.36015L8.48442 9.64574L7.19884 8.36015C6.92418 8.08568 6.47905 8.08568 6.20439 8.36015C5.92992 8.63481 5.92992 9.07994 6.20439 9.3546L7.48997 10.6402L6.20439 11.9258C5.92992 12.2004 5.92992 12.6456 6.20439 12.9202Z" fill="#919EAB"/>
<path d="M17.1279 8.73724L14.8125 11.0524L13.9034 10.1435C13.6289 9.86884 13.1836 9.86884 12.9091 10.1435C12.6345 10.4182 12.6345 10.8633 12.9091 11.1378L14.3154 12.544C14.4525 12.6813 14.6325 12.75 14.8125 12.75C14.9925 12.75 15.1725 12.6813 15.3096 12.544L18.1221 9.73151C18.3968 9.45685 18.3968 9.01172 18.1221 8.73724C17.8477 8.46259 17.4023 8.46259 17.1279 8.73724Z" fill="#919EAB"/>
<path d="M10.5938 14.1562H6.375C5.98663 14.1562 5.67188 14.471 5.67188 14.8594C5.67188 15.2477 5.98663 15.5625 6.375 15.5625H10.5938C10.9821 15.5625 11.2969 15.2477 11.2969 14.8594C11.2969 14.471 10.9821 14.1562 10.5938 14.1562Z" fill="#919EAB"/>
<path d="M10.5938 16.9688H6.375C5.98663 16.9688 5.67188 17.2835 5.67188 17.6719C5.67188 18.0602 5.98663 18.375 6.375 18.375H10.5938C10.9821 18.375 11.2969 18.0602 11.2969 17.6719C11.2969 17.2835 10.9821 16.9688 10.5938 16.9688Z" fill="#919EAB"/>
<path d="M10.5938 19.7812H6.375C5.98663 19.7812 5.67188 20.096 5.67188 20.4844C5.67188 20.8727 5.98663 21.1875 6.375 21.1875H10.5938C10.9821 21.1875 11.2969 20.8727 11.2969 20.4844C11.2969 20.096 10.9821 19.7812 10.5938 19.7812Z" fill="#919EAB"/>
<path d="M17.625 16.9688H13.4062C13.0179 16.9688 12.7031 17.2835 12.7031 17.6719C12.7031 18.0602 13.0179 18.375 13.4062 18.375H17.625C18.0134 18.375 18.3281 18.0602 18.3281 17.6719C18.3281 17.2835 18.0134 16.9688 17.625 16.9688Z" fill="#919EAB"/>
<path d="M17.625 14.1562H13.4062C13.0179 14.1562 12.7031 14.471 12.7031 14.8594C12.7031 15.2477 13.0179 15.5625 13.4062 15.5625H17.625C18.0134 15.5625 18.3281 15.2477 18.3281 14.8594C18.3281 14.471 18.0134 14.1562 17.625 14.1562Z" fill="#919EAB"/>
</svg>
