<svg width="24" height="24" viewBox="0 0 24 24" fill="none" xmlns="http://www.w3.org/2000/svg">
<path d="M10.3657 0.377441H1.28591C0.784393 0.377441 0.37793 0.783905 0.37793 1.28542V10.3652C0.37793 10.8667 0.784393 11.2732 1.28591 11.2732H10.3657C10.8672 11.2732 11.2737 10.8667 11.2737 10.3652V1.28542C11.2737 0.783905 10.8672 0.377441 10.3657 0.377441ZM9.45773 9.45725H2.19389V2.1934H9.45773V9.45725ZM23.0618 12.7951C22.7226 12.6545 22.3319 12.7322 22.0723 12.9918L12.9925 22.0716C12.7327 22.3314 12.655 22.7219 12.7956 23.0612C12.9363 23.4006 13.2672 23.6217 13.6344 23.6217H22.7142C23.2158 23.6217 23.6222 23.2153 23.6222 22.7138V13.634C23.6222 13.2667 23.4011 12.9356 23.0618 12.7951ZM21.8063 21.8058H15.8265L21.8063 15.8261V21.8058ZM18.1743 11.2732C21.1783 11.2732 23.6222 8.82928 23.6222 5.82532C23.6222 2.82136 21.1783 0.377441 18.1743 0.377441C15.1704 0.377441 12.7265 2.82136 12.7265 5.82532C12.7265 8.82928 15.1704 11.2732 18.1743 11.2732ZM18.1743 2.1934C20.177 2.1934 21.8063 3.82262 21.8063 5.82532C21.8063 7.82802 20.177 9.45725 18.1743 9.45725C16.1716 9.45725 14.5424 7.82802 14.5424 5.82532C14.5424 3.82262 16.1716 2.1934 18.1743 2.1934ZM11.0077 14.2761L7.10993 18.1739L11.0077 22.0716C11.3624 22.4263 11.3624 23.0012 11.0077 23.3557C10.6532 23.7102 10.0782 23.7104 9.72374 23.3557L5.82581 19.458L1.92788 23.3559C1.57338 23.7104 0.998442 23.7104 0.64394 23.3559C0.28926 23.0012 0.28926 22.4263 0.64394 22.0718L4.54169 18.1739L0.64394 14.2761C0.28926 13.9214 0.28926 13.3465 0.64394 12.992C0.998442 12.6373 1.57338 12.6373 1.92788 12.992L5.82581 16.8897L9.72374 12.9918C10.0782 12.6373 10.6532 12.6373 11.0077 12.9918C11.3624 13.3465 11.3624 13.9214 11.0077 14.2761Z" fill="#919EAB"/>
</svg>
