<svg width="28" height="14" viewBox="0 0 28 14" fill="none" xmlns="http://www.w3.org/2000/svg">
<rect width="28" height="14" rx="2" fill="#9BC9FF"/>
<path d="M7.342 4.24V3.493H9.034V10H8.206V4.24H7.342ZM10.4395 9.343C11.2015 8.731 11.7985 8.23 12.2305 7.84C12.6625 7.444 13.0255 7.033 13.3195 6.607C13.6195 6.175 13.7695 5.752 13.7695 5.338C13.7695 4.948 13.6735 4.642 13.4815 4.42C13.2955 4.192 12.9925 4.078 12.5725 4.078C12.1645 4.078 11.8465 4.207 11.6185 4.465C11.3965 4.717 11.2765 5.056 11.2585 5.482H10.4665C10.4905 4.81 10.6945 4.291 11.0785 3.925C11.4625 3.559 11.9575 3.376 12.5635 3.376C13.1815 3.376 13.6705 3.547 14.0305 3.889C14.3965 4.231 14.5795 4.702 14.5795 5.302C14.5795 5.8 14.4295 6.286 14.1295 6.76C13.8355 7.228 13.4995 7.642 13.1215 8.002C12.7435 8.356 12.2605 8.77 11.6725 9.244H14.7685V9.928H10.4395V9.343ZM15.7949 5.131C15.8369 4.579 16.0499 4.147 16.4339 3.835C16.8179 3.523 17.3159 3.367 17.9279 3.367C18.3359 3.367 18.6869 3.442 18.9809 3.592C19.2809 3.736 19.5059 3.934 19.6559 4.186C19.8119 4.438 19.8899 4.723 19.8899 5.041C19.8899 5.413 19.7819 5.734 19.5659 6.004C19.3559 6.274 19.0799 6.448 18.7379 6.526V6.571C19.1279 6.667 19.4369 6.856 19.6649 7.138C19.8929 7.42 20.0069 7.789 20.0069 8.245C20.0069 8.587 19.9289 8.896 19.7729 9.172C19.6169 9.442 19.3829 9.655 19.0709 9.811C18.7589 9.967 18.3839 10.045 17.9459 10.045C17.3099 10.045 16.7879 9.88 16.3799 9.55C15.9719 9.214 15.7439 8.74 15.6959 8.128H16.4879C16.5299 8.488 16.6769 8.782 16.9289 9.01C17.1809 9.238 17.5169 9.352 17.9369 9.352C18.3569 9.352 18.6749 9.244 18.8909 9.028C19.1129 8.806 19.2239 8.521 19.2239 8.173C19.2239 7.723 19.0739 7.399 18.7739 7.201C18.4739 7.003 18.0209 6.904 17.4149 6.904H17.2079V6.22H17.4239C17.9759 6.214 18.3929 6.124 18.6749 5.95C18.9569 5.77 19.0979 5.494 19.0979 5.122C19.0979 4.804 18.9929 4.549 18.7829 4.357C18.5789 4.165 18.2849 4.069 17.9009 4.069C17.5289 4.069 17.2289 4.165 17.0009 4.357C16.7729 4.549 16.6379 4.807 16.5959 5.131H15.7949Z" fill="#485255"/>
</svg>
