<svg width="28" height="14" viewBox="0 0 28 14" fill="none" xmlns="http://www.w3.org/2000/svg">
<rect width="28" height="14" rx="2" fill="#8FB1AF"/>
<path d="M9.401 8.605H6.665L6.161 10H5.297L7.565 3.763H8.51L10.769 10H9.905L9.401 8.605ZM9.167 7.939L8.033 4.771L6.899 7.939H9.167ZM14.8985 6.769C15.1265 6.805 15.3335 6.898 15.5195 7.048C15.7115 7.198 15.8615 7.384 15.9695 7.606C16.0835 7.828 16.1405 8.065 16.1405 8.317C16.1405 8.635 16.0595 8.923 15.8975 9.181C15.7355 9.433 15.4985 9.634 15.1865 9.784C14.8805 9.928 14.5175 10 14.0975 10H11.7575V3.727H14.0075C14.4335 3.727 14.7965 3.799 15.0965 3.943C15.3965 4.081 15.6215 4.27 15.7715 4.51C15.9215 4.75 15.9965 5.02 15.9965 5.32C15.9965 5.692 15.8945 6.001 15.6905 6.247C15.4925 6.487 15.2285 6.661 14.8985 6.769ZM12.5765 6.436H13.9535C14.3375 6.436 14.6345 6.346 14.8445 6.166C15.0545 5.986 15.1595 5.737 15.1595 5.419C15.1595 5.101 15.0545 4.852 14.8445 4.672C14.6345 4.492 14.3315 4.402 13.9355 4.402H12.5765V6.436ZM14.0255 9.325C14.4335 9.325 14.7515 9.229 14.9795 9.037C15.2075 8.845 15.3215 8.578 15.3215 8.236C15.3215 7.888 15.2015 7.615 14.9615 7.417C14.7215 7.213 14.4005 7.111 13.9985 7.111H12.5765V9.325H14.0255ZM16.971 6.859C16.971 6.247 17.109 5.698 17.385 5.212C17.661 4.72 18.036 4.336 18.51 4.06C18.99 3.784 19.521 3.646 20.103 3.646C20.787 3.646 21.384 3.811 21.894 4.141C22.404 4.471 22.776 4.939 23.01 5.545H22.029C21.855 5.167 21.603 4.876 21.273 4.672C20.949 4.468 20.559 4.366 20.103 4.366C19.665 4.366 19.272 4.468 18.924 4.672C18.576 4.876 18.303 5.167 18.105 5.545C17.907 5.917 17.808 6.355 17.808 6.859C17.808 7.357 17.907 7.795 18.105 8.173C18.303 8.545 18.576 8.833 18.924 9.037C19.272 9.241 19.665 9.343 20.103 9.343C20.559 9.343 20.949 9.244 21.273 9.046C21.603 8.842 21.855 8.551 22.029 8.173H23.01C22.776 8.773 22.404 9.238 21.894 9.568C21.384 9.892 20.787 10.054 20.103 10.054C19.521 10.054 18.99 9.919 18.51 9.649C18.036 9.373 17.661 8.992 17.385 8.506C17.109 8.02 16.971 7.471 16.971 6.859Z" fill="#485255"/>
</svg>
