<svg width="25" height="25" viewBox="0 0 25 25" fill="none" xmlns="http://www.w3.org/2000/svg">
<path d="M21.8241 21.1482L21.3866 20.7029C21.3631 20.6784 21.3328 20.6616 21.2995 20.6548C21.2663 20.6479 21.2318 20.6512 21.2005 20.6643C21.1693 20.6774 21.1427 20.6997 21.1243 20.7282C21.1059 20.7567 21.0966 20.7901 21.0975 20.824V20.9724H4.01941V3.90601H4.16785C4.20328 3.90978 4.23899 3.90218 4.26982 3.88432C4.30066 3.86646 4.32501 3.83925 4.33936 3.80663C4.35371 3.77402 4.35731 3.73768 4.34966 3.70288C4.342 3.66808 4.32347 3.63662 4.29675 3.61304L3.85144 3.17554C3.83583 3.15984 3.81727 3.14737 3.79682 3.13886C3.77637 3.13036 3.75445 3.12598 3.7323 3.12598C3.71015 3.12598 3.68823 3.13036 3.66778 3.13886C3.64733 3.14737 3.62877 3.15984 3.61316 3.17554L3.17566 3.61304C3.15119 3.63653 3.13441 3.66688 3.12752 3.70009C3.12064 3.7333 3.12396 3.76782 3.13707 3.79911C3.15017 3.83039 3.17244 3.85697 3.20095 3.87536C3.22945 3.89374 3.26285 3.90307 3.29675 3.90211H3.44519V21.5544H21.0936V21.7029C21.0927 21.7368 21.102 21.7702 21.1204 21.7987C21.1388 21.8272 21.1653 21.8495 21.1966 21.8626C21.2279 21.8757 21.2624 21.879 21.2956 21.8721C21.3289 21.8652 21.3592 21.8484 21.3827 21.824L21.8202 21.3865C21.8362 21.3711 21.8489 21.3528 21.8578 21.3325C21.8666 21.3122 21.8714 21.2903 21.8717 21.2682C21.8721 21.246 21.8681 21.224 21.8599 21.2034C21.8517 21.1828 21.8396 21.1641 21.8241 21.1482Z" fill="#DFE8F4"/>
<path d="M6.67188 10.6797H5.30469C5.08895 10.6797 4.91406 10.8546 4.91406 11.0703V15.7109C4.91406 15.9267 5.08895 16.1016 5.30469 16.1016H6.67188C6.88761 16.1016 7.0625 15.9267 7.0625 15.7109V11.0703C7.0625 10.8546 6.88761 10.6797 6.67188 10.6797Z" fill="#156CDD"/>
<path d="M6.31641 10.6797H5.66406V10.1758C5.66406 10.0898 5.69822 10.0073 5.75902 9.94652C5.81983 9.88572 5.90229 9.85156 5.98828 9.85156C6.07463 9.85156 6.15751 9.88559 6.21893 9.94628C6.28035 10.007 6.31538 10.0894 6.31641 10.1758V10.6797Z" fill="#CCD8E5"/>
<path d="M5.66406 16.1016H6.31641V16.6055C6.31538 16.6918 6.28035 16.7743 6.21893 16.835C6.15751 16.8957 6.07463 16.9297 5.98828 16.9297C5.90229 16.9297 5.81983 16.8955 5.75902 16.8347C5.69822 16.7739 5.66406 16.6915 5.66406 16.6055V16.1016Z" fill="#CCD8E5"/>
<path d="M9.92969 7.14062H8.5625C8.34676 7.14062 8.17188 7.31551 8.17188 7.53125V12.1719C8.17188 12.3876 8.34676 12.5625 8.5625 12.5625H9.92969C10.1454 12.5625 10.3203 12.3876 10.3203 12.1719V7.53125C10.3203 7.31551 10.1454 7.14062 9.92969 7.14062Z" fill="#DFE8F4"/>
<path d="M9.57031 7.14062H8.91797V6.64062C8.919 6.55428 8.95402 6.47182 9.01544 6.41113C9.07687 6.35043 9.15974 6.3164 9.24609 6.31641C9.33208 6.31641 9.41455 6.35056 9.47535 6.41137C9.53615 6.47217 9.57031 6.55464 9.57031 6.64062V7.14062Z" fill="#CCD8E5"/>
<path d="M8.91797 12.5625H9.57031V13.0664C9.57031 13.1524 9.53615 13.2349 9.47535 13.2957C9.41455 13.3565 9.33208 13.3906 9.24609 13.3906C9.15974 13.3906 9.07687 13.3566 9.01544 13.2959C8.95402 13.2352 8.919 13.1528 8.91797 13.0664V12.5625Z" fill="#CCD8E5"/>
<path d="M13.1836 11.4609H11.8164C11.6007 11.4609 11.4258 11.6358 11.4258 11.8516V16.4922C11.4258 16.7079 11.6007 16.8828 11.8164 16.8828H13.1836C13.3993 16.8828 13.5742 16.7079 13.5742 16.4922V11.8516C13.5742 11.6358 13.3993 11.4609 13.1836 11.4609Z" fill="#DFE8F4"/>
<path d="M12.8242 11.4609H12.1758V10.957C12.1758 10.871 12.2099 10.7886 12.2707 10.7278C12.3315 10.667 12.414 10.6328 12.5 10.6328C12.586 10.6328 12.6685 10.667 12.7293 10.7278C12.7901 10.7886 12.8242 10.871 12.8242 10.957V11.4609Z" fill="#CCD8E5"/>
<path d="M12.1758 16.8828H12.8242V17.3867C12.8242 17.4727 12.7901 17.5552 12.7293 17.616C12.6685 17.6768 12.586 17.7109 12.5 17.7109C12.414 17.7109 12.3315 17.6768 12.2707 17.616C12.2099 17.5552 12.1758 17.4727 12.1758 17.3867V16.8828Z" fill="#CCD8E5"/>
<path d="M16.4375 6.45703H15.0703C14.8546 6.45703 14.6797 6.63192 14.6797 6.84766V11.4883C14.6797 11.704 14.8546 11.8789 15.0703 11.8789H16.4375C16.6532 11.8789 16.8281 11.704 16.8281 11.4883V6.84766C16.8281 6.63192 16.6532 6.45703 16.4375 6.45703Z" fill="#0795FF"/>
<path d="M16.082 6.45703H15.4297V5.95313C15.4297 5.86714 15.4638 5.78467 15.5246 5.72387C15.5855 5.66306 15.6679 5.62891 15.7539 5.62891C15.8403 5.6289 15.9231 5.66293 15.9846 5.72363C16.046 5.78432 16.081 5.86678 16.082 5.95313V6.45703Z" fill="#CCD8E5"/>
<path d="M15.4297 11.8789H16.082V12.3828C16.081 12.4692 16.046 12.5516 15.9846 12.6123C15.9231 12.673 15.8403 12.707 15.7539 12.707C15.6679 12.707 15.5855 12.6729 15.5246 12.6121C15.4638 12.5513 15.4297 12.4688 15.4297 12.3828V11.8789Z" fill="#CCD8E5"/>
<path d="M19.3359 13.1211H18.6836V12.6172C18.6846 12.5308 18.7196 12.4484 18.7811 12.3877C18.8425 12.327 18.9254 12.293 19.0117 12.293C19.0977 12.293 19.1802 12.3271 19.241 12.3879C19.3018 12.4487 19.3359 12.5312 19.3359 12.6172V13.1211Z" fill="#CCD8E5"/>
<path d="M18.6836 18.543H19.3359V19.0469C19.3359 19.1329 19.3018 19.2153 19.241 19.2761C19.1802 19.3369 19.0977 19.3711 19.0117 19.3711C18.9254 19.3711 18.8425 19.3371 18.7811 19.2764C18.7196 19.2157 18.6846 19.1332 18.6836 19.0469V18.543Z" fill="#CCD8E5"/>
<path d="M20.0859 14.9727L17.9375 17.1211V18.1523C17.9391 18.2178 17.9571 18.2817 17.9899 18.3384C18.0226 18.395 18.0691 18.4426 18.125 18.4766L20.0781 16.5234L20.0859 14.9727Z" fill="#DFE8F4"/>
<path d="M19.5312 13.1211H18.3281C18.2245 13.1211 18.1252 13.1622 18.0519 13.2355C17.9787 13.3088 17.9375 13.4081 17.9375 13.5117V14.7148L19.5312 13.1211Z" fill="#DFE8F4"/>
<path d="M20.0859 18.1523V16.9492L18.4922 18.543H19.6953C19.7989 18.543 19.8983 18.5018 19.9715 18.4286C20.0448 18.3553 20.0859 18.2559 20.0859 18.1523Z" fill="#DFE8F4"/>
<path d="M20.0859 14.543V13.5117C20.0839 13.4459 20.0653 13.3817 20.0319 13.325C19.9984 13.2683 19.9512 13.221 19.8945 13.1875L17.9414 15.1406V16.7031L20.0859 14.543Z" fill="#DFE8F4"/>
</svg>
