<svg width="27" height="26" viewBox="0 0 27 26" fill="none" xmlns="http://www.w3.org/2000/svg">
<g style="mix-blend-mode:multiply" opacity="0.902">
<g style="mix-blend-mode:multiply" opacity="0.902">
<path d="M6.28553 13.6251C7.34635 13.6251 8.20631 12.7802 8.20631 11.7379C8.20631 10.6955 7.34635 9.85059 6.28553 9.85059C5.22471 9.85059 4.36475 10.6955 4.36475 11.7379C4.36475 12.7802 5.22471 13.6251 6.28553 13.6251Z" fill="#C4C4C4"/>
<path d="M6.28553 13.6251C7.34635 13.6251 8.20631 12.7802 8.20631 11.7379C8.20631 10.6955 7.34635 9.85059 6.28553 9.85059C5.22471 9.85059 4.36475 10.6955 4.36475 11.7379C4.36475 12.7802 5.22471 13.6251 6.28553 13.6251Z" stroke="#C4C4C4" stroke-width="0.0104167"/>
</g>
<g style="mix-blend-mode:multiply" opacity="0.902">
<path d="M3.7882 19.6623C4.10648 19.6623 4.36449 19.4089 4.36449 19.0963C4.36449 18.7837 4.10648 18.5303 3.7882 18.5303C3.46993 18.5303 3.21191 18.7837 3.21191 19.0963C3.21191 19.4089 3.46993 19.6623 3.7882 19.6623Z" fill="#C4C4C4"/>
<path d="M3.7882 19.6623C4.10648 19.6623 4.36449 19.4089 4.36449 19.0963C4.36449 18.7837 4.10648 18.5303 3.7882 18.5303C3.46993 18.5303 3.21191 18.7837 3.21191 19.0963C3.21191 19.4089 3.46993 19.6623 3.7882 19.6623Z" stroke="#C4C4C4" stroke-width="0.0104167"/>
</g>
<g style="mix-blend-mode:multiply" opacity="0.902">
<path d="M21.6507 9.09503C22.4992 9.09503 23.1871 8.41902 23.1871 7.58511C23.1871 6.75121 22.4992 6.0752 21.6507 6.0752C20.8021 6.0752 20.1143 6.75121 20.1143 7.58511C20.1143 8.41902 20.8021 9.09503 21.6507 9.09503Z" fill="#C4C4C4"/>
<path d="M21.6507 9.09503C22.4992 9.09503 23.1871 8.41902 23.1871 7.58511C23.1871 6.75121 22.4992 6.0752 21.6507 6.0752C20.8021 6.0752 20.1143 6.75121 20.1143 7.58511C20.1143 8.41902 20.8021 9.09503 21.6507 9.09503Z" stroke="#C4C4C4" stroke-width="0.0104167"/>
</g>
<g style="mix-blend-mode:multiply" opacity="0.902">
<path d="M17.6143 17.0215C19.4174 17.0215 20.8791 15.585 20.8791 13.813C20.8791 12.041 19.4174 10.6045 17.6143 10.6045C15.8113 10.6045 14.3496 12.041 14.3496 13.813C14.3496 15.585 15.8113 17.0215 17.6143 17.0215Z" fill="#C4C4C4"/>
<path d="M17.6143 17.0215C19.4174 17.0215 20.8791 15.585 20.8791 13.813C20.8791 12.041 19.4174 10.6045 17.6143 10.6045C15.8113 10.6045 14.3496 12.041 14.3496 13.813C14.3496 15.585 15.8113 17.0215 17.6143 17.0215Z" stroke="#C4C4C4" stroke-width="0.0104167"/>
</g>
<g style="mix-blend-mode:multiply" opacity="0.902">
<path d="M22.2317 20.7987C22.9742 20.7987 23.5762 20.2072 23.5762 19.4775C23.5762 18.7478 22.9742 18.1562 22.2317 18.1562C21.4892 18.1562 20.8872 18.7478 20.8872 19.4775C20.8872 20.2072 21.4892 20.7987 22.2317 20.7987Z" fill="#C4C4C4"/>
<path d="M22.2317 20.7987C22.9742 20.7987 23.5762 20.2072 23.5762 19.4775C23.5762 18.7478 22.9742 18.1562 22.2317 18.1562C21.4892 18.1562 20.8872 18.7478 20.8872 19.4775C20.8872 20.2072 21.4892 20.7987 22.2317 20.7987Z" stroke="#C4C4C4" stroke-width="0.0104167"/>
</g>
<g style="mix-blend-mode:multiply" opacity="0.902">
<path d="M5.32936 18.5312C6.0719 18.5312 6.67385 17.9396 6.67385 17.2099C6.67385 16.4802 6.0719 15.8887 5.32936 15.8887C4.58681 15.8887 3.98486 16.4802 3.98486 17.2099C3.98486 17.9396 4.58681 18.5312 5.32936 18.5312Z" fill="#C4C4C4"/>
<path d="M5.32936 18.5312C6.0719 18.5312 6.67385 17.9396 6.67385 17.2099C6.67385 16.4802 6.0719 15.8887 5.32936 15.8887C4.58681 15.8887 3.98486 16.4802 3.98486 17.2099C3.98486 17.9396 4.58681 18.5312 5.32936 18.5312Z" stroke="#C4C4C4" stroke-width="0.0104167"/>
</g>
<g style="mix-blend-mode:multiply" opacity="0.902">
<path d="M10.5055 14.7575C10.9298 14.7575 11.2737 14.4194 11.2737 14.0023C11.2737 13.5852 10.9298 13.2471 10.5055 13.2471C10.0812 13.2471 9.7373 13.5852 9.7373 14.0023C9.7373 14.4194 10.0812 14.7575 10.5055 14.7575Z" fill="#C4C4C4"/>
<path d="M10.5055 14.7575C10.9298 14.7575 11.2737 14.4194 11.2737 14.0023C11.2737 13.5852 10.9298 13.2471 10.5055 13.2471C10.0812 13.2471 9.7373 13.5852 9.7373 14.0023C9.7373 14.4194 10.0812 14.7575 10.5055 14.7575Z" stroke="#C4C4C4" stroke-width="0.0104167"/>
</g>
</g>
</svg>
