<svg width="24" height="25" viewBox="0 0 24 25" fill="none" xmlns="http://www.w3.org/2000/svg">
<path d="M11.1944 16.7224C11.8541 16.7224 12.3889 16.1876 12.3889 15.5279C12.3889 14.8683 11.8541 14.3335 11.1944 14.3335C10.5348 14.3335 10 14.8683 10 15.5279C10 16.1876 10.5348 16.7224 11.1944 16.7224Z" fill="#FD90FF"/>
<path d="M13.9998 16.8887C14.7515 16.8887 15.3609 16.2793 15.3609 15.5276C15.3609 14.7759 14.7515 14.1665 13.9998 14.1665C13.2481 14.1665 12.6387 14.7759 12.6387 15.5276C12.6387 16.2793 13.2481 16.8887 13.9998 16.8887Z" fill="#0795FF"/>
<path d="M10.8888 19.3055C11.5332 19.3055 12.0555 18.7832 12.0555 18.1388C12.0555 17.4945 11.5332 16.9722 10.8888 16.9722C10.2445 16.9722 9.72217 17.4945 9.72217 18.1388C9.72217 18.7832 10.2445 19.3055 10.8888 19.3055Z" fill="#C58AF9"/>
<path d="M12.4443 14.3891C13.0119 14.3891 13.4721 13.9289 13.4721 13.3613C13.4721 12.7936 13.0119 12.3335 12.4443 12.3335C11.8767 12.3335 11.4165 12.7936 11.4165 13.3613C11.4165 13.9289 11.8767 14.3891 12.4443 14.3891Z" fill="#14F8CF"/>
<path d="M9.75022 14.4443C10.5173 14.4443 11.1391 13.8225 11.1391 13.0554C11.1391 12.2883 10.5173 11.6665 9.75022 11.6665C8.98315 11.6665 8.36133 12.2883 8.36133 13.0554C8.36133 13.8225 8.98315 14.4443 9.75022 14.4443Z" fill="#6116C0"/>
<path d="M7.36089 18.9166C8.72626 18.9166 9.83312 17.8098 9.83312 16.4444C9.83312 15.079 8.72626 13.9722 7.36089 13.9722C5.99552 13.9722 4.88867 15.079 4.88867 16.4444C4.88867 17.8098 5.99552 18.9166 7.36089 18.9166Z" fill="#FEE5D1"/>
<path d="M15.9722 18.9165C16.6625 18.9165 17.2222 18.3569 17.2222 17.6665C17.2222 16.9761 16.6625 16.4165 15.9722 16.4165C15.2818 16.4165 14.7222 16.9761 14.7222 17.6665C14.7222 18.3569 15.2818 18.9165 15.9722 18.9165Z" fill="#6116C0"/>
<path d="M13.4169 19.2224C13.9999 19.2224 14.4724 18.7499 14.4724 18.1669C14.4724 17.5839 13.9999 17.1113 13.4169 17.1113C12.8339 17.1113 12.3613 17.5839 12.3613 18.1669C12.3613 18.7499 12.8339 19.2224 13.4169 19.2224Z" fill="#14F8CF"/>
<path d="M15.3613 14.2499C15.9289 14.2499 16.3891 13.7897 16.3891 13.2221C16.3891 12.6545 15.9289 12.1943 15.3613 12.1943C14.7936 12.1943 14.3335 12.6545 14.3335 13.2221C14.3335 13.7897 14.7936 14.2499 15.3613 14.2499Z" fill="#FEE5D1"/>
<path d="M16.6942 16.2498C17.2772 16.2498 17.7498 15.7772 17.7498 15.1942C17.7498 14.6113 17.2772 14.1387 16.6942 14.1387C16.1113 14.1387 15.6387 14.6113 15.6387 15.1942C15.6387 15.7772 16.1113 16.2498 16.6942 16.2498Z" fill="black"/>
<path d="M13.8055 12.4723C14.4038 12.4723 14.8888 11.9873 14.8888 11.389C14.8888 10.7907 14.4038 10.3057 13.8055 10.3057C13.2072 10.3057 12.7222 10.7907 12.7222 11.389C12.7222 11.9873 13.2072 12.4723 13.8055 12.4723Z" fill="#0795FF"/>
<path d="M10.3612 11.4445C12.3402 11.4445 13.9445 9.84019 13.9445 7.86117C13.9445 5.88215 12.3402 4.27783 10.3612 4.27783C8.38215 4.27783 6.77783 5.88215 6.77783 7.86117C6.77783 9.84019 8.38215 11.4445 10.3612 11.4445Z" fill="#0795FF"/>
<path d="M6.1945 13.8055C7.25304 13.8055 8.11116 12.9474 8.11116 11.8888C8.11116 10.8303 7.25304 9.97217 6.1945 9.97217C5.13595 9.97217 4.27783 10.8303 4.27783 11.8888C4.27783 12.9474 5.13595 13.8055 6.1945 13.8055Z" fill="#9865ED"/>
<path d="M4.00016 15.5833C4.64449 15.5833 5.16683 15.061 5.16683 14.4167C5.16683 13.7723 4.64449 13.25 4.00016 13.25C3.35583 13.25 2.8335 13.7723 2.8335 14.4167C2.8335 15.061 3.35583 15.5833 4.00016 15.5833Z" fill="#FD90FF"/>
<path d="M2.66678 19.8336C3.83271 19.8336 4.77789 18.8884 4.77789 17.7224C4.77789 16.5565 3.83271 15.6113 2.66678 15.6113C1.50084 15.6113 0.555664 16.5565 0.555664 17.7224C0.555664 18.8884 1.50084 19.8336 2.66678 19.8336Z" fill="#14F8CF"/>
<path d="M5.77794 23.8611C7.12797 23.8611 8.22238 22.7666 8.22238 21.4166C8.22238 20.0666 7.12797 18.9722 5.77794 18.9722C4.42791 18.9722 3.3335 20.0666 3.3335 21.4166C3.3335 22.7666 4.42791 23.8611 5.77794 23.8611Z" fill="#0795FF"/>
<path d="M11.1388 25.0002C12.6269 25.0002 13.8332 23.7939 13.8332 22.3058C13.8332 20.8177 12.6269 19.6113 11.1388 19.6113C9.65068 19.6113 8.44434 20.8177 8.44434 22.3058C8.44434 23.7939 9.65068 25.0002 11.1388 25.0002Z" fill="#0795FF"/>
<path d="M14.9442 21.6111C15.6653 21.6111 16.2498 21.0266 16.2498 20.3056C16.2498 19.5845 15.6653 19 14.9442 19C14.2232 19 13.6387 19.5845 13.6387 20.3056C13.6387 21.0266 14.2232 21.6111 14.9442 21.6111Z" fill="#FD90FF"/>
<path d="M17.8055 21.1667C18.5419 21.1667 19.1388 20.5697 19.1388 19.8333C19.1388 19.097 18.5419 18.5 17.8055 18.5C17.0691 18.5 16.4722 19.097 16.4722 19.8333C16.4722 20.5697 17.0691 21.1667 17.8055 21.1667Z" fill="#14F8CF"/>
<path d="M18.5277 18.3332C19.126 18.3332 19.611 17.8481 19.611 17.2498C19.611 16.6515 19.126 16.1665 18.5277 16.1665C17.9294 16.1665 17.4443 16.6515 17.4443 17.2498C17.4443 17.8481 17.9294 18.3332 18.5277 18.3332Z" fill="#FD90FF"/>
<path d="M17.5834 9.80555C19.5318 9.80555 21.1112 8.22612 21.1112 6.27778C21.1112 4.32944 19.5318 2.75 17.5834 2.75C15.6351 2.75 14.0557 4.32944 14.0557 6.27778C14.0557 8.22612 15.6351 9.80555 17.5834 9.80555Z" fill="#6116C0"/>
<path d="M20.4166 16.3611C21.9047 16.3611 23.1111 15.1547 23.1111 13.6666C23.1111 12.1785 21.9047 10.9722 20.4166 10.9722C18.9285 10.9722 17.7222 12.1785 17.7222 13.6666C17.7222 15.1547 18.9285 16.3611 20.4166 16.3611Z" fill="#9865ED"/>
<path d="M16.9722 12.4723C17.6472 12.4723 18.1944 11.9251 18.1944 11.2501C18.1944 10.575 17.6472 10.0278 16.9722 10.0278C16.2972 10.0278 15.75 10.575 15.75 11.2501C15.75 11.9251 16.2972 12.4723 16.9722 12.4723Z" fill="#C58AF9"/>
<path d="M13.3058 4.91683C13.9502 4.91683 14.4725 4.3945 14.4725 3.75016C14.4725 3.10583 13.9502 2.5835 13.3058 2.5835C12.6615 2.5835 12.1392 3.10583 12.1392 3.75016C12.1392 4.3945 12.6615 4.91683 13.3058 4.91683Z" fill="#FEE5D1"/>
<path d="M1.36111 14.8336C2.11283 14.8336 2.72222 14.2242 2.72222 13.4724C2.72222 12.7207 2.11283 12.1113 1.36111 12.1113C0.60939 12.1113 0 12.7207 0 13.4724C0 14.2242 0.60939 14.8336 1.36111 14.8336Z" fill="#0795FF"/>
<path d="M7.33328 4.72222C8.63728 4.72222 9.69439 3.66512 9.69439 2.36111C9.69439 1.05711 8.63728 0 7.33328 0C6.02927 0 4.97217 1.05711 4.97217 2.36111C4.97217 3.66512 6.02927 4.72222 7.33328 4.72222Z" fill="#9865ED"/>
<path d="M5.63873 7.0836C6.31374 7.0836 6.86095 6.5364 6.86095 5.86138C6.86095 5.18637 6.31374 4.63916 5.63873 4.63916C4.96371 4.63916 4.4165 5.18637 4.4165 5.86138C4.4165 6.5364 4.96371 7.0836 5.63873 7.0836Z" fill="#C58AF9"/>
<path d="M4.83328 9.97222C5.585 9.97222 6.19439 9.36283 6.19439 8.61111C6.19439 7.85939 5.585 7.25 4.83328 7.25C4.08156 7.25 3.47217 7.85939 3.47217 8.61111C3.47217 9.36283 4.08156 9.97222 4.83328 9.97222Z" fill="#6116C0"/>
<path d="M2.80545 12.1944C3.55717 12.1944 4.16656 11.585 4.16656 10.8333C4.16656 10.0816 3.55717 9.47217 2.80545 9.47217C2.05373 9.47217 1.44434 10.0816 1.44434 10.8333C1.44434 11.585 2.05373 12.1944 2.80545 12.1944Z" fill="#FEE5D1"/>
<path d="M10.9721 3.99989C11.5397 3.99989 11.9999 3.53974 11.9999 2.97211C11.9999 2.40449 11.5397 1.94434 10.9721 1.94434C10.4045 1.94434 9.94434 2.40449 9.94434 2.97211C9.94434 3.53974 10.4045 3.99989 10.9721 3.99989Z" fill="#C58AF9"/>
</svg>
