<svg width="21" height="15" viewBox="0 0 21 15" fill="none" xmlns="http://www.w3.org/2000/svg">
<g style="mix-blend-mode:multiply" opacity="0.902">
<g style="mix-blend-mode:multiply" opacity="0.902">
<path d="M3.28602 7.62609C4.34684 7.62609 5.2068 6.78113 5.2068 5.73883C5.2068 4.69652 4.34684 3.85156 3.28602 3.85156C2.2252 3.85156 1.36523 4.69652 1.36523 5.73883C1.36523 6.78113 2.2252 7.62609 3.28602 7.62609Z" fill="#0795FF"/>
<path d="M3.28602 7.62609C4.34684 7.62609 5.2068 6.78113 5.2068 5.73883C5.2068 4.69652 4.34684 3.85156 3.28602 3.85156C2.2252 3.85156 1.36523 4.69652 1.36523 5.73883C1.36523 6.78113 2.2252 7.62609 3.28602 7.62609Z" stroke="#0795FF" stroke-width="0.0104167"/>
</g>
<g style="mix-blend-mode:multiply" opacity="0.902">
<path d="M0.788203 13.6628C1.10648 13.6628 1.36449 13.4094 1.36449 13.0968C1.36449 12.7842 1.10648 12.5308 0.788203 12.5308C0.469927 12.5308 0.211914 12.7842 0.211914 13.0968C0.211914 13.4094 0.469927 13.6628 0.788203 13.6628Z" fill="#0795FF"/>
<path d="M0.788203 13.6628C1.10648 13.6628 1.36449 13.4094 1.36449 13.0968C1.36449 12.7842 1.10648 12.5308 0.788203 12.5308C0.469927 12.5308 0.211914 12.7842 0.211914 13.0968C0.211914 13.4094 0.469927 13.6628 0.788203 13.6628Z" stroke="#0795FF" stroke-width="0.0104167"/>
</g>
<g style="mix-blend-mode:multiply" opacity="0.902">
<path d="M18.6507 3.09552C19.4992 3.09552 20.1871 2.41951 20.1871 1.5856C20.1871 0.751698 19.4992 0.0756836 18.6507 0.0756836C17.8021 0.0756836 17.1143 0.751698 17.1143 1.5856C17.1143 2.41951 17.8021 3.09552 18.6507 3.09552Z" fill="#0795FF"/>
<path d="M18.6507 3.09552C19.4992 3.09552 20.1871 2.41951 20.1871 1.5856C20.1871 0.751698 19.4992 0.0756836 18.6507 0.0756836C17.8021 0.0756836 17.1143 0.751698 17.1143 1.5856C17.1143 2.41951 17.8021 3.09552 18.6507 3.09552Z" stroke="#0795FF" stroke-width="0.0104167"/>
</g>
<g style="mix-blend-mode:multiply" opacity="0.902">
<path d="M14.6143 11.0225C16.4174 11.0225 17.8791 9.58599 17.8791 7.81398C17.8791 6.04197 16.4174 4.60547 14.6143 4.60547C12.8113 4.60547 11.3496 6.04197 11.3496 7.81398C11.3496 9.58599 12.8113 11.0225 14.6143 11.0225Z" fill="#0795FF"/>
<path d="M14.6143 11.0225C16.4174 11.0225 17.8791 9.58599 17.8791 7.81398C17.8791 6.04197 16.4174 4.60547 14.6143 4.60547C12.8113 4.60547 11.3496 6.04197 11.3496 7.81398C11.3496 9.58599 12.8113 11.0225 14.6143 11.0225Z" stroke="#0795FF" stroke-width="0.0104167"/>
</g>
<g style="mix-blend-mode:multiply" opacity="0.902">
<path d="M19.2312 14.7992C19.9738 14.7992 20.5757 14.2077 20.5757 13.478C20.5757 12.7483 19.9738 12.1567 19.2312 12.1567C18.4887 12.1567 17.8867 12.7483 17.8867 13.478C17.8867 14.2077 18.4887 14.7992 19.2312 14.7992Z" fill="#0795FF"/>
<path d="M19.2312 14.7992C19.9738 14.7992 20.5757 14.2077 20.5757 13.478C20.5757 12.7483 19.9738 12.1567 19.2312 12.1567C18.4887 12.1567 17.8867 12.7483 17.8867 13.478C17.8867 14.2077 18.4887 14.7992 19.2312 14.7992Z" stroke="#0795FF" stroke-width="0.0104167"/>
</g>
<g style="mix-blend-mode:multiply" opacity="0.902">
<path d="M2.32887 12.5317C3.07141 12.5317 3.67336 11.9401 3.67336 11.2104C3.67336 10.4807 3.07141 9.88916 2.32887 9.88916C1.58633 9.88916 0.984375 10.4807 0.984375 11.2104C0.984375 11.9401 1.58633 12.5317 2.32887 12.5317Z" fill="#0795FF"/>
<path d="M2.32887 12.5317C3.07141 12.5317 3.67336 11.9401 3.67336 11.2104C3.67336 10.4807 3.07141 9.88916 2.32887 9.88916C1.58633 9.88916 0.984375 10.4807 0.984375 11.2104C0.984375 11.9401 1.58633 12.5317 2.32887 12.5317Z" stroke="#0795FF" stroke-width="0.0104167"/>
</g>
<g style="mix-blend-mode:multiply" opacity="0.902">
<path d="M7.50551 8.75753C7.92978 8.75753 8.27371 8.4194 8.27371 8.0023C8.27371 7.5852 7.92978 7.24707 7.50551 7.24707C7.08124 7.24707 6.7373 7.5852 6.7373 8.0023C6.7373 8.4194 7.08124 8.75753 7.50551 8.75753Z" fill="#0795FF"/>
<path d="M7.50551 8.75753C7.92978 8.75753 8.27371 8.4194 8.27371 8.0023C8.27371 7.5852 7.92978 7.24707 7.50551 7.24707C7.08124 7.24707 6.7373 7.5852 6.7373 8.0023C6.7373 8.4194 7.08124 8.75753 7.50551 8.75753Z" stroke="#0795FF" stroke-width="0.0104167"/>
</g>
</g>
</svg>
