<svg width="64" height="59" viewBox="0 0 64 59" fill="none" xmlns="http://www.w3.org/2000/svg">
<path d="M60.3797 19.7955C62.2955 19.7955 63.8564 18.2345 63.8564 16.3187C63.8564 14.4029 62.2955 12.7712 60.3797 12.7712C59.812 12.7712 59.3156 12.9132 58.8188 13.126L57.2578 11.7071L59.9541 6.8827C60.0962 6.8827 60.2377 6.95347 60.3798 6.95347C62.2956 6.95347 63.8565 5.39254 63.8565 3.47673C63.8565 1.56093 62.2956 0 60.3798 0C58.4639 0 56.903 1.56093 56.903 3.47673C56.903 4.328 57.1866 5.03766 57.6835 5.67609L55.2713 9.93342L49.3823 4.6829C49.5244 4.32805 49.5952 3.90242 49.5952 3.4768C49.6664 1.56099 48.1054 6.33145e-05 46.1188 6.33145e-05C44.6286 6.33145e-05 43.4225 0.92258 42.8548 2.19942L35.1925 2.19992C34.6248 0.922543 33.4187 5.12316e-05 31.9284 5.12316e-05C30.4382 5.12316e-05 29.2322 0.922569 28.6644 2.19941L20.9309 2.19991C20.4345 0.922531 19.1571 3.9632e-05 17.7382 3.9632e-05C16.3193 3.9632e-05 15.0419 0.922557 14.4742 2.1994L6.74065 2.19989C6.24425 0.92252 4.96687 2.80324e-05 3.47715 2.80324e-05C1.56134 2.80324e-05 0.000417585 1.56095 0.000417585 3.47676C0.000417585 5.39257 1.56134 6.9535 3.47715 6.9535C4.96738 6.9535 6.17342 6.03098 6.74116 4.75414H14.4747C14.9716 6.031 16.2485 6.9535 17.7387 6.9535C19.2289 6.9535 20.435 6.03098 21.0027 4.75414H28.7363C29.2332 6.031 30.5101 6.9535 32.0003 6.9535C33.4905 6.9535 34.6966 6.03098 35.2643 4.75414H42.9978C43.4947 6.031 44.7716 6.9535 46.2619 6.9535C46.8295 6.9535 47.3259 6.81145 47.8228 6.59864L54.1374 12.2749L50.7319 18.4475L49.5966 17.4542C49.7386 17.0993 49.8094 16.6737 49.8094 16.2481C49.8094 14.3323 48.2485 12.7714 46.3326 12.7714C44.4168 12.7714 42.8559 14.3323 42.8559 16.2481C42.8559 17.0994 43.1395 17.809 43.6364 18.4474L41.2242 22.7048L35.3352 17.4543C35.4773 17.0994 35.5481 16.6738 35.5481 16.2481C35.5481 14.3323 33.9871 12.7714 32.0713 12.7714C30.5811 12.7714 29.3751 13.6939 28.8073 14.9708H20.9312C20.4348 13.6939 19.1574 12.7714 17.7386 12.7714C16.3197 12.7714 15.0423 13.6939 14.4745 14.9708H6.741C6.24459 13.6939 4.96722 12.7714 3.47749 12.7714C1.56169 12.7714 0.000759774 14.4032 0.000759774 16.319C0.000759774 18.2348 1.56169 19.7957 3.47749 19.7957C4.96772 19.7957 6.17377 18.8732 6.7415 17.5963H14.4751C14.972 18.8732 16.2488 19.7957 17.7391 19.7957C19.2293 19.7957 20.4353 18.8732 21.0031 17.5963H28.7366C29.2335 18.8732 30.5104 19.7957 32.0006 19.7957C32.5683 19.7957 33.0647 19.6537 33.5616 19.4409L39.8762 25.1171L35.6189 32.8506L34.7676 31.2897C35.2645 30.722 35.5481 29.9415 35.5481 29.0903C35.5481 27.1745 33.9872 25.6136 32.0714 25.6136C30.1556 25.6136 28.5946 27.1745 28.5946 29.0903C28.5946 29.516 28.6654 29.9416 28.8075 30.2964L24.8338 33.702L21.0027 30.2252C21.1447 29.8704 21.2155 29.4448 21.2155 29.0191C21.2155 27.1033 19.6546 25.5424 17.7388 25.5424C16.2486 25.5424 15.0425 26.4649 14.4748 27.7418L6.74122 27.7423C6.24432 26.4654 4.96744 25.5429 3.47722 25.5429C1.56191 25.6137 0.00086127 27.1746 0.00086127 29.0905C0.00086127 31.0063 1.56179 32.5672 3.4776 32.5672C4.96782 32.5672 6.17387 31.6447 6.7416 30.3678H14.4752C14.9721 31.6447 16.2489 32.5672 17.7392 32.5672C18.3068 32.5672 18.8032 32.4251 19.3001 32.2123L22.9185 35.4763L19.3001 38.7403C18.8032 38.5275 18.3068 38.3855 17.7392 38.3855C16.2489 38.3855 15.0429 39.308 14.4752 40.5848L6.7411 40.5844C6.2442 39.3075 4.96732 38.385 3.47709 38.385C1.56179 38.385 0.000734641 39.9459 0.000734641 41.8617C0.000734641 43.7775 1.56166 45.4093 3.47747 45.4093C4.9677 45.4093 6.17374 44.4868 6.74148 43.2099H14.475C14.9719 44.4868 16.2488 45.4093 17.739 45.4093C19.6548 45.4093 21.2158 43.8484 21.2158 41.9326C21.2158 41.5069 21.145 41.0813 21.003 40.7264L24.8341 37.2497L28.6652 40.7264C28.5231 41.0813 28.4524 41.5069 28.4524 41.9326C28.4524 43.8484 30.0133 45.4093 31.9291 45.4093C33.8449 45.4093 35.4058 43.8484 35.4058 41.9326C35.4058 41.0813 35.1222 40.3716 34.6253 39.7332L35.4766 38.1723L39.7339 45.9058L33.4193 51.582C32.9224 51.3692 32.426 51.2272 31.8583 51.2272C30.3681 51.2272 29.1621 52.1497 28.5943 53.4265H20.9311C20.4342 52.1497 19.1573 51.2272 17.6671 51.2272C16.1769 51.2272 14.9708 52.1497 14.4031 53.4265H6.74074C6.24384 52.1497 4.96696 51.2272 3.47673 51.2272C1.56093 51.2272 0 52.7881 0 54.7039C0.000494884 56.6197 1.56143 58.1806 3.47724 58.1806C4.96747 58.1806 6.17351 57.2581 6.74125 55.9813H14.4748C14.9717 57.2582 16.2486 58.1806 17.7388 58.1806C19.229 58.1806 20.4351 57.2581 21.0028 55.9813H28.7364C29.2333 57.2582 30.5101 58.1806 32.0004 58.1806C33.9162 58.1806 35.4771 56.6197 35.4771 54.7039C35.4771 54.2783 35.4063 53.8527 35.2643 53.4978L41.1532 48.2473L43.5655 52.5046C43.0686 53.0723 42.785 53.8528 42.785 54.704C42.785 56.6198 44.3459 58.1807 46.2617 58.1807C47.7519 58.1807 48.958 57.2582 49.5257 55.9814H57.2593C57.7562 57.2582 59.033 58.1807 60.5233 58.1807C62.4391 58.1807 64 56.6198 64 54.704C64 52.7882 62.4391 51.2272 60.5233 51.2272C59.033 51.2272 57.827 52.1498 57.2593 53.4266H49.3827C48.8858 52.1497 47.6089 51.2272 46.1187 51.2272C45.9766 51.2272 45.8351 51.2272 45.693 51.298L42.9967 46.4736L44.5577 45.0547C45.0546 45.2675 45.551 45.4096 46.1186 45.4096C47.6088 45.4096 48.8149 44.487 49.3826 43.2102H57.1162C57.6131 44.4871 58.8899 45.4096 60.3802 45.4096C62.296 45.4096 63.8569 43.8486 63.8569 41.9328C63.8569 40.017 62.296 38.4561 60.3802 38.4561C58.8899 38.4561 57.6839 39.3786 57.1162 40.6554L49.3826 40.6559C48.8857 39.3791 47.6088 38.4566 46.1186 38.4566C44.2028 38.4566 42.6419 40.0175 42.6419 41.9333C42.6419 42.3589 42.7126 42.7846 42.8547 43.1394L41.7194 44.1327L36.9661 35.4762L41.7199 26.8908L42.8552 27.8841C42.7132 28.239 42.6424 28.6646 42.6424 29.0902C42.6424 31.006 44.2033 32.5669 46.1191 32.5669C48.0349 32.5669 49.5958 31.006 49.5958 29.0902C49.5958 28.239 49.3123 27.5293 48.8154 26.8909L51.2276 22.6335L57.1165 27.884C56.9745 28.2389 56.9037 28.6645 56.9037 29.0901C56.9037 31.006 58.4646 32.5669 60.3804 32.5669C62.2962 32.5669 63.8572 31.006 63.8572 29.0901C63.8572 27.1743 62.2962 25.6134 60.3804 25.6134C59.8128 25.6134 59.3164 25.7555 58.8195 25.9683L52.5049 20.2921L55.9104 14.1194L57.0457 15.1127C56.9037 15.4676 56.8329 15.8932 56.8329 16.3188C56.9032 18.2351 58.4641 19.7961 60.3794 19.7961L60.3797 19.7955ZM60.3797 14.1192C61.5858 14.1192 62.5791 15.1125 62.5791 16.3186C62.5791 17.5247 61.5858 18.518 60.3797 18.518C59.1736 18.518 58.1803 17.5247 58.1803 16.3186C58.1803 15.1125 59.1736 14.1192 60.3797 14.1192ZM60.3797 1.27707C61.5858 1.27707 62.5791 2.27036 62.5791 3.47643C62.5796 4.68254 61.5858 5.67579 60.3797 5.67579C59.1736 5.67579 58.1803 4.6825 58.1803 3.47643C58.1803 2.27032 59.1736 1.27707 60.3797 1.27707V1.27707ZM3.47686 5.67592C2.27075 5.67592 1.2775 4.68263 1.2775 3.47656C1.2775 2.27045 2.27079 1.2772 3.47686 1.2772C4.68297 1.2772 5.67622 2.27049 5.67622 3.47656C5.67622 4.68266 4.68293 5.67592 3.47686 5.67592ZM17.738 5.67592C16.5319 5.67592 15.5387 4.68263 15.5387 3.47656C15.5387 2.27045 16.532 1.2772 17.738 1.2772C18.9441 1.2772 19.9374 2.27049 19.9374 3.47656C19.9374 4.68266 18.9441 5.67592 17.738 5.67592ZM31.9283 5.67592C30.7222 5.67592 29.7289 4.68263 29.7289 3.47656C29.7289 2.27045 30.7222 1.2772 31.9283 1.2772C33.1343 1.2772 34.1276 2.27049 34.1276 3.47656C34.1276 4.68266 33.1343 5.67592 31.9283 5.67592ZM46.1185 5.67592C44.9124 5.67592 43.9192 4.68263 43.9192 3.47656C43.9192 2.27045 44.9124 1.2772 46.1185 1.2772C47.3246 1.2772 48.3179 2.27049 48.3179 3.47656C48.3179 4.68266 47.3246 5.67592 46.1185 5.67592ZM3.47686 18.5181C2.27075 18.5181 1.2775 17.5248 1.2775 16.3187C1.2775 15.1127 2.27079 14.1194 3.47686 14.1194C4.68297 14.1194 5.67622 15.1127 5.67622 16.3187C5.67622 17.5248 4.68293 18.5181 3.47686 18.5181ZM17.738 18.5181C16.5319 18.5181 15.5387 17.5248 15.5387 16.3187C15.5387 15.1127 16.532 14.1194 17.738 14.1194C18.9441 14.1194 19.9374 15.1127 19.9374 16.3187C19.8666 17.5248 18.9441 18.5181 17.738 18.5181ZM31.9283 18.5181C30.7222 18.5181 29.7289 17.5248 29.7289 16.3187C29.7289 15.1127 30.7222 14.1194 31.9283 14.1194C33.1343 14.1194 34.1276 15.1127 34.1276 16.3187C34.1276 17.5248 33.1343 18.5181 31.9283 18.5181ZM3.47686 31.2893C2.27075 31.2893 1.2775 30.296 1.2775 29.0899C1.2775 27.8839 2.27079 26.8906 3.47686 26.8906C4.68297 26.8906 5.67622 27.8839 5.67622 29.0899C5.67622 30.296 4.68293 31.2893 3.47686 31.2893ZM17.738 31.2893C16.5319 31.2893 15.5387 30.296 15.5387 29.0899C15.5387 27.8839 16.532 26.8906 17.738 26.8906C18.9441 26.8906 19.9374 27.8839 19.9374 29.0899C19.9374 30.296 18.9441 31.2893 17.738 31.2893ZM3.47686 44.0605C2.27075 44.0605 1.2775 43.0672 1.2775 41.8611C1.2775 40.6551 2.27079 39.6618 3.47686 39.6618C4.68297 39.6618 5.67622 40.6551 5.67622 41.8611C5.67622 43.0672 4.68293 44.0605 3.47686 44.0605ZM17.738 44.0605C16.5319 44.0605 15.5387 43.0672 15.5387 41.8611C15.5387 40.6551 16.532 39.6618 17.738 39.6618C18.9441 39.6618 19.9374 40.6551 19.9374 41.8611C19.8666 43.0673 18.9441 44.0605 17.738 44.0605ZM26.749 35.4752L30.3674 32.2112C30.8643 32.424 31.3606 32.566 31.9283 32.566C32.0703 32.566 32.2119 32.566 32.3539 32.4952L33.9857 35.4752L32.3539 38.4551C32.2119 38.4551 32.0703 38.3844 31.9283 38.3844C31.3606 38.3844 30.8642 38.5264 30.3674 38.7392L26.749 35.4752ZM31.9283 44.0605C30.7222 44.0605 29.7289 43.0672 29.7289 41.8611C29.7289 40.6551 30.7222 39.6618 31.9283 39.6618C33.1343 39.6618 34.1276 40.6551 34.1276 41.8611C34.1276 43.0672 33.1343 44.0605 31.9283 44.0605ZM31.9283 31.2893C30.7222 31.2893 29.7289 30.296 29.7289 29.0899C29.7289 27.8839 30.7222 26.8906 31.9283 26.8906C33.1343 26.8906 34.1276 27.8839 34.1276 29.0899C34.1276 30.296 33.1343 31.2893 31.9283 31.2893ZM3.47686 56.9027C2.27075 56.9027 1.2775 55.9094 1.2775 54.7033C1.27701 53.4972 2.27079 52.5039 3.47686 52.5039C4.68297 52.5039 5.67622 53.4972 5.67622 54.7033C5.67622 55.9094 4.68293 56.9027 3.47686 56.9027ZM17.738 56.9027C16.5319 56.9027 15.5387 55.9094 15.5387 54.7033C15.5387 53.4972 16.532 52.5039 17.738 52.5039C18.9441 52.5039 19.9374 53.4972 19.9374 54.7033C19.9374 55.9094 18.9441 56.9027 17.738 56.9027ZM31.9283 56.9027C30.7222 56.9027 29.7289 55.9094 29.7289 54.7033C29.7289 53.4972 30.7222 52.5039 31.9283 52.5039C33.1343 52.5039 34.1276 53.4972 34.1276 54.7033C34.1276 55.9094 33.1343 56.9027 31.9283 56.9027ZM60.3797 52.5038C61.5858 52.5038 62.5791 53.4971 62.5791 54.7032C62.5791 55.9093 61.5858 56.9025 60.3797 56.9025C59.1736 56.9025 58.1803 55.9092 58.1803 54.7032C58.1803 53.4971 59.1736 52.5038 60.3797 52.5038ZM46.1185 52.5038C47.3246 52.5038 48.3179 53.4971 48.3179 54.7032C48.3179 55.9093 47.3246 56.9025 46.1185 56.9025C44.9124 56.9025 43.9899 55.9092 43.9899 54.7032C43.9899 53.4971 44.9124 52.5038 46.1185 52.5038ZM60.3797 39.6617C61.5858 39.6617 62.5791 40.6549 62.5791 41.861C62.5791 43.0671 61.5858 44.0604 60.3797 44.0604C59.1736 44.0604 58.1803 43.0671 58.1803 41.861C58.1803 40.6549 59.1736 39.6617 60.3797 39.6617ZM46.1185 39.6617C47.3246 39.6617 48.3179 40.6549 48.3179 41.861C48.3179 43.0671 47.3246 44.0604 46.1185 44.0604C44.9124 44.0604 43.9899 43.0671 43.9899 41.861C43.9899 40.6549 44.9124 39.6617 46.1185 39.6617ZM46.1185 14.1192C47.3246 14.1192 48.3179 15.1125 48.3179 16.3186C48.3179 17.5247 47.3246 18.518 46.1185 18.518C44.9124 18.518 43.9899 17.5247 43.9899 16.3186C43.9899 15.1125 44.9124 14.1192 46.1185 14.1192ZM46.1185 31.2894C44.9124 31.2894 43.9192 30.2961 43.9192 29.0901C43.9192 27.884 44.9124 26.8907 46.1185 26.8907C47.3246 26.8907 48.3179 27.884 48.3179 29.0901C48.3179 30.2961 47.3246 31.2894 46.1185 31.2894ZM46.5441 25.6132C46.4021 25.6132 46.2606 25.5424 46.1185 25.5424C45.5508 25.5424 45.0545 25.6845 44.5576 25.8973L42.9967 24.4784L45.6929 19.654C45.835 19.654 45.9765 19.7247 46.1186 19.7247C46.6862 19.7247 47.1826 19.5827 47.6795 19.3699L49.2404 20.7888L46.5441 25.6132ZM60.3796 26.8906C61.5857 26.8906 62.579 27.8839 62.579 29.0899C62.579 30.296 61.5857 31.2893 60.3796 31.2893C59.1735 31.2893 58.1803 30.296 58.1803 29.0899C58.1803 27.8839 59.1736 26.8906 60.3796 26.8906Z" fill="#DFE8F4"/>
<circle cx="3.51068" cy="3.51056" r="2.21722" fill="#C4C4C4"/>
<circle cx="3.51068" cy="16.2596" r="2.21722" fill="#C4C4C4"/>
<circle cx="17.7377" cy="16.2596" r="2.21722" fill="#C4C4C4"/>
<circle cx="31.9648" cy="16.2596" r="2.21722" fill="#C4C4C4"/>
<circle cx="46.1923" cy="16.2596" r="2.21722" fill="#C4C4C4"/>
<circle cx="60.4194" cy="16.2596" r="2.21722" fill="#C4C4C4"/>
<circle cx="60.4194" cy="29.0826" r="2.21722" fill="#C4C4C4"/>
<circle cx="46.0815" cy="29.0826" r="2.21722" fill="#C4C4C4"/>
<circle cx="31.9648" cy="29.0826" r="2.21722" fill="#C4C4C4"/>
<circle cx="17.7377" cy="29.0826" r="2.21722" fill="#C4C4C4"/>
<circle cx="3.51068" cy="29.0826" r="2.21722" fill="#C4C4C4"/>
<circle cx="3.51068" cy="41.9424" r="2.21722" fill="#C4C4C4"/>
<circle cx="3.51068" cy="54.6915" r="2.21722" fill="#C4C4C4"/>
<circle cx="17.7377" cy="41.9424" r="2.21722" fill="#C4C4C4"/>
<circle cx="31.9648" cy="41.8316" r="2.21722" fill="#C4C4C4"/>
<circle cx="46.1923" cy="41.8316" r="2.21722" fill="#C4C4C4"/>
<circle cx="60.4194" cy="41.8316" r="2.21722" fill="#C4C4C4"/>
<circle cx="60.4194" cy="54.6915" r="2.21722" fill="#C4C4C4"/>
<circle cx="46.1923" cy="54.6915" r="2.21722" fill="#C4C4C4"/>
<circle cx="31.9648" cy="54.6915" r="2.21722" fill="#C4C4C4"/>
<circle cx="17.7377" cy="54.6915" r="2.21722" fill="#C4C4C4"/>
<circle cx="17.7377" cy="3.51056" r="2.21722" fill="#C4C4C4"/>
<circle cx="31.9648" cy="3.51056" r="2.21722" fill="#C4C4C4"/>
<circle cx="46.1923" cy="3.51056" r="2.21722" fill="#C4C4C4"/>
<circle cx="60.4194" cy="3.51056" r="2.21722" fill="#C4C4C4"/>
</svg>
