<svg width="24" height="16" viewBox="0 0 24 16" fill="none" xmlns="http://www.w3.org/2000/svg">
<path d="M1.12158 14.7321C1.51623 14.4434 3.75002 15.396 5.75352 14.4434C7.75701 13.4909 7.65213 11.389 9.79997 8.10317C11.9483 4.81627 13.2793 15.1705 16.0343 10.8246C18.7892 6.47864 19.3271 10.4153 21.2419 10.4153C22.5178 10.4153 23.2595 8.83515 23.4655 5.67529" stroke="#14F8CF" stroke-width="0.5" stroke-linecap="round"/>
<path d="M1.12207 11.9572C4.23706 10.7159 3.25099 8.03882 5.13393 8.03882C7.01741 8.03882 6.95686 13.2925 10.2962 13.2925C13.6355 13.2925 13.2771 5.14008 15.9126 5.14008C18.5475 5.14008 17.3533 9.98177 19.8504 9.98177C21.5154 9.98177 22.6578 6.78948 23.2767 0.403809" stroke="#0795FF" stroke-width="0.5" stroke-linecap="round"/>
</svg>
