<svg width="32" height="32" viewBox="0 0 32 32" fill="none" xmlns="http://www.w3.org/2000/svg">
<path d="M31.4667 30.9333H29.8667V29.8667C29.8667 29.5467 29.6533 29.3333 29.3333 29.3333C29.0133 29.3333 28.8 29.5467 28.8 29.8667V30.9333H26.6667V29.8667C26.6667 29.5467 26.4533 29.3333 26.1333 29.3333C25.8133 29.3333 25.6 29.5467 25.6 29.8667V30.9333H23.4667V29.8667C23.4667 29.5467 23.2533 29.3333 22.9333 29.3333C22.6133 29.3333 22.4 29.5467 22.4 29.8667V30.9333H20.2667V29.8667C20.2667 29.5467 20.0533 29.3333 19.7333 29.3333C19.4133 29.3333 19.2 29.5467 19.2 29.8667V30.9333H17.0667V29.8667C17.0667 29.5467 16.8533 29.3333 16.5333 29.3333C16.2133 29.3333 16 29.5467 16 29.8667V30.9333H13.8667V29.8667C13.8667 29.5467 13.6533 29.3333 13.3333 29.3333C13.0133 29.3333 12.8 29.5467 12.8 29.8667V30.9333H10.6667V29.8667C10.6667 29.5467 10.4533 29.3333 10.1333 29.3333C9.81333 29.3333 9.6 29.5467 9.6 29.8667V30.9333H7.46667V29.8667C7.46667 29.5467 7.25333 29.3333 6.93333 29.3333C6.61333 29.3333 6.4 29.5467 6.4 29.8667V30.9333H4.26667V29.8667C4.26667 29.5467 4.05333 29.3333 3.73333 29.3333C3.41333 29.3333 3.2 29.5467 3.2 29.8667V30.9333H1.06667V0.533333C1.06667 0.213333 0.853333 0 0.533333 0C0.213333 0 0 0.213333 0 0.533333V31.4667C0 31.7867 0.213333 32 0.533333 32H31.4667C31.7867 32 32 31.7867 32 31.4667C32 31.1467 31.7867 30.9333 31.4667 30.9333Z" fill="#FFFFFF"/>
<path d="M2.66673 26.1332C2.6134 26.1332 2.56006 26.1332 2.50673 26.0799C2.24006 25.9732 2.08006 25.6532 2.18673 25.3865C2.2934 25.0665 5.38673 16.5332 12.2667 16.5332C15.4667 16.5332 17.0134 18.7199 18.4534 20.6932C19.5201 22.1865 20.4801 23.4665 21.8667 23.4665C23.7334 23.4665 24.3734 21.9199 25.1201 20.1599C25.8667 18.4532 26.6667 16.5332 28.8001 16.5332C29.1201 16.5332 29.3334 16.7465 29.3334 17.0665C29.3334 17.3865 29.1201 17.5999 28.8001 17.5999C27.4667 17.5999 26.8801 18.7199 26.1334 20.5332C25.3334 22.3999 24.4267 24.5332 21.8667 24.5332C19.8934 24.5332 18.7201 22.8799 17.5467 21.2799C16.2134 19.4665 14.8801 17.5999 12.2667 17.5999C6.1334 17.5999 3.20007 25.7065 3.14673 25.7599C3.0934 25.9732 2.88007 26.1332 2.66673 26.1332Z" fill="#FFFFFF"/>
<path d="M12.8007 24.5331C7.20069 24.5331 2.40069 15.0398 2.18735 14.6131C2.08069 14.3465 2.18735 14.0265 2.40069 13.9198C2.66735 13.8131 2.98735 13.9198 3.09402 14.1331C3.20069 14.2398 7.84069 23.4665 12.8007 23.4665C16.054 23.4665 18.934 20.9065 20.8007 18.7731C22.5607 16.7465 24.0007 14.5065 25.1207 12.0531C25.2274 11.7865 25.5474 11.6265 25.814 11.7331C26.0807 11.8398 26.2407 12.1598 26.134 12.4265C25.1207 14.8798 19.7874 24.5331 12.8007 24.5331Z" fill="#FFFFFF" fill-opacity="0.55"/>
</svg>
