<svg width="19" height="19" viewBox="0 0 19 19" fill="none" xmlns="http://www.w3.org/2000/svg">
<path d="M16.0741 6.8623H8.53718C7.61217 6.8623 6.8623 7.61217 6.8623 8.53718V16.0741C6.8623 16.9991 7.61217 17.749 8.53718 17.749H16.0741C16.9991 17.749 17.749 16.9991 17.749 16.0741V8.53718C17.749 7.61217 16.9991 6.8623 16.0741 6.8623Z" stroke="#86939F" stroke-width="1.5" stroke-linecap="round" stroke-linejoin="round"/>
<path d="M3.51231 11.8867H2.67487C2.23067 11.8867 1.80466 11.7102 1.49056 11.3961C1.17646 11.082 1 10.656 1 10.2118V2.67487C1 2.23067 1.17646 1.80466 1.49056 1.49056C1.80466 1.17646 2.23067 1 2.67487 1H10.2118C10.656 1 11.082 1.17646 11.3961 1.49056C11.7102 1.80466 11.8867 2.23067 11.8867 2.67487V3.51231" stroke="#86939F" stroke-width="1.5" stroke-linecap="round" stroke-linejoin="round"/>
</svg>
