<svg width="17" height="19" viewBox="0 0 17 19" fill="none" xmlns="http://www.w3.org/2000/svg">
<path d="M1 4.34961H2.67487H16.0739" stroke="#86939F" stroke-width="1.5" stroke-linecap="round" stroke-linejoin="round"/>
<path d="M5.18712 4.34975V2.67487C5.18712 2.23067 5.36358 1.80466 5.67768 1.49056C5.99178 1.17646 6.41779 1 6.86199 1H10.2117C10.6559 1 11.082 1.17646 11.3961 1.49056C11.7102 1.80466 11.8866 2.23067 11.8866 2.67487V4.34975M14.3989 4.34975V16.0739C14.3989 16.5181 14.2225 16.9441 13.9084 17.2582C13.5943 17.5723 13.1683 17.7487 12.7241 17.7487H4.34968C3.90547 17.7487 3.47946 17.5723 3.16536 17.2582C2.85126 16.9441 2.6748 16.5181 2.6748 16.0739V4.34975H14.3989Z" stroke="#86939F" stroke-width="1.5" stroke-linecap="round" stroke-linejoin="round"/>
</svg>
