<svg width="15" height="16" viewBox="0 0 15 16" fill="none"  xmlns="http://www.w3.org/2000/svg">
<path  d="M0.5 8.90039C0.632608 8.90039 0.759785 8.95307 0.853553 9.04684C0.947322 9.14061 1 9.26778 1 9.40039V11.9004C1 12.1656 1.10536 12.42 1.29289 12.6075C1.48043 12.795 1.73478 12.9004 2 12.9004H14C14.2652 12.9004 14.5196 12.795 14.7071 12.6075C14.8946 12.42 15 12.1656 15 11.9004V9.40039C15 9.26778 15.0527 9.14061 15.1464 9.04684C15.2402 8.95307 15.3674 8.90039 15.5 8.90039C15.6326 8.90039 15.7598 8.95307 15.8536 9.04684C15.9473 9.14061 16 9.26778 16 9.40039V11.9004C16 12.4308 15.7893 12.9395 15.4142 13.3146C15.0391 13.6897 14.5304 13.9004 14 13.9004H2C1.46957 13.9004 0.960859 13.6897 0.585786 13.3146C0.210714 12.9395 0 12.4308 0 11.9004V9.40039C0 9.26778 0.0526784 9.14061 0.146447 9.04684C0.240215 8.95307 0.367392 8.90039 0.5 8.90039Z" fill="#919EAB"  stroke-width="1"/>
<path d="M7.6459 10.854C7.69234 10.9006 7.74752 10.9375 7.80827 10.9627C7.86901 10.9879 7.93413 11.0009 7.9999 11.0009C8.06567 11.0009 8.13079 10.9879 8.19153 10.9627C8.25228 10.9375 8.30745 10.9006 8.3539 10.854L11.3539 7.854C11.4478 7.76011 11.5005 7.63278 11.5005 7.5C11.5005 7.36722 11.4478 7.23989 11.3539 7.146C11.26 7.05211 11.1327 6.99937 10.9999 6.99937C10.8671 6.99937 10.7398 7.05211 10.6459 7.146L8.4999 9.293V0.5C8.4999 0.367392 8.44722 0.240215 8.35345 0.146447C8.25969 0.0526784 8.13251 0 7.9999 0C7.86729 0 7.74011 0.0526784 7.64635 0.146447C7.55258 0.240215 7.4999 0.367392 7.4999 0.5V9.293L5.3539 7.146C5.26001 7.05211 5.13268 6.99937 4.9999 6.99937C4.86712 6.99937 4.73979 7.05211 4.6459 7.146C4.55201 7.23989 4.49927 7.36722 4.49927 7.5C4.49927 7.63278 4.55201 7.76011 4.6459 7.854L7.6459 10.854Z"  stroke-width="1" fill="#919EAB"/>
</svg>