<svg width="15" height="14" viewBox="0 0 15 14" fill="none" xmlns="http://www.w3.org/2000/svg">
<path d="M13.1999 1.1354C12.0814 0.0161619 11.2414 0.183698 11.2414 0.183698L6.54728 4.87782L1.29315 10.1312L0.509766 13.8247L4.20409 13.0413L9.45822 7.78953L14.1523 3.09542C14.1516 3.09542 14.3199 2.25541 13.1999 1.1354ZM3.98459 12.5977L2.72497 12.8691C2.58557 12.6016 2.40497 12.3577 2.18978 12.1463C1.97815 11.9311 1.73426 11.7503 1.46689 11.6103L1.73836 10.3514L2.10291 9.98767C2.10291 9.98767 2.78779 10.0016 3.56187 10.7757C4.33518 11.5482 4.34991 12.2347 4.34991 12.2347L3.98459 12.5977Z" fill="black"/>
</svg>
