<svg width="32" height="32" viewBox="0 0 32 32" fill="none" xmlns="http://www.w3.org/2000/svg">
<path d="M4.8002 27.7332C5.68385 27.7332 6.4002 27.0169 6.4002 26.1332C6.4002 25.2495 5.68385 24.5332 4.8002 24.5332C3.91654 24.5332 3.2002 25.2495 3.2002 26.1332C3.2002 27.0169 3.91654 27.7332 4.8002 27.7332Z" fill="#FFFFFF" fill-opacity="0.55"/>
<path d="M6.24072 25.4482L13.1797 18.5093L12.4254 17.755L5.48648 24.694L6.24072 25.4482Z" fill="#FFFFFF"/>
<path d="M13.8666 18.6668C14.7503 18.6668 15.4666 17.9505 15.4666 17.0668C15.4666 16.1831 14.7503 15.4668 13.8666 15.4668C12.9829 15.4668 12.2666 16.1831 12.2666 17.0668C12.2666 17.9505 12.9829 18.6668 13.8666 18.6668Z" fill="#FFFFFF" fill-opacity="0.55"/>
<path d="M18.8406 22.2642L19.543 21.4614L15.2882 17.7387L14.5858 18.5414L18.8406 22.2642Z" fill="#FFFFFF"/>
<path d="M20.267 23.9998C21.1506 23.9998 21.867 23.2835 21.867 22.3998C21.867 21.5161 21.1506 20.7998 20.267 20.7998C19.3833 20.7998 18.667 21.5161 18.667 22.3998C18.667 23.2835 19.3833 23.9998 20.267 23.9998Z" fill="#FFFFFF" fill-opacity="0.55"/>
<path d="M21.7474 21.6691L27.0723 15.2759L26.2526 14.5932L20.9277 20.9864L21.7474 21.6691Z" fill="#FFFFFF"/>
<path d="M27.1996 15.4666C28.0833 15.4666 28.7996 14.7503 28.7996 13.8666C28.7996 12.9829 28.0833 12.2666 27.1996 12.2666C26.316 12.2666 25.5996 12.9829 25.5996 13.8666C25.5996 14.7503 26.316 15.4666 27.1996 15.4666Z" fill="#FFFFFF" fill-opacity="0.55"/>
<path d="M31.4667 30.9333H29.8667V29.8667C29.8667 29.5467 29.6533 29.3333 29.3333 29.3333C29.0133 29.3333 28.8 29.5467 28.8 29.8667V30.9333H26.6667V29.8667C26.6667 29.5467 26.4533 29.3333 26.1333 29.3333C25.8133 29.3333 25.6 29.5467 25.6 29.8667V30.9333H23.4667V29.8667C23.4667 29.5467 23.2533 29.3333 22.9333 29.3333C22.6133 29.3333 22.4 29.5467 22.4 29.8667V30.9333H20.2667V29.8667C20.2667 29.5467 20.0533 29.3333 19.7333 29.3333C19.4133 29.3333 19.2 29.5467 19.2 29.8667V30.9333H17.0667V29.8667C17.0667 29.5467 16.8533 29.3333 16.5333 29.3333C16.2133 29.3333 16 29.5467 16 29.8667V30.9333H13.8667V29.8667C13.8667 29.5467 13.6533 29.3333 13.3333 29.3333C13.0133 29.3333 12.8 29.5467 12.8 29.8667V30.9333H10.6667V29.8667C10.6667 29.5467 10.4533 29.3333 10.1333 29.3333C9.81333 29.3333 9.6 29.5467 9.6 29.8667V30.9333H7.46667V29.8667C7.46667 29.5467 7.25333 29.3333 6.93333 29.3333C6.61333 29.3333 6.4 29.5467 6.4 29.8667V30.9333H4.26667V29.8667C4.26667 29.5467 4.05333 29.3333 3.73333 29.3333C3.41333 29.3333 3.2 29.5467 3.2 29.8667V30.9333H1.06667V0.533333C1.06667 0.213333 0.853333 0 0.533333 0C0.213333 0 0 0.213333 0 0.533333V31.4667C0 31.7867 0.213333 32 0.533333 32H31.4667C31.7867 32 32 31.7867 32 31.4667C32 31.1467 31.7867 30.9333 31.4667 30.9333Z" fill="#FFFFFF"/>
</svg>
