<svg width="25" height="25" viewBox="0 0 25 25" fill="none" xmlns="http://www.w3.org/2000/svg">
<path d="M5.9375 3.125H3.48047C3.28415 3.125 3.125 3.28415 3.125 3.48047V5.9375C3.125 6.13382 3.28415 6.29297 3.48047 6.29297H5.9375C6.13382 6.29297 6.29297 6.13382 6.29297 5.9375V3.48047C6.29297 3.28415 6.13382 3.125 5.9375 3.125Z" fill="#DFE8F4"/>
<path d="M9.83203 3.125H7.375C7.17868 3.125 7.01953 3.28415 7.01953 3.48047V5.9375C7.01953 6.13382 7.17868 6.29297 7.375 6.29297H9.83203C10.0284 6.29297 10.1875 6.13382 10.1875 5.9375V3.48047C10.1875 3.28415 10.0284 3.125 9.83203 3.125Z" fill="#DFE8F4"/>
<path d="M13.7266 3.125H11.2695C11.0732 3.125 10.9141 3.28415 10.9141 3.48047V5.9375C10.9141 6.13382 11.0732 6.29297 11.2695 6.29297H13.7266C13.9229 6.29297 14.082 6.13382 14.082 5.9375V3.48047C14.082 3.28415 13.9229 3.125 13.7266 3.125Z" fill="#DFE8F4"/>
<path d="M17.6211 3.125H15.1641C14.9677 3.125 14.8086 3.28415 14.8086 3.48047V5.9375C14.8086 6.13382 14.9677 6.29297 15.1641 6.29297H17.6211C17.8174 6.29297 17.9766 6.13382 17.9766 5.9375V3.48047C17.9766 3.28415 17.8174 3.125 17.6211 3.125Z" fill="#DFE8F4"/>
<path d="M21.5195 3.125H19.0625C18.8662 3.125 18.707 3.28415 18.707 3.48047V5.9375C18.707 6.13382 18.8662 6.29297 19.0625 6.29297H21.5195C21.7159 6.29297 21.875 6.13382 21.875 5.9375V3.48047C21.875 3.28415 21.7159 3.125 21.5195 3.125Z" fill="#0795FF"/>
<path d="M5.9375 7.01953H3.48047C3.28415 7.01953 3.125 7.17868 3.125 7.375V9.83203C3.125 10.0284 3.28415 10.1875 3.48047 10.1875H5.9375C6.13382 10.1875 6.29297 10.0284 6.29297 9.83203V7.375C6.29297 7.17868 6.13382 7.01953 5.9375 7.01953Z" fill="#DFE8F4"/>
<path d="M9.83203 7.01953H7.375C7.17868 7.01953 7.01953 7.17868 7.01953 7.375V9.83203C7.01953 10.0284 7.17868 10.1875 7.375 10.1875H9.83203C10.0284 10.1875 10.1875 10.0284 10.1875 9.83203V7.375C10.1875 7.17868 10.0284 7.01953 9.83203 7.01953Z" fill="#DFE8F4"/>
<path d="M13.7266 7.01953H11.2695C11.0732 7.01953 10.9141 7.17868 10.9141 7.375V9.83203C10.9141 10.0284 11.0732 10.1875 11.2695 10.1875H13.7266C13.9229 10.1875 14.082 10.0284 14.082 9.83203V7.375C14.082 7.17868 13.9229 7.01953 13.7266 7.01953Z" fill="#DFE8F4"/>
<path d="M17.6211 7.01953H15.1641C14.9677 7.01953 14.8086 7.17868 14.8086 7.375V9.83203C14.8086 10.0284 14.9677 10.1875 15.1641 10.1875H17.6211C17.8174 10.1875 17.9766 10.0284 17.9766 9.83203V7.375C17.9766 7.17868 17.8174 7.01953 17.6211 7.01953Z" fill="#0795FF"/>
<path d="M21.5195 7.01953H19.0625C18.8662 7.01953 18.707 7.17868 18.707 7.375V9.83203C18.707 10.0284 18.8662 10.1875 19.0625 10.1875H21.5195C21.7159 10.1875 21.875 10.0284 21.875 9.83203V7.375C21.875 7.17868 21.7159 7.01953 21.5195 7.01953Z" fill="#0795FF"/>
<path d="M5.9375 10.9141H3.48047C3.28415 10.9141 3.125 11.0732 3.125 11.2695V13.7266C3.125 13.9229 3.28415 14.082 3.48047 14.082H5.9375C6.13382 14.082 6.29297 13.9229 6.29297 13.7266V11.2695C6.29297 11.0732 6.13382 10.9141 5.9375 10.9141Z" fill="#CCD8E5"/>
<path d="M9.83203 10.9141H7.375C7.17868 10.9141 7.01953 11.0732 7.01953 11.2695V13.7266C7.01953 13.9229 7.17868 14.082 7.375 14.082H9.83203C10.0284 14.082 10.1875 13.9229 10.1875 13.7266V11.2695C10.1875 11.0732 10.0284 10.9141 9.83203 10.9141Z" fill="#CCD8E5"/>
<path d="M13.7266 10.9141H11.2695C11.0732 10.9141 10.9141 11.0732 10.9141 11.2695V13.7266C10.9141 13.9229 11.0732 14.082 11.2695 14.082H13.7266C13.9229 14.082 14.082 13.9229 14.082 13.7266V11.2695C14.082 11.0732 13.9229 10.9141 13.7266 10.9141Z" fill="#0795FF"/>
<path d="M17.6211 10.9141H15.1641C14.9677 10.9141 14.8086 11.0732 14.8086 11.2695V13.7266C14.8086 13.9229 14.9677 14.082 15.1641 14.082H17.6211C17.8174 14.082 17.9766 13.9229 17.9766 13.7266V11.2695C17.9766 11.0732 17.8174 10.9141 17.6211 10.9141Z" fill="#0795FF"/>
<path d="M21.5195 10.9141H19.0625C18.8662 10.9141 18.707 11.0732 18.707 11.2695V13.7266C18.707 13.9229 18.8662 14.082 19.0625 14.082H21.5195C21.7159 14.082 21.875 13.9229 21.875 13.7266V11.2695C21.875 11.0732 21.7159 10.9141 21.5195 10.9141Z" fill="#0795FF"/>
<path d="M5.9375 14.8086H3.48047C3.28415 14.8086 3.125 14.9677 3.125 15.1641V17.6211C3.125 17.8174 3.28415 17.9766 3.48047 17.9766H5.9375C6.13382 17.9766 6.29297 17.8174 6.29297 17.6211V15.1641C6.29297 14.9677 6.13382 14.8086 5.9375 14.8086Z" fill="#0795FF"/>
<path d="M9.83203 14.8086H7.375C7.17868 14.8086 7.01953 14.9677 7.01953 15.1641V17.6211C7.01953 17.8174 7.17868 17.9766 7.375 17.9766H9.83203C10.0284 17.9766 10.1875 17.8174 10.1875 17.6211V15.1641C10.1875 14.9677 10.0284 14.8086 9.83203 14.8086Z" fill="#CCD8E5"/>
<path d="M13.7266 14.8086H11.2695C11.0732 14.8086 10.9141 14.9677 10.9141 15.1641V17.6211C10.9141 17.8174 11.0732 17.9766 11.2695 17.9766H13.7266C13.9229 17.9766 14.082 17.8174 14.082 17.6211V15.1641C14.082 14.9677 13.9229 14.8086 13.7266 14.8086Z" fill="#0795FF"/>
<path d="M17.6211 14.8086H15.1641C14.9677 14.8086 14.8086 14.9677 14.8086 15.1641V17.6211C14.8086 17.8174 14.9677 17.9766 15.1641 17.9766H17.6211C17.8174 17.9766 17.9766 17.8174 17.9766 17.6211V15.1641C17.9766 14.9677 17.8174 14.8086 17.6211 14.8086Z" fill="#0795FF"/>
<path d="M21.5195 14.8086H19.0625C18.8662 14.8086 18.707 14.9677 18.707 15.1641V17.6211C18.707 17.8174 18.8662 17.9766 19.0625 17.9766H21.5195C21.7159 17.9766 21.875 17.8174 21.875 17.6211V15.1641C21.875 14.9677 21.7159 14.8086 21.5195 14.8086Z" fill="#0795FF"/>
<path d="M5.9375 18.707H3.48047C3.28415 18.707 3.125 18.8662 3.125 19.0625V21.5195C3.125 21.7159 3.28415 21.875 3.48047 21.875H5.9375C6.13382 21.875 6.29297 21.7159 6.29297 21.5195V19.0625C6.29297 18.8662 6.13382 18.707 5.9375 18.707Z" fill="#156CDD"/>
<path d="M9.83203 18.707H7.375C7.17868 18.707 7.01953 18.8662 7.01953 19.0625V21.5195C7.01953 21.7159 7.17868 21.875 7.375 21.875H9.83203C10.0284 21.875 10.1875 21.7159 10.1875 21.5195V19.0625C10.1875 18.8662 10.0284 18.707 9.83203 18.707Z" fill="#156CDD"/>
<path d="M13.7266 18.707H11.2695C11.0732 18.707 10.9141 18.8662 10.9141 19.0625V21.5195C10.9141 21.7159 11.0732 21.875 11.2695 21.875H13.7266C13.9229 21.875 14.082 21.7159 14.082 21.5195V19.0625C14.082 18.8662 13.9229 18.707 13.7266 18.707Z" fill="#156CDD"/>
<path d="M17.6211 18.707H15.1641C14.9677 18.707 14.8086 18.8662 14.8086 19.0625V21.5195C14.8086 21.7159 14.9677 21.875 15.1641 21.875H17.6211C17.8174 21.875 17.9766 21.7159 17.9766 21.5195V19.0625C17.9766 18.8662 17.8174 18.707 17.6211 18.707Z" fill="#156CDD"/>
<path d="M21.5195 18.707H19.0625C18.8662 18.707 18.707 18.8662 18.707 19.0625V21.5195C18.707 21.7159 18.8662 21.875 19.0625 21.875H21.5195C21.7159 21.875 21.875 21.7159 21.875 21.5195V19.0625C21.875 18.8662 21.7159 18.707 21.5195 18.707Z" fill="#156CDD"/>
</svg>
