<svg width="22" height="16" viewBox="0 0 22 16" fill="none" xmlns="http://www.w3.org/2000/svg">
<path d="M8.18139 0.94873V2.97601H0.0722656V0.94873H8.18139ZM14.6687 5.00329V7.03058H0.0722656V5.00329H14.6687ZM9.80322 9.05786V11.0851H0.0722656V9.05786H9.80322ZM19.5342 13.1124V15.1397H0.0722656V13.1124H19.5342Z" fill="#0795FF"/>
<path d="M16.43 5.00329V7.03058H9.94269V5.00329H16.43ZM14.8082 0.94873V2.97601H7.10449V0.94873H14.8082ZM14.8082 9.05786V11.0851H7.9154V9.05786H14.8082Z" fill="#9865ED"/>
<path d="M21.0165 5.00329V7.03058H14.1237V5.00329H21.0165ZM21.0165 0.94873V2.97601H12.5019V0.94873H21.0165ZM21.0165 13.1124V15.1397H10.4746V13.1124H21.0165ZM21.0165 9.05786V11.0851H12.5019V9.05786H21.0165Z" fill="#14F8CF"/>
</svg>
