<svg width="32" height="32" viewBox="0 0 32 32" fill="none" xmlns="http://www.w3.org/2000/svg">
<path d="M2.40039 30.4H29.0671C29.6537 30.4 30.1337 29.92 30.1337 29.3333V25.0667C30.1337 24.48 29.6537 24 29.0671 24H2.40039V30.4Z" fill="#FFFFFF" fill-opacity="0.55"/>
<path d="M2.40039 19.1998H20.0004C20.5871 19.1998 21.0671 18.7198 21.0671 18.1331V13.8665C21.0671 13.2798 20.5871 12.7998 20.0004 12.7998H2.40039V19.1998Z" fill="#FFFFFF"/>
<path d="M2.40039 8.0001H11.4671C12.0537 8.0001 12.5337 7.5201 12.5337 6.93343V2.66676C12.5337 2.0801 12.0537 1.6001 11.4671 1.6001H2.40039V8.0001Z" fill="#FFFFFF" fill-opacity="0.55"/>
<path d="M2.40052 32C2.08052 32 1.86719 31.7867 1.86719 31.4667V0.533333C1.86719 0.213333 2.08052 0 2.40052 0C2.72052 0 2.93385 0.213333 2.93385 0.533333V31.4667C2.93385 31.7867 2.72052 32 2.40052 32Z" fill="#FFFFFF"/>
</svg>
