<svg width="12" height="11" viewBox="0 0 12 11" fill="none" xmlns="http://www.w3.org/2000/svg">
<path d="M12 9.6L12 10.6667L8 10.6667L8 9.6L10.6667 9.6L10.6667 7.46667L12 7.46667L12 9.6ZM12 1.06667L12 3.2L10.6667 3.2L10.6667 1.06667L8 1.06667L8 -1.74846e-07L12 0L12 1.06667ZM1.33333 9.6L4 9.6L4 10.6667L-2.3736e-06 10.6667L-2.23373e-06 7.46667L1.33333 7.46667L1.33333 9.6ZM1.33333 1.06667L1.33333 3.2L-2.04723e-06 3.2L-1.90735e-06 -5.24537e-07L4 -3.49691e-07L4 1.06667L1.33333 1.06667Z" fill="#485255"/>
</svg>
