<svg width="17" height="19" viewBox="0 0 17 19" fill="none" xmlns="http://www.w3.org/2000/svg">
<path d="M5.87203 5.34672L5.31787 4.78467L2.19056 7.86806L2.74472 8.43011L5.87203 5.34672Z" fill="#A3D8FF"/>
<path d="M9.94664 3.02971L9.60156 2.31982L6.90765 3.62934L7.25272 4.33923L9.94664 3.02971Z" fill="#A3D8FF"/>
<path d="M11.6169 2.42914L11.4146 1.68033L14.1872 1.03271L14.4098 1.78152L11.6169 2.42914Z" fill="#A3D8FF"/>
<path d="M4.45238 12.7096H8.01429V18.2144H4.45238V12.7096ZM8.90476 16.0489H12.5071V18.2144H8.90476V16.0489ZM13.3571 17.1418H17V18.2144H13.3571V17.1418ZM3.31905 8.76318C3.31905 9.55247 2.65119 10.2001 1.82143 10.2001C0.991667 10.2001 0.32381 9.55247 0.32381 8.76318H0V18.2144H3.52143V8.76318H3.31905Z" fill="#0795FF"/>
<path d="M6.29366 3.64282C6.73889 3.64282 7.08294 3.98687 7.08294 4.39163C7.08294 4.7964 6.71866 5.14044 6.29366 5.14044C5.84842 5.14044 5.50437 4.7964 5.50437 4.39163C5.48413 3.98687 5.84842 3.64282 6.29366 3.64282ZM6.29366 3.2583C5.6258 3.2583 5.09961 3.76425 5.09961 4.41187C5.09961 5.03925 5.6258 5.56544 6.29366 5.56544C6.96151 5.56544 7.4877 5.05949 7.4877 4.41187C7.4877 3.76425 6.94128 3.2583 6.29366 3.2583Z" fill="#0795FF"/>
<path d="M10.5847 1.53806C11.0299 1.53806 11.374 1.88211 11.374 2.28687C11.374 2.69163 11.0299 3.03568 10.5847 3.03568C10.1394 3.03568 9.79539 2.69163 9.79539 2.28687C9.79539 1.88211 10.1394 1.53806 10.5847 1.53806ZM10.5847 1.1333C9.91681 1.1333 9.39062 1.63925 9.39062 2.28687C9.39062 2.93449 9.91681 3.44044 10.5847 3.44044C11.2525 3.44044 11.7787 2.93449 11.7787 2.28687C11.7787 1.63925 11.2525 1.1333 10.5847 1.1333Z" fill="#0795FF"/>
<path d="M15.28 0.404762C15.7252 0.404762 16.0693 0.74881 16.0693 1.15357C16.0693 1.55833 15.705 1.90238 15.28 1.90238C14.855 1.90238 14.4907 1.55833 14.4907 1.15357C14.4907 0.74881 14.8347 0.404762 15.28 0.404762ZM15.28 0C14.6121 0 14.0859 0.505952 14.0859 1.15357C14.0859 1.80119 14.6121 2.30714 15.28 2.30714C15.9478 2.30714 16.474 1.80119 16.474 1.15357C16.474 0.505952 15.9276 0 15.28 0Z" fill="#0795FF"/>
<path d="M1.842 7.62988C1.17414 7.62988 0.647949 8.13584 0.647949 8.78345C0.647949 9.41084 1.17414 9.93703 1.842 9.93703C2.50985 9.93703 3.03604 9.43107 3.03604 8.78345C3.03604 8.13584 2.48962 7.62988 1.842 7.62988ZM1.842 9.51203C1.39676 9.51203 1.05271 9.16798 1.05271 8.76322C1.05271 8.35845 1.417 8.01441 1.842 8.01441C2.267 8.01441 2.63128 8.35845 2.63128 8.76322C2.63128 9.18822 2.267 9.51203 1.842 9.51203Z" fill="#0795FF"/>
</svg>
