<svg width="16" height="19" viewBox="0 0 16 19" fill="none" xmlns="http://www.w3.org/2000/svg">
<path d="M11.0492 2.6748H12.7241C13.1683 2.6748 13.5943 2.85126 13.9084 3.16536C14.2225 3.47946 14.399 3.90547 14.399 4.34968V16.0738C14.399 16.518 14.2225 16.944 13.9084 17.2581C13.5943 17.5722 13.1683 17.7487 12.7241 17.7487H2.67487C2.23067 17.7487 1.80466 17.5722 1.49056 17.2581C1.17646 16.944 1 16.518 1 16.0738V4.34968C1 3.90547 1.17646 3.47946 1.49056 3.16536C1.80466 2.85126 2.23067 2.6748 2.67487 2.6748H4.34975" stroke="#86939F" stroke-width="1.5" stroke-linecap="round" stroke-linejoin="round"/>
<path d="M10.2117 1H5.18705C4.72454 1 4.34961 1.37493 4.34961 1.83744V3.51231C4.34961 3.97482 4.72454 4.34975 5.18705 4.34975H10.2117C10.6742 4.34975 11.0491 3.97482 11.0491 3.51231V1.83744C11.0491 1.37493 10.6742 1 10.2117 1Z" stroke="#86939F" stroke-width="1.5" stroke-linecap="round" stroke-linejoin="round"/>
</svg>
