<svg width="32" height="32" viewBox="0 0 32 32" fill="none" xmlns="http://www.w3.org/2000/svg">
<g clip-path="url(#clip0)">
<path d="M14.2222 17.1853V3.55566C6.34074 3.55566 0 9.8964 0 17.7779C0 25.6594 6.34074 32.0001 14.2222 32.0001C22.1037 32.0001 28.4444 25.6594 28.4444 17.7779C28.4444 17.6001 28.4444 17.3631 28.4444 17.1853H14.2222Z" fill="#FFFFFF"/>
<path d="M17.1854 0C16.8298 0 16.5928 0.237037 16.5928 0.592593V14.2222C16.5928 14.5778 16.8298 14.8148 17.1854 14.8148H31.4076C31.7631 14.8148 32.0002 14.5778 32.0002 14.2222C31.7039 6.28148 25.1261 0 17.1854 0ZM28.4446 7.11111V13.6296H27.2594V5.62963C27.6743 6.1037 28.0891 6.57778 28.4446 7.11111ZM22.5187 2.25185C22.9335 2.42963 23.3483 2.60741 23.7039 2.84444V13.6296H22.5187V2.25185ZM21.3335 13.6296H20.1483V1.54074C20.5631 1.65926 20.9187 1.71852 21.3335 1.83704V13.6296ZM24.8891 3.55556C25.3039 3.85185 25.7187 4.14815 26.0743 4.44444V13.6296H24.8891V3.55556ZM17.778 1.18519C18.1928 1.18519 18.5483 1.24444 18.9631 1.3037V13.6296H17.778V1.18519ZM29.6298 13.6296V9.24444C30.2224 10.6074 30.6372 12.0889 30.7557 13.6296H29.6298Z" fill="#FFFFFF" fill-opacity="0.55"/>
</g>
<defs>
<clipPath id="clip0">
<rect width="32" height="32" fill="white"/>
</clipPath>
</defs>
</svg>
