<svg width="17" height="16" viewBox="0 0 17 16" fill="none" xmlns="http://www.w3.org/2000/svg">
<path fill-rule="evenodd" clip-rule="evenodd" d="M13.1609 2.02613H8.47868V3.98962C7.9556 3.98962 7.43763 4.09265 6.95437 4.29282C6.47111 4.493 6.032 4.7864 5.66213 5.15627C5.29225 5.52615 4.99885 5.96525 4.79868 6.44852C4.5985 6.93178 4.49547 7.44974 4.49547 7.97282C4.49547 8.49591 4.5985 9.01387 4.79868 9.49713C4.99885 9.9804 5.29225 10.4195 5.66213 10.7894C6.032 11.1592 6.47111 11.4527 6.95437 11.6528C7.43763 11.853 7.9556 11.956 8.47868 11.956V15.5413C4.29869 15.5413 0.910156 12.1528 0.910156 7.97282C0.910156 3.79284 4.29869 0.404306 8.47868 0.404306C10.1776 0.401681 11.8276 0.9732 13.1609 2.02613Z" fill="#0795FF"/>
<path fill-rule="evenodd" clip-rule="evenodd" d="M0.910156 7.97282C0.910156 3.79283 4.29869 0.404297 8.47868 0.404297C12.6587 0.404297 16.0472 3.79283 16.0472 7.97282C16.0472 12.1528 12.6587 15.5413 8.47868 15.5413V11.956C9.26648 11.956 10.0366 11.7224 10.6916 11.2847C11.3467 10.847 11.8572 10.225 12.1587 9.49712C12.4602 8.76929 12.539 7.9684 12.3853 7.19573C12.2316 6.42307 11.8523 5.71333 11.2952 5.15627C10.7382 4.5992 10.0284 4.21984 9.25576 4.06615C8.48309 3.91246 7.68221 3.99134 6.95437 4.29282C6.22653 4.5943 5.60444 5.10483 5.16676 5.75987C4.72908 6.4149 4.49547 7.18501 4.49547 7.97282H0.910156Z" fill="#9865ED"/>
<path fill-rule="evenodd" clip-rule="evenodd" d="M1.12802 9.78277C0.982912 9.1904 0.909762 8.5827 0.910158 7.97282C0.910158 3.79283 4.29869 0.404297 8.47868 0.404297C11.2823 0.404297 13.7301 1.92881 15.0379 4.19396L11.931 5.98392C11.4528 5.15028 10.6894 4.51763 9.78146 4.20262C8.87352 3.88761 7.88231 3.91148 6.99058 4.26983C6.09886 4.62818 5.36676 5.29684 4.92927 6.15253C4.49179 7.00821 4.37843 7.99321 4.61008 8.92591L1.12802 9.78277Z" fill="#14F8CF"/>
</svg>
