<svg width="32" height="32" viewBox="0 0 32 32" fill="none" xmlns="http://www.w3.org/2000/svg">
<g clip-path="url(#clip0)">
<path d="M5.33333 16C5.33333 10.1333 10.1333 5.33333 16 5.33333V0C7.13333 0 0 7.13333 0 16C0 24.8667 7.13333 32 16 32V26.6667C10.1333 26.6667 5.33333 21.8667 5.33333 16Z" fill="#FFFFFF" fill-opacity="0.55"/>
<path d="M26.6667 16H32C32 7.13333 24.8667 0 16 0V5.33333C21.8667 5.33333 26.6667 10.1333 26.6667 16Z" fill="#FFFFFF"/>
<path d="M26.6665 16C26.6665 18.8 25.5332 21.5333 23.5332 23.5333L27.3332 27.3333C30.3332 24.3333 31.9999 20.2667 31.9999 16H26.6665Z" fill="#FFFFFF"/>
<path d="M16 26.6665V31.9999C20.2667 31.9999 24.3333 30.3332 27.3333 27.3332L23.5333 23.5332C21.5333 25.5332 18.8667 26.6665 16 26.6665Z" fill="#FFFFFF"/>
</g>
<defs>
<clipPath id="clip0">
<rect width="32" height="32" fill="white"/>
</clipPath>
</defs>
</svg>
