<svg width="17" height="16" viewBox="0 0 17 16" fill="none" xmlns="http://www.w3.org/2000/svg">
<path d="M16.1125 7.97445C16.1125 9.34755 15.7547 10.6969 15.0744 11.8897C14.3941 13.0824 13.4147 14.0772 12.2328 14.7762C11.051 15.4752 9.70735 15.8541 8.33442 15.8757C6.96149 15.8972 5.60664 15.5607 4.40339 14.8992L8.2103 7.97445H16.1125Z" fill="#0795FF"/>
<path d="M4.42666 14.9119C3.18423 14.2343 2.14657 13.2355 1.42209 12.0198C0.697615 10.8041 0.312902 9.41618 0.30815 8.00099C0.303398 6.5858 0.67878 5.19531 1.39508 3.97478C2.11138 2.75425 3.14231 1.74847 4.38015 1.06254L8.2103 7.97445L4.42666 14.9119Z" fill="#9865ED"/>
<path d="M4.14568 1.19777C5.35931 0.469839 6.74616 0.0811876 8.16132 0.0724174C9.57649 0.0636472 10.968 0.43508 12.1906 1.14791C13.4132 1.86074 14.4219 2.88881 15.1113 4.12471C15.8008 5.3606 16.1457 6.75897 16.11 8.17372L8.2103 7.97445L4.14568 1.19777Z" fill="#14F8CF"/>
</svg>
