<svg width="25" height="25" viewBox="0 0 25 25" fill="none" xmlns="http://www.w3.org/2000/svg">
<path d="M12.5 19.5313C11.1094 19.5313 9.74993 19.1189 8.59365 18.3463C7.43737 17.5737 6.53615 16.4755 6.00398 15.1907C5.4718 13.906 5.33256 12.4922 5.60386 11.1283C5.87516 9.76435 6.54482 8.5115 7.52816 7.52816C8.5115 6.54482 9.76435 5.87516 11.1283 5.60386C12.4922 5.33256 13.906 5.4718 15.1907 6.00398C16.4755 6.53615 17.5737 7.43737 18.3463 8.59365C19.1189 9.74993 19.5313 11.1094 19.5313 12.5H21.875C21.875 10.6458 21.3252 8.83324 20.295 7.29153C19.2649 5.74982 17.8007 4.54821 16.0877 3.83863C14.3746 3.12906 12.4896 2.94341 10.671 3.30514C8.85246 3.66688 7.182 4.55976 5.87088 5.87088C4.55976 7.182 3.66688 8.85246 3.30514 10.671C2.94341 12.4896 3.12906 14.3746 3.83863 16.0877C4.54821 17.8007 5.74982 19.2649 7.29153 20.295C8.83324 21.3252 10.6458 21.875 12.5 21.875V19.5313Z" fill="#DFE8F4"/>
<path d="M21.875 13.1523H13.1523V21.875C15.4657 21.875 17.6844 20.956 19.3202 19.3202C20.956 17.6844 21.875 15.4657 21.875 13.1523Z" fill="#14F8CF"/>
<path d="M12.5 13.2422C12.3455 13.2422 12.1944 13.1964 12.066 13.1105C11.9375 13.0247 11.8374 12.9027 11.7782 12.7599C11.7191 12.6172 11.7036 12.4601 11.7338 12.3085C11.7639 12.157 11.8383 12.0178 11.9476 11.9085C12.0568 11.7993 12.196 11.7248 12.3476 11.6947C12.4991 11.6646 12.6562 11.68 12.799 11.7392C12.9417 11.7983 13.0637 11.8984 13.1496 12.0269C13.2354 12.1554 13.2813 12.3064 13.2813 12.4609V12.5H15.625V12.4766C15.625 11.8585 15.4417 11.2543 15.0983 10.7404C14.755 10.2265 14.2669 9.82596 13.6959 9.58944C13.1249 9.35292 12.4965 9.29103 11.8903 9.41161C11.2842 9.53219 10.7273 9.82982 10.2903 10.2669C9.85325 10.7039 9.55563 11.2607 9.43505 11.8669C9.31447 12.4731 9.37635 13.1014 9.61288 13.6725C9.8494 14.2435 10.2499 14.7315 10.7638 15.0749C11.2777 15.4183 11.8819 15.6016 12.5 15.6016V13.2422Z" fill="#DFE8F4"/>
<path d="M12.5 6.25C10.8424 6.25 9.25268 6.90848 8.08058 8.08058C6.90848 9.25268 6.25 10.8424 6.25 12.5C6.25 14.1576 6.90848 15.7473 8.08058 16.9194C9.25268 18.0915 10.8424 18.75 12.5 18.75V16.4062C11.7274 16.4062 10.9722 16.1772 10.3298 15.7479C9.68742 15.3187 9.18675 14.7086 8.8911 13.9949C8.59544 13.2811 8.51808 12.4957 8.66881 11.7379C8.81953 10.9802 9.19157 10.2842 9.73786 9.73786C10.2842 9.19157 10.9802 8.81953 11.7379 8.66881C12.4957 8.51808 13.2811 8.59544 13.9949 8.8911C14.7086 9.18675 15.3187 9.68742 15.7479 10.3298C16.1772 10.9722 16.4062 11.7274 16.4062 12.5H18.75C18.75 10.8424 18.0915 9.25268 16.9194 8.08058C15.7473 6.90848 14.1576 6.25 12.5 6.25Z" fill="#DFE8F4"/>
<path d="M11.7188 12.4766H9.375C9.375 13.3054 9.70424 14.1002 10.2903 14.6863C10.8763 15.2723 11.6712 15.6016 12.5 15.6016V13.2578C12.2928 13.2578 12.0941 13.1755 11.9476 13.029C11.8011 12.8825 11.7188 12.6838 11.7188 12.4766Z" fill="#0795FF"/>
<path d="M5.46875 12.5V12.4766H3.125V12.5C3.125 14.9864 4.11272 17.371 5.87087 19.1291C7.62903 20.8873 10.0136 21.875 12.5 21.875V19.5313C10.6352 19.5313 8.84677 18.7905 7.52816 17.4718C6.20954 16.1532 5.46875 14.3648 5.46875 12.5Z" fill="#0795FF"/>
<path d="M8.59375 12.5V12.4766H6.25V12.5C6.25 14.1576 6.90848 15.7473 8.08058 16.9194C9.25268 18.0915 10.8424 18.75 12.5 18.75V16.4063C11.464 16.4063 10.4704 15.9947 9.73786 15.2621C9.0053 14.5296 8.59375 13.536 8.59375 12.5Z" fill="#0795FF"/>
</svg>
