<svg width="18" height="18" viewBox="0 0 18 18" fill="none" xmlns="http://www.w3.org/2000/svg">
<path d="M13.9028 14.6753C12.5418 15.8545 10.8008 16.5025 9 16.5C4.85775 16.5 1.5 13.1423 1.5 9C1.5 4.85775 4.85775 1.5 9 1.5C13.1423 1.5 16.5 4.85775 16.5 9C16.5 10.602 15.9975 12.087 15.1425 13.305L12.75 9H15C14.9999 7.61716 14.5221 6.2768 13.6475 5.20567C12.7729 4.13454 11.5551 3.39839 10.2002 3.12177C8.84536 2.84514 7.4365 3.04501 6.21201 3.68757C4.98752 4.33013 4.02257 5.37593 3.48039 6.64806C2.93822 7.92019 2.8521 9.34054 3.23662 10.6689C3.62113 11.9972 4.45267 13.1519 5.59056 13.9377C6.72845 14.7235 8.10284 15.0921 9.48123 14.9812C10.8596 14.8703 12.1574 14.2866 13.155 13.329L13.9028 14.6753Z" fill="#485255"/>
</svg>
