<svg width="22" height="22" viewBox="0 0 22 22" fill="none" xmlns="http://www.w3.org/2000/svg">
<path d="M0.000488281 8.75103V4.17996C7.26042 4.17996 14.7403 0 22.0003 0V4.57107C14.7403 4.57107 7.26042 8.75103 0.000488281 8.75103Z" fill="#4D9FFF"/>
<path d="M0 13.249C7.25993 13.249 14.7399 17.429 21.9998 17.429V22C14.7399 22 7.25993 17.8201 0 17.8201V13.249Z" fill="#4D9FFF"/>
<path d="M0 13.2487V8.75098C7.25993 8.75098 14.7399 10.3888 21.9998 10.3888V14.8865C14.7399 14.8865 7.25993 13.2487 0 13.2487Z" fill="#4D9FFF"/>
<path d="M22 13.9334L22 18.5045C14.7401 18.5045 7.2601 22 0.000167847 22L0.000168246 17.4289C7.2601 17.4289 14.7401 13.9334 22 13.9334Z" fill="#0076FF" fill-opacity="0.5"/>
<path d="M22 8.75098C14.7401 8.75098 7.26015 5.05995 0.000215853 5.05995L0.000216253 0.488883C7.26015 0.488884 14.7401 4.17991 22 4.17991L22 8.75098Z" fill="#0076FF" fill-opacity="0.5"/>
</svg>
