<svg width="23" height="16" viewBox="0 0 23 16" fill="none" xmlns="http://www.w3.org/2000/svg">
<path d="M3.099 12.3015C3.54685 12.3015 3.90991 11.9385 3.90991 11.4906C3.90991 11.0427 3.54685 10.6797 3.099 10.6797C2.65114 10.6797 2.28809 11.0427 2.28809 11.4906C2.28809 11.9385 2.65114 12.3015 3.099 12.3015Z" fill="#0795FF" stroke="#0795FF" stroke-width="0.0104167"/>
<path d="M5.26501 10.1409C5.71287 10.1409 6.07593 9.77781 6.07593 9.32996C6.07593 8.8821 5.71287 8.51904 5.26501 8.51904C4.81716 8.51904 4.4541 8.8821 4.4541 9.32996C4.4541 9.77781 4.81716 10.1409 5.26501 10.1409Z" fill="#0795FF" stroke="#0795FF" stroke-width="0.0104167"/>
<path opacity="0.902" d="M1.47693 15.0066C1.92478 15.0066 2.28784 14.6435 2.28784 14.1957C2.28784 13.7478 1.92478 13.3848 1.47693 13.3848C1.02907 13.3848 0.666016 13.7478 0.666016 14.1957C0.666016 14.6435 1.02907 15.0066 1.47693 15.0066Z" fill="#0795FF" stroke="#0795FF" stroke-width="0.0104167"/>
<path opacity="0.902" d="M8.50915 12.3015C8.95701 12.3015 9.32007 11.9385 9.32007 11.4906C9.32007 11.0427 8.95701 10.6797 8.50915 10.6797C8.0613 10.6797 7.69824 11.0427 7.69824 11.4906C7.69824 11.9385 8.0613 12.3015 8.50915 12.3015Z" fill="#0795FF" stroke="#0795FF" stroke-width="0.0104167"/>
<path opacity="0.902" d="M18.2396 15.5452C18.6875 15.5452 19.0505 15.1821 19.0505 14.7343C19.0505 14.2864 18.6875 13.9233 18.2396 13.9233C17.7918 13.9233 17.4287 14.2864 17.4287 14.7343C17.4287 15.1821 17.7918 15.5452 18.2396 15.5452Z" fill="#0795FF" stroke="#0795FF" stroke-width="0.0104167"/>
<path opacity="0.902" d="M14.4515 2.57056C14.8994 2.57056 15.2625 2.2075 15.2625 1.75964C15.2625 1.31179 14.8994 0.94873 14.4515 0.94873C14.0037 0.94873 13.6406 1.31179 13.6406 1.75964C13.6406 2.2075 14.0037 2.57056 14.4515 2.57056Z" fill="#0795FF" stroke="#0795FF" stroke-width="0.0104167"/>
<path opacity="0.902" d="M21.4838 4.7312C21.9316 4.7312 22.2947 4.36814 22.2947 3.92029C22.2947 3.47243 21.9316 3.10938 21.4838 3.10938C21.0359 3.10938 20.6729 3.47243 20.6729 3.92029C20.6729 4.36814 21.0359 4.7312 21.4838 4.7312Z" fill="#0795FF" stroke="#0795FF" stroke-width="0.0104167"/>
</svg>
