<svg width="27" height="26" viewBox="0 0 27 26" fill="none" xmlns="http://www.w3.org/2000/svg">
<path d="M5.099 17.3005C5.54685 17.3005 5.90991 16.9375 5.90991 16.4896C5.90991 16.0418 5.54685 15.6787 5.099 15.6787C4.65114 15.6787 4.28809 16.0418 4.28809 16.4896C4.28809 16.9375 4.65114 17.3005 5.099 17.3005Z" fill="#C4C4C4" stroke="#C4C4C4" stroke-width="0.0104167"/>
<path d="M7.2655 15.1404C7.71336 15.1404 8.07642 14.7773 8.07642 14.3295C8.07642 13.8816 7.71336 13.5186 7.2655 13.5186C6.81765 13.5186 6.45459 13.8816 6.45459 14.3295C6.45459 14.7773 6.81765 15.1404 7.2655 15.1404Z" fill="#C4C4C4" stroke="#C4C4C4" stroke-width="0.0104167"/>
<path opacity="0.902" d="M3.47742 20.0056C3.92527 20.0056 4.28833 19.6426 4.28833 19.1947C4.28833 18.7468 3.92527 18.3838 3.47742 18.3838C3.02956 18.3838 2.6665 18.7468 2.6665 19.1947C2.6665 19.6426 3.02956 20.0056 3.47742 20.0056Z" fill="#C4C4C4" stroke="#C4C4C4" stroke-width="0.0104167"/>
<path opacity="0.902" d="M10.5092 17.3005C10.957 17.3005 11.3201 16.9375 11.3201 16.4896C11.3201 16.0418 10.957 15.6787 10.5092 15.6787C10.0613 15.6787 9.69824 16.0418 9.69824 16.4896C9.69824 16.9375 10.0613 17.3005 10.5092 17.3005Z" fill="#C4C4C4" stroke="#C4C4C4" stroke-width="0.0104167"/>
<path opacity="0.902" d="M20.2401 20.5447C20.688 20.5447 21.051 20.1816 21.051 19.7338C21.051 19.2859 20.688 18.9229 20.2401 18.9229C19.7923 18.9229 19.4292 19.2859 19.4292 19.7338C19.4292 20.1816 19.7923 20.5447 20.2401 20.5447Z" fill="#C4C4C4" stroke="#C4C4C4" stroke-width="0.0104167"/>
<path opacity="0.902" d="M16.452 7.57007C16.8999 7.57007 17.2629 7.20701 17.2629 6.75915C17.2629 6.3113 16.8999 5.94824 16.452 5.94824C16.0042 5.94824 15.6411 6.3113 15.6411 6.75915C15.6411 7.20701 16.0042 7.57007 16.452 7.57007Z" fill="#C4C4C4" stroke="#C4C4C4" stroke-width="0.0104167"/>
<path opacity="0.902" d="M23.4838 9.73022C23.9316 9.73022 24.2947 9.36717 24.2947 8.91931C24.2947 8.47146 23.9316 8.1084 23.4838 8.1084C23.0359 8.1084 22.6729 8.47146 22.6729 8.91931C22.6729 9.36717 23.0359 9.73022 23.4838 9.73022Z" fill="#C4C4C4" stroke="#C4C4C4" stroke-width="0.0104167"/>
</svg>
