<svg width="16" height="17" viewBox="0 0 16 17" fill="none" xmlns="http://www.w3.org/2000/svg">
<path d="M3.51231 6.02462C4.89982 6.02462 6.02462 4.89982 6.02462 3.51231C6.02462 2.1248 4.89982 1 3.51231 1C2.1248 1 1 2.1248 1 3.51231C1 4.89982 2.1248 6.02462 3.51231 6.02462Z" stroke="#86939F" stroke-width="1.5" stroke-linecap="round" stroke-linejoin="round"/>
<path d="M3.51231 16.0739C4.89982 16.0739 6.02462 14.9491 6.02462 13.5616C6.02462 12.1741 4.89982 11.0493 3.51231 11.0493C2.1248 11.0493 1 12.1741 1 13.5616C1 14.9491 2.1248 16.0739 3.51231 16.0739Z" stroke="#86939F" stroke-width="1.5" stroke-linecap="round" stroke-linejoin="round"/>
<path d="M15.2359 1.8374L5.28711 11.7862" stroke="#86939F" stroke-width="1.5" stroke-linecap="round" stroke-linejoin="round"/>
<path d="M10.6055 10.6138L15.2365 15.2364" stroke="#86939F" stroke-width="1.5" stroke-linecap="round" stroke-linejoin="round"/>
<path d="M5.28711 5.2876L8.53637 8.53685" stroke="#86939F" stroke-width="1.5" stroke-linecap="round" stroke-linejoin="round"/>
</svg>
