<svg width="23" height="18" viewBox="0 0 23 18" fill="none" xmlns="http://www.w3.org/2000/svg">
<path d="M0.248047 0.536133H22.1968V4.46798H0.248047V0.536133ZM0.248047 8.39928H22.1968V8.93989H0.248047V8.39928ZM0.248047 12.7241H22.1968V13.2648H0.248047V12.7241Z" fill="#DADCE0"/>
<path d="M15.3916 4.47217H21.8248V8.40347H15.3916V4.47217Z" fill="#0795FF"/>
<path opacity="0.511" d="M15.3916 8.79297H21.8248V12.7243H15.3916V8.79297Z" fill="#0795FF"/>
<path d="M15.3916 13.1187H21.8248V17.05H15.3916V13.1187Z" fill="#D2E3FC"/>
<path d="M20.7919 5.65137H19.3014C19.0163 5.65137 18.7852 5.88251 18.7852 6.16765V6.70772C18.7852 6.99285 19.0163 7.224 19.3014 7.224H20.7919C21.077 7.224 21.3082 6.99285 21.3082 6.70772V6.16765C21.3082 5.88251 21.077 5.65137 20.7919 5.65137Z" fill="#4A4A4A" fill-opacity="0.5"/>
<path d="M20.7919 9.84375H19.3014C19.0163 9.84375 18.7852 10.0749 18.7852 10.36V10.9001C18.7852 11.1852 19.0163 11.4164 19.3014 11.4164H20.7919C21.077 11.4164 21.3082 11.1852 21.3082 10.9001V10.36C21.3082 10.0749 21.077 9.84375 20.7919 9.84375Z" fill="#4A4A4A" fill-opacity="0.5"/>
<path d="M20.7958 14.0386H19.8102C19.5251 14.0386 19.2939 14.2697 19.2939 14.5549V15.0949C19.2939 15.3801 19.5251 15.6112 19.8102 15.6112H20.7958C21.0809 15.6112 21.312 15.3801 21.312 15.0949V14.5549C21.312 14.2697 21.0809 14.0386 20.7958 14.0386Z" fill="#4A4A4A" fill-opacity="0.5"/>
<path d="M5.79387 1.58936H1.78093C1.4958 1.58936 1.26465 1.8205 1.26465 2.10564V2.6457C1.26465 2.93084 1.4958 3.16199 1.78093 3.16199H5.79387C6.079 3.16199 6.31015 2.93084 6.31015 2.6457V2.10564C6.31015 1.8205 6.079 1.58936 5.79387 1.58936Z" fill="#4A4A4A"/>
<path d="M13.8584 1.58936H8.33171C8.04658 1.58936 7.81543 1.8205 7.81543 2.10564V2.6457C7.81543 2.93084 8.04658 3.16199 8.33171 3.16199H13.8584C14.1435 3.16199 14.3746 2.93084 14.3746 2.6457V2.10564C14.3746 1.8205 14.1435 1.58936 13.8584 1.58936Z" fill="#4A4A4A"/>
<path d="M20.7919 1.45605H19.3014C19.0163 1.45605 18.7852 1.6872 18.7852 1.97234V2.5124C18.7852 2.79754 19.0163 3.02868 19.3014 3.02868H20.7919C21.077 3.02868 21.3082 2.79754 21.3082 2.5124V1.97234C21.3082 1.6872 21.077 1.45605 20.7919 1.45605Z" fill="#4A4A4A"/>
<path d="M5.79387 5.77686H1.78093C1.4958 5.77686 1.26465 6.008 1.26465 6.29314V6.8332C1.26465 7.11834 1.4958 7.34949 1.78093 7.34949H5.79387C6.079 7.34949 6.31015 7.11834 6.31015 6.8332V6.29314C6.31015 6.008 6.079 5.77686 5.79387 5.77686Z" fill="#4A4A4A" fill-opacity="0.5"/>
<path d="M13.8584 5.77686H8.33171C8.04658 5.77686 7.81543 6.008 7.81543 6.29314V6.8332C7.81543 7.11834 8.04658 7.34949 8.33171 7.34949H13.8584C14.1435 7.34949 14.3746 7.11834 14.3746 6.8332V6.29314C14.3746 6.008 14.1435 5.77686 13.8584 5.77686Z" fill="#4A4A4A" fill-opacity="0.5"/>
<path d="M4.28016 9.96973H1.78093C1.4958 9.96973 1.26465 10.2009 1.26465 10.486V11.0261C1.26465 11.3112 1.4958 11.5424 1.78093 11.5424H4.28016C4.5653 11.5424 4.79644 11.3112 4.79644 11.0261V10.486C4.79644 10.2009 4.5653 9.96973 4.28016 9.96973Z" fill="#4A4A4A" fill-opacity="0.5"/>
<path d="M11.8403 9.96973H8.33171C8.04658 9.96973 7.81543 10.2009 7.81543 10.486V11.0261C7.81543 11.3112 8.04658 11.5424 8.33171 11.5424H11.8403C12.1254 11.5424 12.3565 11.3112 12.3565 11.0261V10.486C12.3565 10.2009 12.1254 9.96973 11.8403 9.96973Z" fill="#4A4A4A" fill-opacity="0.5"/>
<path d="M5.79387 14.1719H1.78093C1.4958 14.1719 1.26465 14.403 1.26465 14.6882V15.2282C1.26465 15.5134 1.4958 15.7445 1.78093 15.7445H5.79387C6.079 15.7445 6.31015 15.5134 6.31015 15.2282V14.6882C6.31015 14.403 6.079 14.1719 5.79387 14.1719Z" fill="#4A4A4A" fill-opacity="0.5"/>
<path d="M13.8584 14.1719H8.33171C8.04658 14.1719 7.81543 14.403 7.81543 14.6882V15.2282C7.81543 15.5134 8.04658 15.7445 8.33171 15.7445H13.8584C14.1435 15.7445 14.3746 15.5134 14.3746 15.2282V14.6882C14.3746 14.403 14.1435 14.1719 13.8584 14.1719Z" fill="#4A4A4A" fill-opacity="0.5"/>
</svg>
