<svg width="32" height="32" viewBox="0 0 32 32" fill="none" xmlns="http://www.w3.org/2000/svg">
<path d="M29.8668 31.4665V5.86647C29.8668 5.2798 29.3868 4.7998 28.8001 4.7998H24.5335C23.9468 4.7998 23.4668 5.2798 23.4668 5.86647V31.4665H29.8668Z" fill="#FFFFFF"/>
<path d="M20.2662 31.4663V22.3997C20.2662 21.813 19.7862 21.333 19.1995 21.333H14.9329C14.3462 21.333 13.8662 21.813 13.8662 22.3997V31.4663H20.2662Z" fill="#FFFFFF" fill-opacity="0.55"/>
<path d="M10.6666 31.4665V13.8665C10.6666 13.2798 10.1866 12.7998 9.59994 12.7998H5.33327C4.7466 12.7998 4.2666 13.2798 4.2666 13.8665V31.4665H10.6666Z" fill="#FFFFFF"/>
<path d="M31.4667 30.9333H1.06667V28.8H2.13333C2.45333 28.8 2.66667 28.5867 2.66667 28.2667C2.66667 27.9467 2.45333 27.7333 2.13333 27.7333H1.06667V25.6H2.13333C2.45333 25.6 2.66667 25.3867 2.66667 25.0667C2.66667 24.7467 2.45333 24.5333 2.13333 24.5333H1.06667V22.4H2.13333C2.45333 22.4 2.66667 22.1867 2.66667 21.8667C2.66667 21.5467 2.45333 21.3333 2.13333 21.3333H1.06667V19.2H2.13333C2.45333 19.2 2.66667 18.9867 2.66667 18.6667C2.66667 18.3467 2.45333 18.1333 2.13333 18.1333H1.06667V16H2.13333C2.45333 16 2.66667 15.7867 2.66667 15.4667C2.66667 15.1467 2.45333 14.9333 2.13333 14.9333H1.06667V12.8H2.13333C2.45333 12.8 2.66667 12.5867 2.66667 12.2667C2.66667 11.9467 2.45333 11.7333 2.13333 11.7333H1.06667V9.6H2.13333C2.45333 9.6 2.66667 9.38667 2.66667 9.06667C2.66667 8.74667 2.45333 8.53333 2.13333 8.53333H1.06667V6.4H2.13333C2.45333 6.4 2.66667 6.18667 2.66667 5.86667C2.66667 5.54667 2.45333 5.33333 2.13333 5.33333H1.06667V3.2H2.13333C2.45333 3.2 2.66667 2.98667 2.66667 2.66667C2.66667 2.34667 2.45333 2.13333 2.13333 2.13333H1.06667V0.533333C1.06667 0.213333 0.853333 0 0.533333 0C0.213333 0 0 0.213333 0 0.533333V31.4667C0 31.7867 0.213333 32 0.533333 32H31.4667C31.7867 32 32 31.7867 32 31.4667C32 31.1467 31.7867 30.9333 31.4667 30.9333Z" fill="#FFFFFF"/>
</svg>
