<svg width="22" height="16" viewBox="0 0 22 16" fill="none" xmlns="http://www.w3.org/2000/svg">
<path d="M0.802734 0.758789H2.83002V15.3049H0.802734V0.758789ZM5.66821 0.758789H7.69549V15.3049H5.66821V0.758789ZM10.1282 0.758789H12.1555V15.3049H10.1282V0.758789ZM14.9937 0.758789H17.021V15.3049H14.9937V0.758789ZM19.8592 0.758789H21.8865V15.3049H19.8592V0.758789Z" fill="#14F8CF"/>
<path d="M0.793945 6.43434H2.82123V15.3041H0.793945V6.43434ZM5.65942 3.2415H7.6867V15.3041H5.65942V3.2415ZM10.1194 6.43434H12.1467V15.3041H10.1194V6.43434ZM14.9849 2.53223H17.0122V15.3041H14.9849V2.53223ZM19.8504 6.0797H21.8777V15.3041H19.8504V6.0797Z" fill="#9865ED"/>
<path d="M0.793945 9.62843H2.82123V15.3048H0.793945V9.62843ZM5.65942 6.43506H7.6867V15.3048H5.65942V6.43506ZM10.1194 10.6924H12.1467V15.3048H10.1194V10.6924ZM14.9849 7.49952H17.0122V15.3048H14.9849V7.49952ZM19.8504 10.3377H21.8777V15.3048H19.8504V10.3377Z" fill="#0795FF"/>
</svg>
