<svg width="25" height="22" viewBox="0 0 25 22" fill="none" xmlns="http://www.w3.org/2000/svg">
<path d="M1.72695 0H0.218267C0.0977215 0 0 0.0977215 0 0.218267V1.72695C0 1.8475 0.0977215 1.94522 0.218267 1.94522H1.72695C1.8475 1.94522 1.94522 1.8475 1.94522 1.72695V0.218267C1.94522 0.0977215 1.8475 0 1.72695 0Z" fill="#C4C4C4"/>
<path d="M14.5448 0H13.0361C12.9156 0 12.8179 0.0977215 12.8179 0.218267V1.72695C12.8179 1.8475 12.9156 1.94522 13.0361 1.94522H14.5448C14.6654 1.94522 14.7631 1.8475 14.7631 1.72695V0.218267C14.7631 0.0977215 14.6654 0 14.5448 0Z" fill="#C4C4C4"/>
<path d="M4.28652 0H2.77784C2.65729 0 2.55957 0.0977215 2.55957 0.218267V1.72695C2.55957 1.8475 2.65729 1.94522 2.77784 1.94522H4.28652C4.40707 1.94522 4.50479 1.8475 4.50479 1.72695V0.218267C4.50479 0.0977215 4.40707 0 4.28652 0Z" fill="#C4C4C4"/>
<path d="M17.1044 0H15.5957C15.4752 0 15.3774 0.0977215 15.3774 0.218267V1.72695C15.3774 1.8475 15.4752 1.94522 15.5957 1.94522H17.1044C17.2249 1.94522 17.3227 1.8475 17.3227 1.72695V0.218267C17.3227 0.0977215 17.2249 0 17.1044 0Z" fill="#C4C4C4"/>
<path d="M6.8456 0H5.33692C5.21637 0 5.11865 0.0977215 5.11865 0.218267V1.72695C5.11865 1.8475 5.21637 1.94522 5.33692 1.94522H6.8456C6.96615 1.94522 7.06387 1.8475 7.06387 1.72695V0.218267C7.06387 0.0977215 6.96615 0 6.8456 0Z" fill="#C4C4C4"/>
<path d="M19.663 0H18.1543C18.0338 0 17.936 0.0977215 17.936 0.218267V1.72695C17.936 1.8475 18.0338 1.94522 18.1543 1.94522H19.663C19.7835 1.94522 19.8813 1.8475 19.8813 1.72695V0.218267C19.8813 0.0977215 19.7835 0 19.663 0Z" fill="#C4C4C4"/>
<path d="M9.40468 0H7.896C7.77546 0 7.67773 0.0977215 7.67773 0.218267V1.72695C7.67773 1.8475 7.77546 1.94522 7.896 1.94522H9.40468C9.52523 1.94522 9.62295 1.8475 9.62295 1.72695V0.218267C9.62295 0.0977215 9.52523 0 9.40468 0Z" fill="#C4C4C4"/>
<path d="M22.2226 0H20.7139C20.5933 0 20.4956 0.0977215 20.4956 0.218267V1.72695C20.4956 1.8475 20.5933 1.94522 20.7139 1.94522H22.2226C22.3431 1.94522 22.4408 1.8475 22.4408 1.72695V0.218267C22.4408 0.0977215 22.3431 0 22.2226 0Z" fill="#C4C4C4"/>
<path d="M11.9638 0H10.4551C10.3345 0 10.2368 0.0977215 10.2368 0.218267V1.72695C10.2368 1.8475 10.3345 1.94522 10.4551 1.94522H11.9638C12.0843 1.94522 12.182 1.8475 12.182 1.72695V0.218267C12.182 0.0977215 12.0843 0 11.9638 0Z" fill="#C4C4C4"/>
<path d="M24.7816 0H23.273C23.1524 0 23.0547 0.0977215 23.0547 0.218267V1.72695C23.0547 1.8475 23.1524 1.94522 23.273 1.94522H24.7816C24.9022 1.94522 24.9999 1.8475 24.9999 1.72695V0.218267C24.9999 0.0977215 24.9022 0 24.7816 0Z" fill="#C4C4C4"/>
<path d="M1.72695 2.3916H0.218267C0.0977215 2.3916 0 2.48932 0 2.60987V4.11855C0 4.2391 0.0977215 4.33682 0.218267 4.33682H1.72695C1.8475 4.33682 1.94522 4.2391 1.94522 4.11855V2.60987C1.94522 2.48932 1.8475 2.3916 1.72695 2.3916Z" fill="#C4C4C4"/>
<path d="M14.5448 2.3916H13.0361C12.9156 2.3916 12.8179 2.48932 12.8179 2.60987V4.11855C12.8179 4.2391 12.9156 4.33682 13.0361 4.33682H14.5448C14.6654 4.33682 14.7631 4.2391 14.7631 4.11855V2.60987C14.7631 2.48932 14.6654 2.3916 14.5448 2.3916Z" fill="#C4C4C4"/>
<path d="M4.28652 2.3916H2.77784C2.65729 2.3916 2.55957 2.48932 2.55957 2.60987V4.11855C2.55957 4.2391 2.65729 4.33682 2.77784 4.33682H4.28652C4.40707 4.33682 4.50479 4.2391 4.50479 4.11855V2.60987C4.50479 2.48932 4.40707 2.3916 4.28652 2.3916Z" fill="#C4C4C4"/>
<path d="M17.1044 2.3916H15.5957C15.4752 2.3916 15.3774 2.48932 15.3774 2.60987V4.11855C15.3774 4.2391 15.4752 4.33682 15.5957 4.33682H17.1044C17.2249 4.33682 17.3227 4.2391 17.3227 4.11855V2.60987C17.3227 2.48932 17.2249 2.3916 17.1044 2.3916Z" fill="#C4C4C4"/>
<path d="M6.8456 2.3916H5.33692C5.21637 2.3916 5.11865 2.48932 5.11865 2.60987V4.11855C5.11865 4.2391 5.21637 4.33682 5.33692 4.33682H6.8456C6.96615 4.33682 7.06387 4.2391 7.06387 4.11855V2.60987C7.06387 2.48932 6.96615 2.3916 6.8456 2.3916Z" fill="#C4C4C4"/>
<path d="M19.663 2.3916H18.1543C18.0338 2.3916 17.936 2.48932 17.936 2.60987V4.11855C17.936 4.2391 18.0338 4.33682 18.1543 4.33682H19.663C19.7835 4.33682 19.8813 4.2391 19.8813 4.11855V2.60987C19.8813 2.48932 19.7835 2.3916 19.663 2.3916Z" fill="#C4C4C4"/>
<path d="M9.40468 2.3916H7.896C7.77546 2.3916 7.67773 2.48932 7.67773 2.60987V4.11855C7.67773 4.2391 7.77546 4.33682 7.896 4.33682H9.40468C9.52523 4.33682 9.62295 4.2391 9.62295 4.11855V2.60987C9.62295 2.48932 9.52523 2.3916 9.40468 2.3916Z" fill="#C4C4C4"/>
<path d="M22.2226 2.3916H20.7139C20.5933 2.3916 20.4956 2.48932 20.4956 2.60987V4.11855C20.4956 4.2391 20.5933 4.33682 20.7139 4.33682H22.2226C22.3431 4.33682 22.4408 4.2391 22.4408 4.11855V2.60987C22.4408 2.48932 22.3431 2.3916 22.2226 2.3916Z" fill="#C4C4C4"/>
<path d="M11.9638 2.3916H10.4551C10.3345 2.3916 10.2368 2.48932 10.2368 2.60987V4.11855C10.2368 4.2391 10.3345 4.33682 10.4551 4.33682H11.9638C12.0843 4.33682 12.182 4.2391 12.182 4.11855V2.60987C12.182 2.48932 12.0843 2.3916 11.9638 2.3916Z" fill="#C4C4C4"/>
<path d="M24.7816 2.3916H23.273C23.1524 2.3916 23.0547 2.48932 23.0547 2.60987V4.11855C23.0547 4.2391 23.1524 4.33682 23.273 4.33682H24.7816C24.9022 4.33682 24.9999 4.2391 24.9999 4.11855V2.60987C24.9999 2.48932 24.9022 2.3916 24.7816 2.3916Z" fill="#C4C4C4"/>
<path d="M1.72695 4.78271H0.218267C0.0977215 4.78271 0 4.88044 0 5.00098V6.50966C0 6.63021 0.0977215 6.72793 0.218267 6.72793H1.72695C1.8475 6.72793 1.94522 6.63021 1.94522 6.50966V5.00098C1.94522 4.88044 1.8475 4.78271 1.72695 4.78271Z" fill="#C4C4C4"/>
<path d="M14.5448 4.78271H13.0361C12.9156 4.78271 12.8179 4.88044 12.8179 5.00098V6.50966C12.8179 6.63021 12.9156 6.72793 13.0361 6.72793H14.5448C14.6654 6.72793 14.7631 6.63021 14.7631 6.50966V5.00098C14.7631 4.88044 14.6654 4.78271 14.5448 4.78271Z" fill="#C4C4C4"/>
<path d="M4.28652 4.78271H2.77784C2.65729 4.78271 2.55957 4.88044 2.55957 5.00098V6.50966C2.55957 6.63021 2.65729 6.72793 2.77784 6.72793H4.28652C4.40707 6.72793 4.50479 6.63021 4.50479 6.50966V5.00098C4.50479 4.88044 4.40707 4.78271 4.28652 4.78271Z" fill="#C4C4C4"/>
<path d="M17.1044 4.78271H15.5957C15.4752 4.78271 15.3774 4.88044 15.3774 5.00098V6.50966C15.3774 6.63021 15.4752 6.72793 15.5957 6.72793H17.1044C17.2249 6.72793 17.3227 6.63021 17.3227 6.50966V5.00098C17.3227 4.88044 17.2249 4.78271 17.1044 4.78271Z" fill="#C4C4C4"/>
<path d="M6.8456 4.78271H5.33692C5.21637 4.78271 5.11865 4.88044 5.11865 5.00098V6.50966C5.11865 6.63021 5.21637 6.72793 5.33692 6.72793H6.8456C6.96615 6.72793 7.06387 6.63021 7.06387 6.50966V5.00098C7.06387 4.88044 6.96615 4.78271 6.8456 4.78271Z" fill="#C4C4C4"/>
<path d="M19.663 4.78271H18.1543C18.0338 4.78271 17.936 4.88044 17.936 5.00098V6.50966C17.936 6.63021 18.0338 6.72793 18.1543 6.72793H19.663C19.7835 6.72793 19.8813 6.63021 19.8813 6.50966V5.00098C19.8813 4.88044 19.7835 4.78271 19.663 4.78271Z" fill="#C4C4C4"/>
<path d="M9.40468 4.78271H7.896C7.77546 4.78271 7.67773 4.88044 7.67773 5.00098V6.50966C7.67773 6.63021 7.77546 6.72793 7.896 6.72793H9.40468C9.52523 6.72793 9.62295 6.63021 9.62295 6.50966V5.00098C9.62295 4.88044 9.52523 4.78271 9.40468 4.78271Z" fill="#C4C4C4"/>
<path d="M22.2226 4.78271H20.7139C20.5933 4.78271 20.4956 4.88044 20.4956 5.00098V6.50966C20.4956 6.63021 20.5933 6.72793 20.7139 6.72793H22.2226C22.3431 6.72793 22.4408 6.63021 22.4408 6.50966V5.00098C22.4408 4.88044 22.3431 4.78271 22.2226 4.78271Z" fill="#C4C4C4"/>
<path d="M11.9638 4.78271H10.4551C10.3345 4.78271 10.2368 4.88044 10.2368 5.00098V6.50966C10.2368 6.63021 10.3345 6.72793 10.4551 6.72793H11.9638C12.0843 6.72793 12.182 6.63021 12.182 6.50966V5.00098C12.182 4.88044 12.0843 4.78271 11.9638 4.78271Z" fill="#C4C4C4"/>
<path d="M24.7816 4.78271H23.273C23.1524 4.78271 23.0547 4.88044 23.0547 5.00098V6.50966C23.0547 6.63021 23.1524 6.72793 23.273 6.72793H24.7816C24.9022 6.72793 24.9999 6.63021 24.9999 6.50966V5.00098C24.9999 4.88044 24.9022 4.78271 24.7816 4.78271Z" fill="#C4C4C4"/>
<path d="M1.72695 7.17383H0.218267C0.0977215 7.17383 0 7.27155 0 7.3921V8.90078C0 9.02132 0.0977215 9.11905 0.218267 9.11905H1.72695C1.8475 9.11905 1.94522 9.02132 1.94522 8.90078V7.3921C1.94522 7.27155 1.8475 7.17383 1.72695 7.17383Z" fill="#C4C4C4"/>
<path d="M14.5448 7.17383H13.0361C12.9156 7.17383 12.8179 7.27155 12.8179 7.3921V8.90078C12.8179 9.02132 12.9156 9.11905 13.0361 9.11905H14.5448C14.6654 9.11905 14.7631 9.02132 14.7631 8.90078V7.3921C14.7631 7.27155 14.6654 7.17383 14.5448 7.17383Z" fill="#C4C4C4"/>
<path d="M4.28652 7.17383H2.77784C2.65729 7.17383 2.55957 7.27155 2.55957 7.3921V8.90078C2.55957 9.02132 2.65729 9.11905 2.77784 9.11905H4.28652C4.40707 9.11905 4.50479 9.02132 4.50479 8.90078V7.3921C4.50479 7.27155 4.40707 7.17383 4.28652 7.17383Z" fill="#C4C4C4"/>
<path d="M17.1044 7.17383H15.5957C15.4752 7.17383 15.3774 7.27155 15.3774 7.3921V8.90078C15.3774 9.02132 15.4752 9.11905 15.5957 9.11905H17.1044C17.2249 9.11905 17.3227 9.02132 17.3227 8.90078V7.3921C17.3227 7.27155 17.2249 7.17383 17.1044 7.17383Z" fill="#C4C4C4"/>
<path d="M6.8456 7.17383H5.33692C5.21637 7.17383 5.11865 7.27155 5.11865 7.3921V8.90078C5.11865 9.02132 5.21637 9.11905 5.33692 9.11905H6.8456C6.96615 9.11905 7.06387 9.02132 7.06387 8.90078V7.3921C7.06387 7.27155 6.96615 7.17383 6.8456 7.17383Z" fill="#C4C4C4"/>
<path d="M19.663 7.17383H18.1543C18.0338 7.17383 17.936 7.27155 17.936 7.3921V8.90078C17.936 9.02132 18.0338 9.11905 18.1543 9.11905H19.663C19.7835 9.11905 19.8813 9.02132 19.8813 8.90078V7.3921C19.8813 7.27155 19.7835 7.17383 19.663 7.17383Z" fill="#C4C4C4"/>
<path d="M9.40468 7.17383H7.896C7.77546 7.17383 7.67773 7.27155 7.67773 7.3921V8.90078C7.67773 9.02132 7.77546 9.11905 7.896 9.11905H9.40468C9.52523 9.11905 9.62295 9.02132 9.62295 8.90078V7.3921C9.62295 7.27155 9.52523 7.17383 9.40468 7.17383Z" fill="#C4C4C4"/>
<path d="M22.2226 7.17383H20.7139C20.5933 7.17383 20.4956 7.27155 20.4956 7.3921V8.90078C20.4956 9.02132 20.5933 9.11905 20.7139 9.11905H22.2226C22.3431 9.11905 22.4408 9.02132 22.4408 8.90078V7.3921C22.4408 7.27155 22.3431 7.17383 22.2226 7.17383Z" fill="#C4C4C4"/>
<path d="M11.9638 7.17383H10.4551C10.3345 7.17383 10.2368 7.27155 10.2368 7.3921V8.90078C10.2368 9.02132 10.3345 9.11905 10.4551 9.11905H11.9638C12.0843 9.11905 12.182 9.02132 12.182 8.90078V7.3921C12.182 7.27155 12.0843 7.17383 11.9638 7.17383Z" fill="#C4C4C4"/>
<path d="M24.7816 7.17383H23.273C23.1524 7.17383 23.0547 7.27155 23.0547 7.3921V8.90078C23.0547 9.02132 23.1524 9.11905 23.273 9.11905H24.7816C24.9022 9.11905 24.9999 9.02132 24.9999 8.90078V7.3921C24.9999 7.27155 24.9022 7.17383 24.7816 7.17383Z" fill="#C4C4C4"/>
<path d="M1.72695 9.56787H0.218267C0.0977215 9.56787 0 9.66559 0 9.78614V11.2948C0 11.4154 0.0977215 11.5131 0.218267 11.5131H1.72695C1.8475 11.5131 1.94522 11.4154 1.94522 11.2948V9.78614C1.94522 9.66559 1.8475 9.56787 1.72695 9.56787Z" fill="#C4C4C4"/>
<path d="M1.72695 11.9736H0.218267C0.0977215 11.9736 0 12.0714 0 12.1919V13.7006C0 13.8211 0.0977215 13.9188 0.218267 13.9188H1.72695C1.8475 13.9188 1.94522 13.8211 1.94522 13.7006V12.1919C1.94522 12.0714 1.8475 11.9736 1.72695 11.9736Z" fill="#C4C4C4"/>
<path d="M1.72695 14.3789H0.218267C0.0977215 14.3789 0 14.4766 0 14.5972V16.1059C0 16.2264 0.0977215 16.3241 0.218267 16.3241H1.72695C1.8475 16.3241 1.94522 16.2264 1.94522 16.1059V14.5972C1.94522 14.4766 1.8475 14.3789 1.72695 14.3789Z" fill="#C4C4C4"/>
<path d="M1.72695 16.7852H0.218267C0.0977215 16.7852 0 16.8829 0 17.0034V18.5121C0 18.6327 0.0977215 18.7304 0.218267 18.7304H1.72695C1.8475 18.7304 1.94522 18.6327 1.94522 18.5121V17.0034C1.94522 16.8829 1.8475 16.7852 1.72695 16.7852Z" fill="#C4C4C4"/>
<path d="M1.72695 19.1909H0.218267C0.0977215 19.1909 0 19.2886 0 19.4092V20.9179C0 21.0384 0.0977215 21.1361 0.218267 21.1361H1.72695C1.8475 21.1361 1.94522 21.0384 1.94522 20.9179V19.4092C1.94522 19.2886 1.8475 19.1909 1.72695 19.1909Z" fill="#C4C4C4"/>
<path d="M14.5448 9.56787H13.0361C12.9156 9.56787 12.8179 9.66559 12.8179 9.78614V11.2948C12.8179 11.4154 12.9156 11.5131 13.0361 11.5131H14.5448C14.6654 11.5131 14.7631 11.4154 14.7631 11.2948V9.78614C14.7631 9.66559 14.6654 9.56787 14.5448 9.56787Z" fill="#C4C4C4"/>
<path d="M14.5448 11.9736H13.0361C12.9156 11.9736 12.8179 12.0714 12.8179 12.1919V13.7006C12.8179 13.8211 12.9156 13.9188 13.0361 13.9188H14.5448C14.6654 13.9188 14.7631 13.8211 14.7631 13.7006V12.1919C14.7631 12.0714 14.6654 11.9736 14.5448 11.9736Z" fill="#C4C4C4"/>
<path d="M14.5448 14.3789H13.0361C12.9156 14.3789 12.8179 14.4766 12.8179 14.5972V16.1059C12.8179 16.2264 12.9156 16.3241 13.0361 16.3241H14.5448C14.6654 16.3241 14.7631 16.2264 14.7631 16.1059V14.5972C14.7631 14.4766 14.6654 14.3789 14.5448 14.3789Z" fill="#C4C4C4"/>
<path d="M14.5448 16.7852H13.0361C12.9156 16.7852 12.8179 16.8829 12.8179 17.0034V18.5121C12.8179 18.6327 12.9156 18.7304 13.0361 18.7304H14.5448C14.6654 18.7304 14.7631 18.6327 14.7631 18.5121V17.0034C14.7631 16.8829 14.6654 16.7852 14.5448 16.7852Z" fill="#C4C4C4"/>
<path d="M14.5448 19.1909H13.0361C12.9156 19.1909 12.8179 19.2886 12.8179 19.4092V20.9179C12.8179 21.0384 12.9156 21.1361 13.0361 21.1361H14.5448C14.6654 21.1361 14.7631 21.0384 14.7631 20.9179V19.4092C14.7631 19.2886 14.6654 19.1909 14.5448 19.1909Z" fill="#C4C4C4"/>
<path d="M4.28652 9.56787H2.77784C2.65729 9.56787 2.55957 9.66559 2.55957 9.78614V11.2948C2.55957 11.4154 2.65729 11.5131 2.77784 11.5131H4.28652C4.40707 11.5131 4.50479 11.4154 4.50479 11.2948V9.78614C4.50479 9.66559 4.40707 9.56787 4.28652 9.56787Z" fill="#C4C4C4"/>
<path d="M4.28652 11.9736H2.77784C2.65729 11.9736 2.55957 12.0714 2.55957 12.1919V13.7006C2.55957 13.8211 2.65729 13.9188 2.77784 13.9188H4.28652C4.40707 13.9188 4.50479 13.8211 4.50479 13.7006V12.1919C4.50479 12.0714 4.40707 11.9736 4.28652 11.9736Z" fill="#C4C4C4"/>
<path d="M4.28652 14.3789H2.77784C2.65729 14.3789 2.55957 14.4766 2.55957 14.5972V16.1059C2.55957 16.2264 2.65729 16.3241 2.77784 16.3241H4.28652C4.40707 16.3241 4.50479 16.2264 4.50479 16.1059V14.5972C4.50479 14.4766 4.40707 14.3789 4.28652 14.3789Z" fill="#C4C4C4"/>
<path d="M4.28652 16.7852H2.77784C2.65729 16.7852 2.55957 16.8829 2.55957 17.0034V18.5121C2.55957 18.6327 2.65729 18.7304 2.77784 18.7304H4.28652C4.40707 18.7304 4.50479 18.6327 4.50479 18.5121V17.0034C4.50479 16.8829 4.40707 16.7852 4.28652 16.7852Z" fill="#C4C4C4"/>
<path d="M4.28652 19.1909H2.77784C2.65729 19.1909 2.55957 19.2886 2.55957 19.4092V20.9179C2.55957 21.0384 2.65729 21.1361 2.77784 21.1361H4.28652C4.40707 21.1361 4.50479 21.0384 4.50479 20.9179V19.4092C4.50479 19.2886 4.40707 19.1909 4.28652 19.1909Z" fill="#C4C4C4"/>
<path d="M17.1044 9.56787H15.5957C15.4752 9.56787 15.3774 9.66559 15.3774 9.78614V11.2948C15.3774 11.4154 15.4752 11.5131 15.5957 11.5131H17.1044C17.2249 11.5131 17.3227 11.4154 17.3227 11.2948V9.78614C17.3227 9.66559 17.2249 9.56787 17.1044 9.56787Z" fill="#C4C4C4"/>
<path d="M17.1044 11.9736H15.5957C15.4752 11.9736 15.3774 12.0714 15.3774 12.1919V13.7006C15.3774 13.8211 15.4752 13.9188 15.5957 13.9188H17.1044C17.2249 13.9188 17.3227 13.8211 17.3227 13.7006V12.1919C17.3227 12.0714 17.2249 11.9736 17.1044 11.9736Z" fill="#C4C4C4"/>
<path d="M17.1044 14.3789H15.5957C15.4752 14.3789 15.3774 14.4766 15.3774 14.5972V16.1059C15.3774 16.2264 15.4752 16.3241 15.5957 16.3241H17.1044C17.2249 16.3241 17.3227 16.2264 17.3227 16.1059V14.5972C17.3227 14.4766 17.2249 14.3789 17.1044 14.3789Z" fill="#C4C4C4"/>
<path d="M17.1044 16.7852H15.5957C15.4752 16.7852 15.3774 16.8829 15.3774 17.0034V18.5121C15.3774 18.6327 15.4752 18.7304 15.5957 18.7304H17.1044C17.2249 18.7304 17.3227 18.6327 17.3227 18.5121V17.0034C17.3227 16.8829 17.2249 16.7852 17.1044 16.7852Z" fill="#C4C4C4"/>
<path d="M17.1044 19.1909H15.5957C15.4752 19.1909 15.3774 19.2886 15.3774 19.4092V20.9179C15.3774 21.0384 15.4752 21.1361 15.5957 21.1361H17.1044C17.2249 21.1361 17.3227 21.0384 17.3227 20.9179V19.4092C17.3227 19.2886 17.2249 19.1909 17.1044 19.1909Z" fill="#C4C4C4"/>
<path d="M6.8456 9.56787H5.33692C5.21637 9.56787 5.11865 9.66559 5.11865 9.78614V11.2948C5.11865 11.4154 5.21637 11.5131 5.33692 11.5131H6.8456C6.96615 11.5131 7.06387 11.4154 7.06387 11.2948V9.78614C7.06387 9.66559 6.96615 9.56787 6.8456 9.56787Z" fill="#C4C4C4"/>
<path d="M6.8456 11.9736H5.33692C5.21637 11.9736 5.11865 12.0714 5.11865 12.1919V13.7006C5.11865 13.8211 5.21637 13.9188 5.33692 13.9188H6.8456C6.96615 13.9188 7.06387 13.8211 7.06387 13.7006V12.1919C7.06387 12.0714 6.96615 11.9736 6.8456 11.9736Z" fill="#C4C4C4"/>
<path d="M6.8456 14.3789H5.33692C5.21637 14.3789 5.11865 14.4766 5.11865 14.5972V16.1059C5.11865 16.2264 5.21637 16.3241 5.33692 16.3241H6.8456C6.96615 16.3241 7.06387 16.2264 7.06387 16.1059V14.5972C7.06387 14.4766 6.96615 14.3789 6.8456 14.3789Z" fill="#C4C4C4"/>
<path d="M6.8456 16.7852H5.33692C5.21637 16.7852 5.11865 16.8829 5.11865 17.0034V18.5121C5.11865 18.6327 5.21637 18.7304 5.33692 18.7304H6.8456C6.96615 18.7304 7.06387 18.6327 7.06387 18.5121V17.0034C7.06387 16.8829 6.96615 16.7852 6.8456 16.7852Z" fill="#C4C4C4"/>
<path d="M6.8456 19.1909H5.33692C5.21637 19.1909 5.11865 19.2886 5.11865 19.4092V20.9179C5.11865 21.0384 5.21637 21.1361 5.33692 21.1361H6.8456C6.96615 21.1361 7.06387 21.0384 7.06387 20.9179V19.4092C7.06387 19.2886 6.96615 19.1909 6.8456 19.1909Z" fill="#C4C4C4"/>
<path d="M19.663 9.56787H18.1543C18.0338 9.56787 17.936 9.66559 17.936 9.78614V11.2948C17.936 11.4154 18.0338 11.5131 18.1543 11.5131H19.663C19.7835 11.5131 19.8813 11.4154 19.8813 11.2948V9.78614C19.8813 9.66559 19.7835 9.56787 19.663 9.56787Z" fill="#C4C4C4"/>
<path d="M19.663 11.9736H18.1543C18.0338 11.9736 17.936 12.0714 17.936 12.1919V13.7006C17.936 13.8211 18.0338 13.9188 18.1543 13.9188H19.663C19.7835 13.9188 19.8813 13.8211 19.8813 13.7006V12.1919C19.8813 12.0714 19.7835 11.9736 19.663 11.9736Z" fill="#C4C4C4"/>
<path d="M19.663 14.3789H18.1543C18.0338 14.3789 17.936 14.4766 17.936 14.5972V16.1059C17.936 16.2264 18.0338 16.3241 18.1543 16.3241H19.663C19.7835 16.3241 19.8813 16.2264 19.8813 16.1059V14.5972C19.8813 14.4766 19.7835 14.3789 19.663 14.3789Z" fill="#C4C4C4"/>
<path d="M19.663 16.7852H18.1543C18.0338 16.7852 17.936 16.8829 17.936 17.0034V18.5121C17.936 18.6327 18.0338 18.7304 18.1543 18.7304H19.663C19.7835 18.7304 19.8813 18.6327 19.8813 18.5121V17.0034C19.8813 16.8829 19.7835 16.7852 19.663 16.7852Z" fill="#C4C4C4"/>
<path d="M19.663 19.1909H18.1543C18.0338 19.1909 17.936 19.2886 17.936 19.4092V20.9179C17.936 21.0384 18.0338 21.1361 18.1543 21.1361H19.663C19.7835 21.1361 19.8813 21.0384 19.8813 20.9179V19.4092C19.8813 19.2886 19.7835 19.1909 19.663 19.1909Z" fill="#C4C4C4"/>
<path d="M9.40468 9.56787H7.896C7.77546 9.56787 7.67773 9.66559 7.67773 9.78614V11.2948C7.67773 11.4154 7.77546 11.5131 7.896 11.5131H9.40468C9.52523 11.5131 9.62295 11.4154 9.62295 11.2948V9.78614C9.62295 9.66559 9.52523 9.56787 9.40468 9.56787Z" fill="#C4C4C4"/>
<path d="M9.40468 11.9736H7.896C7.77546 11.9736 7.67773 12.0714 7.67773 12.1919V13.7006C7.67773 13.8211 7.77546 13.9188 7.896 13.9188H9.40468C9.52523 13.9188 9.62295 13.8211 9.62295 13.7006V12.1919C9.62295 12.0714 9.52523 11.9736 9.40468 11.9736Z" fill="#C4C4C4"/>
<path d="M9.40468 14.3789H7.896C7.77546 14.3789 7.67773 14.4766 7.67773 14.5972V16.1059C7.67773 16.2264 7.77546 16.3241 7.896 16.3241H9.40468C9.52523 16.3241 9.62295 16.2264 9.62295 16.1059V14.5972C9.62295 14.4766 9.52523 14.3789 9.40468 14.3789Z" fill="#C4C4C4"/>
<path d="M9.40468 16.7852H7.896C7.77546 16.7852 7.67773 16.8829 7.67773 17.0034V18.5121C7.67773 18.6327 7.77546 18.7304 7.896 18.7304H9.40468C9.52523 18.7304 9.62295 18.6327 9.62295 18.5121V17.0034C9.62295 16.8829 9.52523 16.7852 9.40468 16.7852Z" fill="#C4C4C4"/>
<path d="M9.40468 19.1909H7.896C7.77546 19.1909 7.67773 19.2886 7.67773 19.4092V20.9179C7.67773 21.0384 7.77546 21.1361 7.896 21.1361H9.40468C9.52523 21.1361 9.62295 21.0384 9.62295 20.9179V19.4092C9.62295 19.2886 9.52523 19.1909 9.40468 19.1909Z" fill="#C4C4C4"/>
<path d="M22.2226 9.56787H20.7139C20.5933 9.56787 20.4956 9.66559 20.4956 9.78614V11.2948C20.4956 11.4154 20.5933 11.5131 20.7139 11.5131H22.2226C22.3431 11.5131 22.4408 11.4154 22.4408 11.2948V9.78614C22.4408 9.66559 22.3431 9.56787 22.2226 9.56787Z" fill="#C4C4C4"/>
<path d="M22.2226 11.9736H20.7139C20.5933 11.9736 20.4956 12.0714 20.4956 12.1919V13.7006C20.4956 13.8211 20.5933 13.9188 20.7139 13.9188H22.2226C22.3431 13.9188 22.4408 13.8211 22.4408 13.7006V12.1919C22.4408 12.0714 22.3431 11.9736 22.2226 11.9736Z" fill="#C4C4C4"/>
<path d="M22.2226 14.3789H20.7139C20.5933 14.3789 20.4956 14.4766 20.4956 14.5972V16.1059C20.4956 16.2264 20.5933 16.3241 20.7139 16.3241H22.2226C22.3431 16.3241 22.4408 16.2264 22.4408 16.1059V14.5972C22.4408 14.4766 22.3431 14.3789 22.2226 14.3789Z" fill="#C4C4C4"/>
<path d="M22.2226 16.7852H20.7139C20.5933 16.7852 20.4956 16.8829 20.4956 17.0034V18.5121C20.4956 18.6327 20.5933 18.7304 20.7139 18.7304H22.2226C22.3431 18.7304 22.4408 18.6327 22.4408 18.5121V17.0034C22.4408 16.8829 22.3431 16.7852 22.2226 16.7852Z" fill="#C4C4C4"/>
<path d="M22.2226 19.1909H20.7139C20.5933 19.1909 20.4956 19.2886 20.4956 19.4092V20.9179C20.4956 21.0384 20.5933 21.1361 20.7139 21.1361H22.2226C22.3431 21.1361 22.4408 21.0384 22.4408 20.9179V19.4092C22.4408 19.2886 22.3431 19.1909 22.2226 19.1909Z" fill="#C4C4C4"/>
<path d="M11.9638 9.56787H10.4551C10.3345 9.56787 10.2368 9.66559 10.2368 9.78614V11.2948C10.2368 11.4154 10.3345 11.5131 10.4551 11.5131H11.9638C12.0843 11.5131 12.182 11.4154 12.182 11.2948V9.78614C12.182 9.66559 12.0843 9.56787 11.9638 9.56787Z" fill="#C4C4C4"/>
<path d="M11.9638 11.9736H10.4551C10.3345 11.9736 10.2368 12.0714 10.2368 12.1919V13.7006C10.2368 13.8211 10.3345 13.9188 10.4551 13.9188H11.9638C12.0843 13.9188 12.182 13.8211 12.182 13.7006V12.1919C12.182 12.0714 12.0843 11.9736 11.9638 11.9736Z" fill="#C4C4C4"/>
<path d="M11.9638 14.3789H10.4551C10.3345 14.3789 10.2368 14.4766 10.2368 14.5972V16.1059C10.2368 16.2264 10.3345 16.3241 10.4551 16.3241H11.9638C12.0843 16.3241 12.182 16.2264 12.182 16.1059V14.5972C12.182 14.4766 12.0843 14.3789 11.9638 14.3789Z" fill="#C4C4C4"/>
<path d="M11.9638 16.7852H10.4551C10.3345 16.7852 10.2368 16.8829 10.2368 17.0034V18.5121C10.2368 18.6327 10.3345 18.7304 10.4551 18.7304H11.9638C12.0843 18.7304 12.182 18.6327 12.182 18.5121V17.0034C12.182 16.8829 12.0843 16.7852 11.9638 16.7852Z" fill="#C4C4C4"/>
<path d="M11.9638 19.1909H10.4551C10.3345 19.1909 10.2368 19.2886 10.2368 19.4092V20.9179C10.2368 21.0384 10.3345 21.1361 10.4551 21.1361H11.9638C12.0843 21.1361 12.182 21.0384 12.182 20.9179V19.4092C12.182 19.2886 12.0843 19.1909 11.9638 19.1909Z" fill="#C4C4C4"/>
<path d="M24.7816 9.56787H23.273C23.1524 9.56787 23.0547 9.66559 23.0547 9.78614V11.2948C23.0547 11.4154 23.1524 11.5131 23.273 11.5131H24.7816C24.9022 11.5131 24.9999 11.4154 24.9999 11.2948V9.78614C24.9999 9.66559 24.9022 9.56787 24.7816 9.56787Z" fill="#C4C4C4"/>
<path d="M24.7816 11.9736H23.273C23.1524 11.9736 23.0547 12.0714 23.0547 12.1919V13.7006C23.0547 13.8211 23.1524 13.9188 23.273 13.9188H24.7816C24.9022 13.9188 24.9999 13.8211 24.9999 13.7006V12.1919C24.9999 12.0714 24.9022 11.9736 24.7816 11.9736Z" fill="#C4C4C4"/>
<path d="M24.7816 14.3789H23.273C23.1524 14.3789 23.0547 14.4766 23.0547 14.5972V16.1059C23.0547 16.2264 23.1524 16.3241 23.273 16.3241H24.7816C24.9022 16.3241 24.9999 16.2264 24.9999 16.1059V14.5972C24.9999 14.4766 24.9022 14.3789 24.7816 14.3789Z" fill="#C4C4C4"/>
<path d="M24.7816 16.7852H23.273C23.1524 16.7852 23.0547 16.8829 23.0547 17.0034V18.5121C23.0547 18.6327 23.1524 18.7304 23.273 18.7304H24.7816C24.9022 18.7304 24.9999 18.6327 24.9999 18.5121V17.0034C24.9999 16.8829 24.9022 16.7852 24.7816 16.7852Z" fill="#C4C4C4"/>
<path d="M24.7816 19.1909H23.273C23.1524 19.1909 23.0547 19.2886 23.0547 19.4092V20.9179C23.0547 21.0384 23.1524 21.1361 23.273 21.1361H24.7816C24.9022 21.1361 24.9999 21.0384 24.9999 20.9179V19.4092C24.9999 19.2886 24.9022 19.1909 24.7816 19.1909Z" fill="#C4C4C4"/>
</svg>
