<svg width="18" height="18" viewBox="0 0 18 18" fill="none" xmlns="http://www.w3.org/2000/svg">
<path d="M15.225 10.0719C15.036 10.013 14.8314 10.0312 14.6558 10.1226C14.4802 10.2139 14.3478 10.3709 14.2875 10.5594C13.9332 11.6428 13.2424 12.5848 12.3157 13.2485C11.389 13.9121 10.2747 14.2628 9.135 14.2494C7.72526 14.2655 6.3667 13.7218 5.35723 12.7376C4.34776 11.7534 3.76977 10.4091 3.75 8.99943C3.76977 7.58974 4.34776 6.24542 5.35723 5.26126C6.3667 4.27709 7.72526 3.73341 9.135 3.74943C10.4082 3.74636 11.6422 4.18954 12.6225 5.00193L10.995 4.73193C10.8975 4.71588 10.7977 4.71927 10.7015 4.74191C10.6053 4.76455 10.5145 4.80598 10.4343 4.86383C10.3542 4.92168 10.2862 4.99481 10.2344 5.07901C10.1826 5.1632 10.148 5.2568 10.1325 5.35443C10.1165 5.45197 10.1198 5.55172 10.1425 5.64795C10.1651 5.74417 10.2065 5.83497 10.2644 5.91513C10.3223 5.99528 10.3954 6.06321 10.4796 6.11501C10.5638 6.1668 10.6574 6.20144 10.755 6.21693L13.935 6.74193H14.0625C14.1495 6.74183 14.2358 6.7266 14.3175 6.69693C14.345 6.68651 14.3704 6.67127 14.3925 6.65193C14.4463 6.63194 14.4968 6.60414 14.5425 6.56943L14.61 6.48693C14.61 6.44943 14.6775 6.41943 14.7075 6.37443C14.7375 6.32943 14.7075 6.29943 14.745 6.26943C14.7657 6.22575 14.7833 6.18064 14.7975 6.13443L15.36 3.13443C15.3787 3.03594 15.3778 2.93473 15.3574 2.83657C15.337 2.73842 15.2975 2.64524 15.2411 2.56237C15.1847 2.47949 15.1125 2.40854 15.0287 2.35356C14.9448 2.29858 14.851 2.26065 14.7525 2.24193C14.654 2.22322 14.5528 2.22409 14.4546 2.24449C14.3565 2.26489 14.2633 2.30443 14.1804 2.36084C14.0131 2.47477 13.8978 2.65052 13.86 2.84943L13.6575 3.93693C12.402 2.84886 10.7964 2.24976 9.135 2.24943C7.32745 2.23343 5.58738 2.93515 4.2966 4.20062C3.00583 5.46608 2.26979 7.19192 2.25 8.99943C2.26979 10.8069 3.00583 12.5328 4.2966 13.7982C5.58738 15.0637 7.32745 15.7654 9.135 15.7494C10.5999 15.7719 12.0332 15.3235 13.2241 14.4702C14.415 13.6169 15.3004 12.4038 15.75 11.0094C15.7784 10.9134 15.7874 10.8127 15.7763 10.7131C15.7651 10.6136 15.7342 10.5173 15.6853 10.4299C15.6363 10.3425 15.5704 10.2659 15.4914 10.2044C15.4123 10.1429 15.3217 10.0979 15.225 10.0719Z" fill="#D4D4D4"/>
</svg>
