<svg width="18" height="18" viewBox="0 0 18 18" fill="none" xmlns="http://www.w3.org/2000/svg">
<path d="M9 10.5V12C7.80653 12 6.66193 12.4741 5.81802 13.318C4.97411 14.1619 4.5 15.3065 4.5 16.5H3C3 14.9087 3.63214 13.3826 4.75736 12.2574C5.88258 11.1321 7.4087 10.5 9 10.5ZM9 9.75C6.51375 9.75 4.5 7.73625 4.5 5.25C4.5 2.76375 6.51375 0.75 9 0.75C11.4862 0.75 13.5 2.76375 13.5 5.25C13.5 7.73625 11.4862 9.75 9 9.75ZM9 8.25C10.6575 8.25 12 6.9075 12 5.25C12 3.5925 10.6575 2.25 9 2.25C7.3425 2.25 6 3.5925 6 5.25C6 6.9075 7.3425 8.25 9 8.25ZM15.75 12.75H16.5V16.5H10.5V12.75H11.25V12C11.25 11.4033 11.4871 10.831 11.909 10.409C12.331 9.98705 12.9033 9.75 13.5 9.75C14.0967 9.75 14.669 9.98705 15.091 10.409C15.5129 10.831 15.75 11.4033 15.75 12V12.75ZM14.25 12.75V12C14.25 11.8011 14.171 11.6103 14.0303 11.4697C13.8897 11.329 13.6989 11.25 13.5 11.25C13.3011 11.25 13.1103 11.329 12.9697 11.4697C12.829 11.6103 12.75 11.8011 12.75 12V12.75H14.25Z" fill="#445870"/>
</svg>
