<svg width="237" height="43" viewBox="0 0 237 43" fill="none" xmlns="http://www.w3.org/2000/svg">
<path d="M34.7877 0C40.2377 0.295286 46.0883 2.74705 49.8227 6.78896C53.557 10.8309 55.6101 16.1812 55.5534 21.7233C55.4967 27.2655 53.3347 32.5713 49.5184 36.5336C45.7021 40.4958 40.2426 42.8197 34.7877 43V32.5044C37.5782 32.4122 40.1735 31.2175 42.1257 29.1905C44.0779 27.1636 45.184 24.4494 45.213 21.6142C45.242 18.7791 44.1917 16.0421 42.2813 13.9745C40.371 11.9068 37.5757 10.6956 34.7877 10.5446V0Z" fill="#0076FF"/>
<path opacity="0.5" d="M15.5044 23.0069C14.6852 23.0069 14.0211 22.3324 14.0211 21.5005C14.0211 20.6686 14.6852 19.9941 15.5044 19.9941C16.3236 19.9941 16.9878 20.6686 16.9878 21.5005C16.9878 22.3324 16.3236 23.0069 15.5044 23.0069Z" fill="#0076FF"/>
<path opacity="0.5" d="M30.8775 4.10918C30.0583 4.10918 29.3941 3.43476 29.3941 2.60281C29.3941 1.77087 30.0583 1.09644 30.8775 1.09644C31.6967 1.09644 32.3608 1.77087 32.3608 2.60281C32.3608 3.43476 31.6967 4.10918 30.8775 4.10918Z" fill="#0076FF"/>
<path opacity="0.5" d="M27.3715 12.3245C26.5523 12.3245 25.8882 11.65 25.8882 10.8181C25.8882 9.98615 26.5523 9.31173 27.3715 9.31173C28.1907 9.31173 28.8549 9.98615 28.8549 10.8181C28.8549 11.65 28.1907 12.3245 27.3715 12.3245Z" fill="#0076FF"/>
<path opacity="0.5" d="M17.6626 13.9681C16.8434 13.9681 16.1792 13.2936 16.1792 12.4617C16.1792 11.6298 16.8434 10.9553 17.6626 10.9553C18.4818 10.9553 19.1459 11.6298 19.1459 12.4617C19.1459 13.2936 18.4818 13.9681 17.6626 13.9681Z" fill="#0076FF"/>
<path opacity="0.5" d="M25.5419 3.61123L33.2155 7.13812C33.9352 7.46891 34.2572 8.32356 33.9348 9.04704C33.6124 9.77052 32.7675 10.0889 32.0478 9.75808L24.3742 6.23118C23.6545 5.9004 23.3325 5.04575 23.6549 4.32227C23.9773 3.59879 24.8222 3.28044 25.5419 3.61123Z" fill="#0076FF"/>
<path opacity="0.5" d="M21.9301 7.30819L25.0081 13.7743C25.3452 14.4824 25.0478 15.3367 24.3437 15.6823C23.6397 16.0279 22.7957 15.734 22.4586 15.0259L19.3806 8.55981C19.0435 7.85164 19.3409 6.99738 20.045 6.65175C20.749 6.30613 21.593 6.60003 21.9301 7.30819Z" fill="#0076FF"/>
<path opacity="0.5" d="M16.2327 15.5098L22.59 17.5883C23.3437 17.8347 23.7604 18.6473 23.5208 19.4032C23.2811 20.1591 22.4759 20.5722 21.7221 20.3257L15.3648 18.2473C14.6111 18.0008 14.1943 17.1883 14.434 16.4324C14.6736 15.6764 15.4789 15.2634 16.2327 15.5098Z" fill="#0076FF"/>
<path opacity="0.5" d="M30.8775 39.0787C30.0583 39.0787 29.3941 39.7532 29.3941 40.5851C29.3941 41.417 30.0583 42.0915 30.8775 42.0915C31.6967 42.0915 32.3608 41.417 32.3608 40.5851C32.3608 39.7532 31.6967 39.0787 30.8775 39.0787Z" fill="#0076FF"/>
<path opacity="0.5" d="M27.3715 30.8621C26.5523 30.8621 25.8882 31.5366 25.8882 32.3685C25.8882 33.2004 26.5523 33.8749 27.3715 33.8749C28.1907 33.8749 28.8549 33.2004 28.8549 32.3685C28.8549 31.5366 28.1907 30.8621 27.3715 30.8621Z" fill="#0076FF"/>
<path opacity="0.5" d="M17.6626 29.2197C16.8434 29.2197 16.1792 29.8942 16.1792 30.7261C16.1792 31.558 16.8434 32.2325 17.6626 32.2325C18.4818 32.2325 19.1459 31.558 19.1459 30.7261C19.1459 29.8942 18.4818 29.2197 17.6626 29.2197Z" fill="#0076FF"/>
<path opacity="0.5" d="M25.5419 39.5754L33.2155 36.0485C33.9352 35.7178 34.2572 34.8631 33.9348 34.1396C33.6124 33.4161 32.7675 33.0978 32.0478 33.4286L24.3742 36.9555C23.6545 37.2863 23.3325 38.1409 23.6549 38.8644C23.9773 39.5879 24.8222 39.9062 25.5419 39.5754Z" fill="#0076FF"/>
<path opacity="0.5" d="M21.9301 35.8795L25.0081 29.4134C25.3452 28.7053 25.0478 27.851 24.3437 27.5054C23.6397 27.1598 22.7957 27.4537 22.4586 28.1618L19.3806 34.6279C19.0435 35.3361 19.3409 36.1903 20.045 36.536C20.749 36.8816 21.593 36.5877 21.9301 35.8795Z" fill="#0076FF"/>
<path opacity="0.5" d="M16.2327 27.678L22.59 25.5995C23.3437 25.3531 23.7604 24.5405 23.5208 23.7846C23.2811 23.0287 22.4759 22.6156 21.7221 22.8621L15.3648 24.9405C14.6111 25.187 14.1943 25.9995 14.434 26.7554C14.6736 27.5114 15.4789 27.9244 16.2327 27.678Z" fill="#0076FF"/>
<path d="M69.6687 28.9929H73.9242C78.9206 28.9929 81.6306 26.3914 81.6306 21.6184C81.6306 16.7594 78.8359 14.0074 73.9453 14.0074H69.6687V28.9929ZM72.3151 26.5204V16.4799H73.903C77.3963 16.4799 78.963 18.0494 78.963 21.5109C78.963 25.0369 77.3963 26.5204 73.6701 26.5204H72.3151Z" fill="#0076FF"/>
<path d="M84.1162 28.9929H86.6568V20.4359H89.0915V18.3934H86.6568V17.1679C86.6568 16.7809 86.6568 15.9424 87.5672 15.9424C87.9059 15.9424 88.2023 16.0499 88.4352 16.2004L89.2609 14.2224C88.7104 13.9644 88.0964 13.7924 87.2919 13.7924C85.6406 13.7924 84.1374 14.5019 84.1374 17.1894V18.3934H82.1261V20.4359H84.1162V28.9929Z" fill="#0076FF"/>
<path d="M92.8612 29.2079C93.3481 29.2079 93.9197 29.1004 94.4914 28.8854V26.8214C94.195 26.9074 93.9197 26.9504 93.6869 26.9504C93.2211 26.9504 92.9459 26.7569 92.9459 26.2839V14.0074H90.4053V26.4559C90.4053 28.3479 91.4427 29.2079 92.8612 29.2079Z" fill="#0076FF"/>
<path d="M102.523 18.3934V22.4139C102.523 24.3059 102.523 26.9504 100.152 26.9504C98.2253 26.9504 98.2253 25.1014 98.2253 24.3704V18.3934H95.6847V25.0154C95.6847 27.2729 96.7857 29.2079 99.4109 29.2079C100.639 29.2079 101.782 28.7779 102.523 27.7674V28.9929H105.064V18.3934H102.523Z" fill="#0076FF"/>
<path d="M106.192 28.9929H109.304L111.464 25.4239L113.623 28.9929H116.735L113.136 23.6609L116.735 18.3934H113.623L111.464 21.8979L109.304 18.3934H106.192L109.77 23.6609L106.192 28.9929Z" fill="#0076FF"/>
<path d="M118.427 28.9929H120.989V26.1979H118.427V28.9929Z" fill="#0076FF"/>
<path d="M128.154 18.1784C126.248 18.1784 124.703 18.9309 123.454 20.4574L125.296 22.0269C126.058 20.9949 127.053 20.4359 128.111 20.4359C129.318 20.4359 130.08 21.1454 130.08 22.3064V22.6074H127.476C126.291 22.6074 125.401 22.7579 124.703 23.0804C123.687 23.5534 123.136 24.4994 123.136 25.7464C123.136 27.7674 124.703 29.2079 126.905 29.2079C128.281 29.2079 129.466 28.6059 130.08 27.6169L130.292 28.9929H132.621V22.3064C132.621 19.7479 130.906 18.1784 128.154 18.1784ZM127.307 27.0149C126.291 27.0149 125.677 26.5419 125.677 25.7894C125.677 25.4024 125.825 25.1014 126.1 24.9079C126.439 24.6499 126.947 24.5424 127.815 24.5424H130.08C130.08 25.9184 128.831 27.0149 127.307 27.0149Z" fill="#0076FF"/>
<path d="M134.808 16.3939H137.476V14.0074H134.808V16.3939ZM134.872 28.9929H137.412V18.3934H134.872V28.9929Z" fill="#0076FF"/>
</svg>
