<svg width="271" height="43" viewBox="0 0 271 43" fill="none" xmlns="http://www.w3.org/2000/svg">
<rect width="271" height="43" fill="white"/>
<path d="M20.7877 0C26.2377 0.295286 32.0883 2.74705 35.8227 6.78896C39.557 10.8309 41.6101 16.1812 41.5534 21.7233C41.4967 27.2655 39.3347 32.5713 35.5184 36.5336C31.7021 40.4958 26.2426 42.8197 20.7877 43V32.5044C23.5782 32.4122 26.1735 31.2175 28.1257 29.1905C30.0779 27.1636 31.184 24.4494 31.213 21.6142C31.242 18.7791 30.1917 16.0421 28.2813 13.9745C26.371 11.9068 23.5757 10.6956 20.7877 10.5446V0Z" fill="#0076FF"/>
<ellipse opacity="0.5" rx="1.48335" ry="1.50637" transform="matrix(-1 0 0 1 1.50444 21.5005)" fill="#0076FF"/>
<ellipse opacity="0.5" rx="1.48335" ry="1.50637" transform="matrix(-1 0 0 1 16.8775 2.60281)" fill="#0076FF"/>
<ellipse opacity="0.5" rx="1.48335" ry="1.50637" transform="matrix(-1 0 0 1 13.3715 10.8181)" fill="#0076FF"/>
<ellipse opacity="0.5" rx="1.48335" ry="1.50637" transform="matrix(-1 0 0 1 3.66265 12.4617)" fill="#0076FF"/>
<rect opacity="0.5" width="11.3137" height="2.86837" rx="1.43419" transform="matrix(-0.908624 -0.417615 -0.407075 0.913395 20.5186 7.73706)" fill="#0076FF"/>
<rect opacity="0.5" width="10.0015" height="2.84022" rx="1.42011" transform="matrix(-0.429809 -0.90292 -0.897667 0.440674 11.6185 15.0565)" fill="#0076FF"/>
<rect opacity="0.5" width="9.56014" height="2.8717" rx="1.43585" transform="matrix(-0.95049 -0.310755 -0.302202 0.953244 9.95471 18.0345)" fill="#0076FF"/>
<ellipse opacity="0.5" cx="16.8775" cy="40.5851" rx="1.48335" ry="1.50637" transform="rotate(-180 16.8775 40.5851)" fill="#0076FF"/>
<ellipse opacity="0.5" cx="13.3715" cy="32.3685" rx="1.48335" ry="1.50637" transform="rotate(-180 13.3715 32.3685)" fill="#0076FF"/>
<ellipse opacity="0.5" cx="3.66265" cy="30.7261" rx="1.48335" ry="1.50637" transform="rotate(-180 3.66265 30.7261)" fill="#0076FF"/>
<rect opacity="0.5" width="11.3137" height="2.86837" rx="1.43419" transform="matrix(-0.908624 0.417615 -0.407075 -0.913395 20.5186 35.4496)" fill="#0076FF"/>
<rect opacity="0.5" width="10.0015" height="2.84022" rx="1.42011" transform="matrix(-0.429809 0.90292 -0.897667 -0.440674 11.6185 28.1312)" fill="#0076FF"/>
<rect opacity="0.5" width="9.56014" height="2.8717" rx="1.43585" transform="matrix(-0.95049 0.310755 -0.302202 -0.953244 9.95471 25.1533)" fill="#0076FF"/>
<path d="M55.6687 28.9929H59.9242C64.9206 28.9929 67.6306 26.3914 67.6306 21.6184C67.6306 16.7594 64.8359 14.0074 59.9453 14.0074H55.6687V28.9929ZM58.3151 26.5204V16.4799H59.903C63.3963 16.4799 64.963 18.0494 64.963 21.5109C64.963 25.0369 63.3963 26.5204 59.6701 26.5204H58.3151Z" fill="#0076FF"/>
<path d="M70.1162 28.9929H72.6568V20.4359H75.0915V18.3934H72.6568V17.1679C72.6568 16.7809 72.6568 15.9424 73.5672 15.9424C73.9059 15.9424 74.2023 16.0499 74.4352 16.2004L75.2609 14.2224C74.7104 13.9644 74.0964 13.7924 73.2919 13.7924C71.6406 13.7924 70.1374 14.5019 70.1374 17.1894V18.3934H68.1261V20.4359H70.1162V28.9929Z" fill="#0076FF"/>
<path d="M78.8612 29.2079C79.3481 29.2079 79.9197 29.1004 80.4914 28.8854V26.8214C80.195 26.9074 79.9197 26.9504 79.6869 26.9504C79.2211 26.9504 78.9459 26.7569 78.9459 26.2839V14.0074H76.4053V26.4559C76.4053 28.3479 77.4427 29.2079 78.8612 29.2079Z" fill="#0076FF"/>
<path d="M88.5231 18.3934V22.4139C88.5231 24.3059 88.5231 26.9504 86.1519 26.9504C84.2253 26.9504 84.2253 25.1014 84.2253 24.3704V18.3934H81.6847V25.0154C81.6847 27.2729 82.7857 29.2079 85.4109 29.2079C86.6389 29.2079 87.7821 28.7779 88.5231 27.7674V28.9929H91.0637V18.3934H88.5231Z" fill="#0076FF"/>
<path d="M92.1919 28.9929H95.3041L97.4636 25.4239L99.6231 28.9929H102.735L99.1361 23.6609L102.735 18.3934H99.6231L97.4636 21.8979L95.3041 18.3934H92.1919L95.7699 23.6609L92.1919 28.9929Z" fill="#0076FF"/>
<path d="M104.427 28.9929H106.989V26.1979H104.427V28.9929Z" fill="#0076FF"/>
<path d="M114.154 18.1784C112.248 18.1784 110.703 18.9309 109.454 20.4574L111.296 22.0269C112.058 20.9949 113.053 20.4359 114.111 20.4359C115.318 20.4359 116.08 21.1454 116.08 22.3064V22.6074H113.476C112.291 22.6074 111.401 22.7579 110.703 23.0804C109.687 23.5534 109.136 24.4994 109.136 25.7464C109.136 27.7674 110.703 29.2079 112.905 29.2079C114.281 29.2079 115.466 28.6059 116.08 27.6169L116.292 28.9929H118.621V22.3064C118.621 19.7479 116.906 18.1784 114.154 18.1784ZM113.307 27.0149C112.291 27.0149 111.677 26.5419 111.677 25.7894C111.677 25.4024 111.825 25.1014 112.1 24.9079C112.439 24.6499 112.947 24.5424 113.815 24.5424H116.08C116.08 25.9184 114.831 27.0149 113.307 27.0149Z" fill="#0076FF"/>
<path d="M120.808 16.3939H123.476V14.0074H120.808V16.3939ZM120.872 28.9929H123.412V18.3934H120.872V28.9929Z" fill="#0076FF"/>
</svg>
