<svg width="237" height="43" viewBox="0 0 237 43" fill="none" xmlns="http://www.w3.org/2000/svg">
<path d="M101.986 17.9955V14.8478C101.986 14.4327 102.132 14.0791 102.424 13.787C102.716 13.4949 103.069 13.3489 103.485 13.3489H108.615C108.784 13.3489 108.896 13.322 108.95 13.2682C109.011 13.2067 109.042 13.0914 109.042 12.9223V11.3657C109.042 11.1966 109.011 11.0852 108.95 11.0314C108.896 10.9699 108.784 10.9391 108.615 10.9391H103.657C103.488 10.9391 103.373 10.9699 103.312 11.0314C103.258 11.0852 103.231 11.1966 103.231 11.3657V11.677H101.986V11.1928C101.986 10.7777 102.132 10.4241 102.424 10.132C102.716 9.83224 103.069 9.68235 103.485 9.68235H108.788C109.196 9.68235 109.545 9.83224 109.838 10.132C110.137 10.4241 110.287 10.7777 110.287 11.1928V13.0952C110.287 13.5103 110.137 13.8639 109.838 14.156C109.545 14.4481 109.196 14.5941 108.788 14.5941H103.657C103.488 14.5941 103.373 14.6249 103.312 14.6864C103.258 14.7402 103.231 14.8516 103.231 15.0207V16.3236C103.231 16.4927 103.258 16.608 103.312 16.6695C103.373 16.7233 103.488 16.7502 103.657 16.7502H110.287V17.9955H101.986Z" fill="#242424"/>
<path d="M113.657 12H112.987V6.8405H111.165V6.24623H115.479V6.8405H113.657V12ZM118.895 12L116.943 6.89953H116.911C116.948 7.30358 116.966 7.78372 116.966 8.33994V12H116.348V6.24623H117.356L119.178 10.9925H119.21L121.047 6.24623H122.047V12H121.378V8.29271C121.378 7.86768 121.396 7.4059 121.433 6.9074H121.402L119.434 12H118.895Z" fill="#242424"/>
<path d="M1.30131 12.5624H3.76695V29H1.30131V12.5624ZM16.751 15.7586C17.1619 15.7586 17.5424 15.8347 17.8925 15.9869C18.2578 16.1391 18.5774 16.3522 18.8513 16.6261C19.1253 16.9001 19.3384 17.2197 19.4906 17.585C19.6428 17.9351 19.7189 18.3156 19.7189 18.7265V29H17.2532V18.7265C17.2532 18.5895 17.2 18.4754 17.0934 18.384C17.0021 18.2775 16.888 18.2242 16.751 18.2242H9.21708C9.0801 18.2242 8.95834 18.2775 8.8518 18.384C8.76048 18.4754 8.71482 18.5895 8.71482 18.7265V29H6.24918V15.7586H16.751ZM24.5883 18.2242V26.0321C24.5883 26.1691 24.6339 26.2908 24.7252 26.3974C24.8318 26.4887 24.9535 26.5344 25.0905 26.5344H30.0218V29H25.0905C24.6796 29 24.2915 28.9239 23.9262 28.7717C23.5761 28.6195 23.2641 28.4064 22.9902 28.1325C22.7162 27.8585 22.5031 27.5465 22.3509 27.1964C22.1987 26.8311 22.1226 26.443 22.1226 26.0321V18.7265V11.4209H24.5883V15.7586H30.0218V18.2242H24.5883ZM41.9426 15.7586C42.3536 15.7586 42.7341 15.8347 43.0841 15.9869C43.4494 16.1391 43.769 16.3522 44.043 16.6261C44.317 16.9001 44.53 17.2197 44.6822 17.585C44.8344 17.9351 44.9105 18.3156 44.9105 18.7265V23.6121H33.9065V26.0321C33.9065 26.1691 33.9521 26.2908 34.0435 26.3974C34.15 26.4887 34.2718 26.5344 34.4087 26.5344H44.9105V29H34.4087C33.9978 29 33.6097 28.9239 33.2444 28.7717C32.8943 28.6195 32.5823 28.4064 32.3084 28.1325C32.0344 27.8585 31.8213 27.5465 31.6691 27.1964C31.5169 26.8311 31.4408 26.443 31.4408 26.0321V18.7265C31.4408 18.3156 31.5169 17.9351 31.6691 17.585C31.8213 17.2197 32.0344 16.9001 32.3084 16.6261C32.5823 16.3522 32.8943 16.1391 33.2444 15.9869C33.6097 15.8347 33.9978 15.7586 34.4087 15.7586H41.9426ZM42.4449 21.1465V18.7265C42.4449 18.5895 42.3916 18.4754 42.2851 18.384C42.1938 18.2775 42.0796 18.2242 41.9426 18.2242H34.4087C34.2718 18.2242 34.15 18.2775 34.0435 18.384C33.9521 18.4754 33.9065 18.5895 33.9065 18.7265V21.1465H42.4449ZM47.1593 18.7265V11.4209H49.6249V26.0321C49.6249 26.1691 49.6706 26.2908 49.7619 26.3974C49.8684 26.4887 49.9902 26.5344 50.1272 26.5344H52.5928V29H50.1272C49.7162 29 49.3281 28.9239 48.9629 28.7717C48.6128 28.6195 48.3008 28.4064 48.0268 28.1325C47.7529 27.8585 47.5398 27.5465 47.3876 27.1964C47.2354 26.8311 47.1593 26.443 47.1593 26.0321V18.7265ZM54.0484 18.7265V11.4209H56.5141V26.0321C56.5141 26.1691 56.5597 26.2908 56.651 26.3974C56.7576 26.4887 56.8793 26.5344 57.0163 26.5344H59.482V29H57.0163C56.6054 29 56.2173 28.9239 55.852 28.7717C55.5019 28.6195 55.1899 28.4064 54.916 28.1325C54.642 27.8585 54.4289 27.5465 54.2767 27.1964C54.1245 26.8311 54.0484 26.443 54.0484 26.0321V18.7265ZM71.4165 15.7586C71.8275 15.7586 72.208 15.8347 72.558 15.9869C72.9233 16.1391 73.2429 16.3522 73.5169 16.6261C73.7908 16.9001 74.0039 17.2197 74.1561 17.585C74.3083 17.9351 74.3844 18.3156 74.3844 18.7265V23.6121H63.3804V26.0321C63.3804 26.1691 63.426 26.2908 63.5173 26.3974C63.6239 26.4887 63.7456 26.5344 63.8826 26.5344H74.3844V29H63.8826C63.4717 29 63.0836 28.9239 62.7183 28.7717C62.3682 28.6195 62.0562 28.4064 61.7823 28.1325C61.5083 27.8585 61.2952 27.5465 61.143 27.1964C60.9908 26.8311 60.9147 26.443 60.9147 26.0321V18.7265C60.9147 18.3156 60.9908 17.9351 61.143 17.585C61.2952 17.2197 61.5083 16.9001 61.7823 16.6261C62.0562 16.3522 62.3682 16.1391 62.7183 15.9869C63.0836 15.8347 63.4717 15.7586 63.8826 15.7586H71.4165ZM71.9188 21.1465V18.7265C71.9188 18.5895 71.8655 18.4754 71.759 18.384C71.6676 18.2775 71.5535 18.2242 71.4165 18.2242H63.8826C63.7456 18.2242 63.6239 18.2775 63.5173 18.384C63.426 18.4754 63.3804 18.5895 63.3804 18.7265V21.1465H71.9188ZM89.9686 26.5344V29H79.4668C79.0558 29 78.6677 28.9239 78.3024 28.7717C77.9524 28.6195 77.6404 28.4064 77.3664 28.1325C77.0925 27.8585 76.8794 27.5465 76.7272 27.1964C76.575 26.8311 76.4989 26.443 76.4989 26.0321V18.7265C76.4989 18.3156 76.575 17.9351 76.7272 17.585C76.8794 17.2197 77.0925 16.9001 77.3664 16.6261C77.6404 16.3522 77.9524 16.1391 78.3024 15.9869C78.6677 15.8347 79.0558 15.7586 79.4668 15.7586H89.9229V18.2242H79.4668C79.3298 18.2242 79.208 18.2775 79.1015 18.384C79.0102 18.4754 78.9645 18.5895 78.9645 18.7265V26.0321C78.9645 26.1691 79.0102 26.2908 79.1015 26.3974C79.208 26.4887 79.3298 26.5344 79.4668 26.5344H89.9686ZM94.4383 18.2242V26.0321C94.4383 26.1691 94.4839 26.2908 94.5752 26.3974C94.6818 26.4887 94.8035 26.5344 94.9405 26.5344H99.8718V29H94.9405C94.5296 29 94.1415 28.9239 93.7762 28.7717C93.4261 28.6195 93.1141 28.4064 92.8402 28.1325C92.5662 27.8585 92.3531 27.5465 92.2009 27.1964C92.0487 26.8311 91.9726 26.443 91.9726 26.0321V18.7265V11.4209H94.4383V15.7586H99.8718V18.2242H94.4383Z" fill="#0074FF"/>
<path d="M127.914 12.5624H130.38V29H127.914V12.5624ZM146.88 12.5624H149.345V29H146.423L135.373 15.8499V29H132.908V12.5624H135.83L146.88 25.7125V12.5624ZM168.226 16.4892H165.761V15.5303C165.761 15.3933 165.708 15.2792 165.601 15.1878C165.51 15.0813 165.396 15.028 165.259 15.028H154.757C154.62 15.028 154.498 15.0813 154.391 15.1878C154.3 15.2792 154.254 15.3933 154.254 15.5303V19.0461C154.254 19.1831 154.3 19.3049 154.391 19.4114C154.498 19.5027 154.62 19.5484 154.757 19.5484H165.259C165.669 19.5484 166.05 19.6245 166.4 19.7767C166.765 19.9289 167.085 20.142 167.359 20.4159C167.633 20.6899 167.846 21.0095 167.998 21.3748C168.15 21.7248 168.226 22.1053 168.226 22.5163V26.0321C168.226 26.443 168.15 26.8311 167.998 27.1964C167.846 27.5465 167.633 27.8585 167.359 28.1325C167.085 28.4064 166.765 28.6195 166.4 28.7717C166.05 28.9239 165.669 29 165.259 29H154.757C154.346 29 153.958 28.9239 153.592 28.7717C153.242 28.6195 152.93 28.4064 152.656 28.1325C152.382 27.8585 152.169 27.5465 152.017 27.1964C151.865 26.8311 151.789 26.443 151.789 26.0321V25.0732H154.254V26.0321C154.254 26.1691 154.3 26.2908 154.391 26.3974C154.498 26.4887 154.62 26.5344 154.757 26.5344H165.259C165.396 26.5344 165.51 26.4887 165.601 26.3974C165.708 26.2908 165.761 26.1691 165.761 26.0321V22.5163C165.761 22.3793 165.708 22.2651 165.601 22.1738C165.51 22.0673 165.396 22.014 165.259 22.014H154.757C154.346 22.014 153.958 21.9379 153.592 21.7857C153.242 21.6335 152.93 21.4204 152.656 21.1465C152.382 20.8725 152.169 20.5605 152.017 20.2104C151.865 19.8452 151.789 19.4571 151.789 19.0461V15.5303C151.789 15.1194 151.865 14.7389 152.017 14.3888C152.169 14.0235 152.382 13.7039 152.656 13.4299C152.93 13.156 153.242 12.9429 153.592 12.7907C153.958 12.6385 154.346 12.5624 154.757 12.5624H165.259C165.669 12.5624 166.05 12.6385 166.4 12.7907C166.765 12.9429 167.085 13.156 167.359 13.4299C167.633 13.7039 167.846 14.0235 167.998 14.3888C168.15 14.7389 168.226 15.1194 168.226 15.5303V16.4892ZM170.698 12.5624H173.164V29H170.698V12.5624ZM192.129 16.512H189.664V15.5303C189.664 15.3933 189.61 15.2792 189.504 15.1878C189.412 15.0813 189.298 15.028 189.161 15.028H178.66C178.523 15.028 178.401 15.0813 178.294 15.1878C178.203 15.2792 178.157 15.3933 178.157 15.5303V26.0321C178.157 26.1691 178.203 26.2908 178.294 26.3974C178.401 26.4887 178.523 26.5344 178.66 26.5344H189.161C189.298 26.5344 189.412 26.4887 189.504 26.3974C189.61 26.2908 189.664 26.1691 189.664 26.0321V22.4706H185.783V20.005H192.129V26.0321C192.129 26.443 192.053 26.8311 191.901 27.1964C191.749 27.5465 191.536 27.8585 191.262 28.1325C190.988 28.4064 190.668 28.6195 190.303 28.7717C189.953 28.9239 189.572 29 189.161 29H178.66C178.249 29 177.861 28.9239 177.495 28.7717C177.145 28.6195 176.833 28.4064 176.559 28.1325C176.285 27.8585 176.072 27.5465 175.92 27.1964C175.768 26.8311 175.692 26.443 175.692 26.0321V15.5303C175.692 15.1194 175.768 14.7389 175.92 14.3888C176.072 14.0235 176.285 13.7039 176.559 13.4299C176.833 13.156 177.145 12.9429 177.495 12.7907C177.861 12.6385 178.249 12.5624 178.66 12.5624H189.161C189.572 12.5624 189.953 12.6385 190.303 12.7907C190.668 12.9429 190.988 13.156 191.262 13.4299C191.536 13.7039 191.749 14.0235 191.901 14.3888C192.053 14.7389 192.129 15.1194 192.129 15.5303V16.512ZM211.491 12.5624V29H209.025V22.014H197.131V29H194.665V12.5624H197.131V19.5484H209.025V12.5624H211.491ZM229.677 12.5624V15.028H222.691V29H220.225V15.028H213.239V12.5624H229.677Z" fill="#FF0000"/>
</svg>
