<svg width="271" height="45" viewBox="0 0 271 45" fill="none" xmlns="http://www.w3.org/2000/svg">
<path d="M136.657 14.9955V11.8478C136.657 11.4327 136.803 11.0791 137.095 10.787C137.387 10.4949 137.741 10.3489 138.156 10.3489H143.287C143.456 10.3489 143.568 10.322 143.621 10.2682C143.683 10.2067 143.714 10.0914 143.714 9.92228V8.36573C143.714 8.19663 143.683 8.08517 143.621 8.03136C143.568 7.96987 143.456 7.93912 143.287 7.93912H138.329C138.16 7.93912 138.045 7.96987 137.983 8.03136C137.929 8.08517 137.902 8.19663 137.902 8.36573V8.67704H136.657V8.19278C136.657 7.7777 136.803 7.42412 137.095 7.13202C137.387 6.83224 137.741 6.68235 138.156 6.68235H143.46C143.867 6.68235 144.217 6.83224 144.509 7.13202C144.809 7.42412 144.959 7.7777 144.959 8.19278V10.0952C144.959 10.5103 144.809 10.8639 144.509 11.156C144.217 11.4481 143.867 11.5941 143.46 11.5941H138.329C138.16 11.5941 138.045 11.6249 137.983 11.6864C137.929 11.7402 137.902 11.8516 137.902 12.0207V13.3236C137.902 13.4927 137.929 13.608 137.983 13.6695C138.045 13.7233 138.16 13.7502 138.329 13.7502H144.959V14.9955H136.657Z" fill="#242424"/>
<path d="M149.729 9H149.06V3.8405H147.238V3.24623H151.551V3.8405H149.729V9ZM154.967 9L153.015 3.89953H152.984C153.021 4.30358 153.039 4.78372 153.039 5.33994V9H152.421V3.24623H153.429L155.251 7.9925H155.282L157.12 3.24623H158.12V9H157.451V5.29271C157.451 4.86768 157.469 4.4059 157.506 3.9074H157.474L155.507 9H154.967Z" fill="#242424"/>
<path d="M34.2951 27V10.5624H36.7608V27H34.2951ZM39.3794 27V13.7586H49.8812C50.7031 13.7586 51.4032 14.0478 51.9816 14.6261C52.56 15.2045 52.8491 15.9046 52.8491 16.7265V27H50.3835V17.0689C50.3835 16.7341 50.3226 16.5134 50.2009 16.4069C50.0943 16.2851 49.8736 16.2242 49.5388 16.2242H42.6898C42.3549 16.2242 42.1266 16.2851 42.0049 16.4069C41.8983 16.5134 41.8451 16.7341 41.8451 17.0689V27H39.3794ZM58.2208 27C57.3989 27 56.6988 26.7108 56.1204 26.1325C55.5421 25.5541 55.2529 24.854 55.2529 24.0321V9.58071H57.7185V13.7586H63.1521V16.2242H57.7185V23.6896C57.7185 24.0245 57.7718 24.2528 57.8783 24.3745C58.0001 24.4811 58.2284 24.5344 58.5632 24.5344H63.1521V27H58.2208ZM67.8734 27C67.0515 27 66.3514 26.7108 65.7731 26.1325C65.1947 25.5541 64.9055 24.854 64.9055 24.0321V16.7265C64.9055 15.9046 65.1947 15.2045 65.7731 14.6261C66.3514 14.0478 67.0515 13.7586 67.8734 13.7586H75.4073C76.2292 13.7586 76.9293 14.0478 77.5077 14.6261C78.086 15.2045 78.3752 15.9046 78.3752 16.7265V21.6121H67.3712V23.6896C67.3712 24.0245 67.4244 24.2528 67.531 24.3745C67.6527 24.4811 67.881 24.5344 68.2159 24.5344H78.3752V27H67.8734ZM67.3712 19.3063H75.8867V17.0689C75.8867 16.7341 75.8335 16.5134 75.7269 16.4069C75.6204 16.2851 75.3997 16.2242 75.0649 16.2242H68.2159C67.881 16.2242 67.6527 16.2851 67.531 16.4069C67.4244 16.5134 67.3712 16.7341 67.3712 17.0689V19.3063ZM83.1906 27C82.3687 27 81.6686 26.7108 81.0902 26.1325C80.5118 25.5541 80.2227 24.854 80.2227 24.0321V9.4209H82.6883V23.6896C82.6883 24.0245 82.7416 24.2528 82.8481 24.3745C82.9699 24.4811 83.1982 24.5344 83.533 24.5344H85.6562V27H83.1906ZM90.481 27C89.6591 27 88.959 26.7108 88.3806 26.1325C87.8023 25.5541 87.5131 24.854 87.5131 24.0321V9.4209H89.9787V23.6896C89.9787 24.0245 90.032 24.2528 90.1385 24.3745C90.2603 24.4811 90.4886 24.5344 90.8234 24.5344H92.9466V27H90.481ZM97.5257 27C96.7038 27 96.0037 26.7108 95.4253 26.1325C94.8469 25.5541 94.5578 24.854 94.5578 24.0321V16.7265C94.5578 15.9046 94.8469 15.2045 95.4253 14.6261C96.0037 14.0478 96.7038 13.7586 97.5257 13.7586H105.06C105.881 13.7586 106.582 14.0478 107.16 14.6261C107.738 15.2045 108.027 15.9046 108.027 16.7265V21.6121H97.0234V23.6896C97.0234 24.0245 97.0767 24.2528 97.1832 24.3745C97.305 24.4811 97.5333 24.5344 97.8681 24.5344H108.027V27H97.5257ZM97.0234 19.3063H105.539V17.0689C105.539 16.7341 105.486 16.5134 105.379 16.4069C105.273 16.2851 105.052 16.2242 104.717 16.2242H97.8681C97.5333 16.2242 97.305 16.2851 97.1832 16.4069C97.0767 16.5134 97.0234 16.7341 97.0234 17.0689V19.3063ZM112.82 27C111.998 27 111.298 26.7108 110.72 26.1325C110.141 25.5541 109.852 24.854 109.852 24.0321V16.7265C109.852 15.9046 110.141 15.2045 110.72 14.6261C111.298 14.0478 111.998 13.7586 112.82 13.7586H123.276V16.2242H113.162C112.828 16.2242 112.599 16.2851 112.478 16.4069C112.371 16.5134 112.318 16.7341 112.318 17.0689V23.6896C112.318 24.0245 112.371 24.2528 112.478 24.3745C112.599 24.4811 112.828 24.5344 113.162 24.5344H123.322V27H112.82ZM128.138 27C127.316 27 126.616 26.7108 126.037 26.1325C125.459 25.5541 125.17 24.854 125.17 24.0321V9.58071H127.635V13.7586H133.069V16.2242H127.635V23.6896C127.635 24.0245 127.689 24.2528 127.795 24.3745C127.917 24.4811 128.145 24.5344 128.48 24.5344H133.069V27H128.138Z" fill="#0074FF"/>
<path d="M161.332 27V10.5624H163.797V27H161.332ZM166.305 27V10.5624H169.251L180.255 23.6668V10.5624H182.743V27H179.798L168.771 13.8727V27H166.305ZM188.177 27C187.355 27 186.655 26.7108 186.077 26.1325C185.499 25.5541 185.209 24.854 185.209 24.0321V23.0732H187.675V23.6896C187.675 24.0245 187.728 24.2528 187.835 24.3745C187.957 24.4811 188.185 24.5344 188.52 24.5344H198.337C198.672 24.5344 198.892 24.4811 198.999 24.3745C199.105 24.2528 199.159 24.0245 199.159 23.6896V20.8587C199.159 20.5087 199.105 20.2804 198.999 20.1738C198.892 20.0673 198.672 20.014 198.337 20.014H188.177C187.355 20.014 186.655 19.7248 186.077 19.1465C185.499 18.5681 185.209 17.868 185.209 17.0461V13.5303C185.209 12.7084 185.499 12.0083 186.077 11.4299C186.655 10.8516 187.355 10.5624 188.177 10.5624H198.679C199.501 10.5624 200.201 10.8516 200.779 11.4299C201.358 12.0083 201.647 12.7084 201.647 13.5303V14.4892H199.159V13.8727C199.159 13.5379 199.105 13.3172 198.999 13.2107C198.892 13.0889 198.672 13.028 198.337 13.028H188.52C188.185 13.028 187.957 13.0889 187.835 13.2107C187.728 13.3172 187.675 13.5379 187.675 13.8727V16.7037C187.675 17.0537 187.728 17.282 187.835 17.3886C187.957 17.4799 188.185 17.5255 188.52 17.5255H198.679C199.501 17.5255 200.201 17.8223 200.779 18.4159C201.358 18.9943 201.647 19.6944 201.647 20.5163V24.0321C201.647 24.854 201.358 25.5541 200.779 26.1325C200.201 26.7108 199.501 27 198.679 27H188.177ZM204.026 27V10.5624H206.492V27H204.026ZM211.968 27C211.146 27 210.446 26.7108 209.868 26.1325C209.289 25.5541 209 24.854 209 24.0321V13.5303C209 12.7084 209.289 12.0083 209.868 11.4299C210.446 10.8516 211.146 10.5624 211.968 10.5624H222.447C223.284 10.5624 223.992 10.8516 224.57 11.4299C225.149 12.0083 225.438 12.7084 225.438 13.5303V14.512H222.949V13.8727C222.949 13.5379 222.889 13.3172 222.767 13.2107C222.66 13.0889 222.44 13.028 222.105 13.028H212.311C211.976 13.028 211.747 13.0889 211.626 13.2107C211.519 13.3172 211.466 13.5379 211.466 13.8727V23.6896C211.466 24.0245 211.519 24.2528 211.626 24.3745C211.747 24.4811 211.976 24.5344 212.311 24.5344H222.105C222.44 24.5344 222.66 24.4811 222.767 24.3745C222.889 24.2528 222.949 24.0245 222.949 23.6896V20.4706H219.068V17.9821H225.438V24.0321C225.438 24.854 225.149 25.5541 224.57 26.1325C223.992 26.7108 223.284 27 222.447 27H211.968ZM227.974 27V10.5624H230.439V17.5255H242.311V10.5624H244.799V27H242.311V20.014H230.439V27H227.974ZM253.534 27V13.028H246.548V10.5624H262.986V13.028H256.022V27H253.534Z" fill="#FF0000"/>
</svg>
