<svg width="14" height="14" viewBox="0 0 14 14" fill="none" xmlns="http://www.w3.org/2000/svg">
<path d="M13.7502 7.5925C13.6322 8.86915 13.1531 10.0858 12.3689 11.1001C11.5846 12.1144 10.5278 12.8843 9.32195 13.3199C8.11611 13.7555 6.81116 13.8386 5.5598 13.5596C4.30843 13.2805 3.16242 12.6509 2.25584 11.7443C1.34926 10.8378 0.719625 9.69174 0.440601 8.44037C0.161577 7.18901 0.244707 5.88406 0.680265 4.67822C1.11582 3.47238 1.88579 2.41552 2.90008 1.63131C3.91437 0.847105 5.13102 0.367979 6.40767 0.25C5.66023 1.2612 5.30056 2.50709 5.39407 3.76106C5.48758 5.01503 6.02807 6.19379 6.91722 7.08295C7.80638 7.9721 8.98514 8.51259 10.2391 8.6061C11.4931 8.69961 12.739 8.33994 13.7502 7.5925Z" fill="#485255"/>
</svg>
