<svg width="18" height="18" viewBox="0 0 18 18" fill="none" xmlns="http://www.w3.org/2000/svg">
<path d="M9 12.75C11.0711 12.75 12.75 11.0711 12.75 9C12.75 6.92893 11.0711 5.25 9 5.25C6.92893 5.25 5.25 6.92893 5.25 9C5.25 11.0711 6.92893 12.75 9 12.75Z" stroke="#485255" stroke-width="1.5" stroke-linecap="round" stroke-linejoin="round"/>
<path d="M9 0.75V2.25" stroke="#485255" stroke-width="1.5" stroke-linecap="round" stroke-linejoin="round"/>
<path d="M9 15.75V17.25" stroke="#485255" stroke-width="1.5" stroke-linecap="round" stroke-linejoin="round"/>
<path d="M3.16504 3.16406L4.23004 4.22906" stroke="#485255" stroke-width="1.5" stroke-linecap="round" stroke-linejoin="round"/>
<path d="M13.77 13.7695L14.835 14.8345" stroke="#485255" stroke-width="1.5" stroke-linecap="round" stroke-linejoin="round"/>
<path d="M0.75 9H2.25" stroke="#485255" stroke-width="1.5" stroke-linecap="round" stroke-linejoin="round"/>
<path d="M15.75 9H17.25" stroke="#485255" stroke-width="1.5" stroke-linecap="round" stroke-linejoin="round"/>
<path d="M3.16504 14.8345L4.23004 13.7695" stroke="#485255" stroke-width="1.5" stroke-linecap="round" stroke-linejoin="round"/>
<path d="M13.77 4.22906L14.835 3.16406" stroke="#485255" stroke-width="1.5" stroke-linecap="round" stroke-linejoin="round"/>
<path d="M8 13V5.05649C11.2708 5.05649 10.8035 4.26214 12.6726 8.63107C14.1678 12.1262 10.1805 13 8 13Z" fill="#485255"/>
</svg>
