<svg width="18" height="18" viewBox="0 0 18 18" fill="none" xmlns="http://www.w3.org/2000/svg">
<path d="M15.7502 9.5925C15.6322 10.8692 15.1531 12.0858 14.3689 13.1001C13.5846 14.1144 12.5278 14.8843 11.3219 15.3199C10.1161 15.7555 8.81116 15.8386 7.5598 15.5596C6.30843 15.2805 5.16242 14.6509 4.25584 13.7443C3.34926 12.8378 2.71962 11.6917 2.4406 10.4404C2.16158 9.18901 2.24471 7.88406 2.68027 6.67822C3.11582 5.47238 3.88579 4.41552 4.90008 3.63131C5.91437 2.8471 7.13102 2.36798 8.40767 2.25C7.66023 3.2612 7.30056 4.50709 7.39407 5.76106C7.48758 7.01503 8.02807 8.19379 8.91722 9.08295C9.80638 9.9721 10.9851 10.5126 12.2391 10.6061C13.4931 10.6996 14.739 10.3399 15.7502 9.5925Z" stroke="#485255" stroke-width="1.5" stroke-linecap="round" stroke-linejoin="round"/>
</svg>
