<svg width="15" height="15" viewBox="0 0 15 15" fill="none" xmlns="http://www.w3.org/2000/svg">
<path d="M8.3125 14H2.08333C1.48503 14 1 13.515 1 12.9167V2.08333C1 1.48502 1.48502 1 2.08333 1H12.9167C13.515 1 14 1.48502 14 2.08333V8.3125" stroke="#D4D4D4" stroke-width="1.5" stroke-linecap="round"/>
<path d="M10.0001 11.707L11.9346 13.6416L13.8691 11.707" stroke="#D4D4D4" stroke-width="1.3" stroke-linecap="round" stroke-linejoin="round"/>
<path d="M11.9346 13.6429L11.9346 9" stroke="#D4D4D4" stroke-width="1.3" stroke-linecap="round" stroke-linejoin="round"/>
<path d="M4.52072 5.2553C5.09766 5.2553 5.56536 4.7876 5.56536 4.21066C5.56536 3.63372 5.09766 3.16602 4.52072 3.16602C3.94378 3.16602 3.47607 3.63372 3.47607 4.21066C3.47607 4.7876 3.94378 5.2553 4.52072 5.2553Z" stroke="#D4D4D4" stroke-linecap="round" stroke-linejoin="round"/>
<path d="M14.0002 8.58333L9.74421 4.25L2.0835 12.9167" stroke="#D4D4D4" stroke-width="1.5" stroke-linecap="round" stroke-linejoin="round"/>
</svg>
