<svg width="27" height="27" viewBox="0 0 27 27" fill="none" xmlns="http://www.w3.org/2000/svg">
<path d="M7.47958 11.7445H9.64125V19.3103H7.47958V11.7445ZM16.1262 14.987H18.2879V19.3103H16.1262V14.987ZM11.8029 8.50198H13.9646V19.3103H11.8029V8.50198ZM22.6112 8.51279V5.27029H20.4496V8.51279H17.2071V10.6745H20.4496V13.917H22.6112V10.6745H25.8537V8.51279H22.6112ZM20.4496 21.4828H5.31792V6.35112H18.2879V4.18945H5.31792C4.129 4.18945 3.15625 5.1622 3.15625 6.35112V21.4828C3.15625 22.6717 4.129 23.6445 5.31792 23.6445H20.4496C21.6385 23.6445 22.6112 22.6717 22.6112 21.4828V16.0786H20.4496V21.4828Z" fill="black"/>
</svg>
