<svg width="89" height="24" viewBox="0 0 89 24" fill="none" xmlns="http://www.w3.org/2000/svg">
<path d="M0 12C0 5.37258 5.37258 0 12 0H77C83.6274 0 89 5.37258 89 12C89 18.6274 83.6274 24 77 24H12C5.37259 24 0 18.6274 0 12Z" fill="#0076FF" fill-opacity="0.15"/>
<rect x="8" y="4.5" width="15" height="15" rx="7.5" fill="#0076FF" fill-opacity="0.15"/>
<g filter="url(#filter0_d_9033_103787)">
<path d="M15.092 14.752V12.412H12.908V11.668H15.092V9.328H15.872V11.668H18.056V12.412H15.872V14.752H15.092Z" fill="#0076FF"/>
</g>
<path d="M27.387 12.172L27.134 13.052H28.971L28.718 12.172C28.6007 11.7907 28.487 11.3983 28.377 10.995C28.2743 10.5917 28.1717 10.192 28.069 9.796H28.025C27.9297 10.1993 27.827 10.6027 27.717 11.006C27.6143 11.402 27.5043 11.7907 27.387 12.172ZM24.978 16L27.321 8.806H28.817L31.16 16H29.818L29.257 14.053H26.837L26.276 16H24.978ZM33.9264 16.132C33.2518 16.132 32.7128 15.8827 32.3094 15.384C31.9061 14.8853 31.7044 14.1923 31.7044 13.305C31.7044 12.7183 31.8108 12.2123 32.0234 11.787C32.2434 11.3617 32.5294 11.0353 32.8814 10.808C33.2334 10.5807 33.6038 10.467 33.9924 10.467C34.3004 10.467 34.5608 10.522 34.7734 10.632C34.9934 10.7347 35.2061 10.8777 35.4114 11.061L35.3674 10.192V8.234H36.6324V16H35.5874L35.4994 15.417H35.4554C35.2574 15.615 35.0264 15.7837 34.7624 15.923C34.4984 16.0623 34.2198 16.132 33.9264 16.132ZM34.2344 15.087C34.6378 15.087 35.0154 14.8853 35.3674 14.482V11.963C35.1841 11.7943 35.0008 11.677 34.8174 11.611C34.6341 11.545 34.4508 11.512 34.2674 11.512C33.9228 11.512 33.6258 11.6697 33.3764 11.985C33.1344 12.293 33.0134 12.7293 33.0134 13.294C33.0134 13.8733 33.1198 14.317 33.3324 14.625C33.5451 14.933 33.8458 15.087 34.2344 15.087ZM40.2331 16.132C39.5584 16.132 39.0194 15.8827 38.6161 15.384C38.2128 14.8853 38.0111 14.1923 38.0111 13.305C38.0111 12.7183 38.1174 12.2123 38.3301 11.787C38.5501 11.3617 38.8361 11.0353 39.1881 10.808C39.5401 10.5807 39.9104 10.467 40.2991 10.467C40.6071 10.467 40.8674 10.522 41.0801 10.632C41.3001 10.7347 41.5128 10.8777 41.7181 11.061L41.6741 10.192V8.234H42.9391V16H41.8941L41.8061 15.417H41.7621C41.5641 15.615 41.3331 15.7837 41.0691 15.923C40.8051 16.0623 40.5264 16.132 40.2331 16.132ZM40.5411 15.087C40.9444 15.087 41.3221 14.8853 41.6741 14.482V11.963C41.4908 11.7943 41.3074 11.677 41.1241 11.611C40.9408 11.545 40.7574 11.512 40.5741 11.512C40.2294 11.512 39.9324 11.6697 39.6831 11.985C39.4411 12.293 39.3201 12.7293 39.3201 13.294C39.3201 13.8733 39.4264 14.317 39.6391 14.625C39.8518 14.933 40.1524 15.087 40.5411 15.087ZM47.0575 16V8.806H48.3665L50.6105 12.854L51.3475 14.383H51.3915C51.3622 14.0163 51.3255 13.6167 51.2815 13.184C51.2449 12.7513 51.2265 12.3333 51.2265 11.93V8.806H52.4475V16H51.1385L48.8945 11.952L48.1575 10.423H48.1135C48.1429 10.8043 48.1759 11.204 48.2125 11.622C48.2565 12.04 48.2785 12.4507 48.2785 12.854V16H47.0575ZM56.5739 16.132C56.0753 16.132 55.6243 16.022 55.2209 15.802C54.8176 15.5747 54.4986 15.252 54.2639 14.834C54.0293 14.4087 53.9119 13.899 53.9119 13.305C53.9119 12.7183 54.0293 12.2123 54.2639 11.787C54.5059 11.3617 54.8176 11.0353 55.1989 10.808C55.5803 10.5807 55.9799 10.467 56.3979 10.467C56.8893 10.467 57.2999 10.577 57.6299 10.797C57.9599 11.0097 58.2093 11.3103 58.3779 11.699C58.5466 12.0803 58.6309 12.524 58.6309 13.03C58.6309 13.294 58.6126 13.4993 58.5759 13.646H55.1439C55.2026 14.1227 55.3749 14.493 55.6609 14.757C55.9469 15.021 56.3063 15.153 56.7389 15.153C56.9736 15.153 57.1899 15.12 57.3879 15.054C57.5933 14.9807 57.7949 14.8817 57.9929 14.757L58.4219 15.549C58.1653 15.7177 57.8793 15.857 57.5639 15.967C57.2486 16.077 56.9186 16.132 56.5739 16.132ZM55.1329 12.788H57.5309C57.5309 12.37 57.4393 12.0437 57.2559 11.809C57.0726 11.567 56.7976 11.446 56.4309 11.446C56.1156 11.446 55.8333 11.5633 55.5839 11.798C55.3419 12.0253 55.1916 12.3553 55.1329 12.788ZM60.8278 16L59.3978 10.599H60.6738L61.3228 13.404C61.3815 13.6607 61.4291 13.9173 61.4658 14.174C61.5098 14.4307 61.5575 14.691 61.6088 14.955H61.6528C61.7041 14.691 61.7555 14.4307 61.8068 14.174C61.8655 13.91 61.9278 13.6533 61.9938 13.404L62.6978 10.599H63.8528L64.5678 13.404C64.6338 13.6607 64.6961 13.9173 64.7548 14.174C64.8135 14.4307 64.8721 14.691 64.9308 14.955H64.9748C65.0261 14.691 65.0738 14.4307 65.1178 14.174C65.1618 13.9173 65.2095 13.6607 65.2608 13.404L65.9098 10.599H67.0978L65.7228 16H64.2158L63.5888 13.481C63.5301 13.2243 63.4751 12.9713 63.4238 12.722C63.3725 12.4653 63.3175 12.194 63.2588 11.908H63.2148C63.1635 12.194 63.1121 12.4653 63.0608 12.722C63.0095 12.9787 62.9545 13.2353 62.8958 13.492L62.2798 16H60.8278Z" fill="#0076FF"/>
<path d="M78.9375 10.625L75.5 14.0625L72.0625 10.625" stroke="#0076FF" stroke-width="1.25" stroke-linecap="round" stroke-linejoin="round"/>
<defs>
<filter id="filter0_d_9033_103787" x="8.90802" y="9.32812" width="13.148" height="13.4238" filterUnits="userSpaceOnUse" color-interpolation-filters="sRGB">
<feFlood flood-opacity="0" result="BackgroundImageFix"/>
<feColorMatrix in="SourceAlpha" type="matrix" values="0 0 0 0 0 0 0 0 0 0 0 0 0 0 0 0 0 0 127 0" result="hardAlpha"/>
<feOffset dy="4"/>
<feGaussianBlur stdDeviation="2"/>
<feComposite in2="hardAlpha" operator="out"/>
<feColorMatrix type="matrix" values="0 0 0 0 0 0 0 0 0 0 0 0 0 0 0 0 0 0 0.25 0"/>
<feBlend mode="normal" in2="BackgroundImageFix" result="effect1_dropShadow_9033_103787"/>
<feBlend mode="normal" in="SourceGraphic" in2="effect1_dropShadow_9033_103787" result="shape"/>
</filter>
</defs>
</svg>
