<svg width="22" height="11" viewBox="0 0 22 11" fill="none" xmlns="http://www.w3.org/2000/svg">
<path d="M17 9.5H5.5C3.29 9.5 1.5 7.71 1.5 5.5C1.5 3.29 3.29 1.5 5.5 1.5H18C18.663 1.5 19.2989 1.76339 19.7678 2.23223C20.2366 2.70107 20.5 3.33696 20.5 4C20.5 4.66304 20.2366 5.29893 19.7678 5.76777C19.2989 6.23661 18.663 6.5 18 6.5H7.5C6.95 6.5 6.5 6.05 6.5 5.5C6.5 4.95 6.95 4.5 7.5 4.5H17V3H7.5C6.83696 3 6.20107 3.26339 5.73223 3.73223C5.26339 4.20107 5 4.83696 5 5.5C5 6.16304 5.26339 6.79893 5.73223 7.26777C6.20107 7.73661 6.83696 8 7.5 8H18C20.21 8 22 6.21 22 4C22 1.79 20.21 0 18 0H5.5C2.46 0 0 2.46 0 5.5C0 8.54 2.46 11 5.5 11H17V9.5Z" fill="#313A4F"/>
</svg>
