<svg width="14" height="14" viewBox="0 0 14 14" fill="none" xmlns="http://www.w3.org/2000/svg">
<path d="M12.1406 10.9741H2.73438V2.44287C2.73438 2.38271 2.68516 2.3335 2.625 2.3335H1.85938C1.79922 2.3335 1.75 2.38271 1.75 2.44287V11.8491C1.75 11.9093 1.79922 11.9585 1.85938 11.9585H12.1406C12.2008 11.9585 12.25 11.9093 12.25 11.8491V11.0835C12.25 11.0233 12.2008 10.9741 12.1406 10.9741ZM3.9375 9.88037H4.70312C4.76328 9.88037 4.8125 9.83115 4.8125 9.771V7.80225C4.8125 7.74209 4.76328 7.69287 4.70312 7.69287H3.9375C3.87734 7.69287 3.82812 7.74209 3.82812 7.80225V9.771C3.82812 9.83115 3.87734 9.88037 3.9375 9.88037ZM6.01562 9.88037H6.78125C6.84141 9.88037 6.89062 9.83115 6.89062 9.771V5.396C6.89062 5.33584 6.84141 5.28662 6.78125 5.28662H6.01562C5.95547 5.28662 5.90625 5.33584 5.90625 5.396V9.771C5.90625 9.83115 5.95547 9.88037 6.01562 9.88037ZM8.09375 9.88037H8.85938C8.91953 9.88037 8.96875 9.83115 8.96875 9.771V6.4624C8.96875 6.40225 8.91953 6.35303 8.85938 6.35303H8.09375C8.03359 6.35303 7.98438 6.40225 7.98438 6.4624V9.771C7.98438 9.83115 8.03359 9.88037 8.09375 9.88037ZM10.1719 9.88037H10.9375C10.9977 9.88037 11.0469 9.83115 11.0469 9.771V4.30225C11.0469 4.24209 10.9977 4.19287 10.9375 4.19287H10.1719C10.1117 4.19287 10.0625 4.24209 10.0625 4.30225V9.771C10.0625 9.83115 10.1117 9.88037 10.1719 9.88037Z" fill="white"/>
</svg>
