<svg width="64" height="64" viewBox="0 0 64 64" fill="none" xmlns="http://www.w3.org/2000/svg">
<path d="M60 56.75H4C3.724 56.75 3.5 56.526 3.5 56.25V5.25C3.5 4.974 3.724 4.75 4 4.75C4.276 4.75 4.5 4.974 4.5 5.25V55.75H60C60.276 55.75 60.5 55.974 60.5 56.25C60.5 56.526 60.276 56.75 60 56.75Z" fill="#263238"/>
<path d="M12 59.25C11.724 59.25 11.5 59.026 11.5 58.75V56.25C11.5 55.974 11.724 55.75 12 55.75C12.276 55.75 12.5 55.974 12.5 56.25V58.75C12.5 59.026 12.276 59.25 12 59.25Z" fill="#263238"/>
<path d="M22 59.25C21.724 59.25 21.5 59.026 21.5 58.75V56.25C21.5 55.974 21.724 55.75 22 55.75C22.276 55.75 22.5 55.974 22.5 56.25V58.75C22.5 59.026 22.276 59.25 22 59.25Z" fill="#263238"/>
<path d="M32 59.25C31.724 59.25 31.5 59.026 31.5 58.75V56.25C31.5 55.974 31.724 55.75 32 55.75C32.276 55.75 32.5 55.974 32.5 56.25V58.75C32.5 59.026 32.276 59.25 32 59.25Z" fill="#263238"/>
<path d="M42 59.25C41.724 59.25 41.5 59.026 41.5 58.75V56.25C41.5 55.974 41.724 55.75 42 55.75C42.276 55.75 42.5 55.974 42.5 56.25V58.75C42.5 59.026 42.276 59.25 42 59.25Z" fill="#263238"/>
<path d="M52 59.25C51.724 59.25 51.5 59.026 51.5 58.75V56.25C51.5 55.974 51.724 55.75 52 55.75C52.276 55.75 52.5 55.974 52.5 56.25V58.75C52.5 59.026 52.276 59.25 52 59.25Z" fill="#263238"/>
<path d="M23.5 34.2012C23.5 32.8205 22.3807 31.7012 21 31.7012C19.6193 31.7012 18.5 32.8205 18.5 34.2012C18.5 35.5819 19.6193 36.7012 21 36.7012C22.3807 36.7012 23.5 35.5819 23.5 34.2012Z" fill="#40C4FF"/>
<path d="M24 34.2012C24 35.8552 22.654 37.2012 21 37.2012C19.346 37.2012 18 35.8552 18 34.2012C18 32.5472 19.346 31.2012 21 31.2012C22.654 31.2012 24 32.5472 24 34.2012ZM19 34.2012C19 35.3042 19.897 36.2012 21 36.2012C22.103 36.2012 23 35.3042 23 34.2012C23 33.0982 22.103 32.2012 21 32.2012C19.897 32.2012 19 33.0982 19 34.2012Z" fill="#263238"/>
<path d="M38.8027 17C38.8027 15.6193 37.6834 14.5 36.3027 14.5C34.922 14.5 33.8027 15.6193 33.8027 17C33.8027 18.3807 34.922 19.5 36.3027 19.5C37.6834 19.5 38.8027 18.3807 38.8027 17Z" fill="#40C4FF"/>
<path d="M39.3027 17C39.3027 18.654 37.9567 20 36.3027 20C34.6487 20 33.3027 18.654 33.3027 17C33.3027 15.346 34.6487 14 36.3027 14C37.9567 14 39.3027 15.346 39.3027 17ZM34.3027 17C34.3027 18.103 35.1997 19 36.3027 19C37.4057 19 38.3027 18.103 38.3027 17C38.3027 15.897 37.4057 15 36.3027 15C35.1997 15 34.3027 15.897 34.3027 17Z" fill="#263238"/>
<path d="M24.5 26C24.5 24.6193 23.3807 23.5 22 23.5C20.6193 23.5 19.5 24.6193 19.5 26C19.5 27.3807 20.6193 28.5 22 28.5C23.3807 28.5 24.5 27.3807 24.5 26Z" fill="#40C4FF"/>
<path d="M25 26C25 27.654 23.654 29 22 29C20.346 29 19 27.654 19 26C19 24.346 20.346 23 22 23C23.654 23 25 24.346 25 26ZM20 26C20 27.103 20.897 28 22 28C23.103 28 24 27.103 24 26C24 24.897 23.103 24 22 24C20.897 24 20 24.897 20 26Z" fill="#263238"/>
<path d="M13.5 31C13.5 29.6193 12.3807 28.5 11 28.5C9.61929 28.5 8.5 29.6193 8.5 31C8.5 32.3807 9.61929 33.5 11 33.5C12.3807 33.5 13.5 32.3807 13.5 31Z" fill="#40C4FF"/>
<path d="M14 31C14 32.654 12.654 34 11 34C9.346 34 8 32.654 8 31C8 29.346 9.346 28 11 28C12.654 28 14 29.346 14 31ZM9 31C9 32.103 9.897 33 11 33C12.103 33 13 32.103 13 31C13 29.897 12.103 29 11 29C9.897 29 9 29.897 9 31Z" fill="#263238"/>
<path d="M32.5 7C32.5 5.61929 31.3807 4.5 30 4.5C28.6193 4.5 27.5 5.61929 27.5 7C27.5 8.38071 28.6193 9.5 30 9.5C31.3807 9.5 32.5 8.38071 32.5 7Z" fill="#FFD740"/>
<path d="M33 7C33 8.654 31.654 10 30 10C28.346 10 27 8.654 27 7C27 5.346 28.346 4 30 4C31.654 4 33 5.346 33 7ZM28 7C28 8.103 28.897 9 30 9C31.103 9 32 8.103 32 7C32 5.897 31.103 5 30 5C28.897 5 28 5.897 28 7Z" fill="#263238"/>
<path d="M19.5 13C19.5 11.6193 18.3807 10.5 17 10.5C15.6193 10.5 14.5 11.6193 14.5 13C14.5 14.3807 15.6193 15.5 17 15.5C18.3807 15.5 19.5 14.3807 19.5 13Z" fill="#40C4FF"/>
<path d="M20 13C20 14.654 18.654 16 17 16C15.346 16 14 14.654 14 13C14 11.346 15.346 10 17 10C18.654 10 20 11.346 20 13ZM15 13C15 14.103 15.897 15 17 15C18.103 15 19 14.103 19 13C19 11.897 18.103 11 17 11C15.897 11 15 11.897 15 13Z" fill="#263238"/>
<path d="M32.5 25C32.5 23.6193 31.3807 22.5 30 22.5C28.6193 22.5 27.5 23.6193 27.5 25C27.5 26.3807 28.6193 27.5 30 27.5C31.3807 27.5 32.5 26.3807 32.5 25Z" fill="#FFD740"/>
<path d="M33 25C33 26.654 31.654 28 30 28C28.346 28 27 26.654 27 25C27 23.346 28.346 22 30 22C31.654 22 33 23.346 33 25ZM28 25C28 26.103 28.897 27 30 27C31.103 27 32 26.103 32 25C32 23.897 31.103 23 30 23C28.897 23 28 23.897 28 25Z" fill="#263238"/>
<path d="M31.5 16C31.5 14.6193 30.3807 13.5 29 13.5C27.6193 13.5 26.5 14.6193 26.5 16C26.5 17.3807 27.6193 18.5 29 18.5C30.3807 18.5 31.5 17.3807 31.5 16Z" fill="#40C4FF"/>
<path d="M32 16C32 17.654 30.654 19 29 19C27.346 19 26 17.654 26 16C26 14.346 27.346 13 29 13C30.654 13 32 14.346 32 16ZM27 16C27 17.103 27.897 18 29 18C30.103 18 31 17.103 31 16C31 14.897 30.103 14 29 14C27.897 14 27 14.897 27 16Z" fill="#263238"/>
<path d="M18.5 22C18.5 20.6193 17.3807 19.5 16 19.5C14.6193 19.5 13.5 20.6193 13.5 22C13.5 23.3807 14.6193 24.5 16 24.5C17.3807 24.5 18.5 23.3807 18.5 22Z" fill="#FFD740"/>
<path d="M19 22C19 23.654 17.654 25 16 25C14.346 25 13 23.654 13 22C13 20.346 14.346 19 16 19C17.654 19 19 20.346 19 22ZM14 22C14 23.103 14.897 24 16 24C17.103 24 18 23.103 18 22C18 20.897 17.103 20 16 20C14.897 20 14 20.897 14 22Z" fill="#263238"/>
<path d="M13.5 43C13.5 41.6193 12.3807 40.5 11 40.5C9.61929 40.5 8.5 41.6193 8.5 43C8.5 44.3807 9.61929 45.5 11 45.5C12.3807 45.5 13.5 44.3807 13.5 43Z" fill="#FFD740"/>
<path d="M14 43C14 44.654 12.654 46 11 46C9.346 46 8 44.654 8 43C8 41.346 9.346 40 11 40C12.654 40 14 41.346 14 43ZM9 43C9 44.103 9.897 45 11 45C12.103 45 13 44.103 13 43C13 41.897 12.103 41 11 41C9.897 41 9 41.897 9 43Z" fill="#263238"/>
<path d="M12.5 19C12.5 17.6193 11.3807 16.5 10 16.5C8.61929 16.5 7.5 17.6193 7.5 19C7.5 20.3807 8.61929 21.5 10 21.5C11.3807 21.5 12.5 20.3807 12.5 19Z" fill="#40C4FF"/>
<path d="M13 19C13 20.654 11.654 22 10 22C8.346 22 7 20.654 7 19C7 17.346 8.346 16 10 16C11.654 16 13 17.346 13 19ZM8 19C8 20.103 8.897 21 10 21C11.103 21 12 20.103 12 19C12 17.897 11.103 17 10 17C8.897 17 8 17.897 8 19Z" fill="#263238"/>
<path d="M41.5 49C41.5 47.6193 40.3807 46.5 39 46.5C37.6193 46.5 36.5 47.6193 36.5 49C36.5 50.3807 37.6193 51.5 39 51.5C40.3807 51.5 41.5 50.3807 41.5 49Z" fill="#40C4FF"/>
<path d="M42 49C42 50.654 40.654 52 39 52C37.346 52 36 50.654 36 49C36 47.346 37.346 46 39 46C40.654 46 42 47.346 42 49ZM37 49C37 50.103 37.897 51 39 51C40.103 51 41 50.103 41 49C41 47.897 40.103 47 39 47C37.897 47 37 47.897 37 49Z" fill="#263238"/>
<path d="M43.5 40C43.5 38.6193 42.3807 37.5 41 37.5C39.6193 37.5 38.5 38.6193 38.5 40C38.5 41.3807 39.6193 42.5 41 42.5C42.3807 42.5 43.5 41.3807 43.5 40Z" fill="#40C4FF"/>
<path d="M44 40C44 41.654 42.654 43 41 43C39.346 43 38 41.654 38 40C38 38.346 39.346 37 41 37C42.654 37 44 38.346 44 40ZM39 40C39 41.103 39.897 42 41 42C42.103 42 43 41.103 43 40C43 38.897 42.103 38 41 38C39.897 38 39 38.897 39 40Z" fill="#263238"/>
<path d="M25.5 49C25.5 47.6193 24.3807 46.5 23 46.5C21.6193 46.5 20.5 47.6193 20.5 49C20.5 50.3807 21.6193 51.5 23 51.5C24.3807 51.5 25.5 50.3807 25.5 49Z" fill="#40C4FF"/>
<path d="M26 49C26 50.654 24.654 52 23 52C21.346 52 20 50.654 20 49C20 47.346 21.346 46 23 46C24.654 46 26 47.346 26 49ZM21 49C21 50.103 21.897 51 23 51C24.103 51 25 50.103 25 49C25 47.897 24.103 47 23 47C21.897 47 21 47.897 21 49Z" fill="#263238"/>
<path d="M33.9062 41C33.9062 39.6193 32.787 38.5 31.4062 38.5C30.0255 38.5 28.9062 39.6193 28.9062 41C28.9062 42.3807 30.0255 43.5 31.4062 43.5C32.787 43.5 33.9062 42.3807 33.9062 41Z" fill="#FFD740"/>
<path d="M34.4062 41C34.4062 42.654 33.0603 44 31.4062 44C29.7522 44 28.4062 42.654 28.4062 41C28.4062 39.346 29.7522 38 31.4062 38C33.0603 38 34.4062 39.346 34.4062 41ZM29.4062 41C29.4062 42.103 30.3032 43 31.4062 43C32.5093 43 33.4062 42.103 33.4062 41C33.4062 39.897 32.5093 39 31.4062 39C30.3032 39 29.4062 39.897 29.4062 41Z" fill="#263238"/>
<path d="M54.5 23C54.5 21.6193 53.3807 20.5 52 20.5C50.6193 20.5 49.5 21.6193 49.5 23C49.5 24.3807 50.6193 25.5 52 25.5C53.3807 25.5 54.5 24.3807 54.5 23Z" fill="#FFD740"/>
<path d="M55 23C55 24.654 53.654 26 52 26C50.346 26 49 24.654 49 23C49 21.346 50.346 20 52 20C53.654 20 55 21.346 55 23ZM50 23C50 24.103 50.897 25 52 25C53.103 25 54 24.103 54 23C54 21.897 53.103 21 52 21C50.897 21 50 21.897 50 23Z" fill="#263238"/>
<path d="M59.5 41C59.5 39.6193 58.3807 38.5 57 38.5C55.6193 38.5 54.5 39.6193 54.5 41C54.5 42.3807 55.6193 43.5 57 43.5C58.3807 43.5 59.5 42.3807 59.5 41Z" fill="#40C4FF"/>
<path d="M60 41C60 42.654 58.654 44 57 44C55.346 44 54 42.654 54 41C54 39.346 55.346 38 57 38C58.654 38 60 39.346 60 41ZM55 41C55 42.103 55.897 43 57 43C58.103 43 59 42.103 59 41C59 39.897 58.103 39 57 39C55.897 39 55 39.897 55 41Z" fill="#263238"/>
<path d="M50.5 49C50.5 47.6193 49.3807 46.5 48 46.5C46.6193 46.5 45.5 47.6193 45.5 49C45.5 50.3807 46.6193 51.5 48 51.5C49.3807 51.5 50.5 50.3807 50.5 49Z" fill="#40C4FF"/>
<path d="M51 49C51 50.654 49.654 52 48 52C46.346 52 45 50.654 45 49C45 47.346 46.346 46 48 46C49.654 46 51 47.346 51 49ZM46 49C46 50.103 46.897 51 48 51C49.103 51 50 50.103 50 49C50 47.897 49.103 47 48 47C46.897 47 46 47.897 46 49Z" fill="#263238"/>
<path d="M13.5 54.5C14.1667 49.8333 19 39.3 33 34.5C50.5 28.5 45 13.5 45 11" stroke="#263238"/>
</svg>
