<svg width="65" height="64" viewBox="0 0 65 64" fill="none" xmlns="http://www.w3.org/2000/svg">
<rect x="0.20241" y="7.94069" width="53.1264" height="54.9982" rx="1.14699" fill="#0076FF" fill-opacity="0.1" stroke="#0076FF" stroke-width="0.404819"/>
<path d="M0.20241 9.08768C0.20241 8.45421 0.715933 7.94069 1.3494 7.94069H52.1818C52.8153 7.94069 53.3288 8.45422 53.3288 9.08768V13.5254H0.20241V9.08768Z" fill="#0076FF" fill-opacity="0.2" stroke="#0076FF" stroke-width="0.404819"/>
<circle cx="4.305" cy="10.5462" r="0.935861" fill="#0076FF"/>
<circle cx="7.67414" cy="10.5457" r="0.935861" fill="#0076FF"/>
<circle cx="11.0433" cy="10.5457" r="0.935861" fill="#0076FF"/>
<rect x="6.90696" y="19.5119" width="39.7175" height="18.7542" rx="0.506024" fill="white" stroke="#0076FF" stroke-width="0.337349"/>
<rect x="6.90696" y="44.218" width="39.7175" height="11.2673" rx="0.506024" fill="white" stroke="#0076FF" stroke-width="0.337349"/>
<line x1="18.7168" y1="23.9738" x2="35.188" y2="23.9738" stroke="#0076FF" stroke-width="0.472289"/>
<line x1="14.5991" y1="26.9684" x2="39.3059" y2="26.9684" stroke="#0076FF" stroke-width="0.472289"/>
<rect x="19.8398" y="30.1997" width="14.2251" height="2.99476" rx="1.49738" fill="#0076FF"/>
<line x1="11.2305" y1="48.3054" x2="24.3325" y2="48.3054" stroke="#0076FF" stroke-width="0.472289"/>
<line x1="11.2305" y1="51.3" x2="24.3325" y2="51.3" stroke="#0076FF" stroke-width="0.472289"/>
<path d="M29.1916 53.8169L29.2931 54.0362L29.4639 53.8653L35.1862 48.1431L38.8222 50.6883L38.9305 50.7641L39.03 50.677L46.3262 44.2928L46.439 44.1941L46.3542 44.0705C44.5702 41.4696 41.576 39.7629 38.1831 39.7629C32.7145 39.7629 28.2814 44.196 28.2814 49.6645C28.2814 51.147 28.6073 52.5538 29.1916 53.8169ZM46.5655 44.3917L46.4602 44.2247L46.3117 44.3547L38.933 50.811L35.3063 48.2723L35.1904 48.1912L35.0903 48.2912L29.399 53.9825L29.4993 54.0828L29.3679 54.1785C31.009 57.377 34.3402 59.5661 38.1831 59.5661C43.6516 59.5661 48.0847 55.133 48.0847 49.6645C48.0847 47.7267 47.5279 45.9185 46.5655 44.3917Z" fill="#CCE1FF" stroke="#0076FF" stroke-width="0.337349"/>
<path d="M46.4228 44.4816C47.3687 45.9823 47.916 47.7595 47.916 49.6645C47.916 55.0399 43.5584 59.3975 38.1831 59.3975C34.4059 59.3975 31.1313 57.2459 29.518 54.1015L29.5183 54.1018L35.2096 48.4105L38.9446 51.025L46.4228 44.4816Z" fill="#B2D2FF"/>
<path d="M46.4189 44.2373L38.9321 50.7883L35.1886 48.1679L29.3863 53.9702" stroke="#0076FF" stroke-width="0.337349"/>
<rect x="39.1008" y="43.0954" width="2.65741" height="2.65741" rx="1.3287" fill="white" stroke="#0076FF" stroke-width="0.337349"/>
<mask id="path-17-outside-1" maskUnits="userSpaceOnUse" x="48.0264" y="0" width="17" height="17" fill="black">
<rect fill="white" x="48.0264" width="17" height="17"/>
<path fill-rule="evenodd" clip-rule="evenodd" d="M55.3166 1C54.9439 1 54.6419 1.30207 54.6419 1.6747V6.98935H49.7011C49.3284 6.98935 49.0264 7.29143 49.0264 7.66405V9.68375C49.0264 10.0564 49.3284 10.3585 49.7011 10.3585H54.6419V15.2991C54.6419 15.6717 54.9439 15.9738 55.3166 15.9738H57.3363C57.7089 15.9738 58.011 15.6717 58.011 15.2991V10.3585H63.3254C63.6981 10.3585 64.0001 10.0564 64.0001 9.68376V7.66405C64.0001 7.29143 63.6981 6.98935 63.3254 6.98935H58.011V1.6747C58.011 1.30207 57.7089 1 57.3363 1H55.3166Z"/>
</mask>
<path fill-rule="evenodd" clip-rule="evenodd" d="M55.3166 1C54.9439 1 54.6419 1.30207 54.6419 1.6747V6.98935H49.7011C49.3284 6.98935 49.0264 7.29143 49.0264 7.66405V9.68375C49.0264 10.0564 49.3284 10.3585 49.7011 10.3585H54.6419V15.2991C54.6419 15.6717 54.9439 15.9738 55.3166 15.9738H57.3363C57.7089 15.9738 58.011 15.6717 58.011 15.2991V10.3585H63.3254C63.6981 10.3585 64.0001 10.0564 64.0001 9.68376V7.66405C64.0001 7.29143 63.6981 6.98935 63.3254 6.98935H58.011V1.6747C58.011 1.30207 57.7089 1 57.3363 1H55.3166Z" fill="#0076FF"/>
<path d="M54.6419 6.98935V7.66405H55.3166V6.98935H54.6419ZM54.6419 10.3585H55.3166V9.68375H54.6419V10.3585ZM58.011 10.3585V9.68375H57.3363V10.3585H58.011ZM58.011 6.98935H57.3363V7.66405H58.011V6.98935ZM55.3166 1.6747V1.6747V0.325301C54.5713 0.325301 53.9672 0.929446 53.9672 1.6747H55.3166ZM55.3166 6.98935V1.6747H53.9672V6.98935H55.3166ZM49.7011 7.66405H54.6419V6.31466H49.7011V7.66405ZM49.7011 7.66405V7.66405V6.31466C48.9558 6.31466 48.3517 6.9188 48.3517 7.66405H49.7011ZM49.7011 9.68375V7.66405H48.3517V9.68375H49.7011ZM49.7011 9.68375H49.7011H48.3517C48.3517 10.429 48.9558 11.0332 49.7011 11.0332V9.68375ZM54.6419 9.68375H49.7011V11.0332H54.6419V9.68375ZM55.3166 15.2991V10.3585H53.9672V15.2991H55.3166ZM55.3166 15.2991H55.3166H53.9672C53.9672 16.0443 54.5713 16.6485 55.3166 16.6485V15.2991ZM57.3363 15.2991H55.3166V16.6485H57.3363V15.2991ZM57.3363 15.2991V16.6485C58.0815 16.6485 58.6857 16.0443 58.6857 15.2991H57.3363ZM57.3363 10.3585V15.2991H58.6857V10.3585H57.3363ZM63.3254 9.68375H58.011V11.0332H63.3254V9.68375ZM63.3254 9.68376V9.68375V11.0332C64.0707 11.0332 64.6748 10.429 64.6748 9.68376H63.3254ZM63.3254 7.66405V9.68376H64.6748V7.66405H63.3254ZM63.3254 7.66405V7.66405H64.6748C64.6748 6.9188 64.0707 6.31466 63.3254 6.31466V7.66405ZM58.011 7.66405H63.3254V6.31466H58.011V7.66405ZM57.3363 1.6747V6.98935H58.6857V1.6747H57.3363ZM57.3363 1.6747H58.6857C58.6857 0.929447 58.0815 0.325301 57.3363 0.325301V1.6747ZM55.3166 1.6747H57.3363V0.325301H55.3166V1.6747Z" fill="#E1EDFB" mask="url(#path-17-outside-1)"/>
</svg>
