<svg width="60" height="56" viewBox="0 0 60 56" fill="none" xmlns="http://www.w3.org/2000/svg">
<path d="M30.75 51.5H3.75C2.05 51.5 0.75 50.2 0.75 48.5V43.5C0.75 41.8 2.05 40.5 3.75 40.5H30.75C32.45 40.5 33.75 41.8 33.75 43.5V48.5C33.75 50.1 32.45 51.5 30.75 51.5ZM3.75 41.5C2.65 41.5 1.75 42.4 1.75 43.5V48.5C1.75 49.6 2.65 50.5 3.75 50.5H30.75C31.85 50.5 32.75 49.6 32.75 48.5V43.5C32.75 42.4 31.85 41.5 30.75 41.5H3.75Z" fill="#919EAB"/>
<path d="M8.25 48C7.15 48 6.25 47.1 6.25 46C6.25 44.9 7.15 44 8.25 44C9.35 44 10.25 44.9 10.25 46C10.25 47.1 9.35 48 8.25 48ZM8.25 45C7.65 45 7.25 45.4 7.25 46C7.25 46.6 7.65 47 8.25 47C8.85 47 9.25 46.6 9.25 46C9.25 45.4 8.85 45 8.25 45Z" fill="#919EAB"/>
<path d="M27.25 46.5H13.25C12.95 46.5 12.75 46.3 12.75 46C12.75 45.7 12.95 45.5 13.25 45.5H27.25C27.55 45.5 27.75 45.7 27.75 46C27.75 46.3 27.55 46.5 27.25 46.5Z" fill="#919EAB"/>
<path d="M30.75 41.5H3.75C2.05 41.5 0.75 40.2 0.75 38.5V33.5C0.75 31.8 2.05 30.5 3.75 30.5H30.75C32.45 30.5 33.75 31.8 33.75 33.5V38.5C33.75 40.1 32.45 41.5 30.75 41.5ZM3.75 31.5C2.65 31.5 1.75 32.4 1.75 33.5V38.5C1.75 39.6 2.65 40.5 3.75 40.5H30.75C31.85 40.5 32.75 39.6 32.75 38.5V33.5C32.75 32.4 31.85 31.5 30.75 31.5H3.75Z" fill="#919EAB"/>
<path d="M8.25 38C7.15 38 6.25 37.1 6.25 36C6.25 34.9 7.15 34 8.25 34C9.35 34 10.25 34.9 10.25 36C10.25 37.1 9.35 38 8.25 38ZM8.25 35C7.65 35 7.25 35.4 7.25 36C7.25 36.6 7.65 37 8.25 37C8.85 37 9.25 36.6 9.25 36C9.25 35.4 8.85 35 8.25 35Z" fill="#919EAB"/>
<path d="M27.25 36.5H13.25C12.95 36.5 12.75 36.3 12.75 36C12.75 35.7 12.95 35.5 13.25 35.5H27.25C27.55 35.5 27.75 35.7 27.75 36C27.75 36.3 27.55 36.5 27.25 36.5Z" fill="#919EAB"/>
<path d="M30.75 31.5H3.75C2.05 31.5 0.75 30.2 0.75 28.5V23.5C0.75 21.8 2.05 20.5 3.75 20.5H30.75C32.45 20.5 33.75 21.8 33.75 23.5V28.5C33.75 30.1 32.45 31.5 30.75 31.5ZM3.75 21.5C2.65 21.5 1.75 22.4 1.75 23.5V28.5C1.75 29.6 2.65 30.5 3.75 30.5H30.75C31.85 30.5 32.75 29.6 32.75 28.5V23.5C32.75 22.4 31.85 21.5 30.75 21.5H3.75Z" fill="#919EAB"/>
<path d="M8.25 28C7.15 28 6.25 27.1 6.25 26C6.25 24.9 7.15 24 8.25 24C9.35 24 10.25 24.9 10.25 26C10.25 27.1 9.35 28 8.25 28ZM8.25 25C7.65 25 7.25 25.4 7.25 26C7.25 26.6 7.65 27 8.25 27C8.85 27 9.25 26.6 9.25 26C9.25 25.4 8.85 25 8.25 25Z" fill="#919EAB"/>
<path d="M27.25 26.5H13.25C12.95 26.5 12.75 26.3 12.75 26C12.75 25.7 12.95 25.5 13.25 25.5H27.25C27.55 25.5 27.75 25.7 27.75 26C27.75 26.3 27.55 26.5 27.25 26.5Z" fill="#919EAB"/>
<path d="M31.25 55.5H3.25C2.95 55.5 2.75 55.3 2.75 55V51C2.75 50.7 2.95 50.5 3.25 50.5H31.25C31.55 50.5 31.75 50.7 31.75 51V55C31.75 55.3 31.55 55.5 31.25 55.5ZM3.75 54.5H30.75V51.5H3.75V54.5Z" fill="#919EAB"/>
<path d="M20.05 8.70039C19.95 8.70039 19.75 8.70039 19.65 8.60039C15.55 4.50039 8.84995 4.50039 4.84995 8.60039C4.64995 8.80039 4.35 8.80039 4.15 8.60039C3.95 8.40039 3.95 8.10039 4.15 7.90039C8.65 3.40039 15.95 3.40039 20.45 7.90039C20.65 8.10039 20.65 8.40039 20.45 8.60039C20.35 8.70039 20.15 8.70039 20.05 8.70039Z" fill="#919EAB"/>
<path d="M17.2498 11.5004C17.1498 11.5004 16.9498 11.5004 16.8498 11.4004C14.3498 8.9004 10.1498 8.9004 7.64982 11.4004C7.44982 11.6004 7.1498 11.6004 6.9498 11.4004C6.7498 11.2004 6.7498 10.9004 6.9498 10.7004C9.8498 7.80039 14.6498 7.80039 17.5498 10.7004C17.7498 10.9004 17.7498 11.2004 17.5498 11.4004C17.4498 11.5004 17.3498 11.5004 17.2498 11.5004Z" fill="#919EAB"/>
<path d="M14.4502 14.4C14.3502 14.4 14.1502 14.4 14.0502 14.3C13.1502 13.4 11.4502 13.4 10.5502 14.3C10.3502 14.5 10.0502 14.5 9.8502 14.3C9.6502 14.1 9.6502 13.8 9.8502 13.6C11.1502 12.3 13.4502 12.3 14.7502 13.6C14.9502 13.8 14.9502 14.1 14.7502 14.3C14.6502 14.3 14.5502 14.4 14.4502 14.4Z" fill="#919EAB"/>
<path d="M46.75 50L52.75 44H49.25V39C49.25 38.4 48.85 38 48.25 38H45.25C44.65 38 44.25 38.4 44.25 39V44H40.75L46.75 50Z" fill="#0076FF" fill-opacity="0.1"/>
<path d="M46.7499 50.4996C46.6499 50.4996 46.4499 50.4996 46.3499 50.3996L40.3499 44.3996C40.2499 44.2996 40.1499 43.9996 40.2499 43.8996C40.3499 43.7996 40.5499 43.5996 40.7499 43.5996H43.7499V39.0996C43.7499 38.2996 44.4499 37.5996 45.2499 37.5996H48.2499C49.0499 37.5996 49.7499 38.2996 49.7499 39.0996V43.5996H52.7499C52.9499 43.5996 53.1499 43.6996 53.2499 43.8996C53.3499 44.0996 53.2499 44.2996 53.1499 44.3996L47.1499 50.3996C47.0499 50.3996 46.9499 50.4996 46.7499 50.4996ZM41.9499 44.4996L46.7499 49.2996L51.5499 44.4996H49.2499C48.9499 44.4996 48.7499 44.2996 48.7499 43.9996V38.9996C48.7499 38.6996 48.5499 38.4996 48.2499 38.4996H45.2499C44.9499 38.4996 44.7499 38.6996 44.7499 38.9996V43.9996C44.7499 44.2996 44.5499 44.4996 44.2499 44.4996H41.9499Z" fill="#919EAB"/>
<path d="M51.75 55.5H41.75C40.95 55.5 40.25 54.8 40.25 54V51C40.25 50.7 40.45 50.5 40.75 50.5C41.05 50.5 41.25 50.7 41.25 51V54C41.25 54.3 41.45 54.5 41.75 54.5H51.75C52.05 54.5 52.25 54.3 52.25 54V51C52.25 50.7 52.45 50.5 52.75 50.5C53.05 50.5 53.25 50.7 53.25 51V54C53.25 54.8 52.65 55.5 51.75 55.5Z" fill="#919EAB"/>
<path d="M54.25 16C57.05 16 59.25 13.8 59.25 11C59.25 8.2 57.05 6 54.25 6H52.75C52.75 2.7 50.05 0 46.75 0C43.45 0 40.75 2.7 40.75 6H39.25C36.45 6 34.25 8.2 34.25 11C34.25 13.8 36.45 16 39.25 16H54.25Z" fill="#0076FF" fill-opacity="0.1"/>
<path d="M52.25 24H44.25C43.65 24 43.25 23.6 43.25 23V13C43.25 12.4 43.65 12 44.25 12H52.25C52.85 12 53.25 12.4 53.25 13V23C53.25 23.5 52.85 24 52.25 24Z" fill="white"/>
<path d="M52.25 24.5H44.25C43.45 24.5 42.75 23.8 42.75 23V13C42.75 12.2 43.45 11.5 44.25 11.5H52.25C53.05 11.5 53.75 12.2 53.75 13V23C53.75 23.8 53.15 24.5 52.25 24.5ZM44.25 12.5C43.95 12.5 43.75 12.7 43.75 13V23C43.75 23.3 43.95 23.5 44.25 23.5H52.25C52.55 23.5 52.75 23.3 52.75 23V13C52.75 12.7 52.55 12.5 52.25 12.5H44.25Z" fill="#919EAB"/>
<rect x="40.75" y="9" width="9" height="12" fill="#919EAB"/>
<path d="M49.25 21.5H41.25C40.45 21.5 39.75 20.8 39.75 20V10C39.75 9.2 40.45 8.5 41.25 8.5H49.25C50.05 8.5 50.75 9.2 50.75 10V20C50.75 20.8 50.15 21.5 49.25 21.5ZM41.25 9.5C40.95 9.5 40.75 9.7 40.75 10V20C40.75 20.3 40.95 20.5 41.25 20.5H49.25C49.55 20.5 49.75 20.3 49.75 20V10C49.75 9.7 49.55 9.5 49.25 9.5H41.25Z" fill="#919EAB"/>
<path d="M47.75 13H42.75C42.45 13 42.25 12.8 42.25 12.5C42.25 12.2 42.45 12 42.75 12H47.75C48.05 12 48.25 12.2 48.25 12.5C48.25 12.8 48.05 13 47.75 13Z" fill="#CDE3FD"/>
<path d="M47.75 15.5H42.75C42.45 15.5 42.25 15.3 42.25 15C42.25 14.7 42.45 14.5 42.75 14.5H47.75C48.05 14.5 48.25 14.7 48.25 15C48.25 15.3 48.05 15.5 47.75 15.5Z" fill="#CDE3FD"/>
<path d="M47.75 18H42.75C42.45 18 42.25 17.8 42.25 17.5C42.25 17.2 42.45 17 42.75 17H47.75C48.05 17 48.25 17.2 48.25 17.5C48.25 17.8 48.05 18 47.75 18Z" fill="#CDE3FD"/>
<rect x="1.75" y="21" width="31" height="10" rx="2" fill="#0076FF" fill-opacity="0.1"/>
<rect x="1.75" y="31" width="31" height="10" rx="2" fill="#0076FF" fill-opacity="0.1"/>
<rect x="1.75" y="41" width="31" height="10" rx="2" fill="#0076FF" fill-opacity="0.1"/>
<rect x="2.75" y="51" width="29" height="4" rx="1" fill="#0076FF" fill-opacity="0.1"/>
</svg>
