<svg width="15" height="16" viewBox="0 0 15 16" fill="none" xmlns="http://www.w3.org/2000/svg">
<path d="M10.4142 6.23218L4.13867 2.61328" stroke="#919EAB" stroke-width="1.5" stroke-linecap="round" stroke-linejoin="round"/>
<path d="M13.5511 10.8347V5.25648C13.5508 5.01193 13.4863 4.77174 13.3639 4.56001C13.2415 4.34828 13.0656 4.17246 12.8538 4.05018L7.97282 1.26105C7.76082 1.13866 7.52034 1.07422 7.27554 1.07422C7.03074 1.07422 6.79026 1.13866 6.57826 1.26105L1.69728 4.05018C1.48549 4.17246 1.30958 4.34828 1.18719 4.56001C1.06481 4.77174 1.00025 5.01193 1 5.25648V10.8347C1.00025 11.0793 1.06481 11.3195 1.18719 11.5312C1.30958 11.7429 1.48549 11.9188 1.69728 12.041L6.57826 14.8302C6.79026 14.9526 7.03074 15.017 7.27554 15.017C7.52034 15.017 7.76082 14.9526 7.97282 14.8302L12.8538 12.041C13.0656 11.9188 13.2415 11.7429 13.3639 11.5312C13.4863 11.3195 13.5508 11.0793 13.5511 10.8347Z" stroke="#919EAB" stroke-width="1.5" stroke-linecap="round" stroke-linejoin="round"/>
<path d="M1.1875 4.53125L7.27477 8.05252L13.362 4.53125" stroke="#919EAB" stroke-width="1.5" stroke-linecap="round" stroke-linejoin="round"/>
<path d="M7.27539 15.0755V8.04688" stroke="#919EAB" stroke-width="1.5" stroke-linecap="round" stroke-linejoin="round"/>
</svg>
