<svg width="14" height="18" viewBox="0 0 14 18" fill="none" xmlns="http://www.w3.org/2000/svg">
<path d="M3.88851 4.11111V2.55556C3.88851 2.143 4.0524 1.74733 4.34412 1.45561C4.63584 1.16389 5.03151 1 5.44406 1H8.55518C8.96773 1 9.3634 1.16389 9.65512 1.45561C9.94684 1.74733 10.1107 2.143 10.1107 2.55556V4.11111M12.4441 4.11111V15C12.4441 15.4126 12.2802 15.8082 11.9885 16.0999C11.6967 16.3917 11.3011 16.5556 10.8885 16.5556H3.11073C2.69817 16.5556 2.30251 16.3917 2.01079 16.0999C1.71906 15.8082 1.55518 15.4126 1.55518 15V4.11111H12.4441Z" stroke="#919EAB" stroke-width="1.5" stroke-linecap="round" stroke-linejoin="round"/>
</svg>
