<svg width="15" height="16" viewBox="0 0 15 16" fill="none" xmlns="http://www.w3.org/2000/svg">
<path d="M1 3.84326H2.4036H13.6324" stroke="#919EAB" stroke-width="1.55955" stroke-linecap="round" stroke-linejoin="round"/>
<path d="M4.50872 3.84333V2.43973C4.50872 2.06747 4.65659 1.71046 4.91982 1.44724C5.18305 1.18401 5.54006 1.03613 5.91231 1.03613H8.71951C9.09176 1.03613 9.44877 1.18401 9.712 1.44724C9.97522 1.71046 10.1231 2.06747 10.1231 2.43973V3.84333M12.2285 3.84333V13.6685C12.2285 14.0408 12.0806 14.3978 11.8174 14.661C11.5542 14.9242 11.1972 15.0721 10.8249 15.0721H3.80692C3.43466 15.0721 3.07765 14.9242 2.81442 14.661C2.5512 14.3978 2.40332 14.0408 2.40332 13.6685V3.84333H12.2285Z" stroke="#919EAB" stroke-width="1.55955" stroke-linecap="round" stroke-linejoin="round"/>
</svg>
