<svg width="95" height="73" viewBox="0 0 95 73" fill="none" xmlns="http://www.w3.org/2000/svg">
<path d="M47.5119 0C53.6761 0.328875 60.2933 3.05954 64.517 7.56122C68.7407 12.0629 71.0628 18.0218 70.9987 24.1944C70.9346 30.367 68.4892 36.2764 64.1729 40.6893C59.8565 45.1023 53.6816 47.6906 47.5119 47.8913V36.2018C50.668 36.0991 53.6034 34.7685 55.8115 32.511C58.0195 30.2535 59.2705 27.2305 59.3033 24.0729C59.3361 20.9153 58.1482 17.8669 55.9875 15.5641C53.8268 13.2612 50.6652 11.9123 47.5119 11.744V0Z" fill="#0076FF"/>
<circle opacity="0.5" r="1.67772" transform="matrix(-1 0 0 1 25.7017 23.9458)" fill="#0076FF"/>
<circle opacity="0.5" r="1.67772" transform="matrix(-1 0 0 1 43.0889 2.89836)" fill="#0076FF"/>
<circle opacity="0.5" r="1.67772" transform="matrix(-1 0 0 1 39.1235 12.0489)" fill="#0076FF"/>
<circle opacity="0.5" r="1.67772" transform="matrix(-1 0 0 1 28.1421 13.8791)" fill="#0076FF"/>
<rect opacity="0.5" width="12.7624" height="3.20292" rx="1.60146" transform="matrix(-0.911037 -0.412325 -0.412325 0.911037 47.207 8.61749)" fill="#0076FF"/>
<rect opacity="0.5" width="11.1713" height="3.20292" rx="1.60146" transform="matrix(-0.435223 -0.900322 -0.900322 0.435223 37.1411 16.7688)" fill="#0076FF"/>
<rect opacity="0.5" width="10.797" height="3.20292" rx="1.60146" transform="matrix(-0.951885 -0.306455 -0.306455 0.951885 35.2593 20.0864)" fill="#0076FF"/>
<circle opacity="0.5" cx="43.0889" cy="45.2016" r="1.67772" transform="rotate(-180 43.0889 45.2016)" fill="#0076FF"/>
<circle opacity="0.5" cx="39.1235" cy="36.051" r="1.67772" transform="rotate(-180 39.1235 36.051)" fill="#0076FF"/>
<circle opacity="0.5" cx="28.1421" cy="34.2208" r="1.67772" transform="rotate(-180 28.1421 34.2208)" fill="#0076FF"/>
<rect opacity="0.5" x="47.207" y="39.4824" width="12.7624" height="3.20292" rx="1.60146" transform="rotate(155.649 47.207 39.4824)" fill="#0076FF"/>
<rect opacity="0.5" x="37.1411" y="31.3316" width="11.1713" height="3.20292" rx="1.60146" transform="rotate(115.8 37.1411 31.3316)" fill="#0076FF"/>
<rect opacity="0.5" x="35.2593" y="28.014" width="10.797" height="3.20292" rx="1.60146" transform="rotate(162.154 35.2593 28.014)" fill="#0076FF"/>
<path d="M18.8661 69.8911H22.4841C26.7321 69.8911 29.0361 67.7131 29.0361 63.7171C29.0361 59.6491 26.6601 57.3451 22.5021 57.3451H18.8661V69.8911ZM21.1161 67.8211V59.4151H22.4661C25.4361 59.4151 26.7681 60.7291 26.7681 63.6271C26.7681 66.5791 25.4361 67.8211 22.2681 67.8211H21.1161ZM31.1495 69.8911H33.3095V62.7271H35.3795V61.0171H33.3095V59.9911C33.3095 59.6671 33.3095 58.9651 34.0835 58.9651C34.3715 58.9651 34.6235 59.0551 34.8215 59.1811L35.5235 57.5251C35.0555 57.3091 34.5335 57.1651 33.8495 57.1651C32.4455 57.1651 31.1675 57.7591 31.1675 60.0091V61.0171H29.4575V62.7271H31.1495V69.8911ZM38.5844 70.0711C38.9984 70.0711 39.4844 69.9811 39.9704 69.8011V68.0731C39.7184 68.1451 39.4844 68.1811 39.2864 68.1811C38.8904 68.1811 38.6564 68.0191 38.6564 67.6231V57.3451H36.4964V67.7671C36.4964 69.3511 37.3784 70.0711 38.5844 70.0711ZM46.7991 61.0171V64.3831C46.7991 65.9671 46.7991 68.1811 44.7831 68.1811C43.1451 68.1811 43.1451 66.6331 43.1451 66.0211V61.0171H40.9851V66.5611C40.9851 68.4511 41.9211 70.0711 44.1531 70.0711C45.1971 70.0711 46.1691 69.7111 46.7991 68.8651V69.8911H48.9591V61.0171H46.7991ZM49.9183 69.8911H52.5643L54.4003 66.9031L56.2363 69.8911H58.8823L55.8223 65.4271L58.8823 61.0171H56.2363L54.4003 63.9511L52.5643 61.0171H49.9183L52.9603 65.4271L49.9183 69.8911ZM60.3206 69.8911H62.4986V67.5511H60.3206V69.8911ZM68.5903 60.8371C66.9703 60.8371 65.6563 61.4671 64.5943 62.7451L66.1603 64.0591C66.8083 63.1951 67.6543 62.7271 68.5543 62.7271C69.5803 62.7271 70.2283 63.3211 70.2283 64.2931V64.5451H68.0143C67.0063 64.5451 66.2503 64.6711 65.6563 64.9411C64.7923 65.3371 64.3243 66.1291 64.3243 67.1731C64.3243 68.8651 65.6563 70.0711 67.5283 70.0711C68.6983 70.0711 69.7063 69.5671 70.2283 68.7391L70.4083 69.8911H72.3883V64.2931C72.3883 62.1511 70.9303 60.8371 68.5903 60.8371ZM67.8703 68.2351C67.0063 68.2351 66.4843 67.8391 66.4843 67.2091C66.4843 66.8851 66.6103 66.6331 66.8443 66.4711C67.1323 66.2551 67.5643 66.1651 68.3023 66.1651H70.2283C70.2283 67.3171 69.1663 68.2351 67.8703 68.2351ZM74.2481 59.3431H76.5161V57.3451H74.2481V59.3431ZM74.3021 69.8911H76.4621V61.0171H74.3021V69.8911Z" fill="#0076FF"/>
</svg>
