<svg width="147" height="63" viewBox="0 0 147 63" fill="none" xmlns="http://www.w3.org/2000/svg">
<path d="M44.3115 10.3286C49.7615 10.6194 55.6121 13.0337 59.3465 17.0138C63.0808 20.994 65.1339 26.2625 65.0772 31.72C65.0205 37.1774 62.8585 42.4022 59.0422 46.3039C55.2259 50.2056 49.7664 52.494 44.3115 52.6715V42.3363C47.102 42.2455 49.6973 41.069 51.6495 39.073C53.6017 37.0771 54.7078 34.4043 54.7368 31.6125C54.7658 28.8207 53.7155 26.1256 51.8051 24.0895C49.8948 22.0534 47.0995 20.8608 44.3115 20.7121V10.3286Z" fill="#0076FF"/>
<circle opacity="0.5" r="1.48335" transform="matrix(-1 0 0 1 25.0282 31.5004)" fill="#0076FF"/>
<circle opacity="0.5" r="1.48335" transform="matrix(-1 0 0 1 40.4013 12.8916)" fill="#0076FF"/>
<circle opacity="0.5" r="1.48335" transform="matrix(-1 0 0 1 36.8953 20.9814)" fill="#0076FF"/>
<circle opacity="0.5" r="1.48335" transform="matrix(-1 0 0 1 27.1864 22.6)" fill="#0076FF"/>
<rect opacity="0.5" width="11.2838" height="2.83185" rx="1.41592" transform="matrix(-0.911037 -0.412325 -0.412325 0.911037 44.0424 17.9473)" fill="#0076FF"/>
<rect opacity="0.5" width="9.87707" height="2.83185" rx="1.41592" transform="matrix(-0.435223 -0.900322 -0.900322 0.435223 35.1424 25.1553)" fill="#0076FF"/>
<rect opacity="0.5" width="9.54613" height="2.83185" rx="1.41592" transform="matrix(-0.951885 -0.306455 -0.306455 0.951885 33.4785 28.0874)" fill="#0076FF"/>
<circle opacity="0.5" cx="40.4013" cy="50.2935" r="1.48335" transform="rotate(-180 40.4013 50.2935)" fill="#0076FF"/>
<circle opacity="0.5" cx="36.8953" cy="42.2022" r="1.48335" transform="rotate(-180 36.8953 42.2022)" fill="#0076FF"/>
<circle opacity="0.5" cx="27.1864" cy="40.585" r="1.48335" transform="rotate(-180 27.1864 40.585)" fill="#0076FF"/>
<rect opacity="0.5" x="44.0424" y="45.2363" width="11.2838" height="2.83185" rx="1.41592" transform="rotate(155.649 44.0424 45.2363)" fill="#0076FF"/>
<rect opacity="0.5" x="35.1424" y="38.0298" width="9.87707" height="2.83185" rx="1.41592" transform="rotate(115.8 35.1424 38.0298)" fill="#0076FF"/>
<rect opacity="0.5" x="33.4785" y="35.0977" width="9.54613" height="2.83185" rx="1.41592" transform="rotate(162.154 33.4785 35.0977)" fill="#0076FF"/>
<path d="M79.1927 38.8784H83.4481C88.4446 38.8784 91.1545 36.3166 91.1545 31.6166C91.1545 26.8318 88.3599 24.1219 83.4693 24.1219H79.1927V38.8784ZM81.8391 36.4436V26.5566H83.427C86.9203 26.5566 88.4869 28.1021 88.4869 31.5107C88.4869 34.9828 86.9203 36.4436 83.1941 36.4436H81.8391Z" fill="#0076FF"/>
<path d="M93.6402 38.8784H96.1808V30.4521H98.6155V28.4408H96.1808V27.2341C96.1808 26.853 96.1808 26.0273 97.0911 26.0273C97.4299 26.0273 97.7263 26.1332 97.9592 26.2814L98.7849 24.3336C98.2344 24.0795 97.6204 23.9102 96.8159 23.9102C95.1645 23.9102 93.6614 24.6088 93.6614 27.2552V28.4408H91.6501V30.4521H93.6402V38.8784Z" fill="#0076FF"/>
<path d="M102.385 39.0901C102.872 39.0901 103.444 38.9842 104.015 38.7725V36.74C103.719 36.8247 103.444 36.8671 103.211 36.8671C102.745 36.8671 102.47 36.6765 102.47 36.2108V24.1219H99.9293V36.3801C99.9293 38.2432 100.967 39.0901 102.385 39.0901Z" fill="#0076FF"/>
<path d="M112.047 28.4408V32.3999C112.047 34.263 112.047 36.8671 109.676 36.8671C107.749 36.8671 107.749 35.0463 107.749 34.3265V28.4408H105.209V34.9616C105.209 37.1846 106.31 39.0901 108.935 39.0901C110.163 39.0901 111.306 38.6666 112.047 37.6716V38.8784H114.588V28.4408H112.047Z" fill="#0076FF"/>
<path d="M115.716 38.8784H118.828L120.988 35.3639L123.147 38.8784H126.259L122.66 33.6278L126.259 28.4408H123.147L120.988 31.8918L118.828 28.4408H115.716L119.294 33.6278L115.716 38.8784Z" fill="#0076FF"/>
<path d="M127.951 38.8784H130.513V36.1261H127.951V38.8784Z" fill="#0076FF"/>
<path d="M137.678 28.2291C135.772 28.2291 134.227 28.9701 132.978 30.4733L134.82 32.0188C135.582 31.0026 136.577 30.4521 137.635 30.4521C138.842 30.4521 139.604 31.1508 139.604 32.294V32.5904H137C135.815 32.5904 134.925 32.7386 134.227 33.0562C133.211 33.522 132.66 34.4535 132.66 35.6815C132.66 37.6716 134.227 39.0901 136.429 39.0901C137.805 39.0901 138.99 38.4973 139.604 37.5234L139.816 38.8784H142.145V32.294C142.145 29.7746 140.43 28.2291 137.678 28.2291ZM136.831 36.9306C135.815 36.9306 135.201 36.4648 135.201 35.7238C135.201 35.3427 135.349 35.0463 135.624 34.8558C135.963 34.6017 136.471 34.4959 137.339 34.4959H139.604C139.604 35.8508 138.355 36.9306 136.831 36.9306Z" fill="#0076FF"/>
<path d="M144.332 26.4719H147V24.1219H144.332V26.4719ZM144.396 38.8784H146.936V28.4408H144.396V38.8784Z" fill="#0076FF"/>
</svg>
