<svg width="18" height="18" viewBox="0 0 18 18" fill="none" xmlns="http://www.w3.org/2000/svg">
<path d="M14.402 6.75H7.92115C7.12575 6.75 6.48096 7.42157 6.48096 8.25V15C6.48096 15.8284 7.12575 16.5 7.92115 16.5H14.402C15.1974 16.5 15.8422 15.8284 15.8422 15V8.25C15.8422 7.42157 15.1974 6.75 14.402 6.75Z" stroke="#D4D4D4" stroke-width="1.3" stroke-linecap="round" stroke-linejoin="round"/>
<path d="M3.60071 11.25H2.88062C2.49866 11.25 2.13234 11.092 1.86225 10.8107C1.59216 10.5294 1.44043 10.1478 1.44043 9.75V3C1.44043 2.60218 1.59216 2.22064 1.86225 1.93934C2.13234 1.65804 2.49866 1.5 2.88062 1.5H9.36147C9.74343 1.5 10.1098 1.65804 10.3798 1.93934C10.6499 2.22064 10.8017 2.60218 10.8017 3V3.75" stroke="#D4D4D4" stroke-width="1.3" stroke-linecap="round" stroke-linejoin="round" stroke-dasharray="4 4"/>
<path d="M9 9L11.0831 14L11.8226 11.8226L14 11.0831L9 9Z" stroke="#D4D4D4" stroke-width="0.5" stroke-linecap="round" stroke-linejoin="round"/>
<path d="M12 12L14 14" stroke="#D4D4D4" stroke-width="0.5" stroke-linecap="round" stroke-linejoin="round"/>
</svg>
