<svg width="177" height="155" viewBox="0 0 177 155" fill="none" xmlns="http://www.w3.org/2000/svg">
<path d="M146.529 154.661H9.55624C4.14104 154.661 0 150.52 0 145.104V51.1347C0 50.1791 0.637083 49.542 1.59271 49.542H154.493C155.448 49.542 156.085 50.1791 156.085 51.1347V145.104C156.085 150.201 151.944 154.661 146.529 154.661ZM3.18541 52.7274V145.104C3.18541 148.608 6.05229 151.475 9.55624 151.475H146.529C150.033 151.475 152.9 148.608 152.9 145.104V52.7274H3.18541Z" fill="#919EAB"/>
<path d="M154.493 52.7268H1.59271C0.637083 52.7268 0 52.0897 0 51.1341V33.6143C0 28.1991 4.14104 24.0581 9.55624 24.0581H146.529C151.944 24.0581 156.085 28.1991 156.085 33.6143V51.1341C156.085 52.0897 155.448 52.7268 154.493 52.7268ZM3.18541 49.5414H152.9V33.6143C152.9 30.1104 150.033 27.2435 146.529 27.2435H9.55624C6.05229 27.2435 3.18541 30.1104 3.18541 33.6143V49.5414Z" fill="#919EAB"/>
<path d="M15.9275 44.7626C12.4235 44.7626 9.55664 41.8958 9.55664 38.3918C9.55664 34.8879 12.4235 32.021 15.9275 32.021C19.4314 32.021 22.2983 34.8879 22.2983 38.3918C22.2983 41.8958 19.4314 44.7626 15.9275 44.7626ZM15.9275 35.2064C14.0162 35.2064 12.7421 36.4806 12.7421 38.3918C12.7421 40.3031 14.0162 41.5772 15.9275 41.5772C17.8387 41.5772 19.1129 40.3031 19.1129 38.3918C19.1129 36.4806 17.8387 35.2064 15.9275 35.2064Z" fill="#919EAB"/>
<path d="M31.8542 44.7626C28.3503 44.7626 25.4834 41.8958 25.4834 38.3918C25.4834 34.8879 28.3503 32.021 31.8542 32.021C35.3582 32.021 38.2251 34.8879 38.2251 38.3918C38.2251 41.8958 35.3582 44.7626 31.8542 44.7626ZM31.8542 35.2064C29.943 35.2064 28.6688 36.4806 28.6688 38.3918C28.6688 40.3031 29.943 41.5772 31.8542 41.5772C33.7655 41.5772 35.0396 40.3031 35.0396 38.3918C35.0396 36.4806 33.7655 35.2064 31.8542 35.2064Z" fill="#919EAB"/>
<path d="M63.7085 106.879H54.1523C53.1967 106.879 52.5596 106.242 52.5596 105.286V89.3593C52.5596 88.4037 53.1967 87.7666 54.1523 87.7666H63.7085C64.6641 87.7666 65.3012 88.4037 65.3012 89.3593V105.286C65.3012 106.242 64.6641 106.879 63.7085 106.879ZM55.745 103.694H62.1158V90.952H55.745V103.694Z" fill="#919EAB"/>
<path d="M101.934 106.879H92.3779C91.4222 106.879 90.7852 106.242 90.7852 105.286V79.8032C90.7852 78.8475 91.4222 78.2104 92.3779 78.2104H101.934C102.89 78.2104 103.527 78.8475 103.527 79.8032V105.286C103.527 106.242 102.89 106.879 101.934 106.879ZM93.9706 103.694H100.341V81.3959H93.9706V103.694Z" fill="#919EAB"/>
<path d="M82.8198 106.879H73.2636C72.308 106.879 71.6709 106.242 71.6709 105.286V68.6542C71.6709 67.6986 72.308 67.0615 73.2636 67.0615H82.8198C83.7755 67.0615 84.4126 67.6986 84.4126 68.6542V105.286C84.4126 106.242 83.7755 106.879 82.8198 106.879ZM74.8563 103.694H81.2271V70.2469H74.8563V103.694Z" fill="#919EAB"/>
<path d="M101.933 132.362H54.1523C53.1967 132.362 52.5596 131.725 52.5596 130.769C52.5596 129.813 53.1967 129.176 54.1523 129.176H101.933C102.889 129.176 103.526 129.813 103.526 130.769C103.526 131.725 102.889 132.362 101.933 132.362Z" fill="#919EAB"/>
<path d="M101.933 122.806H54.1523C53.1967 122.806 52.5596 122.169 52.5596 121.213C52.5596 120.258 53.1967 119.621 54.1523 119.621H101.933C102.889 119.621 103.526 120.258 103.526 121.213C103.526 122.169 102.889 122.806 101.933 122.806Z" fill="#919EAB"/>
<path d="M38.2256 86.1743H19.1131C17.2019 86.1743 15.9277 84.9001 15.9277 82.9889V76.618C15.9277 74.7068 17.2019 73.4326 19.1131 73.4326H38.2256C40.1369 73.4326 41.411 74.7068 41.411 76.618V82.9889C41.411 84.5816 40.1369 86.1743 38.2256 86.1743Z" fill="#0076FF" fill-opacity="0.2"/>
<path d="M38.2256 87.7669H19.1131C16.5648 87.7669 14.335 85.5371 14.335 82.9888V76.618C14.335 74.0696 16.5648 71.8398 19.1131 71.8398H38.2256C40.7739 71.8398 43.0037 74.0696 43.0037 76.618V82.9888C43.0037 85.5371 41.0924 87.7669 38.2256 87.7669ZM19.1131 75.0253C18.1575 75.0253 17.5204 75.6623 17.5204 76.618V82.9888C17.5204 83.9444 18.1575 84.5815 19.1131 84.5815H38.2256C39.1812 84.5815 39.8183 83.9444 39.8183 82.9888V76.618C39.8183 75.6623 39.1812 75.0253 38.2256 75.0253H19.1131Z" fill="#919EAB"/>
<path d="M38.2256 108.472H19.1131C17.2019 108.472 15.9277 107.198 15.9277 105.287V98.9159C15.9277 97.0046 17.2019 95.7305 19.1131 95.7305H38.2256C40.1369 95.7305 41.411 97.0046 41.411 98.9159V105.287C41.411 106.879 40.1369 108.472 38.2256 108.472Z" fill="#0076FF" fill-opacity="0.1"/>
<path d="M38.2256 110.065H19.1131C16.5648 110.065 14.335 107.835 14.335 105.287V98.9158C14.335 96.3675 16.5648 94.1377 19.1131 94.1377H38.2256C40.7739 94.1377 43.0037 96.3675 43.0037 98.9158V105.287C43.0037 107.835 41.0924 110.065 38.2256 110.065ZM19.1131 97.3231C18.1575 97.3231 17.5204 97.9602 17.5204 98.9158V105.287C17.5204 106.242 18.1575 106.879 19.1131 106.879H38.2256C39.1812 106.879 39.8183 106.242 39.8183 105.287V98.9158C39.8183 97.9602 39.1812 97.3231 38.2256 97.3231H19.1131Z" fill="#919EAB"/>
<path d="M38.2256 130.77H19.1131C17.2019 130.77 15.9277 129.496 15.9277 127.585V121.214C15.9277 119.302 17.2019 118.028 19.1131 118.028H38.2256C40.1369 118.028 41.411 119.302 41.411 121.214V127.585C41.411 129.177 40.1369 130.77 38.2256 130.77Z" fill="#0076FF" fill-opacity="0.5"/>
<path d="M38.2256 132.363H19.1131C16.5648 132.363 14.335 130.133 14.335 127.584V121.214C14.335 118.665 16.5648 116.436 19.1131 116.436H38.2256C40.7739 116.436 43.0037 118.665 43.0037 121.214V127.584C43.0037 130.133 41.0924 132.363 38.2256 132.363ZM19.1131 119.621C18.1575 119.621 17.5204 120.258 17.5204 121.214V127.584C17.5204 128.54 18.1575 129.177 19.1131 129.177H38.2256C39.1812 129.177 39.8183 128.54 39.8183 127.584V121.214C39.8183 120.258 39.1812 119.621 38.2256 119.621H19.1131Z" fill="#919EAB"/>
<path d="M127.417 92.5448C134.454 92.5448 140.159 86.8402 140.159 79.8032C140.159 72.7662 134.454 67.0615 127.417 67.0615C120.38 67.0615 114.676 72.7662 114.676 79.8032C114.676 86.8402 120.38 92.5448 127.417 92.5448Z" fill="#0076FF" fill-opacity="0.1"/>
<path d="M127.417 94.1375C119.454 94.1375 113.083 87.7666 113.083 79.8031C113.083 71.8396 119.454 65.4688 127.417 65.4688C135.381 65.4688 141.752 71.8396 141.752 79.8031C141.752 87.7666 135.381 94.1375 127.417 94.1375ZM127.417 68.6542C121.365 68.6542 116.268 73.7508 116.268 79.8031C116.268 85.8554 121.365 90.9521 127.417 90.9521C133.47 90.9521 138.566 85.8554 138.566 79.8031C138.566 73.7508 133.788 68.6542 127.417 68.6542Z" fill="#919EAB"/>
<path d="M140.158 81.3958H127.416C126.46 81.3958 125.823 80.7587 125.823 79.8031V67.0615C125.823 66.1058 126.46 65.4688 127.416 65.4688C128.372 65.4688 129.009 66.1058 129.009 67.0615V78.2104H140.158C141.113 78.2104 141.75 78.8475 141.75 79.8031C141.75 80.7587 141.113 81.3958 140.158 81.3958Z" fill="#919EAB"/>
<path d="M140.159 132.363H114.676C113.72 132.363 113.083 131.726 113.083 130.77V105.287C113.083 104.331 113.72 103.694 114.676 103.694C115.631 103.694 116.268 104.331 116.268 105.287V129.178H140.159C141.115 129.178 141.752 129.815 141.752 130.77C141.752 131.726 141.115 132.363 140.159 132.363Z" fill="#919EAB"/>
<path d="M114.676 132.362C114.357 132.362 113.72 132.362 113.402 132.044C112.765 131.407 112.765 130.451 113.402 129.814L138.885 104.33C139.522 103.693 140.478 103.693 141.115 104.33C141.752 104.967 141.752 105.923 141.115 106.56L115.631 132.044C115.631 132.044 115.313 132.362 114.676 132.362Z" fill="#919EAB"/>
<path fill-rule="evenodd" clip-rule="evenodd" d="M156.378 1.71826C145.939 1.71826 137.476 10.1816 137.476 20.6212C137.476 31.0607 145.939 39.5241 156.378 39.5241C166.818 39.5241 175.281 31.0607 175.281 20.6212C175.281 10.1816 166.818 1.71826 156.378 1.71826ZM158.097 27.495C158.097 27.9507 157.916 28.3878 157.594 28.7101C157.271 29.0324 156.834 29.2134 156.378 29.2134C155.923 29.2134 155.486 29.0324 155.163 28.7101C154.841 28.3878 154.66 27.9507 154.66 27.495V22.3396H149.505C149.049 22.3396 148.612 22.1586 148.29 21.8363C147.967 21.514 147.786 21.0769 147.786 20.6212C147.786 20.1654 147.967 19.7283 148.29 19.406C148.612 19.0838 149.049 18.9027 149.505 18.9027H154.66V13.7474C154.66 13.2916 154.841 12.8545 155.163 12.5323C155.486 12.21 155.923 12.0289 156.378 12.0289C156.834 12.0289 157.271 12.21 157.594 12.5323C157.916 12.8545 158.097 13.2916 158.097 13.7474V18.9027H163.252C163.708 18.9027 164.145 19.0838 164.467 19.406C164.79 19.7283 164.971 20.1654 164.971 20.6212C164.971 21.0769 164.79 21.514 164.467 21.8363C164.145 22.1586 163.708 22.3396 163.252 22.3396H158.097V27.495Z" fill="#919EAB"/>
</svg>
