<svg width="11" height="12" viewBox="0 0 11 12" fill="none" xmlns="http://www.w3.org/2000/svg">
<path d="M9.89974 9.1373H9.19922C9.14453 9.1373 9.09896 9.18811 9.09896 9.24909V10.1463H0.89974V1.00316H9.10026V1.90034C9.10026 1.96131 9.14583 2.01212 9.20052 2.01212H9.90104C9.95573 2.01212 10.0013 1.96276 10.0013 1.90034V0.445687C10.0013 0.198889 9.82292 0 9.60156 0H0.39974C0.178385 0 0 0.198889 0 0.445687V10.7037C0 10.9505 0.178385 11.1494 0.39974 11.1494H9.60026C9.82161 11.1494 10 10.9505 10 10.7037V9.24909C10 9.18666 9.95443 9.1373 9.89974 9.1373ZM10.1419 5.48325L8.29427 3.8573C8.22526 3.79632 8.125 3.85149 8.125 3.94876V5.05208H4.03646C3.97917 5.05208 3.93229 5.10435 3.93229 5.16822V5.9812C3.93229 6.04508 3.97917 6.09734 4.03646 6.09734H8.125V7.20067C8.125 7.29794 8.22656 7.3531 8.29427 7.29213L10.1419 5.66617C10.1544 5.65531 10.1644 5.64143 10.1714 5.62558C10.1783 5.60974 10.1819 5.59234 10.1819 5.57471C10.1819 5.55709 10.1783 5.53969 10.1714 5.52384C10.1644 5.508 10.1544 5.49412 10.1419 5.48325Z" fill="#0076FF"/>
</svg>
