<svg width="120" height="107" viewBox="0 0 120 107" fill="none" xmlns="http://www.w3.org/2000/svg">
<path d="M84.9916 105.69C77.1431 105.897 67.7455 105.69 61.2395 105.586C54.6302 105.69 45.2326 105.897 37.4873 105.69C42.9606 102.583 45.8522 97.6127 47.298 93.0565C47.9176 91.1925 48.2274 89.3286 48.3307 87.7754H74.2515C74.3548 89.3286 74.6646 91.1925 75.2842 93.0565C76.73 97.6127 79.6216 102.687 84.9916 105.69Z" fill="url(#paint0_linear)"/>
<path d="M22.9263 106H111.842" stroke="#182052" stroke-miterlimit="10" stroke-linecap="round" stroke-linejoin="round"/>
<path d="M13.2188 106H17.6594" stroke="#182052" stroke-miterlimit="10" stroke-linecap="round" stroke-linejoin="round"/>
<path opacity="0.2" d="M75.2843 93.0565H47.1948C47.8144 91.1925 48.1243 89.3286 48.2275 87.7754H74.1484C74.3549 89.3286 74.6647 91.1925 75.2843 93.0565Z" fill="#89B3E4"/>
<path d="M40.9985 103.101C44.1999 100.201 46.162 96.4736 47.1947 93.0565C47.8144 91.1925 48.1242 89.3286 48.2275 87.7754H74.1483C74.2515 89.3286 74.5614 91.1925 75.181 93.0565C76.6268 97.6127 79.5183 102.583 84.9917 105.69" stroke="#182052" stroke-miterlimit="10" stroke-linecap="round" stroke-linejoin="round"/>
<path d="M109.983 19.3286V86.9469C109.983 88.5002 108.64 89.8463 107.091 89.8463H15.3872C13.8381 89.8463 12.4956 88.5002 12.4956 86.9469V19.3286C12.4956 17.7754 13.8381 16.4292 15.3872 16.4292H106.988C108.64 16.4292 109.983 17.6718 109.983 19.3286Z" fill="white"/>
<path d="M100.069 89.8463H15.3872C13.8381 89.8463 12.4956 88.5002 12.4956 86.9469V19.3286C12.4956 17.7754 13.8381 16.4292 15.3872 16.4292H106.988C108.537 16.4292 109.879 17.7754 109.879 19.3286V86.9469C109.879 88.5002 108.537 89.8463 106.988 89.8463" stroke="#182052" stroke-miterlimit="10" stroke-linecap="round" stroke-linejoin="round"/>
<path d="M73.8381 76.4883H12.4956" stroke="#182052" stroke-miterlimit="10" stroke-linecap="round" stroke-linejoin="round"/>
<path d="M77.1428 76.4883H76.4199" stroke="#182052" stroke-miterlimit="10" stroke-linecap="round" stroke-linejoin="round"/>
<path d="M61.2395 85.2902C62.5513 85.2902 63.6147 84.2239 63.6147 82.9085C63.6147 81.5932 62.5513 80.5269 61.2395 80.5269C59.9277 80.5269 58.8643 81.5932 58.8643 82.9085C58.8643 84.2239 59.9277 85.2902 61.2395 85.2902Z" fill="#C0D6FF"/>
<path d="M77.556 66.0295H45.3357C43.7866 66.0295 42.5474 64.7869 42.5474 63.2336V30.3046C42.5474 28.7514 43.7866 27.5088 45.3357 27.5088H77.556C79.105 27.5088 80.3443 28.7514 80.3443 30.3046V63.3372C80.3443 64.7869 79.105 66.0295 77.556 66.0295Z" fill="#E2EBFF"/>
<path d="M61.2395 40.3491C63.2357 40.3491 64.8539 38.7265 64.8539 36.7248C64.8539 34.7232 63.2357 33.1006 61.2395 33.1006C59.2432 33.1006 57.625 34.7232 57.625 36.7248C57.625 38.7265 59.2432 40.3491 61.2395 40.3491Z" fill="#C0D6FF"/>
<path d="M74.0448 46.976H48.3306C47.9175 46.976 47.5044 46.5618 47.5044 46.1476V43.6624C47.5044 43.2482 47.9175 42.834 48.3306 42.834H73.9416C74.3547 42.834 74.7677 43.2482 74.7677 43.6624V46.1476C74.871 46.5618 74.4579 46.976 74.0448 46.976Z" fill="#C0D6FF"/>
<path d="M74.0448 53.914H48.3306C47.9175 53.914 47.5044 53.4998 47.5044 53.0856V50.6004C47.5044 50.1862 47.9175 49.772 48.3306 49.772H73.9416C74.3547 49.772 74.7677 50.1862 74.7677 50.6004V53.0856C74.871 53.6033 74.4579 53.914 74.0448 53.914Z" fill="#C0D6FF"/>
<path d="M74.1483 55.9854H65.3704C64.9573 55.9854 64.6475 56.296 64.6475 56.7102V58.6777C64.6475 59.0919 64.9573 59.4025 65.3704 59.4025H74.1483C74.5614 59.4025 74.8712 59.0919 74.8712 58.6777V56.7102C74.8712 56.296 74.5614 55.9854 74.1483 55.9854Z" fill="#495968"/>
<path d="M72.2895 57.3311H67.2292C67.0227 57.3311 66.9194 57.4346 66.9194 57.6417V57.8488C66.9194 58.0559 67.0227 58.1595 67.2292 58.1595H72.2895C72.496 58.1595 72.5993 58.0559 72.5993 57.8488V57.6417C72.496 57.4346 72.3928 57.3311 72.2895 57.3311Z" fill="white"/>
<path d="M62.3756 51.5327H49.7766C49.5701 51.5327 49.4668 51.6363 49.4668 51.8434V52.0505C49.4668 52.2576 49.5701 52.3611 49.7766 52.3611H62.3756C62.5821 52.3611 62.6854 52.2576 62.6854 52.0505V51.8434C62.5821 51.7398 62.4788 51.5327 62.3756 51.5327Z" fill="white"/>
<path d="M62.3756 44.4912H49.7766C49.5701 44.4912 49.4668 44.5948 49.4668 44.8019V45.009C49.4668 45.2161 49.5701 45.3196 49.7766 45.3196H62.3756C62.5821 45.3196 62.6854 45.2161 62.6854 45.009V44.8019C62.5821 44.5948 62.4788 44.4912 62.3756 44.4912Z" fill="white"/>
<path d="M108.64 78.1448C108.64 82.1833 106.885 85.9111 104.096 88.4999C101.618 90.778 98.21 92.2277 94.5955 92.2277C91.6007 92.2277 88.9157 91.2957 86.6437 89.7425C83.0293 87.2573 80.5508 83.0117 80.5508 78.1448C80.5508 70.3786 86.8503 64.062 94.5955 64.062C102.341 64.062 108.64 70.3786 108.64 78.1448Z" fill="#E2EBFF"/>
<path d="M102.65 88.8101C102.547 88.4995 104.199 88.8101 104.096 88.4995C103.993 88.3959 103.993 88.1888 103.89 88.0853C103.373 86.9462 102.444 85.8072 101.205 85.2894C100.585 84.9788 99.9653 84.7717 99.2425 84.7717C99.0359 84.7717 98.8294 84.7717 98.7261 84.7717C97.4869 84.7717 97.3836 84.5646 97.3836 84.5646V82.5971C98.0032 82.0794 98.6228 81.458 99.0359 80.8367C99.449 80.2154 99.8621 79.4906 99.9654 78.6622C100.792 78.4551 101.205 77.7302 101.205 77.0054C101.205 76.6947 100.998 76.2805 100.895 75.9699C100.895 75.7628 100.895 75.6592 100.895 75.4521C100.895 75.3486 100.895 75.245 100.895 75.1415C100.895 75.0379 100.895 74.9344 100.895 74.7273C100.792 74.106 100.688 73.4847 100.275 72.7598C99.2425 70.8959 97.2803 69.6533 95.1116 69.6533C94.6986 69.6533 94.1822 69.7569 93.7691 69.8604C92.943 70.0675 92.2201 70.3782 91.6005 70.8959C91.4972 70.9995 91.2907 71.103 91.1874 71.2066L91.0841 71.3101C90.3612 71.9314 89.8449 72.7598 89.5351 73.6918C89.2252 74.6237 89.122 75.5557 89.3285 76.4876C89.3285 76.4876 89.3285 76.4876 89.3285 76.5912C89.3285 76.5912 89.3285 76.5912 89.3285 76.6947C89.3285 76.9018 89.4318 76.7983 89.3285 77.0054C89.3285 77.0054 89.2252 77.1089 89.2252 77.2125C89.122 77.5231 88.9154 77.8338 89.122 78.3515C89.4318 79.1799 90.0514 79.0764 90.5678 79.5941C90.5678 79.5941 90.4645 79.5941 90.4645 79.6977L89.8449 79.387C87.1598 80.2154 86.1271 82.5971 87.3664 84.0468C87.7795 84.5646 88.5024 85.0823 89.5351 85.1859C89.2252 85.1859 89.0187 85.393 88.8122 85.4965C87.5729 86.4285 86.85 87.8782 86.6435 89.3279C86.5402 89.7421 86.9533 90.1563 87.3664 90.1563L101.927 90.0527C102.341 90.1563 102.754 89.2243 102.65 88.8101ZM91.7037 81.2509C91.9103 81.458 92.0135 81.6651 92.2201 81.8722C92.4266 81.9758 92.5299 82.1829 92.7364 82.2864C92.8397 82.39 92.943 82.4936 93.1495 82.5971C93.1495 82.5971 93.2528 82.5971 93.2528 82.7007L93.3561 82.8042V84.0468C93.3561 84.0468 93.3561 84.0468 93.2528 83.9433C93.1495 83.8397 93.0462 83.7362 92.943 83.6326C92.7364 83.5291 92.6332 83.4255 92.4266 83.322C92.3234 83.322 92.3234 83.2184 92.2201 83.2184C91.7037 82.9078 91.0841 82.4936 91.0841 82.0794C91.0841 81.8723 91.2907 81.5616 91.7037 81.2509Z" fill="white"/>
<path d="M104.096 88.3964C101.618 90.7781 98.2098 92.1242 94.5954 92.1242C91.6005 92.1242 88.9155 91.1923 86.6436 89.639C86.6436 89.5355 86.6436 89.5355 86.6436 89.4319C86.8501 87.9822 87.573 86.5325 88.8122 85.6006C89.0188 85.497 89.2253 85.2899 89.5351 85.2899C88.5024 85.0828 87.7795 84.6686 87.3664 84.1509H90.6711C91.6005 85.3935 93.1496 86.3254 94.8019 86.3254C96.2477 86.3254 97.5902 85.7041 98.5196 84.7722C98.6229 84.7722 98.7262 84.7722 98.8294 84.7722C99.036 84.7722 99.1392 84.7722 99.3458 84.7722C100.069 84.7722 100.688 84.9793 101.308 85.2899C102.547 85.9112 103.373 86.9467 103.993 88.0858C103.993 88.0858 104.096 88.2929 104.096 88.3964Z" fill="#495968"/>
<path d="M93.2529 82.7013C94.2856 83.219 95.6281 83.5297 97.487 82.3906" stroke="#182052" stroke-miterlimit="10" stroke-linecap="round" stroke-linejoin="round"/>
<path d="M94.0787 87.6718C93.5623 88.2931 92.7362 88.2931 91.91 88.2931C92.7362 87.5682 92.2198 84.9795 89.4315 85.2901C85.6105 84.5653 86.0236 80.5268 89.7413 79.3878L90.361 79.1807L90.4642 79.2842C90.774 80.1126 91.1871 80.7339 91.6002 81.2517C90.0512 82.4943 92.2198 82.9085 93.2525 83.944C94.182 84.4617 94.9049 86.6363 94.0787 87.6718Z" fill="#1C3754"/>
<path d="M100.998 74.8314C99.9654 75.2456 98.7262 75.3491 97.5902 75.2456C95.8346 75.142 94.079 74.4172 92.6332 73.1746C92.2202 74.5207 91.0842 75.4527 89.845 76.074C89.6384 76.1775 89.5351 76.1776 89.3286 76.2811C89.3286 76.2811 89.3286 76.2811 89.3286 76.1775C89.2253 75.2456 89.3286 74.2101 89.5351 73.3817C89.8449 72.4497 90.3613 71.6213 91.0842 71L91.1875 70.8965C91.2907 70.7929 91.394 70.6894 91.6005 70.5858C92.2202 70.0681 93.0463 69.7574 93.7692 69.5503C94.1823 69.4468 94.6987 69.4468 95.1117 69.4468C97.3837 69.4468 99.3458 70.6894 100.275 72.5533C100.688 73.2781 100.792 73.8994 100.895 74.5207C100.998 74.6243 100.998 74.7278 100.998 74.8314Z" fill="#1C3754"/>
<path d="M103.89 87.9823C103.373 86.8432 102.444 85.7042 101.205 85.1864C100.585 84.8758 99.9655 84.6687 99.2426 84.6687C99.036 84.6687 98.8295 84.6687 98.7262 84.6687C97.487 84.6687 97.3837 84.4616 97.3837 84.4616V82.4941C98.0033 81.9764 98.6229 81.3551 99.036 80.7338C99.4491 80.1125 99.8622 79.3876 99.9655 78.5592C100.792 78.3521 101.824 77.6273 100.998 76.2811C100.792 75.9705 100.895 76.1776 100.895 75.7634C100.895 75.5563 100.895 75.4527 100.895 75.2456C100.895 75.142 100.895 75.0385 100.895 74.9349C100.895 74.8314 100.895 74.7278 100.895 74.5207C100.792 73.8994 100.688 73.2781 100.275 72.5533C99.2426 70.6894 97.2804 69.4468 95.1117 69.4468C94.6987 69.4468 94.1823 69.5503 93.7692 69.6539C92.9431 69.861 92.2202 70.1716 91.6006 70.6894C91.4973 70.7929 91.2908 70.8965 91.1875 71L91.0842 71.1036C90.3613 71.7249 89.845 72.5533 89.5352 73.4852C89.2253 74.4172 89.1221 75.3491 89.3286 76.2811C89.3286 76.2811 89.3286 76.2811 89.3286 76.3847C89.3286 76.3847 89.3286 76.3846 89.3286 76.4882C89.3286 76.6953 89.4319 76.5918 89.3286 76.7989C89.3286 76.7989 89.2253 76.9024 89.2253 77.006C89.1221 77.3166 88.9155 77.6273 89.1221 78.145C89.4319 78.9734 90.0515 78.8699 90.5679 79.3876C90.5679 79.3876 90.4646 79.3876 90.4646 79.4912L89.845 79.3876C87.1599 80.216 86.1272 82.5977 87.3665 84.0474C87.7796 84.5651 88.5025 85.0829 89.5352 85.1864C89.2253 85.1864 89.0188 85.3935 88.8123 85.4971C88.0894 86.0148 87.573 86.7397 87.1599 87.5681" stroke="#182052" stroke-miterlimit="10" stroke-linecap="round" stroke-linejoin="round"/>
<path d="M87.883 65.7188C89.8451 64.6833 92.117 64.062 94.5955 64.062C102.341 64.062 108.64 70.3786 108.64 78.1448C108.64 82.1833 106.885 85.9111 104.096 88.4999C101.618 90.778 98.21 92.2277 94.5955 92.2277C91.6007 92.2277 88.9157 91.2957 86.6437 89.7425C83.0293 87.2573 80.5508 83.0117 80.5508 78.1448C80.5508 75.0383 81.5835 72.1389 83.3391 69.7573C83.3391 69.6537 83.4424 69.6537 83.4424 69.5502L83.5456 69.4466" stroke="#182052" stroke-miterlimit="10" stroke-linecap="round" stroke-linejoin="round"/>
<path d="M36.1444 17.775C36.1444 22.1241 34.3888 26.1626 31.6005 29.062C31.3939 29.2691 31.0841 29.5797 30.8776 29.7868C27.986 32.4791 24.0618 34.1359 19.7244 34.1359C16.3165 34.1359 13.0118 33.1004 10.4301 31.2365C9.60393 30.7188 8.88104 30.0975 8.26142 29.4762C5.26658 26.4732 3.40771 22.3312 3.40771 17.775C3.40771 8.66258 10.7399 1.41406 19.7244 1.41406C28.8122 1.41406 36.1444 8.76613 36.1444 17.775Z" fill="#E9F0F8"/>
<path d="M36.1444 17.775C36.1444 22.5383 34.079 26.7839 30.8776 29.7868C27.986 32.4791 24.0618 34.1359 19.7244 34.1359C16.3165 34.1359 13.0118 33.1004 10.4301 31.2365C6.19601 28.2336 3.40771 23.3667 3.40771 17.775C3.40771 8.66258 10.7399 1.41406 19.7244 1.41406C28.7089 1.41406 36.1444 8.76613 36.1444 17.775Z" fill="#E2EBFF"/>
<path d="M31.6008 29.1655C31.3942 29.3726 31.0844 29.6833 30.8779 29.8904C27.9863 32.5827 24.0621 34.2395 19.7247 34.2395C16.3168 34.2395 13.0121 33.204 10.4304 31.3401C9.60423 30.8223 8.88134 30.201 8.26172 29.5797C8.57153 29.062 9.29442 28.7513 10.5337 28.2336L11.05 28.0265C12.0827 27.6123 13.322 27.0945 15.1808 26.3697C15.4906 26.2661 15.6972 26.059 15.8004 25.8519C15.9037 25.7484 16.007 25.6448 16.007 25.4377C16.1103 25.2306 16.1103 25.0235 16.1103 24.7129V21.3992C16.1103 21.2957 16.007 21.2957 16.007 21.1921C15.6972 20.7779 15.4906 20.2602 15.4906 19.7424L15.1808 19.6389C14.3547 19.846 14.3547 18.914 14.1481 17.1537C14.0449 16.4288 14.1481 16.3253 14.4579 16.1182L14.7677 15.704C14.1481 14.2543 13.8383 13.1152 13.8383 12.0797C13.8383 10.4229 14.5612 9.38741 15.4906 8.86966C14.9743 7.73061 14.9743 7.31641 14.9743 7.31641C14.9743 7.31641 18.3822 7.93771 19.6214 7.62706C21.1705 7.31641 23.4424 7.73061 24.2686 9.69806C25.7144 10.2158 26.2307 11.1478 26.334 12.1833C26.5405 13.7365 25.6111 15.4969 25.5078 16.1182C25.5078 16.1182 25.5078 16.1182 25.5078 16.2217C25.7144 16.3253 25.8177 16.5324 25.7144 17.1537C25.5078 18.8105 25.6111 19.846 24.6817 19.6389L23.9588 20.985C23.9588 21.0886 23.9588 21.1921 23.8555 21.2957C23.8555 21.5028 23.8555 22.0205 23.8555 24.8164C23.8555 25.1271 23.9588 25.4377 24.1653 25.7484C24.1653 25.8519 24.2686 25.8519 24.3719 25.9555C24.5784 26.1626 24.785 26.2661 24.9915 26.3697C26.9536 27.1981 28.3994 27.7158 29.4321 28.13C30.5681 28.5442 31.1877 28.8549 31.6008 29.1655Z" fill="white"/>
<path d="M31.6008 29.1657C31.3942 29.3728 31.0844 29.6834 30.8779 29.8905C27.9863 32.5828 24.0621 34.2396 19.7247 34.2396C16.3168 34.2396 13.0121 33.2041 10.4304 31.3402C9.60423 30.8225 8.88134 30.2012 8.26172 29.5799C8.57153 29.0621 9.29442 28.7515 10.5337 28.2337L11.05 28.0266C12.0827 27.6124 13.322 27.0947 15.1808 26.3698C15.4906 26.2663 15.6972 26.0592 15.8004 25.8521C16.7299 27.1982 18.3822 28.1302 20.1378 28.1302C21.8934 28.1302 23.4424 27.3018 24.4751 25.9556C24.6817 26.1627 24.8882 26.2663 25.0948 26.3698C27.0569 27.1982 28.5027 27.716 29.5354 28.1302C30.5681 28.5444 31.1877 28.855 31.6008 29.1657Z" fill="#89B3E4"/>
<path d="M25.7145 16.2217C25.8178 15.8075 25.6112 15.2897 25.4047 14.8755C25.4047 14.772 25.3014 14.772 25.3014 14.6684C24.6818 13.3223 23.1327 12.8045 21.7902 12.701C18.1758 12.4939 17.866 13.2187 16.73 12.1832C17.0398 12.701 17.1431 13.5294 16.5234 14.5649C16.1104 15.2897 15.3875 15.6004 14.7678 15.8075C13.1155 12.0797 13.9417 9.80158 15.594 8.97318C15.0777 7.83412 14.9744 7.41992 14.9744 7.41992C14.9744 7.41992 18.3823 8.04122 19.6215 7.73057C21.1706 7.41992 23.4425 7.83412 24.2687 9.80158C25.7145 10.3193 26.2308 11.2513 26.3341 12.2868C26.7472 13.84 25.8178 15.4968 25.7145 16.2217Z" fill="#1C3754"/>
<path d="M16.1104 21.0884C16.3169 21.399 16.5234 21.7097 16.8332 21.9168L19.415 23.7807C20.0346 24.2984 20.8608 24.2984 21.4804 23.7807L22.6164 22.7452" stroke="#182052" stroke-miterlimit="10" stroke-linecap="round" stroke-linejoin="round"/>
<path d="M31.6008 29.1655C31.3942 29.3726 31.0844 29.6833 30.8779 29.8904C27.9863 32.5827 24.0621 34.2395 19.7247 34.2395C16.3168 34.2395 13.0121 33.204 10.4304 31.3401C9.60423 30.8223 8.88134 30.201 8.26172 29.5797C8.57153 29.062 9.29442 28.7513 10.5337 28.2336L11.05 28.0265C12.0827 27.6123 13.322 27.0945 15.1808 26.3697C15.4906 26.2661 15.6972 26.059 15.8004 25.8519C15.9037 25.7484 16.007 25.6448 16.007 25.4377C16.1103 25.2306 16.1103 25.0235 16.1103 24.7129V21.3992C16.1103 21.2957 16.007 21.2957 16.007 21.1921C15.6972 20.7779 15.4906 20.2602 15.4906 19.7424L15.1808 19.6389C14.3547 19.846 14.3547 18.914 14.1481 17.1537C14.0449 16.4288 14.1481 16.3253 14.4579 16.1182L14.7677 15.704C14.1481 14.2543 13.8383 13.1152 13.8383 12.0797C13.8383 10.4229 14.5612 9.38741 15.4906 8.86966C14.9743 7.73061 14.9743 7.31641 14.9743 7.31641C14.9743 7.31641 18.3822 7.93771 19.6214 7.62706C21.1705 7.31641 23.4424 7.73061 24.2686 9.69806C25.7144 10.2158 26.2307 11.1478 26.334 12.1833C26.5405 13.7365 25.6111 15.4969 25.5078 16.1182C25.5078 16.1182 25.5078 16.1182 25.5078 16.2217C25.7144 16.3253 25.8177 16.5324 25.7144 17.1537C25.5078 18.8105 25.6111 19.846 24.6817 19.6389L23.9588 20.985C23.9588 21.0886 23.9588 21.1921 23.8555 21.2957C23.8555 21.5028 23.8555 22.0205 23.8555 24.8164C23.8555 25.1271 23.9588 25.4377 24.1653 25.7484C24.1653 25.8519 24.2686 25.8519 24.3719 25.9555C24.5784 26.1626 24.785 26.2661 24.9915 26.3697C26.9536 27.1981 28.3994 27.7158 29.4321 28.13C30.5681 28.5442 31.1877 28.8549 31.6008 29.1655Z" stroke="#182052" stroke-miterlimit="10" stroke-linecap="round" stroke-linejoin="round"/>
<path d="M3.40771 17.0502C3.8208 8.35193 10.9464 1.41406 19.7244 1.41406C28.8122 1.41406 36.1444 8.76613 36.1444 17.775C36.1444 22.5383 34.079 26.7839 30.8776 29.7868C27.986 32.4791 24.0618 34.1359 19.7244 34.1359C16.3165 34.1359 13.0118 33.1004 10.4301 31.2365C8.05488 29.5797 6.19601 27.3016 4.95677 24.7129C4.95677 24.6093 4.8535 24.6093 4.8535 24.5058" stroke="#182052" stroke-miterlimit="10" stroke-linecap="round" stroke-linejoin="round"/>
<path d="M56.0754 9.80154C57.5013 9.80154 58.6572 8.64251 58.6572 7.21278C58.6572 5.78305 57.5013 4.62402 56.0754 4.62402C54.6495 4.62402 53.4937 5.78305 53.4937 7.21278C53.4937 8.64251 54.6495 9.80154 56.0754 9.80154Z" fill="#EFF3FF"/>
<path d="M40.9983 9.18038C41.9679 9.18038 42.7539 8.39224 42.7539 7.42002C42.7539 6.44781 41.9679 5.65967 40.9983 5.65967C40.0287 5.65967 39.2427 6.44781 39.2427 7.42002C39.2427 8.39224 40.0287 9.18038 40.9983 9.18038Z" fill="#EFF3FF"/>
<path d="M4.33738 71.9318C5.24994 71.9318 5.98971 71.19 5.98971 70.275C5.98971 69.3599 5.24994 68.6182 4.33738 68.6182C3.42483 68.6182 2.68506 69.3599 2.68506 70.275C2.68506 71.19 3.42483 71.9318 4.33738 71.9318Z" fill="#EAEEF9"/>
<path d="M116.695 67.1687C117.322 67.1687 117.831 66.6588 117.831 66.0297C117.831 65.4006 117.322 64.8906 116.695 64.8906C116.068 64.8906 115.559 65.4006 115.559 66.0297C115.559 66.6588 116.068 67.1687 116.695 67.1687Z" fill="#FFB5D7"/>
<path d="M5.57659 52.4647H3.71773V50.6008C3.71773 50.2901 3.40792 49.9795 3.09811 49.9795C2.7883 49.9795 2.47849 50.2901 2.47849 50.6008V52.4647H0.619621C0.309811 52.4647 0 52.7753 0 53.086C0 53.5002 0.309811 53.7073 0.619621 53.7073H2.47849V55.5712C2.47849 55.8819 2.7883 56.1925 3.09811 56.1925C3.40792 56.1925 3.71773 55.8819 3.71773 55.5712V53.7073H5.57659C5.98967 53.7073 6.19621 53.5002 6.19621 53.086C6.19621 52.7753 5.98967 52.4647 5.57659 52.4647Z" fill="#FFB5D7"/>
<path d="M112.461 3.48521H110.602V1.6213C110.602 1.31065 110.292 1 109.983 1C109.673 1 109.363 1.31065 109.363 1.6213V3.48521H107.401C107.091 3.48521 106.781 3.79586 106.781 4.10651C106.781 4.41716 107.091 4.72781 107.401 4.72781H109.26V6.59172C109.26 6.90237 109.57 7.21302 109.879 7.21302C110.189 7.21302 110.499 6.90237 110.499 6.59172V4.72781H112.358C112.668 4.72781 112.977 4.41716 112.977 4.10651C112.977 3.79586 112.771 3.48521 112.461 3.48521Z" fill="#E2EBFF"/>
<path d="M3.40818 35.8966C4.32074 35.8966 5.06051 35.1548 5.06051 34.2398C5.06051 33.3248 4.32074 32.583 3.40818 32.583C2.49563 32.583 1.75586 33.3248 1.75586 34.2398C1.75586 35.1548 2.49563 35.8966 3.40818 35.8966Z" fill="#FFB5D7"/>
<path d="M118.348 19.4318C119.26 19.4318 120 18.69 120 17.775C120 16.8599 119.26 16.1182 118.348 16.1182C117.435 16.1182 116.695 16.8599 116.695 17.775C116.695 18.69 117.435 19.4318 118.348 19.4318Z" fill="#E2EBFF"/>
<defs>
<linearGradient id="paint0_linear" x1="61.2425" y1="105.281" x2="61.2425" y2="89.1623" gradientUnits="userSpaceOnUse">
<stop stop-color="#E2EBFF"/>
<stop offset="0.9913" stop-color="#C0D6FF"/>
</linearGradient>
</defs>
</svg>
