<svg width="120" height="103" viewBox="0 0 120 103" fill="none" xmlns="http://www.w3.org/2000/svg">
<path d="M106.617 52.1292C106.617 63.6721 102.723 74.2956 96.2673 82.8762C92.6809 87.473 88.3773 91.559 83.4589 94.7256C75.4664 99.9352 65.9369 103 55.6901 103C27.5115 103 4.76367 80.2203 4.76367 52.2313C4.76367 24.1401 27.614 1.46289 55.6901 1.46289C65.9369 1.46289 75.4664 4.52738 83.4589 9.63487C88.3773 12.8015 92.6809 16.8875 96.2673 21.4842C102.825 29.9627 106.617 40.5862 106.617 52.1292Z" fill="#E2EBFF"/>
<path d="M13.8669 12.1719C15.2124 11.7359 15.9486 10.2951 15.5113 8.95386C15.074 7.61257 13.6288 6.87866 12.2833 7.31462C10.9379 7.75059 10.2017 9.19133 10.639 10.5326C11.0763 11.8739 12.5215 12.6078 13.8669 12.1719Z" fill="#E2EBFF"/>
<path d="M19.4591 3.83987C20.374 3.54342 20.8746 2.56372 20.5772 1.65165C20.2798 0.739576 19.2971 0.240513 18.3822 0.536962C17.4673 0.833411 16.9667 1.81311 17.264 2.72519C17.5614 3.63726 18.5441 4.13632 19.4591 3.83987Z" fill="#E2EBFF"/>
<path d="M2.73347 75.1143C3.64839 74.8178 4.149 73.8381 3.85163 72.9261C3.55426 72.014 2.57151 71.5149 1.6566 71.8114C0.741683 72.1078 0.241067 73.0875 0.538439 73.9996C0.835811 74.9117 1.81856 75.4107 2.73347 75.1143Z" fill="#89B3E4"/>
<path d="M117.126 37.3355C118.713 35.8893 118.824 33.434 117.374 31.8515C115.923 30.2689 113.46 30.1584 111.872 31.6046C110.285 33.0508 110.174 35.506 111.625 37.0886C113.076 38.6711 115.538 38.7817 117.126 37.3355Z" fill="#E2EBFF"/>
<path d="M117.42 19.933C118.088 19.3241 118.135 18.2903 117.524 17.6239C116.913 16.9576 115.876 16.9111 115.208 17.52C114.539 18.1289 114.493 19.1627 115.104 19.8291C115.714 20.4954 116.751 20.542 117.42 19.933Z" fill="#495968"/>
<path d="M5.68555 97.1777H111.227" stroke="#182052" stroke-miterlimit="10" stroke-linecap="round" stroke-linejoin="round"/>
<path d="M43.5988 6.5708H87.9674C89.5044 6.5708 90.8364 7.7966 90.8364 9.43099V94.1131C90.8364 95.6454 89.6068 96.9733 87.9674 96.9733H25.0522C23.5152 96.9733 22.1831 95.7475 22.1831 94.1131V9.32884C22.1831 7.7966 23.5152 6.5708 25.0522 6.5708H37.6557" fill="#E2EBFF"/>
<path d="M43.5988 6.5708H87.9674C89.5044 6.5708 90.8365 7.7966 90.8365 9.43099V94.1131C90.8365 95.6454 89.6068 96.9733 87.9674 96.9733H25.0522C23.5152 96.9733 22.1831 95.7475 22.1831 94.1131V9.32884C22.1831 7.7966 23.5152 6.5708 25.0522 6.5708H37.6557" stroke="#182052" stroke-miterlimit="10" stroke-linecap="round" stroke-linejoin="round"/>
<path d="M25.4619 87.984V90.8442C25.4619 91.355 25.8718 91.7636 26.3841 91.7636H86.6351C87.1475 91.7636 87.5573 91.355 87.5573 90.8442V13.1083C87.5573 12.5976 87.1475 12.189 86.6351 12.189H26.3841C25.8718 12.189 25.4619 12.5976 25.4619 13.1083V82.1615" fill="white"/>
<path d="M25.4619 87.984V90.8442C25.4619 91.355 25.8718 91.7636 26.3841 91.7636H86.6351C87.1475 91.7636 87.5573 91.355 87.5573 90.8442V13.1083C87.5573 12.5976 87.1475 12.189 86.6351 12.189H26.3841C25.8718 12.189 25.4619 12.5976 25.4619 13.1083V82.1615" stroke="#182052" stroke-miterlimit="10" stroke-linecap="round" stroke-linejoin="round"/>
<path d="M43.5985 12.189H87.5571C87.5571 12.189 87.4547 16.8879 86.0201 46.6134C86.0201 46.8177 86.0201 47.022 86.0201 47.2263C84.2782 76.4411 58.1489 82.5701 54.9724 82.8766C53.5379 82.9787 50.7712 83.183 45.7503 83.2852C40.6269 83.3873 33.2493 83.5916 22.3877 83.6938" fill="white"/>
<path d="M43.5985 12.189H87.5571C87.5571 12.189 87.4547 16.8879 86.0201 46.6134C86.0201 46.8177 86.0201 47.022 86.0201 47.2263C84.2782 76.4411 58.1489 82.5701 54.9724 82.8766C53.5379 82.9787 50.7712 83.183 45.7503 83.2852C40.6269 83.3873 33.2493 83.5916 22.3877 83.6938" stroke="#182052" stroke-miterlimit="10" stroke-linecap="round" stroke-linejoin="round"/>
<path d="M23.9487 54.9326V44.4326L28.4487 39.4326L27.4487 54.9326L30.4487 72.9326L23.9487 83.4326H15.9487L23.9487 54.9326Z" fill="white"/>
<path d="M17.8794 83.6938C17.0597 83.6938 16.24 83.6938 15.4202 83.6938C14.9079 83.6938 14.6005 83.183 14.8054 82.7744C25.0522 62.4466 25.1546 12.189 25.1546 12.189H37.3483" fill="white"/>
<path d="M17.8794 83.6938C17.0597 83.6938 16.24 83.6938 15.4202 83.6938C14.9079 83.6938 14.6005 83.183 14.8054 82.7744C25.0522 62.4466 25.1546 12.189 25.1546 12.189H37.3483" stroke="#182052" stroke-miterlimit="10" stroke-linecap="round" stroke-linejoin="round"/>
<path d="M76.3887 27.2053H35.709C35.4016 27.2053 35.0942 26.8988 35.0942 26.5924C35.0942 26.2859 35.4016 25.9795 35.709 25.9795H76.3887C76.6961 25.9795 77.0035 26.2859 77.0035 26.5924C77.0035 26.8988 76.6961 27.2053 76.3887 27.2053Z" fill="#182052"/>
<path d="M76.1836 30.8825H59.9937C59.6863 30.8825 59.3789 30.5761 59.3789 30.2696C59.3789 29.9632 59.6863 29.6567 59.9937 29.6567H76.1836C76.491 29.6567 76.7984 29.9632 76.7984 30.2696C76.7984 30.5761 76.491 30.8825 76.1836 30.8825Z" fill="#182052"/>
<path d="M55.4851 30.8825H35.4014C35.094 30.8825 34.7866 30.5761 34.7866 30.2696C34.7866 29.9632 35.094 29.6567 35.4014 29.6567H55.4851C55.7925 29.6567 56.0999 29.9632 56.0999 30.2696C56.0999 30.5761 55.895 30.8825 55.4851 30.8825Z" fill="#182052"/>
<path d="M49.3374 34.4577H35.1968C34.8894 34.4577 34.582 34.1513 34.582 33.8448C34.582 33.5384 34.8894 33.2319 35.1968 33.2319H49.4398C49.7472 33.2319 50.0547 33.5384 50.0547 33.8448C50.0547 34.1513 49.7472 34.4577 49.3374 34.4577Z" fill="#182052"/>
<path d="M75.0566 43.549H52.5137C52.2063 43.549 51.8989 43.2426 51.8989 42.9361C51.8989 42.6297 52.2063 42.3232 52.5137 42.3232H75.0566C75.364 42.3232 75.6714 42.6297 75.6714 42.9361C75.6714 43.2426 75.364 43.549 75.0566 43.549Z" fill="#182052"/>
<path d="M47.9024 43.549H34.5816C34.2742 43.549 33.9668 43.2426 33.9668 42.9361C33.9668 42.6297 34.2742 42.3232 34.5816 42.3232H47.9024C48.2098 42.3232 48.5172 42.6297 48.5172 42.9361C48.5172 43.2426 48.2098 43.549 47.9024 43.549Z" fill="#182052"/>
<path d="M74.8513 47.1242H65.3218C65.0144 47.1242 64.707 46.8178 64.707 46.5113C64.707 46.2049 65.0144 45.8984 65.3218 45.8984H74.8513C75.1587 45.8984 75.4661 46.2049 75.4661 46.5113C75.4661 46.8178 75.1587 47.1242 74.8513 47.1242Z" fill="#182052"/>
<path d="M60.0962 47.1242H34.0694C33.762 47.1242 33.4546 46.8178 33.4546 46.5113C33.4546 46.2049 33.762 45.8984 34.0694 45.8984H60.0962C60.4036 45.8984 60.711 46.2049 60.711 46.5113C60.711 46.8178 60.4036 47.1242 60.0962 47.1242Z" fill="#182052"/>
<path d="M58.047 50.8015H33.5572C33.2498 50.8015 32.9424 50.495 32.9424 50.1886C32.9424 49.8821 33.2498 49.5757 33.5572 49.5757H58.047C58.3544 49.5757 58.6618 49.8821 58.6618 50.1886C58.6618 50.495 58.3544 50.8015 58.047 50.8015Z" fill="#182052"/>
<path d="M72.6998 60.0974H46.0582C45.7508 60.0974 45.4434 59.7909 45.4434 59.4845C45.4434 59.178 45.7508 58.8716 46.0582 58.8716H72.6998C73.0072 58.8716 73.3146 59.178 73.3146 59.4845C73.3146 59.7909 73.0072 60.0974 72.6998 60.0974Z" fill="#182052"/>
<path d="M41.8569 60.0974H31.9175C31.6101 60.0974 31.3027 59.7909 31.3027 59.4845C31.3027 59.178 31.6101 58.8716 31.9175 58.8716H41.8569C42.1643 58.8716 42.4717 59.178 42.4717 59.4845C42.4717 59.7909 42.2668 60.0974 41.8569 60.0974Z" fill="#182052"/>
<path d="M72.3923 63.7746H52.9234C52.616 63.7746 52.3086 63.4682 52.3086 63.1617C52.3086 62.8553 52.616 62.5488 52.9234 62.5488H72.4947C72.8021 62.5488 73.1095 62.8553 73.1095 63.1617C73.1095 63.4682 72.8021 63.7746 72.3923 63.7746Z" fill="#182052"/>
<path d="M49.2348 63.7746H31.5079C31.2005 63.7746 30.8931 63.4682 30.8931 63.1617C30.8931 62.8553 31.2005 62.5488 31.5079 62.5488H49.2348C49.5422 62.5488 49.8496 62.8553 49.8496 63.1617C49.8496 63.4682 49.5422 63.7746 49.2348 63.7746Z" fill="#182052"/>
<path d="M43.0861 67.3498H30.6876C30.3802 67.3498 30.0728 67.0434 30.0728 66.7369C30.0728 66.4305 30.3802 66.124 30.6876 66.124H43.0861C43.3936 66.124 43.701 66.4305 43.701 66.7369C43.701 67.0434 43.3936 67.3498 43.0861 67.3498Z" fill="#182052"/>
<path d="M53.2306 78.6883C61.3255 72.6614 65.6291 64.6938 65.5267 58.054C71.8797 58.5648 82.7413 58.054 85.9178 47.124C84.1758 76.3388 58.0465 82.4678 54.87 82.7743C53.4355 82.8764 50.6689 83.0807 45.6479 83.1829" fill="#E2EBFF"/>
<path d="M53.2306 78.6883C61.3255 72.6614 65.6291 64.6938 65.5267 58.054C71.8797 58.5648 82.7413 58.054 85.9178 47.124C84.1758 76.3388 58.0465 82.4678 54.87 82.7743C53.4355 82.8764 50.6689 83.0807 45.6479 83.1829" stroke="#182052" stroke-miterlimit="10" stroke-linecap="round" stroke-linejoin="round"/>
<path d="M70.4456 6.36626H60.6087C60.6087 6.16196 60.7111 6.05981 60.7111 5.85551C60.7111 3.91467 59.0717 2.28027 57.1248 2.28027C55.1779 2.28027 53.5384 3.91467 53.5384 5.85551C53.5384 6.05981 53.5384 6.26411 53.6409 6.36626H43.804C43.2916 6.36626 42.7793 6.77486 42.7793 7.38776V10.5544C42.7793 12.9038 44.7262 14.8447 47.0829 14.8447H67.1666C69.5234 14.8447 71.4703 12.9038 71.4703 10.5544V7.38776C71.4703 6.77486 70.9579 6.36626 70.4456 6.36626Z" fill="white" stroke="#182052" stroke-miterlimit="10"/>
<path d="M69.8308 5.75347H59.9939C59.9939 5.54917 60.0964 5.44702 60.0964 5.24272C60.0964 3.30188 58.4569 1.66748 56.51 1.66748C54.5631 1.66748 52.9237 3.30188 52.9237 5.24272C52.9237 5.44702 52.9237 5.65132 53.0261 5.75347H43.1892C42.6769 5.75347 42.1646 6.16207 42.1646 6.77497V9.94161C42.1646 12.2911 44.1114 14.2319 46.4682 14.2319H66.5519C68.9086 14.2319 70.8555 12.2911 70.8555 9.94161V6.77497C70.8555 6.16207 70.3432 5.75347 69.8308 5.75347Z" fill="white" stroke="#182052" stroke-miterlimit="10"/>
<path d="M56.5096 6.87719C57.4151 6.87719 58.1491 6.14545 58.1491 5.24279C58.1491 4.34014 57.4151 3.6084 56.5096 3.6084C55.6041 3.6084 54.8701 4.34014 54.8701 5.24279C54.8701 6.14545 55.6041 6.87719 56.5096 6.87719Z" fill="#182052"/>
<path d="M104.889 78.5965C104.786 79.3116 104.684 80.0267 104.581 80.7418C104.581 80.8439 104.479 80.9459 104.479 81.048C104.479 81.1502 104.376 81.2522 104.376 81.4565C104.069 82.8866 103.557 84.2145 102.942 85.4403C101.097 88.9134 98.3306 91.6717 94.9492 93.4083C94.5393 93.6126 94.1295 93.817 93.7196 94.0213C92.695 94.4299 91.7728 94.7362 90.6456 94.9405C90.3382 95.0427 90.1332 95.0424 89.8258 95.1445C87.5715 95.5531 85.215 95.5535 82.8582 95.0428C72.9189 92.9998 66.5657 83.2953 68.6151 73.3868C70.6644 63.4783 80.3988 57.1451 90.3382 59.1881C93.8221 59.9031 97.101 61.6396 99.5602 64.1933C103.454 67.9729 105.299 73.2848 104.889 78.5965Z" fill="#89B3E4"/>
<path d="M87.6741 57.7583C88.5964 57.8605 89.4159 57.9624 90.3382 58.0646C93.8221 58.7796 97.101 60.516 99.5602 63.0698C103.454 66.9515 105.401 72.2635 104.889 77.5752C104.786 78.2903 104.684 79.0054 104.581 79.7205C104.581 79.8226 104.479 79.9246 104.479 80.0267C104.479 80.1289 104.376 80.2309 104.376 80.4352C104.069 81.8653 103.557 83.1932 102.942 84.419C101.097 87.8921 98.3306 90.6504 94.9492 92.387C94.5393 92.5913 94.1295 92.7957 93.7196 93C92.695 93.4086 91.7728 93.7149 90.6456 93.9192C90.3382 94.0214 90.1332 94.0211 89.8258 94.1232C87.5715 94.5318 85.215 94.5322 82.8582 94.0215C72.9189 91.9785 66.5657 82.274 68.6151 72.3655C69.4348 68.1774 71.6892 64.7043 74.6608 62.1505" stroke="#182052" stroke-miterlimit="10" stroke-linecap="round" stroke-linejoin="round"/>
<path d="M79.4771 59.0865C79.682 58.984 79.7845 58.9838 79.9894 58.8813" stroke="#182052" stroke-miterlimit="10" stroke-linecap="round" stroke-linejoin="round"/>
</svg>
