<svg width="66" height="66" viewBox="0 0 66 66" fill="none" xmlns="http://www.w3.org/2000/svg">
<path fill-rule="evenodd" clip-rule="evenodd" d="M33 0.916504C15.2813 0.916504 0.916687 15.2811 0.916687 32.9998C0.916687 50.7186 15.2813 65.0832 33 65.0832C50.7188 65.0832 65.0834 50.7186 65.0834 32.9998C65.0834 15.2811 50.7188 0.916504 33 0.916504ZM46.9067 27.5748C47.1628 27.2821 47.3577 26.9412 47.4801 26.572C47.6024 26.2028 47.6497 25.8129 47.6191 25.4252C47.5886 25.0375 47.4808 24.6598 47.3021 24.3144C47.1234 23.9689 46.8775 23.6627 46.5787 23.4137C46.2799 23.1648 45.9344 22.9781 45.5624 22.8646C45.1904 22.7511 44.7995 22.7132 44.4126 22.7531C44.0257 22.7929 43.6507 22.9098 43.3097 23.0967C42.9686 23.2836 42.6684 23.5368 42.4267 23.8415L29.885 38.8886L23.3954 32.3961C22.8453 31.8648 22.1086 31.5708 21.3438 31.5775C20.5791 31.5841 19.8476 31.8908 19.3068 32.4316C18.766 32.9724 18.4593 33.7039 18.4526 34.4687C18.446 35.2334 18.74 35.9702 19.2713 36.5203L28.0213 45.2703C28.3079 45.5567 28.651 45.7802 29.0287 45.9267C29.4065 46.0731 29.8106 46.1393 30.2154 46.1209C30.6201 46.1025 31.0166 46 31.3796 45.8199C31.7425 45.6398 32.0639 45.386 32.3234 45.0748L46.9067 27.5748Z" fill="#5FAB6D"/>
</svg>