<svg width="121" height="110" viewBox="0 0 121 110" fill="none" xmlns="http://www.w3.org/2000/svg">
<path d="M40.9662 103.181H39.2826V101.498C39.2826 101.217 39.002 100.937 38.7214 100.937C38.4409 100.937 38.1603 101.217 38.1603 101.498V103.181H36.4767C36.1961 103.181 35.9155 103.461 35.9155 103.742C35.9155 104.022 36.1961 104.303 36.4767 104.303H38.1603V105.985C38.1603 106.266 38.4409 106.546 38.7214 106.546C39.002 106.546 39.2826 106.266 39.2826 105.985V104.303H40.9662C41.2468 104.303 41.5274 104.022 41.5274 103.742C41.5274 103.368 41.3403 103.181 40.9662 103.181Z" fill="#CCDCFF"/>
<path d="M27.2172 98.0389C28.0437 98.0389 28.7137 97.3692 28.7137 96.5431C28.7137 95.717 28.0437 95.0474 27.2172 95.0474C26.3907 95.0474 25.7207 95.717 25.7207 96.5431C25.7207 97.3692 26.3907 98.0389 27.2172 98.0389Z" fill="#CCDCFF"/>
<path d="M15.1517 3.61769H13.4682V1.93494C13.4682 1.65448 13.1876 1.37402 12.907 1.37402C12.6264 1.37402 12.3458 1.65448 12.3458 1.93494V3.61769H10.6623C10.3817 3.61769 10.1011 3.89815 10.1011 4.17861C10.1011 4.45907 10.3817 4.73953 10.6623 4.73953H12.3458V6.42228C12.3458 6.70274 12.6264 6.9832 12.907 6.9832C13.1876 6.9832 13.4682 6.70274 13.4682 6.42228V4.73953H15.1517C15.4323 4.73953 15.7129 4.45907 15.7129 4.17861C15.7129 3.89815 15.4323 3.61769 15.1517 3.61769Z" fill="#FFB5D7"/>
<path d="M1.02884 30.4493C1.59705 30.4493 2.05767 29.9887 2.05767 29.4204C2.05767 28.8522 1.59705 28.3916 1.02884 28.3916C0.460626 28.3916 0 28.8522 0 29.4204C0 29.9887 0.460626 30.4493 1.02884 30.4493Z" fill="#FFB5D7"/>
<path d="M29.5556 10.2552C30.3821 10.2552 31.0521 9.58555 31.0521 8.75945C31.0521 7.93336 30.3821 7.26367 29.5556 7.26367C28.7291 7.26367 28.0591 7.93336 28.0591 8.75945C28.0591 9.58555 28.7291 10.2552 29.5556 10.2552Z" fill="#FFB5D7"/>
<path d="M61.0756 97.5713C86.7484 97.5713 107.56 76.7693 107.56 51.1087C107.56 25.448 86.7484 4.646 61.0756 4.646C35.4027 4.646 14.5908 25.448 14.5908 51.1087C14.5908 76.7693 35.4027 97.5713 61.0756 97.5713Z" fill="#E2EBFF"/>
<path d="M108.215 17.6406C109.805 17.6406 111.021 18.8559 111.021 20.4452V81.8657C111.021 83.4549 109.805 84.6703 108.215 84.6703H13.9358C12.3458 84.6703 11.1299 83.4549 11.1299 81.8657V20.4452C11.1299 18.8559 12.3458 17.6406 13.9358 17.6406H108.215Z" fill="white"/>
<path d="M111.021 20.4452V26.1479H11.1299V20.4452C11.1299 18.8559 12.3458 17.6406 13.9358 17.6406H108.215C109.711 17.6406 111.021 18.8559 111.021 20.4452Z" fill="#495968"/>
<path d="M93.3433 17.6406H108.121C109.711 17.6406 110.927 18.8559 110.927 20.4452V68.6841" stroke="#182052" stroke-miterlimit="10" stroke-linecap="round" stroke-linejoin="round"/>
<path d="M111.021 75.7891V81.8657C111.021 83.4549 109.805 84.6703 108.215 84.6703H13.9358C12.3458 84.6703 11.1299 83.4549 11.1299 81.8657V20.4452C11.1299 18.8559 12.3458 17.6406 13.9358 17.6406H82.0261" stroke="#182052" stroke-miterlimit="10" stroke-linecap="round" stroke-linejoin="round"/>
<path opacity="0.8" d="M15.6197 23.063C16.2912 23.063 16.8356 22.5188 16.8356 21.8476C16.8356 21.1764 16.2912 20.6323 15.6197 20.6323C14.9482 20.6323 14.4038 21.1764 14.4038 21.8476C14.4038 22.5188 14.9482 23.063 15.6197 23.063Z" fill="white"/>
<path opacity="0.5" d="M19.0802 23.063C19.7517 23.063 20.2961 22.5188 20.2961 21.8476C20.2961 21.1764 19.7517 20.6323 19.0802 20.6323C18.4086 20.6323 17.8643 21.1764 17.8643 21.8476C17.8643 22.5188 18.4086 23.063 19.0802 23.063Z" fill="white"/>
<path opacity="0.2" d="M22.5406 23.063C23.2121 23.063 23.7565 22.5188 23.7565 21.8476C23.7565 21.1764 23.2121 20.6323 22.5406 20.6323C21.8691 20.6323 21.3247 21.1764 21.3247 21.8476C21.3247 22.5188 21.8691 23.063 22.5406 23.063Z" fill="white"/>
<path d="M102.229 51.9501H71.0833C70.5221 51.9501 69.9609 51.4827 69.9609 50.8283V39.8904C69.9609 39.3295 70.4286 38.7686 71.0833 38.7686H102.323C102.884 38.7686 103.445 39.236 103.445 39.8904V50.9218C103.351 51.4827 102.884 51.9501 102.229 51.9501Z" fill="#DFE9FF"/>
<path d="M103.351 70.2733C103.351 70.8342 102.884 71.3952 102.229 71.3952H71.0833C70.5221 71.3952 69.9609 70.9277 69.9609 70.2733V59.242C69.9609 58.681 70.4286 58.1201 71.0833 58.1201H102.323C102.884 58.1201 103.445 58.5875 103.445 59.242V70.2733H103.351Z" fill="#DFE9FF"/>
<path d="M83.8034 34.4681H42.0888C41.247 34.4681 40.5923 33.8137 40.5923 32.9723V2.49578C40.5923 1.6544 41.247 1 42.0888 1H83.8034C84.6452 1 85.2999 1.6544 85.2999 2.49578V33.0658C85.2064 33.8137 84.5517 34.4681 83.8034 34.4681Z" fill="white"/>
<path d="M83.8034 34.4681H42.0888C41.247 34.4681 40.5923 33.8137 40.5923 32.9723V2.49578C40.5923 1.6544 41.247 1 42.0888 1H83.8034C84.6452 1 85.2999 1.6544 85.2999 2.49578V33.0658C85.2064 33.8137 84.5517 34.4681 83.8034 34.4681Z" stroke="#182052" stroke-miterlimit="10"/>
<path d="M70.8959 9.60147H55.3698C54.9957 9.60147 54.6216 9.22735 54.6216 8.85322C54.6216 8.4791 54.9957 8.10498 55.3698 8.10498H70.8024C71.1765 8.10498 71.5506 8.4791 71.5506 8.85322C71.6442 9.22735 71.27 9.60147 70.8959 9.60147Z" fill="#0076FF"/>
<path d="M66.3131 14.0886H46.8588C46.5782 14.0886 46.3911 13.9016 46.3911 13.621C46.3911 13.3404 46.5782 13.1533 46.8588 13.1533H66.4067C66.6873 13.1533 66.8743 13.3404 66.8743 13.621C66.8743 13.9016 66.5937 14.0886 66.3131 14.0886Z" fill="#E4F0FF"/>
<path d="M79.22 14.0886H69.3993C69.1187 14.0886 68.9316 13.9016 68.9316 13.621C68.9316 13.3404 69.1187 13.1533 69.3993 13.1533H79.22C79.5006 13.1533 79.6877 13.3404 79.6877 13.621C79.6877 13.9016 79.5006 14.0886 79.22 14.0886Z" fill="#E4F0FF"/>
<path d="M79.2206 17.5469H66.3134H65.4716H46.7655C46.4849 17.5469 46.2979 17.7339 46.2979 18.0145C46.2979 18.2951 46.4849 18.4822 46.7655 18.4822H65.4716H66.3134H79.1271C79.4077 18.4822 79.5948 18.2951 79.5948 18.0145C79.6883 17.8275 79.5012 17.5469 79.2206 17.5469Z" fill="#E4F0FF"/>
<path d="M79.2206 22.0342H66.3134H65.4716H46.7655C46.4849 22.0342 46.2979 22.2212 46.2979 22.5018C46.2979 22.7824 46.4849 22.9695 46.7655 22.9695H65.4716H66.3134H79.1271C79.4077 22.9695 79.5948 22.7824 79.5948 22.5018C79.5948 22.2212 79.5012 22.0342 79.2206 22.0342Z" fill="#E4F0FF"/>
<path d="M79.2206 26.4282H66.3134H65.4716H46.7655C46.4849 26.4282 46.2979 26.6153 46.2979 26.8959C46.2979 27.1765 46.4849 27.3635 46.7655 27.3635H65.4716H66.3134H79.1271C79.4077 27.3635 79.5948 27.1765 79.5948 26.8959C79.5948 26.6153 79.5012 26.4282 79.2206 26.4282Z" fill="#E4F0FF"/>
<path d="M118.41 87.7555H88.1056C87.2639 87.7555 86.5156 87.1011 86.5156 86.1662V76.0697C86.5156 75.2284 87.1703 74.4805 88.1056 74.4805H118.41C119.251 74.4805 120 75.1349 120 76.0697V86.1662C120 87.1011 119.251 87.7555 118.41 87.7555Z" fill="white"/>
<path d="M118.41 87.7555H88.1056C87.2639 87.7555 86.5156 87.1011 86.5156 86.1662V76.0697C86.5156 75.2284 87.1703 74.4805 88.1056 74.4805H118.41C119.251 74.4805 120 75.1349 120 76.0697V86.1662C120 87.1011 119.251 87.7555 118.41 87.7555Z" stroke="#182052" stroke-miterlimit="10"/>
<path d="M114.201 79.7161H92.6886C92.3145 79.7161 92.1274 79.4355 92.1274 79.1549C92.1274 78.7808 92.408 78.5938 92.6886 78.5938H114.107C114.481 78.5938 114.668 78.8743 114.668 79.1549C114.762 79.4355 114.481 79.7161 114.201 79.7161Z" fill="#E4F0FF"/>
<path d="M106.718 84.1102H92.6886C92.3145 84.1102 92.1274 83.8296 92.1274 83.549C92.1274 83.1749 92.408 82.9878 92.6886 82.9878H106.718C107.092 82.9878 107.279 83.2684 107.279 83.549C107.279 83.8296 107.092 84.1102 106.718 84.1102Z" fill="#E4F0FF"/>
<path d="M96.9915 43.7239H76.0407C75.7601 43.7239 75.4795 43.4433 75.4795 43.1627C75.4795 42.8822 75.7601 42.6016 76.0407 42.6016H96.9915C97.2721 42.6016 97.5527 42.8822 97.5527 43.1627C97.6463 43.4433 97.3657 43.7239 96.9915 43.7239Z" fill="#E4F0FF"/>
<path d="M89.7897 48.0242H76.0407C75.7601 48.0242 75.4795 47.7436 75.4795 47.463C75.4795 47.1824 75.7601 46.9019 76.0407 46.9019H89.7897C90.0703 46.9019 90.3509 47.1824 90.3509 47.463C90.3509 47.7436 90.0703 48.0242 89.7897 48.0242Z" fill="#E4F0FF"/>
<path d="M96.9915 63.0755H76.0407C75.7601 63.0755 75.4795 62.7949 75.4795 62.5143C75.4795 62.2337 75.7601 61.9531 76.0407 61.9531H96.9915C97.2721 61.9531 97.5527 62.2337 97.5527 62.5143C97.6463 62.8884 97.3657 63.0755 96.9915 63.0755Z" fill="#E4F0FF"/>
<path d="M89.7897 67.4695H76.0407C75.7601 67.4695 75.4795 67.1889 75.4795 66.9084C75.4795 66.6278 75.7601 66.3472 76.0407 66.3472H89.7897C90.0703 66.3472 90.3509 66.6278 90.3509 66.9084C90.3509 67.1889 90.0703 67.4695 89.7897 67.4695Z" fill="#E4F0FF"/>
<path d="M61.2626 71.582H19.1738C18.145 71.582 17.3032 70.7406 17.3032 69.7123V40.7315C17.3032 39.7032 18.145 38.8618 19.1738 38.8618H61.2626C62.2915 38.8618 63.1332 39.7032 63.1332 40.7315V69.7123C63.1332 70.7406 62.2915 71.582 61.2626 71.582Z" fill="#DFE9FF"/>
<path d="M41.0602 64.5705H25.9082L33.4842 55.9697L41.0602 64.5705Z" fill="#E4F0FF"/>
<path d="M47.7005 57.8394L53.5929 64.5704H31.8003L42.6498 52.1367L47.7005 57.8394Z" fill="white"/>
<path d="M31.6133 52.7913C33.2146 52.7913 34.5128 51.4938 34.5128 49.8932C34.5128 48.2926 33.2146 46.9951 31.6133 46.9951C30.012 46.9951 28.7139 48.2926 28.7139 49.8932C28.7139 51.4938 30.012 52.7913 31.6133 52.7913Z" fill="#E4F0FF"/>
<path d="M61.3562 93.7384C71.5323 93.7384 79.7817 85.4929 79.7817 75.3216C79.7817 65.1503 71.5323 56.9048 61.3562 56.9048C51.1801 56.9048 42.9307 65.1503 42.9307 75.3216C42.9307 85.4929 51.1801 93.7384 61.3562 93.7384Z" fill="white"/>
<path d="M88.8541 97.7587L85.0194 101.592L73.7021 90.4667L77.6304 86.6338L88.8541 97.7587Z" fill="#547DFF"/>
<path d="M46.2977 59.2421C37.8799 67.6559 37.8799 81.2114 46.2977 89.5317C54.7155 97.8519 68.2774 97.9454 76.6016 89.5317C84.9258 81.1179 85.0194 67.5624 76.6016 59.2421C68.1839 50.9218 54.7155 50.8283 46.2977 59.2421ZM73.2345 86.1661C66.7809 92.6167 56.2119 92.6167 49.7583 86.1661C43.3047 79.7156 43.3047 69.1517 49.7583 62.7011C56.2119 56.2506 66.7809 56.2506 73.2345 62.7011C79.6881 69.1517 79.6881 79.6221 73.2345 86.1661Z" fill="#89B3E4"/>
<path d="M94.9338 107.668C93.1567 109.444 90.3508 109.444 88.6672 107.668L77.2565 96.3559C76.5083 95.7015 76.5083 94.4862 77.2565 93.8318L80.9977 90.0924C81.6524 89.438 82.7748 89.438 83.5231 90.0924L94.9338 101.404C96.7109 103.18 96.7109 105.985 94.9338 107.668Z" fill="#89B3E4"/>
<path d="M61.6365 85.7923C60.7948 85.7923 60.14 85.1379 60.14 84.2965C60.14 83.4551 60.8883 82.7072 61.7301 82.7072C62.5718 82.7072 63.3201 83.3616 63.3201 84.203C63.2266 85.1379 62.5718 85.7923 61.7301 85.7923H61.6365ZM61.7301 81.0245C60.8883 81.0245 60.2336 80.3701 60.14 79.5287C60.14 79.4352 60.14 79.4352 60.14 79.3417V76.2567C60.14 74.6674 61.1689 73.2651 62.6654 72.7042C63.8813 72.3303 64.6295 71.1149 64.536 69.8996C64.4425 68.4973 63.3201 67.282 61.8236 67.1885H61.6365C60.4206 67.1885 59.2983 68.0299 58.9241 69.2452C58.7371 69.8996 58.0824 70.2736 57.4277 70.2736C57.2406 70.2736 57.0535 70.2736 56.8665 70.1801C56.1182 69.8996 55.6506 69.1517 55.8376 68.3104C56.5859 65.7862 58.9241 63.9165 61.6365 63.9165C61.7301 63.9165 61.9171 63.9165 62.0107 63.9165C63.6007 64.01 65.0972 64.6644 66.126 65.8797C67.1548 67.095 67.716 68.5908 67.6225 70.1801C67.529 72.5172 65.9389 74.6674 63.7877 75.5088H63.6942H63.6007C63.4136 75.6023 63.2266 75.7893 63.3201 76.0697V79.0613C63.3201 79.5287 63.2266 79.9026 62.946 80.1831C62.6654 80.4636 62.2912 80.6505 61.8236 80.744L61.7301 81.0245Z" fill="#89B3E4"/>
<path d="M87.5447 106.546L88.667 107.668C90.4441 109.444 93.25 109.444 94.9336 107.668C96.6171 105.892 96.7107 103.087 94.9336 101.404L83.5228 90.0925C82.8681 89.4381 81.8393 89.4381 81.091 89.999L78.4722 87.4749C84.9258 79.0611 84.3646 67.0014 76.6951 59.242C70.8962 53.4459 62.4784 51.6697 55.0895 53.9133M45.7365 59.8965C37.9734 68.3102 38.1605 81.3983 46.3912 89.5316C54.0607 97.1975 66.2197 97.8519 74.6374 91.3078L77.2563 93.9254C76.6016 94.6733 76.6016 95.7017 77.3498 96.3561L84.1776 103.087M56.6795 90.2795C54.1542 89.5316 51.7224 88.1293 49.7583 86.1661C43.3047 79.7155 43.3047 69.1516 49.7583 62.701C56.2119 56.2505 66.7809 56.2505 73.2345 62.701C79.6881 69.1516 79.6881 79.7155 73.2345 86.1661C71.8315 87.5684 70.335 88.5967 68.745 89.3446M50.3195 56.157C50.0389 56.344 49.6647 56.5309 49.3842 56.8114L50.3195 56.157Z" stroke="#182052" stroke-miterlimit="10" stroke-linecap="round" stroke-linejoin="round"/>
</svg>
