<svg width="166" height="47" viewBox="0 0 166 47" fill="none" xmlns="http://www.w3.org/2000/svg">
<path d="M1.84039 22.2031V10.2154H3.63855V22.2031H1.84039ZM5.54831 22.2031V12.5463H13.2071C13.8065 12.5463 14.3171 12.7572 14.7389 13.179C15.1607 13.6008 15.3716 14.1114 15.3716 14.7108V22.2031H13.5734V14.9605C13.5734 14.7163 13.529 14.5554 13.4402 14.4777C13.3625 14.3889 13.2016 14.3445 12.9574 14.3445H7.96251C7.71831 14.3445 7.55182 14.3889 7.46302 14.4777C7.38532 14.5554 7.34647 14.7163 7.34647 14.9605V22.2031H5.54831ZM19.2891 22.2031C18.6897 22.2031 18.1791 21.9922 17.7573 21.5704C17.3355 21.1486 17.1246 20.6381 17.1246 20.0387V9.49946H18.9228V12.5463H22.8854V14.3445H18.9228V19.7889C18.9228 20.0331 18.9616 20.1996 19.0393 20.2884C19.1281 20.3661 19.2946 20.405 19.5388 20.405H22.8854V22.2031H19.2891ZM26.3286 22.2031C25.7292 22.2031 25.2186 21.9922 24.7968 21.5704C24.3751 21.1486 24.1642 20.6381 24.1642 20.0387V14.7108C24.1642 14.1114 24.3751 13.6008 24.7968 13.179C25.2186 12.7572 25.7292 12.5463 26.3286 12.5463H31.823C32.4224 12.5463 32.933 12.7572 33.3548 13.179C33.7765 13.6008 33.9874 14.1114 33.9874 14.7108V18.2738H25.9623V19.7889C25.9623 20.0331 26.0012 20.1996 26.0789 20.2884C26.1677 20.3661 26.3342 20.405 26.5784 20.405H33.9874V22.2031H26.3286ZM25.9623 16.5922H32.1726V14.9605C32.1726 14.7163 32.1338 14.5554 32.0561 14.4777C31.9784 14.3889 31.8174 14.3445 31.5732 14.3445H26.5784C26.3342 14.3445 26.1677 14.3889 26.0789 14.4777C26.0012 14.5554 25.9623 14.7163 25.9623 14.9605V16.5922ZM37.4992 22.2031C36.8998 22.2031 36.3892 21.9922 35.9674 21.5704C35.5457 21.1486 35.3348 20.6381 35.3348 20.0387V9.38291H37.1329V19.7889C37.1329 20.0331 37.1718 20.1996 37.2495 20.2884C37.3383 20.3661 37.5048 20.405 37.749 20.405H39.2974V22.2031H37.4992ZM42.816 22.2031C42.2166 22.2031 41.7061 21.9922 41.2843 21.5704C40.8625 21.1486 40.6516 20.6381 40.6516 20.0387V9.38291H42.4497V19.7889C42.4497 20.0331 42.4886 20.1996 42.5663 20.2884C42.6551 20.3661 42.8216 20.405 43.0658 20.405H44.6142V22.2031H42.816ZM47.9536 22.2031C47.3542 22.2031 46.8436 21.9922 46.4218 21.5704C46.0001 21.1486 45.7892 20.6381 45.7892 20.0387V14.7108C45.7892 14.1114 46.0001 13.6008 46.4218 13.179C46.8436 12.7572 47.3542 12.5463 47.9536 12.5463H53.448C54.0474 12.5463 54.558 12.7572 54.9798 13.179C55.4015 13.6008 55.6124 14.1114 55.6124 14.7108V18.2738H47.5873V19.7889C47.5873 20.0331 47.6262 20.1996 47.7039 20.2884C47.7927 20.3661 47.9592 20.405 48.2034 20.405H55.6124V22.2031H47.9536ZM47.5873 16.5922H53.7976V14.9605C53.7976 14.7163 53.7588 14.5554 53.6811 14.4777C53.6034 14.3889 53.4424 14.3445 53.1982 14.3445H48.2034C47.9592 14.3445 47.7927 14.3889 47.7039 14.4777C47.6262 14.5554 47.5873 14.7163 47.5873 14.9605V16.5922ZM59.1076 22.2031C58.5082 22.2031 57.9976 21.9922 57.5758 21.5704C57.154 21.1486 56.9431 20.6381 56.9431 20.0387V14.7108C56.9431 14.1114 57.154 13.6008 57.5758 13.179C57.9976 12.7572 58.5082 12.5463 59.1076 12.5463H66.7331V14.3445H59.3573C59.1131 14.3445 58.9466 14.3889 58.8578 14.4777C58.7801 14.5554 58.7413 14.7163 58.7413 14.9605V19.7889C58.7413 20.0331 58.7801 20.1996 58.8578 20.2884C58.9466 20.3661 59.1131 20.405 59.3573 20.405H66.7664V22.2031H59.1076ZM70.2785 22.2031C69.6792 22.2031 69.1686 21.9922 68.7468 21.5704C68.325 21.1486 68.1141 20.6381 68.1141 20.0387V9.49946H69.9123V12.5463H73.8749V14.3445H69.9123V19.7889C69.9123 20.0331 69.9511 20.1996 70.0288 20.2884C70.1176 20.3661 70.2841 20.405 70.5283 20.405H73.8749V22.2031H70.2785Z" fill="#0074FF"/>
<path d="M84.8284 22.2031V10.2154H86.6265V22.2031H84.8284ZM88.4558 22.2031V10.2154H90.6036L98.6287 19.7723V10.2154H100.444V22.2031H98.2957L90.2539 12.6296V22.2031H88.4558ZM104.407 22.2031C103.807 22.2031 103.297 21.9922 102.875 21.5704C102.453 21.1486 102.242 20.6381 102.242 20.0387V19.3394H104.04V19.7889C104.04 20.0331 104.079 20.1996 104.157 20.2884C104.246 20.3661 104.412 20.405 104.656 20.405H111.816C112.06 20.405 112.221 20.3661 112.299 20.2884C112.376 20.1996 112.415 20.0331 112.415 19.7889V17.7244C112.415 17.4691 112.376 17.3026 112.299 17.2249C112.221 17.1472 112.06 17.1083 111.816 17.1083H104.407C103.807 17.1083 103.297 16.8974 102.875 16.4757C102.453 16.0539 102.242 15.5433 102.242 14.9439V12.3798C102.242 11.7805 102.453 11.2699 102.875 10.8481C103.297 10.4263 103.807 10.2154 104.407 10.2154H112.065C112.665 10.2154 113.175 10.4263 113.597 10.8481C114.019 11.2699 114.23 11.7805 114.23 12.3798V13.0791H112.415V12.6296C112.415 12.3854 112.376 12.2244 112.299 12.1468C112.221 12.058 112.06 12.0136 111.816 12.0136H104.656C104.412 12.0136 104.246 12.058 104.157 12.1468C104.079 12.2244 104.04 12.3854 104.04 12.6296V14.6941C104.04 14.9494 104.079 15.1159 104.157 15.1936C104.246 15.2602 104.412 15.2935 104.656 15.2935H112.065C112.665 15.2935 113.175 15.51 113.597 15.9429C114.019 16.3647 114.23 16.8752 114.23 17.4746V20.0387C114.23 20.6381 114.019 21.1486 113.597 21.5704C113.175 21.9922 112.665 22.2031 112.065 22.2031H104.407ZM115.965 22.2031V10.2154H117.763V22.2031H115.965ZM121.757 22.2031C121.158 22.2031 120.647 21.9922 120.225 21.5704C119.803 21.1486 119.593 20.6381 119.593 20.0387V12.3798C119.593 11.7805 119.803 11.2699 120.225 10.8481C120.647 10.4263 121.158 10.2154 121.757 10.2154H129.399C130.01 10.2154 130.526 10.4263 130.948 10.8481C131.369 11.2699 131.58 11.7805 131.58 12.3798V13.0958H129.765V12.6296C129.765 12.3854 129.721 12.2244 129.632 12.1468C129.555 12.058 129.394 12.0136 129.149 12.0136H122.007C121.763 12.0136 121.596 12.058 121.507 12.1468C121.43 12.2244 121.391 12.3854 121.391 12.6296V19.7889C121.391 20.0331 121.43 20.1996 121.507 20.2884C121.596 20.3661 121.763 20.405 122.007 20.405H129.149C129.394 20.405 129.555 20.3661 129.632 20.2884C129.721 20.1996 129.765 20.0331 129.765 19.7889V17.4413H126.935V15.6265H131.58V20.0387C131.58 20.6381 131.369 21.1486 130.948 21.5704C130.526 21.9922 130.01 22.2031 129.399 22.2031H121.757ZM133.43 22.2031V10.2154H135.228V15.2935H143.886V10.2154H145.7V22.2031H143.886V17.1083H135.228V22.2031H133.43ZM152.07 22.2031V12.0136H146.976V10.2154H158.963V12.0136H153.885V22.2031H152.07Z" fill="#FF0000"/>
<path d="M74.2568 8.10718V6.44668C74.2568 6.23758 74.3286 6.06128 74.4721 5.91778C74.6156 5.77428 74.7919 5.70253 75.001 5.70253H77.9837C78.0493 5.70253 78.1047 5.67998 78.1498 5.63488C78.199 5.58568 78.2236 5.52828 78.2236 5.46268V4.42333C78.2236 4.35773 78.199 4.30238 78.1498 4.25728C78.1047 4.20808 78.0493 4.18348 77.9837 4.18348H75.001C74.9354 4.18348 74.878 4.20808 74.8288 4.25728C74.7837 4.30238 74.7611 4.35773 74.7611 4.42333V4.59553H74.2568V4.42333C74.2568 4.21423 74.3286 4.03793 74.4721 3.89443C74.6156 3.74683 74.7919 3.67303 75.001 3.67303H77.9837C78.1887 3.67303 78.363 3.74683 78.5065 3.89443C78.6541 4.03793 78.7279 4.21423 78.7279 4.42333V5.46268C78.7279 5.66768 78.6541 5.84398 78.5065 5.99158C78.363 6.13508 78.1887 6.20683 77.9837 6.20683H75.001C74.9354 6.20683 74.878 6.23143 74.8288 6.28063C74.7837 6.32573 74.7611 6.38108 74.7611 6.44668V7.36303C74.7611 7.42863 74.7837 7.48603 74.8288 7.53523C74.878 7.58033 74.9354 7.60288 75.001 7.60288H78.7279V8.10718H74.2568Z" fill="black"/>
<path d="M81.1885 5.14819H80.8465V2.51083H79.9151V2.20706H82.12V2.51083H81.1885V5.14819ZM83.8661 5.14819L82.8683 2.54101H82.8522C82.871 2.74754 82.8804 2.99297 82.8804 3.27729V5.14819H82.5646V2.20706H83.0796L84.011 4.63319H84.0271L84.9665 2.20706H85.4775V5.14819H85.1355V3.25315C85.1355 3.03589 85.1449 2.79985 85.1637 2.54503H85.1476L84.1417 5.14819H83.8661Z" fill="black"/>
</svg>
