<svg width="47" height="48" viewBox="0 0 47 48" fill="none" xmlns="http://www.w3.org/2000/svg">
<path d="M23.5119 0C29.6761 0.328875 36.2933 3.05954 40.517 7.56122C44.7407 12.0629 47.0628 18.0218 46.9987 24.1944C46.9346 30.367 44.4892 36.2764 40.1729 40.6893C35.8565 45.1023 29.6816 47.6906 23.5119 47.8913V36.2018C26.668 36.0991 29.6034 34.7685 31.8115 32.511C34.0195 30.2535 35.2705 27.2305 35.3033 24.0729C35.3361 20.9153 34.1482 17.8669 31.9875 15.5641C29.8268 13.2612 26.6652 11.9123 23.5119 11.744V0Z" fill="#0076FF"/>
<circle opacity="0.5" r="1.67772" transform="matrix(-1 0 0 1 1.70167 23.9458)" fill="#0076FF"/>
<circle opacity="0.5" r="1.67772" transform="matrix(-1 0 0 1 19.0889 2.89842)" fill="#0076FF"/>
<circle opacity="0.5" r="1.67772" transform="matrix(-1 0 0 1 15.1235 12.0488)" fill="#0076FF"/>
<circle opacity="0.5" r="1.67772" transform="matrix(-1 0 0 1 4.1421 13.8789)" fill="#0076FF"/>
<rect opacity="0.5" width="12.7624" height="3.20292" rx="1.60146" transform="matrix(-0.911037 -0.412325 -0.412325 0.911037 23.207 8.61768)" fill="#0076FF"/>
<rect opacity="0.5" width="11.1713" height="3.20292" rx="1.60146" transform="matrix(-0.435223 -0.900322 -0.900322 0.435223 13.1411 16.769)" fill="#0076FF"/>
<rect opacity="0.5" width="10.797" height="3.20292" rx="1.60146" transform="matrix(-0.951885 -0.306455 -0.306455 0.951885 11.2593 20.0864)" fill="#0076FF"/>
<circle opacity="0.5" cx="19.0889" cy="45.2017" r="1.67772" transform="rotate(-180 19.0889 45.2017)" fill="#0076FF"/>
<circle opacity="0.5" cx="15.1235" cy="36.0508" r="1.67772" transform="rotate(-180 15.1235 36.0508)" fill="#0076FF"/>
<circle opacity="0.5" cx="4.1421" cy="34.2207" r="1.67772" transform="rotate(-180 4.1421 34.2207)" fill="#0076FF"/>
<rect opacity="0.5" x="23.207" y="39.4824" width="12.7624" height="3.20292" rx="1.60146" transform="rotate(155.649 23.207 39.4824)" fill="#0076FF"/>
<rect opacity="0.5" x="13.1411" y="31.3315" width="11.1713" height="3.20292" rx="1.60146" transform="rotate(115.8 13.1411 31.3315)" fill="#0076FF"/>
<rect opacity="0.5" x="11.2593" y="28.0142" width="10.797" height="3.20292" rx="1.60146" transform="rotate(162.154 11.2593 28.0142)" fill="#0076FF"/>
</svg>
