<svg width="5" height="21" viewBox="0 0 5 21" fill="none" xmlns="http://www.w3.org/2000/svg">
<path d="M2.22192 7.25C2.49807 7.25 2.72192 7.02614 2.72192 6.75C2.72192 6.47386 2.49807 6.25 2.22192 6.25C1.94578 6.25 1.72192 6.47386 1.72192 6.75C1.72192 7.02614 1.94578 7.25 2.22192 7.25Z" stroke="#919EAB" stroke-width="2" stroke-linecap="round" stroke-linejoin="round"/>
<path d="M2.22192 2C2.49807 2 2.72192 1.77614 2.72192 1.5C2.72192 1.22386 2.49807 1 2.22192 1C1.94578 1 1.72192 1.22386 1.72192 1.5C1.72192 1.77614 1.94578 2 2.22192 2Z" stroke="#919EAB" stroke-width="2" stroke-linecap="round" stroke-linejoin="round"/>
<path d="M2.22192 12.5C2.49807 12.5 2.72192 12.2761 2.72192 12C2.72192 11.7239 2.49807 11.5 2.22192 11.5C1.94578 11.5 1.72192 11.7239 1.72192 12C1.72192 12.2761 1.94578 12.5 2.22192 12.5Z" stroke="#919EAB" stroke-width="2" stroke-linecap="round" stroke-linejoin="round"/>
</svg>
