<svg width="96" height="98" viewBox="0 0 96 98" fill="none" xmlns="http://www.w3.org/2000/svg">
<g opacity="0.3">
<path d="M92.8298 53.1707H59.4681C58.217 53.1707 57.383 52.3366 57.383 51.0856V30.2345C57.383 28.9835 58.217 28.1494 59.4681 28.1494H92.8298C94.0809 28.1494 94.9149 28.9835 94.9149 30.2345V51.0856C94.9149 52.1281 94.0809 53.1707 92.8298 53.1707Z" fill="#C7E1FF"/>
<path d="M92.8298 54.2128H59.4681C57.8 54.2128 56.3404 52.7533 56.3404 51.0852V30.2341C56.3404 28.566 57.8 27.1064 59.4681 27.1064H92.8298C94.4979 27.1064 95.9574 28.566 95.9574 30.2341V51.0852C95.9574 52.7533 94.7064 54.2128 92.8298 54.2128ZM59.4681 29.1916C58.8426 29.1916 58.4255 29.6086 58.4255 30.2341V51.0852C58.4255 51.7107 58.8426 52.1277 59.4681 52.1277H92.8298C93.4553 52.1277 93.8723 51.7107 93.8723 51.0852V30.2341C93.8723 29.6086 93.4553 29.1916 92.8298 29.1916H59.4681Z" fill="#919EAB"/>
<path d="M70.5191 46.9143C70.3106 46.9143 69.8936 46.9142 69.6851 46.7057L64.4723 41.4929C64.0553 41.0759 64.0553 40.4504 64.4723 40.0333L69.6851 34.8206C70.1021 34.4036 70.7277 34.4036 71.1447 34.8206C71.5617 35.2376 71.5617 35.8632 71.1447 36.2802L66.766 40.659L71.1447 45.0377C71.5617 45.4547 71.5617 46.0802 71.1447 46.4973C70.9362 46.7058 70.7276 46.9143 70.5191 46.9143Z" fill="white"/>
<path d="M81.9872 46.9147C81.7787 46.9147 81.3617 46.9146 81.1532 46.7061C80.7362 46.2891 80.7362 45.6635 81.1532 45.2465L85.5319 40.8678L81.1532 36.4892C80.7362 36.0721 80.7362 35.4466 81.1532 35.0296C81.5702 34.6125 82.1958 34.6125 82.6128 35.0296L87.8256 40.2423C88.2426 40.6594 88.2426 41.2849 87.8256 41.7019L82.6128 46.9147C82.4043 46.7062 82.1957 46.9147 81.9872 46.9147Z" fill="white"/>
<path d="M73.6467 47.9571C73.4382 47.9571 73.4382 47.9571 73.2297 47.9571C72.6042 47.7486 72.3956 47.1231 72.6041 46.4975L77.8169 33.9869C78.0254 33.3614 78.651 33.1529 79.2765 33.3614C79.902 33.5699 80.1105 34.1953 79.902 34.8209L74.6893 47.3315C74.4807 47.7485 74.0637 47.9571 73.6467 47.9571Z" fill="white"/>
<path d="M42.7872 31.2765H11.5106C10.8851 31.2765 10.4681 30.8595 10.4681 30.234C10.4681 29.6084 10.8851 29.1914 11.5106 29.1914H42.7872C43.4128 29.1914 43.8298 29.6084 43.8298 30.234C43.8298 30.8595 43.4128 31.2765 42.7872 31.2765Z" fill="#919EAB"/>
<path d="M42.7872 37.5324H11.5106C10.8851 37.5324 10.4681 37.1154 10.4681 36.4898C10.4681 35.8643 10.8851 35.4473 11.5106 35.4473H42.7872C43.4128 35.4473 43.8298 35.8643 43.8298 36.4898C43.8298 37.1154 43.4128 37.5324 42.7872 37.5324Z" fill="#919EAB"/>
<path d="M27.1489 47.9572H11.5106C10.8851 47.9572 10.4681 47.5402 10.4681 46.9146C10.4681 46.2891 10.8851 45.8721 11.5106 45.8721H27.1489C27.7745 45.8721 28.1915 46.2891 28.1915 46.9146C28.1915 47.5402 27.7745 47.9572 27.1489 47.9572Z" fill="#919EAB"/>
<path d="M42.7872 54.213H11.5106C10.8851 54.213 10.4681 53.796 10.4681 53.1705C10.4681 52.545 10.8851 52.1279 11.5106 52.1279H42.7872C43.4128 52.1279 43.8298 52.545 43.8298 53.1705C43.8298 53.796 43.4128 54.213 42.7872 54.213Z" fill="#919EAB"/>
<path d="M42.7872 60.4679H11.5106C10.8851 60.4679 10.4681 60.0509 10.4681 59.4254C10.4681 58.7998 10.8851 58.3828 11.5106 58.3828H42.7872C43.4128 58.3828 43.8298 58.7998 43.8298 59.4254C43.8298 60.0509 43.4128 60.4679 42.7872 60.4679Z" fill="#919EAB"/>
<path d="M27.1489 70.8937H11.5106C10.8851 70.8937 10.4681 70.4767 10.4681 69.8511C10.4681 69.2256 10.8851 68.8086 11.5106 68.8086H27.1489C27.7745 68.8086 28.1915 69.2256 28.1915 69.8511C28.1915 70.4767 27.7745 70.8937 27.1489 70.8937Z" fill="#919EAB"/>
<path d="M59.4681 95.9151H6.29788C2.7532 95.9151 0.0425568 93.2045 0.0425568 89.6598V11.4683C0.0425568 10.8428 0.459578 10.4258 1.08511 10.4258H76.1489C76.7745 10.4258 77.1915 10.8428 77.1915 11.4683V23.979C77.1915 24.6045 76.7745 25.0215 76.1489 25.0215C75.5234 25.0215 75.1064 24.6045 75.1064 23.979V12.5109H2.12766V89.6598C2.12766 91.9534 4.00426 93.83 6.29788 93.83H59.4681C60.0936 93.83 60.5106 94.2471 60.5106 94.8726C60.5106 95.4981 60.0936 95.9151 59.4681 95.9151Z" fill="#919EAB"/>
<path d="M76.1489 11.4685H1.08511V6.25573C1.08511 3.33659 3.37873 1.04297 6.29788 1.04297H70.9362C73.8553 1.04297 76.1489 3.33659 76.1489 6.25573V11.4685Z" fill="#0076FF" fill-opacity="0.29"/>
<path d="M76.1489 12.5106H1.08511C0.459578 12.5106 0.0425568 12.0936 0.0425568 11.4681V6.25532C0.0425568 2.71064 2.7532 0 6.29788 0H70.9362C74.4809 0 77.1915 2.71064 77.1915 6.25532V11.4681C77.1915 12.0936 76.7745 12.5106 76.1489 12.5106ZM2.12766 10.4255H75.1064V6.25532C75.1064 3.9617 73.2298 2.08511 70.9362 2.08511H6.29788C4.00426 2.08511 2.12766 3.9617 2.12766 6.25532V10.4255Z" fill="#919EAB"/>
<path d="M90.1191 82.3618C90.3276 81.3193 90.5361 80.2767 90.5361 79.2341C90.5361 78.1916 90.3276 77.149 90.1191 76.1065L90.7446 75.6894L92.2042 74.4383C93.0382 73.8128 93.0382 72.7702 92.6212 71.7277L90.7446 68.6C90.3276 67.766 89.285 67.349 88.2424 67.7661L86.3659 68.3916L85.7403 68.8086C84.2808 67.349 82.4042 66.3065 80.3191 65.681V65.0553L79.902 63.1788C79.6935 62.1362 78.8595 61.5107 77.8169 61.5107H74.0637C73.0212 61.5107 72.1871 62.1362 71.9786 63.1788L71.5616 65.0553V65.681C69.4765 66.3065 67.8084 67.349 66.1404 68.8086L65.5148 68.3916L63.6382 67.7661C62.5956 67.349 61.7616 67.766 61.136 68.6L59.2595 71.7277C58.8424 72.5617 58.8425 73.6043 59.6765 74.4383L61.136 75.6894L61.7616 76.1065C61.5531 77.149 61.3446 78.1916 61.3446 79.2341C61.3446 80.2767 61.5531 81.3193 61.7616 82.3618L61.136 82.7787L59.6765 84.0299C58.8425 84.6554 58.8424 85.6979 59.2595 86.7405L61.136 89.8681C61.5531 90.7022 62.5956 91.1193 63.6382 90.7022L65.5148 90.0766L66.1404 89.6597C67.5999 91.1193 69.4765 92.1618 71.5616 92.7873V93.4128L71.9786 95.2894C72.1871 96.3319 73.0212 96.9576 74.0637 96.9576H77.8169C78.8595 96.9576 79.6935 96.3319 79.902 95.2894L80.3191 93.4128V92.7873C82.4042 92.1618 84.0723 91.1193 85.7403 89.6597L86.3659 90.0766L88.2424 90.7022C89.285 91.1193 90.1191 90.7022 90.7446 89.8681L92.6212 86.7405C93.0382 85.9064 93.0382 84.8639 92.2042 84.0299L90.7446 82.7787L90.1191 82.3618ZM76.3574 86.532C72.3957 86.532 69.0595 83.1958 69.0595 79.2341C69.0595 75.2724 72.3957 71.9363 76.3574 71.9363C80.3191 71.9363 83.6552 75.2724 83.6552 79.2341C83.6552 83.1958 80.3191 86.532 76.3574 86.532Z" fill="#BBDBFF"/>
<path d="M78.0254 97.9998H74.2723C72.8127 97.9998 71.5616 96.9572 71.1446 95.4976L70.7276 93.621C69.0595 92.9954 67.5999 92.1614 66.3488 91.1188L64.4723 91.7444C63.0127 92.1615 61.5531 91.5359 60.7191 90.2848L58.8425 87.1572C58.0085 85.9061 58.4255 84.238 59.468 83.1954L60.9276 81.9444C60.7191 81.1104 60.7191 80.2763 60.7191 79.4423C60.7191 78.6082 60.7191 77.7742 60.9276 76.9401L59.468 75.6891C58.4255 74.6465 58.0085 72.9784 58.8425 71.7273L60.7191 68.5997C61.5531 67.3486 63.0127 66.7231 64.4723 67.1401L66.3488 67.7657C67.8084 66.7232 69.268 65.6806 70.7276 65.2636L71.1446 63.3869C71.3531 61.9273 72.8127 60.8848 74.2723 60.8848H78.0254C79.485 60.8848 80.7361 61.9273 81.1531 63.3869L81.5702 65.2636C83.2382 65.8891 84.6978 66.7232 85.9489 67.7657L87.8255 67.1401C89.285 66.7231 90.7446 67.3486 91.5786 68.5997L93.4552 71.7273C94.2893 72.9784 93.8723 74.6465 92.8297 75.6891L91.3701 76.9401C91.5786 77.7742 91.5786 78.6082 91.5786 79.4423C91.5786 80.2763 91.5786 81.1104 91.3701 81.9444L92.8297 83.1954C93.8723 84.238 94.2893 85.9061 93.4552 87.1572L91.5786 90.2848C90.7446 91.5359 89.285 92.1615 87.8255 91.7444L85.9489 91.1188C84.6978 92.1614 83.0297 93.2039 81.5702 93.621L81.1531 95.4976C80.9446 96.9572 79.485 97.9998 78.0254 97.9998ZM66.5574 88.6168C66.7659 88.6168 66.9744 88.6167 67.1829 88.8252C68.6425 90.0763 70.3106 91.1189 72.1872 91.7444C72.6042 91.953 73.0212 92.37 73.0212 92.787V93.4125L73.4383 95.0806C73.4383 95.4976 74.0638 95.9147 74.4808 95.9147H78.234C78.651 95.9147 79.068 95.4976 79.2765 95.0806L79.6936 93.2039V92.787C79.6936 92.37 79.9021 91.953 80.5276 91.7444C82.4042 91.1189 84.0723 90.2848 85.5318 88.8252C85.9489 88.6167 86.3659 88.4083 86.7829 88.6168L87.4084 89.0337L89.0765 89.6593C89.4936 89.8678 90.1191 89.6593 90.3276 89.2423L92.2042 86.1146C92.4127 85.6976 92.4127 85.072 91.9957 84.8635L90.5361 83.6125L90.1191 83.404C89.7021 83.1955 89.4935 82.7785 89.7021 82.3615C89.9106 81.3189 90.1191 80.4848 90.1191 79.4423C90.1191 78.3997 89.9106 77.5656 89.7021 76.5231C89.7021 76.106 89.7021 75.689 90.1191 75.4805L90.7446 75.0636L91.9957 74.021C92.4127 73.604 92.4127 73.1869 92.2042 72.7699L90.3276 69.6422C90.1191 69.2252 89.4936 69.0167 89.0765 69.2252L87.1999 69.8508L86.7829 70.0593C86.3659 70.2678 85.9489 70.2678 85.5318 69.8508C84.0723 68.5998 82.4042 67.5572 80.5276 66.9316C80.1106 66.7231 79.6936 66.3061 79.6936 65.8891V65.2636L79.2765 63.5955C79.2765 63.1785 78.651 62.7614 78.234 62.7614H74.4808C74.0638 62.7614 73.6468 63.1785 73.4383 63.5955L73.0212 65.472V65.8891C73.0212 66.3061 72.8127 66.7231 72.1872 66.9316C70.3106 67.5572 68.6425 68.3913 67.1829 69.8508C66.7659 70.0593 66.3489 70.2678 65.9319 70.0593L65.3063 69.6422L63.6382 69.0167C63.2212 68.8082 62.5957 69.0168 62.3871 69.4338L60.5106 72.5614C60.3021 72.9785 60.3021 73.6039 60.7191 73.8125L62.1786 75.0636L62.5957 75.2721C63.0127 75.4806 63.2212 75.8976 63.0127 76.3146C62.8042 77.3572 62.5957 78.1912 62.5957 79.2338C62.5957 80.2764 62.8042 81.1103 63.0127 82.1529C63.0127 82.5699 63.0127 82.9869 62.5957 83.1954L61.9702 83.6125L60.7191 84.655C60.3021 85.0721 60.3021 85.489 60.5106 85.906L62.3871 89.0337C62.5957 89.4507 63.2212 89.6593 63.6382 89.4507L65.5148 88.8252L65.9319 88.6168C66.1404 88.6168 66.3489 88.6168 66.5574 88.6168ZM76.3574 87.5742C71.7702 87.5742 68.017 83.821 68.017 79.2338C68.017 74.6466 71.7702 70.8934 76.3574 70.8934C80.9446 70.8934 84.6978 74.6466 84.6978 79.2338C84.6978 83.821 80.9446 87.5742 76.3574 87.5742ZM76.3574 72.9785C72.8127 72.9785 70.1021 75.6891 70.1021 79.2338C70.1021 82.7785 72.8127 85.4891 76.3574 85.4891C79.9021 85.4891 82.6127 82.7785 82.6127 79.2338C82.6127 75.6891 79.6936 72.9785 76.3574 72.9785Z" fill="#919EAB"/>
</g>
</svg>
