<svg width="64" height="64" viewBox="0 0 64 64" fill="none" xmlns="http://www.w3.org/2000/svg">
<path d="M60 59.25H4C3.724 59.25 3.5 59.026 3.5 58.75V7.75C3.5 7.474 3.724 7.25 4 7.25C4.276 7.25 4.5 7.474 4.5 7.75V58.25H60C60.276 58.25 60.5 58.474 60.5 58.75C60.5 59.026 60.276 59.25 60 59.25Z" fill="#263238"/>
<path d="M28.0312 4.25H24.0312C23.7553 4.25 23.5312 4.026 23.5312 3.75C23.5312 3.474 23.7553 3.25 24.0312 3.25H28.0312C28.3073 3.25 28.5312 3.474 28.5312 3.75C28.5312 4.026 28.3073 4.25 28.0312 4.25Z" fill="#263238"/>
<path d="M26.0312 6.25C25.7553 6.25 25.5312 6.026 25.5312 5.75V1.75C25.5312 1.474 25.7553 1.25 26.0312 1.25C26.3073 1.25 26.5312 1.474 26.5312 1.75V5.75C26.5312 6.026 26.3073 6.25 26.0312 6.25Z" fill="#263238"/>
<path d="M19.0312 12.25H15.0312C14.7553 12.25 14.5312 12.026 14.5312 11.75C14.5312 11.474 14.7553 11.25 15.0312 11.25H19.0312C19.3073 11.25 19.5312 11.474 19.5312 11.75C19.5312 12.026 19.3073 12.25 19.0312 12.25Z" fill="#263238"/>
<path d="M17.0312 14.25C16.7553 14.25 16.5312 14.026 16.5312 13.75V9.75C16.5312 9.474 16.7553 9.25 17.0312 9.25C17.3073 9.25 17.5312 9.474 17.5312 9.75V13.75C17.5312 14.026 17.3073 14.25 17.0312 14.25Z" fill="#263238"/>
<path d="M53 13.75H52C51.724 13.75 51.5 13.526 51.5 13.25C51.5 12.974 51.724 12.75 52 12.75H53C53.276 12.75 53.5 12.974 53.5 13.25C53.5 13.526 53.276 13.75 53 13.75Z" fill="#263238"/>
<path d="M50 13.75H39C38.724 13.75 38.5 13.526 38.5 13.25C38.5 12.974 38.724 12.75 39 12.75H50C50.276 12.75 50.5 12.974 50.5 13.25C50.5 13.526 50.276 13.75 50 13.75Z" fill="#263238"/>
<path d="M56.5 30.5L46 22L40 42L56.5 30.5Z" fill="#FFD740"/>
<path d="M40 41L46 22" stroke="#263238"/>
<path d="M41 41.5L56.5 30.5" stroke="#263238"/>
<path d="M46 10.75H45C44.724 10.75 44.5 10.526 44.5 10.25C44.5 9.974 44.724 9.75 45 9.75H46C46.276 9.75 46.5 9.974 46.5 10.25C46.5 10.526 46.276 10.75 46 10.75Z" fill="#263238"/>
<path d="M59 10.75H48C47.724 10.75 47.5 10.526 47.5 10.25C47.5 9.974 47.724 9.75 48 9.75H59C59.276 9.75 59.5 9.974 59.5 10.25C59.5 10.526 59.276 10.75 59 10.75Z" fill="#263238"/>
<path d="M14.4999 42.9993C14.4079 42.9993 14.3159 42.9743 14.2349 42.9233L6.23487 37.9233C6.00087 37.7773 5.92987 37.4683 6.07587 37.2343C6.22187 37.0003 6.53087 36.9283 6.76487 37.0753L14.5359 41.9313L27.2909 36.0443C27.4139 35.9883 27.5529 35.9833 27.6799 36.0313L40.3199 40.8933L51.5939 25.2063C51.7549 24.9813 52.0679 24.9313 52.2919 25.0923C52.5159 25.2543 52.5669 25.5663 52.4059 25.7903L40.9059 41.7903C40.7719 41.9753 40.5299 42.0453 40.3199 41.9653L27.5169 37.0413L14.7089 42.9533C14.6429 42.9843 14.5709 42.9993 14.4999 42.9993Z" fill="#263238"/>
<path d="M40.5 44C41.8807 44 43 42.8807 43 41.5C43 40.1193 41.8807 39 40.5 39C39.1193 39 38 40.1193 38 41.5C38 42.8807 39.1193 44 40.5 44Z" fill="white"/>
<path d="M40.5 44.5C38.846 44.5 37.5 43.154 37.5 41.5C37.5 39.846 38.846 38.5 40.5 38.5C42.154 38.5 43.5 39.846 43.5 41.5C43.5 43.154 42.154 44.5 40.5 44.5ZM40.5 39.5C39.397 39.5 38.5 40.397 38.5 41.5C38.5 42.603 39.397 43.5 40.5 43.5C41.603 43.5 42.5 42.603 42.5 41.5C42.5 40.397 41.603 39.5 40.5 39.5Z" fill="#263238"/>
<path d="M14.5 45C15.8807 45 17 43.8807 17 42.5C17 41.1193 15.8807 40 14.5 40C13.1193 40 12 41.1193 12 42.5C12 43.8807 13.1193 45 14.5 45Z" fill="white"/>
<path d="M14.5 45.5C12.846 45.5 11.5 44.154 11.5 42.5C11.5 40.846 12.846 39.5 14.5 39.5C16.154 39.5 17.5 40.846 17.5 42.5C17.5 44.154 16.154 45.5 14.5 45.5ZM14.5 40.5C13.397 40.5 12.5 41.397 12.5 42.5C12.5 43.603 13.397 44.5 14.5 44.5C15.603 44.5 16.5 43.603 16.5 42.5C16.5 41.397 15.603 40.5 14.5 40.5Z" fill="#263238"/>
<path d="M52 28C53.3807 28 54.5 26.8807 54.5 25.5C54.5 24.1193 53.3807 23 52 23C50.6193 23 49.5 24.1193 49.5 25.5C49.5 26.8807 50.6193 28 52 28Z" fill="#0795FF"/>
<path d="M52 28.5C50.346 28.5 49 27.154 49 25.5C49 23.846 50.346 22.5 52 22.5C53.654 22.5 55 23.846 55 25.5C55 27.154 53.654 28.5 52 28.5ZM52 23.5C50.897 23.5 50 24.397 50 25.5C50 26.603 50.897 27.5 52 27.5C53.103 27.5 54 26.603 54 25.5C54 24.397 53.103 23.5 52 23.5Z" fill="#263238"/>
<path d="M27.5 39C28.8807 39 30 37.8807 30 36.5C30 35.1193 28.8807 34 27.5 34C26.1193 34 25 35.1193 25 36.5C25 37.8807 26.1193 39 27.5 39Z" fill="white"/>
<path d="M27.5 39.5C25.846 39.5 24.5 38.154 24.5 36.5C24.5 34.846 25.846 33.5 27.5 33.5C29.154 33.5 30.5 34.846 30.5 36.5C30.5 38.154 29.154 39.5 27.5 39.5ZM27.5 34.5C26.397 34.5 25.5 35.397 25.5 36.5C25.5 37.603 26.397 38.5 27.5 38.5C28.603 38.5 29.5 37.603 29.5 36.5C29.5 35.397 28.603 34.5 27.5 34.5Z" fill="#263238"/>
<path d="M12 61.75C11.724 61.75 11.5 61.526 11.5 61.25V58.75C11.5 58.474 11.724 58.25 12 58.25C12.276 58.25 12.5 58.474 12.5 58.75V61.25C12.5 61.526 12.276 61.75 12 61.75Z" fill="#263238"/>
<path d="M22 61.75C21.724 61.75 21.5 61.526 21.5 61.25V58.75C21.5 58.474 21.724 58.25 22 58.25C22.276 58.25 22.5 58.474 22.5 58.75V61.25C22.5 61.526 22.276 61.75 22 61.75Z" fill="#263238"/>
<path d="M32 61.75C31.724 61.75 31.5 61.526 31.5 61.25V58.75C31.5 58.474 31.724 58.25 32 58.25C32.276 58.25 32.5 58.474 32.5 58.75V61.25C32.5 61.526 32.276 61.75 32 61.75Z" fill="#263238"/>
<path d="M42 61.75C41.724 61.75 41.5 61.526 41.5 61.25V58.75C41.5 58.474 41.724 58.25 42 58.25C42.276 58.25 42.5 58.474 42.5 58.75V61.25C42.5 61.526 42.276 61.75 42 61.75Z" fill="#263238"/>
<path d="M52 61.75C51.724 61.75 51.5 61.526 51.5 61.25V58.75C51.5 58.474 51.724 58.25 52 58.25C52.276 58.25 52.5 58.474 52.5 58.75V61.25C52.5 61.526 52.276 61.75 52 61.75Z" fill="#263238"/>
</svg>
