<svg width="16" height="16" viewBox="0 0 16 16" fill="none" xmlns="http://www.w3.org/2000/svg">
<path d="M8.20883 6.76357C8.20883 7.27805 7.79179 7.6951 7.2773 7.6951C6.76281 7.6951 6.34576 7.27805 6.34576 6.76357C6.34576 6.24908 6.76281 5.83203 7.2773 5.83203C7.79179 5.83203 8.20883 6.24908 8.20883 6.76357Z" fill="#485255"/>
<path d="M4.83738 7.28521C4.90145 7.58095 5.01991 7.8622 5.18682 8.11461C5.25812 8.22157 5.25088 8.36262 5.16892 8.46163L4.85486 8.84075L5.20031 9.1862L5.57929 8.87257C5.67716 8.79189 5.81608 8.78393 5.92247 8.85282C6.17673 9.01987 6.45898 9.13947 6.75571 9.20595C6.87971 9.23393 6.97176 9.33848 6.98383 9.46504L7.03128 9.96348H7.52332L7.57091 9.46504C7.5827 9.33777 7.6746 9.23251 7.79903 9.20339C8.09477 9.13933 8.37602 9.02086 8.62844 8.85396C8.7354 8.78265 8.87645 8.79004 8.97545 8.87214L9.35471 9.18606L9.70017 8.84089L9.38667 8.46163C9.30599 8.36376 9.29818 8.22484 9.36721 8.11845C9.5344 7.86433 9.65415 7.58208 9.72091 7.28535C9.74932 7.1612 9.854 7.0693 9.98085 7.05723L10.4728 7.00993V6.51745L9.97204 6.46987C9.84434 6.45822 9.73824 6.36646 9.70812 6.24174C9.64406 5.946 9.52559 5.66475 9.35869 5.41234C9.28738 5.30538 9.29463 5.16433 9.37659 5.06532L9.69165 4.68493L9.35315 4.34189L8.97531 4.65439C8.87744 4.73507 8.73852 4.74316 8.63213 4.67413C8.37787 4.50708 8.09562 4.38748 7.79903 4.321C7.67488 4.29302 7.58284 4.18848 7.57091 4.06191L7.52332 3.56348H7.03128L6.98369 4.06191C6.9719 4.18919 6.88 4.29444 6.75557 4.32356C6.45983 4.38762 6.17858 4.50609 5.92616 4.67299C5.8192 4.7443 5.67815 4.73691 5.57915 4.65481L5.20003 4.34103L4.85457 4.68635L5.16807 5.06547C5.24875 5.16348 5.25656 5.30225 5.18753 5.40865C5.02048 5.66291 4.90059 5.94501 4.83383 6.24174C4.80542 6.36603 4.70045 6.45794 4.57361 6.46987L4.07275 6.51745V7.0095L4.57346 7.05708C4.70116 7.06873 4.80727 7.16049 4.83738 7.28521ZM7.27744 5.25012C8.11309 5.25012 8.79065 5.92768 8.79065 6.76348C8.79065 7.59927 8.11309 8.27683 7.2773 8.27683C6.4415 8.27683 5.76395 7.59927 5.76395 6.76348C5.76395 5.92768 6.4415 5.25012 7.27744 5.25012Z" fill="#485255"/>
<path d="M11.3811 3.41816H13.8493L10.9454 0.430664V2.98663C10.9457 3.22527 11.1395 3.41845 11.3781 3.41816H11.3811Z" fill="#485255"/>
<path d="M10.3637 2.98665V0H2.9175C2.27261 0.00213068 1.74989 0.523153 1.74548 1.1679V14.8321C1.74989 15.4768 2.27261 15.9979 2.9175 16H13.0826C13.7274 15.9979 14.2502 15.4768 14.2546 14.8321V4H11.3811C10.8208 4.00156 10.3652 3.54872 10.3637 2.98835V2.98665ZM3.49094 6.25341C3.49435 6.10213 3.61068 5.97756 3.76139 5.96392L4.3219 5.91051C4.38739 5.69048 4.47702 5.47827 4.58938 5.27798L4.23781 4.85355C4.14207 4.73793 4.14989 4.56832 4.25599 4.46222L4.97588 3.74219C5.08199 3.6358 5.25159 3.62784 5.36736 3.72358L5.79037 4.0733C5.99094 3.96037 6.20358 3.8706 6.42432 3.80554L6.47759 3.25014C6.49151 3.09986 6.61622 2.98423 6.76707 2.98182H7.78753C7.93838 2.98423 8.06324 3.09986 8.07716 3.25L8.13043 3.80824C8.35045 3.87372 8.56267 3.96335 8.76295 4.07571L9.18753 3.72415C9.30372 3.62784 9.47418 3.63636 9.58014 3.74389L10.2909 4.46364C10.3961 4.56989 10.4036 4.73835 10.3084 4.85355L9.95898 5.2767C10.072 5.47713 10.1621 5.68977 10.2274 5.91051L10.784 5.96392C10.9347 5.97756 11.0512 6.10213 11.0546 6.25341V7.27386C11.0512 7.425 10.935 7.54957 10.7844 7.56335L10.2327 7.61648C10.1674 7.83679 10.0776 8.04901 9.96523 8.24929L10.3168 8.67386C10.4127 8.78935 10.4047 8.95895 10.2986 9.0652L9.57886 9.78523C9.47276 9.89133 9.3033 9.89943 9.18753 9.80383L8.76452 9.45412C8.56395 9.56705 8.35131 9.65682 8.13057 9.72187L8.0773 10.2774C8.06338 10.4276 7.93838 10.5432 7.78753 10.5455H6.76707C6.61622 10.543 6.49151 10.4274 6.47744 10.2773L6.42418 9.71903C6.20415 9.65355 5.99193 9.56392 5.79165 9.45156L5.36736 9.80312C5.25173 9.89886 5.08213 9.89105 4.97588 9.78494L4.25585 9.06506C4.1496 8.95909 4.14151 8.78963 4.2371 8.67386L4.58653 8.25071C4.47347 8.05028 4.38341 7.83764 4.31807 7.6169L3.76153 7.56364C3.61068 7.55 3.4942 7.42528 3.49094 7.27386V6.25341ZM3.70259 11.3455H8.71409C8.87474 11.3455 9.005 11.4757 9.005 11.6364C9.005 11.797 8.87474 11.9273 8.71409 11.9273H3.70259C3.54193 11.9273 3.41168 11.797 3.41168 11.6364C3.41168 11.4757 3.54193 11.3455 3.70259 11.3455ZM12.3644 13.6C12.3644 13.7607 12.2341 13.8909 12.0735 13.8909H3.70259C3.54193 13.8909 3.41168 13.7607 3.41168 13.6C3.41168 13.4393 3.54193 13.3091 3.70259 13.3091H12.0735C12.2341 13.3091 12.3644 13.4393 12.3644 13.6Z" fill="#485255"/>
</svg>
