<svg width="10" height="10" viewBox="0 0 10 10" fill="none" xmlns="http://www.w3.org/2000/svg">
<path d="M5 0.625C4.13471 0.625 3.28885 0.881589 2.56938 1.36232C1.84992 1.84305 1.28916 2.52633 0.958029 3.32576C0.626896 4.12519 0.540256 5.00485 0.709066 5.85352C0.877877 6.70219 1.29456 7.48174 1.90641 8.09359C2.51826 8.70545 3.29782 9.12212 4.14648 9.29094C4.99515 9.45975 5.87482 9.37311 6.67424 9.04197C7.47367 8.71084 8.15695 8.15008 8.63768 7.43062C9.11841 6.71115 9.375 5.86529 9.375 5C9.375 3.83968 8.91407 2.72688 8.09359 1.90641C7.27312 1.08594 6.16032 0.625 5 0.625ZM5 8.75C4.25832 8.75 3.5333 8.53007 2.91661 8.11801C2.29993 7.70596 1.81928 7.12029 1.53545 6.43506C1.25163 5.74984 1.17736 4.99584 1.32206 4.26841C1.46675 3.54098 1.8239 2.8728 2.34835 2.34835C2.8728 1.8239 3.54098 1.46675 4.26841 1.32206C4.99584 1.17736 5.74984 1.25162 6.43506 1.53545C7.12029 1.81928 7.70596 2.29993 8.11801 2.91661C8.53007 3.5333 8.75 4.25832 8.75 5C8.75 5.99456 8.35491 6.94839 7.65165 7.65165C6.94839 8.35491 5.99456 8.75 5 8.75Z" fill="#485255"/>
</svg>
