<svg width="27" height="27" viewBox="0 0 27 27" fill="none" xmlns="http://www.w3.org/2000/svg">
<path d="M22.506 15.4624C22.2337 15.3775 21.9389 15.4038 21.6858 15.5354C21.4327 15.667 21.2419 15.8933 21.155 16.165C20.6444 17.7262 19.6489 19.0838 18.3134 20.0402C16.978 20.9966 15.3722 21.5019 13.7297 21.4827C11.6981 21.5058 9.74024 20.7222 8.28548 19.304C6.83072 17.8857 5.99777 15.9483 5.96928 13.9168C5.99777 11.8853 6.83072 9.94799 8.28548 8.5297C9.74024 7.1114 11.6981 6.3279 13.7297 6.35099C15.5645 6.34656 17.3428 6.98523 18.7555 8.15598L16.4101 7.76688C16.2696 7.74375 16.1258 7.74864 15.9871 7.78126C15.8485 7.81388 15.7176 7.8736 15.6021 7.95697C15.4866 8.04033 15.3887 8.14572 15.3141 8.26705C15.2394 8.38839 15.1895 8.52328 15.1672 8.66397C15.144 8.80454 15.1489 8.94829 15.1816 9.08696C15.2142 9.22563 15.2739 9.35648 15.3573 9.472C15.4406 9.58751 15.546 9.6854 15.6673 9.76004C15.7887 9.83469 15.9236 9.88461 16.0643 9.90693L20.647 10.6635H20.8307C20.9561 10.6634 21.0804 10.6414 21.1982 10.5987C21.2378 10.5836 21.2744 10.5617 21.3063 10.5338C21.3838 10.505 21.4566 10.4649 21.5225 10.4149L21.6197 10.296C21.6197 10.242 21.717 10.1988 21.7603 10.1339C21.8035 10.0691 21.7603 10.0258 21.8143 9.98259C21.8442 9.91965 21.8695 9.85463 21.89 9.78804L22.7006 5.46471C22.7276 5.32277 22.7263 5.17691 22.6969 5.03546C22.6675 4.89401 22.6105 4.75973 22.5292 4.64029C22.4479 4.52086 22.3439 4.41861 22.2231 4.33938C22.1023 4.26014 21.967 4.20548 21.8251 4.17852C21.6832 4.15155 21.5373 4.1528 21.3959 4.1822C21.2544 4.2116 21.1201 4.26858 21.0007 4.34987C20.7595 4.51406 20.5934 4.76734 20.5389 5.05399L20.2471 6.6212C18.4378 5.05317 16.1239 4.18979 13.7297 4.18932C11.1248 4.16627 8.61715 5.17753 6.757 7.0012C4.89685 8.82487 3.83614 11.312 3.80762 13.9168C3.83614 16.5217 4.89685 19.0088 6.757 20.8324C8.61715 22.6561 11.1248 23.6674 13.7297 23.6443C15.8407 23.6768 17.9063 23.0305 19.6225 21.8008C21.3387 20.5711 22.6147 18.8228 23.2626 16.8135C23.3036 16.6751 23.3165 16.5299 23.3005 16.3865C23.2844 16.243 23.2399 16.1043 23.1693 15.9783C23.0988 15.8524 23.0038 15.7419 22.8899 15.6533C22.776 15.5647 22.6454 15.4998 22.506 15.4624Z" fill="black"/>
</svg>
