<svg width="64" height="64" viewBox="0 0 64 64" fill="none" xmlns="http://www.w3.org/2000/svg">
<path d="M60 56.75H4C3.724 56.75 3.5 56.526 3.5 56.25V5.25C3.5 4.974 3.724 4.75 4 4.75C4.276 4.75 4.5 4.974 4.5 5.25V55.75H60C60.276 55.75 60.5 55.974 60.5 56.25C60.5 56.526 60.276 56.75 60 56.75Z" fill="#263238"/>
<path d="M12 59.25C11.724 59.25 11.5 59.026 11.5 58.75V56.25C11.5 55.974 11.724 55.75 12 55.75C12.276 55.75 12.5 55.974 12.5 56.25V58.75C12.5 59.026 12.276 59.25 12 59.25Z" fill="#263238"/>
<path d="M22 59.25C21.724 59.25 21.5 59.026 21.5 58.75V56.25C21.5 55.974 21.724 55.75 22 55.75C22.276 55.75 22.5 55.974 22.5 56.25V58.75C22.5 59.026 22.276 59.25 22 59.25Z" fill="#263238"/>
<path d="M32 59.25C31.724 59.25 31.5 59.026 31.5 58.75V56.25C31.5 55.974 31.724 55.75 32 55.75C32.276 55.75 32.5 55.974 32.5 56.25V58.75C32.5 59.026 32.276 59.25 32 59.25Z" fill="#263238"/>
<path d="M42 59.25C41.724 59.25 41.5 59.026 41.5 58.75V56.25C41.5 55.974 41.724 55.75 42 55.75C42.276 55.75 42.5 55.974 42.5 56.25V58.75C42.5 59.026 42.276 59.25 42 59.25Z" fill="#263238"/>
<path d="M52 59.25C51.724 59.25 51.5 59.026 51.5 58.75V56.25C51.5 55.974 51.724 55.75 52 55.75C52.276 55.75 52.5 55.974 52.5 56.25V58.75C52.5 59.026 52.276 59.25 52 59.25Z" fill="#263238"/>
<path d="M17.4875 44.1072C17.4875 44.2352 17.4385 44.3632 17.3415 44.4612L15.9275 45.8752C15.7325 46.0702 15.4155 46.0702 15.2205 45.8752C15.0255 45.6802 15.0255 45.3632 15.2205 45.1682L16.6345 43.7542C16.8295 43.5592 17.1465 43.5592 17.3415 43.7542C17.4385 43.8512 17.4875 43.9792 17.4875 44.1072Z" fill="#263238"/>
<path d="M45.2446 16.3501C45.2446 16.4781 45.1956 16.6061 45.0986 16.7041L18.7556 43.0471C18.5606 43.2421 18.2436 43.2421 18.0486 43.0471C17.8536 42.8521 17.8536 42.5351 18.0486 42.3401L44.3916 15.9971C44.5866 15.8021 44.9036 15.8021 45.0986 15.9971C45.1956 16.0941 45.2446 16.2221 45.2446 16.3501Z" fill="#263238"/>
<path d="M48.0734 13.5213C48.0734 13.6493 48.0244 13.7773 47.9274 13.8753L46.5134 15.2893C46.3184 15.4843 46.0014 15.4843 45.8064 15.2893C45.6114 15.0943 45.6114 14.7773 45.8064 14.5823L47.2204 13.1683C47.4154 12.9733 47.7324 12.9733 47.9274 13.1683C48.0254 13.2653 48.0734 13.3933 48.0734 13.5213Z" fill="#263238"/>
<path d="M23.5 34.2012C23.5 32.8205 22.3807 31.7012 21 31.7012C19.6193 31.7012 18.5 32.8205 18.5 34.2012C18.5 35.5819 19.6193 36.7012 21 36.7012C22.3807 36.7012 23.5 35.5819 23.5 34.2012Z" fill="#40C4FF"/>
<path d="M24 34.2012C24 35.8552 22.654 37.2012 21 37.2012C19.346 37.2012 18 35.8552 18 34.2012C18 32.5472 19.346 31.2012 21 31.2012C22.654 31.2012 24 32.5472 24 34.2012ZM19 34.2012C19 35.3042 19.897 36.2012 21 36.2012C22.103 36.2012 23 35.3042 23 34.2012C23 33.0982 22.103 32.2012 21 32.2012C19.897 32.2012 19 33.0982 19 34.2012Z" fill="#263238"/>
<path d="M38.8027 17C38.8027 15.6193 37.6834 14.5 36.3027 14.5C34.922 14.5 33.8027 15.6193 33.8027 17C33.8027 18.3807 34.922 19.5 36.3027 19.5C37.6834 19.5 38.8027 18.3807 38.8027 17Z" fill="#40C4FF"/>
<path d="M39.3027 17C39.3027 18.654 37.9567 20 36.3027 20C34.6487 20 33.3027 18.654 33.3027 17C33.3027 15.346 34.6487 14 36.3027 14C37.9567 14 39.3027 15.346 39.3027 17ZM34.3027 17C34.3027 18.103 35.1997 19 36.3027 19C37.4057 19 38.3027 18.103 38.3027 17C38.3027 15.897 37.4057 15 36.3027 15C35.1997 15 34.3027 15.897 34.3027 17Z" fill="#263238"/>
<path d="M27.5 20C27.5 18.6193 26.3807 17.5 25 17.5C23.6193 17.5 22.5 18.6193 22.5 20C22.5 21.3807 23.6193 22.5 25 22.5C26.3807 22.5 27.5 21.3807 27.5 20Z" fill="#40C4FF"/>
<path d="M28 20C28 21.654 26.654 23 25 23C23.346 23 22 21.654 22 20C22 18.346 23.346 17 25 17C26.654 17 28 18.346 28 20ZM23 20C23 21.103 23.897 22 25 22C26.103 22 27 21.103 27 20C27 18.897 26.103 18 25 18C23.897 18 23 18.897 23 20Z" fill="#263238"/>
<path d="M27.9062 28.1387C27.9062 26.758 26.787 25.6387 25.4062 25.6387C24.0255 25.6387 22.9062 26.758 22.9062 28.1387C22.9062 29.5194 24.0255 30.6387 25.4062 30.6387C26.787 30.6387 27.9062 29.5194 27.9062 28.1387Z" fill="#40C4FF"/>
<path d="M28.4062 28.1387C28.4062 29.7927 27.0603 31.1387 25.4062 31.1387C23.7522 31.1387 22.4062 29.7927 22.4062 28.1387C22.4062 26.4847 23.7522 25.1387 25.4062 25.1387C27.0603 25.1387 28.4062 26.4847 28.4062 28.1387ZM23.4062 28.1387C23.4062 29.2417 24.3032 30.1387 25.4062 30.1387C26.5093 30.1387 27.4062 29.2417 27.4062 28.1387C27.4062 27.0357 26.5093 26.1387 25.4062 26.1387C24.3032 26.1387 23.4062 27.0357 23.4062 28.1387Z" fill="#263238"/>
<path d="M34.5 23C34.5 21.6193 33.3807 20.5 32 20.5C30.6193 20.5 29.5 21.6193 29.5 23C29.5 24.3807 30.6193 25.5 32 25.5C33.3807 25.5 34.5 24.3807 34.5 23Z" fill="#40C4FF"/>
<path d="M35 23C35 24.654 33.654 26 32 26C30.346 26 29 24.654 29 23C29 21.346 30.346 20 32 20C33.654 20 35 21.346 35 23ZM30 23C30 24.103 30.897 25 32 25C33.103 25 34 24.103 34 23C34 21.897 33.103 21 32 21C30.897 21 30 21.897 30 23Z" fill="#263238"/>
<path d="M45.5 31C45.5 29.6193 44.3807 28.5 43 28.5C41.6193 28.5 40.5 29.6193 40.5 31C40.5 32.3807 41.6193 33.5 43 33.5C44.3807 33.5 45.5 32.3807 45.5 31Z" fill="#40C4FF"/>
<path d="M46 31C46 32.654 44.654 34 43 34C41.346 34 40 32.654 40 31C40 29.346 41.346 28 43 28C44.654 28 46 29.346 46 31ZM41 31C41 32.103 41.897 33 43 33C44.103 33 45 32.103 45 31C45 29.897 44.103 29 43 29C41.897 29 41 29.897 41 31Z" fill="#263238"/>
<path d="M45.5 24C45.5 22.6193 44.3807 21.5 43 21.5C41.6193 21.5 40.5 22.6193 40.5 24C40.5 25.3807 41.6193 26.5 43 26.5C44.3807 26.5 45.5 25.3807 45.5 24Z" fill="#40C4FF"/>
<path d="M46 24C46 25.654 44.654 27 43 27C41.346 27 40 25.654 40 24C40 22.346 41.346 21 43 21C44.654 21 46 22.346 46 24ZM41 24C41 25.103 41.897 26 43 26C44.103 26 45 25.103 45 24C45 22.897 44.103 22 43 22C41.897 22 41 22.897 41 24Z" fill="#263238"/>
<path d="M38.5 30C38.5 28.6193 37.3807 27.5 36 27.5C34.6193 27.5 33.5 28.6193 33.5 30C33.5 31.3807 34.6193 32.5 36 32.5C37.3807 32.5 38.5 31.3807 38.5 30Z" fill="#40C4FF"/>
<path d="M39 30C39 31.654 37.654 33 36 33C34.346 33 33 31.654 33 30C33 28.346 34.346 27 36 27C37.654 27 39 28.346 39 30ZM34 30C34 31.103 34.897 32 36 32C37.103 32 38 31.103 38 30C38 28.897 37.103 28 36 28C34.897 28 34 28.897 34 30Z" fill="#263238"/>
<path d="M38.5 38C38.5 36.6193 37.3807 35.5 36 35.5C34.6193 35.5 33.5 36.6193 33.5 38C33.5 39.3807 34.6193 40.5 36 40.5C37.3807 40.5 38.5 39.3807 38.5 38Z" fill="#40C4FF"/>
<path d="M39 38C39 39.654 37.654 41 36 41C34.346 41 33 39.654 33 38C33 36.346 34.346 35 36 35C37.654 35 39 36.346 39 38ZM34 38C34 39.103 34.897 40 36 40C37.103 40 38 39.103 38 38C38 36.897 37.103 36 36 36C34.897 36 34 36.897 34 38Z" fill="#263238"/>
<path d="M23.5 46C23.5 44.6193 22.3807 43.5 21 43.5C19.6193 43.5 18.5 44.6193 18.5 46C18.5 47.3807 19.6193 48.5 21 48.5C22.3807 48.5 23.5 47.3807 23.5 46Z" fill="#40C4FF"/>
<path d="M24 46C24 47.654 22.654 49 21 49C19.346 49 18 47.654 18 46C18 44.346 19.346 43 21 43C22.654 43 24 44.346 24 46ZM19 46C19 47.103 19.897 48 21 48C22.103 48 23 47.103 23 46C23 44.897 22.103 44 21 44C19.897 44 19 44.897 19 46Z" fill="#263238"/>
<path d="M31.9062 38C31.9062 36.6193 30.787 35.5 29.4062 35.5C28.0255 35.5 26.9062 36.6193 26.9062 38C26.9062 39.3807 28.0255 40.5 29.4062 40.5C30.787 40.5 31.9062 39.3807 31.9062 38Z" fill="#40C4FF"/>
<path d="M32.4062 38C32.4062 39.654 31.0603 41 29.4062 41C27.7522 41 26.4062 39.654 26.4062 38C26.4062 36.346 27.7522 35 29.4062 35C31.0603 35 32.4062 36.346 32.4062 38ZM27.4062 38C27.4062 39.103 28.3032 40 29.4062 40C30.5093 40 31.4062 39.103 31.4062 38C31.4062 36.897 30.5093 36 29.4062 36C28.3032 36 27.4062 36.897 27.4062 38Z" fill="#263238"/>
</svg>
