<svg width="17" height="20" viewBox="0 0 17 20" fill="none" xmlns="http://www.w3.org/2000/svg">
<path d="M16 9.64095V4.22428C16 3.30381 15.2538 2.55762 14.3333 2.55762H2.66667C1.74619 2.55762 1 3.30381 1 4.22428V15.891C1 16.8114 1.74619 17.5576 2.66667 17.5576H5.58333" stroke="#919EAB" stroke-width="1.7" stroke-linecap="round" stroke-linejoin="round"/>
<path d="M11.8335 0.891113V4.22445" stroke="#919EAB" stroke-width="1.7" stroke-linecap="round" stroke-linejoin="round"/>
<path d="M5.1665 0.891113V4.22445" stroke="#919EAB" stroke-width="1.7" stroke-linecap="round" stroke-linejoin="round"/>
<path d="M1 7.55762H16" stroke="#919EAB" stroke-width="1.7" stroke-linecap="round" stroke-linejoin="round"/>
<path d="M11.8332 19.2244C14.1344 19.2244 15.9998 17.359 15.9998 15.0578C15.9998 12.7566 14.1344 10.8911 11.8332 10.8911C9.53198 10.8911 7.6665 12.7566 7.6665 15.0578C7.6665 17.359 9.53198 19.2244 11.8332 19.2244Z" stroke="#919EAB" stroke-width="1.5" stroke-linecap="round" stroke-linejoin="round"/>
<path d="M11.833 12.5576V15.0576H13.708" stroke="#919EAB" stroke-linecap="round" stroke-linejoin="round"/>
</svg>
