<svg width="18" height="18" viewBox="0 0 18 18" fill="none" xmlns="http://www.w3.org/2000/svg">
<path d="M1.72096 0.050967L17.076 7.61697C17.1597 7.65823 17.2302 7.72211 17.2795 7.80137C17.3288 7.88064 17.3549 7.97212 17.3549 8.06547C17.3549 8.15881 17.3288 8.2503 17.2795 8.32956C17.2302 8.40882 17.1597 8.4727 17.076 8.51397L1.71996 16.08C1.63393 16.1222 1.53757 16.1389 1.44235 16.1279C1.34713 16.117 1.25707 16.0789 1.18288 16.0182C1.1087 15.9575 1.05353 15.8767 1.02393 15.7856C0.994338 15.6944 0.991571 15.5967 1.01596 15.504L2.98496 8.06997L1.01496 0.627967C0.990167 0.535082 0.992678 0.437018 1.02219 0.345524C1.05171 0.254029 1.10697 0.172983 1.18137 0.112094C1.25576 0.0512048 1.34614 0.0130546 1.44166 0.00221322C1.53719 -0.0086282 1.63381 0.00829895 1.71996 0.050967H1.72096ZM2.26396 1.43397L3.87396 7.51597L3.93596 7.50397L3.99996 7.49997H11C11.1249 7.49974 11.2454 7.5463 11.3377 7.63048C11.4301 7.71465 11.4875 7.83035 11.4988 7.95479C11.5101 8.07922 11.4744 8.20338 11.3987 8.3028C11.3231 8.40222 11.2129 8.46971 11.09 8.49197L11 8.49997H3.99996C3.96911 8.50011 3.93832 8.49743 3.90796 8.49197L2.26496 14.698L15.723 8.06597L2.26396 1.43397Z" fill="#7A7C7D"/>
</svg>
