<svg width="27" height="27" viewBox="0 0 27 27" fill="none" xmlns="http://www.w3.org/2000/svg">
<path d="M13.5186 18.3742C16.2051 18.3742 18.383 16.1964 18.383 13.5099C18.383 10.8233 16.2051 8.64551 13.5186 8.64551C10.8321 8.64551 8.6543 10.8233 8.6543 13.5099C8.6543 16.1964 10.8321 18.3742 13.5186 18.3742Z" stroke="#18191F" stroke-width="2.16193" stroke-linecap="round" stroke-linejoin="round"/>
<path d="M5.84523 9.8176C6.03023 9.43391 6.24381 9.06467 6.48414 8.71298V8.71298L6.43987 6.083C6.43786 5.96226 6.46276 5.8426 6.51275 5.73268C6.56274 5.62276 6.63658 5.52536 6.7289 5.44753C7.67817 4.64668 8.76166 4.02011 9.92926 3.59679C10.0425 3.556 10.1635 3.54094 10.2833 3.55271C10.4031 3.56449 10.5188 3.6028 10.622 3.66486L12.8811 5.02039L12.8788 5.01899C13.3036 4.98737 13.7302 4.9877 14.1549 5.02V5.02L16.4104 3.66667C16.5139 3.60456 16.63 3.56629 16.7502 3.55463C16.8704 3.54296 16.9917 3.5582 17.1052 3.59924C18.2734 4.02091 19.3578 4.64595 20.3082 5.44546C20.4002 5.52317 20.4737 5.62037 20.5234 5.73003C20.5731 5.83968 20.5978 5.95903 20.5956 6.0794L20.5513 8.71365L20.5513 8.71093C20.7911 9.06299 21.0041 9.43258 21.1885 9.81656H21.1885L23.4882 11.0932C23.5938 11.1518 23.685 11.2332 23.7552 11.3315C23.8254 11.4297 23.8728 11.5424 23.8941 11.6612C24.1128 12.8826 24.1139 14.133 23.8973 15.3547C23.8762 15.4738 23.8288 15.5868 23.7585 15.6853C23.6883 15.7838 23.5969 15.8654 23.4912 15.9242L21.1879 17.2028L21.1902 17.2015C21.0052 17.5852 20.7917 17.9544 20.5513 18.3061V18.3061L20.5956 20.9361C20.5976 21.0568 20.5727 21.1765 20.5227 21.2864C20.4727 21.3963 20.3989 21.4937 20.3066 21.5716C19.3573 22.3724 18.2738 22.999 17.1062 23.4223C16.9929 23.4631 16.872 23.4782 16.7522 23.4664C16.6324 23.4546 16.5167 23.4163 16.4135 23.3542L14.1543 21.9987L14.1567 22.0001C13.7319 22.0317 13.3053 22.0314 12.8806 21.9991V21.9991L10.6251 23.3524C10.5215 23.4145 10.4055 23.4528 10.2853 23.4645C10.1651 23.4761 10.0438 23.4609 9.93024 23.4199C8.76205 22.9982 7.67768 22.3731 6.72727 21.5736C6.63531 21.4959 6.5618 21.3987 6.51209 21.2891C6.46238 21.1794 6.43771 21.0601 6.43987 20.9397L6.48421 18.3054L6.48417 18.3082C6.24438 17.9561 6.03139 17.5865 5.84699 17.2025H5.847L3.54723 15.9259C3.44167 15.8673 3.35048 15.7859 3.28029 15.6876C3.21009 15.5894 3.16265 15.4767 3.14141 15.3578C2.9227 14.1365 2.92161 12.8861 3.13818 11.6644C3.15931 11.5453 3.20672 11.4323 3.27696 11.3338C3.34721 11.2353 3.43853 11.1537 3.54427 11.0949L5.8476 9.81628L5.84523 9.8176Z" stroke="#18191F" stroke-width="2.16193" stroke-linecap="round" stroke-linejoin="round"/>
</svg>
