<svg width="27" height="27" viewBox="0 0 27 27" fill="none" xmlns="http://www.w3.org/2000/svg">
<path d="M7.31614 16.7524C9.10714 16.7524 10.559 15.3005 10.559 13.5095C10.559 11.7185 9.10714 10.2666 7.31614 10.2666C5.52514 10.2666 4.07324 11.7185 4.07324 13.5095C4.07324 15.3005 5.52514 16.7524 7.31614 16.7524Z" stroke="black" stroke-width="2.16193" stroke-linecap="round" stroke-linejoin="round"/>
<path d="M18.6667 24.0493C20.4577 24.0493 21.9096 22.5974 21.9096 20.8064C21.9096 19.0154 20.4577 17.5635 18.6667 17.5635C16.8757 17.5635 15.4238 19.0154 15.4238 20.8064C15.4238 22.5974 16.8757 24.0493 18.6667 24.0493Z" stroke="black" stroke-width="2.16193" stroke-linecap="round" stroke-linejoin="round"/>
<path d="M18.6667 9.4565C20.4577 9.4565 21.9096 8.0046 21.9096 6.2136C21.9096 4.4226 20.4577 2.9707 18.6667 2.9707C16.8757 2.9707 15.4238 4.4226 15.4238 6.2136C15.4238 8.0046 16.8757 9.4565 18.6667 9.4565Z" stroke="black" stroke-width="2.16193" stroke-linecap="round" stroke-linejoin="round"/>
<path d="M15.939 7.9668L10.0439 11.7565" stroke="black" stroke-width="2.16193" stroke-linecap="round" stroke-linejoin="round"/>
<path d="M10.0439 15.2637L15.939 19.0534" stroke="black" stroke-width="2.16193" stroke-linecap="round" stroke-linejoin="round"/>
</svg>
