<svg width="378" height="273" viewBox="0 0 378 273" fill="none" xmlns="http://www.w3.org/2000/svg">
<path d="M55.3316 72.1753H281.495C283.385 72.1753 285.198 72.9262 286.535 74.2627C287.871 75.5993 288.622 77.4121 288.622 79.3023V233.246C288.622 233.372 288.572 233.492 288.483 233.582C288.394 233.671 288.273 233.721 288.147 233.721H48.6797C48.5537 233.721 48.4329 233.671 48.3438 233.582C48.2546 233.492 48.2046 233.372 48.2046 233.246V79.3023C48.2046 77.4121 48.9555 75.5993 50.292 74.2627C51.6286 72.9262 53.4414 72.1753 55.3316 72.1753V72.1753Z" stroke="#0076FF" stroke-width="1.62999"/>
<path d="M22.8586 233.721H313.899C313.991 233.721 314.079 233.757 314.143 233.822C314.208 233.887 314.245 233.975 314.245 234.067V234.067C314.245 235.991 313.48 237.837 312.119 239.198C310.759 240.558 308.913 241.323 306.988 241.323H29.7689C27.8445 241.323 25.9988 240.558 24.638 239.198C23.2772 237.837 22.5127 235.991 22.5127 234.067V234.067C22.5127 233.975 22.5491 233.887 22.614 233.822C22.6789 233.757 22.7669 233.721 22.8586 233.721V233.721Z" stroke="#0076FF" stroke-width="1.62999"/>
<path d="M274.809 82.6284H60.9986C57.0625 82.6284 53.8716 85.8193 53.8716 89.7554V218.992C53.8716 222.928 57.0625 226.119 60.9986 226.119H274.809C278.745 226.119 281.936 222.928 281.936 218.992V89.7554C281.936 85.8193 278.745 82.6284 274.809 82.6284Z" fill="#E1EDFB" stroke="#0076FF" stroke-width="1.62999"/>
<path d="M168.188 79.6227C169.327 79.6227 170.25 78.6997 170.25 77.5611C170.25 76.4225 169.327 75.4995 168.188 75.4995C167.049 75.4995 166.126 76.4225 166.126 77.5611C166.126 78.6997 167.049 79.6227 168.188 79.6227Z" stroke="#0076FF" stroke-width="0.824628"/>
<g filter="url(#filter0_d)">
<path d="M256.982 0H165.877C163.002 0 160.671 2.28189 160.671 5.09674V56.0641C160.671 58.879 163.002 61.1609 165.877 61.1609H256.982C259.857 61.1609 262.188 58.879 262.188 56.0641V5.09674C262.188 2.28189 259.857 0 256.982 0Z" fill="white"/>
<path d="M165.877 0H256.982C258.362 0 259.686 0.536976 260.663 1.4928C261.639 2.44862 262.188 3.745 262.188 5.09674V7.64511H160.671V5.09674C160.671 3.745 161.22 2.44862 162.196 1.4928C163.172 0.536976 164.497 0 165.877 0V0Z" fill="#0076FF"/>
<path d="M245.918 5.09671C246.637 5.09671 247.22 4.52624 247.22 3.82252C247.22 3.11881 246.637 2.54834 245.918 2.54834C245.199 2.54834 244.617 3.11881 244.617 3.82252C244.617 4.52624 245.199 5.09671 245.918 5.09671Z" fill="white"/>
<path d="M250.474 5.09671C251.193 5.09671 251.775 4.52624 251.775 3.82252C251.775 3.11881 251.193 2.54834 250.474 2.54834C249.755 2.54834 249.172 3.11881 249.172 3.82252C249.172 4.52624 249.755 5.09671 250.474 5.09671Z" fill="white"/>
<path d="M255.03 5.09671C255.748 5.09671 256.331 4.52624 256.331 3.82252C256.331 3.11881 255.748 2.54834 255.03 2.54834C254.311 2.54834 253.728 3.11881 253.728 3.82252C253.728 4.52624 254.311 5.09671 255.03 5.09671Z" fill="white"/>
<path fill-rule="evenodd" clip-rule="evenodd" d="M167.241 42.8157H169.097C170.953 42.8157 174.665 36.6142 178.377 32.3674C182.089 28.1205 185.801 19.6338 189.513 19.6338C193.225 19.6338 196.937 34.3258 200.649 36.7512C204.361 39.1766 208.074 31.1085 211.785 31.7182C215.497 32.3279 219.21 38.9453 222.924 41.3707C226.637 43.7962 230.348 39.3671 234.06 34.515C237.772 29.6629 241.483 19.9606 245.196 19.9606C248.908 19.9606 254.476 30.3956 256.332 35.247V54.5229H167.241V42.8157Z" fill="#60A9FF"/>
<path d="M255.94 45.5472C250.409 23.4821 242.508 14.8394 238.795 14.8394C235.083 14.8394 229.685 28.2502 226.841 34.8511C223.996 41.452 219.422 45.709 215.706 43.1192C211.991 40.5295 208.277 27.773 204.565 27.1244C200.853 26.4758 197.141 39.828 193.429 37.237C189.717 34.6459 186.004 18.9499 182.293 18.9499C178.581 18.9499 179.518 30.7004 175.295 38.6303C171.072 46.5602 169.096 47.9401 167.24 47.9401" stroke="#0076FF" stroke-width="1.62999"/>
</g>
<g filter="url(#filter1_d)">
<path d="M368.775 70.9902H302.868C300.788 70.9902 299.102 72.7412 299.102 74.9012V114.011C299.102 116.171 300.788 117.922 302.868 117.922H368.775C370.855 117.922 372.541 116.171 372.541 114.011V74.9012C372.541 72.7412 370.855 70.9902 368.775 70.9902Z" fill="white"/>
<path d="M302.868 70.9902H368.775C369.774 70.9902 370.732 71.4023 371.438 72.1357C372.144 72.8692 372.541 73.8639 372.541 74.9012V76.8567H299.102V74.9012C299.102 73.8639 299.499 72.8692 300.205 72.1357C300.911 71.4023 301.869 70.9902 302.868 70.9902V70.9902Z" fill="#0076FF"/>
<path d="M360.772 74.9013C361.292 74.9013 361.714 74.4635 361.714 73.9235C361.714 73.3835 361.292 72.9458 360.772 72.9458C360.252 72.9458 359.831 73.3835 359.831 73.9235C359.831 74.4635 360.252 74.9013 360.772 74.9013Z" fill="white"/>
<path d="M364.068 74.9013C364.587 74.9013 365.009 74.4635 365.009 73.9235C365.009 73.3835 364.587 72.9458 364.068 72.9458C363.548 72.9458 363.126 73.3835 363.126 73.9235C363.126 74.4635 363.548 74.9013 364.068 74.9013Z" fill="white"/>
<path d="M367.363 74.9013C367.883 74.9013 368.304 74.4635 368.304 73.9235C368.304 73.3835 367.883 72.9458 367.363 72.9458C366.843 72.9458 366.421 73.3835 366.421 73.9235C366.421 74.4635 366.843 74.9013 367.363 74.9013Z" fill="white"/>
<path d="M350.342 96.8683C350.342 93.7981 349.373 90.8062 347.573 88.3191C345.773 85.8321 343.233 83.9768 340.317 83.0179C337.4 82.059 334.255 82.0453 331.331 82.9789C328.406 83.9124 325.851 85.7455 324.029 88.2168L329.336 92.1285C330.334 90.7751 331.734 89.7712 333.336 89.2601C334.938 88.7489 336.66 88.7566 338.258 89.2819C339.855 89.8072 341.246 90.8234 342.232 92.1856C343.218 93.5479 343.749 95.1866 343.749 96.8683H350.342Z" fill="#0076FF"/>
<path d="M324.42 87.7109C322.733 89.8005 321.656 92.3154 321.308 94.9782C320.96 97.6409 321.354 100.348 322.447 102.801L328.469 100.118C327.871 98.774 327.655 97.2909 327.846 95.8324C328.037 94.3738 328.628 92.9963 329.552 91.8519L324.42 87.7109Z" fill="#0267DD"/>
<path d="M322.444 102.795C324.016 106.328 326.927 109.091 330.536 110.478L332.9 104.324C330.923 103.564 329.329 102.05 328.468 100.115L322.444 102.795Z" fill="#9BCAFF"/>
<path d="M330.388 110.42C332.168 111.126 334.069 111.475 335.983 111.446C337.898 111.417 339.788 111.011 341.545 110.252L338.931 104.2C337.968 104.616 336.933 104.839 335.884 104.855C334.836 104.871 333.794 104.68 332.819 104.294L330.388 110.42Z" fill="#60A9FF"/>
<path d="M341.303 110.354C344.019 109.239 346.334 107.33 347.947 104.877C349.56 102.424 350.394 99.5419 350.342 96.6069L343.751 96.7251C343.781 98.3331 343.324 99.9125 342.441 101.256C341.557 102.6 340.289 103.646 338.801 104.258L341.303 110.354Z" fill="#0076FF"/>
</g>
<path d="M189.605 272.701L234.813 201.612L167.149 258.47L189.605 272.701Z" fill="#0076FF"/>
<path d="M156.333 272.701L154.616 249.956L234.722 201.707L156.333 272.701Z" fill="#0267DD"/>
<path d="M132.275 236.03L154.714 249.946L234.696 201.708L132.275 236.03Z" fill="#0076FF"/>
<path d="M171.87 261.369L170.02 260.205L156.164 272.725L171.87 261.369Z" fill="#A9D1FF"/>
<path d="M63.8938 74.8271H58.2749V82.319H63.8938V74.8271Z" fill="#0076FF"/>
<path d="M71.386 63.5894H65.7671V82.319H71.386V63.5894Z" fill="#0076FF"/>
<path d="M78.8777 56.0977H73.2588V82.3191H78.8777V56.0977Z" fill="#0076FF"/>
<path d="M87.3054 64.5259H81.6865V82.319H87.3054V64.5259Z" fill="#0076FF"/>
<path d="M94.7976 42.9868H89.1787V82.319H94.7976V42.9868Z" fill="#0076FF"/>
<path d="M103.226 35.4951H97.6074V82.3191H103.226V35.4951Z" fill="#0076FF"/>
<path d="M111.244 72.4102H105.299V103.537H111.244V72.4102Z" fill="#A9D1FF"/>
<path d="M119.172 72.4102H113.226V99.2434H119.172V72.4102Z" fill="#A9D1FF"/>
<path d="M127.099 72.4102H121.154V85.2901H127.099V72.4102Z" fill="#A9D1FF"/>
<path d="M136.017 72.4102H130.072V89.5834H136.017V72.4102Z" fill="#A9D1FF"/>
<path d="M143.944 72.4102H137.999V85.2901H143.944V72.4102Z" fill="#A9D1FF"/>
<path d="M152.862 72.4102H146.917V77.7768H152.862V72.4102Z" fill="#A9D1FF"/>
<path d="M137.56 61.1208H133.495C133.172 61.1208 132.863 60.993 132.635 60.7654C132.407 60.5378 132.278 60.2289 132.277 59.9066V58.5064C131.071 58.199 129.914 57.72 128.844 57.084L127.85 58.0763C127.738 58.1892 127.603 58.2786 127.456 58.3394C127.308 58.4001 127.15 58.431 126.99 58.4303C126.831 58.431 126.672 58.4001 126.525 58.3394C126.377 58.2786 126.243 58.1892 126.13 58.0763L123.257 55.2072C123.144 55.0947 123.054 54.9608 122.993 54.8133C122.932 54.6658 122.901 54.5077 122.902 54.3481C122.901 54.1885 122.932 54.0304 122.993 53.8829C123.054 53.7354 123.144 53.6015 123.257 53.489L124.25 52.4967C123.614 51.4282 123.134 50.2736 122.827 49.0686H121.423C121.102 49.0683 120.793 48.9407 120.565 48.7135C120.337 48.4864 120.208 48.1783 120.207 47.8565V43.7997C120.208 43.4775 120.336 43.1688 120.564 42.941C120.791 42.7132 121.1 42.585 121.422 42.5844H122.826C123.133 41.3789 123.612 40.2239 124.249 39.1553L123.256 38.1619C123.143 38.0494 123.053 37.9155 122.992 37.768C122.931 37.6205 122.9 37.4624 122.901 37.3028C122.9 37.1432 122.931 36.9851 122.992 36.8376C123.053 36.6901 123.143 36.5562 123.256 36.4437L126.129 33.5746C126.242 33.4617 126.376 33.3723 126.524 33.3115C126.671 33.2508 126.83 33.2199 126.989 33.2206C127.149 33.2199 127.307 33.2508 127.455 33.3115C127.602 33.3723 127.737 33.4617 127.849 33.5746L128.843 34.5669C129.913 33.9305 131.069 33.4515 132.276 33.1445V31.7433C132.276 31.5833 132.308 31.4249 132.369 31.2771C132.43 31.1294 132.52 30.9951 132.633 30.8821C132.746 30.769 132.881 30.6794 133.028 30.6182C133.176 30.5571 133.335 30.5257 133.495 30.5259H137.561C137.883 30.5262 138.191 30.654 138.419 30.8814C138.647 31.1088 138.775 31.4172 138.776 31.739V33.1392C139.983 33.4467 141.139 33.9257 142.21 34.5616L143.204 33.5693C143.213 33.5587 143.224 33.5492 143.235 33.5397C143.46 33.3298 143.756 33.2135 144.064 33.2142C144.224 33.2135 144.382 33.2444 144.53 33.3052C144.677 33.366 144.811 33.4554 144.924 33.5682L147.799 36.4373C147.978 36.6171 148.097 36.8486 148.138 37.0994C148.18 37.3501 148.142 37.6075 148.029 37.8354C148.009 37.876 147.986 37.9155 147.961 37.9537C147.915 38.0269 147.86 38.0946 147.799 38.1556L146.805 39.1479C147.443 40.2165 147.922 41.3714 148.23 42.577H149.632C149.954 42.5776 150.263 42.7059 150.491 42.9339C150.719 43.162 150.847 43.471 150.847 43.7933V47.8565C150.848 47.9385 150.839 48.0203 150.823 48.1006C150.801 48.2109 150.763 48.3175 150.712 48.4177C150.61 48.6159 150.455 48.7821 150.264 48.8983C150.074 49.0144 149.855 49.0758 149.632 49.076H148.23C148.211 49.1521 148.191 49.2282 148.17 49.3032C147.916 50.222 147.561 51.1101 147.113 51.9514C147.007 52.1437 146.901 52.3297 146.796 52.5052L147.79 53.4974C147.959 53.666 148.074 53.8804 148.122 54.1139C148.169 54.3475 148.147 54.5899 148.058 54.811C147.997 54.9627 147.906 55.1004 147.79 55.2157L144.916 58.0848C144.803 58.1978 144.669 58.2872 144.521 58.348C144.374 58.4087 144.215 58.4396 144.056 58.4388C143.896 58.4396 143.738 58.4087 143.59 58.348C143.442 58.2872 143.308 58.1978 143.195 58.0848L142.201 57.0925C141.131 57.7284 139.974 58.2074 138.768 58.5149V59.9034C138.768 59.985 138.76 60.0665 138.743 60.1465C138.722 60.2525 138.686 60.3551 138.638 60.4519C138.537 60.6519 138.383 60.8202 138.193 60.9383C138.003 61.0563 137.784 61.1195 137.56 61.1208ZM135.527 39.9235C133.961 39.9241 132.46 40.5456 131.353 41.6516C130.245 42.7577 129.621 44.258 129.618 45.8234C129.621 47.3887 130.245 48.889 131.353 49.995C132.46 51.1011 133.961 51.7226 135.527 51.7231C135.959 51.7234 136.39 51.6762 136.812 51.5826C138.116 51.2992 139.286 50.5793 140.126 49.5419C140.967 48.5044 141.428 47.2114 141.435 45.8762V45.743C141.407 44.1935 140.773 42.7166 139.669 41.6288C138.566 40.541 137.08 39.9288 135.53 39.9235H135.527Z" fill="#0076FF"/>
<g opacity="0.7" filter="url(#filter2_d)">
<path d="M254.831 100.806H142.066C138.507 100.806 135.622 103.72 135.622 107.314V172.388C135.622 175.982 138.507 178.895 142.066 178.895H254.831C258.39 178.895 261.275 175.982 261.275 172.388V107.314C261.275 103.72 258.39 100.806 254.831 100.806Z" fill="white"/>
<path d="M142.066 100.806H254.831C256.54 100.806 258.179 101.492 259.388 102.712C260.596 103.933 261.275 105.588 261.275 107.314V110.567H135.622V107.314C135.622 105.588 136.301 103.933 137.509 102.712C138.718 101.492 140.357 100.806 142.066 100.806V100.806Z" fill="#0076FF"/>
<path d="M241.139 107.314C242.028 107.314 242.75 106.585 242.75 105.687C242.75 104.788 242.028 104.06 241.139 104.06C240.249 104.06 239.528 104.788 239.528 105.687C239.528 106.585 240.249 107.314 241.139 107.314Z" fill="white"/>
<path d="M246.777 107.314C247.667 107.314 248.388 106.585 248.388 105.687C248.388 104.788 247.667 104.06 246.777 104.06C245.887 104.06 245.166 104.788 245.166 105.687C245.166 106.585 245.887 107.314 246.777 107.314Z" fill="white"/>
<path d="M252.415 107.314C253.304 107.314 254.026 106.585 254.026 105.687C254.026 104.788 253.304 104.06 252.415 104.06C251.525 104.06 250.804 104.788 250.804 105.687C250.804 106.585 251.525 107.314 252.415 107.314Z" fill="white"/>
<path d="M195.227 124.396H163.009V130.903H195.227V124.396Z" fill="#0076FF"/>
<path d="M233.89 124.396H201.671V130.903H233.89V124.396Z" stroke="#0076FF" stroke-width="1.58471"/>
<path d="M233.487 134.97H163.412C163.189 134.97 163.009 135.152 163.009 135.377V135.784C163.009 136.008 163.189 136.19 163.412 136.19H233.487C233.71 136.19 233.89 136.008 233.89 135.784V135.377C233.89 135.152 233.71 134.97 233.487 134.97Z" fill="#0076FF"/>
<path d="M233.487 154.493H163.412C163.189 154.493 163.009 154.675 163.009 154.899V155.306C163.009 155.531 163.189 155.713 163.412 155.713H233.487C233.71 155.713 233.89 155.531 233.89 155.306V154.899C233.89 154.675 233.71 154.493 233.487 154.493Z" fill="#0076FF"/>
<path d="M209.323 139.851H163.412C163.189 139.851 163.009 140.033 163.009 140.257V140.664C163.009 140.889 163.189 141.071 163.412 141.071H209.323C209.546 141.071 209.726 140.889 209.726 140.664V140.257C209.726 140.033 209.546 139.851 209.323 139.851Z" fill="#0076FF"/>
<path d="M218.989 149.612H163.412C163.189 149.612 163.009 149.794 163.009 150.019V150.425C163.009 150.65 163.189 150.832 163.412 150.832H218.989C219.211 150.832 219.391 150.65 219.391 150.425V150.019C219.391 149.794 219.211 149.612 218.989 149.612Z" fill="#0076FF"/>
<path d="M192.408 144.731H163.412C163.189 144.731 163.009 144.914 163.009 145.138V145.545C163.009 145.769 163.189 145.952 163.412 145.952H192.408C192.631 145.952 192.811 145.769 192.811 145.545V145.138C192.811 144.914 192.631 144.731 192.408 144.731Z" fill="#0076FF"/>
<path d="M233.487 139.851H213.35C213.128 139.851 212.947 140.033 212.947 140.257V140.664C212.947 140.889 213.128 141.071 213.35 141.071H233.487C233.709 141.071 233.889 140.889 233.889 140.664V140.257C233.889 140.033 233.709 139.851 233.487 139.851Z" fill="#0076FF"/>
<path d="M233.486 144.731H196.435C196.213 144.731 196.032 144.914 196.032 145.138V145.545C196.032 145.769 196.213 145.952 196.435 145.952H233.486C233.709 145.952 233.889 145.769 233.889 145.545V145.138C233.889 144.914 233.709 144.731 233.486 144.731Z" fill="#0076FF"/>
</g>
<g filter="url(#filter3_d)">
<path d="M145.088 117.844H12.5723C8.39023 117.844 5 121.287 5 125.534V202.441C5 206.688 8.39023 210.131 12.5723 210.131H145.088C149.27 210.131 152.66 206.688 152.66 202.441V125.534C152.66 121.287 149.27 117.844 145.088 117.844Z" fill="white"/>
<path d="M41.9147 193.788C56.5519 193.788 68.4177 181.737 68.4177 166.871C68.4177 152.005 56.5519 139.954 41.9147 139.954C27.2774 139.954 15.4116 152.005 15.4116 166.871C15.4116 181.737 27.2774 193.788 41.9147 193.788Z" fill="#0076FF"/>
<path d="M68.4181 166.871C68.4181 159.732 65.6258 152.886 60.6555 147.838C55.6852 142.79 48.9441 139.954 41.915 139.954V166.871H68.4181Z" fill="#60A9FF"/>
<path d="M42.3605 139.958C35.3324 139.838 28.5453 142.558 23.4922 147.521L41.9156 166.871L42.3605 139.958Z" fill="#A9D1FF"/>
<path d="M23.4914 147.521C19.173 151.762 16.4013 157.367 15.6306 163.418C14.86 169.469 16.1362 175.606 19.25 180.823L41.9148 166.872L23.4914 147.521Z" fill="#0267DD"/>
<path d="M109.12 142.838H81.6699V148.606H109.12V142.838Z" fill="#0076FF"/>
<path d="M140.355 153.413H81.6699V155.335H140.355V153.413Z" fill="#0076FF"/>
<path d="M140.355 160.142H81.6699V161.103H140.355V160.142Z" fill="#0076FF"/>
<path d="M140.355 165.91H81.6699V167.833H140.355V165.91Z" fill="#0076FF"/>
<path d="M118.585 172.639H81.6699V173.6H118.585V172.639Z" fill="#0076FF"/>
<path d="M12.5723 117.844H145.088C147.096 117.844 149.022 118.654 150.442 120.096C151.862 121.539 152.66 123.495 152.66 125.534V129.38H5V125.534C5 123.495 5.79779 121.539 7.21788 120.096C8.63796 118.654 10.564 117.844 12.5723 117.844V117.844Z" fill="#0076FF"/>
<path d="M128.997 125.534C130.042 125.534 130.89 124.673 130.89 123.612C130.89 122.55 130.042 121.689 128.997 121.689C127.951 121.689 127.104 122.55 127.104 123.612C127.104 124.673 127.951 125.534 128.997 125.534Z" fill="white"/>
<path d="M135.622 125.534C136.668 125.534 137.515 124.673 137.515 123.612C137.515 122.55 136.668 121.689 135.622 121.689C134.577 121.689 133.729 122.55 133.729 123.612C133.729 124.673 134.577 125.534 135.622 125.534Z" fill="white"/>
<path d="M142.248 125.534C143.294 125.534 144.141 124.673 144.141 123.612C144.141 122.55 143.294 121.689 142.248 121.689C141.203 121.689 140.355 122.55 140.355 123.612C140.355 124.673 141.203 125.534 142.248 125.534Z" fill="white"/>
</g>
<path fill-rule="evenodd" clip-rule="evenodd" d="M302.715 157.076L308.252 162.613C308.469 162.83 308.642 163.088 308.76 163.372C308.877 163.656 308.938 163.961 308.938 164.268C308.938 164.576 308.877 164.88 308.76 165.164C308.642 165.448 308.469 165.707 308.252 165.924L306.338 167.836C307.565 169.895 308.489 172.121 309.082 174.444H311.785C312.405 174.446 313 174.694 313.439 175.133C313.878 175.572 314.125 176.167 314.126 176.787V184.605C314.126 185.226 313.879 185.822 313.439 186.262C313 186.701 312.404 186.948 311.783 186.949H309.082C309.044 187.095 309.006 187.242 308.966 187.388C308.478 189.159 307.795 190.869 306.93 192.489C306.739 192.851 306.538 193.206 306.329 193.554L308.244 195.466C308.682 195.906 308.929 196.501 308.929 197.122C308.929 197.743 308.682 198.338 308.244 198.778L302.707 204.306C302.266 204.744 301.67 204.989 301.049 204.989C300.428 204.989 299.832 204.744 299.392 204.306L297.478 202.394C295.415 203.62 293.187 204.543 290.862 205.135V207.819C290.861 208.44 290.613 209.035 290.174 209.473C289.734 209.912 289.139 210.158 288.518 210.158H280.694C280.073 210.158 279.478 209.911 279.038 209.473C278.598 209.035 278.349 208.44 278.347 207.819V205.127C276.021 204.535 273.793 203.612 271.731 202.386L269.816 204.298C269.376 204.736 268.78 204.981 268.159 204.981C267.538 204.981 266.942 204.736 266.501 204.298L260.963 198.767C260.525 198.328 260.279 197.733 260.279 197.113C260.279 196.493 260.525 195.898 260.963 195.458L262.877 193.546C261.649 191.487 260.725 189.261 260.132 186.938H257.43C256.81 186.937 256.217 186.691 255.778 186.254C255.34 185.817 255.092 185.224 255.088 184.605V176.779C255.09 176.159 255.337 175.564 255.775 175.125C256.214 174.685 256.809 174.438 257.43 174.436H260.134C260.727 172.113 261.651 169.887 262.879 167.828L260.965 165.916C260.527 165.476 260.281 164.881 260.281 164.261C260.281 163.641 260.527 163.046 260.965 162.607L266.491 157.076C266.932 156.638 267.528 156.393 268.149 156.393C268.77 156.393 269.366 156.638 269.806 157.076L271.72 158.988C273.783 157.762 276.011 156.839 278.336 156.247V153.549C278.339 152.926 278.589 152.33 279.031 151.891C279.473 151.453 280.072 151.207 280.694 151.209H288.528C289.148 151.211 289.743 151.458 290.181 151.896C290.62 152.335 290.868 152.929 290.87 153.549V156.247C293.195 156.839 295.423 157.762 297.486 158.988L299.4 157.076L299.459 157.019C299.904 156.607 300.492 156.382 301.098 156.393C301.705 156.404 302.284 156.648 302.715 157.076Z" fill="#60A9FF"/>
<path fill-rule="evenodd" clip-rule="evenodd" d="M288.822 199.571C284.921 200.436 280.849 200.071 277.164 198.528C273.479 196.985 270.363 194.339 268.242 190.953C266.122 187.567 265.101 183.608 265.321 179.619C265.542 175.63 266.991 171.807 269.471 168.675C271.952 165.543 275.341 163.256 279.173 162.128C283.005 160.999 287.093 161.085 290.875 162.373C294.656 163.661 297.946 166.089 300.293 169.322C302.639 172.555 303.928 176.436 303.98 180.43C303.98 180.514 303.98 180.597 303.98 180.681C303.98 180.764 303.98 180.797 303.98 180.854C303.938 185.227 302.416 189.456 299.664 192.854C296.911 196.252 293.089 198.617 288.82 199.565L288.822 199.571Z" fill="#0076FF"/>
<path fill-rule="evenodd" clip-rule="evenodd" d="M286.424 188.832C284.74 189.206 282.983 189.048 281.392 188.382C279.802 187.717 278.456 186.574 277.541 185.113C276.626 183.652 276.185 181.943 276.28 180.221C276.375 178.499 277.001 176.849 278.072 175.497C279.143 174.146 280.606 173.159 282.26 172.672C283.914 172.185 285.678 172.223 287.311 172.779C288.943 173.336 290.362 174.384 291.375 175.78C292.387 177.176 292.943 178.851 292.965 180.575C292.965 180.612 292.965 180.646 292.965 180.683C292.965 180.72 292.965 180.734 292.965 180.758C292.947 182.645 292.291 184.47 291.103 185.937C289.916 187.403 288.266 188.424 286.424 188.832Z" fill="white"/>
<defs>
<filter id="filter0_d" x="156.325" y="0" width="110.209" height="69.8541" filterUnits="userSpaceOnUse" color-interpolation-filters="sRGB">
<feFlood flood-opacity="0" result="BackgroundImageFix"/>
<feColorMatrix in="SourceAlpha" type="matrix" values="0 0 0 0 0 0 0 0 0 0 0 0 0 0 0 0 0 0 127 0"/>
<feOffset dy="4.34664"/>
<feGaussianBlur stdDeviation="2.17332"/>
<feColorMatrix type="matrix" values="0 0 0 0 0 0 0 0 0 0.462745 0 0 0 0 1 0 0 0 0.11 0"/>
<feBlend mode="normal" in2="BackgroundImageFix" result="effect1_dropShadow"/>
<feBlend mode="normal" in="SourceGraphic" in2="effect1_dropShadow" result="shape"/>
</filter>
<filter id="filter1_d" x="293.781" y="70.9902" width="84.0819" height="57.5743" filterUnits="userSpaceOnUse" color-interpolation-filters="sRGB">
<feFlood flood-opacity="0" result="BackgroundImageFix"/>
<feColorMatrix in="SourceAlpha" type="matrix" values="0 0 0 0 0 0 0 0 0 0 0 0 0 0 0 0 0 0 127 0"/>
<feOffset dy="5.32139"/>
<feGaussianBlur stdDeviation="2.6607"/>
<feColorMatrix type="matrix" values="0 0 0 0 0 0 0 0 0 0.462745 0 0 0 0 1 0 0 0 0.11 0"/>
<feBlend mode="normal" in2="BackgroundImageFix" result="effect1_dropShadow"/>
<feBlend mode="normal" in="SourceGraphic" in2="effect1_dropShadow" result="shape"/>
</filter>
<filter id="filter2_d" x="131.275" y="100.806" width="134.346" height="86.7826" filterUnits="userSpaceOnUse" color-interpolation-filters="sRGB">
<feFlood flood-opacity="0" result="BackgroundImageFix"/>
<feColorMatrix in="SourceAlpha" type="matrix" values="0 0 0 0 0 0 0 0 0 0 0 0 0 0 0 0 0 0 127 0"/>
<feOffset dy="4.34664"/>
<feGaussianBlur stdDeviation="2.17332"/>
<feColorMatrix type="matrix" values="0 0 0 0 0 0 0 0 0 0.462745 0 0 0 0 1 0 0 0 0.11 0"/>
<feBlend mode="normal" in2="BackgroundImageFix" result="effect1_dropShadow"/>
<feBlend mode="normal" in="SourceGraphic" in2="effect1_dropShadow" result="shape"/>
</filter>
<filter id="filter3_d" x="0.653362" y="117.844" width="156.353" height="100.981" filterUnits="userSpaceOnUse" color-interpolation-filters="sRGB">
<feFlood flood-opacity="0" result="BackgroundImageFix"/>
<feColorMatrix in="SourceAlpha" type="matrix" values="0 0 0 0 0 0 0 0 0 0 0 0 0 0 0 0 0 0 127 0"/>
<feOffset dy="4.34664"/>
<feGaussianBlur stdDeviation="2.17332"/>
<feColorMatrix type="matrix" values="0 0 0 0 0 0 0 0 0 0.462745 0 0 0 0 1 0 0 0 0.11 0"/>
<feBlend mode="normal" in2="BackgroundImageFix" result="effect1_dropShadow"/>
<feBlend mode="normal" in="SourceGraphic" in2="effect1_dropShadow" result="shape"/>
</filter>
</defs>
</svg>
