<svg width="36" height="36" viewBox="0 0 36 36" fill="none" xmlns="http://www.w3.org/2000/svg">
<circle opacity="0.2" cx="18" cy="18" r="18" fill="#1F97FF"/>
<path d="M18.0642 14.428H18.0444C17.1092 14.4302 16.2132 14.8039 15.5536 15.4667C14.8939 16.1296 14.5246 17.0274 14.5269 17.9625C14.5291 18.8977 14.9028 19.7936 15.5656 20.4533C16.2285 21.1129 17.1262 21.4823 18.0614 21.48H18.0742C18.5381 21.4838 18.9981 21.3953 19.4275 21.2196C19.8569 21.0439 20.2471 20.7846 20.5754 20.4568C20.9036 20.1289 21.1634 19.7391 21.3396 19.3099C21.5158 18.8807 21.6048 18.4208 21.6016 17.9568C21.5982 17.0205 21.2242 16.1236 20.5613 15.4623C19.8984 14.801 19.0006 14.4291 18.0642 14.428ZM18.0728 20.628H18.0642C17.3551 20.6306 16.6739 20.3514 16.1705 19.8518C15.6672 19.3522 15.383 18.6731 15.3803 17.9639C15.3777 17.2547 15.6569 16.5736 16.1565 16.0702C16.6561 15.5669 17.3352 15.2827 18.0444 15.28H18.06C18.4111 15.2791 18.759 15.3473 19.0838 15.4808C19.4086 15.6144 19.7039 15.8105 19.9528 16.0582C20.2018 16.3058 20.3996 16.6001 20.5348 16.9241C20.67 17.2482 20.7401 17.5957 20.7411 17.9469C20.742 18.298 20.6737 18.6459 20.5402 18.9707C20.4067 19.2955 20.2105 19.5908 19.9629 19.8398C19.7152 20.0887 19.421 20.2865 19.0969 20.4217C18.7729 20.5569 18.4253 20.627 18.0742 20.628H18.0728Z" fill="#0076FF"/>
<path d="M25.1786 17.4457C24.9542 16.6514 24.7294 15.8571 24.504 15.0628C24.4174 14.7589 24.3933 14.7447 24.078 14.7248C23.6023 14.695 23.1266 14.6638 22.658 14.6254C22.3953 14.6041 22.4009 14.5984 22.4308 14.3414C22.5018 13.7535 22.5614 13.1628 22.6296 12.5535C22.626 12.5045 22.6079 12.4576 22.5775 12.4189C22.5472 12.3802 22.506 12.3514 22.4592 12.3363C21.6838 11.9576 20.9094 11.5765 20.1359 11.1931C20.0895 11.1685 20.038 11.1549 19.9854 11.1534C19.9466 11.1544 19.9085 11.1634 19.8733 11.1798C19.8381 11.1961 19.8067 11.2195 19.7809 11.2485C19.3322 11.6859 18.8778 12.1162 18.429 12.5535C18.4149 12.5749 18.3957 12.5925 18.3732 12.6046C18.3506 12.6168 18.3254 12.6231 18.2998 12.6231C18.2742 12.6231 18.249 12.6168 18.2264 12.6046C18.2039 12.5925 18.1847 12.5749 18.1706 12.5535C17.6849 12.0736 17.1936 11.6007 16.7051 11.1235C16.6796 11.0898 16.6476 11.0615 16.611 11.0403C16.5744 11.0191 16.534 11.0054 16.4921 11C16.4316 11.0047 16.373 11.0227 16.3202 11.0525C15.5435 11.4246 14.7738 11.8009 13.9999 12.1687C13.9408 12.1922 13.8922 12.2361 13.8628 12.2923C13.8333 12.3486 13.825 12.4136 13.8394 12.4754C13.9075 13.1017 13.9672 13.7308 14.0368 14.357C14.0451 14.3812 14.0471 14.4072 14.0427 14.4324C14.0383 14.4576 14.0276 14.4813 14.0116 14.5013C13.9956 14.5212 13.9748 14.5368 13.9511 14.5466C13.9275 14.5564 13.9017 14.5601 13.8763 14.5573C13.1862 14.6453 12.4974 14.7419 11.8073 14.8413C11.7465 14.8438 11.6885 14.8676 11.6435 14.9087C11.5986 14.9497 11.5696 15.0053 11.5616 15.0656C11.3813 15.895 11.1995 16.7285 11.0191 17.5649C10.9751 17.7723 10.9993 17.822 11.1739 17.9342L12.736 18.9168C12.878 19.0035 12.878 19.0304 12.7971 19.1739L11.7704 20.9404C11.6681 21.1151 11.6738 21.1733 11.803 21.3281L13.4361 23.2892C13.457 23.3254 13.4861 23.3561 13.5212 23.3788C13.5562 23.4015 13.5962 23.4156 13.6377 23.4199C13.6894 23.4175 13.7403 23.4064 13.7883 23.3872L15.5108 22.7624C15.5609 22.7404 15.6141 22.726 15.6684 22.7198C15.7281 22.7198 15.7508 22.7666 15.7991 22.8873C16.0462 23.5065 16.2961 24.1256 16.5361 24.7476C16.5545 24.8191 16.5974 24.8818 16.6574 24.9249C16.7173 24.968 16.7905 24.9887 16.8641 24.9833C17.7062 24.9833 18.5469 24.9833 19.389 24.9833C19.6091 24.9833 19.6517 24.9464 19.7184 24.7348C19.9116 24.1214 20.1061 23.5079 20.295 22.8888C20.2973 22.8545 20.312 22.8222 20.3363 22.798C20.3605 22.7737 20.3928 22.759 20.427 22.7567C20.4546 22.7575 20.4818 22.7623 20.508 22.7709C21.147 22.9626 21.786 23.1458 22.4279 23.3389C22.4953 23.3623 22.5655 23.3766 22.6367 23.3815C22.7332 23.3815 22.7858 23.3276 22.8894 23.187L24.3677 21.1676C24.4799 21.0143 24.4799 20.9518 24.3677 20.7899C24.0212 20.2744 23.6776 19.7575 23.3268 19.2435C23.3086 19.2248 23.2952 19.2019 23.2879 19.1769C23.2806 19.1518 23.2796 19.1254 23.2849 19.0999C23.2903 19.0743 23.3018 19.0505 23.3185 19.0305C23.3352 19.0104 23.3566 18.9948 23.3808 18.985C23.9374 18.5916 24.4898 18.1912 25.0437 17.7922C25.1999 17.6757 25.2254 17.6104 25.1786 17.4457ZM24.1845 17.3534C23.7585 17.6601 23.3183 17.9782 22.8838 18.2849C22.7677 18.3585 22.6682 18.4552 22.5914 18.5692C22.5147 18.6831 22.4624 18.8117 22.4378 18.9469C22.4133 19.0821 22.417 19.2209 22.4488 19.3545C22.4806 19.4882 22.5397 19.6138 22.6225 19.7234C22.8724 20.0884 23.1237 20.4647 23.3666 20.8268L23.456 20.9603L22.3867 22.4301L22.0232 22.325C21.6071 22.2043 21.1712 22.0793 20.7579 21.9529C20.6526 21.9205 20.543 21.9037 20.4327 21.9032C20.216 21.9036 20.0056 21.9759 19.8344 22.1088C19.6633 22.2416 19.5411 22.4276 19.487 22.6374C19.345 23.1018 19.1959 23.5746 19.051 24.0305L19.0212 24.1256H17.2106C17.0686 23.7578 16.9266 23.3915 16.7775 23.0336L16.5915 22.5678C16.36 21.9856 15.9624 21.8578 15.6684 21.8578C15.5144 21.8614 15.3623 21.8932 15.2197 21.9515L14.6517 22.1574L13.8507 22.4414L12.6877 21.0441L13.0498 20.4235L13.5369 19.5885C13.8507 19.0503 13.7187 18.5107 13.1933 18.1813L12.3228 17.6501L11.9266 17.4002L11.9933 17.0793C12.0984 16.5955 12.2025 16.1113 12.3057 15.6266L12.6735 15.5769C13.0995 15.5186 13.5454 15.4576 13.98 15.4022C14.1152 15.3907 14.2466 15.3516 14.3662 15.2873C14.4857 15.223 14.5909 15.135 14.6751 15.0285C14.7593 14.9221 14.8208 14.7996 14.8559 14.6684C14.8909 14.5373 14.8987 14.4004 14.8789 14.2661C14.8434 13.9466 14.8107 13.6271 14.778 13.3076C14.7601 13.1287 14.7416 12.9497 14.7227 12.7708L15.7167 12.2923L16.3643 11.9784L16.4367 12.048C16.8116 12.4115 17.1978 12.7879 17.5727 13.1599C17.6655 13.2592 17.7776 13.3384 17.9022 13.3926C18.0268 13.4469 18.1612 13.475 18.2971 13.4752C18.4329 13.4755 18.5674 13.4479 18.6922 13.3942C18.817 13.3404 18.9294 13.2617 19.0226 13.1628C19.2441 12.9469 19.4666 12.732 19.69 12.518L20.1004 12.1261L21.7307 12.9284V12.9923C21.6838 13.4184 21.6384 13.8273 21.5887 14.2392V14.2534C21.5572 14.4028 21.5583 14.5573 21.5919 14.7063C21.6254 14.8552 21.6907 14.9952 21.7832 15.1168C21.885 15.2317 22.0104 15.3234 22.1508 15.3857C22.2912 15.4479 22.4433 15.4792 22.5969 15.4775C22.9945 15.5087 23.3992 15.5371 23.7685 15.5598C23.9284 16.1392 24.0903 16.7214 24.2541 17.3065L24.1845 17.3534Z" fill="#0076FF"/>
</svg>
