<svg width="36" height="36" viewBox="0 0 36 36" fill="none" xmlns="http://www.w3.org/2000/svg">
<circle opacity="0.2" cx="18" cy="18" r="18" fill="#1F97FF"/>
<path d="M17.297 12.2235C17.6236 11.8998 17.9422 11.5677 18.2743 11.25C20.4297 11.253 22.5851 11.2504 24.7405 11.2513C24.7439 13.408 24.7401 15.5646 24.7422 17.7209C24.3813 18.0801 24.0204 18.4394 23.6569 18.7956L23.6192 18.7982C23.3853 18.5694 23.1587 18.3326 22.9253 18.1034C22.9206 18.0895 22.9113 18.0623 22.9066 18.0484C23.1642 17.7921 23.4213 17.5345 23.6827 17.2816C23.6848 15.6244 23.6857 13.9667 23.6819 12.3095C22.0247 12.3095 20.3678 12.3086 18.7106 12.3099C16.6196 14.4031 13.8156 17.2122 11.7254 19.3057C11.5623 19.4519 11.5191 19.6993 11.5991 19.8992C11.6449 20.0132 11.7415 20.0945 11.8254 20.1805C13.1805 21.537 14.5353 22.8947 15.8892 24.2524C16.0794 24.4808 16.4598 24.5087 16.6661 24.2876C16.8407 24.1097 17.0131 23.9296 17.1868 23.7509C17.2342 23.7157 17.2524 23.6361 17.3219 23.6377C17.5672 23.8801 17.8125 24.1236 18.0688 24.3541C17.8752 24.5625 17.674 24.7633 17.4808 24.9722C17.2393 25.234 16.9135 25.4233 16.559 25.4759C16.0553 25.5695 15.516 25.3852 15.1602 25.0196C13.8626 23.7212 12.5654 22.4224 11.2691 21.1227C11.0209 20.8719 10.74 20.6308 10.6155 20.2898C10.3778 19.7179 10.5142 19.0122 10.9578 18.5779C12.8311 16.6966 15.422 14.1031 17.297 12.2235Z" fill="#1F97FF"/>
<path d="M21.0944 19.8262C21.416 19.8258 21.7377 19.8274 22.0589 19.827C22.0593 20.499 22.0597 21.1707 22.0593 21.8427C22.7326 21.8462 23.4055 21.8408 24.0785 21.8435C24.0831 22.1641 24.08 22.4851 24.0804 22.8057C23.4067 22.8053 22.7334 22.8064 22.06 22.8061C22.0581 23.4804 22.062 24.1547 22.0566 24.8291C21.7373 24.8283 21.4176 24.8295 21.0983 24.8287C21.0906 24.1544 21.1002 23.48 21.0948 22.8053C20.423 22.8064 19.7509 22.8057 19.0791 22.8057C19.081 22.4839 19.0745 22.1622 19.0814 21.8408C19.7528 21.8466 20.4242 21.8435 21.0952 21.8427C21.0967 21.1707 21.0971 20.4987 21.0944 19.8262Z" fill="#1F97FF"/>
</svg>
