<svg width="36" height="36" viewBox="0 0 36 36" fill="none" xmlns="http://www.w3.org/2000/svg">
<circle opacity="0.2" cx="18" cy="18" r="18" fill="#1F97FF"/>
<path d="M18 11C17.7558 11 12 11.0156 12 12.5089V23.4911C12 24.9844 17.7558 25 18 25C18.2442 25 24 24.9844 24 23.4911V12.5089C24 11.0156 18.2442 11 18 11ZM12.7326 13.3178C13.9012 13.8467 16.2558 14.0333 18 14.0333C19.7267 14.0333 22.0988 13.8467 23.2674 13.3178V15.4178C23.1977 15.62 21.4884 16.2422 18 16.2422C14.5291 16.2422 12.8023 15.62 12.7326 15.4178V13.3178ZM23.2151 12.5556C23.1977 12.5711 23.1628 12.5867 23.1453 12.6022L23.1279 12.6178C23.093 12.6333 23.0581 12.6489 23.0058 12.68L23.0581 12.7733L22.9709 12.6956C22.936 12.7111 22.8837 12.7267 22.8314 12.7422L22.7791 12.7578C22.7267 12.7733 22.6744 12.7889 22.6047 12.82L22.5523 12.8356C22.4826 12.8511 22.4302 12.8667 22.3605 12.8978L22.2733 12.9133C22.2035 12.9289 22.1337 12.9444 22.0465 12.96L21.9419 12.9756C21.8547 12.9911 21.7674 13.0067 21.6802 13.0222C21.6279 13.0378 21.5581 13.0378 21.4884 13.0533L21.314 13.0844C21.2616 13.1 21.1919 13.1 21.1395 13.1156H21.1047C21.0349 13.1311 20.9826 13.1311 20.9128 13.1467C20.843 13.1622 20.7733 13.1622 20.686 13.1778C20.6163 13.1933 20.5291 13.1933 20.4593 13.2089C20.3895 13.2089 20.3023 13.2244 20.2326 13.2244C20.1453 13.24 20.0581 13.24 19.9709 13.24C19.9012 13.24 19.814 13.2556 19.7442 13.2556C19.6395 13.2556 19.5349 13.2711 19.4302 13.2711L19.2035 13.2867C19.0814 13.2867 18.9593 13.3022 18.8372 13.3022H18.6453C18.4535 13.3022 18.2442 13.3022 18.0349 13.3022C17.8256 13.3022 17.6337 13.3022 17.4419 13.3022H17.25C17.1279 13.3022 17.0058 13.3022 16.8837 13.2867L16.657 13.2711C16.5523 13.2711 16.4477 13.2556 16.343 13.2556C16.2733 13.2556 16.186 13.24 16.1163 13.24C16.0291 13.24 15.9419 13.2244 15.8547 13.2244C15.7849 13.2244 15.6977 13.2089 15.6279 13.2089C15.5407 13.1933 15.4709 13.1933 15.4012 13.1778C15.3314 13.1622 15.2442 13.1622 15.1744 13.1467C15.1047 13.1311 15.0523 13.1311 14.9826 13.1156L14.8605 13.1311C14.8081 13.1311 14.7558 13.1156 14.7035 13.1156L14.5291 13.0844C14.4593 13.0689 14.3895 13.0689 14.3372 13.0533C14.25 13.0378 14.1628 13.0222 14.0756 13.0067L13.9709 12.9911C13.8837 12.9756 13.814 12.96 13.7442 12.9444L13.657 12.9133C13.5872 12.8978 13.5174 12.8822 13.4651 12.8511L13.3953 12.8356C13.343 12.82 13.2907 12.8044 13.2384 12.7889L13.186 12.7733C13.1337 12.7578 13.0988 12.7422 13.0465 12.7111L13.0291 12.6956C12.9942 12.68 12.9419 12.6644 12.907 12.6333L12.8895 12.6178C12.8547 12.6022 12.8372 12.5867 12.8023 12.5556C12.7849 12.54 12.7674 12.5244 12.7674 12.5244C12.7674 12.5244 12.7674 12.5089 12.8198 12.4778C12.8547 12.4467 12.907 12.4156 12.9767 12.3844C13.0291 12.3533 13.0814 12.3378 13.1512 12.3067C13.2035 12.2756 13.2733 12.26 13.3605 12.2289C13.8488 12.0733 15.2965 11.6844 18.0349 11.6844C20.6686 11.6844 22.0988 12.0422 22.6047 12.1822C23.1279 12.3378 23.2849 12.4778 23.2849 12.5089C23.25 12.5244 23.2326 12.5244 23.2151 12.5556ZM12.7326 16.2111C13.9012 16.74 16.2558 16.9267 18 16.9267C19.7267 16.9267 22.0988 16.74 23.2674 16.2111V18.0311C23.1977 18.2333 21.4884 18.8556 18 18.8556C14.5291 18.8556 12.8023 18.2333 12.7326 18.0311V16.2111ZM12.7326 18.84C13.9012 19.3533 16.2733 19.5556 18 19.5556C19.7267 19.5556 22.0988 19.3689 23.2674 18.84V21.0022C23.1977 21.2044 21.4884 21.8267 18 21.8267C14.5291 21.8267 12.8023 21.2044 12.7326 21.0022V18.84ZM12.7326 21.8111C13.9012 22.34 16.2558 22.5267 18 22.5267C19.7267 22.5267 22.0988 22.34 23.2674 21.8111V23.4911C23.1977 23.6933 21.4884 24.3156 18 24.3156C14.5291 24.3156 12.8023 23.6933 12.7326 23.4911V21.8111Z" fill="#1F97FF"/>
</svg>
