<svg width="20" height="20" viewBox="0 0 20 20" fill="none" xmlns="http://www.w3.org/2000/svg">
<path d="M8.3097 15.0005H11.688C11.798 13.9988 12.3089 13.1721 13.138 12.2696C13.2322 12.168 13.8314 11.5471 13.9022 11.4588C14.4908 10.7235 14.8597 9.8369 14.9665 8.90111C15.0732 7.96533 14.9135 7.01841 14.5057 6.16942C14.0979 5.32042 13.4586 4.60387 12.6615 4.10228C11.8643 3.60069 10.9416 3.33447 9.99977 3.33427C9.05791 3.33407 8.13515 3.5999 7.33775 4.10114C6.54035 4.60239 5.90074 5.31867 5.49259 6.16749C5.08443 7.01631 4.92432 7.96316 5.0307 8.89899C5.13707 9.83482 5.50561 10.7216 6.09387 11.4571C6.16554 11.5463 6.76637 12.168 6.85887 12.2688C7.68887 13.1721 8.1997 13.9988 8.3097 15.0005ZM11.6655 16.6671H8.3322V17.5005H11.6655V16.6671ZM4.79387 12.5005C4.00903 11.5199 3.51716 10.3375 3.37492 9.08961C3.23269 7.84169 3.44587 6.57897 3.98991 5.44692C4.53396 4.31487 5.38673 3.35953 6.45 2.69095C7.51327 2.02238 8.74377 1.66777 9.99977 1.66797C11.2558 1.66817 12.4862 2.02318 13.5492 2.69209C14.6123 3.36101 15.4647 4.31662 16.0084 5.44885C16.5521 6.58107 16.7649 7.84386 16.6222 9.09173C16.4796 10.3396 15.9874 11.5218 15.2022 12.5021C14.6855 13.1455 13.3322 14.1671 13.3322 15.4171V17.5005C13.3322 17.9425 13.1566 18.3664 12.844 18.679C12.5315 18.9915 12.1076 19.1671 11.6655 19.1671H8.3322C7.89017 19.1671 7.46625 18.9915 7.15369 18.679C6.84113 18.3664 6.66553 17.9425 6.66553 17.5005V15.4171C6.66553 14.1671 5.31137 13.1455 4.79387 12.5005ZM10.8322 8.33713H12.9155L9.16554 13.3371V10.0038H7.0822L10.8322 5.00047V8.33797V8.33713Z" fill="#0076FF"/>
</svg>
