<svg width="101" height="110" viewBox="0 0 101 110" fill="none" xmlns="http://www.w3.org/2000/svg">
<path d="M15.8447 16.1818V5.70755C15.8447 3.1184 17.9574 1 20.5396 1H74.7649L99.0607 27.7153L99.9997 104.684C99.9997 107.273 97.887 109.391 95.3049 109.391H20.5396C17.9574 109.391 15.8447 107.273 15.8447 104.684V28.3038" fill="white"/>
<path d="M15.8447 16.1818V5.70755C15.8447 3.1184 17.9574 1 20.5396 1H74.7649L99.0607 27.7153L99.9997 104.684C99.9997 107.273 97.887 109.391 95.3049 109.391H20.5396C17.9574 109.391 15.8447 107.273 15.8447 104.684V28.3038" stroke="#919EAB" stroke-width="1.13109" stroke-miterlimit="10" stroke-linecap="round" stroke-linejoin="round"/>
<path d="M52.23 94.0901H49.5305C48.9436 94.0901 48.4741 93.6193 48.4741 93.0309C48.4741 92.4424 48.9436 91.9717 49.5305 91.9717H52.23C52.8168 91.9717 53.2863 92.4424 53.2863 93.0309C53.2863 93.6193 52.8168 94.0901 52.23 94.0901Z" fill="#D4D4D4"/>
<path d="M44.6016 94.0901H28.7565C28.1697 94.0901 27.7002 93.6193 27.7002 93.0309C27.7002 92.4424 28.1697 91.9717 28.7565 91.9717H44.6016C45.1885 91.9717 45.6579 92.4424 45.6579 93.0309C45.7753 93.6193 45.3058 94.0901 44.6016 94.0901Z" fill="#D4D4D4"/>
<path d="M65.3757 17.1244H29.5776C28.756 17.1244 28.0518 16.4182 28.0518 15.5944C28.0518 14.7706 28.756 14.0645 29.5776 14.0645H65.3757C66.1973 14.0645 66.9015 14.7706 66.9015 15.5944C66.9015 16.4182 66.1973 17.1244 65.3757 17.1244Z" fill="#D4D4D4"/>
<path d="M43.1926 25.7152H29.5776C28.756 25.7152 28.0518 25.009 28.0518 24.1852C28.0518 23.3614 28.756 22.6553 29.5776 22.6553H43.31C44.1316 22.6553 44.8358 23.3614 44.8358 24.1852C44.8358 25.009 44.0142 25.7152 43.1926 25.7152Z" fill="#D4D4D4"/>
<path d="M74.7656 10.8848V22.1829C74.7656 25.1251 77.3478 27.5966 80.2821 27.5966H99.0614" stroke="#919EAB" stroke-width="1.13109" stroke-miterlimit="10" stroke-linecap="round" stroke-linejoin="round"/>
<path d="M87.3244 41.8398H68.6624C68.6624 41.8398 68.6624 41.8398 68.545 41.8398C68.4277 41.8398 68.545 41.8398 68.4277 41.8398H49.1788C49.1788 41.8398 49.1788 41.8398 49.0615 41.8398C48.9441 41.8398 49.0615 41.8398 48.9441 41.8398H30.869C28.8737 41.8398 27.2305 43.4875 27.2305 45.6059V78.3233C27.2305 80.324 28.8737 82.0894 30.869 82.0894H87.207C89.2023 82.0894 90.8455 80.4417 90.8455 78.3233V45.6059C90.9629 43.6052 89.3197 41.8398 87.3244 41.8398ZM50.2352 70.7912V63.4946H67.4887V70.7912H50.2352ZM67.4887 73.0273V79.7356H50.2352V73.0273H67.4887ZM67.4887 53.8441V61.1408H50.2352V53.8441H67.4887ZM50.2352 51.608V44.0759H67.4887V51.608H50.2352ZM88.7328 61.2585H69.7187V53.9618H88.7328V61.2585ZM48.0051 61.2585H29.4605V53.9618H47.8878V61.2585H48.0051ZM29.4605 63.4946H47.8878V70.7912H29.4605V63.4946ZM69.7187 63.4946H88.7328V70.7912H69.7187V63.4946ZM88.7328 45.6059V51.608H69.7187V44.0759H87.3244C88.0286 44.0759 88.7328 44.7821 88.7328 45.6059ZM30.869 44.0759H47.8878V51.608H29.4605V45.6059C29.4605 44.7821 30.1647 44.0759 30.869 44.0759ZM29.4605 78.3233V73.0273H47.8878V79.7356H30.869C30.1647 79.7356 29.4605 79.1471 29.4605 78.3233ZM87.3244 79.7356H69.7187V73.0273H88.7328V78.3233C88.7328 79.1471 88.0286 79.7356 87.3244 79.7356Z" fill="#D4D4D4"/>
<path d="M34.2723 61.0198H2.93427C1.29108 61.0198 0 59.7252 0 58.0776V43.7196C0 42.0719 1.29108 40.7773 2.93427 40.7773H34.2723C35.9155 40.7773 37.2066 42.0719 37.2066 43.7196V57.9599C37.2066 59.6075 35.9155 61.0198 34.2723 61.0198Z" fill="#919EAB"/>
<path d="M9.01236 54.6133C9.48742 54.6133 9.8833 54.2061 9.8833 53.7084C9.8833 53.2447 9.48742 52.8375 9.01236 52.8375C8.49206 52.8375 8.10749 53.2447 8.10749 53.7084C8.10749 54.2061 8.49206 54.6133 9.01236 54.6133ZM14.1288 54.6133C15.0563 54.6133 15.8367 54.2287 16.4022 53.6292L15.4748 52.8262C15.1467 53.1994 14.6491 53.4369 14.1401 53.4369C13.1786 53.4369 12.3756 52.5773 12.3756 51.548C12.3756 50.53 13.1786 49.6704 14.1401 49.6704C14.6378 49.6704 15.1241 49.9079 15.4408 50.2586L16.3683 49.4442C15.8141 48.8673 15.0336 48.4941 14.1514 48.4941C12.4434 48.4941 11.007 49.8853 11.007 51.548C11.007 53.2107 12.4434 54.6133 14.1288 54.6133ZM19.6473 54.6133C21.0159 54.6133 21.9434 53.8894 21.9434 52.7696C21.9434 51.548 20.8802 51.2087 19.8962 50.9372C19.0026 50.6771 18.6972 50.564 18.6972 50.1907C18.6972 49.8627 19.0705 49.6704 19.5568 49.6704C20.0658 49.6704 20.6653 49.8514 21.2195 50.202L21.7964 49.1954C21.163 48.7769 20.3599 48.4941 19.5568 48.4941C18.2561 48.4941 17.3512 49.2406 17.3512 50.3378C17.3625 51.3784 18.1656 51.7403 19.4324 52.0683C20.0998 52.2493 20.6087 52.3963 20.6087 52.8488C20.6087 53.2107 20.2242 53.4482 19.6699 53.4482C18.9347 53.4482 18.2787 53.1768 17.7132 52.7696L17.0911 53.731C17.7923 54.2966 18.7538 54.6133 19.6473 54.6133ZM25.0992 54.4775H26.3999L28.877 48.6298H27.4066L25.7439 52.8827L24.0472 48.6298H22.5881L25.0992 54.4775Z" fill="white"/>
</svg>
