<svg width="101" height="110" viewBox="0 0 101 110" fill="none" xmlns="http://www.w3.org/2000/svg">
<path d="M15.8447 16.1818V5.70755C15.8447 3.1184 17.9574 1 20.5396 1H74.7649L99.0607 27.7153L99.9997 104.684C99.9997 107.273 97.887 109.391 95.3048 109.391H20.5396C17.9574 109.391 15.8447 107.273 15.8447 104.684V28.3038" fill="white"/>
<path d="M15.8447 16.1818V5.70755C15.8447 3.1184 17.9574 1 20.5396 1H74.7649L99.0607 27.7153L99.9997 104.684C99.9997 107.273 97.887 109.391 95.3048 109.391H20.5396C17.9574 109.391 15.8447 107.273 15.8447 104.684V28.3038" stroke="#919EAB" stroke-width="1.10478" stroke-miterlimit="10" stroke-linecap="round" stroke-linejoin="round"/>
<path d="M52.2285 94.093H49.529C48.9421 94.093 48.4727 93.6223 48.4727 93.0338C48.4727 92.4454 48.9421 91.9746 49.529 91.9746H52.2285C52.8154 91.9746 53.2849 92.4454 53.2849 93.0338C53.2849 93.6223 52.8154 94.093 52.2285 94.093Z" fill="#D4D4D4"/>
<path d="M44.6006 94.093H28.7556C28.1687 94.093 27.6992 93.6223 27.6992 93.0338C27.6992 92.4454 28.1687 91.9746 28.7556 91.9746H44.6006C45.1875 91.9746 45.657 92.4454 45.657 93.0338C45.7743 93.6223 45.3049 94.093 44.6006 94.093Z" fill="#D4D4D4"/>
<path d="M65.3757 17.1214H29.5776C28.756 17.1214 28.0518 16.4153 28.0518 15.5915C28.0518 14.7677 28.756 14.0615 29.5776 14.0615H65.3757C66.1973 14.0615 66.9015 14.7677 66.9015 15.5915C66.9015 16.4153 66.1973 17.1214 65.3757 17.1214Z" fill="#D4D4D4"/>
<path d="M43.1926 25.7152H29.5776C28.756 25.7152 28.0518 25.009 28.0518 24.1852C28.0518 23.3614 28.756 22.6553 29.5776 22.6553H43.31C44.1316 22.6553 44.8358 23.3614 44.8358 24.1852C44.8358 25.009 44.0142 25.7152 43.1926 25.7152Z" fill="#D4D4D4"/>
<path d="M74.7656 10.8848V22.1829C74.7656 25.1251 77.3478 27.5966 80.2821 27.5966H99.0614" stroke="#919EAB" stroke-width="1.10478" stroke-miterlimit="10" stroke-linecap="round" stroke-linejoin="round"/>
<path d="M87.3244 41.8379H68.6624C68.6624 41.8379 68.6624 41.8379 68.545 41.8379C68.4277 41.8379 68.545 41.8379 68.4277 41.8379H49.1788C49.1788 41.8379 49.1788 41.8379 49.0615 41.8379C48.9441 41.8379 49.0615 41.8379 48.9441 41.8379H30.869C28.8737 41.8379 27.2305 43.4855 27.2305 45.6039V78.3214C27.2305 80.3221 28.8737 82.0874 30.869 82.0874H87.207C89.2023 82.0874 90.8455 80.4398 90.8455 78.3214V45.6039C90.9629 43.6032 89.3197 41.8379 87.3244 41.8379ZM50.2352 70.7893V63.4926H67.4887V70.7893H50.2352ZM67.4887 73.0254V79.7336H50.2352V73.0254H67.4887ZM67.4887 53.8421V61.1388H50.2352V53.8421H67.4887ZM50.2352 51.606V44.074H67.4887V51.606H50.2352ZM88.7328 61.2565H69.7187V53.9598H88.7328V61.2565ZM48.0051 61.2565H29.4605V53.9598H47.8878V61.2565H48.0051ZM29.4605 63.4926H47.8878V70.7893H29.4605V63.4926ZM69.7187 63.4926H88.7328V70.7893H69.7187V63.4926ZM88.7328 45.6039V51.606H69.7187V44.074H87.3244C88.0286 44.074 88.7328 44.7801 88.7328 45.6039ZM30.869 44.074H47.8878V51.606H29.4605V45.6039C29.4605 44.7801 30.1647 44.074 30.869 44.074ZM29.4605 78.3214V73.0254H47.8878V79.7336H30.869C30.1647 79.7336 29.4605 79.1452 29.4605 78.3214ZM87.3244 79.7336H69.7187V73.0254H88.7328V78.3214C88.7328 79.1452 88.0286 79.7336 87.3244 79.7336Z" fill="#D4D4D4"/>
<path d="M34.2723 61.0198H2.93427C1.29108 61.0198 0 59.7252 0 58.0776V43.7196C0 42.0719 1.29108 40.7773 2.93427 40.7773H34.2723C35.9155 40.7773 37.2066 42.0719 37.2066 43.7196V57.9599C37.2066 59.6075 35.9155 61.0198 34.2723 61.0198Z" fill="#919EAB"/>
<path d="M10.9959 54.6101C11.4599 54.6101 11.8465 54.2124 11.8465 53.7263C11.8465 53.2733 11.4599 52.8756 10.9959 52.8756C10.4877 52.8756 10.112 53.2733 10.112 53.7263C10.112 54.2124 10.4877 54.6101 10.9959 54.6101ZM18.479 54.4775L16.3358 51.5499L18.3796 48.7658H16.9102L15.6066 50.5445L14.303 48.7658H12.8226L14.8664 51.5609L12.7231 54.4775H14.1925L15.5956 52.5663L16.9876 54.4775H18.479ZM19.4352 54.4775H20.783V46.7551H19.4352V54.4775ZM24.3828 54.6101C25.7196 54.6101 26.6255 53.9031 26.6255 52.8093C26.6255 51.6162 25.587 51.2847 24.6259 51.0196C23.7531 50.7655 23.4548 50.655 23.4548 50.2904C23.4548 49.97 23.8194 49.7822 24.2944 49.7822C24.7916 49.7822 25.3771 49.959 25.9185 50.3015L26.4819 49.3182C25.8632 48.9094 25.0788 48.6332 24.2944 48.6332C23.0239 48.6332 22.1401 49.3624 22.1401 50.434C22.1511 51.4504 22.9355 51.804 24.1729 52.1244C24.8247 52.3011 25.3219 52.4447 25.3219 52.8867C25.3219 53.2402 24.9462 53.4722 24.4049 53.4722C23.6868 53.4722 23.046 53.207 22.4936 52.8093L21.886 53.7484C22.571 54.3008 23.51 54.6101 24.3828 54.6101Z" fill="white"/>
</svg>
