<svg width="101" height="110" viewBox="0 0 101 110" fill="none" xmlns="http://www.w3.org/2000/svg">
<path d="M16.1489 16.127V5.69055C16.1489 3.11075 18.254 1 20.8268 1H74.8565L99.0645 27.6189L100 104.309C100 106.889 97.8951 109 95.3222 109H20.8268C18.254 109 16.1489 106.889 16.1489 104.309V28.2052" fill="white"/>
<path d="M16.1489 16.127V5.69055C16.1489 3.11075 18.254 1 20.8268 1H74.8565L99.0645 27.6189L100 104.309C100 106.889 97.8951 109 95.3222 109H20.8268C18.254 109 16.1489 106.889 16.1489 104.309V28.2052" stroke="#919EAB" stroke-width="1.127" stroke-miterlimit="10" stroke-linecap="round" stroke-linejoin="round"/>
<path d="M52.4015 93.7563H49.7117C49.127 93.7563 48.6592 93.2872 48.6592 92.7009C48.6592 92.1146 49.127 91.6455 49.7117 91.6455H52.4015C52.9862 91.6455 53.454 92.1146 53.454 92.7009C53.454 93.2872 52.9862 93.7563 52.4015 93.7563Z" fill="#D4D4D4"/>
<path d="M44.8009 93.7563H29.013C28.4282 93.7563 27.9604 93.2872 27.9604 92.7009C27.9604 92.1146 28.4282 91.6455 29.013 91.6455H44.8009C45.3856 91.6455 45.8534 92.1146 45.8534 92.7009C45.9703 93.2872 45.5025 93.7563 44.8009 93.7563Z" fill="#D4D4D4"/>
<path d="M65.5008 17.0635H29.8318C29.0132 17.0635 28.3115 16.3599 28.3115 15.5391C28.3115 14.7182 29.0132 14.0146 29.8318 14.0146H65.5008C66.3194 14.0146 67.0211 14.7182 67.0211 15.5391C67.0211 16.3599 66.3194 17.0635 65.5008 17.0635Z" fill="#D4D4D4"/>
<path d="M43.3977 25.626H29.8318C29.0132 25.626 28.3115 24.9224 28.3115 24.1016C28.3115 23.2807 29.0132 22.5771 29.8318 22.5771H43.5147C44.3333 22.5771 45.035 23.2807 45.035 24.1016C45.035 24.9224 44.2164 25.626 43.3977 25.626Z" fill="#D4D4D4"/>
<path d="M74.8569 10.8496V22.1069C74.8569 25.0385 77.4298 27.5011 80.3535 27.5011H99.065" stroke="#919EAB" stroke-width="1.127" stroke-miterlimit="10" stroke-linecap="round" stroke-linejoin="round"/>
<path d="M87.3702 41.6924H68.7756C68.7756 41.6924 68.7756 41.6924 68.6586 41.6924C68.5417 41.6924 68.6586 41.6924 68.5417 41.6924H49.3623C49.3623 41.6924 49.3623 41.6924 49.2454 41.6924C49.1284 41.6924 49.2454 41.6924 49.1284 41.6924H31.1185C29.1304 41.6924 27.4932 43.3341 27.4932 45.4448V78.0442C27.4932 80.0377 29.1304 81.7966 31.1185 81.7966H87.2532C89.2413 81.7966 90.8786 80.1549 90.8786 78.0442V45.4448C90.9955 43.4513 89.3583 41.6924 87.3702 41.6924ZM50.4148 70.5393V63.2689H67.6061V70.5393H50.4148ZM67.6061 72.7673V79.4513H50.4148V72.7673H67.6061ZM67.6061 53.6533V60.9237H50.4148V53.6533H67.6061ZM50.4148 51.4253V43.9204H67.6061V51.4253H50.4148ZM88.7735 61.0409H69.8281V53.7706H88.7735V61.0409ZM48.1928 61.0409H29.7152V53.7706H48.0759V61.0409H48.1928ZM29.7152 63.2689H48.0759V70.5393H29.7152V63.2689ZM69.8281 63.2689H88.7735V70.5393H69.8281V63.2689ZM88.7735 45.4448V51.4253H69.8281V43.9204H87.3702C88.0719 43.9204 88.7735 44.624 88.7735 45.4448ZM31.1185 43.9204H48.0759V51.4253H29.7152V45.4448C29.7152 44.624 30.4168 43.9204 31.1185 43.9204ZM29.7152 78.0442V72.7673H48.0759V79.4513H31.1185C30.4168 79.4513 29.7152 78.865 29.7152 78.0442ZM87.3702 79.4513H69.8281V72.7673H88.7735V78.0442C88.7735 78.865 88.0719 79.4513 87.3702 79.4513Z" fill="#D4D4D4"/>
<path d="M34.5099 60.8032H3.28501C1.64775 60.8032 0.361328 59.5133 0.361328 57.8716V43.5654C0.361328 41.9237 1.64775 40.6338 3.28501 40.6338H34.5099C36.1472 40.6338 37.4336 41.9237 37.4336 43.5654V57.7543C37.4336 59.396 36.1472 60.8032 34.5099 60.8032Z" fill="#919EAB"/>
<path d="M7.88873 54.4546C8.36207 54.4546 8.75652 54.0489 8.75652 53.553C8.75652 53.0909 8.36207 52.6852 7.88873 52.6852C7.37031 52.6852 6.98713 53.0909 6.98713 53.553C6.98713 54.0489 7.37031 54.4546 7.88873 54.4546ZM10.8792 47.6137C11.3074 47.6137 11.6568 47.2418 11.6568 46.8248C11.6568 46.4078 11.3074 46.0472 10.8792 46.0472C10.4396 46.0472 10.0903 46.4078 10.0903 46.8248C10.0903 47.2418 10.4396 47.6137 10.8792 47.6137ZM9.87612 56.3254C10.8679 56.3254 11.5554 55.6154 11.5554 54.6011V48.4927H10.1804V54.4997C10.1804 54.8941 9.94374 55.1759 9.60564 55.1759C9.39151 55.1759 9.12103 55.1308 8.96325 55.0632L8.7942 56.1113C9.05341 56.2352 9.50421 56.3254 9.87612 56.3254ZM15.2275 54.4546C16.5912 54.4546 17.5153 53.7333 17.5153 52.6176C17.5153 51.4004 16.456 51.0623 15.4755 50.7918C14.5851 50.5326 14.2808 50.4199 14.2808 50.048C14.2808 49.7212 14.6528 49.5296 15.1374 49.5296C15.6445 49.5296 16.2418 49.7099 16.7941 50.0593L17.3688 49.0562C16.7377 48.6393 15.9375 48.3575 15.1374 48.3575C13.8413 48.3575 12.9397 49.1013 12.9397 50.1945C12.951 51.2314 13.7512 51.592 15.0134 51.9188C15.6783 52.0991 16.1855 52.2457 16.1855 52.6965C16.1855 53.0571 15.8023 53.2938 15.2501 53.2938C14.5175 53.2938 13.8639 53.0233 13.3004 52.6176L12.6805 53.5755C13.3792 54.139 14.3372 54.4546 15.2275 54.4546ZM21.5275 54.4546C23.218 54.4546 24.6492 53.0571 24.6492 51.4004C24.6492 49.7437 23.218 48.3575 21.5275 48.3575C19.837 48.3575 18.4057 49.7437 18.4057 51.4004C18.4057 53.0571 19.837 54.4546 21.5275 54.4546ZM21.5275 53.2825C20.5582 53.2825 19.7468 52.426 19.7468 51.4004C19.7468 50.3861 20.5582 49.5296 21.5275 49.5296C22.4854 49.5296 23.2968 50.3861 23.2968 51.4004C23.2968 52.426 22.4854 53.2825 21.5275 53.2825ZM29.0199 48.3575C28.2535 48.3575 27.5773 48.7294 27.2167 49.2704V48.4927H25.8418V54.3193H27.2167V50.634C27.3069 50.0142 27.9042 49.5296 28.6254 49.5296C29.3467 49.5296 29.8539 50.0931 29.8539 50.882V54.3193H31.1837V50.6115C31.1837 49.2929 30.2934 48.3575 29.0199 48.3575Z" fill="white"/>
</svg>
