<svg width="77" height="22" viewBox="0 0 77 22" fill="none" xmlns="http://www.w3.org/2000/svg">
<path d="M13.8388 6.35034C13.7218 6.35034 13.6048 6.3615 13.4888 6.3615C11.125 6.48746 9.53078 7.52772 8.59864 9.55919C7.80142 11.3965 7.88846 13.7981 8.60759 15.6466C9.44384 17.4528 10.7951 18.4061 13.0506 18.7661C13.5278 18.8443 13.8478 19.1063 14.7721 20.1855L15.9093 21.5179H17.972L16.6004 20.1352C15.8423 19.3771 15.2291 18.717 15.2291 18.659C15.2291 18.6011 15.5191 18.474 15.8702 18.367C17.0275 18.0168 17.9886 17.1227 18.6608 15.7524C19.205 14.652 19.2831 14.3119 19.3611 12.9428C19.5651 8.86777 17.4166 6.32006 13.8387 6.34916L13.8388 6.35034ZM15.6472 17.0069C14.6438 17.4929 13.1867 17.5899 12.2356 17.241C11.2522 16.8798 10.3001 15.8585 9.87186 14.7023C9.39582 13.438 9.46378 11.1056 10.0079 10.0552C10.8831 8.38284 12.0405 7.61358 13.7318 7.61358C16.2404 7.61358 17.6675 9.15003 17.8537 12.0376C18.0009 14.4482 17.1937 16.2566 15.6483 17.0059L15.6472 17.0069ZM51.2783 9.83117C50.4131 9.83117 49.7509 10.1813 49.3048 10.8713L48.9547 11.4177V9.99723H47.4574V18.5154H48.9537V15.7927C48.9537 13.303 48.9848 13.012 49.3327 12.3308C49.8122 11.3965 50.6371 10.9306 51.4344 11.1535L51.9696 11.3096V9.83343H51.2783V9.83117ZM42.4815 9.75307C42.1882 9.75307 41.8771 9.79214 41.5673 9.86022C39.5637 10.3841 38.4343 12.3018 38.5034 14.2753C38.5034 15.9277 38.8244 16.7537 39.6217 17.6201C41.2551 18.9602 42.7323 19.0672 44.7258 18.3482C45.0659 18.2033 45.436 18.036 45.436 18.036V16.6959L44.7258 17.0638C43.1125 17.7662 41.8972 17.7662 40.9238 16.9389C40.3029 16.3067 40.0297 15.5486 39.9038 14.6835H45.9411V13.5349C45.9411 11.1936 44.5318 9.71518 42.4803 9.75307H42.4815ZM40.0398 13.4881C40.0398 13.4881 40.2628 12.0276 41.09 11.4545C41.4882 11.1735 41.9452 11.0375 42.3922 11.0375C42.8405 11.0375 43.2876 11.1824 43.6566 11.4646C44.4149 12.0477 44.5419 13.4771 44.5419 13.4771H40.0398L40.0398 13.4881ZM3.94153 11.9518C2.31824 10.9684 1.59798 10.2592 1.68605 9.42305C1.93798 7.10957 4.79674 7.42957 6.37988 8.30484L6.39114 6.74844C6.39114 6.74844 5.51587 6.36936 4.26153 6.34926C2.33716 6.32026 1.09289 6.95127 0.509858 8.23569C-0.346491 10.1311 0.411761 11.5604 3.15232 13.1548C4.69088 14.05 5.37093 14.8272 5.37093 15.6745C5.37093 17.425 3.2604 18.036 1.08297 16.9378C0.634846 16.7148 0.25572 16.5286 0.235668 16.5286C0.157571 17.0247 0.197828 18.2121 0.197828 18.2121C0.197828 18.2121 0.866825 18.4931 1.87017 18.687C4.3586 19.1831 6.62312 18.0158 6.83715 16.1204C7.02338 14.341 6.37993 13.4078 3.94163 11.9506L3.94153 11.9518ZM64.5304 9.73307C64.2382 9.73307 63.9283 9.77317 63.6049 9.84119C61.6037 10.3652 60.4764 12.2829 60.5533 14.2564C60.5533 15.9065 60.8734 16.7248 61.6705 17.59C63.304 18.9313 64.7812 19.0394 66.7848 18.3192C67.1237 18.1744 67.4927 18.0094 67.4927 18.0094V16.6671L66.7837 17.0371C65.1671 17.7373 63.9517 17.7373 62.9818 16.91C62.3574 16.279 62.0865 15.5297 61.9605 14.6545H67.9878V13.5061C67.9878 11.176 66.5784 9.69636 64.527 9.73544L64.5304 9.73307ZM62.0886 13.4681C62.0886 13.4681 62.3139 12.0097 63.14 11.4255C63.537 11.1435 63.994 11.0074 64.4411 11.0074C64.8871 11.0074 65.3364 11.1523 65.7056 11.4355C66.4637 12.0186 66.5909 13.458 66.5909 13.458H62.0899L62.0886 13.4681ZM34.6435 11.9708C33.0202 10.9896 32.3021 10.2782 32.3891 9.44196C32.641 7.12731 35.4998 7.44849 37.0829 8.32376L37.0942 6.76736C37.0942 6.76736 36.2189 6.38824 34.9645 6.37034C33.0402 6.3414 31.7959 6.97245 31.2118 8.25682C30.3566 10.1521 31.1248 11.5816 33.8564 13.176C35.3928 14.0702 36.0729 14.8372 36.0729 15.6845C36.0729 17.435 33.9634 18.0561 31.7859 16.9477C31.34 16.7247 30.9609 16.5407 30.9386 16.5407C30.8605 17.0368 30.9008 18.2243 30.9008 18.2243C30.9008 18.2243 31.5619 18.4953 32.562 18.6992C35.0527 19.1965 37.3183 18.0303 37.5313 16.1349C37.7164 14.3643 37.0742 13.4312 34.6435 11.9728L34.6435 11.9708ZM73.3283 9.81112C72.4631 9.81112 71.7932 10.1622 71.3549 10.8525L71.0047 11.3965V9.97836H69.5074V18.4942H71.0036V15.7716C71.0036 13.283 71.0337 12.9909 71.3828 12.3108C71.8622 11.3776 72.6871 10.9106 73.4844 11.1346L74.0195 11.2906V9.81117L73.3283 9.81112ZM22.736 11.9217V6.4963H21.2265V18.5132H27.5749V17.0939H22.7361L22.736 11.9217ZM57.6468 13.613L56.4025 16.8508L55.2061 13.5951L53.9908 9.98726H52.4456C53.4469 12.8259 54.536 15.7135 55.6343 18.5132C56.1104 18.5243 56.5876 18.5132 57.0635 18.5132L58.7439 14.2943L60.4553 9.98834H58.978C58.978 9.98834 58.3257 11.6987 57.6457 13.6141L57.6468 13.613ZM26.2146 3.22175C26.4577 3.22175 26.6605 3.14381 26.8278 2.97656C26.9927 2.81147 27.0797 2.61748 27.0797 2.37445C27.0797 2.13137 26.9927 1.92844 26.8278 1.77234C26.6605 1.6163 26.4676 1.53815 26.2257 1.53815C25.9805 1.53815 25.7775 1.6163 25.6125 1.78124C25.4453 1.94633 25.3694 2.14926 25.3694 2.3834C25.3694 2.62869 25.4475 2.83152 25.6125 2.98551C25.7686 3.1415 25.9715 3.21959 26.2146 3.21959V3.22175ZM25.6795 1.83928C25.8243 1.6944 26.0005 1.62741 26.2257 1.62741C26.4376 1.62741 26.6138 1.6944 26.761 1.83928C26.9059 1.98422 26.984 2.16036 26.984 2.37445C26.984 2.58849 26.9059 2.77363 26.761 2.91851C26.6139 3.06335 26.4376 3.13255 26.2257 3.13255C26.0106 3.13255 25.8355 3.06566 25.6906 2.91851C25.5457 2.77363 25.4676 2.58849 25.4676 2.37445C25.4676 2.16036 25.5345 1.98427 25.6795 1.83928ZM26.0395 2.45255H26.1376C26.2068 2.45255 26.2748 2.51939 26.3327 2.64653L26.4499 2.90957H26.6338L26.4889 2.61738C26.4298 2.50041 26.3719 2.43239 26.3038 2.41332C26.3897 2.39327 26.4577 2.36432 26.5068 2.30628C26.5557 2.2562 26.5736 2.18813 26.5736 2.11116C26.5736 2.02201 26.5457 1.95517 26.4867 1.90607C26.4198 1.85034 26.3127 1.82026 26.1744 1.82026H25.8646V2.90957H26.0206V2.45245L26.0395 2.45255ZM26.0395 1.94633H26.1756C26.2737 1.94633 26.3428 1.96638 26.3807 1.99532C26.4176 2.02432 26.4276 2.06232 26.4276 2.13137C26.4276 2.25733 26.3494 2.31651 26.2046 2.31651H26.0374V1.94633H26.0395ZM1.10287 2.35548C1.10287 1.9764 1.09176 1.6944 1.08281 1.52823H1.09176C1.13073 1.72432 1.1787 1.87049 1.21772 1.96746L2.66708 5.20525H2.91017L4.35952 1.93851C4.39865 1.84941 4.43767 1.71553 4.48559 1.52931H4.49669C4.46775 1.8527 4.45772 2.13363 4.45772 2.35769V5.21533H4.95376V0.967406H4.33166L2.99937 3.92196C2.95027 4.03898 2.88225 4.21414 2.79531 4.44602H2.77515C2.74621 4.33116 2.67819 4.1561 2.58122 3.94201L1.27891 0.957276H0.617827V5.20515H1.095V2.35759L1.10287 2.35548ZM6.04091 2.3634H6.46913V5.00905H6.04091V2.3634ZM6.255 1.39332C6.34425 1.39332 6.42003 1.36314 6.47798 1.30417C6.5371 1.24612 6.57618 1.17034 6.57618 1.08119C6.57618 0.994193 6.54713 0.916097 6.47916 0.858205C6.41895 0.799079 6.34199 0.768899 6.25392 0.768899C6.16703 0.768899 6.08898 0.799079 6.03088 0.858205C5.97196 0.916097 5.93284 0.994193 5.93284 1.08119C5.93284 1.1782 5.96297 1.24612 6.03088 1.30417C6.09793 1.36314 6.16698 1.39332 6.25392 1.39332H6.255ZM9.52183 5.0671V4.60098C9.28764 4.77605 9.03566 4.86309 8.77479 4.86309C8.46271 4.86309 8.20949 4.7561 8.0244 4.55101C7.8405 4.34808 7.7424 4.06587 7.7424 3.71471C7.7424 3.34679 7.8405 3.05455 8.04337 2.83157C8.23849 2.61754 8.49165 2.51049 8.80163 2.51049C9.05469 2.51049 9.29762 2.58864 9.52188 2.74479V2.24864C9.31787 2.1416 9.08486 2.0925 8.82168 2.0925C8.33551 2.0925 7.95654 2.24864 7.67335 2.54977C7.39232 2.85075 7.24739 3.25995 7.24739 3.75389C7.24739 4.19312 7.37335 4.56222 7.63546 4.84433C7.90857 5.13415 8.25767 5.28134 8.68574 5.28134C9.01674 5.27219 9.28764 5.20304 9.52183 5.0671ZM10.7471 3.65666C10.7471 3.30767 10.8251 3.02566 10.9701 2.83152C11.1061 2.65656 11.2711 2.56849 11.4662 2.56849C11.6312 2.56849 11.7483 2.59856 11.8341 2.66659V2.16036C11.7672 2.13142 11.6702 2.12139 11.5442 2.12139C11.3692 2.12139 11.2132 2.18031 11.076 2.28864C10.9311 2.40335 10.8151 2.57851 10.7471 2.8015H10.736V2.18042H10.251V5.21307H10.7371V3.65666H10.7471ZM13.5378 5.27327C13.9949 5.27327 14.3629 5.12607 14.636 4.83404C14.9079 4.54402 15.044 4.15389 15.044 3.66767C15.044 3.17168 14.9192 2.79255 14.665 2.51034C14.413 2.22844 14.0629 2.09224 13.6057 2.09224C13.1485 2.09224 12.7806 2.22833 12.5075 2.49142C12.2154 2.78145 12.0615 3.1906 12.0615 3.71574C12.0615 4.17286 12.1864 4.55198 12.4496 4.83404C12.7216 5.12607 13.0817 5.27214 13.5378 5.27214V5.27327ZM12.8465 2.80258C13.0316 2.60746 13.2747 2.51039 13.5757 2.51039C13.8879 2.51039 14.122 2.60746 14.296 2.80258C14.471 3.00664 14.558 3.29769 14.558 3.68674C14.558 4.05682 14.4799 4.34787 14.3149 4.54299C14.15 4.74705 13.9069 4.85512 13.5857 4.85512C13.2736 4.85512 13.0316 4.74695 12.8465 4.54299C12.6626 4.33785 12.5745 4.05682 12.5745 3.68674C12.5556 3.31882 12.6526 3.01785 12.8465 2.80258ZM17.1725 5.00905C17.3576 4.84412 17.4558 4.64119 17.4558 4.38684C17.4558 4.16386 17.3776 3.97882 17.2327 3.83276C17.1145 3.71579 16.9317 3.60977 16.6675 3.50273C16.4332 3.40474 16.2884 3.31764 16.2103 3.24962C16.1323 3.17163 16.0843 3.07471 16.0843 2.93748C16.0843 2.81152 16.1334 2.7145 16.2293 2.63646C16.3274 2.55851 16.4523 2.52062 16.6196 2.52062C16.8816 2.52062 17.1056 2.58967 17.3107 2.73579V2.24962C17.1145 2.15162 16.9016 2.10479 16.6585 2.10479C16.3464 2.10479 16.0832 2.1907 15.8891 2.35666C15.6851 2.5218 15.5882 2.73584 15.5882 2.98772C15.5882 3.2107 15.655 3.39584 15.782 3.53178C15.8891 3.64777 16.0721 3.76602 16.3261 3.87183C16.5693 3.97893 16.7343 4.07584 16.8223 4.15384C16.9092 4.23199 16.9483 4.3289 16.9483 4.44386C16.9483 4.72695 16.7543 4.87312 16.3752 4.87312C16.0831 4.87312 15.8212 4.77718 15.5869 4.58324V5.1071C15.7987 5.23435 16.053 5.29224 16.3339 5.29224C16.6941 5.27332 16.9761 5.18525 17.1701 5.01019L17.1725 5.00905ZM19.4871 2.09234C19.0299 2.09234 18.662 2.22843 18.3889 2.49152C18.099 2.78155 17.9429 3.1907 17.9429 3.71584C17.9429 4.17296 18.069 4.55209 18.3309 4.83415C18.6041 5.12618 18.9631 5.27224 19.4202 5.27224C19.8885 5.27224 20.2453 5.12515 20.5184 4.83291C20.7916 4.54309 20.9276 4.15286 20.9276 3.66669C20.9276 3.17055 20.8005 2.79152 20.5485 2.50941C20.2855 2.2273 19.9352 2.09126 19.4893 2.09126L19.4871 2.09234ZM20.4303 3.68679C20.4303 4.05687 20.3523 4.34792 20.1873 4.54304C20.0222 4.7471 19.7792 4.85517 19.458 4.85517C19.1457 4.85517 18.9039 4.747 18.7187 4.54304C18.5348 4.3379 18.4468 4.05687 18.4468 3.68679C18.4468 3.29656 18.5438 2.99558 18.7389 2.79255C18.9228 2.59857 19.166 2.50042 19.4681 2.50042C19.7691 2.50042 20.0111 2.59846 20.186 2.79255C20.3422 3.00659 20.4292 3.29764 20.4292 3.68679H20.4303ZM21.7438 5.20417H22.2288V2.57857H22.9389V2.17044H22.2287V1.70216C22.2287 1.27635 22.3936 1.06227 22.7349 1.06227C22.8497 1.06227 22.9668 1.09121 23.0538 1.14031V0.702212C22.9668 0.663189 22.8497 0.654297 22.7036 0.654297C22.4416 0.654297 22.2276 0.732394 22.0525 0.89733C21.8484 1.09131 21.7403 1.3433 21.7403 1.68458V2.18186H21.2273V2.58988H21.7403V5.20561L21.7438 5.20417ZM23.7361 4.37687C23.7361 4.97008 23.9982 5.27219 24.5333 5.27219C24.7273 5.27219 24.8733 5.24104 24.9904 5.17188V4.75492C24.9013 4.82186 24.7953 4.85312 24.6783 4.85312C24.5133 4.85312 24.3973 4.81394 24.3293 4.72587C24.2601 4.63903 24.2212 4.49173 24.2212 4.2888V2.57743H24.9904V2.16931H24.2212V1.27522C24.0539 1.33316 23.89 1.38226 23.735 1.43121V2.16926H23.211V2.57738H23.735V4.37579L23.7361 4.37687ZM75.9149 9.96711C75.75 9.81112 75.5548 9.73302 75.3129 9.73302C75.0677 9.73302 74.8647 9.81112 74.6997 9.97832C74.5347 10.1422 74.4565 10.3462 74.4565 10.5804C74.4565 10.8235 74.5347 11.0264 74.6984 11.1824C74.8635 11.3385 75.0664 11.4167 75.3117 11.4167C75.5536 11.4167 75.7577 11.3385 75.925 11.1735C76.0889 11.0063 76.1758 10.8134 76.1758 10.5715C76.1669 10.3262 76.0788 10.1233 75.9138 9.96721L75.9149 9.96711ZM75.8369 11.1156C75.692 11.2605 75.5158 11.3274 75.3017 11.3274C75.09 11.3274 74.9138 11.2605 74.7666 11.1156C74.6217 10.9684 74.5436 10.7844 74.5436 10.5692C74.5436 10.3573 74.6105 10.1813 74.7577 10.0341C74.9025 9.88926 75.0777 9.82222 75.3017 9.82222C75.5136 9.82222 75.6898 9.88926 75.8369 10.0341C75.9818 10.1813 76.0599 10.3573 76.0599 10.5692C76.0599 10.7945 75.993 10.9684 75.8369 11.1156ZM75.3998 10.6194C75.4868 10.5993 75.556 10.5603 75.6039 10.5124C75.653 10.4622 75.6709 10.3941 75.6709 10.3163C75.6709 10.2293 75.643 10.1601 75.5839 10.1122C75.5171 10.0564 75.4089 10.0263 75.2719 10.0263H74.9619V11.1144H75.118V10.6573H75.2149C75.2819 10.6573 75.3488 10.7241 75.4089 10.8513L75.5248 11.1133H75.71L75.5651 10.8211C75.5149 10.694 75.4569 10.636 75.3979 10.617L75.3998 10.6194ZM75.2928 10.5213H75.1256V10.1535H75.2628C75.3598 10.1535 75.4277 10.1712 75.4668 10.2014C75.5058 10.2303 75.5147 10.2683 75.5147 10.3374C75.5147 10.4634 75.4377 10.5213 75.2928 10.5213ZM28.1677 2.04448H28.3037V0.955171H28.6637V0.81913H27.8076V0.955171H28.1678L28.1677 2.04448ZM28.9927 1.22612C28.9927 1.1201 28.9927 1.03317 28.9849 0.98422C28.9938 1.04211 29.0139 1.08124 29.0228 1.11018L29.441 2.04448H29.5079L29.927 1.10118C29.9383 1.07224 29.9472 1.0343 29.9661 0.98422C29.9571 1.08124 29.9571 1.15908 29.9571 1.21831V2.0434H30.1021V0.81913H29.927L29.548 1.66427C29.5391 1.69445 29.5088 1.75342 29.49 1.82041H29.4788C29.471 1.78129 29.451 1.74232 29.4231 1.67553L29.044 0.81923H28.8478V2.04566H28.9849V1.2273L28.9927 1.22612Z" fill="#231F1F"/>
</svg>
