<svg width="40" height="44" viewBox="0 0 40 44" fill="none" xmlns="http://www.w3.org/2000/svg">
<path d="M25.2847 20.6665L16.7144 23.465L9.25829 26.7558L7.17235 27.3065C6.6411 27.8118 6.08408 28.3236 5.48162 28.8418C4.82087 29.4118 4.20548 29.9301 3.73251 30.3058C3.20784 30.7204 2.43047 31.4977 2.03535 31.99C1.44582 32.7284 0.979431 33.5123 0.778601 34.1148C0.422285 35.2031 0.597275 36.3043 1.28392 37.3214C2.16491 38.617 3.92047 39.9384 5.96743 40.8388C7.01044 41.2989 8.76594 41.8883 10.0874 42.2186C12.2834 42.7758 16.5329 43.3782 18.8714 43.469C19.3442 43.4884 19.9791 43.4884 20.005 43.469C20.0569 43.4365 20.4196 42.7434 20.8408 41.8819C22.2789 38.9473 23.3153 36.1942 23.8789 33.8428C24.2157 32.4177 24.4813 30.5196 24.6561 28.2718C24.7015 27.6434 24.7209 25.5381 24.682 24.8255C24.6237 23.6595 24.52 22.7138 24.3582 21.7874C24.3323 21.6513 24.3257 21.5282 24.3388 21.5218C24.3646 21.5024 24.4423 21.4765 25.4982 21.1719L25.2846 20.6667V20.6666H25.2847V20.6665ZM23.3284 21.8132C23.4061 21.8132 23.6133 23.8019 23.6651 25.0587C23.6781 25.3242 23.6716 25.4991 23.6587 25.4991C23.6069 25.4991 22.5639 24.8838 21.819 24.4174C21.1712 24.0093 19.9404 23.193 19.7461 23.0375C19.6812 22.9922 19.6877 22.9858 20.2189 22.8043C21.1193 22.4998 23.2571 21.8132 23.3284 21.8132ZM18.9622 23.2513C19.0205 23.2513 19.1694 23.3354 19.5258 23.5557C20.8602 24.3914 22.6741 25.402 23.4514 25.7389C23.691 25.8425 23.7169 25.8036 23.1664 26.1794C21.9874 26.9826 20.5168 27.7729 18.7159 28.5697C18.3986 28.7122 18.133 28.8223 18.1265 28.8223C18.1136 28.8223 18.1524 28.6604 18.2041 28.4661C18.6382 26.8529 18.8844 25.2205 18.8974 23.912C18.9039 23.2642 18.9039 23.2642 18.9622 23.2448C18.9492 23.2513 18.9556 23.2513 18.9622 23.2513ZM18.0618 23.5946C18.1005 23.6334 18.0747 25.0845 18.0229 25.4797C17.9063 26.4255 17.7249 27.3064 17.427 28.2976C17.3557 28.5372 17.2908 28.7381 17.278 28.751C17.252 28.7834 16.3645 27.9153 16.073 27.5785C15.5677 26.9955 15.1726 26.4124 14.8811 25.8424C14.7321 25.5509 14.4989 24.9809 14.5183 24.9614C14.622 24.8902 18.0359 23.5687 18.0618 23.5946ZM13.8252 25.2594C13.8316 25.2594 13.8381 25.2594 13.8446 25.2659C13.8575 25.2788 13.903 25.3825 13.9418 25.4991C14.1491 26.0627 14.6154 26.8918 15.0171 27.423C15.4576 28.0061 16.0342 28.6279 16.5135 29.036C16.669 29.1656 16.8114 29.2886 16.8308 29.3081C16.8698 29.347 16.8827 29.3405 15.8268 29.7421C14.6026 30.2085 13.268 30.6749 11.7392 31.1672C11.374 31.285 11.0091 31.4037 10.6446 31.5235C10.5862 31.543 10.6057 31.5106 10.7741 31.245C11.532 30.0595 12.685 27.734 13.3329 26.0886C13.443 25.8035 13.5531 25.5185 13.5726 25.4538C13.5985 25.363 13.6308 25.3307 13.715 25.2853C13.7604 25.2724 13.8058 25.2594 13.8252 25.2594ZM12.5297 25.7971C12.5491 25.8101 12.2187 26.5032 11.8948 27.138C11.2664 28.3623 10.5798 29.5673 9.6599 31.0313C9.50444 31.2839 9.3555 31.5171 9.33602 31.543C9.30367 31.5884 9.29065 31.5754 9.18702 31.3746C8.96677 30.9406 8.78533 30.3834 8.68818 29.8717C8.59098 29.3664 8.61046 28.4854 8.72063 27.9413C8.80475 27.5397 8.79835 27.5462 8.99267 27.449C9.82183 27.0279 12.5038 25.7712 12.5297 25.7971ZM23.7041 26.2506V26.5226C23.7041 27.9672 23.5486 29.9495 23.3218 31.3941C23.2829 31.6467 23.2504 31.8539 23.2441 31.8605C23.2441 31.8605 23.0562 31.8087 22.836 31.7438C21.8643 31.4394 20.8084 30.9924 19.8561 30.4678C19.2277 30.1244 18.3143 29.5608 18.3403 29.5348C18.3467 29.5284 18.6188 29.3859 18.9362 29.2174C20.206 28.5567 21.4237 27.8442 22.4797 27.1381C22.8748 26.8724 23.4707 26.445 23.6004 26.3283L23.7041 26.2506ZM7.63874 28.1679C7.66464 28.1679 7.65816 28.2198 7.6193 28.453C7.59337 28.6215 7.56102 28.9324 7.54814 29.1461C7.4962 30.0919 7.65177 30.7916 8.11816 31.7502C8.24772 32.0159 8.35143 32.2361 8.34486 32.2425C8.29949 32.2815 4.01119 33.5382 2.66368 33.9074C2.26208 34.0175 1.91234 34.1147 1.88629 34.1211C1.84103 34.1341 1.83452 34.1277 1.85394 34.0174C2.00291 33.0653 2.72848 31.8215 3.73899 30.772C4.41273 30.0724 4.95043 29.6644 5.87028 29.1396C6.53102 28.7639 7.54805 28.2004 7.62578 28.1744C7.62584 28.1679 7.63229 28.1679 7.63874 28.1679ZM17.7444 29.9753C17.7508 29.9688 17.9063 30.0531 18.0941 30.1632C19.4804 30.9665 21.4108 31.7115 23.0561 32.0936L23.2052 32.1261L22.9979 32.2425C22.1363 32.722 19.3055 33.9009 16.4099 34.9828C15.9888 35.1382 15.5742 35.2937 15.4964 35.3261C15.4187 35.3584 15.3474 35.3779 15.3474 35.3714C15.3474 35.3649 15.4641 35.1382 15.6129 34.8597C16.4227 33.3438 17.239 31.4976 17.6535 30.215C17.7055 30.0919 17.7378 29.9818 17.7444 29.9753ZM16.7144 30.3122C16.7209 30.3188 16.669 30.4547 16.6042 30.6102C16.0407 31.977 15.3021 33.467 14.3564 35.1383C14.1167 35.5659 13.9159 35.9092 13.9093 35.9092C13.9029 35.9092 13.7085 35.7925 13.4753 35.6501C12.1019 34.8079 10.8841 33.7715 10.0874 32.7674L9.97078 32.6248L10.5602 32.4629C12.6721 31.8864 14.4664 31.2645 16.2479 30.5002C16.5006 30.3965 16.7079 30.3122 16.7144 30.3122ZM23.1146 32.5471C23.1146 32.5471 23.121 32.5536 23.1146 32.5471C23.121 32.6961 22.7906 34.0306 22.5185 34.9957C22.2918 35.8054 22.0974 36.4403 21.7412 37.5609C21.5857 38.0534 21.4498 38.4614 21.4432 38.4614C21.4368 38.4614 21.3979 38.4549 21.359 38.442C19.4351 38.0921 17.712 37.6063 16.0925 36.9585C15.639 36.7771 14.9912 36.4856 14.9523 36.4532C14.9394 36.4401 15.3281 36.2589 15.8204 36.0451C18.7679 34.756 21.8255 33.2919 22.8748 32.6637C22.9979 32.5859 23.0951 32.5471 23.1146 32.5471ZM8.33841 33.0524C8.35137 33.0653 7.52867 34.2508 6.37554 35.8638C5.97394 36.4274 5.50754 37.0881 5.33267 37.3342C5.15774 37.5804 4.89218 37.9691 4.74317 38.2023L4.47098 38.6234L4.17946 38.3773C3.83611 38.0922 3.24022 37.4833 2.97462 37.1464C2.41748 36.4533 2.04183 35.7213 1.89283 35.0542C1.82156 34.7432 1.82156 34.5876 1.88626 34.5683C1.9834 34.5424 3.71303 34.1343 5.33261 33.7585C6.23305 33.5512 7.27592 33.3051 7.65165 33.2144C8.02741 33.1236 8.33196 33.0524 8.33841 33.0524ZM9.16754 33.3698L9.37477 33.603C10.3077 34.646 11.2599 35.417 12.413 36.0905C12.6203 36.2072 12.7758 36.3108 12.7627 36.3174C12.7175 36.3497 8.7594 37.7553 6.92617 38.3902C5.89624 38.7529 5.04757 39.0444 5.04118 39.0444C5.03473 39.0444 4.97639 39.0056 4.9115 38.9602L4.79497 38.876L4.98281 38.604C5.59169 37.7229 6.35621 36.7578 8.02102 34.7496L9.16754 33.3698ZM14.337 37.0686C14.3434 37.0622 14.6284 37.1658 14.9782 37.2955C15.8204 37.6129 16.4875 37.8136 17.3816 38.0404C18.4829 38.319 20.0764 38.5911 21.0157 38.6688C21.1583 38.6817 21.236 38.6947 21.2101 38.7141C21.1646 38.7401 20.2125 39.0575 19.5128 39.2777C18.3986 39.6275 14.9977 40.6315 12.2252 41.4284C11.7134 41.5773 11.2729 41.7004 11.247 41.7069C11.1823 41.7199 10.9684 41.6615 10.9684 41.6356C10.9684 41.6227 11.1239 41.4219 11.3118 41.2016C12.2445 40.0874 13.171 38.8437 13.9418 37.6647C14.1555 37.3407 14.337 37.0751 14.337 37.0686ZM13.1968 37.1011C13.2032 37.1076 12.7434 37.846 11.9402 39.1157C11.5968 39.6533 11.2146 40.2623 11.0785 40.476C10.9489 40.6833 10.7546 41.0073 10.6445 41.1886L10.4566 41.519L10.3595 41.4931C10.1262 41.4283 8.48735 40.8517 8.05331 40.6769C7.51561 40.4631 6.95852 40.204 6.5439 39.9838C6.02574 39.7052 5.37799 39.2905 5.42976 39.2777C5.44269 39.2712 6.33019 39.0314 7.39899 38.74C10.2364 37.969 11.8105 37.5221 12.8405 37.1982C13.0284 37.1399 13.1903 37.0945 13.1968 37.1011ZM21.2618 38.9926H21.2683C21.2942 39.0574 20.2449 41.9725 19.8625 42.8923C19.7784 43.0996 19.7461 43.1515 19.7007 43.1449C19.5905 43.1385 18.0683 42.9247 17.1418 42.7887C15.5289 42.5425 12.8211 42.0695 12.141 41.9142L11.9855 41.8818L12.9506 41.6614C15.0236 41.195 16.0212 40.9424 17.0317 40.6315C18.3079 40.2428 19.5712 39.7569 20.8472 39.161C21.048 39.0703 21.2165 38.999 21.2618 38.9926Z" fill="url(#paint0_linear)"/>
<path d="M16.4479 0.68832C16.3054 0.668993 14.0056 1.49815 12.5222 2.10053C10.5205 2.91684 8.9659 3.69424 8.00712 4.36779C7.6509 4.62054 7.20383 5.06746 7.13267 5.24233C7.10677 5.30712 7.09375 5.38485 7.09375 5.46258L7.96184 6.28529L10.0282 6.94603L14.945 7.82705L20.5678 8.79228L20.6261 8.30644C20.6068 8.30644 20.5937 8.29999 20.5745 8.29999L19.8358 8.18333L19.6869 7.91777C18.9225 6.57033 18.0803 4.89901 17.5881 3.77184C17.2059 2.89731 16.8431 1.88685 16.6422 1.16129C16.5321 0.720791 16.5192 0.694892 16.448 0.688439V0.68829H16.4479V0.68832ZM16.3441 1.0188H16.3508C16.3571 1.02519 16.3831 1.20669 16.409 1.42034C16.5191 2.32738 16.72 3.20176 17.0374 4.14758C17.277 4.86018 17.277 4.82134 16.9985 4.73707C16.3378 4.55575 13.3774 4.04398 11.2332 3.746C10.8898 3.70063 10.5983 3.65531 10.5983 3.64886C10.5724 3.62296 12.1465 2.80019 12.8397 2.47638C13.7271 2.06817 16.1628 1.05115 16.3441 1.0188ZM10.0994 3.92088L10.3522 4.005C11.7254 4.47148 15.1781 5.13225 17.0827 5.28771C17.2964 5.30715 17.4779 5.32663 17.4842 5.32663C17.4907 5.33308 17.3094 5.43026 17.0761 5.54034C16.1564 6.00028 15.1458 6.56388 14.4461 6.99792C14.2389 7.12741 14.051 7.23113 14.0251 7.23113C13.9992 7.23113 13.8632 7.2052 13.7207 7.18575L13.4616 7.14683L12.8139 6.51196C11.6737 5.4043 10.7797 4.54924 10.4364 4.22527L10.0994 3.92088ZM9.84041 4.12165L10.7538 5.26181C11.2525 5.89017 11.7578 6.50554 11.868 6.64151C11.9781 6.77764 12.0688 6.88781 12.0624 6.89426C12.0364 6.91368 10.7409 6.66099 10.0542 6.5056C9.34808 6.3436 9.05659 6.26587 8.62258 6.12989L8.26626 6.01324V5.92249C8.27271 5.48845 8.82341 4.8407 9.7562 4.18002L9.84041 4.12165ZM17.6009 5.67637C17.6269 5.67637 17.6592 5.73465 17.7369 5.90956C17.9572 6.39537 18.6439 7.70398 18.8122 7.95658C18.8642 8.04088 18.9547 8.04733 18.0415 7.89832C15.8455 7.54195 15.1393 7.42548 15.1393 7.41251C15.1393 7.40606 15.2041 7.36069 15.2883 7.31531C15.9685 6.93967 16.6551 6.46025 17.2641 5.94848C17.4131 5.82538 17.5492 5.70879 17.575 5.68931C17.5815 5.67637 17.5945 5.66992 17.6009 5.67637Z" fill="url(#paint1_linear)"/>
<path d="M7.17853 5.15186C7.17853 5.15186 7.0361 5.37867 7.17211 5.71554C7.25641 5.92277 7.50252 6.17537 7.78102 6.43454C7.78102 6.43454 10.6637 9.24593 11.0135 9.64762C12.607 11.4873 13.3002 13.3011 13.365 15.8016C13.4039 17.4082 13.0993 18.8203 12.3415 20.4593C10.994 23.4003 8.15018 26.6458 3.76465 30.2475L4.40606 30.0337C4.82063 29.7227 5.38423 29.3924 6.70568 28.6669C9.75674 26.9955 13.1901 25.4602 17.4008 23.8796C23.4639 21.5993 33.4336 18.9304 39.1082 18.0624L39.6977 17.9717L39.607 17.8292C39.0889 17.0259 38.7325 16.5271 38.3049 15.9959C37.0612 14.4542 35.5519 13.204 33.7056 12.1675C31.1663 10.7489 27.8819 9.64117 23.7231 8.81846C22.9393 8.66291 21.2162 8.36497 19.817 8.1512C16.85 7.69138 14.9326 7.3739 12.8208 7.01113C12.063 6.88151 10.9292 6.68723 10.1778 6.52532C9.78912 6.44102 9.04423 6.26615 8.46121 6.06535C7.99482 5.88387 7.32105 5.70249 7.17853 5.15186ZM8.84994 6.77141C8.85633 6.76501 8.95996 6.80376 9.09608 6.84913C9.34223 6.93325 9.65962 7.03046 10.0354 7.13417C10.3198 7.21238 10.6048 7.28795 10.8905 7.36087C11.2792 7.45799 11.603 7.54871 11.6095 7.54871C11.6549 7.59408 12.3092 9.6863 12.5294 10.4896C12.6135 10.7941 12.6784 11.0532 12.672 11.0532C12.6653 11.0598 12.5941 10.9496 12.51 10.8006C11.752 9.46611 10.5536 8.11225 9.1673 7.02391C8.98601 6.89448 8.84994 6.77786 8.84994 6.77141ZM12.0371 7.6524C12.0695 7.6524 12.212 7.67184 12.3868 7.71068C13.4881 7.95682 15.4639 8.33256 16.727 8.54635C16.9408 8.5787 17.1093 8.61765 17.1093 8.63053C17.1093 8.64355 17.0315 8.68881 16.9343 8.7407C16.7206 8.85078 15.859 9.36249 15.574 9.55687C14.8549 10.0362 14.2072 10.5544 13.7407 11.0208C13.5529 11.2087 13.3909 11.3642 13.3909 11.3642C13.3909 11.3642 13.3521 11.2541 13.3196 11.118C13.0865 10.2175 12.6006 8.88307 12.1601 7.94383C12.0888 7.79489 12.0305 7.65882 12.0305 7.64591C12.0305 7.65885 12.0305 7.6524 12.0371 7.6524ZM17.6469 8.72125C17.6858 8.73416 17.7506 8.95443 17.8801 9.44024C18.1198 10.3796 18.23 11.429 18.1911 12.4072C18.1781 12.6793 18.1652 12.9319 18.1521 12.9643L18.1327 13.029L17.7959 12.9189C17.1028 12.6987 15.9756 12.3683 15.0105 12.0962C14.4598 11.9472 14.0129 11.8112 14.0129 11.7983C14.0129 11.7593 14.8162 10.9561 15.1595 10.6517C15.8136 10.0751 17.5886 8.70177 17.6469 8.72125ZM18.0939 8.78595C18.1134 8.76663 20.7758 9.22645 21.9872 9.45969C22.8876 9.63456 24.1961 9.90667 24.2738 9.93911C24.3127 9.95201 24.1766 10.0297 23.7426 10.2241C22.0325 10.995 20.7627 11.688 19.4997 12.5303C19.1693 12.7505 18.8907 12.9319 18.8842 12.9319C18.8778 12.9319 18.8713 12.744 18.8713 12.5173C18.8713 11.2865 18.6251 10.0427 18.1716 8.99333C18.1263 8.88967 18.0874 8.79253 18.0939 8.78595ZM24.9799 10.1464C24.9994 10.1658 24.9151 10.6906 24.8374 11.0015C24.6042 11.9667 23.9759 13.3984 23.2051 14.7457C23.0689 14.9854 22.9459 15.1798 22.9328 15.1862C22.92 15.1927 22.7451 15.0955 22.5442 14.9789C21.7928 14.5384 20.9377 14.1238 20.0049 13.7351C19.7458 13.625 19.5191 13.5343 19.5126 13.5214C19.4671 13.4825 21.5531 12.1027 22.6543 11.4419C23.5289 10.9108 24.954 10.1204 24.9799 10.1464ZM25.4722 10.2241C25.5305 10.2241 26.7095 10.548 27.3248 10.7294C28.8472 11.1829 30.5962 11.8242 31.7363 12.3424L32.2091 12.5562L31.8789 12.6339C29.0934 13.2752 26.7095 14.0138 24.4098 14.9466C24.222 15.0243 24.0535 15.0891 24.0407 15.0891C24.0277 15.0891 24.0925 14.9401 24.1767 14.7587C24.8698 13.2882 25.3168 11.7529 25.4268 10.4443C25.4334 10.3212 25.4527 10.2241 25.4722 10.2241ZM13.7343 12.9189C13.7537 12.8995 14.6541 13.1133 15.14 13.2492C15.8784 13.4566 17.446 13.9812 17.446 14.0202C17.446 14.0266 17.2712 14.1756 17.064 14.3571C16.2154 15.0631 15.3991 15.808 14.4209 16.7538C14.1293 17.0325 13.8833 17.2592 13.8703 17.2592C13.8573 17.2592 13.851 17.2202 13.8573 17.1684C14.0063 16.0801 13.974 14.6809 13.7667 13.2622C13.7472 13.0808 13.7278 12.9254 13.7343 12.9189ZM32.6563 12.9384C32.6691 12.9513 32.2416 13.625 31.9696 14.0072C31.581 14.5642 31.0108 15.3029 29.7217 16.9223C29.0416 17.7773 28.2771 18.7426 28.0246 19.0665C27.7653 19.3904 27.5517 19.6624 27.5451 19.6624C27.5386 19.6624 27.4545 19.5459 27.3638 19.4034C26.6382 18.315 25.7701 17.3628 24.7401 16.5077C24.5458 16.3457 24.3321 16.1708 24.2609 16.119C24.1896 16.0672 24.1313 16.0153 24.1313 16.0089C24.1313 15.9895 25.2324 15.5165 26.0682 15.1797C27.5322 14.5837 29.5272 13.8712 31.0238 13.4112C31.8076 13.1651 32.6433 12.9254 32.6563 12.9384ZM33.155 13.0679C33.1809 13.0615 33.3364 13.1392 33.5243 13.2492C35.0985 14.1497 36.6401 15.3093 37.8581 16.5012C38.2014 16.8381 39.05 17.7191 39.0369 17.7256C39.0369 17.7256 38.739 17.7515 38.3892 17.7773C35.662 17.9847 32.1705 18.5611 28.8149 19.3709C28.5882 19.4226 28.3874 19.468 28.3744 19.468C28.3615 19.468 28.6141 19.2154 28.9316 18.911C30.9008 17.013 31.8013 15.8145 32.8636 13.6768C33.0125 13.3594 33.1421 13.0874 33.155 13.0679C33.1486 13.0679 33.1486 13.0679 33.155 13.0679ZM18.7287 14.545C18.8194 14.5643 19.6616 14.9596 20.2964 15.2769C20.8794 15.5683 21.754 16.0348 21.7993 16.0736C21.8057 16.0801 21.4947 16.242 21.1127 16.4299C19.8948 17.0389 18.8519 17.6153 17.7635 18.2761C17.4526 18.464 17.1935 18.6195 17.187 18.6195C17.1611 18.6195 17.1675 18.5935 17.3425 18.2761C17.9255 17.2138 18.3919 15.9441 18.6575 14.7068C18.6834 14.6097 18.7093 14.545 18.7287 14.545ZM17.8865 14.7003C17.906 14.7198 17.6858 15.5165 17.5498 15.9506C17.2841 16.7733 16.8372 17.8033 16.4032 18.5806C16.2994 18.7619 16.144 19.0275 16.0598 19.1765L15.8979 19.4356L15.5351 19.0859C15.1141 18.6778 14.7707 18.4251 14.3303 18.1983C14.1553 18.1077 14.0193 18.0299 14.0193 18.0171C14.0193 17.9652 15.127 16.9612 15.9756 16.2356C16.5845 15.7109 17.8672 14.6809 17.8865 14.7003ZM23.0366 16.8187L23.3541 17.0259C24.0794 17.4989 24.9345 18.1272 25.5889 18.6778C25.958 18.9822 26.6706 19.6236 26.8132 19.779L26.8908 19.8633L26.3662 20.0123C23.3993 20.8349 21.1061 21.5669 18.4307 22.5516C18.1327 22.6617 17.8801 22.7524 17.8606 22.7524C17.8219 22.7524 17.7894 22.7847 18.4567 22.1693C20.1669 20.5953 21.6826 18.8591 22.8098 17.1684L23.0366 16.8187ZM21.6827 17.1555C21.6956 17.1684 20.8082 18.4186 20.2769 19.1247C19.6421 19.9669 18.5149 21.379 17.7376 22.2988C17.4138 22.6811 17.1353 22.9985 17.1222 23.005C17.1028 23.0115 17.0963 22.9143 17.0963 22.7653C17.0963 21.9814 16.8955 21.1458 16.5457 20.4333C16.3967 20.1353 16.3707 20.064 16.4032 20.0317C16.5263 19.9215 18.4113 18.8462 19.6032 18.2049C20.4065 17.7774 21.6631 17.1425 21.6827 17.1555ZM13.4945 19.1637C13.514 19.1637 13.663 19.2413 13.8315 19.3321C14.246 19.5588 14.6153 19.8114 14.9456 20.0836C14.9585 20.0965 14.7902 20.2326 14.5699 20.3944C13.9545 20.8349 13.0217 21.541 12.4776 21.9751C11.9074 22.4285 11.8881 22.4415 11.9528 22.3443C12.3804 21.69 12.5941 21.3208 12.8209 20.848C13.0217 20.4269 13.2225 19.9281 13.365 19.4941C13.4168 19.3062 13.4816 19.1637 13.4945 19.1637ZM15.6777 20.8738C15.71 20.8674 15.7489 20.9256 15.9238 21.1848C16.293 21.7353 16.578 22.4739 16.6494 23.0698L16.6622 23.1995L15.7749 23.5428C14.1877 24.1581 12.7238 24.7671 11.7325 25.2205C11.454 25.3501 10.9682 25.5833 10.6508 25.7388C10.3334 25.9007 10.0742 26.0238 10.0742 26.0173C10.0742 26.0109 10.275 25.8619 10.5212 25.6804C12.4582 24.2748 14.1359 22.733 15.3926 21.1913C15.5287 21.0293 15.6518 20.8803 15.6646 20.8738L15.6777 20.8738ZM14.6736 21.12C14.6995 21.1459 13.9611 21.9815 13.4558 22.4932C12.2055 23.7695 10.9682 24.7671 9.43292 25.7388C9.2386 25.8619 9.06373 25.972 9.04426 25.985C8.99888 26.0109 9.05716 25.9461 9.7309 25.214C10.1585 24.7541 10.4823 24.3654 10.8516 23.8861C11.0977 23.5688 11.1431 23.5234 11.4995 23.2706C12.4517 22.584 14.6477 21.094 14.6736 21.12Z" fill="url(#paint2_radial)"/>
<defs>
<linearGradient id="paint0_linear" x1="7.04641" y1="39.2502" x2="10.1454" y2="37.4191" gradientUnits="userSpaceOnUse">
<stop stop-color="#909CA9"/>
<stop offset="1" stop-color="#EDEDEE"/>
</linearGradient>
<linearGradient id="paint1_linear" x1="7.11648" y1="4.72763" x2="9.61003" y2="4.72763" gradientUnits="userSpaceOnUse">
<stop stop-color="#939FAB"/>
<stop offset="1" stop-color="#DCDEE1"/>
</linearGradient>
<radialGradient id="paint2_radial" cx="0" cy="0" r="1" gradientUnits="userSpaceOnUse" gradientTransform="translate(19.6996 16.164) rotate(-171.457) scale(3.21488 6.43135)">
<stop stop-color="#EE352C"/>
<stop offset="1" stop-color="#A91D22"/>
</radialGradient>
</defs>
</svg>
