<svg width="84" height="44" viewBox="0 0 84 44" fill="none" xmlns="http://www.w3.org/2000/svg">
<path fill-rule="evenodd" clip-rule="evenodd" d="M0.917975 39.6422H3.63279V28.8866L7.87205 38.2641C8.35252 39.3916 9.04179 39.8092 10.3781 39.8092C11.7148 39.8092 12.3624 39.3916 12.8635 38.2641L17.0821 28.8866V39.6422H19.818V28.8866C19.818 27.8426 19.4004 27.3415 18.523 27.0703C16.4557 26.4439 15.0772 26.9868 14.4508 28.386L10.2946 37.6589L6.28472 28.386C5.67897 26.9868 4.27932 26.4439 2.19088 27.0703C1.33458 27.342 0.916992 27.8426 0.916992 28.8866V39.6422H0.917975ZM22.074 30.892H24.8094V36.8016C24.7888 37.1367 24.9141 37.8878 26.3963 37.9089C27.1691 37.9301 32.2857 37.9089 32.3275 37.9089V30.8497H35.0634V40.5201C35.0634 42.9008 32.1187 43.4226 30.7407 43.4437H22.1364V41.6265H30.7618C32.5162 41.4383 32.3074 40.5614 32.3074 40.2686V39.5587H26.522C23.8279 39.5385 22.0946 38.3477 22.074 36.9898C22.074 36.865 22.1364 30.9333 22.074 30.892ZM80.7599 24.0416C79.0895 23.9998 77.794 24.1668 76.7078 24.6262C76.3949 24.752 75.8933 24.752 75.852 25.1479C76.019 25.316 76.0402 25.5866 76.1861 25.8166C76.4366 26.2342 76.8749 26.7981 77.2723 27.0909C77.711 27.425 78.1492 27.7586 78.6091 28.0514C79.4236 28.5525 80.3418 28.8448 81.1357 29.3459C81.5956 29.6387 82.0549 30.0146 82.5148 30.3275C82.7442 30.4945 82.8911 30.7662 83.1824 30.8704V30.808C83.0365 30.6198 82.9952 30.3481 82.8483 30.1393C82.64 29.931 82.4307 29.7429 82.222 29.5341C81.6167 28.7195 80.865 28.0092 80.0505 27.425C79.3819 26.9652 77.9203 26.3388 77.6486 25.5655L77.6064 25.5243C78.0662 25.483 78.6091 25.3159 79.0478 25.1902C79.7577 25.002 80.4057 25.0433 81.1357 24.8561C81.4726 24.7679 81.807 24.6703 82.1384 24.5633V24.3751C81.7621 23.9993 81.4919 23.4977 81.0945 23.143C80.0294 22.2243 78.8596 21.3263 77.6486 20.5741C77.0011 20.1565 76.165 19.8848 75.4762 19.5301C75.2256 19.4049 74.8085 19.342 74.6616 19.1332C74.2853 18.6733 74.0775 18.0681 73.8058 17.5252C73.2006 16.3766 72.615 15.1027 72.0932 13.8917C71.7169 13.0772 71.488 12.2626 71.0281 11.511C68.8768 7.96048 66.5373 5.80966 62.9461 3.7001C62.1728 3.26139 61.2546 3.07372 60.273 2.8438C59.7513 2.82316 59.229 2.7814 58.7063 2.76028C58.3722 2.61388 58.0387 2.21741 57.7459 2.02925C56.556 1.27759 53.4855 -0.351492 52.6085 1.79983C52.0446 3.15723 53.4442 4.49352 53.9242 5.18328C54.2794 5.66375 54.7387 6.20661 54.9893 6.74948C55.1352 7.10418 55.1775 7.4805 55.3234 7.85633C55.6584 8.77503 55.9709 9.79836 56.4096 10.6547C56.64 11.0934 56.8905 11.5527 57.1829 11.9492C57.3499 12.1791 57.6417 12.2833 57.7046 12.6596C57.4118 13.0772 57.3907 13.7036 57.2236 14.2258C56.4725 16.5859 56.7638 19.5095 57.8289 21.2432C58.1639 21.7655 58.9574 22.9141 60.0225 22.4754C60.9618 22.0995 60.7525 20.9092 61.0242 19.8652C61.0876 19.6141 61.0453 19.4471 61.1711 19.2806V19.3223C61.4639 19.9069 61.7552 20.4709 62.0269 21.0556C62.6744 22.0789 63.8019 23.144 64.7422 23.8539C65.2433 24.2297 65.6403 24.8772 66.2671 25.1072V25.0438H66.2249C66.0991 24.8566 65.9119 24.7721 65.7449 24.6262C65.3686 24.2504 64.9505 23.7905 64.6587 23.3734C63.7808 22.2037 63.0085 20.9087 62.3192 19.5724C61.9851 18.9254 61.6928 18.215 61.4211 17.5675C61.2954 17.3169 61.2954 16.9411 61.0871 16.8158C60.7731 17.2752 60.3138 17.6721 60.0844 18.2356C59.6879 19.1337 59.6456 20.2405 59.5002 21.3891C59.4157 21.4098 59.458 21.3891 59.4157 21.4309C58.7481 21.2639 58.5187 20.5746 58.2671 19.99C57.6407 18.5068 57.5371 16.1261 58.0799 14.4139C58.2258 13.9752 58.8522 12.5967 58.6017 12.1791C58.4759 11.7822 58.0588 11.5527 57.8284 11.2393C57.5567 10.8423 57.2654 10.3412 57.0772 9.90252C56.5756 8.73327 56.3251 7.43825 55.7817 6.26851C55.5312 5.72565 55.093 5.16166 54.7378 4.66055C54.3413 4.09656 53.9021 3.69961 53.5891 3.03147C53.4845 2.80155 53.3386 2.42572 53.5056 2.17516C53.5479 2.00813 53.6304 1.94524 53.7984 1.90398C54.0701 1.67406 54.8424 1.96637 55.1141 2.09165C55.8864 2.40508 56.5344 2.6969 57.1819 3.13562C57.4737 3.34441 57.7871 3.74137 58.1635 3.84601H58.6022C59.2698 3.99192 60.0225 3.88777 60.6488 4.07544C61.7552 4.43014 62.7579 4.95286 63.656 5.51636C66.3914 7.2496 68.6474 9.71436 70.1723 12.6591C70.4229 13.1396 70.5275 13.5778 70.7564 14.0794C71.1952 15.1027 71.738 16.1467 72.1768 17.1494C72.6155 18.131 73.0325 19.1332 73.6594 19.9477C73.9734 20.3864 75.2261 20.6159 75.7896 20.8458C76.2082 21.0335 76.8557 21.201 77.231 21.4304C77.9409 21.8691 78.6513 22.3702 79.32 22.8507C79.6525 23.1018 80.6965 23.624 80.7599 24.0416Z" fill="#00678C"/>
<path fill-rule="evenodd" clip-rule="evenodd" d="M59.457 5.89258C59.1018 5.89258 58.8517 5.93434 58.6012 5.99673V6.03849H58.6424C58.8095 6.37256 59.1023 6.60199 59.3101 6.89479C59.4781 7.22886 59.624 7.56293 59.7911 7.89749L59.8333 7.85574C60.1261 7.64645 60.272 7.31287 60.272 6.81127C60.1463 6.66487 60.1261 6.51896 60.0215 6.37256C59.8952 6.16426 59.6235 6.0601 59.457 5.89258ZM37.1523 39.6421H45.0045C45.9237 39.6421 46.8006 39.4549 47.511 39.1204C48.7019 38.5775 49.2659 37.847 49.2659 36.8855V34.8811C49.2659 34.1088 48.6183 33.3773 47.3228 32.8757C46.6552 32.6251 45.819 32.4792 45.0045 32.4792H41.705C40.5982 32.4792 40.076 32.1452 39.9296 31.4141C39.9089 31.3306 39.9089 31.2471 39.9089 31.1636V29.9314C39.9089 29.8681 39.9089 29.7845 39.9296 29.701C40.076 29.137 40.3683 28.9911 41.3292 28.8865H49.3695V27.0702H41.7257C40.6188 27.0702 40.0342 27.1326 39.512 27.2996C37.904 27.8008 37.1936 28.5952 37.1936 29.9938V31.5807C37.1936 32.8128 38.5721 33.8568 40.9111 34.1083C41.1617 34.1284 41.4334 34.1284 41.705 34.1284H44.5245C44.6291 34.1284 44.7328 34.1284 44.8173 34.1496C45.6731 34.2331 46.0494 34.38 46.3 34.6924C46.467 34.8595 46.5083 35.0064 46.5083 35.1935V36.7814C46.5083 36.9685 46.3835 37.2201 46.133 37.4279C45.8824 37.6372 45.4854 37.7831 44.9632 37.8042C44.8586 37.8042 44.7962 37.8253 44.6915 37.8253H37.1523V39.6421ZM66.2656 36.4891C66.2656 38.3476 67.6648 39.3915 70.4627 39.6008C70.7343 39.6219 70.9854 39.6421 71.2561 39.6421H78.3575V37.8258H71.1937C69.6068 37.8258 69.0011 37.4284 69.0011 36.4679V27.0702H66.2656V36.4891ZM50.9986 36.5721V30.098C50.9986 28.4478 52.1683 27.4451 54.4444 27.1321C54.695 27.111 54.946 27.0909 55.1755 27.0909H60.3551C60.6267 27.0909 60.8562 27.111 61.1273 27.1321C63.4044 27.4451 64.553 28.4478 64.553 30.098V36.5721C64.553 37.9089 64.0721 38.6188 62.9451 39.0997L65.6181 41.5217H62.4641L60.2927 39.5586L58.0991 39.6843H55.1755C54.6398 39.6818 54.1066 39.6115 53.5886 39.4751C51.8544 38.9951 50.9986 38.0759 50.9986 36.5721ZM53.9433 36.4267C53.9433 36.5102 53.9846 36.5937 54.0057 36.6983C54.1526 37.4495 54.8625 37.8671 55.9478 37.8671H58.413L56.1571 35.8204H59.3101L61.2944 37.6165C61.6707 37.4073 61.9006 37.1154 61.9841 36.7396C62.0043 36.6561 62.0043 36.5514 62.0043 36.4679V30.2655C62.0043 30.182 62.0043 30.0985 61.9841 30.015C61.8372 29.3051 61.1273 28.9076 60.0622 28.9076H55.9478C54.7368 28.9076 53.9433 29.4293 53.9433 30.2655V36.4267ZM79.6108 39.6627H80.0073V38.1378H80.529V37.8248H79.0674V38.1378H79.6103V39.6627H79.6108ZM82.6391 39.6627H83.0144V37.8253H82.4514L81.9915 39.0786L81.4904 37.8253H80.9466V39.6627H81.3028V38.2636H81.3229L81.8447 39.6627H82.1163L82.6391 38.2636V39.6627Z" fill="#CE8B2C"/>
</svg>
