<svg width="105" height="14" viewBox="0 0 105 14" fill="none" xmlns="http://www.w3.org/2000/svg">
<path d="M45.1481 9.07487H52.0496L48.4003 3.15724L41.7027 13.8566H38.6544L46.801 1.00439C47.1552 0.485112 47.7455 0.171387 48.4003 0.171387C49.0335 0.171387 49.6238 0.474295 49.9673 0.982754L58.1461 13.8566H55.0979L53.6596 11.4657H46.6722L45.1481 9.07487ZM76.8113 11.4657V0.301206H74.2245V12.5584C74.2245 12.8938 74.3534 13.2183 74.6002 13.4671C74.8471 13.7159 75.1798 13.8566 75.5447 13.8566H87.3406L88.8648 11.4657H76.8113ZM34.0177 9.46434C36.5293 9.46434 38.5686 7.41968 38.5686 4.88818C38.5686 2.3567 36.5293 0.301206 34.0177 0.301206H22.7015V13.8566H25.2872V2.69206H33.8459C35.0481 2.69206 36.0141 3.67653 36.0141 4.88818C36.0141 6.09984 35.0481 7.08431 33.8459 7.08431L26.5538 7.07348L34.2752 13.8566H38.0319L32.837 9.46434H34.0177ZM6.78414 13.8566C3.07146 13.8566 0.0585938 10.8275 0.0585938 7.08431C0.0585938 3.34116 3.07146 0.301206 6.78414 0.301206H14.6011C18.3148 0.301206 21.3255 3.34116 21.3255 7.08431C21.3255 10.8275 18.3148 13.8566 14.6011 13.8566H6.78414ZM14.4272 11.4657C16.8326 11.4657 18.7807 9.50761 18.7807 7.08431C18.7807 4.661 16.8326 2.69206 14.4272 2.69206H6.9569C4.55265 2.69206 2.60344 4.661 2.60344 7.08431C2.60344 9.50761 4.55265 11.4657 6.9569 11.4657H14.4272ZM63.5449 13.8566C59.8312 13.8566 56.8152 10.8275 56.8152 7.08431C56.8152 3.34116 59.8312 0.301206 63.5449 0.301206H72.8292L71.3158 2.69206H63.7166C61.3124 2.69206 59.359 4.661 59.359 7.08431C59.359 9.50761 61.3124 11.4657 63.7166 11.4657H73.0438L71.5198 13.8566H63.5449ZM95.1759 11.4657C93.1902 11.4657 91.5051 10.1243 90.9899 8.27431H102.045L103.569 5.88346H90.9899C91.5051 4.04435 93.1902 2.69206 95.1759 2.69206H102.764L104.299 0.301206H95.0042C91.2905 0.301206 88.2744 3.34116 88.2744 7.08431C88.2744 10.8275 91.2905 13.8566 95.0042 13.8566H102.979L104.503 11.4657H95.1759Z" fill="#F80000"/>
</svg>
