<svg width="124" height="35" viewBox="0 0 124 35" fill="none" xmlns="http://www.w3.org/2000/svg">
<g clip-path="url(#clip0)">
<path d="M25.593 25.4823C25.8091 23.682 25.7444 23.418 27.0853 23.7096L27.4258 23.7395C28.4569 23.7864 29.8056 23.5737 30.598 23.2055C32.3038 22.414 33.3153 21.0925 31.6333 21.4398C27.7966 22.2313 27.5329 20.9321 27.5329 20.9321C31.5842 14.921 33.2778 7.29039 31.8159 5.42258C27.8288 0.327867 20.927 2.73704 20.8115 2.79959L20.7748 2.80638C20.0167 2.64909 19.1683 2.55511 18.2153 2.5397C16.479 2.51117 15.1616 2.99487 14.1622 3.75287C14.1622 3.75287 1.84991 -1.31964 2.4227 10.1321C2.54452 12.5682 5.91461 28.5657 9.93406 23.7337C11.4032 21.9668 12.8229 20.4728 12.8229 20.4728C13.5279 20.9412 14.3719 21.1801 15.2572 21.0943L15.3256 21.0359C15.3042 21.2553 15.3136 21.4699 15.353 21.7239C14.3177 22.8809 14.6219 23.084 12.5517 23.5101C10.4573 23.9418 11.6878 24.7103 12.4909 24.9112C13.4649 25.1547 15.718 25.4997 17.2408 23.3685L17.1801 23.6116C17.5863 23.9366 17.5589 25.9473 17.6164 27.3839C17.6741 28.8205 17.7703 30.1612 18.0631 30.9516C18.356 31.7419 18.7015 33.7778 21.4222 33.1947C23.6961 32.7074 25.4346 32.0061 25.593 25.4822" fill="black"/>
<path d="M25.593 25.4823C25.8091 23.682 25.7444 23.418 27.0853 23.7096L27.4258 23.7395C28.4569 23.7864 29.8056 23.5737 30.5981 23.2055C32.3038 22.414 33.3153 21.0925 31.6333 21.4398C27.7966 22.2313 27.5329 20.9321 27.5329 20.9321C31.5842 14.921 33.2778 7.29039 31.8159 5.42258C27.8288 0.327867 20.927 2.73704 20.8115 2.79959L20.7748 2.80638C20.0167 2.64909 19.1683 2.55511 18.2153 2.5397C16.479 2.51117 15.1616 2.99487 14.1622 3.75287C14.1622 3.75287 1.84991 -1.31964 2.4227 10.1321C2.54452 12.5682 5.91461 28.5657 9.93406 23.7337C11.4032 21.9668 12.8229 20.4728 12.8229 20.4728C13.5279 20.9412 14.3719 21.1801 15.2572 21.0943L15.3256 21.0359C15.3042 21.2553 15.3136 21.4699 15.353 21.7239C14.3177 22.8809 14.6219 23.084 12.5517 23.5101C10.4573 23.9418 11.6878 24.7103 12.4909 24.9112C13.4649 25.1547 15.718 25.4997 17.2408 23.3685L17.1801 23.6116C17.5863 23.9366 17.5589 25.9473 17.6164 27.3839C17.6741 28.8205 17.7703 30.1612 18.0631 30.9516C18.356 31.7419 18.7015 33.7778 21.4222 33.1947C23.6961 32.7074 25.4346 32.0061 25.593 25.4822" stroke="black" stroke-width="2.75066"/>
<path d="M31.6321 21.4397C27.7951 22.2312 27.5313 20.9321 27.5313 20.9321C31.5826 14.9206 33.2762 7.28981 31.8147 5.42223C27.8275 0.327824 20.9254 2.73715 20.8103 2.7997L20.7732 2.80634C20.0151 2.64897 19.1667 2.55522 18.2132 2.53966C16.477 2.51121 15.16 2.99483 14.1606 3.75268C14.1606 3.75268 1.8481 -1.31961 2.42074 10.132C2.54256 12.5683 5.91257 28.5658 9.93218 23.7338C11.4013 21.9669 12.8209 20.4729 12.8209 20.4729C13.5259 20.9413 14.37 21.1802 15.2548 21.0944L15.3235 21.0361C15.3022 21.2554 15.3119 21.47 15.3511 21.724C14.3156 22.881 14.6199 23.0841 12.5498 23.5102C10.4552 23.9419 11.6857 24.7104 12.4891 24.9113C13.4631 25.1548 15.7163 25.4998 17.2388 23.3686L17.1781 23.6117C17.5838 23.9367 17.8687 25.7256 17.821 27.3471C17.7732 28.9688 17.7413 30.0821 18.061 30.9517C18.3807 31.8213 18.6993 33.7779 21.4206 33.1948C23.6944 32.7075 24.8727 31.4448 25.0367 29.3384C25.153 27.841 25.4162 28.0623 25.4329 26.7235L25.644 26.0897C25.8875 24.0598 25.6827 23.4049 27.0836 23.7095L27.424 23.7394C28.4551 23.7864 29.8046 23.5736 30.5966 23.2055C32.3021 22.414 33.3136 21.0925 31.632 21.4397H31.6321Z" fill="#336791"/>
<path d="M17.4053 22.6055C17.2997 26.3826 17.4319 30.186 17.8014 31.1104C18.1713 32.0348 18.9627 33.8327 21.6841 33.2497C23.9578 32.7622 24.785 31.819 25.144 29.7369C25.4084 28.205 25.9181 23.9507 25.9835 23.079" stroke="white" stroke-width="0.916888" stroke-linecap="round" stroke-linejoin="round"/>
<path d="M14.1435 3.67004C14.1435 3.67004 1.82255 -1.36571 2.39535 10.0859C2.51717 12.5222 5.8874 28.5202 9.90694 23.688C11.3758 21.9209 12.7042 20.5349 12.7042 20.5349" stroke="white" stroke-width="0.916888" stroke-linecap="round" stroke-linejoin="round"/>
<path d="M20.7992 2.75107C20.3727 2.88479 27.6529 0.089715 31.7902 5.37643C33.2517 7.24408 31.5581 14.8748 27.5069 20.8865" stroke="white" stroke-width="0.916888" stroke-linecap="round" stroke-linejoin="round"/>
<path d="M27.5061 20.8862C27.5061 20.8862 27.7701 22.1857 31.6073 21.3937C33.2885 21.0464 32.2767 22.3681 30.5716 23.16C29.1723 23.8094 26.0349 23.9759 25.9836 23.0784C25.8518 20.7629 27.6349 21.4664 27.5062 20.8862C27.3899 20.3637 26.5924 19.8508 26.065 18.572C25.6045 17.4558 19.7492 8.89585 27.6887 10.1671C27.9796 10.107 25.618 2.6152 18.1878 2.49338C10.7592 2.37156 11.0029 11.6289 11.0029 11.6289" stroke="white" stroke-width="0.916888" stroke-linecap="round" stroke-linejoin="bevel"/>
<path d="M15.3265 21.6788C14.2909 22.8357 14.5954 23.0388 12.5253 23.4651C10.4307 23.8968 11.6613 24.6652 12.4645 24.866C13.4384 25.1097 15.6917 25.4547 17.2142 23.3229C17.6778 22.6738 17.2114 21.6382 16.5745 21.3742C16.2668 21.2467 15.8554 21.087 15.3265 21.6788V21.6788Z" stroke="white" stroke-width="0.916888" stroke-linecap="round" stroke-linejoin="round"/>
<path d="M15.2567 21.6581C15.1524 20.978 15.4802 20.1685 15.8316 19.2216C16.3596 17.8008 17.5779 16.3797 16.6033 11.8728C15.8769 8.51422 11.0046 11.1738 11.0016 11.6292C10.9986 12.0845 11.2219 13.9375 10.9202 16.0953C10.5264 18.911 12.7118 21.2925 15.2284 21.0488" stroke="white" stroke-width="0.916888" stroke-linecap="round" stroke-linejoin="round"/>
<path d="M14.0988 11.561C14.0768 11.7165 14.3835 12.1315 14.7835 12.187C15.1827 12.2427 15.5245 11.9183 15.5461 11.7629C15.5678 11.6074 15.2614 11.4361 14.8613 11.3804C14.4619 11.3246 14.12 11.4058 14.0988 11.561H14.0988Z" fill="white" stroke="white" stroke-width="0.305627"/>
<path d="M26.2604 11.244C26.2821 11.3996 25.9758 11.8146 25.5757 11.8701C25.1762 11.9257 24.8344 11.6014 24.8126 11.446C24.7914 11.2905 25.0978 11.1192 25.4975 11.0635C25.8971 11.0078 26.2388 11.0889 26.2604 11.2441V11.244Z" fill="white" stroke="white" stroke-width="0.152813"/>
<path d="M27.6897 10.1675C27.7555 11.3875 27.4269 12.2185 27.3854 13.5173C27.3241 15.4051 28.2855 17.5658 26.8369 19.7292" stroke="white" stroke-width="0.916888" stroke-linecap="round" stroke-linejoin="round"/>
</g>
<path d="M40.2158 17.9803V21.7436H38.6758V12.1306H42.983C44.2611 12.1306 45.261 12.3991 45.9829 12.9361C46.7101 13.4731 47.0737 14.1839 47.0737 15.0686C47.0737 16.0018 46.7181 16.7214 46.007 17.2276C45.3011 17.7294 44.2878 17.9803 42.967 17.9803H40.2158ZM40.2158 16.9437H42.983C43.8065 16.9437 44.4375 16.7852 44.876 16.4683C45.3145 16.147 45.5337 15.6848 45.5337 15.0818C45.5337 14.5096 45.3145 14.0519 44.876 13.7085C44.4375 13.3652 43.8359 13.187 43.0713 13.1738H40.2158V16.9437Z" fill="#FFFFFF"/>
<path d="M48.3009 18.1057C48.3009 17.4059 48.4667 16.7764 48.7982 16.2174C49.1351 15.6584 49.6003 15.2271 50.1939 14.9234C50.7928 14.6197 51.4746 14.4678 52.2392 14.4678C53.421 14.4678 54.3755 14.8045 55.1027 15.478C55.8353 16.1514 56.2016 17.0471 56.2016 18.1651V18.251C56.2016 18.9464 56.0385 19.5714 55.7123 20.126C55.3915 20.6762 54.9289 21.1054 54.3247 21.4135C53.7258 21.7216 53.036 21.8756 52.2553 21.8756C51.0789 21.8756 50.1244 21.5389 49.3918 20.8655C48.6646 20.192 48.3009 19.3007 48.3009 18.1915V18.1057ZM49.7928 18.251C49.7928 19.0432 50.0148 19.6793 50.4586 20.159C50.9078 20.6388 51.5067 20.8787 52.2553 20.8787C53.0093 20.8787 53.6082 20.6366 54.052 20.1524C54.4958 19.6639 54.7177 18.9816 54.7177 18.1057C54.7177 17.3222 54.4905 16.6884 54.0359 16.2042C53.5868 15.7157 52.9879 15.4714 52.2392 15.4714C51.5067 15.4714 50.9158 15.7113 50.4666 16.191C50.0174 16.6708 49.7928 17.3574 49.7928 18.251Z" fill="#FFFFFF"/>
<path d="M63.1157 19.8487C63.1157 19.5186 62.9633 19.2633 62.6585 19.0829C62.359 18.898 61.8323 18.7395 61.0784 18.6075C60.3297 18.4754 59.7335 18.317 59.2897 18.1321C58.8512 17.9472 58.525 17.7272 58.3111 17.4719C58.1026 17.2166 57.9983 16.9129 57.9983 16.5608C57.9983 15.9753 58.2978 15.4802 58.8967 15.0752C59.5009 14.6703 60.2709 14.4678 61.2067 14.4678C62.1906 14.4678 62.9873 14.6769 63.5969 15.095C64.2119 15.5132 64.5194 16.048 64.5194 16.6994H63.0275C63.0275 16.3649 62.8537 16.0766 62.5061 15.8345C62.1639 15.5924 61.7307 15.4714 61.2067 15.4714C60.6666 15.4714 60.2442 15.5682 59.9394 15.7619C59.6346 15.9555 59.4822 16.2086 59.4822 16.5211C59.4822 16.816 59.6239 17.0383 59.9073 17.188C60.1907 17.3376 60.7014 17.4807 61.4393 17.6171C62.1826 17.7536 62.7842 17.9164 63.244 18.1057C63.7039 18.295 64.0434 18.5239 64.2627 18.7923C64.4873 19.0564 64.5996 19.38 64.5996 19.7629C64.5996 20.4011 64.2894 20.9139 63.6691 21.3012C63.0488 21.6842 62.2441 21.8756 61.2548 21.8756C60.5597 21.8756 59.9447 21.7744 59.41 21.5719C58.8753 21.3695 58.4555 21.0878 58.1507 20.7268C57.8513 20.3615 57.7015 19.9676 57.7015 19.545H59.1854C59.2121 19.9544 59.41 20.2801 59.779 20.5222C60.1533 20.7598 60.6452 20.8787 61.2548 20.8787C61.8163 20.8787 62.2655 20.7863 62.6023 20.6014C62.9446 20.4121 63.1157 20.1612 63.1157 19.8487Z" fill="#FFFFFF"/>
<path d="M68.5459 12.87V14.5999H70.1661V15.544H68.5459V19.9742C68.5459 20.2603 68.6181 20.4759 68.7624 20.6212C68.9068 20.762 69.1528 20.8325 69.5004 20.8325C69.6715 20.8325 69.9068 20.8061 70.2062 20.7532V21.7436C69.8159 21.8316 69.4362 21.8756 69.0672 21.8756C68.4042 21.8756 67.9042 21.7106 67.5673 21.3805C67.2304 21.0504 67.062 20.5816 67.062 19.9742V15.544H65.4819V14.5999H67.062V12.87H68.5459Z" fill="#FFFFFF"/>
<path d="M71.5537 18.1123C71.5537 16.9987 71.8666 16.114 72.4922 15.4582C73.1178 14.7979 73.9467 14.4678 74.9787 14.4678C76.0375 14.4678 76.8636 14.7759 77.4572 15.3921L77.5294 14.5999H78.8849V21.5719C78.8849 22.4963 78.5507 23.2247 77.8823 23.7573C77.2192 24.2899 76.3262 24.5562 75.2033 24.5562C74.5777 24.5562 73.9654 24.4462 73.3665 24.2261C72.7676 24.006 72.3104 23.7045 71.9949 23.3216L72.7649 22.5887C73.4012 23.2357 74.1793 23.5592 75.099 23.5592C75.8209 23.5592 76.3824 23.392 76.7834 23.0575C77.1898 22.7229 77.393 22.252 77.393 21.6446V21.0305C76.7995 21.5939 75.9893 21.8756 74.9627 21.8756C73.9467 21.8756 73.1232 21.5389 72.4922 20.8655C71.8666 20.192 71.5537 19.2743 71.5537 18.1123ZM73.0456 18.251C73.0456 19.0564 73.2462 19.6903 73.6472 20.1524C74.0483 20.6102 74.6097 20.8391 75.3316 20.8391C76.2674 20.8391 76.9545 20.4892 77.393 19.7893V16.5277C76.9385 15.8455 76.2567 15.5044 75.3477 15.5044C74.6258 15.5044 74.0616 15.7355 73.6552 16.1976C73.2488 16.6598 73.0456 17.3442 73.0456 18.251Z" fill="#FFFFFF"/>
<path d="M85.3258 15.6958C85.1012 15.665 84.8579 15.6496 84.5958 15.6496C83.6226 15.6496 82.9622 15.9908 82.6147 16.673V21.7436H81.1308V14.5999H82.5746L82.5986 15.4252C83.0852 14.7869 83.775 14.4678 84.668 14.4678C84.9568 14.4678 85.176 14.4986 85.3258 14.5602V15.6958Z" fill="#FFFFFF"/>
<path d="M90.1383 21.8756C88.9619 21.8756 88.0048 21.5587 87.2668 20.9249C86.5289 20.2867 86.1599 19.435 86.1599 18.3698V18.1453C86.1599 17.4367 86.323 16.805 86.6492 16.2504C86.9808 15.6914 87.4406 15.2557 88.0288 14.9432C88.6224 14.6263 89.2641 14.4678 89.9539 14.4678C91.0821 14.4678 91.9591 14.7737 92.5847 15.3855C93.2104 15.9974 93.5232 16.8733 93.5232 18.0133V18.5217H87.6438C87.6652 19.2259 87.9139 19.7959 88.3898 20.2317C88.871 20.663 89.4806 20.8787 90.2185 20.8787C90.7426 20.8787 91.1864 20.7907 91.55 20.6146C91.9137 20.4385 92.2318 20.2053 92.5045 19.9147L93.4109 20.4958C92.6837 21.4157 91.5928 21.8756 90.1383 21.8756ZM89.9539 15.4714C89.355 15.4714 88.8523 15.6518 88.4459 16.0128C88.0395 16.3693 87.7882 16.8711 87.6919 17.5181H92.0393V17.4257C91.9965 16.805 91.7933 16.3253 91.4297 15.9864C91.0661 15.643 90.5741 15.4714 89.9539 15.4714Z" fill="#FFFFFF"/>
<path d="M98.9213 17.4587C97.6005 17.1462 96.638 16.7632 96.0338 16.3099C95.4349 15.8521 95.1354 15.2887 95.1354 14.6197C95.1354 13.8626 95.5017 13.2376 96.2343 12.7446C96.9722 12.2472 97.9294 11.9985 99.1058 11.9985C99.9079 11.9985 100.622 12.1262 101.247 12.3815C101.878 12.6368 102.365 12.9889 102.707 13.4378C103.055 13.8868 103.229 14.3776 103.229 14.9102H101.681C101.681 14.3292 101.456 13.8736 101.007 13.5435C100.558 13.209 99.9239 13.0417 99.1058 13.0417C98.3465 13.0417 97.7529 13.1804 97.3251 13.4577C96.9027 13.7306 96.6915 14.1113 96.6915 14.5999C96.6915 14.9916 96.892 15.3239 97.293 15.5968C97.6994 15.8653 98.3866 16.1118 99.3544 16.3363C100.328 16.5608 101.087 16.8094 101.632 17.0823C102.183 17.3508 102.59 17.6655 102.852 18.0265C103.119 18.3874 103.253 18.8122 103.253 19.3007C103.253 20.0798 102.884 20.7048 102.146 21.1758C101.408 21.6424 100.421 21.8756 99.186 21.8756C98.3839 21.8756 97.6353 21.7502 96.9401 21.4993C96.245 21.244 95.7076 20.8963 95.3279 20.4561C94.9536 20.016 94.7664 19.5164 94.7664 18.9574H96.3145C96.3145 19.5384 96.5738 19.9984 97.0925 20.3373C97.6166 20.6718 98.3144 20.8391 99.186 20.8391C99.9988 20.8391 100.622 20.7026 101.055 20.4297C101.488 20.1568 101.705 19.7849 101.705 19.3139C101.705 18.843 101.504 18.4798 101.103 18.2245C100.702 17.9649 99.9747 17.7096 98.9213 17.4587Z" fill="#FFFFFF"/>
<path d="M114.153 17.2474C114.153 18.1761 113.974 18.9772 113.616 19.6507C113.257 20.3197 112.755 20.8435 112.108 21.222L114.193 22.5689L113.142 23.3678L110.68 21.7568C110.295 21.836 109.889 21.8756 109.461 21.8756C108.541 21.8756 107.726 21.6908 107.014 21.321C106.303 20.9469 105.75 20.4165 105.354 19.7299C104.964 19.0388 104.763 18.24 104.753 17.3332V16.64C104.753 15.7157 104.948 14.8992 105.338 14.1905C105.728 13.4819 106.279 12.9405 106.99 12.5663C107.707 12.1878 108.525 11.9985 109.445 11.9985C110.386 11.9985 111.212 12.1856 111.923 12.5597C112.64 12.9339 113.191 13.4731 113.576 14.1773C113.961 14.8772 114.153 15.6958 114.153 16.6334V17.2474ZM112.613 16.6268C112.613 15.4956 112.338 14.6241 111.787 14.0123C111.242 13.396 110.461 13.0879 109.445 13.0879C108.477 13.0879 107.712 13.3938 107.151 14.0056C106.595 14.6131 106.309 15.4582 106.293 16.5409V17.2474C106.293 18.3478 106.571 19.2149 107.127 19.8487C107.688 20.4825 108.466 20.7995 109.461 20.7995C110.455 20.7995 111.225 20.5024 111.771 19.9081C112.316 19.3095 112.597 18.4534 112.613 17.3398V16.6268Z" fill="#FFFFFF"/>
<path d="M118.075 20.707H123.61V21.7436H116.527V12.1306H118.075V20.707Z" fill="#FFFFFF"/>
<path d="M98.9215 17.4582C97.6007 17.1457 96.6382 16.7627 96.0339 16.3094C95.435 15.8516 95.1356 15.2882 95.1356 14.6192C95.1356 13.8621 95.5019 13.2371 96.2344 12.7441C96.9724 12.2467 97.9295 11.998 99.1059 11.998C99.908 11.998 100.622 12.1257 101.248 12.381C101.879 12.6363 102.365 12.9884 102.707 13.4374C103.055 13.8863 103.229 14.3771 103.229 14.9097H101.681C101.681 14.3287 101.456 13.8731 101.007 13.543C100.558 13.2085 99.9241 13.0412 99.1059 13.0412C98.3466 13.0412 97.7531 13.1799 97.3253 13.4572C96.9029 13.7301 96.6916 14.1108 96.6916 14.5994C96.6916 14.9911 96.8922 15.3234 97.2932 15.5963C97.6996 15.8648 98.3867 16.1113 99.3546 16.3358C100.328 16.5603 101.087 16.809 101.633 17.0819C102.183 17.3503 102.59 17.6651 102.852 18.026C103.119 18.3869 103.253 18.8117 103.253 19.3002C103.253 20.0793 102.884 20.7043 102.146 21.1753C101.408 21.6419 100.421 21.8752 99.1862 21.8752C98.3841 21.8752 97.6354 21.7497 96.9403 21.4988C96.2451 21.2435 95.7077 20.8958 95.3281 20.4557C94.9538 20.0155 94.7666 19.5159 94.7666 18.9569H96.3146C96.3146 19.5379 96.574 19.9979 97.0927 20.3368C97.6167 20.6713 98.3145 20.8386 99.1862 20.8386C99.9989 20.8386 100.622 20.7021 101.055 20.4292C101.488 20.1563 101.705 19.7844 101.705 19.3134C101.705 18.8425 101.504 18.4794 101.103 18.2241C100.702 17.9644 99.9749 17.7091 98.9215 17.4582Z" fill="#FFFFFF"/>
<path d="M114.153 17.2469C114.153 18.1756 113.974 18.9767 113.616 19.6502C113.258 20.3192 112.755 20.843 112.108 21.2215L114.193 22.5684L113.143 23.3673L110.68 21.7563C110.295 21.8355 109.889 21.8752 109.461 21.8752C108.541 21.8752 107.726 21.6903 107.015 21.3206C106.303 20.9464 105.75 20.416 105.354 19.7294C104.964 19.0383 104.763 18.2395 104.753 17.3327V16.6395C104.753 15.7152 104.948 14.8987 105.338 14.19C105.729 13.4814 106.279 12.94 106.991 12.5658C107.707 12.1873 108.525 11.998 109.445 11.998C110.386 11.998 111.212 12.1851 111.923 12.5592C112.64 12.9334 113.191 13.4726 113.576 14.1768C113.961 14.8767 114.153 15.6954 114.153 16.6329V17.2469ZM112.613 16.6263C112.613 15.4951 112.338 14.6236 111.787 14.0118C111.242 13.3955 110.461 13.0874 109.445 13.0874C108.477 13.0874 107.712 13.3933 107.151 14.0052C106.595 14.6126 106.309 15.4577 106.293 16.5405V17.2469C106.293 18.3473 106.571 19.2144 107.127 19.8482C107.688 20.4821 108.466 20.799 109.461 20.799C110.456 20.799 111.226 20.5019 111.771 19.9077C112.316 19.309 112.597 18.4529 112.613 17.3393V16.6263Z" fill="#FFFFFF"/>
<path d="M118.076 20.7065H123.61V21.7431H116.528V12.1301H118.076V20.7065Z" fill="#FFFFFF"/>
<defs>
<clipPath id="clip0">
<rect width="32.9587" height="33.9741" fill="white" transform="translate(0.939453 0.751953)"/>
</clipPath>
</defs>
</svg>