<svg width="34" height="35" viewBox="0 0 34 35" fill="none" xmlns="http://www.w3.org/2000/svg">
<g clip-path="url(#clip0)">
<path d="M25.593 25.4823C25.8091 23.682 25.7444 23.418 27.0853 23.7096L27.4258 23.7395C28.4569 23.7864 29.8056 23.5737 30.598 23.2055C32.3038 22.414 33.3153 21.0925 31.6333 21.4398C27.7966 22.2313 27.5329 20.9321 27.5329 20.9321C31.5842 14.921 33.2778 7.29039 31.8159 5.42258C27.8288 0.327867 20.927 2.73704 20.8115 2.79959L20.7748 2.80638C20.0167 2.64909 19.1683 2.55511 18.2153 2.5397C16.479 2.51117 15.1616 2.99487 14.1622 3.75287C14.1622 3.75287 1.84991 -1.31964 2.4227 10.1321C2.54452 12.5682 5.91461 28.5657 9.93406 23.7337C11.4032 21.9668 12.8229 20.4728 12.8229 20.4728C13.5279 20.9412 14.3719 21.1801 15.2572 21.0943L15.3256 21.0359C15.3042 21.2553 15.3136 21.4699 15.353 21.7239C14.3177 22.8809 14.6219 23.084 12.5517 23.5101C10.4573 23.9418 11.6878 24.7103 12.4909 24.9112C13.4649 25.1547 15.718 25.4997 17.2408 23.3685L17.1801 23.6116C17.5863 23.9366 17.5589 25.9473 17.6164 27.3839C17.6741 28.8205 17.7703 30.1612 18.0631 30.9516C18.356 31.7419 18.7015 33.7778 21.4222 33.1947C23.6961 32.7074 25.4346 32.0061 25.593 25.4822" fill="black"/>
<path d="M25.593 25.4823C25.8091 23.682 25.7444 23.418 27.0853 23.7096L27.4258 23.7395C28.4569 23.7864 29.8056 23.5737 30.5981 23.2055C32.3038 22.414 33.3153 21.0925 31.6333 21.4398C27.7966 22.2313 27.5329 20.9321 27.5329 20.9321C31.5842 14.921 33.2778 7.29039 31.8159 5.42258C27.8288 0.327867 20.927 2.73704 20.8115 2.79959L20.7748 2.80638C20.0167 2.64909 19.1683 2.55511 18.2153 2.5397C16.479 2.51117 15.1616 2.99487 14.1622 3.75287C14.1622 3.75287 1.84991 -1.31964 2.4227 10.1321C2.54452 12.5682 5.91461 28.5657 9.93406 23.7337C11.4032 21.9668 12.8229 20.4728 12.8229 20.4728C13.5279 20.9412 14.3719 21.1801 15.2572 21.0943L15.3256 21.0359C15.3042 21.2553 15.3136 21.4699 15.353 21.7239C14.3177 22.8809 14.6219 23.084 12.5517 23.5101C10.4573 23.9418 11.6878 24.7103 12.4909 24.9112C13.4649 25.1547 15.718 25.4997 17.2408 23.3685L17.1801 23.6116C17.5863 23.9366 17.5589 25.9473 17.6164 27.3839C17.6741 28.8205 17.7703 30.1612 18.0631 30.9516C18.356 31.7419 18.7015 33.7778 21.4222 33.1947C23.6961 32.7074 25.4346 32.0061 25.593 25.4822" stroke="black" stroke-width="2.75066"/>
<path d="M31.6321 21.4397C27.7951 22.2312 27.5313 20.9321 27.5313 20.9321C31.5826 14.9206 33.2762 7.28981 31.8147 5.42223C27.8275 0.327824 20.9254 2.73715 20.8103 2.7997L20.7732 2.80634C20.0151 2.64897 19.1667 2.55522 18.2132 2.53966C16.477 2.51121 15.16 2.99483 14.1606 3.75268C14.1606 3.75268 1.8481 -1.31961 2.42074 10.132C2.54256 12.5683 5.91257 28.5658 9.93218 23.7338C11.4013 21.9669 12.8209 20.4729 12.8209 20.4729C13.5259 20.9413 14.37 21.1802 15.2548 21.0944L15.3235 21.0361C15.3022 21.2554 15.3119 21.47 15.3511 21.724C14.3156 22.881 14.6199 23.0841 12.5498 23.5102C10.4552 23.9419 11.6857 24.7104 12.4891 24.9113C13.4631 25.1548 15.7163 25.4998 17.2388 23.3686L17.1781 23.6117C17.5838 23.9367 17.8687 25.7256 17.821 27.3471C17.7732 28.9688 17.7413 30.0821 18.061 30.9517C18.3807 31.8213 18.6993 33.7779 21.4206 33.1948C23.6944 32.7075 24.8727 31.4448 25.0367 29.3384C25.153 27.841 25.4162 28.0623 25.4329 26.7235L25.644 26.0897C25.8875 24.0598 25.6827 23.4049 27.0836 23.7095L27.424 23.7394C28.4551 23.7864 29.8046 23.5736 30.5966 23.2055C32.3021 22.414 33.3136 21.0925 31.632 21.4397H31.6321Z" fill="#336791"/>
<path d="M17.4053 22.6055C17.2997 26.3826 17.4319 30.186 17.8014 31.1104C18.1713 32.0348 18.9627 33.8327 21.6841 33.2497C23.9578 32.7622 24.785 31.819 25.144 29.7369C25.4084 28.205 25.9181 23.9507 25.9835 23.079" stroke="white" stroke-width="0.916888" stroke-linecap="round" stroke-linejoin="round"/>
<path d="M14.1435 3.67004C14.1435 3.67004 1.82255 -1.36571 2.39535 10.0859C2.51717 12.5222 5.8874 28.5202 9.90694 23.688C11.3758 21.9209 12.7042 20.5349 12.7042 20.5349" stroke="white" stroke-width="0.916888" stroke-linecap="round" stroke-linejoin="round"/>
<path d="M20.7992 2.75107C20.3727 2.88479 27.6529 0.089715 31.7902 5.37643C33.2517 7.24408 31.5581 14.8748 27.5069 20.8865" stroke="white" stroke-width="0.916888" stroke-linecap="round" stroke-linejoin="round"/>
<path d="M27.5061 20.8862C27.5061 20.8862 27.7701 22.1857 31.6073 21.3937C33.2885 21.0464 32.2767 22.3681 30.5716 23.16C29.1723 23.8094 26.0349 23.9759 25.9836 23.0784C25.8518 20.7629 27.6349 21.4664 27.5062 20.8862C27.3899 20.3637 26.5924 19.8508 26.065 18.572C25.6045 17.4558 19.7492 8.89585 27.6887 10.1671C27.9796 10.107 25.618 2.6152 18.1878 2.49338C10.7592 2.37156 11.0029 11.6289 11.0029 11.6289" stroke="white" stroke-width="0.916888" stroke-linecap="round" stroke-linejoin="bevel"/>
<path d="M15.3265 21.6788C14.2909 22.8357 14.5954 23.0388 12.5253 23.4651C10.4307 23.8968 11.6613 24.6652 12.4645 24.866C13.4384 25.1097 15.6917 25.4547 17.2142 23.3229C17.6778 22.6738 17.2114 21.6382 16.5745 21.3742C16.2668 21.2467 15.8554 21.087 15.3265 21.6788V21.6788Z" stroke="white" stroke-width="0.916888" stroke-linecap="round" stroke-linejoin="round"/>
<path d="M15.2567 21.6581C15.1524 20.978 15.4802 20.1685 15.8316 19.2216C16.3596 17.8008 17.5779 16.3797 16.6033 11.8728C15.8769 8.51422 11.0046 11.1738 11.0016 11.6292C10.9986 12.0845 11.2219 13.9375 10.9202 16.0953C10.5264 18.911 12.7118 21.2925 15.2284 21.0488" stroke="white" stroke-width="0.916888" stroke-linecap="round" stroke-linejoin="round"/>
<path d="M14.0988 11.561C14.0768 11.7165 14.3835 12.1315 14.7835 12.187C15.1827 12.2427 15.5245 11.9183 15.5461 11.7629C15.5678 11.6074 15.2614 11.4361 14.8613 11.3804C14.4619 11.3246 14.12 11.4058 14.0988 11.561H14.0988Z" fill="white" stroke="white" stroke-width="0.305627"/>
<path d="M26.2604 11.244C26.2821 11.3996 25.9758 11.8146 25.5757 11.8701C25.1762 11.9257 24.8344 11.6014 24.8126 11.446C24.7914 11.2905 25.0978 11.1192 25.4975 11.0635C25.8971 11.0078 26.2388 11.0889 26.2604 11.2441V11.244Z" fill="white" stroke="white" stroke-width="0.152813"/>
<path d="M27.6897 10.1675C27.7555 11.3875 27.4269 12.2185 27.3854 13.5173C27.3241 15.4051 28.2855 17.5658 26.8369 19.7292" stroke="white" stroke-width="0.916888" stroke-linecap="round" stroke-linejoin="round"/>
</g>
<defs>
<clipPath id="clip0">
<rect width="32.9587" height="33.9741" fill="white" transform="translate(0.939453 0.751953)"/>
</clipPath>
</defs>
</svg>
