<svg width="101" height="110" viewBox="0 0 101 110" fill="none" xmlns="http://www.w3.org/2000/svg">
<path d="M15.8447 16.1819V5.70757C15.8447 3.11841 17.9574 1 20.5396 1H74.7653L99.0612 27.7155L100 104.684C100 107.273 97.8875 109.392 95.3053 109.392H20.5396C17.9574 109.392 15.8447 107.273 15.8447 104.684V28.3039" fill="white"/>
<path d="M15.8447 16.1819V5.70757C15.8447 3.11841 17.9574 1 20.5396 1H74.7653L99.0612 27.7155L100 104.684C100 107.273 97.8875 109.392 95.3053 109.392H20.5396C17.9574 109.392 15.8447 107.273 15.8447 104.684V28.3039" stroke="#919EAB" stroke-width="1.13831" stroke-miterlimit="10" stroke-linecap="round" stroke-linejoin="round"/>
<path d="M52.229 94.093H49.5295C48.9426 94.093 48.4731 93.6223 48.4731 93.0338C48.4731 92.4454 48.9426 91.9746 49.5295 91.9746H52.229C52.8159 91.9746 53.2854 92.4454 53.2854 93.0338C53.2854 93.6223 52.8159 94.093 52.229 94.093Z" fill="#D4D4D4"/>
<path d="M44.6012 94.093H28.756C28.1692 94.093 27.6997 93.6223 27.6997 93.0338C27.6997 92.4454 28.1692 91.9746 28.756 91.9746H44.6012C45.1881 91.9746 45.6576 92.4454 45.6576 93.0338C45.7749 93.6223 45.3054 94.093 44.6012 94.093Z" fill="#D4D4D4"/>
<path d="M65.3754 17.1224H29.5771C28.7555 17.1224 28.0513 16.4163 28.0513 15.5925C28.0513 14.7686 28.7555 14.0625 29.5771 14.0625H65.3754C66.197 14.0625 66.9013 14.7686 66.9013 15.5925C66.9013 16.4163 66.197 17.1224 65.3754 17.1224Z" fill="#D4D4D4"/>
<path d="M43.1922 25.7152H29.5771C28.7555 25.7152 28.0513 25.0091 28.0513 24.1852C28.0513 23.3614 28.7555 22.6553 29.5771 22.6553H43.3096C44.1312 22.6553 44.8354 23.3614 44.8354 24.1852C44.8354 25.0091 44.0138 25.7152 43.1922 25.7152Z" fill="#D4D4D4"/>
<path d="M74.7661 10.8857V22.1839C74.7661 25.1261 77.3483 27.5976 80.2826 27.5976H99.062" stroke="#919EAB" stroke-width="1.13831" stroke-miterlimit="10" stroke-linecap="round" stroke-linejoin="round"/>
<path d="M87.3247 41.8408H68.6626C68.6626 41.8408 68.6626 41.8408 68.5453 41.8408C68.4279 41.8408 68.5453 41.8408 68.4279 41.8408H49.179C49.179 41.8408 49.1789 41.8408 49.0616 41.8408C48.9442 41.8408 49.0616 41.8408 48.9442 41.8408H30.869C28.8737 41.8408 27.2305 43.4885 27.2305 45.6069V78.3245C27.2305 80.3252 28.8737 82.0905 30.869 82.0905H87.2073C89.2027 82.0905 90.8459 80.4429 90.8459 78.3245V45.6069C90.9632 43.6062 89.32 41.8408 87.3247 41.8408ZM50.2353 70.7924V63.4956H67.4889V70.7924H50.2353ZM67.4889 73.0285V79.7368H50.2353V73.0285H67.4889ZM67.4889 53.8451V61.1419H50.2353V53.8451H67.4889ZM50.2353 51.609V44.0769H67.4889V51.609H50.2353ZM88.7332 61.2596H69.719V53.9628H88.7332V61.2596ZM48.0052 61.2596H29.4605V53.9628H47.8879V61.2596H48.0052ZM29.4605 63.4956H47.8879V70.7924H29.4605V63.4956ZM69.719 63.4956H88.7332V70.7924H69.719V63.4956ZM88.7332 45.6069V51.609H69.719V44.0769H87.3247C88.0289 44.0769 88.7332 44.7831 88.7332 45.6069ZM30.869 44.0769H47.8879V51.609H29.4605V45.6069C29.4605 44.7831 30.1648 44.0769 30.869 44.0769ZM29.4605 78.3245V73.0285H47.8879V79.7368H30.869C30.1648 79.7368 29.4605 79.1483 29.4605 78.3245ZM87.3247 79.7368H69.719V73.0285H88.7332V78.3245C88.7332 79.1483 88.0289 79.7368 87.3247 79.7368Z" fill="#D4D4D4"/>
<path d="M36.8455 61H3.15458C1.38802 61 0 59.721 0 58.0931V43.907C0 42.2791 1.38802 41 3.15458 41H36.8455C38.6121 41 40.0001 42.2791 40.0001 43.907V57.9768C40.0001 59.6047 38.6121 61 36.8455 61Z" fill="#919EAB"/>
<path d="M4.28003 54.6161C5.65739 54.6161 6.59081 53.8876 6.59081 52.7606C6.59081 51.5313 5.52079 51.1898 4.53046 50.9166C3.63119 50.6548 3.32385 50.5409 3.32385 50.1653C3.32385 49.8352 3.69949 49.6417 4.18897 49.6417C4.70121 49.6417 5.30451 49.8238 5.86229 50.1767L6.44283 49.1636C5.80537 48.7424 4.99717 48.4578 4.18897 48.4578C2.87991 48.4578 1.96926 49.2091 1.96926 50.3133C1.98064 51.3605 2.78884 51.7248 4.06375 52.0549C4.73536 52.237 5.2476 52.385 5.2476 52.8403C5.2476 53.2046 4.86057 53.4436 4.3028 53.4436C3.5629 53.4436 2.90267 53.1704 2.33352 52.7606L1.70745 53.7282C2.4132 54.2974 3.38077 54.6161 4.28003 54.6161ZM11.0075 48.4578C10.222 48.4578 9.52765 48.8335 9.17478 49.4026V46.5227H7.78604V54.4795H9.17478V50.9166C9.17478 50.2108 9.82362 49.6417 10.6091 49.6417C11.3376 49.6417 11.8498 50.2108 11.8498 51.0076V54.4795H13.193V50.7344C13.193 49.4026 12.2938 48.4578 11.0075 48.4578ZM17.444 53.3867C16.6016 53.3867 15.987 52.8176 15.8162 52.0094H20.2556C20.2556 49.8352 19.197 48.4578 17.3757 48.4578C15.7024 48.4578 14.3819 49.7555 14.3819 51.5199C14.3819 53.3298 15.7707 54.6161 17.4554 54.6161C18.3091 54.6161 19.3336 54.2518 19.8458 53.7054L18.9693 52.7948C18.6392 53.1363 17.9904 53.3867 17.444 53.3867ZM17.4326 49.6872C18.2636 49.6872 18.7644 50.2108 18.9238 50.9507H15.8276C16.0325 50.1767 16.6586 49.6872 17.4326 49.6872ZM24.2027 53.3867C23.3604 53.3867 22.7457 52.8176 22.5749 52.0094H27.0144C27.0144 49.8352 25.9557 48.4578 24.1344 48.4578C22.4611 48.4578 21.1407 49.7555 21.1407 51.5199C21.1407 53.3298 22.5294 54.6161 24.2141 54.6161C25.0678 54.6161 26.0923 54.2518 26.6046 53.7054L25.7281 52.7948C25.398 53.1363 24.7491 53.3867 24.2027 53.3867ZM24.1913 49.6872C25.0223 49.6872 25.5232 50.2108 25.6825 50.9507H22.5863C22.7912 50.1767 23.4173 49.6872 24.1913 49.6872ZM31.155 53.216C31.0298 53.3412 30.8135 53.4322 30.5744 53.4322C30.2443 53.4322 29.9939 53.1477 29.9939 52.7493V49.7441H31.3257V48.5944H29.9939V46.978H28.6393V48.5944H27.7856V49.7441H28.6393V52.92C28.6393 53.9103 29.3223 54.6161 30.3012 54.6161C30.7452 54.6161 31.2233 54.434 31.5534 54.1494L31.155 53.216ZM34.8055 54.6161C36.1829 54.6161 37.1163 53.8876 37.1163 52.7606C37.1163 51.5313 36.0463 51.1898 35.0559 50.9166C34.1567 50.6548 33.8493 50.5409 33.8493 50.1653C33.8493 49.8352 34.225 49.6417 34.7144 49.6417C35.2267 49.6417 35.83 49.8238 36.3877 50.1767L36.9683 49.1636C36.3308 48.7424 35.5226 48.4578 34.7144 48.4578C33.4054 48.4578 32.4947 49.2091 32.4947 50.3133C32.5061 51.3605 33.3143 51.7248 34.5892 52.0549C35.2608 52.237 35.7731 52.385 35.7731 52.8403C35.7731 53.2046 35.386 53.4436 34.8283 53.4436C34.0884 53.4436 33.4281 53.1704 32.859 52.7606L32.2329 53.7282C32.9387 54.2974 33.9062 54.6161 34.8055 54.6161Z" fill="white"/>
</svg>
